<?xml version="1.0" encoding="utf-8"?>
<!-- Generator: Adobe Illustrator 26.0.1, SVG Export Plug-In . SVG Version: 6.00 Build 0)  -->
<svg version="1.1" xmlns="http://www.w3.org/2000/svg" xmlns:xlink="http://www.w3.org/1999/xlink" x="0px" y="0px"
	 viewBox="0 0 809 509.3" style="enable-background:new 0 0 809 509.3;" xml:space="preserve">
<style type="text/css">
	.st0{fill:#131314;}
	.st1{fill:#F7F5DD;stroke:#131314;stroke-width:0.8581;stroke-miterlimit:10;}
	.st2{fill:#131314;stroke:#F7F5DD;stroke-width:0.3547;stroke-miterlimit:10;}
	.st3{fill:#FFC72B;stroke:#131314;stroke-width:0.8581;stroke-linecap:round;stroke-linejoin:round;stroke-miterlimit:10;}
	.st4{fill:none;stroke:#131314;stroke-width:0.8581;stroke-miterlimit:10;}
	.st5{fill:#131314;stroke:#F7F5DD;stroke-width:0.389;stroke-miterlimit:10;}
	.st6{fill:#FF0058;stroke:#131314;stroke-width:1.7191;stroke-miterlimit:10;}
	.st7{fill:#FFC72B;}
	.st8{fill:#F7F5DD;}
	.st9{fill:url(#SVGID_1_);}
	.st10{fill:#FFE092;}
	.st11{fill:#FF0058;}
	.st12{fill:#FFFFFF;filter:url(#Adobe_OpacityMaskFilter);}
	.st13{mask:url(#mask4_744_2018_00000183221484926765621670000012565967078459250105_);}
	.st14{fill:#FFC72B;stroke:#131314;stroke-width:0.8581;stroke-miterlimit:10;}
	.st15{fill:url(#SVGID_00000181781206709137322160000001504778717637988770_);}
	.st16{clip-path:url(#SVGID_00000114059917385715380700000007297881128186720929_);}
	.st17{fill:#FFC72C;stroke:#131314;stroke-width:0.1032;stroke-miterlimit:10;}
	.st18{clip-path:url(#SVGID_00000088818190249838077160000008686150949921384356_);}
	.st19{fill:#DD9F14;}
	.st20{fill:none;stroke:#131314;stroke-width:2;stroke-miterlimit:10;}
	.st21{clip-path:url(#SVGID_00000073694187445361659830000018136532371725736348_);}
	.st22{fill:#F7F5DD;stroke:#131314;stroke-miterlimit:10;}
	.st23{fill:#131314;stroke:#131314;stroke-miterlimit:10;}
	.st24{fill:#FF0058;stroke:#131314;stroke-miterlimit:10;}
	.st25{opacity:0.1;fill:url(#SVGID_00000183217576451869928200000009321950162177487773_);enable-background:new    ;}
	.st26{opacity:0.4;}
	.st27{fill:none;stroke:#131314;stroke-miterlimit:10;}
	.st28{fill:#FFC72C;}
	.st29{fill:none;stroke:#131314;stroke-width:0.931;stroke-miterlimit:10;}
	.st30{fill:url(#SVGID_00000174596616215741087460000011890855421674812289_);}
	.st31{clip-path:url(#SVGID_00000141413382051057566380000010101455564503504538_);}
	.st32{fill:none;stroke:#131314;stroke-width:0.7836;}
	.st33{fill:#FF0058;stroke:#131314;stroke-width:0.931;stroke-miterlimit:10;}
	.st34{opacity:0.78;fill:#FFFFFF;}
	.st35{fill:#F7F5DD;stroke:#131314;stroke-width:1.3965;stroke-miterlimit:10;}
	.st36{fill:#FFC72B;stroke:#131314;stroke-width:0.931;stroke-miterlimit:10;}
	.st37{fill:#E7B67B;}
	.st38{fill:#FFC72C;stroke:#231F20;stroke-width:0.3724;stroke-linecap:round;stroke-linejoin:round;}
	.st39{fill:none;stroke:#F7F5DD;stroke-width:1.862;stroke-linecap:round;stroke-linejoin:round;stroke-miterlimit:10;}
	.st40{fill:none;stroke:#F7F5DD;stroke-width:0.931;stroke-linecap:round;stroke-linejoin:round;stroke-miterlimit:10;}
	.st41{fill:none;stroke:#FF0058;stroke-width:0.931;stroke-miterlimit:10;}
	.st42{fill:none;stroke:#FF0058;stroke-width:0.931;stroke-linecap:round;stroke-linejoin:round;stroke-miterlimit:10;}
	.st43{fill:none;stroke:#131314;stroke-width:0.931;stroke-linecap:round;stroke-linejoin:round;stroke-miterlimit:10;}
	.st44{fill:none;stroke:#000000;stroke-width:0.931;stroke-miterlimit:10;}
	.st45{fill:none;}
	.st46{fill:#FFC72C;stroke:#000000;stroke-width:0.8449;stroke-miterlimit:10;}
	.st47{clip-path:url(#SVGID_00000081619422522886290220000007248378478058327940_);fill:#F4B821;}
	.st48{clip-path:url(#SVGID_00000081619422522886290220000007248378478058327940_);fill:#FF0058;}
	.st49{clip-path:url(#SVGID_00000011745795950843522680000007733606772717122455_);fill:#F4B821;}
	.st50{clip-path:url(#SVGID_00000011745795950843522680000007733606772717122455_);fill:#FF0058;}
	.st51{fill:#FE0058;}
	.st52{fill:#FFF8FB;}
	.st53{fill:#F7F5DD;stroke:#000000;stroke-width:1.2859;stroke-miterlimit:10;}
	.st54{fill:url(#SVGID_00000176004213002563795450000010546176428109053318_);}
	.st55{clip-path:url(#SVGID_00000093894381814612083400000012099661044954549925_);}
	.st56{fill:none;stroke:#131314;stroke-width:1.4798;}
	.st57{fill:#FFC72B;stroke:#131314;stroke-width:1.0065;stroke-miterlimit:10;}
	.st58{fill:#DD225C;}
	.st59{fill:#67300F;}
	.st60{fill:#FFC72C;stroke:#231F20;stroke-width:0.4026;stroke-linecap:round;stroke-linejoin:round;}
	.st61{fill:#FFB703;}
	.st62{clip-path:url(#SVGID_00000178912175174345905750000007824399048907424139_);}
	.st63{fill:url(#SVGID_00000135680518334175819120000006609292311675199881_);}
	.st64{clip-path:url(#SVGID_00000006705031838935355750000009910376666994665601_);}
	.st65{fill:none;stroke:#131314;stroke-width:1.5895;}
	.st66{fill:#FFFFFF;filter:url(#Adobe_OpacityMaskFilter_00000054255675065805653370000014371407881201394819_);}
	.st67{mask:url(#mask4_744_2018_00000150814286955539578320000013805391622432084355_);}
	.st68{fill:#FFC72B;stroke:#131314;stroke-width:0.97;stroke-miterlimit:10;}
	.st69{fill:url(#SVGID_00000139972576225580523090000014659646690345436307_);}
	.st70{clip-path:url(#SVGID_00000166672056105419320260000007551095184935671226_);}
	.st71{fill:#FFC72C;stroke:#131314;stroke-width:0.1166;stroke-miterlimit:10;}
	.st72{opacity:0.14;clip-path:url(#XMLID_00000056385204050136584050000011790638036058156960_);fill:#F7F5DD;}
	.st73{opacity:0.14;clip-path:url(#XMLID_00000140732292479935019130000003216028041576453778_);fill:#F7F5DD;}
	.st74{opacity:0.14;clip-path:url(#XMLID_00000110441033522889798230000015392058497119433094_);fill:#F7F5DD;}
	.st75{fill:none;stroke:#131314;stroke-width:0.7289;stroke-miterlimit:10;}
	.st76{fill-rule:evenodd;clip-rule:evenodd;fill:#F7F5DD;stroke:#231F20;stroke-width:0.5758;stroke-miterlimit:10;}
	.st77{fill:#FFC72C;stroke:#231F20;stroke-width:0.2915;stroke-linecap:round;stroke-linejoin:round;}
	.st78{fill:#EBD8D1;}
	.st79{fill:#FFC72B;stroke:#131314;stroke-width:0.7289;stroke-miterlimit:10;}
	.st80{fill:#FFC72B;stroke:#131314;stroke-width:1.0933;stroke-miterlimit:10;}
	.st81{fill:#FDBAA7;}
	.st82{fill:#F7F5DD;stroke:#131314;stroke-width:0.7289;stroke-miterlimit:10;}
	.st83{opacity:0.5;fill:#FCC0B1;}
	.st84{fill:#F7F5DD;stroke:#131314;stroke-width:1.0933;stroke-miterlimit:10;}
	.st85{fill:#843636;}
	.st86{opacity:0.7;}
	.st87{fill:#853536;}
	.st88{fill:#E0A9A0;}
	.st89{fill:none;stroke:#F7F5DD;stroke-width:1.4577;stroke-linecap:round;stroke-linejoin:round;stroke-miterlimit:10;}
	.st90{fill:none;stroke:#F7F5DD;stroke-width:0.7289;stroke-linecap:round;stroke-linejoin:round;stroke-miterlimit:10;}
	.st91{fill:none;stroke:#FF0058;stroke-width:0.7289;stroke-miterlimit:10;}
	.st92{fill:none;stroke:#FF0058;stroke-width:0.7289;stroke-linecap:round;stroke-linejoin:round;stroke-miterlimit:10;}
	.st93{fill:none;stroke:#131314;stroke-width:0.7289;stroke-linecap:round;stroke-linejoin:round;stroke-miterlimit:10;}
	.st94{fill:none;stroke:#000000;stroke-width:0.7289;stroke-miterlimit:10;}
	.st95{opacity:0.6;fill:#F7F5DD;enable-background:new    ;}
	.st96{opacity:0.4;fill:#F7F5DD;enable-background:new    ;}
	.st97{opacity:0.2;fill:#F7F5DD;enable-background:new    ;}
	.st98{fill:#F7F5DD;stroke:#131314;stroke-width:1.0398;stroke-miterlimit:10;}
	.st99{fill:url(#SVGID_00000087394924315963790090000004769549520784556161_);}
	.st100{clip-path:url(#SVGID_00000036243400366483749800000016135467719177646240_);}
	.st101{fill:none;stroke:#131314;stroke-width:1.396;}
	.st102{fill:#FFFFFF;stroke:#070405;stroke-width:1.0001;stroke-miterlimit:10;}
	.st103{fill:#FE0058;stroke:#000000;stroke-width:1.0001;stroke-miterlimit:10;}
	.st104{fill:#131314;stroke:#070405;stroke-width:1.0001;stroke-miterlimit:10;}
	.st105{fill:#F7F5DD;stroke:#070506;stroke-width:1.0001;stroke-miterlimit:10;}
	.st106{fill:#F7F5DD;stroke:#000000;stroke-width:1.0001;stroke-miterlimit:10;}
	.st107{fill:#131313;}
	.st108{fill:#101431;stroke:#0C0609;stroke-width:1.0001;stroke-miterlimit:10;}
	.st109{fill:#171F42;stroke:#0C0609;stroke-width:1.0001;stroke-miterlimit:10;}
	.st110{fill:none;stroke:#131314;stroke-width:1.63;stroke-linecap:round;stroke-linejoin:round;stroke-dasharray:10.2907,8.5737;}
	.st111{fill:#FFC72C;stroke:#131314;stroke-width:0.815;stroke-linecap:round;stroke-linejoin:round;stroke-miterlimit:10;}
	.st112{fill:#FFC72C;stroke:#131314;stroke-width:0.815;stroke-linecap:round;stroke-linejoin:round;}
	.st113{fill:none;stroke:#131314;stroke-width:0.9454;stroke-linecap:round;stroke-miterlimit:10;}
	.st114{fill:url(#SVGID_00000087390436610572808340000013656039834666964131_);}
	.st115{fill:#F7F5DD;stroke:#131314;stroke-width:1.0867;stroke-linecap:round;stroke-linejoin:round;stroke-miterlimit:10;}
	.st116{fill:none;stroke:#131314;stroke-width:1.0867;stroke-linecap:round;stroke-linejoin:round;stroke-miterlimit:10;}
	.st117{fill:#F7F5DD;stroke:#131314;stroke-width:2.0758;stroke-linecap:round;stroke-linejoin:round;stroke-miterlimit:10;}
	.st118{fill:none;stroke:#131314;stroke-width:2.0758;stroke-linecap:round;stroke-linejoin:round;stroke-miterlimit:10;}
	.st119{fill:#FFC72C;stroke:#131314;stroke-width:0.5341;stroke-linecap:round;stroke-linejoin:round;stroke-miterlimit:10;}
	.st120{fill:#FFC72C;stroke:#131314;stroke-width:0.5341;stroke-linecap:round;stroke-linejoin:round;}
	.st121{fill:none;stroke:#131314;stroke-width:0.6195;stroke-linecap:round;stroke-miterlimit:10;}
	.st122{fill:#FFFFFF;filter:url(#Adobe_OpacityMaskFilter_00000160189812224787444810000007737249143147131809_);}
	.st123{mask:url(#mask0_472_749_00000067936524425341381020000013690141856301607846_);}
	.st124{fill:#FFC72B;stroke:#000000;stroke-width:0.7607;stroke-miterlimit:10;}
	.st125{fill:none;stroke:#FF0058;stroke-width:3.26;stroke-linecap:round;stroke-linejoin:round;}
	.st126{fill:url(#SVGID_00000031200874259225917360000002645980198309439622_);}
	.st127{fill:#FFC72C;stroke:#131314;stroke-width:9.798834e-02;stroke-miterlimit:10;}
	.st128{fill:#F7F5DD;stroke:#131314;stroke-width:0.8499;stroke-miterlimit:10;}
	.st129{fill:url(#SVGID_00000072991583439138300690000011006900287148038570_);}
	.st130{clip-path:url(#SVGID_00000008115249148679392000000011671883477715272363_);}
	.st131{fill:none;stroke:#131314;stroke-width:0.1586;}
	.st132{fill:#F7F5DD;stroke:#000000;stroke-width:0.1379;stroke-miterlimit:10;}
	.st133{fill:#FFC72B;stroke:#131314;stroke-width:0.1079;stroke-miterlimit:10;}
	
		.st134{fill-rule:evenodd;clip-rule:evenodd;fill:#F7F5DD;stroke:#131314;stroke-width:0.6316;stroke-linecap:round;stroke-linejoin:round;stroke-miterlimit:10;}
	.st135{fill:#FE0058;stroke:#131314;stroke-width:0.6316;stroke-linecap:round;stroke-linejoin:round;stroke-miterlimit:10;}
	.st136{fill:#F7F5DD;stroke:#131314;stroke-width:0.6316;stroke-linecap:round;stroke-linejoin:round;stroke-miterlimit:10;}
	.st137{fill:#FFC72B;stroke:#131314;stroke-width:0.8499;stroke-miterlimit:10;}
	.st138{opacity:0.5;}
	.st139{clip-path:url(#SVGID_00000177442928574962767310000003506852099396798640_);}
	.st140{fill:#CCCCCC;}
	.st141{fill:#FFC608;stroke:#131314;stroke-width:0.6316;stroke-linecap:round;stroke-linejoin:round;stroke-miterlimit:10;}
	.st142{fill:#79C9E2;}
	.st143{fill:#62B8CC;}
	.st144{fill:#D9E1EE;}
	.st145{fill:none;stroke:#FFFFFF;stroke-width:0.4753;stroke-miterlimit:10;}
	.st146{fill:#E48D34;}
	.st147{fill:#EAA05C;}
	.st148{fill:#D17A2B;}
	.st149{fill:#F5B376;}
	.st150{fill:#F5BE2D;}
	.st151{fill:#F4E081;}
	.st152{fill:#F2A101;}
	.st153{fill:#F7CF4C;}
	.st154{fill:#DE8E06;}
	.st155{fill:#05C954;}
	.st156{fill:#E21E36;}
	.st157{fill:#D4101E;}
	.st158{fill:#00AF47;}
	.st159{fill:#FFE164;}
	.st160{fill:#FFFAA6;}
	.st161{fill:#43B572;}
	.st162{fill:#FFC72C;stroke:#231F20;stroke-width:0.1377;stroke-linecap:round;stroke-linejoin:round;}
	.st163{fill:#FED0B8;}
	.st164{fill:#F7F5DD;stroke:#131314;stroke-width:0.6605;stroke-linecap:round;stroke-linejoin:round;stroke-miterlimit:10;}
	.st165{fill:#FFC608;stroke:#131314;stroke-width:0.6234;stroke-miterlimit:10;}
	.st166{fill:#FFC608;stroke:#131314;stroke-width:0.5155;stroke-miterlimit:10;}
	.st167{fill:none;stroke:#131314;stroke-width:1.1332;stroke-linecap:round;stroke-linejoin:round;stroke-dasharray:22.665,22.665;}
	.st168{fill:#FFC72C;stroke:#231F20;stroke-width:4.938446e-02;stroke-linecap:round;stroke-linejoin:round;}
	.st169{fill:url(#SVGID_00000085249050481868684500000009058142619213602736_);}
	.st170{clip-path:url(#SVGID_00000129188453305389576320000008634336385147271814_);}
	.st171{fill:#FFC72C;stroke:#131314;stroke-width:7.223932e-02;stroke-miterlimit:10;}
	.st172{fill:url(#SVGID_00000178885533599900883330000009106832817370816689_);}
	.st173{fill:#131314;stroke:#F7F5DD;stroke-width:0.1911;stroke-miterlimit:10;}
	.st174{fill:#F7F5DD;stroke:#131314;stroke-width:0.9245;stroke-miterlimit:10;}
	.st175{fill:none;stroke:#131314;stroke-width:0.9245;stroke-miterlimit:10;}
	.st176{fill:#131314;stroke:#F7F5DD;stroke-width:0.2096;stroke-miterlimit:10;}
	.st177{fill:#FF0058;stroke:#131314;stroke-width:0.9245;stroke-miterlimit:10;}
	.st178{fill:#232020;}
	.st179{fill:#F7F5DD;stroke:#231F20;stroke-width:0.9245;stroke-miterlimit:10;}
	.st180{fill:#FCF4EC;}
	.st181{fill:#CD950C;}
	.st182{fill:none;stroke:#FFFFFF;stroke-width:0.5769;stroke-miterlimit:10;}
	.st183{fill:#FFC72C;stroke:#131314;stroke-width:0.8286;stroke-miterlimit:10;}
	.st184{fill:#FFC72C;stroke:#131314;stroke-width:0.8286;stroke-linecap:round;stroke-linejoin:round;}
	.st185{clip-path:url(#SVGID_00000021082167028530167370000003570138508922218657_);}
	.st186{fill:url(#SVGID_00000072268590715336995830000004155229048022885282_);}
	.st187{clip-path:url(#SVGID_00000098932006119161333530000009855155587812174758_);}
	.st188{fill:none;stroke:#131314;stroke-width:1.5284;}
	.st189{fill:#FFFFFF;filter:url(#Adobe_OpacityMaskFilter_00000013185720829053928650000002672056852451452593_);}
	.st190{mask:url(#mask4_744_2018_00000067229330011245605510000014511519346254753932_);}
	.st191{fill:#FFC72B;stroke:#131314;stroke-width:0.9327;stroke-miterlimit:10;}
	.st192{fill-rule:evenodd;clip-rule:evenodd;fill:#F7F5DD;stroke:#131314;stroke-width:0.2707;stroke-miterlimit:10;}
	.st193{fill-rule:evenodd;clip-rule:evenodd;fill:#F9CC3D;}
	.st194{fill-rule:evenodd;clip-rule:evenodd;fill:#FE0058;}
	.st195{fill:#EDBA29;}
	.st196{fill-rule:evenodd;clip-rule:evenodd;fill:#98DFFF;}
	.st197{fill:#29ABE2;}
	.st198{fill-rule:evenodd;clip-rule:evenodd;fill:#FFC72C;stroke:#131314;stroke-width:0.2707;stroke-miterlimit:10;}
	.st199{fill-rule:evenodd;clip-rule:evenodd;fill:#F7F5DD;stroke:#131314;stroke-width:0.1083;stroke-miterlimit:10;}
	.st200{fill-rule:evenodd;clip-rule:evenodd;fill:#FE0058;stroke:#131314;stroke-width:0.1083;stroke-miterlimit:10;}
	.st201{fill:#B3B3B3;}
	.st202{fill:#FFC72C;stroke:#231F20;stroke-width:0.4332;stroke-linecap:round;stroke-linejoin:round;}
	.st203{fill:#FFC84A;}
	.st204{fill:#FF0058;stroke:#131314;stroke-width:1.2117;stroke-miterlimit:10;}
	.st205{fill:#F7F5DD;stroke:#131314;stroke-width:0.9088;stroke-miterlimit:10;}
	.st206{fill:#FFC72B;stroke:#131314;stroke-width:0.9088;stroke-miterlimit:10;}
	.st207{fill:url(#SVGID_00000168821276720720772220000013135817502733808797_);}
	.st208{fill:#FFC72B;stroke:#000000;stroke-width:0.8482;stroke-miterlimit:10;}
	.st209{fill:none;stroke:#F7F5DD;stroke-width:1.4089;stroke-linecap:round;stroke-linejoin:round;stroke-miterlimit:10;}
	.st210{fill:none;stroke:#131314;stroke-width:0.7045;stroke-miterlimit:10;}
	.st211{fill:none;stroke:#F7F5DD;stroke-width:0.7045;stroke-linecap:round;stroke-linejoin:round;stroke-miterlimit:10;}
	.st212{fill:none;stroke:#FF0058;stroke-width:0.7045;stroke-miterlimit:10;}
	.st213{fill:none;stroke:#FF0058;stroke-width:0.7045;stroke-linecap:round;stroke-linejoin:round;stroke-miterlimit:10;}
	.st214{fill:none;stroke:#131314;stroke-width:0.7045;stroke-linecap:round;stroke-linejoin:round;stroke-miterlimit:10;}
	.st215{fill:none;stroke:#000000;stroke-width:0.7045;stroke-miterlimit:10;}
	.st216{fill:none;stroke:#131314;stroke-width:0.8062;stroke-miterlimit:10;}
	.st217{clip-path:url(#SVGID_00000029009586189566456430000010294042138476288645_);}
	.st218{fill:url(#SVGID_00000005258730626077995330000002561616634854256307_);}
	.st219{clip-path:url(#SVGID_00000072248716655096929240000008080005562089911192_);}
	.st220{fill:none;stroke:#131314;stroke-width:1.7355;}
	.st221{fill:#F7F5DD;stroke:#131314;stroke-width:1.2641;stroke-miterlimit:10;}
	.st222{fill:#FFC608;stroke:#0C0609;stroke-width:0.9481;stroke-miterlimit:10;}
	.st223{fill:#FFC72B;stroke:#131314;stroke-width:1.2641;stroke-miterlimit:10;}
	.st224{fill:#FFC72B;stroke:#131314;stroke-width:0.9481;stroke-miterlimit:10;}
	.st225{clip-path:url(#SVGID_00000109024322744414327980000002171642958529094847_);}
	.st226{fill:#F4B821;}
	.st227{fill:#C69560;}
	.st228{fill:#F7F5DD;stroke:#131314;stroke-width:1.2993;stroke-miterlimit:10;}
	.st229{fill:#131314;stroke:#F7F5DD;stroke-width:0.2685;stroke-miterlimit:10;}
	.st230{fill:#FFC72B;stroke:#131314;stroke-width:1.2993;stroke-miterlimit:10;}
	.st231{fill:none;stroke:#131314;stroke-width:1.2993;stroke-miterlimit:10;}
	.st232{fill:#131314;stroke:#F7F5DD;stroke-width:0.2945;stroke-miterlimit:10;}
	.st233{fill:#FF0058;stroke:#131314;stroke-width:1.2993;stroke-miterlimit:10;}
	.st234{fill:#FFFFFF;filter:url(#Adobe_OpacityMaskFilter_00000126307992228358804100000004871261493571650719_);}
	.st235{mask:url(#mask0_479_11673_00000099644528304487065730000005320813079396614829_);}
	.st236{fill:#FFC72B;stroke:#000000;stroke-width:0.6063;stroke-miterlimit:10;}
	.st237{fill:url(#SVGID_00000070105217898332142310000014750969611079061688_);}
	.st238{fill:#FFFFFF;filter:url(#Adobe_OpacityMaskFilter_00000174597038372316934670000004015013920853119152_);}
	.st239{mask:url(#mask0_472_749_00000032621048777137593190000003031189513109940632_);}
	.st240{fill:url(#SVGID_00000156546985197809374750000003597292434890675872_);}
	.st241{fill:url(#SVGID_00000147901525492184502710000006080281662886775681_);}
	.st242{clip-path:url(#SVGID_00000160173414326408602180000012859345160867802011_);}
	.st243{fill:none;stroke:#131314;stroke-width:1.793;}
	.st244{fill:#F7F5DD;stroke:#000000;stroke-width:1.4856;stroke-miterlimit:10;}
	.st245{fill:#FFC72B;stroke:#131314;stroke-width:1.1628;stroke-miterlimit:10;}
	.st246{fill:#F7F5DD;stroke:#131314;stroke-width:1.306;stroke-miterlimit:10;}
	.st247{fill:none;stroke:#131314;stroke-width:1.2653;stroke-miterlimit:10;}
	.st248{fill:#FFC72C;stroke:#131314;stroke-width:0.9795;stroke-miterlimit:10;}
	.st249{fill:#FFC72C;stroke:#131314;stroke-width:0.9795;stroke-linecap:round;stroke-linejoin:round;stroke-miterlimit:10;}
	.st250{fill:#FFFFFF;}
	.st251{fill:#F7F5DD;stroke:#000000;stroke-width:0.4697;stroke-miterlimit:10;}
	.st252{fill:#FFC046;}
	.st253{fill:none;stroke:#131314;stroke-width:0.8612;stroke-linecap:round;stroke-linejoin:round;stroke-miterlimit:10;}
	.st254{fill:none;stroke:#FFFFFF;stroke-width:0.8612;stroke-linecap:round;stroke-linejoin:round;stroke-miterlimit:10;}
	.st255{fill:none;stroke:#F7F5DD;stroke-width:0.4697;stroke-miterlimit:10;}
	.st256{fill:#F7F5DD;stroke:#070506;stroke-width:0.5202;stroke-miterlimit:10;}
	.st257{fill:#F7F5DD;stroke:#000000;stroke-width:0.5202;stroke-miterlimit:10;}
	.st258{fill:#FE0058;stroke:#000000;stroke-width:0.5202;stroke-miterlimit:10;}
	.st259{fill:none;stroke:#F7F5DD;stroke-width:0.8612;stroke-linecap:round;stroke-linejoin:round;stroke-miterlimit:10;}
	.st260{fill:none;stroke:#1A2E35;stroke-width:0.8612;stroke-linecap:round;stroke-linejoin:round;stroke-miterlimit:10;}
</style>
<g id="Layer_1">
</g>
<g id="Home">
</g>
<g id="Restaurants">
</g>
<g id="Grocery">
</g>
<g id="Pharmacy__x26__Meds">
</g>
<g id="Gifts">
</g>
<g id="E-Commerce">
	<g>
		<defs>
			<rect id="SVGID_00000038402336363563398710000011383889040049365682_" y="0" width="809" height="509.3"/>
		</defs>
		<clipPath id="SVGID_00000075144535644107939030000009920543834028303005_">
			<use xlink:href="#SVGID_00000038402336363563398710000011383889040049365682_"  style="overflow:visible;"/>
		</clipPath>
		<g style="clip-path:url(#SVGID_00000075144535644107939030000009920543834028303005_);">
			<path class="st0" d="M364.6,509.4c73,0,132.2-5.1,132.2-11.5c0-6.4-59.2-11.5-132.2-11.5s-132.2,5.1-132.2,11.5
				C232.3,504.3,291.5,509.4,364.6,509.4z"/>
			<path class="st7" d="M230.9,295.2h-95.6v52.6h95.6L230.9,295.2z"/>
			<path class="st226" d="M267.5,295.2h-36.5v52.6h36.5V295.2z"/>
			<path class="st19" d="M181.6,318.7h-32.9v2.9h32.9V318.7z"/>
			<path class="st19" d="M181.6,327h-32.9v2.9h32.9V327z"/>
			<path class="st7" d="M242.5,347.8H71v152h171.5V347.8z"/>
			<path class="st226" d="M308,347.8h-65.5v152H308V347.8z"/>
			<path class="st19" d="M218.5,372.2H95v57.2h123.4V372.2z"/>
			<path class="st227" d="M153.9,443.3H95v5.6h58.9V443.3z"/>
			<path class="st227" d="M153.9,459.3H95v5.6h58.9V459.3z"/>
			<path class="st19" d="M282.5,347.8h-14.4v152h14.4V347.8z"/>
			<path class="st0" d="M166.3,501.4c91.9,0,166.3-0.9,166.3-2c0-1.1-74.5-2-166.3-2c-91.9,0-166.3,0.9-166.3,2
				C0,500.5,74.5,501.4,166.3,501.4z"/>
			<path class="st7" d="M134.8,385.5H6v114.2h128.9V385.5z"/>
			<path class="st226" d="M184.1,385.5h-49.2v114.2h49.2V385.5z"/>
			<path class="st19" d="M116.7,403.9H24v43h92.7V403.9z"/>
			<path class="st19" d="M68.3,457.2H24v4.2h44.3V457.2z"/>
			<path class="st19" d="M68.3,469.3H24v4.2h44.3V469.3z"/>
			<path class="st7" d="M260.5,447.2h-95.6v52.6h95.6V447.2z"/>
			<path class="st226" d="M297,447.2h-36.5v52.6H297V447.2z"/>
			<path class="st19" d="M211.1,470.7h-32.9v2.9h32.9V470.7z"/>
			<path class="st19" d="M211.1,479h-32.9v2.9h32.9V479z"/>
			<path class="st0" d="M509.1,370.9H576c0.8-0.1,1.5-0.4,2.1-0.9c0.6-0.5,1-1.2,1.1-2c0.1,0.5,0.2,1,0.2,1.5c0,2.4-1.6,4.4-3.5,4.4
				h-66.9c-1.9,0-3.5-2-3.5-4.4c0-0.5,0.1-1,0.2-1.5c0.2,0.8,0.6,1.5,1.2,2C507.5,370.6,508.3,370.9,509.1,370.9z"/>
			<path class="st0" d="M359.6,346.8h112.5c0.8-0.1,1.5-0.4,2.1-0.9c0.6-0.5,1-1.2,1.2-2c0.1,0.5,0.2,1,0.2,1.5
				c0,2.4-1.5,4.4-3.5,4.4H359.6c-1.9,0-3.5-2-3.5-4.4c0-0.5,0.1-1,0.2-1.5c0.2,0.8,0.6,1.5,1.1,2
				C358.1,346.4,358.8,346.7,359.6,346.8z"/>
			<path class="st0" d="M504.6,361.8c0,13.2,8.7,24.1,19.4,24.1c10.7,0,19.4-10.8,19.4-24.1c0-13.3-8.7-24.1-19.4-24.1
				C513.3,337.7,504.6,348.5,504.6,361.8z M508.8,361.8c0-9.5,6-17.3,13.4-17.3c7.4,0,13.4,7.7,13.4,17.3c0,9.6-6,17.3-13.4,17.3
				C514.7,379,508.8,371.3,508.8,361.8z"/>
			<path class="st0" d="M537.6,498.2c-137.6,0-249.2-2.3-249.2-5.1c0-2.8,111.6-5.1,249.2-5.1s249.2,2.3,249.2,5.1
				C786.8,496,675.3,498.2,537.6,498.2z"/>
			<path class="st0" d="M459,493c-19,0-34.3-17.7-34.3-39.5c0-21.8,15.4-39.5,34.3-39.5c19,0,34.3,17.7,34.3,39.5
				C493.3,475.4,477.9,493,459,493z"/>
			<path class="st0" d="M739.9,493c-18.3,0-33.3-17.1-33.3-38.3c0-21.1,14.9-38.3,33.3-38.3c18.4,0,33.3,17.1,33.3,38.3
				C773.1,475.9,758.2,493,739.9,493z"/>
			<path class="st0" d="M390.6,454.6c0,0-20.5-57.9-21.9-58.6c-1.4-0.7-37.9-9.4-37.9-9.4l-20.1,35.9l4.8,24.9l12-0.6l58.6,9.1
				L390.6,454.6z"/>
			<path class="st0" d="M333.9,453.6c0-21.8,14.1-39.5,31.6-39.5c17.5,0,31.6,17.7,31.6,39.5c0,21.8-14.1,39.5-31.6,39.5h-15.8
				c-1.9-1.1-3.7-4.8-5.1-9.8C338,475.9,333.9,465.3,333.9,453.6z"/>
			<path class="st228" d="M349.6,493c-17.4,0-31.6-17.7-31.6-39.5c0-21.8,14.1-39.5,31.6-39.5c17.5,0,31.6,17.7,31.6,39.5
				C381.2,475.4,367.1,493,349.6,493z"/>
			<path class="st229" d="M349.6,477.2c-10.4,0-18.9-10.6-18.9-23.6c0-13,8.5-23.6,18.9-23.6c10.4,0,18.9,10.6,18.9,23.6
				S360.1,477.2,349.6,477.2z"/>
			<path class="st228" d="M350.5,471c-7.2,0-13.1-7.8-13.1-17.4c0-9.6,5.9-17.4,13.1-17.4s13.1,7.8,13.1,17.4
				C363.6,463.2,357.7,471,350.5,471z"/>
			<path class="st0" d="M696.2,466.9l-82.8-4.7l-219.2-7.9l227.8-82.4c0,0,72.4,7.5,72.7,9.3C694.9,382.9,723,449.4,696.2,466.9z"/>
			<path class="st230" d="M684.5,419.4c0,0,12,18.8,12.2,47c0,0,35-1.6,50.7-3.6c15.7-2,50.6-0.3,56.3-7.2c5.7-6.9,6.6-31,0-44.2
				c-6.6-13.2-24.5-14-24.5-14S677.9,384.9,684.5,419.4z"/>
			<path class="st228" d="M295.4,392.7l-0.9,32.4c-0.1,2.9,0.4,5.8,1.4,8.5c1,2.7,2.6,5.1,4.7,7.2c2,2,4.5,3.6,7.2,4.7
				c2.7,1.1,5.6,1.5,8.5,1.4c0,0,7.4-28.5,10.1-33.8C333.2,399.6,296.2,383.4,295.4,392.7z"/>
			<path class="st230" d="M295.4,393.7h0.5c6.3,0.4,12.4,2.4,17.7,5.7c5.3,3.4,9.7,8.1,12.7,13.6c5.6-4.8,12.7-7.6,20.1-7.9
				c5.2-0.1,10.3,1.1,14.9,3.5c12.7,6.5,19.6,20,22.9,28.9c2.2,6.1,0.8,11.8,5.1,16.6l223.9,2.9c0,0-3.2-52.2,37.7-53.1
				c0,0,17.8-0.9,33.6,15.4c44-6.1,116.8-3.5,119.2-7.9v-0.6l-0.8-5.6c-1.8-13.3-7.7-25.7-16.8-35.5c-9.1-9.8-21-16.7-34.1-19.5
				c-22.3-4.9-45.8-10-51.9-10.8h-0.1c-0.6-0.5-7.6-6.2-17.7-14.4c-16-12.9-39.7-32.1-58.7-46.8l-0.4-0.3
				c-19.1-14.8-41.9-24.1-65.9-27.1c-6-0.8-12-1.3-18-1.4H353c-14.3,0.1-27.9,5.7-38.2,15.6c-10.2,9.9-16.3,23.4-16.8,37.7
				c-1.4,45.3-2.7,91.5-2.5,89.9L295.4,393.7z"/>
			<path class="st231" d="M704.8,384.5c-3-24.1-75-37.3-94.3-39.5c-3.7-0.3-7.3-1-10.7-2.2c-0.3-0.2-0.7-0.3-1-0.5
				c-9.4-5.6-33.9-39.7-56.5-62.4c-14.1-14.3-28.3-22.8-48.3-24.1c-1.7-0.1-128.6-6.3-128.6-6.3"/>
			<path class="st0" d="M578.5,277.4l88.2,63.7c17.7-0.9,33.3-1.6,33.3-1.6c-4.2-2.8-14-11.2-21.5-17.5
				c-16.5-12.9-37.1-30.4-56.5-44.9C612.1,276,591.4,276.9,578.5,277.4z"/>
			<path class="st0" d="M567.6,277.9l88.1,63.6l2.4-0.1l-88.2-63.6L567.6,277.9z"/>
			<path class="st0" d="M542.2,279.9c22.6,22.7,47.1,56.8,56.5,62.4c0.3,0.2,0.7,0.4,1,0.5c1.1,0.5,2.3,1,3.5,1.3
				c1.6,0.5,3.3,0.7,4.9,0.8c0.8,0,1.5,0,2.3,0.1c12.9,0.1,31-3.2,40.9-3.4l-87.9-63.4C554.8,278.7,542.2,279.9,542.2,279.9z"/>
			<path class="st228" d="M323.8,339.1l126.5,5c1.2,0,2.4-0.4,3.3-1.2c0.9-0.8,1.5-1.9,1.5-3.2l4.1-57.2c0.1-0.7,0-1.4-0.2-2
				c-0.2-0.7-0.6-1.3-1-1.8c-0.5-0.5-1-1-1.6-1.3c-0.6-0.3-1.3-0.5-2-0.5l-128.7-2.8c-0.6,0-1.2,0.1-1.8,0.3
				c-0.9,0.3-1.6,0.9-2.2,1.7c-0.5,0.8-0.8,1.7-0.9,2.6l-2.4,54.8c0,1.5,0.5,2.9,1.5,3.9C321,338.4,322.3,339.1,323.8,339.1
				L323.8,339.1z"/>
			<path class="st0" d="M629.1,456.4c0-20.2,14.6-36.6,32.6-36.6c18.1,0,32.6,16.4,32.6,36.6S679.8,493,661.7,493
				c-1,0-1.9,0-2.9-0.1l-7.7-0.4l-2.5-2.5C637.2,484.3,629.1,471.4,629.1,456.4z"/>
			<path class="st228" d="M651.1,492.5c-19.7,0-35.7-17.9-35.7-40.1c0-22.1,16-40.1,35.7-40.1c19.7,0,35.7,17.9,35.7,40.1
				C686.8,474.5,670.8,492.5,651.1,492.5z"/>
			<path class="st232" d="M651.1,476.4c-11.8,0-21.4-10.7-21.4-24c0-13.3,9.6-24,21.4-24c11.8,0,21.4,10.8,21.4,24
				C672.5,465.6,662.9,476.4,651.1,476.4z"/>
			<path class="st228" d="M651.6,470.1c-8.4,0-15.3-7.9-15.3-17.7c0-9.8,6.8-17.7,15.3-17.7s15.3,7.9,15.3,17.7
				C666.9,462.1,660,470.1,651.6,470.1z"/>
			<path class="st0" d="M413.8,316.1l0.1-3.6l-2-0.1c-0.2-0.1-0.5-0.1-0.7,0c-0.2,0.1-0.4,0.2-0.6,0.3c-0.2,0.1-0.3,0.3-0.4,0.5
				c-0.1,0.2-0.2,0.4-0.2,0.7l-0.4,2l-2.8-0.1l0.4-2c0.4-1.6,0.9-2.3,2-2.6V311c-0.6-0.2-1.1-0.6-1.4-1.1c-0.3-0.5-0.5-1.2-0.4-1.8
				c0-1.6,1-3.1,4.4-3l5.1,0.2l-0.2,11L413.8,316.1z M414,307.5l-1.9-0.1c-1.1,0-1.8,0.2-1.8,1.1c0,1,0.6,1.4,1.8,1.4l1.9,0.1
				L414,307.5z"/>
			<path class="st0" d="M402.5,315.8c-0.5,0-1-0.1-1.4-0.3c-0.4-0.2-0.8-0.6-1-1h-0.2l-0.2,1l-2.4-0.1l0.3-7.8l2.4,0.1l0.1,1h0.2
				c0.3-0.4,0.7-0.7,1.1-0.9c0.5-0.2,0.9-0.3,1.4-0.2c1.9,0.1,3.6,1.4,3.5,4.3C406.3,314.7,404.3,315.9,402.5,315.8z M399.9,311.6
				c0,0.3,0,0.5,0.1,0.8c0.1,0.3,0.2,0.5,0.4,0.7c0.2,0.2,0.4,0.4,0.6,0.5c0.2,0.1,0.5,0.2,0.8,0.2c1.1,0,1.9-0.6,1.9-2
				c0-1.4-0.7-2.2-1.8-2.2c-0.3,0-0.5,0-0.8,0.1c-0.2,0.1-0.5,0.3-0.6,0.4c-0.2,0.2-0.3,0.4-0.4,0.7
				C400,311,399.9,311.3,399.9,311.6L399.9,311.6z"/>
			<path class="st0" d="M393.2,318.1l0.1-3.9h-0.2c-0.3,0.4-0.7,0.7-1.1,0.9c-0.4,0.2-0.9,0.3-1.4,0.2c-1.8-0.1-3.5-1.4-3.4-4.3
				c0.1-2.9,1.9-4.1,3.7-4c0.5,0,1,0.1,1.4,0.3c0.4,0.2,0.8,0.6,1,1h0.2l0.2-1l2.4,0.1l-0.4,10.8L393.2,318.1z M391.6,313.3
				c0.5,0,1-0.2,1.4-0.6c0.4-0.4,0.6-0.9,0.6-1.4c0-0.5-0.2-1-0.5-1.4c-0.3-0.4-0.8-0.7-1.3-0.7c-0.3,0-0.5,0-0.8,0.1
				c-0.3,0.1-0.5,0.2-0.7,0.4c-0.2,0.2-0.3,0.4-0.4,0.7c-0.1,0.3-0.1,0.5-0.1,0.8C389.8,312.6,390.5,313.3,391.6,313.3z"/>
			<path class="st0" d="M386.5,305.6c-0.1,0.2-0.2,0.3-0.3,0.4c-0.1,0.1-0.3,0.2-0.5,0.3c-0.2,0.1-0.4,0.1-0.6,0.1
				c-0.2,0-0.4,0-0.6-0.1c-0.3-0.2-0.6-0.4-0.7-0.8c-0.1-0.2-0.1-0.4-0.1-0.6c0-0.2,0.1-0.4,0.1-0.5c0.1-0.2,0.2-0.3,0.3-0.4
				c0.1-0.1,0.3-0.2,0.5-0.3c0.2-0.1,0.4-0.1,0.6-0.1c0.2,0,0.4,0,0.5,0.1c0.2,0.1,0.3,0.2,0.5,0.3c0.1,0.1,0.2,0.3,0.3,0.5
				c0.1,0.2,0.1,0.4,0.1,0.6C386.6,305.2,386.6,305.4,386.5,305.6z M383.5,314.9l0.3-7.8l2.5,0.1l-0.3,7.8L383.5,314.9z"/>
			<path class="st0" d="M379,314.9c-0.5,0-1-0.1-1.4-0.3c-0.4-0.2-0.8-0.6-1-1h-0.1l-0.2,1l-2.4-0.1l0.5-10.7l2.5,0.1l-0.2,3.9h0.1
				c0.3-0.4,0.7-0.7,1.1-0.9c0.4-0.2,0.9-0.3,1.4-0.2c1.8,0.1,3.5,1.4,3.4,4.2C382.6,313.7,380.8,314.9,379,314.9z M376.5,311.4
				c0.1,0.3,0.2,0.5,0.3,0.7c0.2,0.2,0.4,0.4,0.6,0.5c0.2,0.1,0.5,0.2,0.7,0.2c1,0.1,1.9-0.6,1.9-2s-0.7-2.1-1.7-2.1
				c-0.3,0-0.5,0-0.8,0.1c-0.2,0.1-0.5,0.3-0.6,0.4c-0.2,0.2-0.3,0.4-0.4,0.7c-0.1,0.2-0.1,0.5-0.1,0.8
				C376.5,310.9,376.5,311.2,376.5,311.4z"/>
			<path class="st0" d="M372.6,314.4l0.4-7.7l-2.3-0.1l-0.2,1h-0.2c-0.2-0.4-0.5-0.7-0.9-1c-0.4-0.2-0.8-0.3-1.3-0.3
				c-0.4,0-0.9,0.1-1.3,0.3c-0.4,0.2-0.8,0.5-1,0.8h-0.2c-0.3-0.4-0.7-0.7-1.2-0.9c-0.5-0.2-1-0.3-1.5-0.3c-0.4,0-0.8,0-1.2,0.2
				c-0.4,0.1-0.7,0.4-1,0.6c-0.3,0.3-0.5,0.6-0.6,1c-0.1,0.4-0.2,0.8-0.2,1.2l-0.3,4.8l2.5,0.1l0.2-4.3c0.1-0.9,0.3-1.5,1.3-1.5
				c0.2,0,0.4,0.1,0.6,0.2c0.2,0.1,0.4,0.2,0.5,0.4c0.1,0.2,0.2,0.4,0.3,0.6c0,0.2,0,0.4,0,0.6l-0.2,4.1l2.5,0.1l0.2-4.3
				c0.1-1.1,0.5-1.5,1.3-1.5c0.2,0,0.4,0.1,0.6,0.2c0.2,0.1,0.4,0.2,0.5,0.4c0.1,0.2,0.2,0.4,0.3,0.6c0,0.2,0,0.4,0,0.6l-0.2,4.2
				L372.6,314.4z"/>
			<path class="st0" d="M355.4,313.9c-0.5,0-0.9-0.1-1.3-0.3c-0.4-0.2-0.8-0.5-1-1h-0.1l-0.2,1l-2.2-0.1l0.5-7.6l2.2,0.1l0.1,0.9
				h0.2c0.3-0.4,0.7-0.7,1.1-0.9c0.4-0.2,0.9-0.3,1.4-0.2c1.8,0.1,3.4,1.4,3.2,4.2C358.9,312.7,357.1,313.9,355.4,313.9z
				 M353.1,310.5c0.1,0.2,0.2,0.5,0.3,0.7c0.2,0.2,0.4,0.4,0.6,0.5c0.2,0.1,0.5,0.2,0.7,0.2c1,0,1.8-0.6,1.9-2
				c0.1-1.4-0.6-2.1-1.6-2.1c-0.3,0-0.5,0-0.7,0.1c-0.2,0.1-0.5,0.2-0.6,0.4c-0.2,0.2-0.3,0.4-0.4,0.6c-0.1,0.2-0.1,0.5-0.1,0.8
				C353,309.9,353,310.2,353.1,310.5L353.1,310.5z"/>
			<path class="st0" d="M348.1,313.4l0.4-5.6h1.6l0.1-2l-1.6-0.1l0.1-2l-2.4-0.1l-0.1,2l-1.9-0.1l-0.1,2l1.9,0.1l-0.4,5.6
				L348.1,313.4z"/>
			<path class="st0" d="M339.2,313.2c-0.8,0-1.5-0.2-2.2-0.6c-0.6-0.4-1.1-1.1-1.3-1.9l2.3,0.1c0.1,0.2,0.3,0.4,0.6,0.5
				c0.2,0.1,0.5,0.2,0.7,0.2c0.5,0,0.9-0.1,1.2-0.4c0.2-0.1,0.3-0.3,0.4-0.5c0.1-0.2,0.2-0.4,0.2-0.6l-5.5-0.2c0-0.3,0-0.6,0-0.9
				c0-0.5,0.1-1,0.3-1.5c0.2-0.5,0.5-0.9,0.9-1.2c0.4-0.3,0.8-0.6,1.3-0.7c0.5-0.2,1-0.2,1.5-0.1c2.5,0.1,4.1,1.4,3.9,4.1
				C343.4,312.1,341.8,313.3,339.2,313.2z M341.2,308.4c0-0.4-0.2-0.7-0.5-1c-0.3-0.3-0.6-0.4-1-0.4c-0.4,0-0.8,0.1-1.1,0.3
				c-0.3,0.2-0.5,0.6-0.6,0.9L341.2,308.4z"/>
			<path class="st11" d="M431.4,309.1c-0.1,0.4-0.1,0.7-0.2,1.1c0,1.4,0.6,2.8,1.6,3.8c1,1,2.4,1.6,3.8,1.6c1,0.1,2-0.2,2.8-0.6
				c0.9-0.5,1.6-1.2,2-2l5.5,2.1c-0.6,1.2-1.4,2.3-2.4,3.2l-7.3,6.6c-0.2,0.2-0.5,0.3-0.8,0.3c-0.1,0-0.3,0-0.4-0.1
				c-0.1-0.1-0.2-0.1-0.3-0.3l-7.1-7.2c-1-1-1.8-2.2-2.4-3.5c-0.5-1.3-0.8-2.7-0.8-4.1c0-1,0.2-2,0.5-3L431.4,309.1z"/>
			<path class="st11" d="M443,300.9c0.2-0.6,0.1-1.2-0.1-1.7c-0.3-0.5-0.7-0.9-1.3-1.1c-0.6-0.2-1.2-0.2-1.7,0
				c-0.5,0.2-1,0.7-1.2,1.2L443,300.9z"/>
			<path class="st11" d="M433.4,308.2c2-4.6,4.9-7.3,6.6-7.3c0.1,0,0.3,0,0.4,0.1c0.8,0.3,1.4,1.6,1.4,3.4c0,2.2-0.4,4.5-1.2,6.6
				L433.4,308.2z"/>
			<path class="st11" d="M431.9,307.6l-6-2.3l-4.8-1.8c0.3-0.6,0.8-1.1,1.4-1.3c0.6-0.2,1.3-0.2,1.9,0l3.7,1.4
				c1.1-1.3,2.5-2.2,4.1-2.9c1.6-0.6,3.2-0.9,4.9-0.8h0.9C435.8,301.1,433.6,303.9,431.9,307.6z"/>
			<path class="st11" d="M448,311.4c0,0.3,0,0.7-0.1,1v0.1c-0.1,0.4-0.2,0.8-0.3,1.2l-5.3-2c0.9-2.3,1.3-4.7,1.3-7.2
				c0-0.8-0.2-1.7-0.4-2.5c1.7,1.1,3,2.7,3.9,4.5c0,0.1,0,0.1,0.1,0.2c0.1,0.2,0.2,0.5,0.3,0.7l0.2,0.6c0.1,0.1,0.1,0.3,0.1,0.4
				c0.1,0.3,0.1,0.6,0.2,0.8v0.2c0,0.3,0.1,0.6,0.1,0.8c0,0.1,0,0.1,0,0.2c0,0.3,0,0.6,0,0.9L448,311.4z"/>
			<path class="st0" d="M792.2,377.9l1.9,1.9c0,0,6.3,19.3,4.4,23.8c0,0-1.5,1.3-23.8,2.9c0,0-34.1,3.1-40.3-0.2l-34.1-28.2
				C700.3,378.2,789.9,379.4,792.2,377.9z"/>
			<path class="st7" d="M744.1,405.3c5.9,0,17.3-0.7,24.9-1.1l4.1-0.2l2-0.1c5.8-0.3,15.5-0.8,20.9-1.8c1.1-0.2,1.3-0.8,1.3-1
				c0-0.2,0.2-8.2-3.8-20c-0.6,0.1-1.3,0.2-1.9,0.2c-2.7,0.2-8.2,0.2-19,0.3l-8.9,0.1c-11.4,0.1-22.6,0.2-33.4,0.2
				c-10,0-17.1-0.1-20.5-0.1c2.5,2.2,8.9,7.9,25.7,22.4c0,0,1.6,1,7.6,1.1L744.1,405.3z"/>
			<path class="st0" d="M793,381.9c3.7,11.3,3.5,18.9,3.5,19c-0.2,0.1-0.4,0.2-0.6,0.2c-5.3,1-15,1.5-20.8,1.8l-2,0.1l-4.1,0.2
				c-7.6,0.4-19,1.1-24.9,1.1h-1c-5.1-0.1-6.8-0.9-7.1-1c-13.9-12-20.6-17.9-24-20.9c3.8,0.1,10.1,0.1,18.2,0.1
				c10.8,0,22,0,33.4-0.2l9-0.1c10.9-0.1,16.3-0.1,19-0.3C792.2,382,792.6,381.9,793,381.9 M794.1,379.9c0,0-0.3,0.3-2.5,0.5
				c-3.3,0.2-10.8,0.2-27.9,0.4c-13.1,0.2-24.4,0.2-33.4,0.2c-14.3,0-22.6-0.1-22.6-0.1s0.8,1,27.4,23.9c0,0,1.5,1.2,8.1,1.3h1
				c7.1,0,22.1-1,29.1-1.3c5.7-0.3,16.9-0.9,23-2c1.5-0.3,2-1.2,2-1.9c0,0,0.2-8.4-4.1-21L794.1,379.9z"/>
			<path class="st0" d="M792.2,377.9c0,0,1.7,1.6,1.6,1.9c-0.2,0.2-0.7,0.2-1.8,0.3c-1.1,0.1-22.4,0.5-23.8,0.4
				c-1.4,0,1.1-1.9,1.1-1.9S791.1,378.6,792.2,377.9z"/>
			<path class="st0" d="M788.8,403.2c2.5-0.1,5.5-0.4,5.8-1.1c0.3-0.8,1.1-1.3-0.4-9.2c-1.5-7.9-2.6-12.5-2.6-12.5
				c0.8,0,1.5-0.1,2.2-0.3c1.6,4.6,2.7,7.8,3.4,12.4c0.6,4.7,2.6,9.7-1,10.3c-8.7,1.2-42.3,4-55.4,3.1
				C740.8,405.9,763.7,405.4,788.8,403.2z"/>
			<path class="st0" d="M779.5,380.7c0,0,6.4,13.1,4.8,23.3l6.6-0.3c0-3.8-0.4-7.5-1.1-11.2c-0.7-4.1-2.1-8.1-4.3-11.7L779.5,380.7z
				"/>
			<path class="st0" d="M773.8,380.7c2.1,3.3,3.8,7,4.9,10.8c1.2,4.1,1.9,8.4,2,12.7l-6.5,0.2c0,0-3.2-22.6-6.2-23.7L773.8,380.7z"
				/>
			<path class="st0" d="M760.1,380.9c0,0,4.5,7.3,10.4,24l-6.7,0.4c0,0-5.7-21.3-9.3-24.3C758.4,381,760.1,380.9,760.1,380.9z"/>
			<path class="st0" d="M743.8,381.1c3,3.4,5.8,7.1,8.2,10.9c2.4,4.4,4.4,9,6.1,13.7l-6.8,0.2c0,0-8.6-22-13.6-24.8
				C741.7,381,743.8,381.1,743.8,381.1z"/>
			<path class="st0" d="M723.4,381.1c5,4.6,9.5,9.8,13.3,15.4l5.3,9.3l-6.2-0.6c0,0-14.1-23.1-17.4-24.2
				C721.4,381.1,723.4,381.1,723.4,381.1z"/>
			<path class="st0" d="M785.4,380.6c1.7,4,2.9,8.2,3.4,12.6c0.3,3.3,0.4,6.7,0.1,10h-0.7c0,0,0.8-10.6-0.9-15.5
				c-1.7-5.2-2.5-7.1-2.5-7.1L785.4,380.6z"/>
			<path class="st0" d="M773.4,380.7c0,0,2.9,5.2,4.2,8c1.3,2.8,2.7,15.1,2.7,15.1l0.5-0.1c0,0-0.7-6.6-1.9-11.8
				c-1.2-5.2-5.1-11.3-5.1-11.3L773.4,380.7z"/>
			<path class="st0" d="M760.1,380.9c2.5,4.2,4.6,8.5,6.5,13c2.5,6.4,4,10.5,4,10.5l-0.6,0.1c0,0-4.6-13.1-5.6-15.1l-4.6-8.5
				L760.1,380.9z"/>
			<path class="st0" d="M743.7,380.9c0.2,0,8.8,10.2,11.6,17.2l2.8,7l-0.5,0.1c0,0-3.4-9.2-4.9-11.4c-1.4-2.2-8.6-12.6-9.5-13H743.7
				z"/>
			<path class="st0" d="M723.2,381c4.7,4.2,8.9,9,12.5,14.2c2.3,3.4,4.4,7,6.3,10.7l-0.4,0.1c0,0-7-11.9-8.2-13.2
				c-1.1-1.4-10.7-11.6-10.7-11.6H723.2z"/>
			<path class="st0" d="M794.4,386c0.8,1.3,1.6,2.7,2.3,4.1c0,0-2.2-3.5-2.5-3.7C794,386.2,794.5,386.2,794.4,386z"/>
			<path class="st0" d="M795.8,394.3c1,1.9,1.9,3.9,2.5,6l-2.4-5L795.8,394.3z"/>
			<path class="st0" d="M794.1,385.7c0,0,0.4,0.5,0.1,0.7c-0.3,0.2-16,1.1-20.1,1.1c0,0-11.3,0.2-11.6,0.3
				c-0.3,0.1-44.8,0.4-46.5,0.3l-0.9-0.8C715.1,387.3,792.4,385.7,794.1,385.7z"/>
			<path class="st0" d="M795.8,394.3l0.1,1c0,0-1.4,0.7-17,1.5c0,0-15.6,0.6-20.2,0.8c-4.7,0.1-29.1,0.7-31.5,0.4l-1.1-1.1
				c0,0,36.2-1.1,37.4-1.2C764.6,395.6,794.6,394,795.8,394.3z"/>
			<path class="st0" d="M794.1,385.7c0,0-16.8,1.1-31.6,1.3c-14.8,0.2-47.4,0.3-47.4,0.3l0.9,0.8c0,0,54-0.3,66.6-0.9
				C782.7,387.2,795.8,387.1,794.1,385.7z"/>
			<path class="st0" d="M795.8,394.3c0,0-15,1.5-32,2c0,0-33.5,0.8-37.7,0.6l1.1,1.1c0,0,31.5-0.4,50.4-1.2c0,0,17.1-1.1,18.3-1.5
				L795.8,394.3z"/>
			<path class="st233" d="M702.9,402.3c-6.6-10.6-7.8-21.7-2.7-24.9c5.1-3.2,14.6,2.8,21.2,13.4c6.6,10.6,7.8,21.7,2.7,24.9
				S709.5,412.8,702.9,402.3z"/>
			<path class="st0" d="M798.1,429.1c1.7,1.8,1.9,3.1,2,7.3c0.1,4.2,0.9,10.2-1.2,12c-4.7,2.2-54.2,10.2-63,6.4
				c-0.9-0.4-0.8-1.6,0.4-4.6c0.6-1.5,1.8-5.9,3.2-10c1.4-4.1,3.1-8,6.2-7.8C750.8,432.5,795.3,429.7,798.1,429.1z"/>
			<path class="st0" d="M761.6,432c-3.3,0.1-17.3,1.2-17.3,1.2c-2.6,0.3-8,19.2-8,19.2c-0.2,2.5,0.3,2.5,0.3,2.5
				c21.8,1.1,52-3.3,57.9-4.6c5.9-1.3,6.1-2.7,6.1-7.8c0.1-5-0.6-11.2-1-12.1c-0.2-0.6-0.7-1-1.3-1.3
				C798.1,429,770.5,431.8,761.6,432z"/>
			<path class="st0" d="M787.6,444c-0.2,0.2-18.8,3.2-49.8,4.1c0,0-1.9,4.1-1.9,5.5c0,1.4,1.6,1.1,3,1.1c1.4,0,23.4,1,57.5-5.3
				L787.6,444z"/>
			<path class="st7" d="M793.6,431.5c0,0,3.8-0.1,4.2,0.4c0.2,0.2,0.3,0.5,0.3,0.8c0,0-14,3.5-36.3,3.9l-20.3,0.6l0.8-1.8
				C742.3,435.4,777.5,434.5,793.6,431.5z"/>
			<path class="st7" d="M794.5,436.8c0,0,3.8,0.5,3.7,0.8c0,0.3,0,0.5,0,0.8c0,0-13.2,3.1-37.5,4.6c0,0-17.4,1-22.3,0.6l0.7-1.9
				C739.1,441.8,783.5,440.6,794.5,436.8z"/>
			<path class="st7" d="M794.2,442.4c0,0,4.3,0.2,4.1,1.4c0,0-9.5,3.9-30.9,5.2c0,0-25.4,2-31,1.5l0.6-1.8
				C736.9,448.6,781.7,447.5,794.2,442.4z"/>
			<path class="st7" d="M797.8,431.9c0,0-6,1.7-25.4,3.1c0,0-24.5,1.7-31,1.5l-0.6,1c0,0,2,0.5,31.9-1.3c0,0,16.3-1.3,25.3-3.6
				C798.1,432.6,798.3,432,797.8,431.9z"/>
			<path class="st7" d="M798.2,437.6c0,0-13.2,2.7-22.4,3.4c0,0-28.4,2.6-37.1,1.8l-0.2,0.8c0,0,36.7,0.4,59.8-5.2
				C798.3,438.4,798.5,437.8,798.2,437.6z"/>
			<path class="st7" d="M798,443.4c-6.1,1.6-12.3,2.7-18.6,3.4c-11.7,1.3-20.2,1.9-42.6,2.7l-0.3,0.8c0,0,47.2-0.1,61.6-6.1
				C798.1,444.1,798.5,443.6,798,443.4z"/>
			<path class="st0" d="M798.3,429.3c0,0,0.8,0,1.2,1.2c0.5,2.7,0.8,5.5,0.9,8.2c0,0-0.6-8.3-1.7-8.7c0,0,0-0.5-15.8,1.1
				c0,0-27.8,1.5-38.9,2.7c-2,0.7-2.2,2.8-3.1,4.8c-0.4,1-4.1,10.6-4.7,12.5c-0.6,1.9-0.7,3.1-0.3,3.4c0,0,12.5,2.6,39.9-1.8
				c0,0-3,1-31.8,2.8c0,0-5-0.1-6.3-0.2c-1.2-0.2-2.2-0.3-2.4-1.1c-0.2-0.8,3.3-10.6,5-15.2c0,0,1.2-5,3.9-5.7
				c2.7-0.7,17-1.1,17-1.1s34.8-2.5,36.9-2.8L798.3,429.3z"/>
			<path class="st0" d="M793.8,421.1l-3.1-0.4l-28.7,1.7l-1,15.6l2.2,0.6l29.8-2.6L793.8,421.1z"/>
			<path class="st0" d="M793.8,421.1l-29.5,1.6l-2.3-0.4l28.7-1.7L793.8,421.1z"/>
			<path class="st0" d="M763.2,438.4l-2.2-0.6l1-15.6l2.3,0.4L763.2,438.4z"/>
			<path class="st230" d="M764.3,437l0.8-13.2l27.5-1.5l-0.8,12.5L764.3,437z"/>
			<path class="st0" d="M793.3,422.3h-0.7l-0.8,12.5l-27.5,2.3v0.3l28.2-2.4L793.3,422.3z"/>
			<path class="st0" d="M471.3,439.9c-7.9-3.2-7.6-15.8-7.6-17.4c-0.5-1.7-3.4-11.8-1.8-15.5c1-2.6,1.8-5.3,2.2-8.1
				c0.3-60,2.8-100.1,4.2-118.7c0.1-1.9,0.7-3.8,1.6-5.5c0.9-1.7,2.2-3.2,3.7-4.4c1.5-1.1,3.1-1.9,4.9-2.3c1.8-0.4,3.6-0.4,5.4-0.1
				l23.6,4.6c13.3,2.7,25.4,9.6,34.4,19.7l47.2,52.9c2.3,2.6,3.5,5.9,3.5,9.3c-0.1,15.3-0.5,65.9-1.1,75.7
				c-1,15.9-14.1,16.3-14.3,16.3C573.3,446.3,479.2,443.1,471.3,439.9z M474.8,271.6c-1.3,1-2.5,2.4-3.3,3.9
				c-0.8,1.5-1.3,3.2-1.4,4.9c-1.4,18.5-3.9,58.6-4.2,118.6v0.1c-0.5,2.9-1.2,5.8-2.3,8.6c-1.2,2.8,0.9,11.5,1.9,14.6v0.3
				c0,0.1-0.6,13.1,6.6,15.9c6.1,2.4,71.6,5.3,105.4,6.5c0.5,0,11.7-0.3,12.6-14.7c0.6-9.7,1-60.3,1.1-75.6c0-3-1.1-5.9-3.1-8.2
				l-47.2-53c-8.8-9.9-20.5-16.6-33.5-19.2l-23.6-4.6c-0.7-0.1-1.5-0.2-2.2-0.2C479.1,269.3,476.7,270.1,474.8,271.6z"/>
			<path class="st0" d="M465.4,408.5c-0.6,1.4,0.3,7.5,2,13l105.7,5.7c2,0.1,4.1-0.6,5.6-1.9c1.6-1.3,2.6-3.1,3-5.2
				c0.2-1.6,0-3.2-0.6-4.7c-0.6-1.4-1.6-2.6-2.8-3.5c-1.3-0.9-2.7-1.4-4.2-1.4l-107.6-4.9C466.1,406.6,465.8,407.6,465.4,408.5z"/>
			<path class="st0" d="M473.3,369l18.3-0.1c0.2,0,0.3,0,0.5-0.1c0.2-0.1,0.3-0.2,0.4-0.3c0.1-0.1,0.2-0.3,0.3-0.4
				c0.1-0.2,0.1-0.3,0.1-0.5c0-1.2-0.2-2.4-0.6-3.5c-0.4-1.1-1.1-2.2-2-3.1c-1.7-1.8-4-2.8-6.5-2.8h-5.7c-0.8,0-1.6,0.2-2.4,0.5
				c-0.7,0.3-1.4,0.8-2,1.4c-0.6,0.6-1,1.3-1.3,2c-0.3,0.8-0.4,1.6-0.4,2.4v3.1c0,0.2,0,0.3,0.1,0.5c0.1,0.2,0.2,0.3,0.3,0.4
				c0.1,0.1,0.3,0.2,0.4,0.3C472.9,369,473.1,369,473.3,369z"/>
			<path class="st0" d="M491.2,374.4c0,1.3-0.5,2.5-1.3,3.5c-0.9,0.9-2.1,1.5-3.4,1.5l-8,0.1c-0.6,0-1.3-0.1-1.8-0.4
				c-0.6-0.3-1.1-0.6-1.5-1.1c-0.4-0.5-0.8-1-1-1.6c-0.2-0.6-0.3-1.2-0.3-1.9v-5.1l17.5-0.1V374.4z M492.9,367.6l-20.9,0.1v6.8
				c0,0.9,0.1,1.7,0.5,2.5c0.3,0.8,0.8,1.5,1.4,2.1c0.6,0.6,1.3,1.1,2,1.4c0.8,0.3,1.6,0.5,2.5,0.5l8-0.1c1.7,0,3.4-0.8,4.6-2
				c1.2-1.2,1.9-2.9,1.8-4.6v-6.8H492.9z"/>
			<path class="st0" d="M501.4,283.8l37.9,67.3l23.2,1.3c6.7,0.4,10.9-6.6,7.1-11.8l-18.9-26C538.7,298.5,521.1,287.5,501.4,283.8z"
				/>
			<path class="st0" d="M487.7,282.3l38.5,68l3.1,0.2l-38.4-68C489.7,282.4,488.7,282.3,487.7,282.3z"/>
			<path class="st0" d="M475.2,340.4c0,1,0.2,2,0.5,2.9c0.5,1.4,1.5,2.5,2.7,3.4c1.2,0.8,2.6,1.3,4.1,1.3l38.7,2.1l-38.2-67.5
				c-1.2,0.3-2.3,0.9-3.3,1.8c-0.7,0.6-1.3,1.4-1.7,2.2c-0.4,0.9-0.7,1.8-0.7,2.8L475.2,340.4z"/>
			<path class="st0" d="M583,500.4c79.2,0,143.3-0.9,143.3-2c0-1.1-64.2-2-143.3-2c-79.1,0-143.3,0.9-143.3,2
				C439.7,499.5,503.9,500.4,583,500.4z"/>
			<path class="st8" d="M504.1,389.9c-3.6,24.3-30.1,87.2-40.6,111.3c-0.2,0-0.3,0-0.5,0c-24.2,3.3-59.4,5.3-98.5,5.3
				c-36,0-68.6-1.7-92.4-4.5h-0.4c-4.9-17.1-15.3-53-17.1-57c-2.1-5.3-4.7-4.7-11.2-12.1l-28.7-43.6H400V265.5
				c0,0,22.2,35.1,30.4,41.2c0,0-2.6-16.2-2.8-22.1c-0.2-5.9-1.2-13.8-1.2-13.8c-12.2-13-19.1-30.1-19.5-47.9
				c-0.3-29.6,7.5-53.2,25.8-50.2c18.4,3.1,20.7,43.5,25.2,53.4c4.5,9.9,16.2,18.3,22.2,39.9c6,21.6,22.2,62.2,24,68.1
				C506,340.3,508.6,359.6,504.1,389.9z"/>
			<path class="st0" d="M506.8,353c-0.4-11.4-1.9-17.2-2.4-18.8c-0.6-1.9-2.5-7.1-5.3-14.4c-5.8-15.5-14.7-39-18.7-53.7
				c-3.9-14.2-10.3-22.8-15.5-29.6c-2.6-3.2-4.9-6.7-6.8-10.4c-1.5-4.3-2.7-8.6-3.5-13.1c-1.7-7.8-3.8-17.3-7.1-25.2
				c-3.9-9.3-8.8-14.3-14.9-15.3c-2.4-0.5-4.9-0.4-7.2,0.2c-2.4,0.6-4.5,1.8-6.4,3.4c-4.3,3.7-7.6,9.9-9.8,18.5
				c-2.1,9.3-3.1,18.9-2.9,28.4c0.2,12.4,3.7,24.5,10,35.1c2.7,4.7,5.9,9,9.6,12.9c0.1,1,1,8.3,1.2,13.7c0.2,5,2.1,17.4,2.7,21.1
				c-8.6-7.4-29.2-40.1-29.6-40.4l-0.7-1.2v124.7H214l29.2,44.3c2,2.3,4.2,4.4,6.6,6.3c2,1.4,3.6,3.4,4.5,5.7
				c1.7,3.9,12,39.7,16.9,56.8h0.9c-4.9-17.1-15.4-53.1-17.1-57.2c-1-2.4-2.6-4.5-4.7-6c-2.3-1.8-4.4-3.9-6.4-6.1l-28.3-43h184.9
				V266.8c4,6.2,22.3,34.6,29.7,40.2l0.8,0.6l-0.2-1c0-0.2-2.6-16.3-2.8-22c-0.2-5.8-1.2-13.8-1.2-13.8v-0.1l-0.1-0.1
				c-3.7-3.8-6.9-8.1-9.6-12.8c-6.3-10.5-9.7-22.5-9.9-34.8c-0.2-22.5,4.2-39.4,12.4-46.3c1.8-1.5,3.8-2.6,6.1-3.2
				c2.2-0.6,4.6-0.7,6.9-0.2c5.8,1,10.5,5.9,14.4,14.9c3.3,7.8,5.4,17.4,7.1,25.1c0.8,4.5,2,8.9,3.5,13.2c1.9,3.7,4.2,7.3,6.8,10.5
				c5.1,6.9,11.5,15.4,15.4,29.4c4.1,14.8,12.9,38.3,18.8,53.8c2.6,7,4.7,12.4,5.3,14.4c0.2,0.7,5.4,18.7,0,55.4
				c-3.6,24.2-30.3,87.4-40.6,111.4h0.9c10.5-24.3,36.9-87,40.5-111.1C506.5,377.8,507.2,365.4,506.8,353z"/>
			<defs>
				<filter id="Adobe_OpacityMaskFilter" filterUnits="userSpaceOnUse" x="218.1" y="47.9" width="179.1" height="387.1">
					<feColorMatrix  type="matrix" values="1 0 0 0 0  0 1 0 0 0  0 0 1 0 0  0 0 0 1 0"/>
				</filter>
			</defs>
			
				<mask maskUnits="userSpaceOnUse" x="218.1" y="47.9" width="179.1" height="387.1" id="mask0_479_11673_00000099644528304487065730000005320813079396614829_">
				<path class="st12" d="M397.2,47.9H218.1V435h179.1V47.9z"/>
			</mask>
			<g class="st235">
				<path class="st8" d="M397.2,47.9H218.1V435h179.1V47.9z"/>
				<g>
					<path class="st10" d="M226.8,268.5c-0.5-1.6-1.6-2.9-3-3.7l-5.7-3.4v1.8l4.9,2.9c1.1,0.6,1.9,1.6,2.3,2.8
						c0.4,1.2,0.4,2.5-0.1,3.7l-7,17.3v4.3l8.5-21C227.2,271.7,227.3,270,226.8,268.5z"/>
					<path class="st10" d="M389.7,362.4c2.5,0,5-0.2,7.5-0.6v-4.9c-2.5,0.5-5,0.7-7.6,0.7h-22.1v-3.3H389c2.8,0,5.5-0.4,8.2-1v-6.6
						c-2.6,0.8-5.4,1.3-8.2,1.3h-10.3v-20.8c0-6.4,2.6-12.6,7.1-17.1c3.2-3.2,7.1-5.3,11.3-6.4V302c-4.7,1.1-9,3.4-12.5,6.9
						c-4.8,4.8-7.6,11.4-7.6,18.2V348h-9.6v-20.6c0-3-0.7-5.9-2.2-8.5c-1.4-2.6-3.5-4.8-6-6.4l-8.1-5.1l5.5-10.4h40.4v-1.6h-39.6
						l17.9-34.1l7,4.1c4,2.3,8.5,3.5,13,3.5h1.7v-6.4h-1.6c-3.5,0-6.8-0.9-9.8-2.7l-7.2-4.2l16.1-30.6l2.6,1.5v-23.7l-6.6,12.5
						l-23.5-13.8l10.5-21.6l19.5,12.4v-5.7l-17.4-11l5.7-11.6l11.8,7.7v-1.9l-11.1-7.2l11.1-22.8v-18.2L373,171.4l-20.5-13
						l25.3-51.1l19.4,9.7v-5.3l-17.3-8.7l17.3-34.8v-7.9l-2.6-1.3l-14.1,28.5l-84.1-39.7h-11l70,33.1l-25.3,4.2
						c-5.1,0.8-10,2.8-14.2,5.8c-4.2,3-7.8,6.9-10.3,11.4l-10.9,19.5L255,96.8l7.4-1.1c2.1-0.3,4.1-1.2,5.7-2.5
						c1.6-1.3,2.9-3.1,3.7-5l4.7-12.2c0.7-1.8,0.9-3.7,0.7-5.6c-0.2-1.9-0.9-3.7-2-5.3l-4.8-7.1l4-9.9h-8.6l-18.1,44.4l-24.6-15.6
						c6.3-11.9,3.4-21.9-0.8-28.8h-4.4v1.7c3.7,5.7,6.5,14.2,1.2,24.5l-1.2-0.7v5.7L240,93l-11.2,27.9l-10.8-6.3v7.3l8.4,4.9
						l-8.4,21v4.2l9.8-24.4l4.5,2.7l-13.1,32.3l-1.2-0.7v24.7l5.7-14l45,26.3l-4.9,11.1c-1.9,4.2-2.2,9-0.8,13.4
						c1.4,4.4,4.3,8.2,8.2,10.6l28,17.7l-8.6,17.3L240.3,237l-1-28.5c-0.1-1.7-0.5-3.4-1.4-5c-0.8-1.5-2-2.8-3.4-3.8l-16.4-11.3v1.9
						l15.4,10.6c1.2,0.9,2.2,2,2.9,3.3c0.7,1.3,1.1,2.8,1.2,4.2l0.9,27.4L218.1,223v5.8l25.8,16.4l0.7,8.8c0.2,3.3,1.6,6.5,3.8,8.9
						l-9.8,22.8c-0.3,0.6-0.4,1.3-0.3,1.9c0.1,0.7,0.3,1.3,0.6,1.9c0.4,0.6,0.9,1,1.4,1.3c0.6,0.3,1.2,0.5,1.9,0.5
						c0.6,0,1.1-0.1,1.7-0.4l23.9-10.4c0.5,0.5,1,0.9,1.6,1.2l-9.5,22.4h-42v8h9.7l-0.7,12.8h-9v1.6h9l-0.6,11.8
						c0,0.5,0.1,1,0.2,1.4c0.2,0.4,0.4,0.9,0.8,1.2c0.3,0.3,0.7,0.6,1.2,0.8c0.4,0.2,0.9,0.3,1.4,0.3h24.6L242,367.3l-19.4,16.4
						c-1.4,1.2-3,2.3-4.6,3.2v7.1c3.1-1.4,6.1-3.2,8.7-5.4l8-6.8l-16.7,33.8V435h159.1l-9.6-19.7v-53H389.7z M269.7,59.6l4.2,6.2
						c0.9,1.4,1.5,3,1.7,4.6c0.2,1.7,0,3.3-0.7,4.9l-4.7,12.2c-0.7,1.7-1.8,3.2-3.2,4.4c-1.4,1.1-3.1,1.9-5,2.2l-6.8,1L269.7,59.6z
						 M356.8,316.5c1.8,1.1,3.3,2.7,4.4,4.6c1,1.9,1.6,4,1.6,6.2v78.3l-30.3-62.4l16.6-31.6L356.8,316.5z M304.6,308.1
						c6.8-3.1,12.6-7.9,16.9-14l20.8,13.2l-14.2,27l-2.9-6C320.9,319.4,313.6,312.3,304.6,308.1z M323.5,343l-2.1,4.1L315,334
						c-2.6-5.4-6.7-9.9-11.8-13.1c-5.1-3.2-10.9-4.9-16.9-4.9h-11.8l2-4h10.2c6.6,0,13,1.9,18.5,5.4c5.6,3.5,10,8.4,12.9,14.3
						L323.5,343z M334.8,230l-13.8-8l15.4-31l13.2,7.7L334.8,230z M351,199.6l6.5,3.8l-15.1,31.1l-6.2-3.8L351,199.6z M339.6,240.3
						l-21.5,44.2c-0.3,0.4-0.5,0.9-0.8,1.4l0,0l-5.6-3.6l21.7-45.7L339.6,240.3z M349.6,293.5l-4.1-2.3c-1.7-0.9-2.9-2.5-3.5-4.3
						c-0.6-1.8-0.4-3.8,0.4-5.5l4.3-8.8c0.5-0.9,1.1-1.8,1.9-2.4c0.8-0.7,1.7-1.2,2.7-1.4s2.1-0.3,3.1-0.2c1,0.2,2,0.5,2.9,1.1
						l3.5,2.3L349.6,293.5z M361.6,270.6l-3.4-2.2c-1.1-0.7-2.3-1.1-3.5-1.3c-1.3-0.2-2.5-0.1-3.8,0.2c-1.2,0.3-2.4,0.9-3.3,1.8
						c-1,0.8-1.8,1.8-2.3,3l-4.3,8.8c-1,2.1-1.2,4.5-0.5,6.7c0.7,2.2,2.2,4.1,4.2,5.2l4.1,2.3l-4.3,8.2l-20.5-13
						c0.4-0.7,0.8-1.4,1.2-2.2l21.2-43.7l22.2,13L361.6,270.6z M387.7,221l-16.1,30.6l-22.3-13l15.1-31.1L387.7,221z M370.8,175.6
						l-10.6,21.8l-6.5-3.8l10.5-22.2L370.8,175.6z M363,170.7l-10.6,22.1l-13.1-7.5l11.2-22.5L363,170.7z M309.7,104.7
						c2.2-3.9,5.2-7.3,8.9-9.9s7.9-4.3,12.3-5l32.1-5.3l15.4,7.3l-7.9,16l-11.2-5.7c-3.5-1.8-7.6-2.2-11.4-1
						c-3.8,1.2-6.9,3.8-8.8,7.3l-1.5,2.8c-0.9,1.6-2.1,3.1-3.6,4.2c-1.5,1.1-3.2,2-5,2.4c-1.8,0.5-3.7,0.5-5.5,0.2
						c-1.8-0.3-3.6-1-5.2-2l-11-7.1L309.7,104.7z M306.6,110.6l10.9,7c2.5,1.6,5.3,2.4,8.2,2.4c2.7,0,5.4-0.8,7.7-2.1
						c2.3-1.4,4.2-3.4,5.5-5.8l1.5-2.8c1.7-3.1,4.5-5.4,7.9-6.5c3.4-1,7-0.7,10.2,0.9l11.2,5.7l-22.6,45.7l-48.3-30.6L306.6,110.6z
						 M339.4,155.9l-3.7,4.6c-0.6,0.7-1.4,1.2-2.3,1.4c-0.9,0.2-1.8,0-2.6-0.4l-5.3-3.1c-0.8-0.5-1.4-1.2-1.7-2.1
						c-0.3-0.9-0.3-1.8,0.1-2.7l2.4-6L339.4,155.9z M324.9,146.7l-2.5,6.2c-0.5,1.2-0.5,2.6-0.1,3.8c0.4,1.2,1.3,2.3,2.4,3l5.3,3.1
						c0.8,0.5,1.8,0.7,2.7,0.7c0.8,0,1.6-0.2,2.3-0.5s1.4-0.9,1.9-1.5l3.8-4.7l4.2,2.6l-11.2,22.7l-59.4-34.6l13.2-24.5L324.9,146.7
						z M252.8,100.9l31.9,20.2l-13.2,24.5l-29.8-17.4L252.8,100.9z M230.3,121.6l11.1-27.9l4.6,2.9l-11.2,27.6L230.3,121.6z
						 M226.2,166.6l13.1-32.2l2.2,1.3l-3.6,37.8L226.2,166.6z M239.4,174.3l3.6-37.8l87.9,51.3l-15.4,31L239.4,174.3z M272.9,231.2
						c-3.3-2-5.7-5.2-6.8-8.9c-1.1-3.7-0.9-7.6,0.7-11.2l4.7-10.8l41.1,24.1l-12,24.2L272.9,231.2z M318.2,227.7l13.8,8.1
						l-21.6,45.6l-14.3-9.1L318.2,227.7z M293.9,276.6l20.8,13.2c-3.3,4.4-7.5,8-12.4,10.5c-4.9,2.5-10.3,3.8-15.8,3.8h-6.3
						L293.9,276.6z M243.3,289.5c-0.4,0.2-0.9,0.3-1.4,0.2c-0.5-0.1-0.9-0.3-1.3-0.7c-0.3-0.3-0.6-0.8-0.7-1.3c-0.1-0.5,0-1,0.2-1.4
						l9.5-22.3c0.5,0.4,1,0.8,1.6,1.2l15.3,10.3c-0.1,0.4-0.1,0.8-0.1,1.1c0,0.8,0.2,1.6,0.6,2.4L243.3,289.5z M269.1,279.5
						c-0.7-0.7-1.2-1.7-1.2-2.7v-0.1c0-0.8,0.2-1.6,0.7-2.2c0.4-0.7,1.1-1.2,1.8-1.5c0.7-0.3,1.5-0.4,2.3-0.2c0.8,0.2,1.5,0.5,2,1.1
						c0.6,0.6,0.9,1.3,1.1,2c0.2,0.8,0.1,1.6-0.2,2.3c-0.3,0.7-0.8,1.4-1.5,1.8c-0.7,0.4-1.4,0.7-2.2,0.7
						C270.9,280.6,269.9,280.2,269.1,279.5z M271,282.1c0.3,0.1,0.6,0.1,0.9,0.1c1,0,2-0.2,2.8-0.7c0.9-0.5,1.6-1.2,2.1-2.1
						c0.5-0.9,0.7-1.8,0.7-2.8c0-1-0.3-2-0.8-2.8s-1.2-1.6-2.1-2c-0.9-0.5-1.8-0.7-2.8-0.7c-1,0-1.9,0.3-2.8,0.8
						c-0.8,0.5-1.5,1.2-2,2.1l-15-10.1c-1.7-1.1-3.1-2.6-4.1-4.4c-1-1.8-1.6-3.7-1.8-5.8l-0.6-7.7l43,27.2L273.2,304l-11.5,0
						L271,282.1z M229.9,340.5c-0.3,0-0.5-0.1-0.8-0.2s-0.5-0.3-0.6-0.4c-0.2-0.2-0.3-0.4-0.4-0.7c-0.1-0.2-0.1-0.5-0.1-0.8
						l1.4-26.3h40l-2,4h-0.2v0.4l-11.9,23.9H229.9z M231.9,402l6,2.9c0.5,0.3,1,0.6,1.4,1.1c0.4,0.5,0.7,1,0.9,1.5
						c0.2,0.6,0.3,1.2,0.2,1.8c0,0.6-0.2,1.2-0.5,1.7l-4.9,9.5c-0.5,1-1.4,1.8-2.4,2.2c-1,0.4-2.2,0.4-3.2,0l-6.5-2.5L231.9,402z
						 M276.5,432.8h-35.7c-7.5,0-15-1.5-21.9-4.3l3.4-7l6.6,2.6c1.4,0.5,3,0.6,4.4,0c1.4-0.5,2.6-1.6,3.3-2.9l4.9-9.5
						c0.4-0.7,0.6-1.5,0.7-2.3c0.1-0.8,0-1.6-0.3-2.4c-0.3-0.8-0.7-1.5-1.2-2.1c-0.5-0.6-1.2-1.1-1.9-1.5l-6-2.9l7.7-15.6l18.9,31.1
						c1.9,3.1,4.6,5.7,7.8,7.5c3.2,1.8,6.8,2.7,10.5,2.8h2.3L276.5,432.8z M277.5,424.7c-3.4,0-6.7-0.9-9.7-2.6
						c-3-1.7-5.4-4.1-7.2-7l-19.4-32l32.5-65.6h12.6c5.7,0,11.3,1.6,16.1,4.7c4.8,3,8.7,7.3,11.2,12.4l6.9,14.2l-3.5,6.8l-11.9-7.3
						c-1.6-1-3.3-1.6-5.2-1.9c-1.8-0.3-3.7-0.1-5.5,0.4c-1.8,0.5-3.4,1.4-4.9,2.5c-1.4,1.2-2.6,2.6-3.4,4.3l-21.5,42.1
						c-1,2-1.5,4.3-1.5,6.6c0.1,2.3,0.8,4.5,2,6.5c1.2,2,2.9,3.6,4.9,4.7c2,1.1,4.3,1.7,6.6,1.7h9.2l-4.9,9.4H277.5z M314.7,360
						l-26.6,50.5h-11.7c-1.5,0-2.9-0.4-4.2-1.1c-1.3-0.7-2.4-1.8-3.1-3c-0.8-1.3-1.2-2.7-1.3-4.2c-0.1-1.5,0.3-2.9,0.9-4.3
						l21.5-42.1c0.5-1.1,1.3-2,2.2-2.8c0.9-0.8,2-1.3,3.1-1.6c1.1-0.3,2.4-0.4,3.5-0.2c1.2,0.2,2.3,0.6,3.3,1.2L314.7,360z
						 M285.5,432.8l42.4-80.8l26.3,54.2c-1,5.6-3.2,10.9-6.6,15.6c-3.3,4.6-7.7,8.4-12.7,11.1H285.5z M338.1,432.8
						c8.8-5.5,15-14.2,17.3-24.3l11.8,24.3H338.1z"/>
				</g>
				<path class="st11" d="M218.1,47.9h179.1v31.9c0,1-0.2,1.9-0.6,2.8c-0.4,0.9-0.9,1.7-1.6,2.4c-0.7,0.7-1.5,1.2-2.4,1.6
					c-0.9,0.4-1.9,0.6-2.8,0.6H225.5c-2,0-3.9-0.8-5.2-2.2c-1.4-1.4-2.2-3.3-2.2-5.2V47.9z"/>
			</g>
			<path class="st236" d="M379,38.8H236.3c-7.2,0-14.2,2.9-19.3,8c-5.1,5.1-8,12.1-8,19.3v350.7c0,7.2,2.9,14.2,8,19.3
				c5.1,5.1,12.1,8,19.3,8H379c7.2,0,14.2-2.9,19.3-8c5.1-5.1,8-12.1,8-19.3V66.1c0-7.2-2.9-14.2-8-19.3
				C393.2,41.7,386.2,38.8,379,38.8z M397.2,416.8c0,4.8-1.9,9.5-5.3,12.9c-3.4,3.4-8,5.3-12.9,5.3H236.3c-4.8,0-9.5-1.9-12.9-5.3
				c-3.4-3.4-5.3-8-5.3-12.9V66.1c0-4.8,1.9-9.4,5.3-12.9c3.4-3.4,8-5.3,12.9-5.3h21.4v1.9c0,2.4,1,4.8,2.7,6.5
				c1.7,1.7,4.1,2.7,6.5,2.7h81.6c2.4,0,4.8-1,6.5-2.7c1.7-1.7,2.7-4.1,2.7-6.5v-1.9H379c4.8,0,9.4,1.9,12.8,5.4
				c3.4,3.4,5.3,8,5.3,12.9V416.8z"/>
			<path class="st10" d="M335.2,332.9c1.9,1.2,3.5,3,4.4,5.2c0.9,2.1,1.2,4.5,0.8,6.7c-0.4,2.3-1.5,4.4-3.1,6
				c-1.6,1.7-3.7,2.8-5.9,3.3c-2.3,0.5-4.6,0.3-6.8-0.5c-2.2-0.8-4-2.3-5.3-4.2c-1.3-1.9-2.1-4.1-2.1-6.4c0-2.3,0.6-4.6,1.8-6.5
				c0.8-1.3,1.9-2.4,3.2-3.3s2.7-1.5,4.2-1.8c1.5-0.3,3-0.4,4.6-0.1C332.5,331.5,333.9,332.1,335.2,332.9z"/>
			<path class="st11" d="M377.5,383.7H238.2c-1.3,0-2.6,0.3-3.8,0.7c-1.2,0.5-2.3,1.2-3.2,2.1c-0.9,0.9-1.6,2-2.1,3.2
				c-0.5,1.2-0.7,2.5-0.7,3.8v17.8c0,2.6,1,5.1,2.9,7c1.8,1.8,4.4,2.9,7,2.9h139.3c2.6,0,5.1-1,7-2.9c1.8-1.8,2.9-4.4,2.9-7v-17.8
				c0-1.3-0.3-2.6-0.8-3.8c-0.5-1.2-1.2-2.3-2.1-3.2c-0.9-0.9-2-1.6-3.2-2.1S378.8,383.7,377.5,383.7z"/>
			<path class="st8" d="M241.9,400.6h-1.1V398l-2.7-4.3h1.3l1.9,3.1h0.1l1.9-3.1h1.3l-2.7,4.3V400.6z M246.3,400.7
				c-1.5,0-2.6-0.8-2.6-2.6s1.1-2.6,2.6-2.6c1.5,0,2.6,0.8,2.6,2.6S247.9,400.7,246.3,400.7z M246.3,399.8c0.9,0,1.5-0.6,1.5-1.7
				c0-1.2-0.6-1.7-1.5-1.7c-0.9,0-1.5,0.6-1.5,1.7C244.8,399.3,245.4,399.8,246.3,399.8z M252.1,400.7c-1.5,0-2.4-0.7-2.4-2.3v-2.8
				h1.1v2.8c0,0.9,0.5,1.4,1.4,1.4c0.9,0,1.4-0.5,1.4-1.4v-2.7h1.1v2.7C254.6,400,253.6,400.7,252.1,400.7z M256.6,400.6h-1.1v-4.9
				h1l0.1,0.8h0.1c0.4-0.5,0.9-0.8,1.8-0.8v1c-0.1,0-0.2,0-0.4,0c-1.1,0-1.5,0.6-1.5,1.7V400.6z M264,400.7c-1.5,0-2.6-0.8-2.6-2.6
				s1.1-2.6,2.6-2.6c1.5,0,2.6,0.8,2.6,2.6S265.6,400.7,264,400.7z M264,399.8c0.9,0,1.5-0.6,1.5-1.7c0-1.2-0.6-1.7-1.5-1.7
				c-0.9,0-1.5,0.6-1.5,1.7C262.5,399.3,263.1,399.8,264,399.8z M268.5,400.6h-1.1v-4.9h1l0.1,0.8h0.1c0.4-0.5,0.9-0.8,1.8-0.8v1
				c-0.1,0-0.2,0-0.4,0c-1.1,0-1.5,0.6-1.5,1.7V400.6z M272.8,400.7c-1.3,0-2.3-0.9-2.3-2.6c0-1.7,1-2.6,2.3-2.6
				c0.7,0,1.3,0.2,1.7,0.8h0.1v-2.6h1.1v6.8h-1l-0.1-0.7h-0.1C274.1,400.4,273.6,400.7,272.8,400.7z M273.1,399.8
				c0.9,0,1.5-0.6,1.5-1.7c0-1.1-0.6-1.7-1.5-1.7c-0.9,0-1.5,0.6-1.5,1.7C271.6,399.2,272.2,399.8,273.1,399.8z M279,400.7
				c-1.6,0-2.6-1-2.6-2.6c0-1.7,1.1-2.6,2.6-2.6c1.5,0,2.4,0.9,2.4,2.5c0,0.1,0,0.3,0,0.4h-3.9c0.1,1,0.7,1.5,1.5,1.5
				c0.5,0,0.9-0.2,1.2-0.6h1.1C281,400.1,280.1,400.7,279,400.7z M277.6,397.6h2.8c-0.1-0.8-0.7-1.3-1.4-1.3
				C278.3,396.3,277.7,396.8,277.6,397.6z M283.3,400.6h-1.1v-4.9h1l0.1,0.8h0.1c0.4-0.5,0.9-0.8,1.8-0.8v1c-0.1,0-0.2,0-0.4,0
				c-1.1,0-1.5,0.6-1.5,1.7V400.6z M288.8,394.9c-0.4,0-0.7-0.3-0.7-0.7c0-0.4,0.3-0.7,0.7-0.7c0.4,0,0.7,0.3,0.7,0.7
				C289.5,394.6,289.2,394.9,288.8,394.9z M289.4,400.6h-1.1v-4.9h1.1V400.6z M292.4,400.7c-1.6,0-2.2-0.7-2.2-1.5c0,0,0-0.1,0-0.1
				h1.1v0c0,0.4,0.4,0.7,1.1,0.7c0.7,0,1.1-0.2,1.1-0.7c0-1-3.3-0.1-3.3-2.1c0-0.9,0.8-1.6,2.1-1.6c1.5,0,2.2,0.7,2.2,1.5v0.1h-1.1
				V397c0-0.4-0.3-0.7-1.1-0.7c-0.7,0-1.1,0.2-1.1,0.7c0,1.1,3.3,0.1,3.3,2.1C294.6,400,293.8,400.7,292.4,400.7z M300.4,400.7
				c-1.5,0-2.6-0.8-2.6-2.6s1.1-2.6,2.6-2.6c1.5,0,2.6,0.8,2.6,2.6S301.9,400.7,300.4,400.7z M300.4,399.8c0.9,0,1.5-0.6,1.5-1.7
				c0-1.2-0.6-1.7-1.5-1.7c-0.9,0-1.5,0.6-1.5,1.7C298.8,399.3,299.5,399.8,300.4,399.8z M304.9,400.6h-1.1v-2.7
				c0-1.6,0.9-2.4,2.4-2.4c1.5,0,2.4,0.7,2.4,2.3v2.8h-1.1v-2.8c0-1-0.5-1.4-1.4-1.4c-0.9,0-1.4,0.5-1.4,1.4V400.6z M314.2,400.6
				h-1.1v-4h-1.2v-0.9h1.2v-1.3h1.1v1.3h1.3v0.9h-1.3V400.6z M317.2,400.6h-1.1v-6.8h1.1v2.6h0.1c0.4-0.6,1-0.8,1.7-0.8
				c1.1,0,2,0.6,2,2.2v2.9h-1.1v-2.8c0-0.9-0.5-1.4-1.2-1.4c-0.9,0-1.5,0.6-1.5,1.6V400.6z M324.3,400.7c-1.6,0-2.6-1-2.6-2.6
				c0-1.7,1.1-2.6,2.6-2.6c1.5,0,2.4,0.9,2.4,2.5c0,0.1,0,0.3,0,0.4h-3.9c0.1,1,0.7,1.5,1.5,1.5c0.5,0,0.9-0.2,1.2-0.6h1.1
				C326.3,400.1,325.4,400.7,324.3,400.7z M322.9,397.6h2.8c-0.1-0.8-0.7-1.3-1.4-1.3C323.6,396.3,323,396.8,322.9,397.6z
				 M332.3,400.6h-1.2l-1.7-4.9h1.2l1.1,3.6h0.1l1.1-3.6h1.2l1.1,3.6h0.1l1.1-3.6h1.1l-1.7,4.9h-1.2l-1.1-3.5h-0.1L332.3,400.6z
				 M339.8,400.7c-1.3,0-2.3-0.9-2.3-2.6c0-1.7,1-2.6,2.3-2.6c0.7,0,1.3,0.2,1.7,0.8h0.1l0.1-0.7h1v4.9h-1l-0.1-0.7h-0.1
				C341.1,400.4,340.5,400.7,339.8,400.7z M340.1,399.8c0.9,0,1.5-0.6,1.5-1.7c0-1.1-0.6-1.7-1.5-1.7c-0.9,0-1.5,0.6-1.5,1.7
				C338.6,399.2,339.2,399.8,340.1,399.8z M345.5,402.4h-1.2l0.8-1.8l-2.1-4.9h1.2l1.4,3.6h0.1l1.4-3.6h1.1L345.5,402.4z"/>
			<path class="st7" d="M238.2,410.6v-7.3h3c2.1,0,2.7,1,2.7,2.1c0,0.4-0.1,0.8-0.3,1.2c-0.2,0.3-0.6,0.6-1,0.7v0.1
				c0.8,0.2,1.1,0.8,1.3,1.8l0.3,1.4H243l-0.3-1.4c0-0.2-0.1-0.4-0.1-0.6c-0.1-0.2-0.2-0.3-0.4-0.4c-0.2-0.1-0.3-0.2-0.5-0.3
				c-0.2,0-0.4,0-0.6,0h-1.7v2.7L238.2,410.6z M239.4,406.9h1.6c1.1,0,1.5-0.5,1.5-1.2c0-0.7-0.4-1.2-1.5-1.2h-1.7L239.4,406.9z"/>
			<path class="st7" d="M244.6,408c0-0.4,0-0.7,0.1-1.1c0.1-0.3,0.3-0.7,0.6-0.9c0.3-0.3,0.6-0.5,0.9-0.6c0.3-0.1,0.7-0.2,1.1-0.1
				c0.4,0,0.7,0,1.1,0.2c0.3,0.1,0.6,0.3,0.9,0.6c0.3,0.3,0.4,0.6,0.6,0.9c0.1,0.3,0.2,0.7,0.1,1c0,0.1,0,0.3,0,0.4h-4.2
				c0,0.2,0,0.4,0.1,0.6c0.2,0.4,0.5,0.7,0.9,0.9c0.2,0.1,0.4,0.1,0.6,0.1c0.2,0,0.5,0,0.7-0.2c0.2-0.1,0.4-0.3,0.5-0.5h1.2
				c-0.2,0.5-0.5,0.9-0.9,1.2c-0.4,0.3-0.9,0.4-1.4,0.4c-0.4,0-0.7,0-1.1-0.1c-0.4-0.1-0.7-0.3-0.9-0.6c-0.3-0.3-0.5-0.6-0.6-0.9
				C244.6,408.8,244.5,408.4,244.6,408z M248.8,407.5c0-0.2,0-0.4-0.1-0.5c-0.1-0.2-0.2-0.3-0.3-0.5c-0.1-0.1-0.3-0.2-0.5-0.3
				c-0.2-0.1-0.4-0.1-0.6-0.1c-0.4,0-0.8,0.1-1.1,0.4c-0.3,0.3-0.5,0.6-0.5,1H248.8z"/>
			<path class="st7" d="M250.5,408c0-0.4,0-0.7,0.1-1.1c0.1-0.3,0.3-0.6,0.5-0.9c0.2-0.3,0.5-0.5,0.8-0.6c0.3-0.1,0.7-0.2,1.1-0.2
				c0.4,0,0.7,0,1,0.2c0.3,0.2,0.6,0.4,0.8,0.7h0.1l0.1-0.7h1.1v5.3h-1.1l-0.1-0.8h-0.1c-0.2,0.3-0.5,0.6-0.8,0.7
				c-0.3,0.2-0.7,0.2-1.1,0.2c-0.4,0-0.7-0.1-1.1-0.2c-0.3-0.1-0.6-0.4-0.8-0.6c-0.2-0.3-0.4-0.6-0.5-0.9
				C250.5,408.7,250.5,408.3,250.5,408z M254.9,408c-0.1-0.3-0.2-0.6-0.4-0.8c-0.2-0.2-0.5-0.4-0.8-0.5c-0.3-0.1-0.6-0.1-0.9,0
				c-0.3,0.1-0.6,0.3-0.8,0.5c-0.2,0.2-0.3,0.5-0.4,0.8c0,0.3,0,0.6,0.1,0.9c0.1,0.3,0.3,0.5,0.6,0.7c0.3,0.2,0.6,0.3,0.9,0.3
				c0.2,0,0.5,0,0.7-0.1c0.2-0.1,0.4-0.2,0.6-0.4c0.2-0.2,0.3-0.4,0.3-0.6C255,408.5,255,408.2,254.9,408L254.9,408z"/>
			<path class="st7" d="M256.8,408c0-0.4,0-0.7,0.1-1.1c0.1-0.4,0.3-0.7,0.6-0.9c0.3-0.3,0.6-0.5,0.9-0.6c0.3-0.1,0.7-0.2,1.1-0.1
				c0.6-0.1,1.1,0.1,1.6,0.5c0.5,0.3,0.8,0.9,0.9,1.4h-1.1c-0.1-0.3-0.2-0.6-0.5-0.8c-0.3-0.2-0.6-0.3-0.9-0.3
				c-0.9,0-1.5,0.7-1.5,1.9c0,1.2,0.6,1.9,1.5,1.9c0.3,0,0.6-0.1,0.9-0.3c0.2-0.2,0.4-0.5,0.5-0.8h1.2c-0.1,0.6-0.4,1.1-0.9,1.4
				c-0.5,0.4-1,0.5-1.6,0.5c-0.4,0-0.7,0-1.1-0.1c-0.3-0.1-0.7-0.3-0.9-0.6c-0.3-0.3-0.5-0.6-0.6-0.9
				C256.9,408.7,256.8,408.4,256.8,408z"/>
			<path class="st7" d="M262.8,410.6v-7.3h1.2v2.8h0.2c0.3-0.4,0.7-0.7,1.1-0.8c0.4-0.2,0.9-0.2,1.4,0c0.4,0.2,0.8,0.5,1.1,0.9
				c0.3,0.4,0.4,0.9,0.4,1.3v3.1H267v-3c0-1-0.5-1.5-1.3-1.5c-0.2,0-0.4,0-0.6,0.1c-0.2,0.1-0.4,0.2-0.5,0.4
				c-0.1,0.2-0.3,0.4-0.3,0.6c-0.1,0.2-0.1,0.4-0.1,0.6v2.7L262.8,410.6z"/>
			<path class="st7" d="M269,403.9c0-0.1,0-0.3,0.1-0.4c0.1-0.1,0.2-0.2,0.3-0.3c0.1,0,0.3,0,0.4,0c0.1,0,0.3,0.1,0.4,0.2
				c0.1,0.1,0.2,0.2,0.2,0.4c0,0.1,0,0.3-0.1,0.4c-0.1,0.1-0.1,0.2-0.3,0.3c-0.1,0.1-0.3,0.1-0.4,0.1c-0.1,0-0.2,0-0.3,0
				c-0.1,0-0.2-0.1-0.2-0.1c-0.1-0.1-0.1-0.1-0.1-0.2C269,404.2,268.9,404,269,403.9z M269.1,410.6v-5.3h1.2v5.3H269.1z"/>
			<path class="st7" d="M271.3,410.6v-2.9c0-0.4,0-0.7,0.1-1.1c0.1-0.3,0.3-0.6,0.6-0.9c0.3-0.2,0.6-0.4,0.9-0.5
				c0.3-0.1,0.7-0.1,1-0.1c1.6,0,2.6,0.7,2.6,2.5v2.9h-1.2v-2.9c0-0.2,0-0.4-0.1-0.6c-0.1-0.2-0.2-0.4-0.3-0.5
				c-0.1-0.1-0.3-0.3-0.5-0.3c-0.2-0.1-0.4-0.1-0.6-0.1c-0.2,0-0.4,0-0.6,0.1c-0.3,0.1-0.5,0.3-0.7,0.6c-0.2,0.3-0.2,0.6-0.2,0.9
				v2.9L271.3,410.6z"/>
			<path class="st7" d="M277.6,411h1.1c0,0.6,0.4,0.9,1.3,0.9c0.2,0,0.4,0,0.6-0.1c0.2-0.1,0.4-0.2,0.5-0.4c0.1-0.2,0.3-0.3,0.3-0.6
				c0.1-0.2,0.1-0.4,0.1-0.6v-0.7h-0.1c-0.2,0.3-0.5,0.6-0.8,0.7c-0.3,0.2-0.7,0.2-1.1,0.2c-0.5,0-0.9-0.2-1.3-0.5
				c-0.4-0.3-0.7-0.7-0.9-1.1c-0.2-0.5-0.2-0.9-0.1-1.4c0.1-0.5,0.3-0.9,0.6-1.3c0.4-0.5,1-0.8,1.7-0.8c0.4,0,0.7,0,1.1,0.2
				c0.3,0.2,0.6,0.4,0.8,0.7h0.1l0.1-0.7h1.1v4.6c0,0.4,0,0.7-0.1,1.1c-0.1,0.3-0.3,0.7-0.6,0.9c-0.3,0.3-0.6,0.5-0.9,0.6
				c-0.3,0.1-0.7,0.2-1.1,0.1C278.4,412.7,277.6,412,277.6,411z M281.7,407.8c0-0.2,0-0.4-0.1-0.6c-0.1-0.2-0.2-0.4-0.3-0.5
				c-0.2-0.2-0.3-0.3-0.5-0.3c-0.2-0.1-0.4-0.1-0.6-0.1c-0.2,0-0.5,0-0.7,0.1c-0.2,0.1-0.4,0.2-0.6,0.3c-0.2,0.2-0.3,0.3-0.4,0.5
				c-0.1,0.2-0.1,0.4-0.1,0.7c0,0.2,0,0.4,0.1,0.7c0.1,0.2,0.2,0.4,0.4,0.6c0.2,0.2,0.4,0.3,0.6,0.3c0.4,0.1,0.9,0.1,1.3,0
				c0.2-0.1,0.4-0.2,0.5-0.3c0.2-0.2,0.3-0.3,0.3-0.5C281.7,408.2,281.7,408,281.7,407.8L281.7,407.8z"/>
			<path class="st7" d="M286.5,403.9c0-0.1,0-0.3,0.1-0.4c0.1-0.1,0.2-0.2,0.3-0.3c0.1,0,0.3,0,0.4,0c0.1,0,0.3,0.1,0.4,0.2
				c0.1,0.1,0.2,0.2,0.2,0.4c0,0.1,0,0.3,0,0.4c-0.1,0.1-0.2,0.2-0.3,0.3c-0.1,0.1-0.3,0.1-0.4,0.1c-0.1,0-0.2,0-0.3,0
				c-0.1,0-0.2-0.1-0.2-0.1c-0.1-0.1-0.1-0.1-0.1-0.2C286.5,404.2,286.5,404,286.5,403.9z M286.6,410.6v-5.3h1.2v5.3H286.6z"/>
			<path class="st7" d="M288.8,410.6v-2.9c0-0.4,0-0.7,0.1-1.1c0.1-0.3,0.3-0.6,0.6-0.9c0.3-0.2,0.6-0.4,0.9-0.5
				c0.3-0.1,0.7-0.1,1-0.1c1.6,0,2.6,0.7,2.6,2.5v2.9h-1.1v-2.9c0-0.2,0-0.4,0-0.6c-0.1-0.2-0.2-0.4-0.3-0.5
				c-0.1-0.1-0.3-0.2-0.5-0.3c-0.3-0.1-0.6-0.1-0.9-0.1c-0.3,0.1-0.6,0.2-0.8,0.4c-0.1,0.1-0.2,0.3-0.3,0.5c0,0.2,0,0.4,0,0.6v2.9
				L288.8,410.6z"/>
			<path class="st7" d="M297.5,408.7v-0.2h1.2v0.1c0,0.7,0.4,1.2,1.3,1.2c0.2,0,0.4,0,0.5-0.1c0.2-0.1,0.3-0.2,0.5-0.3
				c0.1-0.1,0.2-0.3,0.3-0.5c0.1-0.2,0.1-0.4,0.1-0.6c0-0.2,0-0.4-0.1-0.5c-0.1-0.2-0.1-0.3-0.3-0.5c-0.1-0.1-0.3-0.2-0.4-0.3
				c-0.2-0.1-0.4-0.1-0.5-0.1c-0.2,0-0.5,0-0.7,0.1c-0.2,0.1-0.4,0.3-0.6,0.5l-1-0.2l0.2-4h4.2v1.1h-3.3l-0.1,2.1h0.1
				c0.4-0.3,1-0.5,1.5-0.4c0.3,0,0.6,0,0.9,0.1c0.3,0.1,0.5,0.3,0.8,0.5c0.2,0.2,0.4,0.5,0.5,0.8c0.1,0.3,0.1,0.6,0.1,0.9
				c0,0.3-0.1,0.7-0.2,1c-0.1,0.3-0.3,0.6-0.6,0.8c-0.2,0.2-0.5,0.4-0.8,0.5c-0.3,0.1-0.6,0.2-1,0.1
				C298.2,410.8,297.5,409.8,297.5,408.7z"/>
			<path class="st7" d="M306.1,410.6v-7.3h1.7l2.2,5.6h0.1l2.2-5.6h1.7v7.3h-1.2v-5.4h-0.1l-2.1,5.4h-1.3l-2.1-5.4h-0.1v5.4H306.1z"
				/>
			<path class="st7" d="M314.9,403.9c0-0.1,0-0.3,0.1-0.4c0.1-0.1,0.2-0.2,0.3-0.3c0.1-0.1,0.3-0.1,0.4-0.1c0.1,0,0.3,0.1,0.4,0.2
				c0.1,0.1,0.2,0.2,0.2,0.4c0,0.1,0,0.3,0,0.4c-0.1,0.1-0.1,0.2-0.3,0.3c-0.1,0.1-0.3,0.1-0.4,0.1c-0.1,0-0.2,0-0.3,0
				c-0.1,0-0.2-0.1-0.2-0.2c-0.1-0.1-0.1-0.1-0.2-0.2C314.9,404.1,314.9,404,314.9,403.9z M315,410.6v-5.3h1.1v5.3H315z"/>
			<path class="st7" d="M317.2,410.6v-2.9c0-0.4,0-0.7,0.1-1.1c0.1-0.3,0.3-0.6,0.6-0.9c0.3-0.2,0.6-0.4,0.9-0.5
				c0.3-0.1,0.7-0.1,1.1-0.1c1.6,0,2.6,0.7,2.6,2.5v2.9h-1.1v-2.9c0-0.2,0-0.4-0.1-0.6c-0.1-0.2-0.2-0.4-0.3-0.5
				c-0.1-0.1-0.3-0.2-0.5-0.3c-0.2-0.1-0.4-0.1-0.6-0.1c-0.2,0-0.4,0-0.6,0.1c-0.2,0.1-0.4,0.2-0.5,0.3c-0.1,0.1-0.3,0.3-0.3,0.5
				c-0.1,0.2-0.1,0.4-0.1,0.6v2.9L317.2,410.6z"/>
			<path class="st8" d="M365.6,394.6h-8.8c-0.8,0-1.6,0.3-2.2,0.9c-0.6,0.6-0.9,1.4-0.9,2.2v8.8c0,0.8,0.3,1.6,0.9,2.2
				c0.6,0.6,1.4,0.9,2.2,0.9h8.8c0.8,0,1.6-0.3,2.2-0.9c0.6-0.6,0.9-1.4,0.9-2.2v-8.8c0-0.8-0.3-1.6-0.9-2.2
				C367.2,394.9,366.4,394.6,365.6,394.6z"/>
			<path class="st0" d="M359.8,403.4c-0.1,0-0.1-0.1-0.2-0.1c-0.1,0-0.1,0-0.2,0.1l-1.7,1.7V404c0,0,0-0.1,0-0.1c0,0,0-0.1-0.1-0.1
				c-0.1-0.1-0.1-0.1-0.2-0.1c0,0-0.1,0-0.1,0c0,0-0.1,0-0.1,0.1c0,0,0,0.1-0.1,0.1c0,0,0,0.1,0,0.1v1.9c0,0,0,0.1,0,0.1
				c0,0.1,0.1,0.1,0.1,0.1h1.9c0.1,0,0.1,0,0.2-0.1c0.1-0.1,0.1-0.1,0.1-0.2c0-0.1,0-0.1-0.1-0.2c-0.1-0.1-0.1-0.1-0.2-0.1h-1.2
				l1.7-1.7c0-0.1,0.1-0.1,0.1-0.2C359.8,403.6,359.8,403.5,359.8,403.4z"/>
			<path class="st0" d="M359.8,400.8c0-0.1,0.1-0.1,0.1-0.2c0-0.1,0-0.1-0.1-0.2l-1.7-1.7h1.1c0.1,0,0.1,0,0.2-0.1
				c0.1-0.1,0.1-0.1,0.1-0.2c0,0,0-0.1,0-0.1c0,0,0-0.1-0.1-0.1c-0.1,0-0.1-0.1-0.2-0.1h-1.9c0,0-0.1,0-0.1,0c0,0,0,0.1-0.1,0.1v1.9
				c0,0,0,0.1,0,0.1c0,0,0,0.1,0.1,0.1c0,0.1,0.1,0.1,0.2,0.1c0.1,0,0.1,0,0.2-0.1c0,0,0-0.1,0.1-0.1c0,0,0-0.1,0-0.1v-1.2l1.7,1.7
				c0,0.1,0.1,0.1,0.2,0.1C359.7,400.8,359.7,400.8,359.8,400.8z"/>
			<path class="st0" d="M362.5,400.8L362.5,400.8l0.2,0.1h0.1l0.1-0.1l1.7-1.7v1.1c0,0.1,0,0.1,0.1,0.2c0.1,0.1,0.1,0.1,0.2,0.1
				c0.1,0,0.1,0,0.2-0.1c0,0,0-0.1,0.1-0.1c0,0,0-0.1,0-0.1v-1.9c0,0,0-0.1,0-0.1c0,0-0.1-0.1-0.1-0.1h-1.9c-0.1,0-0.1,0-0.2,0.1
				c0,0,0,0.1-0.1,0.1c0,0,0,0.1,0,0.1c0,0.1,0,0.1,0.1,0.2c0,0,0.1,0,0.1,0.1c0,0,0.1,0,0.1,0h1.2l-1.7,1.7c0,0,0,0-0.1,0.1
				c0,0,0,0.1,0,0.1C362.5,400.6,362.5,400.7,362.5,400.8z"/>
			<path class="st0" d="M362.5,403.4L362.5,403.4c-0.1,0.1-0.1,0.2-0.1,0.2c0,0,0,0.1,0,0.1l0.1,0.1l1.7,1.7H363
				c-0.1,0-0.1,0-0.2,0.1c0,0,0,0.1-0.1,0.1c0,0,0,0.1,0,0.1c0,0.1,0,0.1,0.1,0.2c0.1,0,0.1,0.1,0.2,0.1h1.9c0,0,0.1,0,0.1,0
				c0,0,0-0.1,0.1-0.1v-2c0-0.1,0-0.1-0.1-0.2c-0.1,0-0.1-0.1-0.2-0.1c0,0-0.1,0-0.1,0c0,0-0.1,0-0.1,0.1c-0.1,0.1-0.1,0.1-0.1,0.2
				v1.2l-1.7-1.7c-0.1,0-0.1,0-0.2,0C362.6,403.4,362.5,403.4,362.5,403.4z"/>
			<path class="st8" d="M376.3,404.8c-0.3,0-0.6,0.1-0.8,0.3c-0.1,0.1-0.2,0.2-0.3,0.4c-0.1,0.1-0.1,0.3-0.1,0.4
				c0,0.2,0,0.3,0.1,0.4c0.1,0.1,0.1,0.3,0.3,0.4c0.2,0.2,0.5,0.3,0.8,0.3s0.6-0.1,0.8-0.3c0.1-0.1,0.2-0.2,0.3-0.4
				c0.1-0.1,0.1-0.3,0.1-0.4c0-0.2,0-0.3-0.1-0.4c-0.1-0.1-0.1-0.3-0.3-0.4c-0.1-0.1-0.2-0.2-0.4-0.3
				C376.6,404.8,376.4,404.8,376.3,404.8z"/>
			<path class="st8" d="M376.3,400.9c-0.2,0-0.5,0.1-0.6,0.2c-0.2,0.1-0.3,0.3-0.4,0.5c-0.1,0.2-0.1,0.4-0.1,0.7
				c0,0.2,0.2,0.4,0.3,0.6c0.2,0.2,0.4,0.3,0.6,0.3c0.2,0,0.5,0,0.7-0.1c0.2-0.1,0.4-0.2,0.5-0.4c0.1-0.2,0.2-0.4,0.2-0.6
				c0-0.3-0.1-0.6-0.3-0.8C376.9,401.1,376.6,400.9,376.3,400.9z"/>
			<path class="st8" d="M376.3,397.1c-0.2,0-0.5,0.1-0.6,0.2c-0.2,0.1-0.3,0.3-0.4,0.5c-0.1,0.2-0.1,0.4-0.1,0.7
				c0,0.2,0.2,0.4,0.3,0.6c0.2,0.2,0.4,0.3,0.6,0.3c0.2,0,0.5,0,0.7-0.1c0.2-0.1,0.4-0.2,0.5-0.4c0.1-0.2,0.2-0.4,0.2-0.6
				c0-0.3-0.1-0.6-0.3-0.8C376.9,397.2,376.6,397.1,376.3,397.1z"/>
			<path class="st8" d="M233,54.4v-0.6h0.6c0.2,0,0.3-0.1,0.5-0.2c0.1-0.1,0.2-0.2,0.2-0.3c0-0.1,0-0.1,0-0.2h0.8v4.7h-0.9v-3.3
				L233,54.4z"/>
			<path class="st8" d="M236.4,54.4v-0.6h0.6c0.2,0,0.3-0.1,0.4-0.2c0.1-0.1,0.2-0.2,0.2-0.3V53h0.8v4.7h-1v-3.3L236.4,54.4z"/>
			<path class="st8" d="M240.5,54.2h1v1h-1V54.2z M240.5,56.7h1v1h-1V56.7z"/>
			<path class="st8" d="M242.4,54.4v-0.6h0.6c0.2,0,0.3-0.1,0.5-0.2c0.1-0.1,0.1-0.2,0.2-0.3c0-0.1,0-0.1,0-0.2h0.8v4.7h-0.9v-3.3
				L242.4,54.4z"/>
			<path class="st8" d="M245.8,54.4v-0.6h0.6c0.2,0,0.3-0.1,0.4-0.2c0.1-0.1,0.2-0.2,0.2-0.4c0-0.1,0-0.1,0-0.2h0.8v4.7h-1v-3.3
				L245.8,54.4z"/>
			<path class="st8" d="M358.6,56.3h-0.9c-0.1,0-0.1,0-0.2,0.1c0,0.1-0.1,0.1-0.1,0.2v1.3c0,0,0,0.1,0,0.1c0,0,0,0.1,0.1,0.1
				c0,0,0.1,0.1,0.2,0.1h0.9c0,0,0.1,0,0.1,0l0.1-0.1c0,0,0-0.1,0.1-0.1c0,0,0-0.1,0-0.1v-1.3c0,0,0-0.1,0-0.1
				c0-0.1-0.1-0.1-0.1-0.1L358.6,56.3z"/>
			<path class="st8" d="M360.9,55.3H360c-0.1,0-0.1,0-0.2,0.1c0,0-0.1,0.1-0.1,0.2v2.4c0,0.1,0,0.1,0.1,0.2c0,0,0.1,0.1,0.2,0.1h0.9
				c0.1,0,0.1,0,0.2-0.1c0,0,0.1-0.1,0.1-0.2v-2.4c0-0.1,0-0.1-0.1-0.2c0,0,0-0.1-0.1-0.1C361,55.3,360.9,55.3,360.9,55.3z"/>
			<path class="st8" d="M363.1,54.2h-0.9c0,0-0.1,0-0.1,0c0,0-0.1,0-0.1,0.1c0,0,0,0.1-0.1,0.1c0,0,0,0.1,0,0.1v3.4
				c0,0.1,0,0.1,0.1,0.2c0,0,0.1,0,0.1,0.1c0,0,0.1,0,0.1,0h0.9c0.1,0,0.1,0,0.2-0.1c0-0.1,0.1-0.1,0.1-0.2v-3.4c0,0,0-0.1,0-0.1
				c0,0,0-0.1-0.1-0.1c0,0-0.1,0-0.1-0.1C363.2,54.3,363.1,54.3,363.1,54.2L363.1,54.2z"/>
			<path class="st8" d="M365.4,53.2h-0.9c0,0-0.1,0-0.1,0l-0.1,0.1c0,0,0,0.1-0.1,0.1c0,0,0,0.1,0,0.1v4.5c0,0,0,0.1,0,0.1
				c0,0,0,0.1,0.1,0.1c0.1,0.1,0.1,0.1,0.2,0.1h0.9c0,0,0.1,0,0.1,0c0,0,0.1,0,0.1-0.1c0,0,0.1-0.1,0.1-0.2v-4.4
				c0-0.1,0-0.1-0.1-0.2C365.5,53.2,365.5,53.2,365.4,53.2L365.4,53.2z"/>
			<path class="st8" d="M372.7,57.2c0,0.2-0.1,0.3-0.1,0.5c-0.1,0.1-0.2,0.2-0.4,0.3c-0.2,0.1-0.3,0.1-0.5,0c-0.2,0-0.3-0.1-0.4-0.2
				c-0.1-0.1-0.2-0.3-0.2-0.4c-0.1-0.2-0.1-0.3,0-0.5c0.1-0.2,0.2-0.3,0.3-0.4c0.1-0.1,0.3-0.1,0.5-0.1c0.1,0,0.2,0,0.3,0.1
				c0.1,0,0.2,0.1,0.3,0.2c0.1,0.1,0.2,0.2,0.2,0.3C372.7,57,372.7,57.1,372.7,57.2z"/>
			<path class="st8" d="M373.4,56.2c-0.1,0-0.3-0.1-0.3-0.2c-0.2-0.2-0.3-0.3-0.6-0.4c-0.2-0.1-0.4-0.1-0.7-0.1
				c-0.2,0-0.4,0-0.7,0.1c-0.2,0.1-0.4,0.2-0.6,0.4c0,0.1-0.1,0.1-0.2,0.1c-0.1,0-0.1,0-0.2,0c-0.1,0-0.1,0-0.2,0
				c-0.1,0-0.1-0.1-0.2-0.1c0,0-0.1-0.1-0.1-0.2c0-0.1,0-0.1,0-0.2c0-0.1,0-0.1,0-0.2c0-0.1,0.1-0.1,0.1-0.2
				c0.3-0.2,0.6-0.4,0.9-0.6c0.3-0.1,0.7-0.2,1-0.2c0.4,0,0.7,0.1,1,0.2c0.3,0.1,0.6,0.3,0.9,0.6c0,0,0.1,0.1,0.1,0.2
				c0,0.1,0,0.1,0,0.2c0,0.1,0,0.1,0,0.2c0,0.1-0.1,0.1-0.1,0.2C373.6,56.1,373.5,56.2,373.4,56.2L373.4,56.2z"/>
			<path class="st8" d="M374.8,54.9c-0.1,0-0.1,0-0.2,0c-0.1,0-0.1-0.1-0.2-0.1c-0.3-0.3-0.7-0.6-1.2-0.8c-0.7-0.3-1.4-0.3-2.1-0.2
				s-1.3,0.5-1.8,1c-0.1,0.1-0.2,0.2-0.3,0.2c-0.1,0-0.1,0-0.2,0c-0.1,0-0.1-0.1-0.2-0.1c-0.1,0-0.1-0.1-0.1-0.2c0-0.1,0-0.1,0-0.2
				c0-0.1,0-0.1,0-0.2c0-0.1,0.1-0.1,0.1-0.2c0.9-0.8,2-1.3,3.2-1.3c1.2,0,2.3,0.5,3.1,1.3c0.1,0,0.1,0.1,0.1,0.2c0,0.1,0,0.3,0,0.4
				c0,0.1-0.1,0.1-0.1,0.2C374.9,54.8,374.9,54.8,374.8,54.9z"/>
			<path class="st8" d="M386.2,53.7h-5.8c-0.4,0-0.8,0.2-1.1,0.5c-0.3,0.3-0.4,0.7-0.4,1.1v0.5c0,0.2,0,0.4,0.1,0.6
				c0.1,0.2,0.2,0.3,0.3,0.5c0.1,0.1,0.3,0.3,0.5,0.3c0.2,0.1,0.4,0.1,0.6,0.1h5.8c0.2,0,0.4,0,0.6-0.1c0.2-0.1,0.4-0.2,0.5-0.3
				c0.1-0.1,0.2-0.3,0.3-0.5c0.1-0.2,0.1-0.4,0.1-0.6v-0.5c0-0.4-0.2-0.8-0.4-1.1C386.9,53.9,386.6,53.8,386.2,53.7z"/>
			<path class="st8" d="M387.9,54.6v1.8c0.1,0,0.2,0,0.2-0.1c0.1,0,0.1-0.1,0.2-0.1c0.1-0.1,0.1-0.1,0.1-0.2c0-0.1,0-0.2,0-0.2v-0.6
				c0-0.1,0-0.2,0-0.2c0-0.1-0.1-0.1-0.1-0.2c-0.1-0.1-0.1-0.1-0.2-0.1L387.9,54.6z"/>
			<path class="st8" d="M283,81.4v-8.6h-3.3v-1.5h8.3v1.5h-3.3v8.6H283z"/>
			<path class="st8" d="M287.7,81.4v-7.3h1.5l0.1,1.1h0.1c0.3-0.4,0.7-0.7,1.2-0.9c0.5-0.2,1-0.3,1.5-0.2v1.5c-0.2,0-0.4,0-0.6,0
				c-1.6,0-2.3,0.8-2.3,2.5v3.3H287.7z"/>
			<path class="st8" d="M292.2,77.7c0-2.5,1.5-3.8,3.4-3.8c0.5,0,1,0.1,1.4,0.3s0.8,0.5,1.1,0.9h0.1l0.1-1h1.4v7.3h-1.4l-0.1-1h-0.1
				c-0.3,0.4-0.7,0.7-1.1,1c-0.4,0.2-0.9,0.3-1.4,0.3C293.8,81.6,292.2,80.2,292.2,77.7z M298.3,77.7c-0.1-0.4-0.2-0.8-0.5-1.2
				c-0.3-0.3-0.6-0.6-1.1-0.7c-0.4-0.1-0.9-0.1-1.3,0c-0.4,0.1-0.8,0.3-1.1,0.7c-0.3,0.3-0.5,0.7-0.5,1.2c-0.1,0.4,0,0.9,0.2,1.3
				c0.2,0.4,0.5,0.7,0.8,1s0.8,0.4,1.2,0.4c0.3,0,0.6-0.1,0.9-0.2c0.3-0.1,0.6-0.3,0.8-0.6c0.2-0.2,0.4-0.5,0.5-0.8
				C298.4,78.4,298.4,78,298.3,77.7z"/>
			<path class="st8" d="M301,77.7c0-0.5,0-1,0.2-1.5c0.2-0.5,0.5-0.9,0.8-1.3c0.4-0.4,0.8-0.6,1.3-0.8c0.5-0.2,1-0.2,1.5-0.2
				c0.8-0.1,1.6,0.2,2.2,0.7c0.6,0.5,1,1.2,1.2,2h-1.6c-0.1-0.4-0.3-0.8-0.7-1.1c-0.3-0.3-0.8-0.4-1.2-0.4c-1.2,0-2.1,0.9-2.1,2.6
				c0,1.7,0.9,2.5,2.1,2.5c0.4,0,0.9-0.1,1.2-0.4c0.3-0.3,0.6-0.6,0.7-1.1h1.6c-0.1,0.8-0.5,1.5-1.2,2c-0.6,0.5-1.4,0.7-2.2,0.7
				c-0.5,0-1,0-1.5-0.2c-0.5-0.2-0.9-0.5-1.3-0.8c-0.4-0.4-0.6-0.8-0.8-1.3C301,78.7,301,78.2,301,77.7z"/>
			<path class="st8" d="M309.3,81.4V71.3h1.6V77h0.1l3.1-2.9h2l-3.5,3.3l3.5,3.9h-2l-3.1-3.4h-0.1v3.4H309.3z"/>
			<path class="st8" d="M316.4,72.1c0-0.2,0.1-0.4,0.2-0.6c0.1-0.2,0.3-0.3,0.5-0.4c0.2-0.1,0.4-0.1,0.6-0.1c0.2,0,0.4,0.1,0.5,0.3
				c0.1,0.1,0.2,0.3,0.3,0.5c0,0.2,0,0.4-0.1,0.6c-0.1,0.2-0.2,0.3-0.4,0.5c-0.2,0.1-0.4,0.2-0.6,0.2c-0.1,0-0.3,0-0.4-0.1
				c-0.1,0-0.2-0.1-0.3-0.2c-0.1-0.1-0.2-0.2-0.2-0.3C316.4,72.3,316.3,72.2,316.4,72.1z M316.5,81.4v-7.3h1.6v7.3H316.5z"/>
			<path class="st8" d="M319.5,81.4v-4c0-2.4,1.4-3.5,3.6-3.5c2.2,0,3.6,1,3.6,3.4v4.1h-1.6v-4.1c0-0.3,0-0.6-0.1-0.8
				c-0.1-0.3-0.2-0.5-0.4-0.7c-0.2-0.2-0.4-0.3-0.7-0.4c-0.3-0.1-0.5-0.1-0.8-0.1c-0.3,0-0.6,0-0.8,0.1c-0.3,0.1-0.5,0.3-0.7,0.5
				c-0.2,0.2-0.3,0.5-0.4,0.7c-0.1,0.3-0.1,0.6-0.1,0.8v4H319.5z"/>
			<path class="st8" d="M328.3,81.8L328.3,81.8l1.6-0.1c0,0.8,0.6,1.2,1.8,1.2c0.3,0,0.6,0,0.9-0.1c0.3-0.1,0.6-0.3,0.8-0.5
				c0.2-0.2,0.4-0.5,0.5-0.8c0.1-0.3,0.1-0.6,0.1-0.9v-0.9h-0.1c-0.3,0.4-0.7,0.7-1.1,1c-0.4,0.2-0.9,0.3-1.4,0.3
				c-0.9,0-1.9-0.4-2.5-1c-0.7-0.7-1-1.6-1-2.5s0.4-1.9,1-2.5c0.7-0.7,1.6-1,2.5-1c0.5,0,1,0.1,1.4,0.3c0.4,0.2,0.8,0.5,1.1,0.9h0.1
				l0.1-1h1.5v6.4c0,2.9-2,3.7-3.8,3.7C329.4,84.2,328.3,83.3,328.3,81.8z M334,77.4c0-0.3,0-0.6-0.1-0.9c-0.1-0.3-0.3-0.5-0.5-0.7
				c-0.2-0.2-0.5-0.4-0.7-0.5c-0.3-0.1-0.6-0.2-0.9-0.1c-0.6,0-1.2,0.2-1.6,0.7c-0.4,0.4-0.7,1-0.7,1.6c0,0.6,0.2,1.2,0.7,1.6
				c0.4,0.4,1,0.7,1.6,0.7c0.3,0,0.6,0,0.9-0.1c0.3-0.1,0.5-0.3,0.7-0.5c0.2-0.2,0.4-0.5,0.5-0.7C334,78,334,77.7,334,77.4L334,77.4
				z"/>
			<path class="st11" d="M331.1,340.8c-0.2,0-0.3,0-0.5-0.1c-0.1-0.1-0.2-0.1-0.3-0.2c-0.1-0.1-0.2-0.2-0.2-0.4c0-0.1-0.1-0.3,0-0.4
				c0-0.1,0.1-0.3,0.1-0.4l15.7-31.1l-54.3-34.6c-0.2-0.1-0.4-0.3-0.5-0.6c-0.1-0.3,0-0.5,0.1-0.8l42.4-85.9l-17.6-8.9
				c-0.3-0.1-0.4-0.3-0.5-0.6c-0.1-0.3-0.1-0.6,0.1-0.8c0.1-0.3,0.3-0.4,0.6-0.5c0.3-0.1,0.6-0.1,0.8,0.1l18.5,9.4
				c0.1,0.1,0.2,0.1,0.3,0.2c0.1,0.1,0.2,0.2,0.2,0.4c0,0.1,0.1,0.3,0,0.4c0,0.1-0.1,0.3-0.1,0.4l-42.4,86l54.3,34.6
				c0.2,0.1,0.4,0.4,0.5,0.6c0.1,0.3,0,0.5-0.1,0.8l-16.2,32c-0.1,0.2-0.2,0.3-0.4,0.4C331.4,340.8,331.3,340.8,331.1,340.8z"/>
			<path class="st11" d="M337.3,333.8c0-1.9-0.7-3.7-1.9-5.1c-1.2-1.5-3-2.4-4.8-2.8c-1.2-0.3-2.5-0.2-3.8,0.1
				c-1.2,0.3-2.4,0.9-3.3,1.7c-1,0.8-1.7,1.9-2.2,3.1c-0.5,1.1-0.7,2.4-0.6,3.6c0.1,1.2,0.5,2.5,1.1,3.5c0.3,0.5,0.7,1,1.1,1.4
				l4.8,6.2c0.2,0.2,0.3,0.3,0.5,0.4c0.2,0.1,0.4,0.1,0.7,0.2c0.2,0,0.5-0.1,0.7-0.2c0.2-0.1,0.4-0.3,0.5-0.4l4.8-6.1
				c0.4-0.5,0.8-1,1.2-1.5C336.8,336.7,337.3,335.3,337.3,333.8z M328.9,337.3c-0.7,0-1.4-0.2-2-0.6c-0.5-0.3-0.9-0.8-1.2-1.3
				c-0.3-0.5-0.4-1.1-0.4-1.8c0-0.5,0.2-1,0.4-1.5c0.3-0.5,0.6-0.9,1-1.2c0.4-0.3,0.9-0.5,1.5-0.6c0.7-0.1,1.4-0.1,2.1,0.2
				c0.6,0.3,1.2,0.7,1.6,1.3c0.3,0.5,0.5,1.1,0.6,1.6c0.1,0.6,0,1.2-0.3,1.7c-0.2,0.4-0.5,0.8-0.8,1.2c-0.3,0.3-0.7,0.6-1.2,0.8
				c-0.5,0.2-1,0.3-1.4,0.3L328.9,337.3z"/>
			<path class="st8" d="M208.1,227.1c0,0-11.5-8.2-16.9-28.1c-5.4-19.9,8.5-28.7,16.9-22.7V227.1z"/>
			<path class="st0" d="M208.6,227.9l-0.6-0.4c-0.1,0-11.7-8.4-17.1-28.3c-1.5-4.7-1.6-9.7-0.5-14.5c0.8-3.4,2.8-6.5,5.7-8.5
				c1.8-1.3,3.9-2,6.2-2s4.4,0.7,6.2,2l0.2,0.1L208.6,227.9z M202.4,174.9c-2.1,0-4.1,0.7-5.8,1.9c-6.8,4.7-7,14.5-4.9,22.2
				c4.7,16.9,13.7,25.3,16.1,27.4v-49.8C206.2,175.5,204.3,174.9,202.4,174.9L202.4,174.9z"/>
			<path class="st8" d="M208.1,354.3c0,0-8.8,0.4-17.1,1.4c-8.2,1-14.4,14.2-14,24.2c0.5,10,0,26.4,16,35.7
				c16,9.3,40.2,16.3,50.3,4.5c10.1-11.8,1-29-11-35.7c-12-6.8-24.3-14.1-24.3-16.5V354.3z"/>
			<path class="st0" d="M227.2,426.7c-2.3,0-4.5-0.2-6.8-0.6c-9.7-1.7-19-5.2-27.5-10.2c-15.2-8.8-15.8-23.9-16.1-33.9
				c0-0.7,0-1.4-0.1-2.1c-0.5-10.3,6.1-23.6,14.5-24.6c8.1-0.9,16.9-1.4,17.1-1.4h0.4v14c0,0.8,2.3,4.1,24,16.2
				c3.8,2.2,7.2,5.2,9.8,8.7c2.6,3.6,4.5,7.6,5.4,11.9c0.5,2.7,0.5,5.5-0.2,8.2c-0.7,2.7-2,5.2-3.8,7.3
				C239.5,425.2,233.2,426.7,227.2,426.7z M207.8,354.7c-1.8,0.1-9.5,0.5-16.5,1.3c-3.6,0.4-7.3,3.5-10,8.5
				c-2.6,4.7-3.9,9.9-3.8,15.3c0,0.7,0,1.4,0.1,2.1c0,5.8,0.9,11.6,2.5,17.2c2.2,6.8,7,12.6,13.2,16.1c8.4,5,17.7,8.4,27.3,10.1
				c7.1,1,16.9,1,22.5-5.5c1.8-2,3-4.4,3.7-7c0.7-2.6,0.7-5.3,0.2-7.9c-0.9-4.2-2.7-8.2-5.3-11.7c-2.6-3.5-5.8-6.4-9.6-8.5
				c-24.5-13.6-24.5-16-24.5-16.8L207.8,354.7z"/>
			<path class="st8" d="M184.7,345.5c-16.7-17.6-12.7-29-6.9-37.8c5.7-8.9,13.4-20.6,22-16.3c8.6,4.3,7.4,9.3,15,17.7
				c7.5,8.4,29.3,28.3,16.9,43.8C219.2,368.4,207.6,369.7,184.7,345.5z"/>
			<path class="st0" d="M213.8,364.5c-7.9,0-17.1-5.9-29.4-18.8c-7.7-8.1-11.6-15.4-12-22.4c-0.4-6.6,2.5-12,5-15.9
				c5.7-8.8,13.6-20.9,22.6-16.4c5.3,2.6,7,5.6,9.2,9.3c1.7,3.1,3.7,5.9,6,8.6c0.8,0.9,1.7,1.9,2.7,2.9c9,9.5,25.5,27.1,14.1,41.3
				c-6.1,7.6-11.5,11.1-17.4,11.4L213.8,364.5z M185,345.2c12.5,13.2,21.6,18.9,29.6,18.7c5.7-0.3,10.9-3.7,16.9-11.1
				c10.9-13.7-5.3-31.1-14.1-40.4c-1-1.1-2-2-2.7-2.9c-2.4-2.6-4.4-5.5-6.1-8.7c-2.1-3.7-3.7-6.4-8.8-9c-8.3-4.2-16,7.6-21.5,16.2
				c-2.5,3.8-5.3,9-4.9,15.4C173.6,330.1,177.5,337.3,185,345.2L185,345.2z"/>
			<path class="st8" d="M216.9,292.3c-11.6,12.4-24.3,11-34.1-4.5c-9.8-15.6-14.6-27.3-3.1-42c11.5-14.7,17.1-14.1,28.6-14.1v11
				C208.4,242.7,233.5,274.3,216.9,292.3z"/>
			<path class="st0" d="M201.1,301.1c-0.5,0-0.9,0-1.4,0c-6.2-0.6-12.2-5.1-17.2-13.1c-5-8-8.6-14.7-9.6-21.5
				c-1-7.3,1-13.8,6.5-20.9c11.3-14.3,17.1-14.3,27.8-14.3h1.5v11.3c4.2,5.6,7.8,11.6,10.5,18c2.3,5.1,3.6,10.7,3.8,16.3
				c0.2,5.7-1.9,11.3-5.8,15.5C212,298.2,206.5,301.1,201.1,301.1z M206.2,232.1c-10.1,0-15.5,0.4-26.2,14
				c-5.4,6.8-7.4,13.2-6.4,20.3c1,7,5.2,14.3,9.5,21.2c4.9,7.8,10.6,12.1,16.6,12.7c5.6,0.5,11.4-2.3,16.9-8.2
				c3.7-4.1,5.7-9.5,5.5-15c-0.2-5.5-1.5-11-3.7-16.1c-2.8-6.4-6.3-12.4-10.5-18l-0.1-0.1v-10.8L206.2,232.1L206.2,232.1z"/>
			<path class="st0" d="M413.4,354.7c-0.1,0-0.1,0-0.1,0c0,0-0.1-0.1-0.1-0.1c0,0,0-0.1,0-0.1c0-0.1,0-0.1,0-0.2
				c3.4-18.5,17.2-30.3,19-31.8c-4.3-27.6-6.1-51.4-6.1-51.6c0-0.1,0-0.2,0-0.2c0-0.1,0.1-0.1,0.2-0.2c0.1,0,0.2,0,0.2,0
				c0.1,0,0.2,0.1,0.2,0.1c5.2,6.3,11.9,11.3,19.4,14.6c0.1,0,0.2,0.1,0.2,0.2c0,0.1,0,0.2,0,0.3c0,0,0,0.1-0.1,0.1l-0.1,0.1h-0.3
				c-7.2-3.2-13.7-7.9-18.9-13.8c0.4,5.3,2.3,26.5,6,50.5c0,0,0,0.1,0,0.1c0,0,0,0.1,0,0.1c0,0.1-0.1,0.1-0.1,0.2
				c-0.2,0.1-15.3,12-18.9,31.5c0,0.1-0.1,0.2-0.1,0.2c0,0-0.1,0.1-0.2,0.1C413.5,354.7,413.4,354.7,413.4,354.7z"/>
			<path class="st8" d="M208.7,278.6c5.5-8.8,6.4-18.1,2-20.9c-4.4-2.8-12.4,2.2-17.9,10.9s-6.4,18.1-2,20.9
				C195.2,292.3,203.3,287.4,208.7,278.6z"/>
			<path class="st0" d="M193.7,290.7c-1.1,0-2.1-0.3-3.1-0.8c-2.3-1.4-3.3-4.4-2.9-8.5c0.6-4.6,2.3-9,4.9-12.9
				c5.6-8.9,13.8-14,18.4-11.1c2.3,1.4,3.3,4.5,2.9,8.5c-0.6,4.6-2.2,9-4.8,12.9c-2.4,4-5.6,7.4-9.5,9.9
				C197.9,289.9,195.9,290.6,193.7,290.7z M207.9,257.3c-4.3,0-10.3,4.5-14.7,11.5c-2.5,3.8-4.1,8.1-4.7,12.5
				c-0.4,3.8,0.5,6.6,2.5,7.8s4.9,0.8,8.2-1.1c3.7-2.6,6.8-5.8,9.2-9.7c2.4-3.8,3.9-8.1,4.6-12.5c0.3-3.8-0.6-6.6-2.5-7.8
				C209.7,257.6,208.8,257.3,207.9,257.3z"/>
			<path class="st8" d="M220.9,346.1c-6.2,8.2-14.7,12.4-18.8,9.3c-4.1-3.1-2.4-12.4,3.9-20.6c6.3-8.2,14.7-12.4,18.8-9.3
				C228.9,328.6,227.1,337.9,220.9,346.1z"/>
			<path class="st0" d="M205.4,356.9c-1.3,0-2.6-0.4-3.6-1.1c-2.1-1.6-2.9-4.7-2.1-8.8c1-4.5,3.1-8.8,6-12.4
				c6.4-8.4,15.1-12.6,19.4-9.3c4.3,3.3,2.6,12.8-3.8,21.2c-2.7,3.7-6.3,6.8-10.3,9C209.2,356.3,207.3,356.8,205.4,356.9z
				 M221.3,324.9c-4.3,0-10.3,3.9-15.1,10.2c-2.8,3.5-4.7,7.6-5.7,12c-0.7,3.7,0,6.6,1.8,8c1.8,1.4,4.8,1.3,8.2-0.4
				c4-2.1,7.4-5.1,10.1-8.8c6.1-8,7.9-17.1,4-20c-0.9-0.7-2-1-3.1-1L221.3,324.9z"/>
			<path class="st8" d="M449.8,193c4.4,12.1,5.1,23,1.5,24.3c-3.6,1.3-10.1-7.4-14.5-19.5c-4.4-12.1-5.1-22.9-1.5-24.3
				C438.9,172.2,445.4,181,449.8,193z"/>
			<path class="st0" d="M450.5,217.8c-1.8,0-4.1-1.7-6.5-5c-3.2-4.6-5.8-9.6-7.6-14.9c-4-10.9-5.5-23.2-1.2-24.8
				c1.9-0.7,4.6,1,7.4,4.8c3.2,4.6,5.8,9.6,7.6,14.9c4,10.9,5.5,23.2,1.2,24.8C451.1,217.8,450.8,217.8,450.5,217.8z M436,173.8
				c-0.2,0-0.4,0-0.6,0.1c-3,1.1-3.1,10.9,1.7,23.8c1.8,5.2,4.4,10.1,7.5,14.7c2.6,3.5,5,5.1,6.5,4.6c3-1,3-10.9-1.7-23.8
				c-1.8-5.2-4.3-10.1-7.5-14.7C439.6,175.5,437.6,173.8,436,173.8L436,173.8z"/>
			<path class="st8" d="M234.3,414.6c5.2-6.9,6.1-15,2-18.1c-4.1-3.1-11.7-0.1-16.9,6.8c-5.2,6.9-6.1,15-2,18.1
				C221.5,424.5,229,421.5,234.3,414.6z"/>
			<path class="st0" d="M221.3,423c-1.5,0-2.9-0.4-4.1-1.3c-4.3-3.3-3.5-11.6,1.9-18.6c2.3-3.2,5.4-5.7,9-7.2
				c3.3-1.3,6.3-1.2,8.4,0.4c2.1,1.6,3.1,4.4,2.6,8c-0.6,3.9-2.1,7.5-4.6,10.6C230.7,420,225.5,423,221.3,423z M232.3,395.6
				c-1.4,0-2.7,0.3-4,0.9c-3.5,1.5-6.5,3.9-8.7,7c-5.1,6.7-6,14.6-2,17.6c4,3,11.3,0,16.3-6.7c2.4-3,3.9-6.5,4.4-10.3
				c0.4-3.3-0.5-5.9-2.4-7.3C234.9,396,233.6,395.6,232.3,395.6z"/>
			<path class="st0" d="M208.1,227.1V202c0,0-1,22-6.8,17.6C203.2,222.4,205.5,225,208.1,227.1z"/>
			<path class="st0" d="M406.3,276v127.2c0,16.2-0.6,24.5-8.4,32.1c-7.8,7.7-16.3,9-23.6,9L254.4,444c0,0,2.8,8.8,4.4,12.5
				c0,0,0.9-8.7,10.9-8.7c10,0,42.7,0.7,48.2,0.7c5.5,0,32.9-1.2,40.7-1.1c7.8,0.1,31.3,3.5,40.1-4.5c8.8-8,13.5-13.5,12.1-33.3
				c-1.3-19.8-1.5-101.6-1.5-107.9c0-6.3-0.1-18.8,4.3-16.1L406.3,276z"/>
			<path class="st0" d="M188,294.4c0,0,6.6,9.9,20.1,4.7l2.9,4.9c-2.3,1.3-4.9,2-7.6,2c-2.7,0-5.3-0.7-7.6-2
				C187.1,299.5,188,294.4,188,294.4z"/>
			<path class="st0" d="M225.1,426.2c-5.4-0.6-10.6-1.7-15.8-3.3l2,5l16.1,0.1L225.1,426.2z"/>
			<path class="st0" d="M195,355.3c0,0,7.3,6.9,12.9,7.9l0.2,4.7c0.9,1.4,2,2.6,3.3,3.6c-2.2-1-4.3-2.3-6.2-3.8
				c-3.9-2.9-11.7-13.1-18.2-10.5c1.7-0.8,3.5-1.4,5.3-1.6L195,355.3z"/>
			<path class="st7" d="M317.1,156.5h-24.9v22.1h24.9L317.1,156.5z"/>
			<path class="st226" d="M326.7,156.5h-9.5v22.1h9.5V156.5z"/>
			<path class="st19" d="M313.6,160h-17.9v8.3h17.9V160z"/>
			<path class="st19" d="M304.3,170.3h-8.6v0.8h8.6V170.3z"/>
			<path class="st19" d="M304.3,172.7h-8.6v0.8h8.6V172.7z"/>
		</g>
	</g>
</g>
<g id="Individuals_Page">
</g>
<g id="More">
</g>
<g id="Become_A_Courier">
</g>
<g id="About_us">
</g>
<g id="Contact_US">
</g>
<g id="Layer_13">
</g>
</svg>
