<?xml version="1.0" encoding="utf-8"?>
<!-- Generator: Adobe Illustrator 26.0.1, SVG Export Plug-In . SVG Version: 6.00 Build 0)  -->
<svg version="1.1" xmlns="http://www.w3.org/2000/svg" xmlns:xlink="http://www.w3.org/1999/xlink" x="0px" y="0px"
	 viewBox="0 0 849.8 500" style="enable-background:new 0 0 849.8 500;" xml:space="preserve">
<style type="text/css">
	.st0{fill:#131314;}
	.st1{fill:#F7F5DD;stroke:#131314;stroke-width:0.8581;stroke-miterlimit:10;}
	.st2{fill:#131314;stroke:#F7F5DD;stroke-width:0.3547;stroke-miterlimit:10;}
	.st3{fill:#FFC72B;stroke:#131314;stroke-width:0.8581;stroke-linecap:round;stroke-linejoin:round;stroke-miterlimit:10;}
	.st4{fill:none;stroke:#131314;stroke-width:0.8581;stroke-miterlimit:10;}
	.st5{fill:#131314;stroke:#F7F5DD;stroke-width:0.389;stroke-miterlimit:10;}
	.st6{fill:#FF0058;stroke:#131314;stroke-width:1.7191;stroke-miterlimit:10;}
	.st7{fill:#FFC72B;}
	.st8{fill:#F7F5DD;}
	.st9{fill:url(#SVGID_1_);}
	.st10{fill:#FFE092;}
	.st11{fill:#FF0058;}
	.st12{fill:#FFFFFF;filter:url(#Adobe_OpacityMaskFilter);}
	.st13{mask:url(#mask4_744_2018_00000183221484926765621670000012565967078459250105_);}
	.st14{fill:#FFC72B;stroke:#131314;stroke-width:0.8581;stroke-miterlimit:10;}
	.st15{fill:url(#SVGID_00000096766415457577179260000006197713386057743237_);}
	.st16{clip-path:url(#SVGID_00000034770178012436304810000005611278343808057243_);}
	.st17{fill:#FFC72C;stroke:#131314;stroke-width:0.1032;stroke-miterlimit:10;}
	.st18{clip-path:url(#SVGID_00000109717361361800873260000004570510096447757446_);}
	.st19{fill:#DD9F14;}
	.st20{fill:none;stroke:#131314;stroke-width:2;stroke-miterlimit:10;}
	.st21{clip-path:url(#SVGID_00000166675794497132715530000009473134776615612043_);}
	.st22{fill:#F7F5DD;stroke:#131314;stroke-miterlimit:10;}
	.st23{fill:#131314;stroke:#131314;stroke-miterlimit:10;}
	.st24{fill:#FF0058;stroke:#131314;stroke-miterlimit:10;}
	.st25{opacity:0.1;fill:url(#SVGID_00000105391456007912497030000010430837731943435934_);enable-background:new    ;}
	.st26{opacity:0.4;}
	.st27{fill:none;stroke:#131314;stroke-miterlimit:10;}
	.st28{fill:#FFC72C;}
	.st29{fill:none;stroke:#131314;stroke-width:0.931;stroke-miterlimit:10;}
	.st30{fill:url(#SVGID_00000170277268240830351940000014785699874565112978_);}
	.st31{clip-path:url(#SVGID_00000021831916470621730610000017082095056401329846_);}
	.st32{fill:none;stroke:#131314;stroke-width:0.7836;}
	.st33{fill:#FF0058;stroke:#131314;stroke-width:0.931;stroke-miterlimit:10;}
	.st34{opacity:0.78;fill:#FFFFFF;}
	.st35{fill:#F7F5DD;stroke:#131314;stroke-width:1.3965;stroke-miterlimit:10;}
	.st36{fill:#FFC72B;stroke:#131314;stroke-width:0.931;stroke-miterlimit:10;}
	.st37{fill:#E7B67B;}
	.st38{fill:#FFC72C;stroke:#231F20;stroke-width:0.3724;stroke-linecap:round;stroke-linejoin:round;}
	.st39{fill:none;stroke:#F7F5DD;stroke-width:1.862;stroke-linecap:round;stroke-linejoin:round;stroke-miterlimit:10;}
	.st40{fill:none;stroke:#F7F5DD;stroke-width:0.931;stroke-linecap:round;stroke-linejoin:round;stroke-miterlimit:10;}
	.st41{fill:none;stroke:#FF0058;stroke-width:0.931;stroke-miterlimit:10;}
	.st42{fill:none;stroke:#FF0058;stroke-width:0.931;stroke-linecap:round;stroke-linejoin:round;stroke-miterlimit:10;}
	.st43{fill:none;stroke:#131314;stroke-width:0.931;stroke-linecap:round;stroke-linejoin:round;stroke-miterlimit:10;}
	.st44{fill:none;stroke:#000000;stroke-width:0.931;stroke-miterlimit:10;}
	.st45{fill:none;}
	.st46{fill:#FFC72C;stroke:#000000;stroke-width:0.8449;stroke-miterlimit:10;}
	.st47{clip-path:url(#SVGID_00000119840442743142861710000016788145603610215611_);fill:#F4B821;}
	.st48{clip-path:url(#SVGID_00000119840442743142861710000016788145603610215611_);fill:#FF0058;}
	.st49{clip-path:url(#SVGID_00000132047366247989768710000006439976075844719492_);fill:#F4B821;}
	.st50{clip-path:url(#SVGID_00000132047366247989768710000006439976075844719492_);fill:#FF0058;}
	.st51{fill:#FE0058;}
	.st52{fill:#FFF8FB;}
	.st53{fill:#F7F5DD;stroke:#000000;stroke-width:1.2859;stroke-miterlimit:10;}
	.st54{fill:url(#SVGID_00000034810038328321907940000012745298428565417617_);}
	.st55{clip-path:url(#SVGID_00000103236790069311388270000015118512567420001982_);}
	.st56{fill:none;stroke:#131314;stroke-width:1.4798;}
	.st57{fill:#FFC72B;stroke:#131314;stroke-width:1.0065;stroke-miterlimit:10;}
	.st58{fill:#DD225C;}
	.st59{fill:#67300F;}
	.st60{fill:#FFC72C;stroke:#231F20;stroke-width:0.4026;stroke-linecap:round;stroke-linejoin:round;}
	.st61{fill:#FFB703;}
	.st62{clip-path:url(#SVGID_00000159454481019920693500000001622753266221475999_);}
	.st63{fill:url(#SVGID_00000071548811322743105040000006998204704096075923_);}
	.st64{clip-path:url(#SVGID_00000142854565899662399740000015599519395132599940_);}
	.st65{fill:none;stroke:#131314;stroke-width:1.5895;}
	.st66{fill:#FFFFFF;filter:url(#Adobe_OpacityMaskFilter_00000174586178633740053860000013496390569975366074_);}
	.st67{mask:url(#mask4_744_2018_00000150814286955539578320000013805391622432084355_);}
	.st68{fill:#FFC72B;stroke:#131314;stroke-width:0.97;stroke-miterlimit:10;}
	.st69{fill:url(#SVGID_00000036240155836509275810000005444840780560888766_);}
	.st70{clip-path:url(#SVGID_00000165928996292103923390000008364908934880600204_);}
	.st71{fill:#FFC72C;stroke:#131314;stroke-width:0.1166;stroke-miterlimit:10;}
	.st72{opacity:0.14;clip-path:url(#XMLID_00000147205919398793866930000012314312659461806008_);fill:#F7F5DD;}
	.st73{opacity:0.14;clip-path:url(#XMLID_00000056408518765020936650000008322355750252589499_);fill:#F7F5DD;}
	.st74{opacity:0.14;clip-path:url(#XMLID_00000128445627497784462720000001767666631120082349_);fill:#F7F5DD;}
	.st75{fill:none;stroke:#131314;stroke-width:0.7289;stroke-miterlimit:10;}
	.st76{fill-rule:evenodd;clip-rule:evenodd;fill:#F7F5DD;stroke:#231F20;stroke-width:0.5758;stroke-miterlimit:10;}
	.st77{fill:#FFC72C;stroke:#231F20;stroke-width:0.2915;stroke-linecap:round;stroke-linejoin:round;}
	.st78{fill:#EBD8D1;}
	.st79{fill:#FFC72B;stroke:#131314;stroke-width:0.7289;stroke-miterlimit:10;}
	.st80{fill:#FFC72B;stroke:#131314;stroke-width:1.0933;stroke-miterlimit:10;}
	.st81{fill:#FDBAA7;}
	.st82{fill:#F7F5DD;stroke:#131314;stroke-width:0.7289;stroke-miterlimit:10;}
	.st83{opacity:0.5;fill:#FCC0B1;}
	.st84{fill:#F7F5DD;stroke:#131314;stroke-width:1.0933;stroke-miterlimit:10;}
	.st85{fill:#843636;}
	.st86{opacity:0.7;}
	.st87{fill:#853536;}
	.st88{fill:#E0A9A0;}
	.st89{fill:none;stroke:#F7F5DD;stroke-width:1.4577;stroke-linecap:round;stroke-linejoin:round;stroke-miterlimit:10;}
	.st90{fill:none;stroke:#F7F5DD;stroke-width:0.7289;stroke-linecap:round;stroke-linejoin:round;stroke-miterlimit:10;}
	.st91{fill:none;stroke:#FF0058;stroke-width:0.7289;stroke-miterlimit:10;}
	.st92{fill:none;stroke:#FF0058;stroke-width:0.7289;stroke-linecap:round;stroke-linejoin:round;stroke-miterlimit:10;}
	.st93{fill:none;stroke:#131314;stroke-width:0.7289;stroke-linecap:round;stroke-linejoin:round;stroke-miterlimit:10;}
	.st94{fill:none;stroke:#000000;stroke-width:0.7289;stroke-miterlimit:10;}
	.st95{opacity:0.6;fill:#F7F5DD;enable-background:new    ;}
	.st96{opacity:0.4;fill:#F7F5DD;enable-background:new    ;}
	.st97{opacity:0.2;fill:#F7F5DD;enable-background:new    ;}
	.st98{fill:#F7F5DD;stroke:#131314;stroke-width:1.0398;stroke-miterlimit:10;}
	.st99{fill:url(#SVGID_00000033327994002335686120000017342725878660217992_);}
	.st100{clip-path:url(#SVGID_00000015354019359260845920000015035585479195836567_);}
	.st101{fill:none;stroke:#131314;stroke-width:1.396;}
	.st102{fill:#FFFFFF;stroke:#070405;stroke-width:1.0001;stroke-miterlimit:10;}
	.st103{fill:#FE0058;stroke:#000000;stroke-width:1.0001;stroke-miterlimit:10;}
	.st104{fill:#131314;stroke:#070405;stroke-width:1.0001;stroke-miterlimit:10;}
	.st105{fill:#F7F5DD;stroke:#070506;stroke-width:1.0001;stroke-miterlimit:10;}
	.st106{fill:#F7F5DD;stroke:#000000;stroke-width:1.0001;stroke-miterlimit:10;}
	.st107{fill:#131313;}
	.st108{fill:#101431;stroke:#0C0609;stroke-width:1.0001;stroke-miterlimit:10;}
	.st109{fill:#171F42;stroke:#0C0609;stroke-width:1.0001;stroke-miterlimit:10;}
	.st110{fill:none;stroke:#131314;stroke-width:1.63;stroke-linecap:round;stroke-linejoin:round;stroke-dasharray:10.2907,8.5737;}
	.st111{fill:#FFC72C;stroke:#131314;stroke-width:0.815;stroke-linecap:round;stroke-linejoin:round;stroke-miterlimit:10;}
	.st112{fill:#FFC72C;stroke:#131314;stroke-width:0.815;stroke-linecap:round;stroke-linejoin:round;}
	.st113{fill:none;stroke:#131314;stroke-width:0.9454;stroke-linecap:round;stroke-miterlimit:10;}
	.st114{fill:url(#SVGID_00000166666334117205846720000006017062520925326504_);}
	.st115{fill:#F7F5DD;stroke:#131314;stroke-width:1.0867;stroke-linecap:round;stroke-linejoin:round;stroke-miterlimit:10;}
	.st116{fill:none;stroke:#131314;stroke-width:1.0867;stroke-linecap:round;stroke-linejoin:round;stroke-miterlimit:10;}
	.st117{fill:#F7F5DD;stroke:#131314;stroke-width:2.0758;stroke-linecap:round;stroke-linejoin:round;stroke-miterlimit:10;}
	.st118{fill:none;stroke:#131314;stroke-width:2.0758;stroke-linecap:round;stroke-linejoin:round;stroke-miterlimit:10;}
	.st119{fill:#FFC72C;stroke:#131314;stroke-width:0.5341;stroke-linecap:round;stroke-linejoin:round;stroke-miterlimit:10;}
	.st120{fill:#FFC72C;stroke:#131314;stroke-width:0.5341;stroke-linecap:round;stroke-linejoin:round;}
	.st121{fill:none;stroke:#131314;stroke-width:0.6195;stroke-linecap:round;stroke-miterlimit:10;}
	.st122{fill:#FFFFFF;filter:url(#Adobe_OpacityMaskFilter_00000088124373231536597260000001944106074662417573_);}
	.st123{mask:url(#mask0_472_749_00000067936524425341381020000013690141856301607846_);}
	.st124{fill:#FFC72B;stroke:#000000;stroke-width:0.7607;stroke-miterlimit:10;}
	.st125{fill:none;stroke:#FF0058;stroke-width:3.26;stroke-linecap:round;stroke-linejoin:round;}
	.st126{fill:url(#SVGID_00000146493604004257739470000004531204315350907309_);}
	.st127{fill:#FFC72C;stroke:#131314;stroke-width:9.798834e-02;stroke-miterlimit:10;}
	.st128{fill:#F7F5DD;stroke:#131314;stroke-width:0.8499;stroke-miterlimit:10;}
	.st129{fill:url(#SVGID_00000121264501481903009470000017268873660517808570_);}
	.st130{clip-path:url(#SVGID_00000041262219032386570810000008777581007655505082_);}
	.st131{fill:none;stroke:#131314;stroke-width:0.1586;}
	.st132{fill:#F7F5DD;stroke:#000000;stroke-width:0.1379;stroke-miterlimit:10;}
	.st133{fill:#FFC72B;stroke:#131314;stroke-width:0.1079;stroke-miterlimit:10;}
	
		.st134{fill-rule:evenodd;clip-rule:evenodd;fill:#F7F5DD;stroke:#131314;stroke-width:0.6316;stroke-linecap:round;stroke-linejoin:round;stroke-miterlimit:10;}
	.st135{fill:#FE0058;stroke:#131314;stroke-width:0.6316;stroke-linecap:round;stroke-linejoin:round;stroke-miterlimit:10;}
	.st136{fill:#F7F5DD;stroke:#131314;stroke-width:0.6316;stroke-linecap:round;stroke-linejoin:round;stroke-miterlimit:10;}
	.st137{fill:#FFC72B;stroke:#131314;stroke-width:0.8499;stroke-miterlimit:10;}
	.st138{opacity:0.5;}
	.st139{clip-path:url(#SVGID_00000051344800797527537740000014389193694528006835_);}
	.st140{fill:#CCCCCC;}
	.st141{fill:#FFC608;stroke:#131314;stroke-width:0.6316;stroke-linecap:round;stroke-linejoin:round;stroke-miterlimit:10;}
	.st142{fill:#79C9E2;}
	.st143{fill:#62B8CC;}
	.st144{fill:#D9E1EE;}
	.st145{fill:none;stroke:#FFFFFF;stroke-width:0.4753;stroke-miterlimit:10;}
	.st146{fill:#E48D34;}
	.st147{fill:#EAA05C;}
	.st148{fill:#D17A2B;}
	.st149{fill:#F5B376;}
	.st150{fill:#F5BE2D;}
	.st151{fill:#F4E081;}
	.st152{fill:#F2A101;}
	.st153{fill:#F7CF4C;}
	.st154{fill:#DE8E06;}
	.st155{fill:#05C954;}
	.st156{fill:#E21E36;}
	.st157{fill:#D4101E;}
	.st158{fill:#00AF47;}
	.st159{fill:#FFE164;}
	.st160{fill:#FFFAA6;}
	.st161{fill:#43B572;}
	.st162{fill:#FFC72C;stroke:#231F20;stroke-width:0.1377;stroke-linecap:round;stroke-linejoin:round;}
	.st163{fill:#FED0B8;}
	.st164{fill:#F7F5DD;stroke:#131314;stroke-width:0.6605;stroke-linecap:round;stroke-linejoin:round;stroke-miterlimit:10;}
	.st165{fill:#FFC608;stroke:#131314;stroke-width:0.6234;stroke-miterlimit:10;}
	.st166{fill:#FFC608;stroke:#131314;stroke-width:0.5155;stroke-miterlimit:10;}
	.st167{fill:none;stroke:#131314;stroke-width:1.1332;stroke-linecap:round;stroke-linejoin:round;stroke-dasharray:22.665,22.665;}
	.st168{fill:#FFC72C;stroke:#231F20;stroke-width:4.938446e-02;stroke-linecap:round;stroke-linejoin:round;}
	.st169{fill:url(#SVGID_00000044149192822469586440000013589459722579617952_);}
	.st170{clip-path:url(#SVGID_00000054984579102012628430000012924756692015532712_);}
	.st171{fill:#FFC72C;stroke:#131314;stroke-width:7.223932e-02;stroke-miterlimit:10;}
	.st172{fill:url(#SVGID_00000134210365960410718510000008546776671659084218_);}
	.st173{fill:#131314;stroke:#F7F5DD;stroke-width:0.1911;stroke-miterlimit:10;}
	.st174{fill:#F7F5DD;stroke:#131314;stroke-width:0.9245;stroke-miterlimit:10;}
	.st175{fill:none;stroke:#131314;stroke-width:0.9245;stroke-miterlimit:10;}
	.st176{fill:#131314;stroke:#F7F5DD;stroke-width:0.2096;stroke-miterlimit:10;}
	.st177{fill:#FF0058;stroke:#131314;stroke-width:0.9245;stroke-miterlimit:10;}
	.st178{fill:#232020;}
	.st179{fill:#F7F5DD;stroke:#231F20;stroke-width:0.9245;stroke-miterlimit:10;}
	.st180{fill:#FCF4EC;}
	.st181{fill:#CD950C;}
	.st182{fill:none;stroke:#FFFFFF;stroke-width:0.5769;stroke-miterlimit:10;}
	.st183{fill:#FFC72C;stroke:#131314;stroke-width:0.8286;stroke-miterlimit:10;}
	.st184{fill:#FFC72C;stroke:#131314;stroke-width:0.8286;stroke-linecap:round;stroke-linejoin:round;}
	.st185{clip-path:url(#SVGID_00000152241353076851119750000017688756681029105596_);}
	.st186{fill:url(#SVGID_00000078019520734659129140000003136512803883394733_);}
	.st187{clip-path:url(#SVGID_00000147194506303699284310000016867441026412406717_);}
	.st188{fill:none;stroke:#131314;stroke-width:1.5284;}
	.st189{fill:#FFFFFF;filter:url(#Adobe_OpacityMaskFilter_00000044894058925385351510000008429528854772251018_);}
	.st190{mask:url(#mask4_744_2018_00000067229330011245605510000014511519346254753932_);}
	.st191{fill:#FFC72B;stroke:#131314;stroke-width:0.9327;stroke-miterlimit:10;}
	.st192{fill-rule:evenodd;clip-rule:evenodd;fill:#F7F5DD;stroke:#131314;stroke-width:0.2707;stroke-miterlimit:10;}
	.st193{fill-rule:evenodd;clip-rule:evenodd;fill:#F9CC3D;}
	.st194{fill-rule:evenodd;clip-rule:evenodd;fill:#FE0058;}
	.st195{fill:#EDBA29;}
	.st196{fill-rule:evenodd;clip-rule:evenodd;fill:#98DFFF;}
	.st197{fill:#29ABE2;}
	.st198{fill-rule:evenodd;clip-rule:evenodd;fill:#FFC72C;stroke:#131314;stroke-width:0.2707;stroke-miterlimit:10;}
	.st199{fill-rule:evenodd;clip-rule:evenodd;fill:#F7F5DD;stroke:#131314;stroke-width:0.1083;stroke-miterlimit:10;}
	.st200{fill-rule:evenodd;clip-rule:evenodd;fill:#FE0058;stroke:#131314;stroke-width:0.1083;stroke-miterlimit:10;}
	.st201{fill:#B3B3B3;}
	.st202{fill:#FFC72C;stroke:#231F20;stroke-width:0.4332;stroke-linecap:round;stroke-linejoin:round;}
	.st203{fill:#FFC84A;}
	.st204{fill:#FF0058;stroke:#131314;stroke-width:1.2117;stroke-miterlimit:10;}
	.st205{fill:#F7F5DD;stroke:#131314;stroke-width:0.9088;stroke-miterlimit:10;}
	.st206{fill:#FFC72B;stroke:#131314;stroke-width:0.9088;stroke-miterlimit:10;}
	.st207{fill:url(#SVGID_00000136389161917107483890000014317745789895763860_);}
	.st208{fill:#FFC72B;stroke:#000000;stroke-width:0.8482;stroke-miterlimit:10;}
	.st209{font-family:'BCNovaticaCYR-Medium';}
	.st210{font-size:11.0417px;}
	.st211{font-size:8.7114px;}
	.st212{fill:none;stroke:#F7F5DD;stroke-width:1.4089;stroke-linecap:round;stroke-linejoin:round;stroke-miterlimit:10;}
	.st213{fill:none;stroke:#131314;stroke-width:0.7045;stroke-miterlimit:10;}
	.st214{font-size:7.0342px;}
	.st215{fill:none;stroke:#F7F5DD;stroke-width:0.7045;stroke-linecap:round;stroke-linejoin:round;stroke-miterlimit:10;}
	.st216{fill:none;stroke:#FF0058;stroke-width:0.7045;stroke-miterlimit:10;}
	.st217{fill:none;stroke:#FF0058;stroke-width:0.7045;stroke-linecap:round;stroke-linejoin:round;stroke-miterlimit:10;}
	.st218{fill:none;stroke:#131314;stroke-width:0.7045;stroke-linecap:round;stroke-linejoin:round;stroke-miterlimit:10;}
	.st219{font-family:'BCNovaticaCYR-Regular';}
	.st220{font-size:5.5087px;}
	.st221{fill:none;stroke:#000000;stroke-width:0.7045;stroke-miterlimit:10;}
	.st222{font-size:9.1837px;}
	.st223{fill:none;stroke:#131314;stroke-width:0.8062;stroke-miterlimit:10;}
	.st224{font-size:8.0503px;}
	.st225{clip-path:url(#SVGID_00000052066792630316148080000006850325103509128122_);}
	.st226{fill:url(#SVGID_00000034811291218548870460000001644005787592653497_);}
	.st227{clip-path:url(#SVGID_00000024686675320032813150000006548444455351986609_);}
	.st228{fill:none;stroke:#131314;stroke-width:1.7355;}
	.st229{fill:#F7F5DD;stroke:#131314;stroke-width:1.2641;stroke-miterlimit:10;}
	.st230{fill:#FFC608;stroke:#0C0609;stroke-width:0.9481;stroke-miterlimit:10;}
	.st231{fill:#FFC72B;stroke:#131314;stroke-width:1.2641;stroke-miterlimit:10;}
	.st232{fill:#FFC72B;stroke:#131314;stroke-width:0.9481;stroke-miterlimit:10;}
	.st233{clip-path:url(#SVGID_00000091016014865692506830000015858260227956168632_);}
	.st234{fill:#F4B821;}
	.st235{fill:#C69560;}
	.st236{fill:#F7F5DD;stroke:#131314;stroke-width:1.2993;stroke-miterlimit:10;}
	.st237{fill:#131314;stroke:#F7F5DD;stroke-width:0.2685;stroke-miterlimit:10;}
	.st238{fill:#FFC72B;stroke:#131314;stroke-width:1.2993;stroke-miterlimit:10;}
	.st239{fill:none;stroke:#131314;stroke-width:1.2993;stroke-miterlimit:10;}
	.st240{fill:#131314;stroke:#F7F5DD;stroke-width:0.2945;stroke-miterlimit:10;}
	.st241{fill:#FF0058;stroke:#131314;stroke-width:1.2993;stroke-miterlimit:10;}
	.st242{fill:#FFFFFF;filter:url(#Adobe_OpacityMaskFilter_00000008847397007422755670000001360879961933338756_);}
	.st243{mask:url(#mask0_479_11673_00000099644528304487065730000005320813079396614829_);}
	.st244{fill:#FFC72B;stroke:#000000;stroke-width:0.6063;stroke-miterlimit:10;}
	.st245{fill:url(#SVGID_00000116956327040581756850000003372196662759441550_);}
	.st246{fill:#FFFFFF;filter:url(#Adobe_OpacityMaskFilter_00000143583040038075056060000011027553446970687415_);}
	.st247{mask:url(#mask0_472_749_00000032621048777137593190000003031189513109940632_);}
	.st248{fill:url(#SVGID_00000054944615620750264190000001622473863421654191_);}
	.st249{fill:url(#SVGID_00000156568618641477502440000012104037843185957255_);}
	.st250{clip-path:url(#SVGID_00000129181845065904967690000002404448809083867531_);}
	.st251{fill:none;stroke:#131314;stroke-width:1.793;}
	.st252{fill:#F7F5DD;stroke:#000000;stroke-width:1.4856;stroke-miterlimit:10;}
	.st253{fill:#FFC72B;stroke:#131314;stroke-width:1.1628;stroke-miterlimit:10;}
	.st254{fill:#F7F5DD;stroke:#131314;stroke-width:1.306;stroke-miterlimit:10;}
	.st255{fill:none;stroke:#131314;stroke-width:1.2653;stroke-miterlimit:10;}
	.st256{fill:#FFC72C;stroke:#131314;stroke-width:0.9795;stroke-miterlimit:10;}
	.st257{fill:#FFC72C;stroke:#131314;stroke-width:0.9795;stroke-linecap:round;stroke-linejoin:round;stroke-miterlimit:10;}
	.st258{fill:#FFFFFF;}
	.st259{fill:#F7F5DD;stroke:#000000;stroke-width:0.4697;stroke-miterlimit:10;}
	.st260{fill:#FFC046;}
	.st261{fill:none;stroke:#131314;stroke-width:0.8612;stroke-linecap:round;stroke-linejoin:round;stroke-miterlimit:10;}
	.st262{fill:none;stroke:#FFFFFF;stroke-width:0.8612;stroke-linecap:round;stroke-linejoin:round;stroke-miterlimit:10;}
	.st263{fill:none;stroke:#F7F5DD;stroke-width:0.4697;stroke-miterlimit:10;}
	.st264{fill:#F7F5DD;stroke:#070506;stroke-width:0.5202;stroke-miterlimit:10;}
	.st265{fill:#F7F5DD;stroke:#000000;stroke-width:0.5202;stroke-miterlimit:10;}
	.st266{fill:#FE0058;stroke:#000000;stroke-width:0.5202;stroke-miterlimit:10;}
	.st267{fill:none;stroke:#F7F5DD;stroke-width:0.8612;stroke-linecap:round;stroke-linejoin:round;stroke-miterlimit:10;}
	.st268{fill:none;stroke:#1A2E35;stroke-width:0.8612;stroke-linecap:round;stroke-linejoin:round;stroke-miterlimit:10;}
</style>
<g id="Layer_1">
</g>
<g id="Home">
</g>
<g id="Restaurants">
</g>
<g id="Grocery">
</g>
<g id="Pharmacy__x26__Meds">
</g>
<g id="Gifts">
	<g>
		<g>
			<g>
				<g>
					<g>
						<g>
							<g>
								<path class="st7" d="M813.1,0.5H640.6c-19.9,0-36.2,16.3-36.2,36.2v424.8c0,19.9,16.3,36.2,36.2,36.2h172.5
									c19.9,0,36.2-16.3,36.2-36.2V36.7C849.3,16.8,833,0.5,813.1,0.5z"/>
								<path class="st0" d="M813.1,498.2H640.6c-20.2,0-36.7-16.5-36.7-36.7V36.7c0-20.2,16.5-36.7,36.7-36.7h172.5
									c20.2,0,36.7,16.5,36.7,36.7v424.8C849.8,481.7,833.3,498.2,813.1,498.2z M640.6,1c-19.7,0-35.7,16-35.7,35.7v424.8
									c0,19.7,16,35.7,35.7,35.7h172.5c19.7,0,35.7-16,35.7-35.7V36.7c0-19.7-16-35.7-35.7-35.7H640.6z"/>
							</g>
							<path class="st8" d="M638.7,9.7c-14.1,0-25.5,11.6-25.5,26v417.8c0,14.3,11.5,26,25.5,26h176.1c14.1,0,25.5-11.6,25.5-26
								V35.7c0-14.3-11.5-26-25.5-26H638.7z"/>
							<path class="st45" d="M814.9,9.2h-22.3H791H662.6h-3.8h-20.1c-14.3,0-26,11.9-26,26.5v417.8c0,14.6,11.7,26.5,26,26.5h176.1
								c14.3,0,26-11.9,26-26.5V35.7C840.9,21.1,829.2,9.2,814.9,9.2z"/>
							<path class="st0" d="M814.9,480.5H638.7c-14.6,0-26.5-12.1-26.5-26.9V35.7c0-14.9,11.9-26.9,26.5-26.9h176.1
								c14.6,0,26.5,12.1,26.5,26.9v417.8C841.4,468.4,829.5,480.5,814.9,480.5z M638.7,9.7c-14.1,0-25.5,11.6-25.5,26v417.8
								c0,14.3,11.5,26,25.5,26h176.1c14.1,0,25.5-11.6,25.5-26V35.7c0-14.3-11.5-26-25.5-26H638.7z"/>
							<path class="st45" d="M814.9,9.2h-22.3H791H662.6h-3.8h-20.1c-14.3,0-26,11.9-26,26.5v417.8c0,14.6,11.7,26.5,26,26.5h176.1
								c14.3,0,26-11.9,26-26.5V35.7C840.9,21.1,829.2,9.2,814.9,9.2z"/>
							<g>
								<path class="st45" d="M729.6,497.7h-10.6c-63,0-114.6-51.6-114.6-114.6V77.4c0-42.3,34.6-76.9,76.9-76.9h90.1
									c42.8,0,77.9,35,77.9,77.9V378C849.3,443.9,795.4,497.7,729.6,497.7z"/>
							</g>
							<g>
								<g>
									<g>
										<path class="st0" d="M631.2,29.1v-0.8c0.4,0,0.6,0,0.8-0.1c0.2-0.1,0.4-0.2,0.6-0.3c0.1-0.1,0.2-0.2,0.2-0.4
											c0-0.1,0-0.2,0-0.2l1,0v5.9h-1.2v-4.1L631.2,29.1z"/>
									</g>
									<g>
										<path class="st0" d="M635.4,29.1v-0.8c0.4,0,0.6,0,0.8-0.1c0.2-0.1,0.4-0.2,0.6-0.3c0.1-0.1,0.2-0.2,0.2-0.4
											c0-0.1,0-0.2,0-0.2l1,0v5.9h-1.2v-4.1H635.4z"/>
									</g>
									<g>
										<path class="st0" d="M640.4,28.9h1.2v1.2h-1.2V28.9z M640.4,32h1.2v1.2h-1.2V32z"/>
									</g>
									<g>
										<path class="st0" d="M642.8,29.1v-0.8c0.4,0,0.6,0,0.8-0.1c0.2-0.1,0.4-0.2,0.6-0.3c0.1-0.1,0.2-0.2,0.2-0.4
											c0-0.1,0-0.2,0-0.2l1,0v5.9h-1.2v-4.1H642.8z"/>
									</g>
									<g>
										<path class="st0" d="M646.9,29.1v-0.8c0.4,0,0.6,0,0.8-0.1c0.2-0.1,0.4-0.2,0.6-0.3c0.1-0.1,0.2-0.2,0.2-0.4
											c0-0.1,0-0.2,0-0.2l1,0v5.9h-1.2v-4.1L646.9,29.1z"/>
									</g>
								</g>
								<g>
									<g>
										<path class="st0" d="M785.6,33.8h-1.1c-0.2,0-0.3-0.1-0.3-0.3v-1.6c0-0.2,0.1-0.3,0.3-0.3h1.1c0.2,0,0.3,0.1,0.3,0.3v1.6
											C785.9,33.6,785.8,33.8,785.6,33.8z"/>
									</g>
									<g>
										<path class="st0" d="M788.4,33.8h-1.1c-0.2,0-0.3-0.1-0.3-0.3v-2.9c0-0.2,0.1-0.3,0.3-0.3h1.1c0.2,0,0.3,0.1,0.3,0.3v2.9
											C788.7,33.6,788.5,33.8,788.4,33.8z"/>
									</g>
									<g>
										<path class="st0" d="M791.1,33.8H790c-0.2,0-0.3-0.1-0.3-0.3v-4.2c0-0.2,0.1-0.3,0.3-0.3h1.1c0.2,0,0.3,0.1,0.3,0.3v4.2
											C791.4,33.6,791.3,33.8,791.1,33.8z"/>
									</g>
									<g>
										<path class="st0" d="M793.9,33.8h-1.1c-0.2,0-0.3-0.1-0.3-0.3V28c0-0.2,0.1-0.3,0.3-0.3h1.1c0.2,0,0.3,0.1,0.3,0.3v5.5
											C794.2,33.6,794.1,33.8,793.9,33.8z"/>
									</g>
								</g>
								<g>
									<path class="st0" d="M802.9,32.6c0,0.6-0.5,1-1,1s-1-0.5-1-1c0-0.6,0.5-1,1-1S802.9,32.1,802.9,32.6z"/>
								</g>
								<g>
									<g>
										<path class="st0" d="M803.8,31.3c-0.2,0-0.3-0.1-0.4-0.2c-0.8-0.8-2.1-0.8-3,0c-0.2,0.2-0.6,0.2-0.9,0
											c-0.2-0.2-0.2-0.6,0-0.9c0.6-0.6,1.5-1,2.4-1s1.7,0.3,2.4,1c0.2,0.2,0.2,0.6,0,0.9C804.1,31.3,803.9,31.3,803.8,31.3z"/>
									</g>
								</g>
								<g>
									<g>
										<path class="st0" d="M805.4,29.7c-0.2,0-0.3-0.1-0.4-0.2c-1.7-1.7-4.5-1.7-6.2,0c-0.2,0.2-0.6,0.2-0.9,0
											c-0.2-0.2-0.2-0.6,0-0.9c2.2-2.2,5.8-2.2,7.9,0c0.2,0.2,0.2,0.6,0,0.9C805.7,29.7,805.6,29.7,805.4,29.7z"/>
									</g>
								</g>
								<g>
									<g>
										<path class="st0" d="M819.4,32.6h-7.2c-1,0-1.8-0.8-1.8-1.8v-0.6c0-1,0.8-1.8,1.8-1.8h7.2c1,0,1.8,0.8,1.8,1.8v0.6
											C821.3,31.8,820.5,32.6,819.4,32.6z"/>
									</g>
									<g>
										<path class="st0" d="M821.6,29.4L821.6,29.4l-0.1,2.2h0.1c0.4,0,0.8-0.3,0.8-0.8v-0.7C822.4,29.7,822,29.4,821.6,29.4z"/>
									</g>
								</g>
							</g>
						</g>
					</g>
				</g>
			</g>
			<g>
				<g>
					<g>
						<g>
							<path class="st8" d="M816.5,96.7H637.2c-6.1,0-11-4.9-11-11V63.6c0-6.1,4.9-11,11-11h179.3c6.1,0,11,4.9,11,11v22.1
								C827.5,91.8,822.5,96.7,816.5,96.7z"/>
						</g>
						<g>
							<path class="st0" d="M816.5,97.1H637.2c-6.3,0-11.4-5.1-11.4-11.4V63.6c0-6.3,5.1-11.4,11.4-11.4h179.3
								c6.3,0,11.4,5.1,11.4,11.4v22.1C827.8,92,822.7,97.1,816.5,97.1z M637.2,53c-5.8,0-10.6,4.8-10.6,10.6v22.1
								c0,5.8,4.8,10.6,10.6,10.6h179.3c5.8,0,10.6-4.8,10.6-10.6V63.6c0-5.8-4.8-10.6-10.6-10.6H637.2z"/>
						</g>
					</g>
					<g>
						<g>
							<g>
								<path class="st8" d="M669.2,70.5V79c0,1.6-1.3,2.9-2.8,2.9h-10.9c-1.6,0-2.8-1.3-2.8-2.9v-8.5c0-1.6,1.3-2.9,2.8-2.9h10.9
									C667.9,67.6,669.2,68.9,669.2,70.5z"/>
							</g>
							<g>
								<path class="st0" d="M666.4,82h-10.9c-1.6,0-3-1.4-3-3v-8.5c0-1.7,1.3-3,3-3h10.9c1.6,0,3,1.4,3,3V79
									C669.4,80.6,668,82,666.4,82z M655.4,67.7c-1.5,0-2.6,1.2-2.6,2.7V79c0,1.5,1.2,2.7,2.6,2.7h10.9c1.5,0,2.6-1.2,2.6-2.7
									v-8.5c0-1.5-1.2-2.7-2.6-2.7H655.4z"/>
							</g>
						</g>
						<g>
							<g>
								<path class="st28" d="M669.2,70.5v1.7h-16.6v-1.7c0-1.6,1.3-2.9,2.8-2.9h10.9C667.9,67.6,669.2,68.9,669.2,70.5z"/>
							</g>
							<g>
								<path class="st0" d="M669.4,72.4h-16.9v-1.9c0-1.7,1.3-3,3-3h10.9c1.6,0,3,1.4,3,3V72.4z M652.8,72H669v-1.6
									c0-1.5-1.2-2.7-2.6-2.7h-10.9c-1.5,0-2.6,1.2-2.6,2.7V72z"/>
							</g>
						</g>
						<g>
							<g>
								<path class="st28" d="M656.9,69.3L656.9,69.3c-0.6,0-1.1-0.5-1.1-1.1v-2c0-0.6,0.5-1.1,1.1-1.1h0c0.6,0,1.1,0.5,1.1,1.1v2
									C658,68.8,657.5,69.3,656.9,69.3z"/>
							</g>
							<g>
								<path class="st0" d="M656.9,69.4L656.9,69.4c-0.7,0-1.3-0.6-1.3-1.3v-2c0-0.7,0.6-1.3,1.3-1.3c0.7,0,1.3,0.6,1.3,1.3v2
									C658.2,68.9,657.6,69.4,656.9,69.4z M656.9,65.2c-0.5,0-0.9,0.4-0.9,0.9v2c0,0.5,0.4,0.9,0.9,0.9h0c0.5,0,0.9-0.4,0.9-0.9
									v-2C657.9,65.6,657.4,65.2,656.9,65.2z"/>
							</g>
						</g>
						<g>
							<g>
								<path class="st28" d="M665,69.3L665,69.3c-0.6,0-1.1-0.5-1.1-1.1v-2c0-0.6,0.5-1.1,1.1-1.1h0c0.6,0,1.1,0.5,1.1,1.1v2
									C666.1,68.8,665.6,69.3,665,69.3z"/>
							</g>
							<g>
								<path class="st0" d="M665,69.4L665,69.4c-0.7,0-1.3-0.6-1.3-1.3v-2c0-0.7,0.6-1.3,1.3-1.3c0.7,0,1.3,0.6,1.3,1.3v2
									C666.3,68.9,665.7,69.4,665,69.4z M665,65.2c-0.5,0-0.9,0.4-0.9,0.9v2c0,0.5,0.4,0.9,0.9,0.9h0c0.5,0,0.9-0.4,0.9-0.9v-2
									C665.9,65.6,665.5,65.2,665,65.2z"/>
							</g>
						</g>
						<g>
							<g>
								<g>
									<ellipse class="st28" cx="656.7" cy="75.1" rx="0.9" ry="0.9"/>
								</g>
								<g>
									<path class="st0" d="M656.7,76.2c-0.6,0-1.1-0.5-1.1-1.1c0-0.6,0.5-1.1,1.1-1.1s1.1,0.5,1.1,1.1
										C657.8,75.7,657.3,76.2,656.7,76.2z M656.7,74.3c-0.4,0-0.7,0.3-0.7,0.7c0,0.4,0.3,0.7,0.7,0.7c0.4,0,0.7-0.3,0.7-0.7
										C657.4,74.7,657.1,74.3,656.7,74.3z"/>
								</g>
							</g>
							<g>
								<g>
									<ellipse class="st28" cx="656.7" cy="78.5" rx="0.9" ry="0.9"/>
								</g>
								<g>
									<path class="st0" d="M656.7,79.5c-0.6,0-1.1-0.5-1.1-1.1c0-0.6,0.5-1.1,1.1-1.1s1.1,0.5,1.1,1.1
										C657.8,79.1,657.3,79.5,656.7,79.5z M656.7,77.7c-0.4,0-0.7,0.3-0.7,0.7c0,0.4,0.3,0.7,0.7,0.7c0.4,0,0.7-0.3,0.7-0.7
										C657.4,78.1,657.1,77.7,656.7,77.7z"/>
								</g>
							</g>
							<g>
								<g>
									<ellipse class="st28" cx="660.9" cy="75.1" rx="0.9" ry="0.9"/>
								</g>
								<g>
									<path class="st0" d="M660.9,76.2c-0.6,0-1.1-0.5-1.1-1.1c0-0.6,0.5-1.1,1.1-1.1s1.1,0.5,1.1,1.1
										C662,75.7,661.5,76.2,660.9,76.2z M660.9,74.3c-0.4,0-0.7,0.3-0.7,0.7c0,0.4,0.3,0.7,0.7,0.7c0.4,0,0.7-0.3,0.7-0.7
										C661.6,74.7,661.3,74.3,660.9,74.3z"/>
								</g>
							</g>
							<g>
								<g>
									<ellipse class="st28" cx="660.9" cy="78.5" rx="0.9" ry="0.9"/>
								</g>
								<g>
									<path class="st0" d="M660.9,79.5c-0.6,0-1.1-0.5-1.1-1.1c0-0.6,0.5-1.1,1.1-1.1s1.1,0.5,1.1,1.1
										C662,79.1,661.5,79.5,660.9,79.5z M660.9,77.7c-0.4,0-0.7,0.3-0.7,0.7c0,0.4,0.3,0.7,0.7,0.7c0.4,0,0.7-0.3,0.7-0.7
										C661.6,78.1,661.3,77.7,660.9,77.7z"/>
								</g>
							</g>
							<g>
								<g>
									<ellipse class="st28" cx="665" cy="75.1" rx="0.9" ry="0.9"/>
								</g>
								<g>
									<path class="st0" d="M665,76.2c-0.6,0-1.1-0.5-1.1-1.1c0-0.6,0.5-1.1,1.1-1.1s1.1,0.5,1.1,1.1
										C666.1,75.7,665.6,76.2,665,76.2z M665,74.3c-0.4,0-0.7,0.3-0.7,0.7c0,0.4,0.3,0.7,0.7,0.7c0.4,0,0.7-0.3,0.7-0.7
										C665.7,74.7,665.4,74.3,665,74.3z"/>
								</g>
							</g>
							<g>
								<g>
									<ellipse class="st28" cx="665" cy="78.5" rx="0.9" ry="0.9"/>
								</g>
								<g>
									<path class="st0" d="M665,79.5c-0.6,0-1.1-0.5-1.1-1.1c0-0.6,0.5-1.1,1.1-1.1s1.1,0.5,1.1,1.1
										C666.1,79.1,665.6,79.5,665,79.5z M665,77.7c-0.4,0-0.7,0.3-0.7,0.7c0,0.4,0.3,0.7,0.7,0.7c0.4,0,0.7-0.3,0.7-0.7
										C665.7,78.1,665.4,77.7,665,77.7z"/>
								</g>
							</g>
						</g>
					</g>
					<text transform="matrix(1 0 0 1 672.9316 79.3305)" class="st0 st209 st210">Create New Schedule</text>
				</g>
			</g>
			<g>
				<g>
					<g>
						<g>
							<g>
								<g>
									<path class="st8" d="M816.5,330.1H637.2c-6.1,0-11-4.9-11-11v-92.2c0-6.1,4.9-11,11-11h179.3c6.1,0,11,4.9,11,11v92.2
										C827.5,325.2,822.5,330.1,816.5,330.1z"/>
								</g>
								<g>
									<path class="st0" d="M816.5,330.5H637.2c-6.3,0-11.4-5.1-11.4-11.4v-92.2c0-6.3,5.1-11.4,11.4-11.4h179.3
										c6.3,0,11.4,5.1,11.4,11.4v92.2C827.8,325.4,822.7,330.5,816.5,330.5z M637.2,216.3c-5.8,0-10.6,4.8-10.6,10.6v92.2
										c0,5.8,4.8,10.6,10.6,10.6h179.3c5.8,0,10.6-4.8,10.6-10.6v-92.2c0-5.8-4.8-10.6-10.6-10.6H637.2z"/>
								</g>
							</g>
						</g>
					</g>
					<g>
						<g>
							<text transform="matrix(1 0 0 1 654.7256 233.8137)" class="st0 st209 st211">Monday 01 January 2024</text>
							<g>
								<path class="st11" d="M648.5,239.4h-9.2c-2,0-3.6-1.6-3.6-3.6v-9.2c0-2,1.6-3.6,3.6-3.6h9.2c2,0,3.6,1.6,3.6,3.6v9.2
									C652.1,237.8,650.5,239.4,648.5,239.4z"/>
								<polyline class="st212" points="640.3,231 643.1,233.8 649.4,227.6 								"/>
							</g>
						</g>
						<g>
							<path class="st213" d="M701.3,267.1H640c-2.4,0-4.3-1.9-4.3-4.3v-9.1c0-2.4,1.9-4.3,4.3-4.3h61.3c2.4,0,4.3,1.9,4.3,4.3v9.1
								C705.6,265.1,703.6,267.1,701.3,267.1z"/>
							<text transform="matrix(1 0 0 1 638.8984 261.0764)" class="st0 st209 st214">From HH:MM</text>
							<g>
								<circle class="st11" cx="696.3" cy="258.6" r="4.7"/>
								<polyline class="st215" points="696.3,255.2 696.3,258.6 698.7,261 								"/>
							</g>
						</g>
						<g>
							<path class="st213" d="M781.6,267.1h-61.3c-2.4,0-4.3-1.9-4.3-4.3v-9.1c0-2.4,1.9-4.3,4.3-4.3h61.3c2.4,0,4.3,1.9,4.3,4.3
								v9.1C785.9,265.1,783.9,267.1,781.6,267.1z"/>
							<text transform="matrix(1 0 0 1 719.1973 261.0764)" class="st0 st209 st214">From HH:MM</text>
							<g>
								<circle class="st11" cx="776.6" cy="258.6" r="4.7"/>
								<polyline class="st215" points="776.6,255.2 776.6,258.6 779,261 								"/>
							</g>
						</g>
						<g>
							<g>
								<path class="st216" d="M810.1,267.5h-9.5c-2.4,0-4.3-1.9-4.3-4.3V254c0-2.4,1.9-4.3,4.3-4.3h9.5c2.4,0,4.3,1.9,4.3,4.3v9.1
									C814.4,265.5,812.5,267.5,810.1,267.5z"/>
							</g>
							<path class="st217" d="M809.2,255.6v6c0,1.2-1,2.2-2.2,2.2h-3.3c-1.2,0-2.2-1-2.2-2.2v-6"/>
							<line class="st217" x1="801.5" y1="254" x2="809.2" y2="254"/>
							<path class="st216" d="M805.9,254h-1.3c-0.1,0-0.3-0.1-0.3-0.3v-1c0-0.1,0.1-0.3,0.3-0.3h1.3c0.1,0,0.3,0.1,0.3,0.3v1
								C806.1,253.9,806,254,805.9,254z"/>
						</g>
						<g>
							<path class="st213" d="M701.3,292.4H640c-2.4,0-4.3-1.9-4.3-4.3v-9.1c0-2.4,1.9-4.3,4.3-4.3h61.3c2.4,0,4.3,1.9,4.3,4.3v9.1
								C705.6,290.4,703.6,292.4,701.3,292.4z"/>
							<text transform="matrix(1 0 0 1 638.8984 286.3732)" class="st0 st209 st214">From HH:MM</text>
							<g>
								<circle class="st11" cx="696.3" cy="283.9" r="4.7"/>
								<polyline class="st215" points="696.3,280.5 696.3,283.9 698.7,286.3 								"/>
							</g>
						</g>
						<g>
							<path class="st213" d="M781.6,292.4h-61.3c-2.4,0-4.3-1.9-4.3-4.3v-9.1c0-2.4,1.9-4.3,4.3-4.3h61.3c2.4,0,4.3,1.9,4.3,4.3
								v9.1C785.9,290.4,783.9,292.4,781.6,292.4z"/>
							<text transform="matrix(1 0 0 1 719.1973 286.3732)" class="st0 st209 st214">From HH:MM</text>
							<g>
								<circle class="st11" cx="776.6" cy="283.9" r="4.7"/>
								<polyline class="st215" points="776.6,280.5 776.6,283.9 779,286.3 								"/>
							</g>
						</g>
						<g>
							<g>
								<path class="st216" d="M810.1,292.8h-9.5c-2.4,0-4.3-1.9-4.3-4.3v-9.1c0-2.4,1.9-4.3,4.3-4.3h9.5c2.4,0,4.3,1.9,4.3,4.3v9.1
									C814.4,290.8,812.5,292.8,810.1,292.8z"/>
							</g>
							<path class="st217" d="M809.2,280.9v6c0,1.2-1,2.2-2.2,2.2h-3.3c-1.2,0-2.2-1-2.2-2.2v-6"/>
							<line class="st217" x1="801.5" y1="279.3" x2="809.2" y2="279.3"/>
							<path class="st216" d="M805.9,279.3h-1.3c-0.1,0-0.3-0.1-0.3-0.3v-1c0-0.1,0.1-0.3,0.3-0.3h1.3c0.1,0,0.3,0.1,0.3,0.3v1
								C806.1,279.2,806,279.3,805.9,279.3z"/>
						</g>
						<g>
							<path class="st213" d="M701.3,317.7H640c-2.4,0-4.3-1.9-4.3-4.3v-9.1c0-2.4,1.9-4.3,4.3-4.3h61.3c2.4,0,4.3,1.9,4.3,4.3v9.1
								C705.6,315.7,703.6,317.7,701.3,317.7z"/>
							<text transform="matrix(1 0 0 1 638.8984 311.6701)" class="st0 st209 st214">From HH:MM</text>
							<g>
								<circle class="st11" cx="696.3" cy="309.2" r="4.7"/>
								<polyline class="st215" points="696.3,305.8 696.3,309.2 698.7,311.6 								"/>
							</g>
						</g>
						<g>
							<path class="st213" d="M781.6,317.7h-61.3c-2.4,0-4.3-1.9-4.3-4.3v-9.1c0-2.4,1.9-4.3,4.3-4.3h61.3c2.4,0,4.3,1.9,4.3,4.3
								v9.1C785.9,315.7,783.9,317.7,781.6,317.7z"/>
							<text transform="matrix(1 0 0 1 719.1973 311.6701)" class="st0 st209 st214">From HH:MM</text>
							<g>
								<circle class="st11" cx="776.6" cy="309.2" r="4.7"/>
								<polyline class="st215" points="776.6,305.8 776.6,309.2 779,311.6 								"/>
							</g>
						</g>
						<g>
							<g>
								<g>
									<path class="st7" d="M810.1,318.1h-9.5c-2.4,0-4.3-1.9-4.3-4.3v-9.1c0-2.4,1.9-4.3,4.3-4.3h9.5c2.4,0,4.3,1.9,4.3,4.3v9.1
										C814.4,316.1,812.5,318.1,810.1,318.1z"/>
								</g>
							</g>
							<line class="st218" x1="805.3" y1="305.8" x2="805.3" y2="312.6"/>
							<line class="st218" x1="808.7" y1="309.2" x2="801.9" y2="309.2"/>
						</g>
					</g>
				</g>
				<g>
					<text transform="matrix(1 0 0 1 767.7812 233.9577)" class="st219 st220">Paste</text>
					<path class="st221" d="M782.4,237.2h-14.2c-2.5,0-4.5-2-4.5-4.5v-1.3c0-2.5,2-4.5,4.5-4.5h14.2c2.5,0,4.5,2,4.5,4.5v1.3
						C786.9,235.2,784.9,237.2,782.4,237.2z"/>
					<path class="st7" d="M809.9,237.2h-14.2c-2.5,0-4.5-2-4.5-4.5v-1.3c0-2.5,2-4.5,4.5-4.5h14.2c2.5,0,4.5,2,4.5,4.5v1.3
						C814.4,235.2,812.4,237.2,809.9,237.2z"/>
					<text transform="matrix(1 0 0 1 795.2861 233.9577)" class="st219 st220">Paste</text>
				</g>
			</g>
			<g>
				<g>
					<g>
						<g>
							<g>
								<g>
									<path class="st8" d="M816.5,453.8H637.2c-6.1,0-11-4.9-11-11v-67c0-6.1,4.9-11,11-11h179.3c6.1,0,11,4.9,11,11v67
										C827.5,448.9,822.5,453.8,816.5,453.8z"/>
								</g>
								<g>
									<path class="st0" d="M816.5,454.2H637.2c-6.3,0-11.4-5.1-11.4-11.4v-67c0-6.3,5.1-11.4,11.4-11.4h179.3
										c6.3,0,11.4,5.1,11.4,11.4v67C827.8,449.1,822.7,454.2,816.5,454.2z M637.2,365.2c-5.8,0-10.6,4.8-10.6,10.6v67
										c0,5.8,4.8,10.6,10.6,10.6h179.3c5.8,0,10.6-4.8,10.6-10.6v-67c0-5.8-4.8-10.6-10.6-10.6H637.2z"/>
								</g>
							</g>
						</g>
					</g>
					<g>
						<g>
							<text transform="matrix(1 0 0 1 654.7256 382.7731)" class="st0 st209 st211">Tuesday 01 January 2024</text>
							<g>
								<path class="st11" d="M648.5,388.4h-9.2c-2,0-3.6-1.6-3.6-3.6v-9.2c0-2,1.6-3.6,3.6-3.6h9.2c2,0,3.6,1.6,3.6,3.6v9.2
									C652.1,386.8,650.5,388.4,648.5,388.4z"/>
								<polyline class="st212" points="640.3,380 643.1,382.8 649.4,376.6 								"/>
							</g>
						</g>
						<g>
							<path class="st213" d="M701.3,416H640c-2.4,0-4.3-1.9-4.3-4.3v-9.1c0-2.4,1.9-4.3,4.3-4.3h61.3c2.4,0,4.3,1.9,4.3,4.3v9.1
								C705.6,414.1,703.6,416,701.3,416z"/>
							<text transform="matrix(1 0 0 1 638.8984 410.0358)" class="st0 st209 st214">From HH:MM</text>
							<g>
								<circle class="st11" cx="696.3" cy="407.6" r="4.7"/>
								<polyline class="st215" points="696.3,404.1 696.3,407.6 698.7,410 								"/>
							</g>
						</g>
						<g>
							<path class="st213" d="M781.6,416h-61.3c-2.4,0-4.3-1.9-4.3-4.3v-9.1c0-2.4,1.9-4.3,4.3-4.3h61.3c2.4,0,4.3,1.9,4.3,4.3v9.1
								C785.9,414.1,783.9,416,781.6,416z"/>
							<text transform="matrix(1 0 0 1 719.1973 410.0358)" class="st0 st209 st214">From HH:MM</text>
							<g>
								<circle class="st11" cx="776.6" cy="407.6" r="4.7"/>
								<polyline class="st215" points="776.6,404.1 776.6,407.6 779,410 								"/>
							</g>
						</g>
						<g>
							<g>
								<path class="st216" d="M810.1,416.4h-9.5c-2.4,0-4.3-1.9-4.3-4.3V403c0-2.4,1.9-4.3,4.3-4.3h9.5c2.4,0,4.3,1.9,4.3,4.3v9.1
									C814.4,414.5,812.5,416.4,810.1,416.4z"/>
							</g>
							<path class="st217" d="M809.2,404.5v6c0,1.2-1,2.2-2.2,2.2h-3.3c-1.2,0-2.2-1-2.2-2.2v-6"/>
							<line class="st217" x1="801.5" y1="402.9" x2="809.2" y2="402.9"/>
							<path class="st216" d="M805.9,402.9h-1.3c-0.1,0-0.3-0.1-0.3-0.3v-1c0-0.1,0.1-0.3,0.3-0.3h1.3c0.1,0,0.3,0.1,0.3,0.3v1
								C806.1,402.8,806,402.9,805.9,402.9z"/>
						</g>
						<g>
							<path class="st213" d="M701.3,441.3H640c-2.4,0-4.3-1.9-4.3-4.3v-9.1c0-2.4,1.9-4.3,4.3-4.3h61.3c2.4,0,4.3,1.9,4.3,4.3v9.1
								C705.6,439.4,703.6,441.3,701.3,441.3z"/>
							<text transform="matrix(1 0 0 1 638.8984 435.3327)" class="st0 st209 st214">From HH:MM</text>
							<g>
								<circle class="st11" cx="696.3" cy="432.8" r="4.7"/>
								<polyline class="st215" points="696.3,429.4 696.3,432.8 698.7,435.3 								"/>
							</g>
						</g>
						<g>
							<path class="st213" d="M781.6,441.3h-61.3c-2.4,0-4.3-1.9-4.3-4.3v-9.1c0-2.4,1.9-4.3,4.3-4.3h61.3c2.4,0,4.3,1.9,4.3,4.3
								v9.1C785.9,439.4,783.9,441.3,781.6,441.3z"/>
							<text transform="matrix(1 0 0 1 719.1973 435.3327)" class="st0 st209 st214">From HH:MM</text>
							<g>
								<circle class="st11" cx="776.6" cy="432.8" r="4.7"/>
								<polyline class="st215" points="776.6,429.4 776.6,432.8 779,435.3 								"/>
							</g>
						</g>
						<g>
							<g>
								<g>
									<path class="st7" d="M810.1,441.7h-9.5c-2.4,0-4.3-1.9-4.3-4.3v-9.1c0-2.4,1.9-4.3,4.3-4.3h9.5c2.4,0,4.3,1.9,4.3,4.3v9.1
										C814.4,439.8,812.5,441.7,810.1,441.7z"/>
								</g>
							</g>
							<line class="st218" x1="805.3" y1="429.5" x2="805.3" y2="436.2"/>
							<line class="st218" x1="808.7" y1="432.8" x2="801.9" y2="432.8"/>
						</g>
					</g>
				</g>
				<g>
					<text transform="matrix(1 0 0 1 767.7812 382.9172)" class="st219 st220">Paste</text>
					<path class="st221" d="M782.4,386.2h-14.2c-2.5,0-4.5-2-4.5-4.5v-1.3c0-2.5,2-4.5,4.5-4.5h14.2c2.5,0,4.5,2,4.5,4.5v1.3
						C786.9,384.1,784.9,386.2,782.4,386.2z"/>
					<path class="st7" d="M809.9,386.2h-14.2c-2.5,0-4.5-2-4.5-4.5v-1.3c0-2.5,2-4.5,4.5-4.5h14.2c2.5,0,4.5,2,4.5,4.5v1.3
						C814.4,384.1,812.4,386.2,809.9,386.2z"/>
					<text transform="matrix(1 0 0 1 795.2861 382.9172)" class="st219 st220">Paste</text>
				</g>
			</g>
			<g>
				<g>
					<g>
						<g>
							<path class="st8" d="M816.5,181.2H637.2c-6.1,0-11-4.9-11-11v-27.7c0-6.1,4.9-11,11-11h179.3c6.1,0,11,4.9,11,11v27.7
								C827.5,176.2,822.5,181.2,816.5,181.2z"/>
						</g>
						<g>
							<path class="st0" d="M816.5,181.6H637.2c-6.3,0-11.4-5.1-11.4-11.4v-27.7c0-6.3,5.1-11.4,11.4-11.4h179.3
								c6.3,0,11.4,5.1,11.4,11.4v27.7C827.8,176.4,822.7,181.6,816.5,181.6z M637.2,131.8c-5.8,0-10.6,4.8-10.6,10.6v27.7
								c0,5.8,4.8,10.6,10.6,10.6h179.3c5.8,0,10.6-4.8,10.6-10.6v-27.7c0-5.8-4.8-10.6-10.6-10.6H637.2z"/>
						</g>
					</g>
				</g>
				<g>
					<text transform="matrix(1 0 0 1 642.8057 146.2892)" class="st0 st209 st222">Start Date</text>
					<path class="st223" d="M714.2,171.5H644c-2.7,0-4.9-2.2-4.9-4.9v-10.5c0-2.7,2.2-4.9,4.9-4.9h70.1c2.7,0,4.9,2.2,4.9,4.9v10.5
						C719.1,169.3,716.9,171.5,714.2,171.5z"/>
					<g>
						<g>
							<g>
								<path class="st8" d="M713.5,159.8v5.1c0,1-0.8,1.7-1.7,1.7h-6.6c-0.9,0-1.7-0.8-1.7-1.7v-5.1c0-1,0.8-1.7,1.7-1.7h6.6
									C712.8,158,713.5,158.8,713.5,159.8z"/>
							</g>
							<g>
								<path class="st0" d="M711.8,166.7h-6.6c-1,0-1.8-0.8-1.8-1.8v-5.1c0-1,0.8-1.8,1.8-1.8h6.6c1,0,1.8,0.8,1.8,1.8v5.1
									C713.6,165.9,712.8,166.7,711.8,166.7z M705.3,158.1c-0.9,0-1.6,0.7-1.6,1.6v5.1c0,0.9,0.7,1.6,1.6,1.6h6.6
									c0.9,0,1.6-0.7,1.6-1.6v-5.1c0-0.9-0.7-1.6-1.6-1.6H705.3z"/>
							</g>
						</g>
						<g>
							<g>
								<path class="st28" d="M713.5,159.8v1h-10v-1c0-1,0.8-1.7,1.7-1.7h6.6C712.8,158,713.5,158.8,713.5,159.8z"/>
							</g>
							<g>
								<path class="st0" d="M713.6,160.9h-10.2v-1.1c0-1,0.8-1.8,1.8-1.8h6.6c1,0,1.8,0.8,1.8,1.8V160.9z M703.7,160.7h9.8v-0.9
									c0-0.9-0.7-1.6-1.6-1.6h-6.6c-0.9,0-1.6,0.7-1.6,1.6V160.7z"/>
							</g>
						</g>
						<g>
							<g>
								<path class="st28" d="M706.2,159.1L706.2,159.1c-0.4,0-0.7-0.3-0.7-0.7v-1.2c0-0.4,0.3-0.7,0.7-0.7h0c0.4,0,0.7,0.3,0.7,0.7
									v1.2C706.8,158.8,706.5,159.1,706.2,159.1z"/>
							</g>
							<g>
								<path class="st0" d="M706.2,159.2L706.2,159.2c-0.4,0-0.8-0.3-0.8-0.8v-1.2c0-0.4,0.3-0.8,0.8-0.8c0.4,0,0.8,0.3,0.8,0.8
									v1.2C706.9,158.8,706.6,159.2,706.2,159.2z M706.2,156.6c-0.3,0-0.6,0.2-0.6,0.6v1.2c0,0.3,0.2,0.6,0.6,0.6h0
									c0.3,0,0.6-0.2,0.6-0.6v-1.2C706.7,156.9,706.5,156.6,706.2,156.6z"/>
							</g>
						</g>
						<g>
							<g>
								<path class="st28" d="M711,159.1L711,159.1c-0.4,0-0.7-0.3-0.7-0.7v-1.2c0-0.4,0.3-0.7,0.7-0.7h0c0.4,0,0.7,0.3,0.7,0.7v1.2
									C711.7,158.8,711.4,159.1,711,159.1z"/>
							</g>
							<g>
								<path class="st0" d="M711,159.2L711,159.2c-0.4,0-0.8-0.3-0.8-0.8v-1.2c0-0.4,0.3-0.8,0.8-0.8c0.4,0,0.8,0.3,0.8,0.8v1.2
									C711.8,158.8,711.4,159.2,711,159.2z M711,156.6c-0.3,0-0.6,0.2-0.6,0.6v1.2c0,0.3,0.2,0.6,0.6,0.6h0c0.3,0,0.6-0.2,0.6-0.6
									v-1.2C711.6,156.9,711.3,156.6,711,156.6z"/>
							</g>
						</g>
						<g>
							<g>
								<g>
									<ellipse class="st28" cx="706" cy="162.6" rx="0.5" ry="0.5"/>
								</g>
								<g>
									<path class="st0" d="M706,163.2c-0.3,0-0.6-0.3-0.6-0.6c0-0.4,0.3-0.6,0.6-0.6s0.6,0.3,0.6,0.6
										C706.7,162.9,706.4,163.2,706,163.2z M706,162.1c-0.2,0-0.4,0.2-0.4,0.4s0.2,0.4,0.4,0.4c0.2,0,0.4-0.2,0.4-0.4
										S706.3,162.1,706,162.1z"/>
								</g>
							</g>
							<g>
								<g>
									<ellipse class="st28" cx="706" cy="164.6" rx="0.5" ry="0.5"/>
								</g>
								<g>
									<path class="st0" d="M706,165.2c-0.3,0-0.6-0.3-0.6-0.6c0-0.4,0.3-0.6,0.6-0.6s0.6,0.3,0.6,0.6
										C706.7,165,706.4,165.2,706,165.2z M706,164.2c-0.2,0-0.4,0.2-0.4,0.4s0.2,0.4,0.4,0.4c0.2,0,0.4-0.2,0.4-0.4
										S706.3,164.2,706,164.2z"/>
								</g>
							</g>
							<g>
								<g>
									<ellipse class="st28" cx="708.5" cy="162.6" rx="0.5" ry="0.5"/>
								</g>
								<g>
									<path class="st0" d="M708.5,163.2c-0.3,0-0.6-0.3-0.6-0.6c0-0.4,0.3-0.6,0.6-0.6c0.3,0,0.6,0.3,0.6,0.6
										C709.2,162.9,708.9,163.2,708.5,163.2z M708.5,162.1c-0.2,0-0.4,0.2-0.4,0.4s0.2,0.4,0.4,0.4c0.2,0,0.4-0.2,0.4-0.4
										S708.8,162.1,708.5,162.1z"/>
								</g>
							</g>
							<g>
								<g>
									<ellipse class="st28" cx="708.5" cy="164.6" rx="0.5" ry="0.5"/>
								</g>
								<g>
									<path class="st0" d="M708.5,165.2c-0.3,0-0.6-0.3-0.6-0.6c0-0.4,0.3-0.6,0.6-0.6c0.3,0,0.6,0.3,0.6,0.6
										C709.2,165,708.9,165.2,708.5,165.2z M708.5,164.2c-0.2,0-0.4,0.2-0.4,0.4s0.2,0.4,0.4,0.4c0.2,0,0.4-0.2,0.4-0.4
										S708.8,164.2,708.5,164.2z"/>
								</g>
							</g>
							<g>
								<g>
									<ellipse class="st28" cx="711" cy="162.6" rx="0.5" ry="0.5"/>
								</g>
								<g>
									<path class="st0" d="M711,163.2c-0.3,0-0.6-0.3-0.6-0.6c0-0.4,0.3-0.6,0.6-0.6s0.6,0.3,0.6,0.6
										C711.6,162.9,711.4,163.2,711,163.2z M711,162.1c-0.2,0-0.4,0.2-0.4,0.4s0.2,0.4,0.4,0.4c0.2,0,0.4-0.2,0.4-0.4
										S711.3,162.1,711,162.1z"/>
								</g>
							</g>
							<g>
								<g>
									<ellipse class="st28" cx="711" cy="164.6" rx="0.5" ry="0.5"/>
								</g>
								<g>
									<path class="st0" d="M711,165.2c-0.3,0-0.6-0.3-0.6-0.6c0-0.4,0.3-0.6,0.6-0.6s0.6,0.3,0.6,0.6
										C711.6,165,711.4,165.2,711,165.2z M711,164.2c-0.2,0-0.4,0.2-0.4,0.4s0.2,0.4,0.4,0.4c0.2,0,0.4-0.2,0.4-0.4
										S711.3,164.2,711,164.2z"/>
								</g>
							</g>
						</g>
					</g>
					<text transform="matrix(1 0 0 1 642.8057 164.6789)" class="st0 st209 st224">DD/MM/YYYY</text>
				</g>
				<g>
					<text transform="matrix(1 0 0 1 740.5049 146.2892)" class="st0 st209 st222">End Date</text>
					<path class="st223" d="M811.9,171.5h-70.1c-2.7,0-4.9-2.2-4.9-4.9v-10.5c0-2.7,2.2-4.9,4.9-4.9h70.1c2.7,0,4.9,2.2,4.9,4.9
						v10.5C816.8,169.3,814.6,171.5,811.9,171.5z"/>
					<g>
						<g>
							<g>
								<path class="st8" d="M811.2,159.8v5.1c0,1-0.8,1.7-1.7,1.7h-6.6c-0.9,0-1.7-0.8-1.7-1.7v-5.1c0-1,0.8-1.7,1.7-1.7h6.6
									C810.5,158,811.2,158.8,811.2,159.8z"/>
							</g>
							<g>
								<path class="st0" d="M809.5,166.7h-6.6c-1,0-1.8-0.8-1.8-1.8v-5.1c0-1,0.8-1.8,1.8-1.8h6.6c1,0,1.8,0.8,1.8,1.8v5.1
									C811.3,165.9,810.5,166.7,809.5,166.7z M802.9,158.1c-0.9,0-1.6,0.7-1.6,1.6v5.1c0,0.9,0.7,1.6,1.6,1.6h6.6
									c0.9,0,1.6-0.7,1.6-1.6v-5.1c0-0.9-0.7-1.6-1.6-1.6H802.9z"/>
							</g>
						</g>
						<g>
							<g>
								<path class="st28" d="M811.2,159.8v1h-10v-1c0-1,0.8-1.7,1.7-1.7h6.6C810.5,158,811.2,158.8,811.2,159.8z"/>
							</g>
							<g>
								<path class="st0" d="M811.3,160.9h-10.2v-1.1c0-1,0.8-1.8,1.8-1.8h6.6c1,0,1.8,0.8,1.8,1.8V160.9z M801.4,160.7h9.8v-0.9
									c0-0.9-0.7-1.6-1.6-1.6h-6.6c-0.9,0-1.6,0.7-1.6,1.6V160.7z"/>
							</g>
						</g>
						<g>
							<g>
								<path class="st28" d="M803.9,159.1L803.9,159.1c-0.4,0-0.7-0.3-0.7-0.7v-1.2c0-0.4,0.3-0.7,0.7-0.7h0c0.4,0,0.7,0.3,0.7,0.7
									v1.2C804.5,158.8,804.2,159.1,803.9,159.1z"/>
							</g>
							<g>
								<path class="st0" d="M803.9,159.2L803.9,159.2c-0.4,0-0.8-0.3-0.8-0.8v-1.2c0-0.4,0.3-0.8,0.8-0.8c0.4,0,0.8,0.3,0.8,0.8
									v1.2C804.6,158.8,804.3,159.2,803.9,159.2z M803.9,156.6c-0.3,0-0.6,0.2-0.6,0.6v1.2c0,0.3,0.2,0.6,0.6,0.6h0
									c0.3,0,0.6-0.2,0.6-0.6v-1.2C804.4,156.9,804.2,156.6,803.9,156.6z"/>
							</g>
						</g>
						<g>
							<g>
								<path class="st28" d="M808.7,159.1L808.7,159.1c-0.4,0-0.7-0.3-0.7-0.7v-1.2c0-0.4,0.3-0.7,0.7-0.7h0c0.4,0,0.7,0.3,0.7,0.7
									v1.2C809.4,158.8,809.1,159.1,808.7,159.1z"/>
							</g>
							<g>
								<path class="st0" d="M808.7,159.2L808.7,159.2c-0.4,0-0.8-0.3-0.8-0.8v-1.2c0-0.4,0.3-0.8,0.8-0.8c0.4,0,0.8,0.3,0.8,0.8
									v1.2C809.5,158.8,809.1,159.2,808.7,159.2z M808.7,156.6c-0.3,0-0.6,0.2-0.6,0.6v1.2c0,0.3,0.2,0.6,0.6,0.6h0
									c0.3,0,0.6-0.2,0.6-0.6v-1.2C809.3,156.9,809,156.6,808.7,156.6z"/>
							</g>
						</g>
						<g>
							<g>
								<g>
									<ellipse class="st28" cx="803.7" cy="162.6" rx="0.5" ry="0.5"/>
								</g>
								<g>
									<path class="st0" d="M803.7,163.2c-0.3,0-0.6-0.3-0.6-0.6c0-0.4,0.3-0.6,0.6-0.6s0.6,0.3,0.6,0.6
										C804.4,162.9,804.1,163.2,803.7,163.2z M803.7,162.1c-0.2,0-0.4,0.2-0.4,0.4s0.2,0.4,0.4,0.4c0.2,0,0.4-0.2,0.4-0.4
										S804,162.1,803.7,162.1z"/>
								</g>
							</g>
							<g>
								<g>
									<ellipse class="st28" cx="803.7" cy="164.6" rx="0.5" ry="0.5"/>
								</g>
								<g>
									<path class="st0" d="M803.7,165.2c-0.3,0-0.6-0.3-0.6-0.6c0-0.4,0.3-0.6,0.6-0.6s0.6,0.3,0.6,0.6
										C804.4,165,804.1,165.2,803.7,165.2z M803.7,164.2c-0.2,0-0.4,0.2-0.4,0.4s0.2,0.4,0.4,0.4c0.2,0,0.4-0.2,0.4-0.4
										S804,164.2,803.7,164.2z"/>
								</g>
							</g>
							<g>
								<g>
									<ellipse class="st28" cx="806.2" cy="162.6" rx="0.5" ry="0.5"/>
								</g>
								<g>
									<path class="st0" d="M806.2,163.2c-0.3,0-0.6-0.3-0.6-0.6c0-0.4,0.3-0.6,0.6-0.6c0.3,0,0.6,0.3,0.6,0.6
										C806.9,162.9,806.6,163.2,806.2,163.2z M806.2,162.1c-0.2,0-0.4,0.2-0.4,0.4s0.2,0.4,0.4,0.4c0.2,0,0.4-0.2,0.4-0.4
										S806.5,162.1,806.2,162.1z"/>
								</g>
							</g>
							<g>
								<g>
									<ellipse class="st28" cx="806.2" cy="164.6" rx="0.5" ry="0.5"/>
								</g>
								<g>
									<path class="st0" d="M806.2,165.2c-0.3,0-0.6-0.3-0.6-0.6c0-0.4,0.3-0.6,0.6-0.6c0.3,0,0.6,0.3,0.6,0.6
										C806.9,165,806.6,165.2,806.2,165.2z M806.2,164.2c-0.2,0-0.4,0.2-0.4,0.4s0.2,0.4,0.4,0.4c0.2,0,0.4-0.2,0.4-0.4
										S806.5,164.2,806.2,164.2z"/>
								</g>
							</g>
							<g>
								<g>
									<ellipse class="st28" cx="808.7" cy="162.6" rx="0.5" ry="0.5"/>
								</g>
								<g>
									<path class="st0" d="M808.7,163.2c-0.3,0-0.6-0.3-0.6-0.6c0-0.4,0.3-0.6,0.6-0.6s0.6,0.3,0.6,0.6
										C809.3,162.9,809.1,163.2,808.7,163.2z M808.7,162.1c-0.2,0-0.4,0.2-0.4,0.4s0.2,0.4,0.4,0.4c0.2,0,0.4-0.2,0.4-0.4
										S809,162.1,808.7,162.1z"/>
								</g>
							</g>
							<g>
								<g>
									<ellipse class="st28" cx="808.7" cy="164.6" rx="0.5" ry="0.5"/>
								</g>
								<g>
									<path class="st0" d="M808.7,165.2c-0.3,0-0.6-0.3-0.6-0.6c0-0.4,0.3-0.6,0.6-0.6s0.6,0.3,0.6,0.6
										C809.3,165,809.1,165.2,808.7,165.2z M808.7,164.2c-0.2,0-0.4,0.2-0.4,0.4s0.2,0.4,0.4,0.4c0.2,0,0.4-0.2,0.4-0.4
										S809,164.2,808.7,164.2z"/>
								</g>
							</g>
						</g>
					</g>
					<text transform="matrix(1 0 0 1 740.5049 164.6789)" class="st0 st209 st224">DD/MM/YYYY</text>
				</g>
			</g>
		</g>
		<g>
			<defs>
				<rect id="SVGID_00000060007660793578420520000009293595053233394363_" x="237.4" y="160.5" width="498.2" height="338"/>
			</defs>
			<clipPath id="SVGID_00000142859951868774765150000004212017215707018123_">
				<use xlink:href="#SVGID_00000060007660793578420520000009293595053233394363_"  style="overflow:visible;"/>
			</clipPath>
			<g style="clip-path:url(#SVGID_00000142859951868774765150000004212017215707018123_);">
				<path class="st0" d="M453.2,496.5c0,0.6,133.5,1,210,1s67.3-0.5,67.3-1s9.3-1-67.3-1S453.2,496,453.2,496.5z"/>
				<path class="st0" d="M335.7,497.6c0,0.6,133.4,1,210,1s67.3-0.5,67.3-1s9.3-1-67.3-1S335.7,497,335.7,497.6z"/>
				<path class="st8" d="M606.2,273.6H588c-1.5,0-1.7-1.1-1.7-2.8c0-1,0.1-2,0.1-3.2v-10.5c-0.1-2.7-0.4-4.8,1.6-4.8h18.2
					c2,0,3.7,2,4.1,4.8c0,0.4,0,0.8,0,1.2v9.4c0,1.1-0.2,2.2-0.7,3.2c-0.3,0.8-0.7,1.4-1.4,1.9C607.7,273.3,607,273.6,606.2,273.6z"
					/>
				<path class="st0" d="M584.9,258.3v-1.2h25.5c0,0.4,0,0.8,0,1.2v1.6h-25.6L584.9,258.3z"/>
				<path class="st0" d="M708.4,482.9c-8.2,8.2-18.9,13.2-30.4,14.4c-11.5,1.1-23-1.8-32.6-8.2c-9.6-6.4-16.7-16-20-27
					c-3.4-11.1-2.8-22.9,1.7-33.6c4.4-10.7,12.4-19.5,22.6-24.9c10.2-5.4,21.9-7.2,33.3-4.9c11.3,2.3,21.5,8.4,28.8,17.3
					c7.3,8.9,11.3,20.1,11.3,31.7c0,6.5-1.3,13-3.8,19.1C716.7,472.8,713,478.3,708.4,482.9z M690.5,430.4
					c-4.3-4.3-10.1-6.8-16.2-7.1c-6.1-0.3-12,1.7-16.7,5.6c-4.7,3.9-7.8,9.4-8.6,15.4c-0.9,6,0.5,12.2,3.9,17.2
					c3.4,5,8.6,8.7,14.5,10.1c5.9,1.5,12.2,0.7,17.5-2.2c5.4-2.9,9.5-7.7,11.5-13.4c2-5.7,1.9-12-0.5-17.6
					C694.6,435.3,692.8,432.6,690.5,430.4L690.5,430.4z"/>
				<path class="st0" d="M690.8,465.2c-4.1,4.1-9.4,6.6-15.2,7.2c-5.7,0.6-11.5-0.8-16.3-4c-4.8-3.2-8.4-7.9-10.1-13.5
					c-1.7-5.5-1.4-11.4,0.8-16.8c2.2-5.3,6.2-9.7,11.2-12.5c5.1-2.7,10.9-3.6,16.6-2.5s10.8,4.1,14.4,8.6c3.7,4.4,5.7,10,5.7,15.8
					c0,3.3-0.6,6.5-1.9,9.5C695,460.2,693.1,462.9,690.8,465.2z M684.9,435.9c-2.7-2.7-6.2-4.4-10-4.8c-3.8-0.4-7.6,0.6-10.8,2.7
					s-5.5,5.3-6.6,8.9c-1.1,3.7-0.9,7.6,0.6,11.1c1.5,3.5,4.1,6.4,7.5,8.2c3.4,1.8,7.2,2.3,11,1.6c2.4-0.5,4.6-1.5,6.6-2.9
					c1.9-1.5,3.6-3.3,4.7-5.5c1.1-2.2,1.8-4.5,1.9-7c0.1-2.4-0.3-4.9-1.3-7.1c-0.8-2-2.1-3.8-3.6-5.3H684.9z"/>
				<path class="st8" d="M691.2,465.7c-4.5,4.5-10.5,7.1-16.8,7.4c-6.3,0.3-12.5-1.8-17.4-5.8c-4.9-4-8.1-9.7-9-16
					c-0.9-6.3,0.5-12.7,4-17.9c3.5-5.3,8.9-9,15-10.6c6.1-1.5,12.6-0.7,18.2,2.3c5.6,3,9.9,7.9,12,13.9c2.1,6,2,12.5-0.5,18.4
					C695.5,460.5,693.6,463.3,691.2,465.7z M697.5,447.6c0-5.8-2.1-11.5-5.9-15.9c-3.8-4.4-9.1-7.3-14.8-8.2
					c-5.8-0.9-11.6,0.4-16.6,3.5c-4.9,3.1-8.6,7.9-10.3,13.5c-1.7,5.6-1.3,11.6,1,16.9c2.4,5.3,6.5,9.6,11.8,12.1
					c5.3,2.5,11.3,3,16.9,1.5c5.6-1.5,10.5-5.1,13.7-9.9C696,457.1,697.4,452.4,697.5,447.6z M690.2,447.6c0,4.1-1.5,8.1-4.2,11.3
					c-2.7,3.1-6.4,5.2-10.5,5.8c-4.1,0.6-8.3-0.3-11.8-2.5c-3.5-2.2-6.1-5.6-7.3-9.6c-1.2-4-0.9-8.2,0.7-12c1.7-3.8,4.7-6.8,8.4-8.6
					c3.7-1.8,8-2.1,12-1c4,1.1,7.4,3.6,9.7,7.1C689.2,440.9,690.2,444.2,690.2,447.6z"/>
				<path class="st7" d="M637.9,328.4c-19.3-33-27.7-69.4-27.7-69.4h-17.1c9.5,34.9,14.5,71,14.9,107.2c0,57.1-38.7,64.8-38.7,64.8
					h-80c-27.3-21.4-22.3-52.3-2.7-69.6c19.6-17.2,27.2-26.5,27.2-34.7c0-8.2-1.5-14.3-6.8-14.3h-67.1c-70.8,0-94.1,44.6-101,63.7
					c1.9-1.5,4-3,6.3-4.5c46.9-31.9,127.7-16.2,117.9,64.2h-21.9c6.1,8.6,13.9,16.6,21.7,16.6h110.3c32.5,0,34.7-14.1,34.7-14.1
					h16.7l45.2-40.8v-32.2C669.9,365.3,657.2,361.3,637.9,328.4z"/>
				<path class="st0" d="M573.3,452.9H462.9c-6.8,0-14.3-5.7-22.3-16.9l-0.7-1h22.6c3.6-30.9-6.3-55.2-28-68.3
					c-12.2-7.4-27.9-11-44.2-9.9c-16,1-31.5,6.2-44.9,15.2c-2,1.3-4,2.8-6.2,4.5l-1.7,1.2l0.7-2c6.8-19.3,30.4-64.1,101.6-64.1h67.2
					c6.6,0,7.4,8.5,7.4,14.9c0,8.3-6.9,17.1-27.4,35.2c-5.1,4.3-9.1,9.6-11.9,15.7c-2.8,6-4.2,12.6-4.2,19.2
					c0.4,12.8,6.8,24.4,18.6,33.6h79.8c7.2-2,13.7-5.7,19.1-10.9c8.7-8.2,19.1-24.1,19.1-53.3c0-56.3-14.7-106.5-14.9-107l-0.2-0.8
					h18.5l0.1,0.5c0,0.4,8.5,36.7,27.5,69.2c15.1,25.8,27.3,35.3,31.7,36.6l0.4,0.2v32.8l-45.7,41.2h-16.3c-1,2.8-2.8,5.2-5.2,6.9
					C597,450.5,586.9,453,573.3,452.9z M442.3,436.4c7.4,10.1,14.5,15.3,20.6,15.3h110.4c16.5,0,24.9-3.7,29-6.9
					c2.4-1.6,4.2-4,5-6.8v-0.5h17l44.8-40.5v-31.2c-2.4-1-14.5-7.2-32-37c-18-30.6-26.5-64.6-27.6-69h-15.7
					c1.9,6.7,14.7,53.9,14.7,106.5c0,16.4-3.5,39.1-19.6,54.3c-5.5,5.4-12.3,9.2-19.7,11.1h-80.4l-0.2-0.1
					c-12.2-9.5-18.8-21.5-19.2-34.7c-0.4-13.2,5.6-26.3,16.5-35.8c20.3-17.8,27-26.4,27-34.3c0-9.3-1.9-13.6-6.1-13.6h-67.1
					c-68,0-92,41.3-99.7,61.3c1.6-1.2,3.1-2.3,4.5-3.2c13.5-9.1,29.3-14.4,45.5-15.4c16.5-1,32.5,2.6,44.9,10.1
					c22.2,13.5,32.3,38.4,28.5,70.1v0.6H442.3z"/>
				<path class="st0" d="M426.7,482.9c-8.2,8.2-18.9,13.2-30.4,14.4c-11.5,1.1-23-1.8-32.6-8.2c-9.6-6.4-16.7-16-20-27
					c-3.4-11.1-2.8-22.9,1.7-33.6c4.4-10.7,12.4-19.5,22.6-24.9c10.2-5.4,21.9-7.2,33.3-4.9c11.3,2.3,21.5,8.4,28.8,17.3
					c7.3,8.9,11.3,20.1,11.3,31.7c0,6.5-1.3,13-3.8,19.1C435,472.8,431.4,478.3,426.7,482.9z M408.8,430.4
					c-4.3-4.3-10.1-6.8-16.2-7.1c-6.1-0.3-12,1.7-16.7,5.6c-4.7,3.9-7.8,9.4-8.6,15.4c-0.9,6,0.5,12.2,3.9,17.2
					c3.4,5,8.6,8.7,14.5,10.1c5.9,1.5,12.2,0.7,17.5-2.2c5.4-2.9,9.5-7.7,11.5-13.4c2-5.7,1.9-12-0.5-17.6
					C412.9,435.3,411.1,432.6,408.8,430.4L408.8,430.4z"/>
				<path class="st0" d="M409.2,465.2c-4.1,4.1-9.4,6.6-15.2,7.2c-5.7,0.6-11.5-0.8-16.3-4c-4.8-3.2-8.4-7.9-10.1-13.5
					c-1.7-5.5-1.4-11.4,0.8-16.8c2.2-5.3,6.2-9.7,11.2-12.5c5.1-2.7,10.9-3.6,16.6-2.5c5.7,1.1,10.8,4.1,14.4,8.6
					c3.7,4.4,5.7,10,5.7,15.8c0,3.3-0.6,6.5-1.9,9.5C413.3,460.2,411.5,462.9,409.2,465.2z M403.2,435.9c-2.7-2.7-6.2-4.4-10-4.8
					c-3.8-0.4-7.6,0.6-10.8,2.7c-3.2,2.1-5.5,5.3-6.6,8.9c-1.1,3.7-0.9,7.6,0.6,11.1c1.5,3.5,4.1,6.4,7.5,8.2
					c3.4,1.8,7.2,2.3,11,1.6c2.4-0.5,4.6-1.5,6.6-2.9c1.9-1.5,3.6-3.3,4.7-5.5c1.1-2.2,1.8-4.5,1.9-7c0.1-2.4-0.3-4.9-1.3-7.1
					c-0.8-2-2.1-3.8-3.6-5.3H403.2z"/>
				<path class="st8" d="M409.5,465.7c-4.5,4.5-10.5,7.1-16.8,7.4c-6.3,0.3-12.5-1.8-17.4-5.8c-4.9-4-8.1-9.7-9-16
					c-0.9-6.3,0.5-12.7,4-17.9c3.5-5.3,8.9-9,15-10.6c6.1-1.5,12.6-0.7,18.2,2.3c5.6,3,9.9,7.9,12,13.9c2.1,6,2,12.5-0.5,18.4
					C413.8,460.5,411.9,463.3,409.5,465.7z M415.8,447.6c0-5.8-2.1-11.5-5.9-15.9s-9.1-7.3-14.8-8.2s-11.6,0.4-16.6,3.5
					c-4.9,3.1-8.6,7.9-10.3,13.5c-1.7,5.6-1.3,11.6,1,16.9c2.4,5.3,6.5,9.6,11.8,12.1c5.3,2.5,11.3,3,16.9,1.5
					c5.6-1.5,10.5-5.1,13.7-9.9C414.3,457.1,415.8,452.4,415.8,447.6z M408.5,447.6c0,4.1-1.5,8.1-4.2,11.3
					c-2.7,3.1-6.4,5.2-10.5,5.8c-4.1,0.6-8.3-0.3-11.8-2.5c-3.5-2.2-6.1-5.6-7.3-9.6c-1.2-4-0.9-8.2,0.7-12c1.7-3.8,4.7-6.8,8.4-8.6
					c3.7-1.8,8-2.1,12-1c4,1.1,7.4,3.6,9.7,7.1C407.5,440.9,408.5,444.2,408.5,447.6z"/>
				<path class="st0" d="M347.6,368.6c-2.2,1.4-4.3,3-6.2,4.5c-1,2.8-1.9,5.6-2.5,8.6v31h93c3.4,7.1,7.3,13.9,11.8,20.3h21.9
					C475.3,352.4,394.4,336.7,347.6,368.6z"/>
				<path class="st7" d="M345.1,371.4c-2.2,1.5-4.3,3-6.2,4.5c-40.2,30.4-36.3,59.8-36.3,59.8H463
					C472.8,355.3,391.9,339.5,345.1,371.4z"/>
				<path class="st8" d="M370.3,374.1l-15.6,16.2l8.8,0.5l-6.5,13.1l16.2-15.8l-8.3-0.9L370.3,374.1z"/>
				<path class="st0" d="M463.6,436.4H302l-0.1-0.6c0-0.3-0.9-7.6,3.1-18.8c6.8-18.6,21.9-33,33.4-41.6c2.3-1.7,4.3-3.2,6.3-4.5
					c13.5-9.1,29.3-14.4,45.5-15.4c16.5-1,32.5,2.6,44.9,10.1c22.2,13.5,32.3,38.4,28.5,70.1L463.6,436.4z M303.2,435.1h159.3
					c3.6-30.9-6.3-55.2-28-68.3c-12.2-7.4-27.9-11-44.2-9.9c-16,1-31.5,6.2-44.9,15.1c-2,1.4-4,2.8-6.2,4.5
					c-11.4,8.7-26.3,22.7-33,40.9C304,423,302.9,429,303.2,435.1L303.2,435.1z"/>
				<path class="st7" d="M606.4,455.2c0,0-1.9-49.7,46.9-68.1c48.7-18.4,81.6,23.7,81.6,23.7s-9.5,17.4-32.6,15.2
					c-23.1-2.2-41.4-6.8-59.8,14.2C622.9,462.6,616.8,456.5,606.4,455.2z"/>
				<path class="st0" d="M617.7,457.6c-2.3-0.1-4.7-0.4-6.9-1c-1.5-0.4-3-0.6-4.5-0.9h-0.5v-0.5c0.1-9.4,1.8-18.6,5.2-27.4
					c3.6-9.5,9.2-18.2,16.4-25.3c7.3-7.1,16-12.6,25.6-16c9.7-3.7,20.1-5.2,30.4-4.4c10.3,0.9,20.3,4.1,29.2,9.4
					c8.6,4.9,16.3,11.3,22.7,18.8l0.3,0.3l-0.2,0.4c-0.1,0.2-9.9,17.7-33.2,15.5l-6.8-0.7c-20.2-2.2-36.1-3.9-52.4,14.7
					C630.8,454.5,623.8,457.6,617.7,457.6z M612.1,428.3c-3.3,8.4-5,17.3-5.2,26.4c1.4,0.2,2.8,0.5,4.1,0.8
					c7.8,1.7,14.5,3.1,30.8-15.5c16.8-19.1,33.8-17.4,53.5-15.2l6.8,0.7c20.5,2,30.2-12,31.7-14.5c-6.3-7.3-13.7-13.4-22-18.2
					c-8.7-5.2-18.5-8.3-28.7-9.2c-10.1-0.9-20.3,0.6-29.8,4.3c-9.4,3.3-18,8.7-25.1,15.7C621.1,410.5,615.6,418.9,612.1,428.3
					L612.1,428.3z"/>
				
					<linearGradient id="SVGID_1_" gradientUnits="userSpaceOnUse" x1="646.2744" y1="14372.7227" x2="606.1777" y2="14372.7227" gradientTransform="matrix(1 0 0 -1 23.6176 14620.6182)">
					<stop  offset="0" style="stop-color:#FFCF00;stop-opacity:0"/>
					<stop  offset="1" style="stop-color:#FFCF00;stop-opacity:0.8"/>
				</linearGradient>
				<path class="st9" d="M629.8,228.5v38.8l40.1,10.6v-60L629.8,228.5z"/>
				<path class="st0" d="M617.1,227.2v41.4c4.1,0.4,8.3,0.6,12.7,0.6v-42.6C625.4,226.6,621.2,226.8,617.1,227.2z"/>
				<path class="st7" d="M574.1,247.9c0,10.1,18.4,18.5,43,20.7v-41.4C592.4,229.4,574.1,237.8,574.1,247.9z"/>
				<path class="st0" d="M617.7,269.3H617c-25.7-2.3-43.6-11.1-43.6-21.4c0-10.3,17.9-19.1,43.6-21.3h0.7V269.3z M616.4,227.9
					c-24.3,2.3-41.8,10.7-41.8,20c0,9.3,17.5,17.7,41.8,20V227.9z"/>
				<path class="st0" d="M408.1,320.9c-21.7,0,9.4-24.8,19.1-29c9.7-4.2,18.4,3.4,32.3,3.4h19.1c6.8,0,6.4-3,14.3-3
					s16.1,14.5,14.1,19.8s-3.8,8.7-3.8,8.7L408.1,320.9z"/>
				<path class="st0" d="M584.4,255.5c-1.4,0-2.8-0.4-3.9-1.2c-0.9-0.6-1.6-1.3-2.2-2.2c-0.5-0.9-0.9-1.9-1-3c-0.1-1,0-2.1,0.4-3.1
					c0.4-1,0.9-1.9,1.7-2.6c1-1,2.2-1.7,3.6-1.9c1-0.2,2.1-0.2,3.1,0.1c1,0.3,2,0.7,2.8,1.4c0.8,0.7,1.5,1.5,1.9,2.4
					c0.4,0.9,0.7,2,0.7,3c0,1.9-0.7,3.7-2.1,5c-0.7,0.7-1.4,1.2-2.3,1.5C586.3,255.3,585.4,255.5,584.4,255.5L584.4,255.5z"/>
				<path class="st0" d="M669.9,383c-7.2,1.2-14.2,3.5-20.8,6.6c-3.3,1.5-6.4,3.3-9.4,5.3c-6,4-11.3,8.9-15.8,14.5
					c-1.2,1.4-2.2,2.9-3.3,4.4l-1.4,2.3c-0.5,0.7-1,1.5-1.5,2.3c-3.7,6.3-6.9,13-9.5,19.9c1-7.5,3.2-14.7,6.6-21.5
					c3.4-6.9,8-13,13.6-18.2c5.7-5.2,12.3-9.2,19.4-11.9C654.9,383.9,662.4,382.6,669.9,383z"/>
				<path class="st0" d="M428.7,383.6h-33.8c-0.3,0-0.5-0.1-0.7-0.3c-0.2-0.2-0.3-0.5-0.3-0.7c0-0.3,0.1-0.5,0.3-0.7
					c0.2-0.2,0.4-0.3,0.7-0.3h33.8c0.1,0,0.3,0,0.4,0c0.1,0,0.3,0.1,0.4,0.2c0.1,0.1,0.2,0.2,0.3,0.3c0,0.1,0,0.3,0,0.4
					c0,0.1,0,0.3,0,0.4c-0.1,0.1-0.1,0.3-0.3,0.4c-0.1,0.1-0.2,0.2-0.4,0.2C429,383.5,428.8,383.6,428.7,383.6z"/>
				<path class="st0" d="M428.7,389h-33.8c-0.1,0-0.3,0-0.4-0.1c-0.1-0.1-0.2-0.1-0.3-0.2c-0.2-0.2-0.3-0.4-0.3-0.7
					c0-0.3,0.1-0.5,0.3-0.7c0.2-0.2,0.4-0.3,0.7-0.4h33.8c0.1,0,0.3,0,0.4,0c0.1,0,0.3,0.1,0.4,0.2c0.1,0.1,0.2,0.2,0.3,0.4
					s0.1,0.3,0.1,0.4c0,0.1,0,0.3,0,0.4c-0.1,0.1-0.1,0.3-0.3,0.3c-0.1,0.1-0.2,0.2-0.4,0.2C429.1,388.9,428.9,389,428.7,389
					L428.7,389z"/>
				<path class="st0" d="M428.7,394.5h-33.8c-0.3,0-0.5-0.1-0.7-0.3c-0.2-0.2-0.3-0.5-0.3-0.7c0-0.1,0-0.3,0.1-0.4
					c0-0.1,0.1-0.2,0.2-0.3c0.1-0.1,0.2-0.2,0.3-0.2c0.1,0,0.3,0,0.4,0h33.8c0.1,0,0.3,0,0.4,0c0.1,0.1,0.2,0.1,0.3,0.2
					c0.1,0.1,0.2,0.2,0.2,0.3c0,0.1,0,0.3,0,0.4c0,0.1,0,0.3,0,0.4c0,0.1-0.1,0.2-0.2,0.3C429.2,394.4,429,394.5,428.7,394.5z"/>
				<g>
					<defs>
						<path id="SVGID_00000143586710617839052420000016102211557292041601_" d="M263.3,161.5h86.8c9.6,0,17.4,7.8,17.4,17.4v86.8
							c0,9.6-7.8,17.4-17.4,17.4h-86.8c-9.6,0-17.4-7.8-17.4-17.4v-86.8C246,169.3,253.8,161.5,263.3,161.5z"/>
					</defs>
					<clipPath id="SVGID_00000061450723590053412500000000764018840027929504_">
						<use xlink:href="#SVGID_00000143586710617839052420000016102211557292041601_"  style="overflow:visible;"/>
					</clipPath>
					<g style="clip-path:url(#SVGID_00000061450723590053412500000000764018840027929504_);">
						<path class="st28" d="M366.7,176.1c-0.6-3.8-2.6-7.2-5.5-9.6s-6.7-3.8-10.6-3.9l-86.9-0.5c-4.4,0-8.5,1.6-11.6,4.6
							c-3.1,3-4.9,7-4.9,11.3l-0.4,56.5l-0.2,31.1c0,4.3,1.7,8.4,4.8,11.4c3.1,3,7.2,4.8,11.6,4.8l86.9,0.5c4.4,0,8.6-1.7,11.7-4.7
							c3.1-3,4.9-7.1,4.9-11.3l0.5-87.7C366.9,177.8,366.8,177,366.7,176.1z"/>
						<path class="st0" d="M247,234.2c3,0.7,6.1,0.2,8.7-1.4c2.6-1.5,4.8-3.5,6.3-6c1.5-2.5,2.7-5.2,3.5-8c0.9-2.8,1.7-5.7,2.5-8.6
							c1.5-5.7,3.9-11.8,8-16.6c1-1.2,2.1-2.4,3.2-3.5c1.2-1.1,2.4-2.1,3.6-3c2.5-1.9,5.2-3.5,8-4.9c2.8-1.4,5.7-2.5,8.7-3.5
							c2.9-1,5.9-1.9,8.9-2.6c6-1.5,12.1-2.5,18.3-2.9c12.4-0.8,24.6,0.2,36.8,1.5c-12.2,0-24.5-0.3-36.6,1c-3,0.3-6,0.8-9,1.3
							c-3,0.5-5.9,1.2-8.8,2.1c-2.9,0.8-5.8,1.6-8.6,2.7c-2.8,1-5.6,2.1-8.2,3.4c-2.7,1.3-5.2,2.8-7.6,4.5c-1.2,0.9-2.3,1.8-3.4,2.8
							c-1,1-2,2-3,3.1c-0.9,1.1-1.8,2.3-2.6,3.5c-0.8,1.2-1.5,2.5-2.1,3.8c-1.3,2.7-2.3,5.4-3.2,8.2c-1,2.8-1.9,5.7-3,8.5
							c-1,2.9-2.4,5.7-4.2,8.2c-1.9,2.5-4.4,4.5-7.2,5.8c-1.4,0.7-3,1.1-4.5,1.2C250,235,248.4,234.8,247,234.2z"/>
						<path class="st8" d="M251.4,185.2c-0.2-2.3-0.1-4.6,0.1-6.9c0.2-2.4,0.9-4.7,2.1-6.8c1.3-2.2,3.3-3.9,5.7-4.8
							c2.3-0.8,4.8-1.3,7.3-1.3c9.5-0.2,18.8-0.2,28.2-0.2l14.1,0.2c4.7,0.1,9.4,0.2,14.1,0.3c9.4,0.3,18.8,0.7,28.2,1.4
							c-9.4,0.6-18.8,0.9-28.2,1.1c-4.7,0.1-9.4,0.1-14.1,0.2h-14.1l-14.1-0.2l-14.1-0.3c-2.2-0.1-4.4,0.2-6.6,0.8
							c-2.1,0.7-3.8,2-5.1,3.7c-0.6,0.9-1.1,1.9-1.5,2.9c-0.4,1.1-0.7,2.1-1,3.2C251.9,180.6,251.6,182.9,251.4,185.2z"/>
						<path class="st8" d="M252.3,265.3c0.4,2.1,1.5,4,3.1,5.5c1.5,1.4,3.4,2.5,5.4,3.2c4,1.4,8.4,1.4,12.7,1.4c4.4,0,8.8,0,13.2,0
							l13.2,0.1l13.2,0.2c4.4,0.1,8.8,0.1,13.2,0.2c8.8,0.2,17.6,0.4,26.5,0.9c-8.8,0.8-17.6,1.3-26.5,1.6
							c-4.4,0.2-8.8,0.2-13.2,0.3c-4.5,0.1-8.8,0-13.3,0c-8.8-0.1-17.7-0.3-26.5-0.8c-4.4-0.2-9.1-0.5-13.3-2.4
							c-2.1-0.9-4-2.3-5.4-4.1C253.1,269.6,252.3,267.5,252.3,265.3z"/>
						<path class="st11" d="M310.4,219.7c0.1,0.5,0.2,0.9,0.2,1.4c0,1.1-0.3,2.2-0.8,3.2c-0.5,1-1.3,1.8-2.3,2.4c-0.9,0.6-2,1-3.2,1
							c-1.1,0.1-2.3-0.1-3.3-0.6c-1.4-0.6-2.5-1.7-3.2-3l-6.6,2.4c0.7,1.5,1.7,2.9,2.9,4.1l8.8,8.6c0.1,0.1,0.3,0.2,0.4,0.3
							c0.2,0.1,0.3,0.1,0.5,0.1c0.2,0,0.4,0,0.5-0.1c0.2-0.1,0.3-0.2,0.4-0.3l8.8-8.6c1.8-1.7,3-3.8,3.6-6.2
							c0.6-2.3,0.6-4.8-0.1-7.1L310.4,219.7z"/>
						<path class="st11" d="M296.2,208.6c-0.1-0.3-0.2-0.7-0.2-1.1c0-0.4,0.1-0.7,0.3-1.1c0.2-0.3,0.4-0.6,0.6-0.9
							c0.3-0.2,0.6-0.4,0.9-0.6c0.4-0.1,0.7-0.2,1.1-0.2c0.4,0,0.8,0.1,1.1,0.3c0.3,0.2,0.6,0.4,0.9,0.6c0.2,0.3,0.4,0.6,0.6,0.9
							L296.2,208.6z"/>
						<path class="st11" d="M307.9,218.4c-2.4-6-5.9-9.5-8-9.5c-0.2,0-0.4,0-0.5,0.1c-1,0.4-1.7,2-1.8,4.3c0,2.9,0.4,5.7,1.4,8.4
							L307.9,218.4z"/>
						<path class="st11" d="M309.8,217.7l7.5-2.7l6-2.1c-0.1-0.4-0.4-0.8-0.6-1.1c-0.3-0.3-0.6-0.5-1-0.7c-0.4-0.2-0.8-0.3-1.2-0.3
							c-0.4,0-0.8,0-1.2,0.2l-4.7,1.6c-1.3-1.6-3-2.9-4.9-3.8c-1.9-0.9-4-1.3-6.2-1.3h-1.2C305,209.2,307.8,212.8,309.8,217.7z"/>
						<path class="st11" d="M290.1,221.8c0,0.9,0.2,1.9,0.5,2.8l6.5-2.3c-1.3-3.9-2.2-8.2-1-12.2C292.1,212.6,290,217.2,290.1,221.8
							z"/>
					</g>
				</g>
				<path class="st228" d="M263.3,162.4h86.8c9.1,0,16.5,7.4,16.5,16.5v86.8c0,9.1-7.4,16.5-16.5,16.5h-86.8
					c-9.1,0-16.5-7.4-16.5-16.5v-86.8C246.9,169.8,254.2,162.4,263.3,162.4z"/>
				<path class="st0" d="M241.4,291h129.7c0.5,0,1-0.1,1.5-0.3c0.5-0.2,0.9-0.5,1.3-0.9c0.4-0.4,0.7-0.8,0.9-1.3
					c0.2-0.5,0.3-1,0.3-1.5c0-0.5-0.1-1-0.3-1.5c-0.2-0.5-0.5-0.9-0.9-1.3c-0.8-0.8-1.8-1.2-2.8-1.2H241.4c-1.1,0-2.1,0.4-2.8,1.2
					c-0.7,0.8-1.2,1.8-1.2,2.8c0,0.5,0.1,1.1,0.3,1.5c0.2,0.5,0.5,0.9,0.9,1.3c0.4,0.4,0.8,0.7,1.3,0.9
					C240.3,290.9,240.8,291,241.4,291z"/>
				<path class="st0" d="M290.7,291v19.7c0,0.7,0.2,1.3,0.7,1.8c0.4,0.5,1,0.8,1.7,1l29,4.8V291h7.7v28.5l66.1,10.8
					c1.1-1.6,2.8-2.8,4.7-3.3c1.9-0.6,3.9-0.4,5.7,0.3c1.8,0.7,3.3,2.1,4.3,3.8c0.7,1.3,1.1,2.7,1.1,4.2c0,1.5-0.4,2.9-1.1,4.2
					c-0.7,1.3-1.8,2.4-3,3.2c-1.3,0.8-2.7,1.2-4.2,1.3c-2,0.1-3.9-0.5-5.5-1.6c-1.6-1.1-2.8-2.8-3.3-4.7l-107-18.2
					c-1.3-0.2-2.5-0.9-3.3-1.9c-0.8-1-1.3-2.3-1.3-3.6v-23H290.7z"/>
				<path class="st7" d="M402.9,339.1c0.8,0,1.5-0.2,2.1-0.6c0.6-0.4,1.1-1,1.4-1.7c0.3-0.7,0.4-1.5,0.2-2.2c-0.1-0.7-0.5-1.4-1-2
					c-0.5-0.5-1.2-0.9-2-1c-0.7-0.1-1.5-0.1-2.2,0.2c-0.7,0.3-1.3,0.8-1.7,1.4c-0.4,0.6-0.6,1.4-0.6,2.1c0,0.5,0.1,1,0.3,1.5
					c0.2,0.5,0.5,0.9,0.8,1.2c0.4,0.4,0.8,0.6,1.2,0.8C401.9,339,402.4,339.1,402.9,339.1z"/>
			</g>
		</g>
		<g>
			<g>
				<g>
					<g>
						<path class="st7" d="M262.4,389.1l2.8-2.3c19.6-15.7,35-29.1,34.3-29.9s-17,11.3-36.6,27l-2.8,2.3L262.4,389.1z"/>
						<path class="st7" d="M244.2,381.6l28-22.4c19.6-15.7,35-29.1,34.3-29.9s-17,11.3-36.6,27l-28,22.4L244.2,381.6z"/>
						<path class="st7" d="M272.8,407.8l4.1-3.3c28.5-22.8,51.1-41.8,50.6-42.5c-0.5-0.6-24,17.3-52.5,40.1l-4.1,3.3L272.8,407.8z"
							/>
					</g>
					<g>
						<path class="st229" d="M286.6,395.5c0.6,0.1,19.4,18.1,35.8,26.6c8.8,2.9,13.5,6.8,13.5,6.8l-28.4,61.4l1.6-42.6l-36.8-22.5
							L286.6,395.5z"/>
						<path class="st0" d="M307,453.4c-10.9-2.1-7.3-8.8-1.4-9.3c3.2-0.3,5.5,1.3,7,3.1c5.7-8.3,11.6-26.9,11.6-26.9l14.4,8.6
							c0,0-26.5,54.8-31.6,65.2C301.2,506.2,307,453.4,307,453.4z"/>
						<g>
							<path class="st0" d="M303.7,495.8c-0.9-4.8-0.2-16.5-0.2-16.5c2.6-2.3,6.5-2.8,9.3-2.9l23.6-48.8c0.7-1.4,2.4-2,3.8-1.3
								c1.4,0.7,2,2.4,1.3,3.8l-32.5,67.1c-0.7,1.4-2.4,2-3.8,1.3C304.2,498,303.6,497,303.7,495.8z"/>
							<path class="st8" d="M310.7,467.9c-2.2,0.1-3.9,1.5-5.3,3.1c-0.8,0.9-2.2-0.3-1.4-1.3c1.6-2,3.9-3.6,6.5-3.7
								C311.7,466,311.9,467.9,310.7,467.9z"/>
							<path class="st8" d="M312.3,460.1c-2.4-0.1-5.1,1.3-6.2,3.4c-0.6,1.1-2.3,0.3-1.7-0.8c1.4-2.7,4.7-4.6,7.8-4.5
								C313.4,458.2,313.6,460.1,312.3,460.1z"/>
							<path class="st8" d="M313,452.8c-2.3,0-5.4,1.4-6.5,3.5c-0.6,1.1-2.3,0.3-1.7-0.8c1.4-2.7,5-4.7,8-4.6
								C314,450.9,314.2,452.8,313,452.8z"/>
						</g>
						<path class="st229" d="M85.3,341.7c0.5,0.9,26.3,52.2,26.3,52.2l-65.1,10.8l35.8-23.3l-29.4-34.3L85.3,341.7z"/>
						<path class="st0" d="M76.4,383.1c-4.6-10.1,2.9-11.1,6.7-6.5c2.1,2.4,2.1,5.2,1.5,7.5c10-0.2,22.3-3.7,22.3-3.7l7.6,14.4
							c0,0-60,9.9-71.5,11.8C29.9,408.8,76.4,383.1,76.4,383.1z"/>
						<g>
							<path class="st0" d="M39.8,404.8c3.4-3.6,13.4-9.6,13.4-9.6c3.3,0.8,6.1,3.7,7.8,5.9l53.5-8.9c1.6-0.3,3,0.8,3.3,2.3
								c0.3,1.6-0.8,3-2.3,3.3L41.8,410c-1.6,0.3-3-0.8-3.3-2.3C38.3,406.5,38.9,405.4,39.8,404.8z"/>
							<path class="st8" d="M66.6,394.4c-1.3-1.7-3.5-2.4-5.5-2.5c-1.2-0.1-1-2,0.2-1.9c2.5,0.2,5.2,1.1,6.8,3.2
								C68.8,394.2,67.4,395.4,66.6,394.4z"/>
							<path class="st8" d="M74,391.3c-1.3-2-4-3.4-6.4-3.1c-1.2,0.2-1.5-1.7-0.3-1.9c3-0.4,6.5,1.2,8.2,3.7
								C76.2,391.1,74.7,392.3,74,391.3z"/>
							<path class="st8" d="M80.3,387.6c-1.3-1.9-4.2-3.6-6.6-3.3c-1.2,0.2-1.5-1.7-0.3-1.9c3-0.5,6.7,1.4,8.4,3.9
								C82.5,387.4,81,388.6,80.3,387.6z"/>
						</g>
						<path class="st230" d="M211.5,238.9l33.1,126.2c0,0,38.2,15.2,60.7,44.5c0,0-6.6,24.2-13.6,32.1l-84.4-57.6
							c0,0-43-84.1-65-98.1c0,0-64.1-0.3-74.9,4l24.6,59.5c0,0-15.8,7.4-37.2,6.2c0,0-30-62.8-30.3-85.9c-0.3-23.1,94.3-41,94.3-41
							l1.5-7.9L211.5,238.9z"/>
						<polygon class="st230" points="104.2,149.3 98.7,235.3 123.3,246.3 106.2,149 						"/>
						<path class="st229" d="M218.9,256.7c0,0-73.6,7.7-100-27.9c0,0-5.1-21.5-9.4-45.7c-4.3-24.3-5.2-33.8-5.2-33.8l22-12.8
							c0,0,19.4-8,37.2,5.4C176.8,152,211.2,199.1,218.9,256.7z"/>
						<g>
							<path class="st229" d="M105,151.7c0.8,2.3,8.2,14.5,11.9,20.1c1.3-7,10.8-28,11.6-32.2l-6.7-20.5c-2.2-6.9-9.6-10.6-16.4-8.4
								l0,0c-6.9,2.2-10.6,9.6-8.4,16.4L105,151.7z"/>
							<path class="st0" d="M105.4,110.7c6.9-2.2,14.2,1.5,16.4,8.4l0.3,0.8l0.1,0.7c1.9,11.4-5.8,22.1-17.2,24
								c-0.8,0.1-1.5,0.2-2.2,0.2L97,127.2C94.8,120.3,98.5,113,105.4,110.7z"/>
							<path class="st229" d="M83.9,113.2c-0.8,11.5,7.9,21.5,19.4,22.2l0,0c11.5,0.8,21.5-7.9,22.2-19.4l0.9-13.9
								c0.8-11.5-7.9-21.5-19.4-22.2l0,0c-11.5-0.8-21.5,7.9-22.2,19.4L83.9,113.2z"/>
							<path class="st0" d="M121.8,111c0,0-8.5-6.5-8.2-18.5c0,0-21.1,12.1-33-0.6c-11.8-12.7,8.5-29.6,39.1-19.6
								c0,0,13.5-2.4,17.3,10.7c3.8,13,0.9,35-13.5,41.1L121.8,111z"/>
							<path class="st229" d="M118.3,109.5c-0.3,4.2,2.9,7.9,7.1,8.2c4.2,0.3,7.9-2.9,8.2-7.1c0.3-4.2-2.9-7.9-7.1-8.2
								C122.3,102.1,118.6,105.3,118.3,109.5z"/>
						</g>
						<path class="st230" d="M123,155.5c0,0.3-6.1,16.2-6.1,16.2l-2-15.8l3.5-6.4l4.5,5.6"/>
						<polygon class="st230" points="128,131.7 114.9,156 125.2,172.1 131.8,138.2 						"/>
						<polygon class="st230" points="116.9,171.8 107.9,152.5 104.2,149.3 104.2,171.6 106.7,158.7 						"/>
						<line class="st230" x1="106.7" y1="158.7" x2="107.9" y2="152.5"/>
						<path class="st230" d="M130.8,135.3c0,0-3.2,12.5,2.9,35c6.1,22.6,26.4,75.8,78.8,95.7l32.5-30.7c0,0-38.5-36.7-49.8-56.6
							c-6.5-11.5-20.3-25.3-30.9-35c-7.1-6.5-15.9-10-25.2-9.7c-2.5,0.1-4.9,0.5-7.3,1.1L130.8,135.3z"/>
						<path class="st230" d="M212.5,266c-17-6.5-30.3-16.5-40.7-27.8c15.9,4.7,37.4,7.8,37.4,7.8L212.5,266z"/>
						<path class="st0" d="M216.3,205.9c-13.5,14.1-31,21.6-49.6,26.5c-2.7-3.3-5.1-6.8-7.4-10.2c18.2-4.8,35.4-12.1,48.7-25.8
							C210.6,199.5,213.5,202.7,216.3,205.9z"/>
						<g>
							<path class="st11" d="M24.3,148.5c1.4,1.1,3.3,1.3,5,1.4c2.9,0.1,23.8,1.3,24-1.3c0.1-2.2-6.7-7.8-8.2-9.4
								c-2.9-3-6-5.9-9.2-8.6c-1.3-1.1-2.8-2.3-4.4-2.3c-1.1,0.1-2.1,0.4-3,1.1c-3,2.2-5.1,5.8-6,10
								C21.8,142.5,21.8,146.5,24.3,148.5z M31,142.7c0.2-1.3,0.2-3,1.4-3.4c0.7-0.2,1.5-0.1,2.2,0.3c4.6,2.1,10.1,4.4,14.1,7.8
								c-4.8,0.5-10.3-0.7-15.1-1.3c-1-0.1-2.2-0.4-2.6-1.4C30.9,144,30.9,143.3,31,142.7z"/>
							<path class="st11" d="M79.2,130.8c-2.1-3.8-5.2-6.6-8.7-7.8c-1-0.4-2.1-0.5-3.2-0.2c-1.6,0.5-2.6,2-3.6,3.5
								c-2.2,3.5-4.3,7.2-6.2,10.9c-1,1.9-5.8,9.4-5.1,11.4c0.9,2.5,20.5-4.8,23.3-5.8c1.6-0.6,3.3-1.3,4.4-2.8
								C81.9,137.4,80.8,133.6,79.2,130.8z M72.6,138.4c-0.1,1.1-1.1,1.7-2.1,2.1c-4.4,2-9.3,4.8-14,5.7c2.8-4.4,7.3-8.2,11.1-11.6
								c0.5-0.6,1.3-0.9,2-1c1.2,0.1,1.8,1.7,2.3,2.9C72.4,137.1,72.6,137.7,72.6,138.4L72.6,138.4z"/>
							<path class="st0" d="M54.6,144.3c0-0.2,0-0.5-0.1-0.7c-0.1-0.2-0.2-0.4-0.4-0.5c-0.2-0.1-0.3-0.2-0.5-0.2
								c-0.2,0-0.4,0.1-0.5,0.2c-0.2,0.2-0.4,0.5-0.6,0.8c-0.1-0.2-0.2-0.4-0.4-0.6c-0.2-0.2-0.3-0.3-0.5-0.3
								c-0.2-0.1-0.4-0.1-0.6,0c-0.2,0.1-0.4,0.2-0.5,0.3c-0.1,0.2-0.2,0.4-0.3,0.6c0,0.2-0.1,0.5,0,0.7c0,0.8,0.2,1.6,0.5,2.4
								c0.3,0.7,0.7,1.4,1.3,2c0.7,0.8,1.9,1,2.3-0.2C54.7,147.4,54.8,145.9,54.6,144.3z"/>
							<path class="st0" d="M56.5,146.2c4.7-0.9,9.6-3.7,14-5.7c0.9-0.4,2-1,2.1-2.1c0-0.7-0.2-1.3-0.6-1.9
								c-0.6-1.2-1.1-2.8-2.3-2.9c1.2,0.2,2.4,0.8,3.3,1.9c0.9,1.1,1.5,2.5,1.7,4c0.1,0.4,0,0.9-0.1,1.3c-0.4,0.6-0.9,1.1-1.5,1.3
								C67.8,144.7,62.2,146,56.5,146.2z"/>
							<path class="st0" d="M31.7,148.4c-0.6,0-1.3-0.3-1.8-0.8c-0.3-0.3-0.4-0.8-0.5-1.2c-0.3-1.5-0.1-3,0.4-4.3
								c0.5-1.3,1.4-2.3,2.5-2.8c-1.1,0.5-1.2,2.2-1.4,3.4c-0.2,0.6-0.2,1.3,0,2c0.4,1,1.6,1.3,2.6,1.4c4.8,0.6,10.3,1.8,15.1,1.3
								C43.2,148.9,37.5,149.2,31.7,148.4z"/>
							
								<rect x="12.7" y="162.7" transform="matrix(0.9888 -0.1491 0.1491 0.9888 -29.3595 11.0977)" class="st231" width="93.3" height="77.3"/>
							
								<rect x="105.5" y="155.7" transform="matrix(0.9888 -0.1491 0.1491 0.9888 -27.8062 17.8995)" class="st232" width="0" height="77.3"/>
							
								<rect x="1.7" y="148.2" transform="matrix(0.9888 -0.1491 0.1491 0.9888 -23.0481 9.6484)" class="st231" width="102.3" height="20.7"/>
							<path class="st11" d="M58.4,240.5l15.5-2.3L60.1,147l-15.5,2.3L58.4,240.5z"/>
						</g>
						<path class="st229" d="M148.8,192.4c0,0-14.8,32.6-40.3,42c-25.5,9.4-72.9-1.8-72.9-1.8s-18.4,2.5-22.1-0.1
							c-3.7-2.7-6.5-13.2-1.5-22.1c0,0,3-0.1,5.8,0.4c0,0-2.2-6.4-2.4-8.8c-0.2-2.4,2.9-3.3,5.7,1c2.7,4.3,11.1,17.2,11.1,17.2
							s54.4-5,64.4-11.4c10-6.3,21-38,21-38L148.8,192.4z"/>
						<path class="st230" d="M148.4,199.3c0,0-26.3-8.1-38.5-18.7c0,0,10.5-33.3,29.4-38.6C158.2,136.7,177.9,158.9,148.4,199.3z"/>
					</g>
				</g>
				<path class="st0" d="M292.4,500c57.8,0,104.6-0.9,104.6-2c0-1.1-46.8-2-104.6-2s-104.6,0.9-104.6,2
					C187.8,499.1,234.7,500,292.4,500z"/>
			</g>
		</g>
	</g>
</g>
<g id="E-Commerce">
</g>
<g id="Individuals_Page">
</g>
<g id="More">
</g>
<g id="Become_A_Courier">
</g>
<g id="About_us">
</g>
<g id="Contact_US">
</g>
<g id="Layer_13">
</g>
</svg>
