<?xml version="1.0" encoding="utf-8"?>
<!-- Generator: Adobe Illustrator 26.0.1, SVG Export Plug-In . SVG Version: 6.00 Build 0)  -->
<svg version="1.1" xmlns="http://www.w3.org/2000/svg" xmlns:xlink="http://www.w3.org/1999/xlink" x="0px" y="0px"
	 viewBox="0 0 809 560.4" style="enable-background:new 0 0 809 560.4;" xml:space="preserve">
<style type="text/css">
	.st0{fill:#131314;}
	.st1{fill:#F7F5DD;stroke:#131314;stroke-width:0.8581;stroke-miterlimit:10;}
	.st2{fill:#131314;stroke:#F7F5DD;stroke-width:0.3547;stroke-miterlimit:10;}
	.st3{fill:#FFC72B;stroke:#131314;stroke-width:0.8581;stroke-linecap:round;stroke-linejoin:round;stroke-miterlimit:10;}
	.st4{fill:none;stroke:#131314;stroke-width:0.8581;stroke-miterlimit:10;}
	.st5{fill:#131314;stroke:#F7F5DD;stroke-width:0.389;stroke-miterlimit:10;}
	.st6{fill:#FF0058;stroke:#131314;stroke-width:1.7191;stroke-miterlimit:10;}
	.st7{fill:#FFC72B;}
	.st8{fill:#F7F5DD;}
	.st9{fill:url(#SVGID_1_);}
	.st10{fill:#FFE092;}
	.st11{fill:#FF0058;}
	.st12{fill:#FFFFFF;filter:url(#Adobe_OpacityMaskFilter);}
	.st13{mask:url(#mask4_744_2018_00000183221484926765621670000012565967078459250105_);}
	.st14{fill:#FFC72B;stroke:#131314;stroke-width:0.8581;stroke-miterlimit:10;}
	.st15{fill:url(#SVGID_00000124840110677523035600000006415331259664790912_);}
	.st16{clip-path:url(#SVGID_00000143595111728752065440000016728680557646226080_);}
	.st17{fill:#FFC72C;stroke:#131314;stroke-width:0.1032;stroke-miterlimit:10;}
	.st18{clip-path:url(#SVGID_00000060735489306169893970000016100541726888903045_);}
	.st19{fill:#DD9F14;}
	.st20{fill:none;stroke:#131314;stroke-width:2;stroke-miterlimit:10;}
	.st21{clip-path:url(#SVGID_00000126296590360438974380000011754030700152255922_);}
	.st22{fill:#F7F5DD;stroke:#131314;stroke-miterlimit:10;}
	.st23{fill:#131314;stroke:#131314;stroke-miterlimit:10;}
	.st24{fill:#FF0058;stroke:#131314;stroke-miterlimit:10;}
	.st25{opacity:0.1;fill:url(#SVGID_00000039848126432334181160000005475160774315943608_);enable-background:new    ;}
	.st26{opacity:0.4;}
	.st27{fill:none;stroke:#131314;stroke-miterlimit:10;}
	.st28{fill:#FFC72C;}
	.st29{fill:none;stroke:#131314;stroke-width:0.931;stroke-miterlimit:10;}
	.st30{fill:url(#SVGID_00000150070846568519389820000012871856173064990636_);}
	.st31{clip-path:url(#SVGID_00000075859825404806881280000005580987368593835423_);}
	.st32{fill:none;stroke:#131314;stroke-width:0.7836;}
	.st33{fill:#FF0058;stroke:#131314;stroke-width:0.931;stroke-miterlimit:10;}
	.st34{opacity:0.78;fill:#FFFFFF;}
	.st35{fill:#F7F5DD;stroke:#131314;stroke-width:1.3965;stroke-miterlimit:10;}
	.st36{fill:#FFC72B;stroke:#131314;stroke-width:0.931;stroke-miterlimit:10;}
	.st37{fill:#E7B67B;}
	.st38{fill:#FFC72C;stroke:#231F20;stroke-width:0.3724;stroke-linecap:round;stroke-linejoin:round;}
	.st39{fill:none;stroke:#F7F5DD;stroke-width:1.862;stroke-linecap:round;stroke-linejoin:round;stroke-miterlimit:10;}
	.st40{fill:none;stroke:#F7F5DD;stroke-width:0.931;stroke-linecap:round;stroke-linejoin:round;stroke-miterlimit:10;}
	.st41{fill:none;stroke:#FF0058;stroke-width:0.931;stroke-miterlimit:10;}
	.st42{fill:none;stroke:#FF0058;stroke-width:0.931;stroke-linecap:round;stroke-linejoin:round;stroke-miterlimit:10;}
	.st43{fill:none;stroke:#131314;stroke-width:0.931;stroke-linecap:round;stroke-linejoin:round;stroke-miterlimit:10;}
	.st44{fill:none;stroke:#000000;stroke-width:0.931;stroke-miterlimit:10;}
	.st45{fill:none;}
	.st46{fill:#FFC72C;stroke:#000000;stroke-width:0.8449;stroke-miterlimit:10;}
	.st47{clip-path:url(#SVGID_00000021832565423507881710000008053861236975228091_);fill:#F4B821;}
	.st48{clip-path:url(#SVGID_00000021832565423507881710000008053861236975228091_);fill:#FF0058;}
	.st49{clip-path:url(#SVGID_00000058559091282261247700000000454031531750868883_);fill:#F4B821;}
	.st50{clip-path:url(#SVGID_00000058559091282261247700000000454031531750868883_);fill:#FF0058;}
	.st51{fill:#FE0058;}
	.st52{fill:#FFF8FB;}
	.st53{fill:#F7F5DD;stroke:#000000;stroke-width:1.2859;stroke-miterlimit:10;}
	.st54{fill:url(#SVGID_00000118391817116215395070000006965185835391508906_);}
	.st55{clip-path:url(#SVGID_00000156586441432439473710000016992461132753589383_);}
	.st56{fill:none;stroke:#131314;stroke-width:1.4798;}
	.st57{fill:#FFC72B;stroke:#131314;stroke-width:1.0065;stroke-miterlimit:10;}
	.st58{fill:#DD225C;}
	.st59{fill:#67300F;}
	.st60{fill:#FFC72C;stroke:#231F20;stroke-width:0.4026;stroke-linecap:round;stroke-linejoin:round;}
	.st61{fill:#FFB703;}
	.st62{clip-path:url(#SVGID_00000160883827274644456680000007295469310049750442_);}
	.st63{fill:url(#SVGID_00000019677998993841962480000011401568676537522855_);}
	.st64{clip-path:url(#SVGID_00000163071506186103432290000003750303336779622041_);}
	.st65{fill:none;stroke:#131314;stroke-width:1.5895;}
	.st66{fill:#FFFFFF;filter:url(#Adobe_OpacityMaskFilter_00000163750971504218562890000018024989640116472234_);}
	.st67{mask:url(#mask4_744_2018_00000150814286955539578320000013805391622432084355_);}
	.st68{fill:#FFC72B;stroke:#131314;stroke-width:0.97;stroke-miterlimit:10;}
	.st69{fill:url(#SVGID_00000005226534538605245810000017765698350899861915_);}
	.st70{clip-path:url(#SVGID_00000064337714739145718830000007689212783693150394_);}
	.st71{fill:#FFC72C;stroke:#131314;stroke-width:0.1166;stroke-miterlimit:10;}
	.st72{opacity:0.14;clip-path:url(#XMLID_00000142145706255085036430000003341830645336021164_);fill:#F7F5DD;}
	.st73{opacity:0.14;clip-path:url(#XMLID_00000144319031437624804630000016838980857698629540_);fill:#F7F5DD;}
	.st74{opacity:0.14;clip-path:url(#XMLID_00000018237275717606528520000010039382310420459648_);fill:#F7F5DD;}
	.st75{fill:none;stroke:#131314;stroke-width:0.7289;stroke-miterlimit:10;}
	.st76{fill-rule:evenodd;clip-rule:evenodd;fill:#F7F5DD;stroke:#231F20;stroke-width:0.5758;stroke-miterlimit:10;}
	.st77{fill:#FFC72C;stroke:#231F20;stroke-width:0.2915;stroke-linecap:round;stroke-linejoin:round;}
	.st78{fill:#EBD8D1;}
	.st79{fill:#FFC72B;stroke:#131314;stroke-width:0.7289;stroke-miterlimit:10;}
	.st80{fill:#FFC72B;stroke:#131314;stroke-width:1.0933;stroke-miterlimit:10;}
	.st81{fill:#FDBAA7;}
	.st82{fill:#F7F5DD;stroke:#131314;stroke-width:0.7289;stroke-miterlimit:10;}
	.st83{opacity:0.5;fill:#FCC0B1;}
	.st84{fill:#F7F5DD;stroke:#131314;stroke-width:1.0933;stroke-miterlimit:10;}
	.st85{fill:#843636;}
	.st86{opacity:0.7;}
	.st87{fill:#853536;}
	.st88{fill:#E0A9A0;}
	.st89{fill:none;stroke:#F7F5DD;stroke-width:1.4577;stroke-linecap:round;stroke-linejoin:round;stroke-miterlimit:10;}
	.st90{fill:none;stroke:#F7F5DD;stroke-width:0.7289;stroke-linecap:round;stroke-linejoin:round;stroke-miterlimit:10;}
	.st91{fill:none;stroke:#FF0058;stroke-width:0.7289;stroke-miterlimit:10;}
	.st92{fill:none;stroke:#FF0058;stroke-width:0.7289;stroke-linecap:round;stroke-linejoin:round;stroke-miterlimit:10;}
	.st93{fill:none;stroke:#131314;stroke-width:0.7289;stroke-linecap:round;stroke-linejoin:round;stroke-miterlimit:10;}
	.st94{fill:none;stroke:#000000;stroke-width:0.7289;stroke-miterlimit:10;}
	.st95{opacity:0.6;fill:#F7F5DD;enable-background:new    ;}
	.st96{opacity:0.4;fill:#F7F5DD;enable-background:new    ;}
	.st97{opacity:0.2;fill:#F7F5DD;enable-background:new    ;}
	.st98{fill:#F7F5DD;stroke:#131314;stroke-width:1.0398;stroke-miterlimit:10;}
	.st99{fill:url(#SVGID_00000139277744038011445300000012305820037426038924_);}
	.st100{clip-path:url(#SVGID_00000036248730694580005770000012964929931213606315_);}
	.st101{fill:none;stroke:#131314;stroke-width:1.396;}
	.st102{fill:#FFFFFF;stroke:#070405;stroke-width:1.0001;stroke-miterlimit:10;}
	.st103{fill:#FE0058;stroke:#000000;stroke-width:1.0001;stroke-miterlimit:10;}
	.st104{fill:#131314;stroke:#070405;stroke-width:1.0001;stroke-miterlimit:10;}
	.st105{fill:#F7F5DD;stroke:#070506;stroke-width:1.0001;stroke-miterlimit:10;}
	.st106{fill:#F7F5DD;stroke:#000000;stroke-width:1.0001;stroke-miterlimit:10;}
	.st107{fill:#131313;}
	.st108{fill:#101431;stroke:#0C0609;stroke-width:1.0001;stroke-miterlimit:10;}
	.st109{fill:#171F42;stroke:#0C0609;stroke-width:1.0001;stroke-miterlimit:10;}
	.st110{fill:none;stroke:#131314;stroke-width:1.63;stroke-linecap:round;stroke-linejoin:round;stroke-dasharray:10.2907,8.5737;}
	.st111{fill:#FFC72C;stroke:#131314;stroke-width:0.815;stroke-linecap:round;stroke-linejoin:round;stroke-miterlimit:10;}
	.st112{fill:#FFC72C;stroke:#131314;stroke-width:0.815;stroke-linecap:round;stroke-linejoin:round;}
	.st113{fill:none;stroke:#131314;stroke-width:0.9454;stroke-linecap:round;stroke-miterlimit:10;}
	.st114{fill:url(#SVGID_00000012444453252547704240000018295437021338304946_);}
	.st115{fill:#F7F5DD;stroke:#131314;stroke-width:1.0867;stroke-linecap:round;stroke-linejoin:round;stroke-miterlimit:10;}
	.st116{fill:none;stroke:#131314;stroke-width:1.0867;stroke-linecap:round;stroke-linejoin:round;stroke-miterlimit:10;}
	.st117{fill:#F7F5DD;stroke:#131314;stroke-width:2.0758;stroke-linecap:round;stroke-linejoin:round;stroke-miterlimit:10;}
	.st118{fill:none;stroke:#131314;stroke-width:2.0758;stroke-linecap:round;stroke-linejoin:round;stroke-miterlimit:10;}
	.st119{fill:#FFC72C;stroke:#131314;stroke-width:0.5341;stroke-linecap:round;stroke-linejoin:round;stroke-miterlimit:10;}
	.st120{fill:#FFC72C;stroke:#131314;stroke-width:0.5341;stroke-linecap:round;stroke-linejoin:round;}
	.st121{fill:none;stroke:#131314;stroke-width:0.6195;stroke-linecap:round;stroke-miterlimit:10;}
	.st122{fill:#FFFFFF;filter:url(#Adobe_OpacityMaskFilter_00000062159943428988993090000013216464403235395969_);}
	.st123{mask:url(#mask0_472_749_00000067936524425341381020000013690141856301607846_);}
	.st124{fill:#FFC72B;stroke:#000000;stroke-width:0.7607;stroke-miterlimit:10;}
	.st125{fill:none;stroke:#FF0058;stroke-width:3.26;stroke-linecap:round;stroke-linejoin:round;}
	.st126{fill:url(#SVGID_00000153707436459114833390000006451238841502687648_);}
	.st127{fill:#FFC72C;stroke:#131314;stroke-width:9.798834e-02;stroke-miterlimit:10;}
	.st128{fill:#F7F5DD;stroke:#131314;stroke-width:0.8499;stroke-miterlimit:10;}
	.st129{fill:url(#SVGID_00000118360758212821532120000011786139976830922414_);}
	.st130{clip-path:url(#SVGID_00000083794235428809866790000008678151621409094290_);}
	.st131{fill:none;stroke:#131314;stroke-width:0.1586;}
	.st132{fill:#F7F5DD;stroke:#000000;stroke-width:0.1379;stroke-miterlimit:10;}
	.st133{fill:#FFC72B;stroke:#131314;stroke-width:0.1079;stroke-miterlimit:10;}
	
		.st134{fill-rule:evenodd;clip-rule:evenodd;fill:#F7F5DD;stroke:#131314;stroke-width:0.6316;stroke-linecap:round;stroke-linejoin:round;stroke-miterlimit:10;}
	.st135{fill:#FE0058;stroke:#131314;stroke-width:0.6316;stroke-linecap:round;stroke-linejoin:round;stroke-miterlimit:10;}
	.st136{fill:#F7F5DD;stroke:#131314;stroke-width:0.6316;stroke-linecap:round;stroke-linejoin:round;stroke-miterlimit:10;}
	.st137{fill:#FFC72B;stroke:#131314;stroke-width:0.8499;stroke-miterlimit:10;}
	.st138{opacity:0.5;}
	.st139{clip-path:url(#SVGID_00000130630009655920556400000004169590031149306780_);}
	.st140{fill:#CCCCCC;}
	.st141{fill:#FFC608;stroke:#131314;stroke-width:0.6316;stroke-linecap:round;stroke-linejoin:round;stroke-miterlimit:10;}
	.st142{fill:#79C9E2;}
	.st143{fill:#62B8CC;}
	.st144{fill:#D9E1EE;}
	.st145{fill:none;stroke:#FFFFFF;stroke-width:0.4753;stroke-miterlimit:10;}
	.st146{fill:#E48D34;}
	.st147{fill:#EAA05C;}
	.st148{fill:#D17A2B;}
	.st149{fill:#F5B376;}
	.st150{fill:#F5BE2D;}
	.st151{fill:#F4E081;}
	.st152{fill:#F2A101;}
	.st153{fill:#F7CF4C;}
	.st154{fill:#DE8E06;}
	.st155{fill:#05C954;}
	.st156{fill:#E21E36;}
	.st157{fill:#D4101E;}
	.st158{fill:#00AF47;}
	.st159{fill:#FFE164;}
	.st160{fill:#FFFAA6;}
	.st161{fill:#43B572;}
	.st162{fill:#FFC72C;stroke:#231F20;stroke-width:0.1377;stroke-linecap:round;stroke-linejoin:round;}
	.st163{fill:#FED0B8;}
	.st164{fill:#F7F5DD;stroke:#131314;stroke-width:0.6605;stroke-linecap:round;stroke-linejoin:round;stroke-miterlimit:10;}
	.st165{fill:#FFC608;stroke:#131314;stroke-width:0.6234;stroke-miterlimit:10;}
	.st166{fill:#FFC608;stroke:#131314;stroke-width:0.5155;stroke-miterlimit:10;}
	.st167{fill:none;stroke:#131314;stroke-width:1.1332;stroke-linecap:round;stroke-linejoin:round;stroke-dasharray:22.665,22.665;}
	.st168{fill:#FFC72C;stroke:#231F20;stroke-width:4.938446e-02;stroke-linecap:round;stroke-linejoin:round;}
	.st169{fill:url(#SVGID_00000168838411095497431400000015987813709432070557_);}
	.st170{clip-path:url(#SVGID_00000046321570974551422900000006514396282450956695_);}
	.st171{fill:#FFC72C;stroke:#131314;stroke-width:7.223932e-02;stroke-miterlimit:10;}
	.st172{fill:url(#SVGID_00000174603728065033574190000018320058553902194347_);}
	.st173{fill:#131314;stroke:#F7F5DD;stroke-width:0.1911;stroke-miterlimit:10;}
	.st174{fill:#F7F5DD;stroke:#131314;stroke-width:0.9245;stroke-miterlimit:10;}
	.st175{fill:none;stroke:#131314;stroke-width:0.9245;stroke-miterlimit:10;}
	.st176{fill:#131314;stroke:#F7F5DD;stroke-width:0.2096;stroke-miterlimit:10;}
	.st177{fill:#FF0058;stroke:#131314;stroke-width:0.9245;stroke-miterlimit:10;}
	.st178{fill:#232020;}
	.st179{fill:#F7F5DD;stroke:#231F20;stroke-width:0.9245;stroke-miterlimit:10;}
	.st180{fill:#FCF4EC;}
	.st181{fill:#CD950C;}
	.st182{fill:none;stroke:#FFFFFF;stroke-width:0.5769;stroke-miterlimit:10;}
	.st183{fill:#FFC72C;stroke:#131314;stroke-width:0.8286;stroke-miterlimit:10;}
	.st184{fill:#FFC72C;stroke:#131314;stroke-width:0.8286;stroke-linecap:round;stroke-linejoin:round;}
	.st185{clip-path:url(#SVGID_00000035523963161073784630000017414090951178241678_);}
	.st186{fill:url(#SVGID_00000060742959241674333620000000785778899085746366_);}
	.st187{clip-path:url(#SVGID_00000011710849550147240130000010085789173776908960_);}
	.st188{fill:none;stroke:#131314;stroke-width:1.5284;}
	.st189{fill:#FFFFFF;filter:url(#Adobe_OpacityMaskFilter_00000030450487903887104920000012269089760180130999_);}
	.st190{mask:url(#mask4_744_2018_00000067229330011245605510000014511519346254753932_);}
	.st191{fill:#FFC72B;stroke:#131314;stroke-width:0.9327;stroke-miterlimit:10;}
	.st192{fill-rule:evenodd;clip-rule:evenodd;fill:#F7F5DD;stroke:#131314;stroke-width:0.2707;stroke-miterlimit:10;}
	.st193{fill-rule:evenodd;clip-rule:evenodd;fill:#F9CC3D;}
	.st194{fill-rule:evenodd;clip-rule:evenodd;fill:#FE0058;}
	.st195{fill:#EDBA29;}
	.st196{fill-rule:evenodd;clip-rule:evenodd;fill:#98DFFF;}
	.st197{fill:#29ABE2;}
	.st198{fill-rule:evenodd;clip-rule:evenodd;fill:#FFC72C;stroke:#131314;stroke-width:0.2707;stroke-miterlimit:10;}
	.st199{fill-rule:evenodd;clip-rule:evenodd;fill:#F7F5DD;stroke:#131314;stroke-width:0.1083;stroke-miterlimit:10;}
	.st200{fill-rule:evenodd;clip-rule:evenodd;fill:#FE0058;stroke:#131314;stroke-width:0.1083;stroke-miterlimit:10;}
	.st201{fill:#B3B3B3;}
	.st202{fill:#FFC72C;stroke:#231F20;stroke-width:0.4332;stroke-linecap:round;stroke-linejoin:round;}
	.st203{fill:#FFC84A;}
	.st204{fill:#FF0058;stroke:#131314;stroke-width:1.2117;stroke-miterlimit:10;}
	.st205{fill:#F7F5DD;stroke:#131314;stroke-width:0.9088;stroke-miterlimit:10;}
	.st206{fill:#FFC72B;stroke:#131314;stroke-width:0.9088;stroke-miterlimit:10;}
	.st207{fill:url(#SVGID_00000158731441216492925290000005484470784001116046_);}
	.st208{fill:#FFC72B;stroke:#000000;stroke-width:0.8482;stroke-miterlimit:10;}
	.st209{font-family:'BCNovaticaCYR-Medium';}
	.st210{font-size:11.0322px;}
	.st211{fill:none;stroke:#F7F5DD;stroke-width:1.4089;stroke-linecap:round;stroke-linejoin:round;stroke-miterlimit:10;}
	.st212{fill:none;stroke:#131314;stroke-width:0.7045;stroke-miterlimit:10;}
	.st213{fill:none;stroke:#F7F5DD;stroke-width:0.7045;stroke-linecap:round;stroke-linejoin:round;stroke-miterlimit:10;}
	.st214{fill:none;stroke:#FF0058;stroke-width:0.7045;stroke-miterlimit:10;}
	.st215{fill:none;stroke:#FF0058;stroke-width:0.7045;stroke-linecap:round;stroke-linejoin:round;stroke-miterlimit:10;}
	.st216{fill:none;stroke:#131314;stroke-width:0.7045;stroke-linecap:round;stroke-linejoin:round;stroke-miterlimit:10;}
	.st217{fill:none;stroke:#000000;stroke-width:0.7045;stroke-miterlimit:10;}
	.st218{fill:none;stroke:#131314;stroke-width:0.8062;stroke-miterlimit:10;}
	.st219{clip-path:url(#SVGID_00000181071647628147561600000014494980193726929566_);}
	.st220{fill:url(#SVGID_00000116214166455028882460000001193655550761505667_);}
	.st221{clip-path:url(#SVGID_00000100362256649100654670000014699709740323093402_);}
	.st222{fill:none;stroke:#131314;stroke-width:1.7355;}
	.st223{fill:#F7F5DD;stroke:#131314;stroke-width:1.2641;stroke-miterlimit:10;}
	.st224{fill:#FFC608;stroke:#0C0609;stroke-width:0.9481;stroke-miterlimit:10;}
	.st225{fill:#FFC72B;stroke:#131314;stroke-width:1.2641;stroke-miterlimit:10;}
	.st226{fill:#FFC72B;stroke:#131314;stroke-width:0.9481;stroke-miterlimit:10;}
	.st227{clip-path:url(#SVGID_00000039120976103473523270000001112226315200501417_);}
	.st228{fill:#F4B821;}
	.st229{fill:#C69560;}
	.st230{fill:#F7F5DD;stroke:#131314;stroke-width:1.2993;stroke-miterlimit:10;}
	.st231{fill:#131314;stroke:#F7F5DD;stroke-width:0.2685;stroke-miterlimit:10;}
	.st232{fill:#FFC72B;stroke:#131314;stroke-width:1.2993;stroke-miterlimit:10;}
	.st233{fill:none;stroke:#131314;stroke-width:1.2993;stroke-miterlimit:10;}
	.st234{fill:#131314;stroke:#F7F5DD;stroke-width:0.2945;stroke-miterlimit:10;}
	.st235{fill:#FF0058;stroke:#131314;stroke-width:1.2993;stroke-miterlimit:10;}
	.st236{fill:#FFFFFF;filter:url(#Adobe_OpacityMaskFilter_00000006699289162381200760000012660941882378371749_);}
	.st237{mask:url(#mask0_479_11673_00000099644528304487065730000005320813079396614829_);}
	.st238{fill:#FFC72B;stroke:#000000;stroke-width:0.6063;stroke-miterlimit:10;}
	.st239{fill:url(#SVGID_00000173158823988343319340000013093996821927295670_);}
	.st240{fill:#FFFFFF;filter:url(#Adobe_OpacityMaskFilter_00000079464502198761137660000009507050261947256455_);}
	.st241{mask:url(#mask0_472_749_00000032621048777137593190000003031189513109940632_);}
	.st242{fill:url(#SVGID_00000164491739184188119330000011733831668964098946_);}
	.st243{fill:url(#SVGID_00000051356366674033952090000007749860039494942384_);}
	.st244{clip-path:url(#SVGID_00000166644636343862206200000008700866031652593580_);}
	.st245{fill:none;stroke:#131314;stroke-width:1.793;}
	.st246{fill:#F7F5DD;stroke:#000000;stroke-width:1.4856;stroke-miterlimit:10;}
	.st247{fill:#FFC72B;stroke:#131314;stroke-width:1.1628;stroke-miterlimit:10;}
	.st248{fill:#F7F5DD;stroke:#131314;stroke-width:1.306;stroke-miterlimit:10;}
	.st249{fill:none;stroke:#131314;stroke-width:1.2653;stroke-miterlimit:10;}
	.st250{fill:#FFC72C;stroke:#131314;stroke-width:0.9795;stroke-miterlimit:10;}
	.st251{fill:#FFC72C;stroke:#131314;stroke-width:0.9795;stroke-linecap:round;stroke-linejoin:round;stroke-miterlimit:10;}
	.st252{fill:#FFFFFF;}
	.st253{fill:#F7F5DD;stroke:#000000;stroke-width:0.4697;stroke-miterlimit:10;}
	.st254{fill:#FFC046;}
	.st255{fill:none;stroke:#131314;stroke-width:0.8612;stroke-linecap:round;stroke-linejoin:round;stroke-miterlimit:10;}
	.st256{fill:none;stroke:#FFFFFF;stroke-width:0.8612;stroke-linecap:round;stroke-linejoin:round;stroke-miterlimit:10;}
	.st257{fill:none;stroke:#F7F5DD;stroke-width:0.4697;stroke-miterlimit:10;}
	.st258{fill:#F7F5DD;stroke:#070506;stroke-width:0.5202;stroke-miterlimit:10;}
	.st259{fill:#F7F5DD;stroke:#000000;stroke-width:0.5202;stroke-miterlimit:10;}
	.st260{fill:#FE0058;stroke:#000000;stroke-width:0.5202;stroke-miterlimit:10;}
	.st261{fill:none;stroke:#F7F5DD;stroke-width:0.8612;stroke-linecap:round;stroke-linejoin:round;stroke-miterlimit:10;}
	.st262{fill:none;stroke:#1A2E35;stroke-width:0.8612;stroke-linecap:round;stroke-linejoin:round;stroke-miterlimit:10;}
</style>
<g id="Layer_1">
</g>
<g id="Home">
</g>
<g id="Restaurants">
</g>
<g id="Grocery">
</g>
<g id="Pharmacy__x26__Meds">
</g>
<g id="Gifts">
	<g>
		<g>
			<g>
				<path class="st7" d="M513.7,285.3c2.4,4.7,7.1,7.6,11.8,10.1c11.9,6.4,30.8,14.8,44.5,10.1c-0.6-7-8-16.3-11.3-22.7
					c-1.9-3.8-4.1-7.4-6.6-10.9c-3.9-5-9.1-8.8-15.1-11c-4.4-1.7-10.4-1.9-12.9,2.1c-1.3,2.1-1.4,5-3.3,6.6
					c-1.2,0.8-2.5,1.4-3.8,1.8C512.2,273.9,511.3,280.7,513.7,285.3z M530.4,285.8c1.1-2,3.8-2.4,6.1-2.1c4.8,1.1,9.3,3.1,13.4,5.9
					c1.7,1.2,3.3,2.6,4.9,4l1.1,0.9c3.2,2.9,6.6,5.5,8.9,9.1c-10.9-1.2-21.5-4.8-30.9-10.5c-1.2-0.8-2.3-1.9-3.1-3.1
					c-0.4-0.6-0.6-1.3-0.7-2.1C529.9,287.2,530.1,286.4,530.4,285.8z"/>
				<path class="st0" d="M536.4,283.8c-2.2-0.4-5,0-6.1,2.1c-0.3,0.7-0.5,1.4-0.4,2.2c0,0.7,0.3,1.5,0.7,2.1
					c0.8,1.2,1.9,2.3,3.1,3.1c9.4,5.7,19.9,9.3,30.9,10.5c-5.9,1.5-11.8,0.6-17.7-1.2c-4-1.2-8-2.8-11.7-4.6c-2.8-1.1-5.2-3-7-5.4
					c-1.6-2.5-1.8-6.2,0.4-8.2C530.9,282.3,533.6,282.9,536.4,283.8z"/>
				<path class="st7" d="M621.4,271.6c-1.3-0.5-2.6-1.1-3.8-1.8c-1.9-1.6-1.9-4.6-3.3-6.6c-2.5-4-8.5-3.7-12.9-2.1
					c-5.9,2.2-11.1,6-15.1,11c-2.5,3.4-4.7,7-6.6,10.9c-3.3,6.4-10.7,15.7-11.3,22.7c13.7,4.7,32.6-3.8,44.5-10.1
					c4.6-2.5,9.4-5.5,11.8-10.1C627,280.7,626.1,273.9,621.4,271.6z M607.6,290c-0.8,1.2-1.8,2.3-3.1,3.1
					c-9.4,5.7-19.9,9.3-30.9,10.5c2.3-3.6,5.7-6.3,8.9-9.1l1.1-0.9c1.5-1.4,3.1-2.8,4.8-4c4-2.8,8.6-4.8,13.4-5.8c2.2-0.4,5,0,6,2.1
					c0.3,0.7,0.4,1.4,0.4,2.1C608.3,288.7,608.1,289.4,607.6,290L607.6,290z"/>
				<path class="st0" d="M609.7,284.2c2.2,2,2.1,5.7,0.5,8.2c-1.8,2.4-4.2,4.2-7,5.4c-3.8,1.9-7.7,3.4-11.7,4.6
					c-5.9,1.8-11.7,2.7-17.7,1.2c10.9-1.2,21.5-4.8,30.9-10.5c1.2-0.8,2.3-1.9,3.1-3.1c0.4-0.6,0.6-1.4,0.7-2.1
					c0-0.7-0.1-1.5-0.4-2.2c-1.1-2-3.8-2.4-6-2.1C604.7,282.9,607.5,282.3,609.7,284.2z"/>
				<path class="st203" d="M572.3,298.2c0.1-1,0-2.1-0.4-3.1c-0.4-0.9-1.4-1.2-2-0.4c-0.2,0.4-0.3,0.9-0.5,1.3
					c0-1.2-0.9-2.3-1.8-2.1c-0.9,0.2-1.6,1.4-1.8,2.8c-0.1,1.3,0,2.6,0.3,3.9l0.6,3.1c0.1,0.6,0.2,1.2,0.5,1.7
					c0.2,0.4,0.5,0.6,0.9,0.9c0.4,0.2,0.8,0.3,1.2,0.3C571.7,306.9,572.2,300.5,572.3,298.2z"/>
				<path class="st0" d="M572.3,298.2c0.1-1,0-2.1-0.4-3.1c-0.4-0.9-1.4-1.2-2-0.4c-0.2,0.4-0.3,0.9-0.5,1.3c0-1.2-0.9-2.3-1.8-2.1
					c-0.9,0.2-1.6,1.4-1.8,2.8c-0.1,1.3,0,2.6,0.3,3.9l0.6,3.1c0.1,0.6,0.2,1.2,0.5,1.7c0.2,0.4,0.5,0.6,0.9,0.9
					c0.4,0.2,0.8,0.3,1.2,0.3C571.7,306.9,572.2,300.5,572.3,298.2z"/>
				<path class="st204" d="M508.8,523.7h116.7V336.3H508.8V523.7z"/>
				<path class="st204" d="M584.6,523.7h41V336.3h-41V523.7z"/>
				<path class="st204" d="M504.3,344.5h126.4v-39.2H504.3V344.5z"/>
				<path class="st204" d="M584.8,344.5h45.8v-39.2h-45.8V344.5z"/>
				<path class="st7" d="M534.4,523.7h13.2V305.2h-13.2V523.7z"/>
				<path class="st7" d="M597.8,523.7H611V305.2h-13.2V523.7z"/>
				<path class="st7" d="M453.3,378.7c3,3,7.4,3.9,11.6,4.7c7.1,1.3,57.4,11,58.6,5.2c1.1-4.8-13.5-19.9-16.5-23.7
					c-6-7.7-12.4-15.2-19.1-22.3c-2.8-3-5.9-6.1-10-6.6c-2.6-0.3-5.3,0.2-7.6,1.4c-8.5,3.9-14.5,11.8-18.2,20.3
					C449.3,364.5,448,373.5,453.3,378.7z M471.7,368c0.9-2.9,1.7-6.5,4.6-7.2c1.8-0.4,3.6,0.5,5.2,1.4c10.5,6.3,22.9,13.3,31.3,22.2
					c-11.7-0.4-24.7-5-36.1-8c-2.4-0.6-5.1-1.6-5.7-4C470.9,370.9,471.1,369.4,471.7,368z"/>
				<path class="st7" d="M592.9,357.7c-3.7-8.6-9.7-16.5-18.2-20.3c-2.3-1.2-5-1.7-7.6-1.4c-4,0.6-7.1,3.7-10,6.6
					c-6.7,7.2-13,14.6-19.1,22.3c-3,3.9-17.6,18.9-16.5,23.7c1.3,5.9,51.6-3.8,58.6-5.2c4.2-0.8,8.6-1.7,11.6-4.7
					C597.2,373.5,595.9,364.5,592.9,357.7z M574.1,372.5c-0.6,2.4-3.4,3.4-5.7,4c-11.4,3-24.3,7.6-36.1,8
					c8.5-8.9,20.8-15.9,31.3-22.2c1.6-1,3.4-1.9,5.2-1.4c2.9,0.7,3.7,4.3,4.6,7.2C574.1,369.5,574.3,371,574.1,372.5z"/>
				<path class="st0" d="M528.4,379.5c0.1-0.5,0.1-1.1-0.1-1.6c-0.2-0.5-0.4-1-0.8-1.4c-0.3-0.2-0.7-0.3-1.1-0.4
					c-0.4,0-0.8,0.1-1.1,0.2c-0.7,0.4-1.3,0.9-1.7,1.6c-0.1-0.5-0.4-1-0.7-1.4c-0.3-0.4-0.7-0.7-1.2-1c-0.5-0.2-1-0.3-1.5-0.3
					c-0.5,0.1-1,0.2-1.4,0.5c-0.7,0.7-1.1,1.7-1.1,2.7c-0.4,3.6,0.6,7.3,2.7,10.3c1.5,2.1,4.2,3,5.5,0.4
					C527.5,386.3,528.4,383,528.4,379.5z"/>
				<path class="st0" d="M532.2,384.5c11.7-0.4,24.7-5,36.1-8c2.4-0.6,5.1-1.6,5.7-4c0.2-1.5,0-3.1-0.7-4.5
					c-0.9-2.9-1.7-6.5-4.6-7.2c6.3,1.8,10.1,8.4,9.9,14.9c0,1-0.2,2-0.7,2.9c-1,1.3-2.5,2.1-4.1,2.4
					C560.3,384.7,546.2,386,532.2,384.5z"/>
				<path class="st0" d="M471.3,381c-1.6-0.2-3.1-1.1-4.1-2.4c-0.5-0.9-0.7-1.9-0.7-2.9c-0.3-6.5,3.6-13.1,9.9-14.9
					c-2.9,0.7-3.7,4.3-4.6,7.2c-0.6,1.4-0.9,3-0.7,4.5c0.6,2.4,3.4,3.4,5.7,4c11.4,3,24.3,7.6,36.1,8
					C498.9,386,484.8,384.8,471.3,381z"/>
				<path class="st205" d="M426.7,550.7h110V417h-110V550.7z"/>
				<path class="st205" d="M617,417h-80.4v133.8H617V417z"/>
				<path class="st205" d="M623.1,387.6h-86.5v30.4h86.5V387.6z"/>
				<path class="st7" d="M593.1,387.6h-22.8v30.4h22.8V387.6z"/>
				<path class="st7" d="M591.1,417.9h-22.8v132.8h22.8V417.9z"/>
				<path class="st7" d="M488.7,417.9h-22.8v132.8h22.8V417.9z"/>
				<path class="st205" d="M418.2,417.9h118.5v-30.4H418.2V417.9z"/>
				<path class="st7" d="M486.8,387.6H464v30.4h22.8V387.6z"/>
				<path class="st11" d="M651.2,408.7c2.3,1.9,5.7,2.6,8.9,3.1c5.4,0.9,43.9,7.1,44.8,3.4c0.8-3.1-10.3-12.8-12.6-15.4
					c-4.6-5-9.5-9.9-14.6-14.5c-2.1-1.9-4.5-3.9-7.6-4.3c-2-0.2-4,0.2-5.8,1c-6.1,2.5-11.1,7.2-13.9,13.2
					C648.1,399.5,647.1,405.3,651.2,408.7z M665.2,401.8c0.7-1.9,1.3-4.3,3.5-4.7c1.4-0.1,2.8,0.2,4,1c8,4.1,17.4,8.6,23.9,14.4
					c-9-0.3-18.9-3.3-27.6-5.2c-1.8-0.4-3.9-1.1-4.4-2.6C664.6,403.7,664.8,402.7,665.2,401.8z"/>
				<path class="st11" d="M757.9,395.1c-2.9-6-7.8-10.7-13.9-13.2c-1.8-0.8-3.8-1.1-5.8-1c-3.1,0.4-5.5,2.4-7.6,4.3
					c-5.1,4.6-10,9.5-14.6,14.5c-2.3,2.5-13.4,12.3-12.6,15.4c1,3.8,39.4-2.5,44.8-3.4c3.2-0.5,6.5-1.1,8.9-3.1
					C761.1,405.3,760.1,399.5,757.9,395.1z M743.5,404.7c-0.5,1.5-2.6,2.2-4.4,2.6c-8.7,1.9-18.6,4.9-27.6,5.2
					c6.5-5.8,15.9-10.3,23.9-14.4c1.2-0.8,2.6-1.1,4-1c2.2,0.5,2.9,2.9,3.5,4.7C743.5,402.7,743.7,403.7,743.5,404.7L743.5,404.7z"
					/>
				<path class="st0" d="M708.5,409.3c0.1-0.3,0.1-0.7,0-1c-0.1-0.3-0.3-0.6-0.5-0.8c-0.3-0.2-0.6-0.4-0.9-0.4s-0.7,0-1,0.2
					c-0.5,0.2-0.9,0.6-1.3,1.1c-0.1-0.3-0.3-0.6-0.6-0.9c-0.2-0.3-0.5-0.5-0.9-0.6c-0.4-0.1-0.7-0.2-1.1-0.2c-0.4,0-0.8,0.2-1.1,0.4
					c-0.3,0.2-0.5,0.5-0.6,0.8c-0.2,0.3-0.2,0.6-0.3,1c-0.1,1.2,0,2.4,0.3,3.6c0.4,1.2,1,2.2,1.8,3.1c1.1,1.3,3.2,1.9,4.3,0.3
					C707.8,413.8,708.5,411.6,708.5,409.3z"/>
				<path class="st0" d="M711.5,412.5c9-0.3,18.9-3.3,27.6-5.2c1.8-0.4,3.9-1.1,4.4-2.6c0.1-1,0-2-0.5-2.9c-0.7-1.9-1.3-4.3-3.5-4.7
					c2.2,0.5,4.1,1.7,5.5,3.5c1.4,1.8,2.1,4,2,6.2c0,0.7-0.2,1.3-0.5,1.9c-0.8,0.9-2,1.4-3.2,1.5
					C732.9,412.7,722.2,413.5,711.5,412.5z"/>
				<path class="st0" d="M664.9,410.2c-1.2-0.1-2.3-0.7-3.2-1.5c-0.4-0.6-0.6-1.2-0.5-1.9c-0.1-2.2,0.7-4.4,2-6.2
					c1.4-1.8,3.3-3,5.5-3.5c-2.2,0.5-2.9,2.9-3.5,4.7c-0.5,0.9-0.6,1.9-0.5,2.9c0.5,1.5,2.6,2.2,4.4,2.6c8.7,1.9,18.6,4.9,27.6,5.2
					C686.1,413.4,675.3,412.7,664.9,410.2z"/>
				<path class="st206" d="M613.8,549.6h175.1V436.3H613.8V549.6z"/>
				<path class="st206" d="M722.4,549.6h66.4V436.3h-66.4V549.6z"/>
				<path class="st206" d="M605.3,444.6h191.9v-30.3H605.3V444.6z"/>
				<path class="st206" d="M722.2,444.6h75v-30.3h-75V444.6z"/>
				<path class="st11" d="M652.9,549.6h29.3V414.4h-29.3V549.6z"/>
				<path class="st11" d="M746.6,549.6h23.1V414.4h-23.1V549.6z"/>
			</g>
			<g>
				<g>
					<g>
						<path class="st8" d="M104.9,377.6h14.4c1.2,0,1.4-0.9,1.4-2.2c0-0.8-0.1-1.6-0.1-2.5v-8.3c0.1-2.1,0.3-3.8-1.3-3.8h-14.4
							c-1.6,0-3,1.6-3.3,3.8c0,0.3-0.1,0.6-0.1,1v7.4c0,0.9,0.2,1.7,0.5,2.5c0.2,0.6,0.6,1.1,1.1,1.5
							C103.7,377.3,104.3,377.6,104.9,377.6z"/>
						<path class="st0" d="M121.8,365.6v-1h-20.1c0,0.3-0.1,0.6-0.1,1v1.3h20.2V365.6z"/>
						<path class="st0" d="M12.9,514.8c0-9.1,3.1-17.9,8.9-25c5.8-7,13.8-11.9,22.7-13.7c8.9-1.8,18.2-0.4,26.2,3.9
							c8,4.3,14.3,11.2,17.8,19.6c3.5,8.4,4,17.8,1.3,26.5c-2.6,8.7-8.2,16.2-15.8,21.3c-7.6,5.1-16.7,7.3-25.7,6.4
							c-9.1-0.9-17.5-4.9-24-11.3c-3.7-3.6-6.6-8-8.5-12.8C13.9,525.1,12.9,520,12.9,514.8z M32.8,514.8c0,4.5,1.6,8.8,4.4,12.2
							c2.8,3.4,6.8,5.8,11.2,6.7c4.4,0.9,8.9,0.2,12.9-1.9c3.9-2.1,7-5.5,8.7-9.6c1.7-4.1,1.9-8.7,0.6-13c-1.3-4.3-4-8-7.7-10.4
							c-3.7-2.5-8.2-3.6-12.6-3.2c-4.4,0.4-8.6,2.4-11.7,5.6c-1.8,1.8-3.2,3.9-4.2,6.3C33.3,509.8,32.8,512.3,32.8,514.8z"/>
						<path class="st8" d="M32.5,514.8c0-4.6,1.6-9,4.5-12.5c2.9-3.5,6.9-5.9,11.4-6.8s9.1-0.2,13.1,1.9c4,2.1,7.2,5.6,8.9,9.8
							c1.7,4.2,2,8.9,0.7,13.2c-1.3,4.4-4.1,8.1-7.9,10.6c-3.8,2.5-8.3,3.7-12.9,3.2c-4.5-0.4-8.8-2.4-12-5.7
							C34.6,525,32.5,520,32.5,514.8z M39.2,514.8c0,3,1,5.9,2.9,8.3c1.9,2.3,4.6,3.9,7.5,4.5c3,0.6,6,0.1,8.7-1.3
							c2.7-1.4,4.7-3.7,5.9-6.5c1.2-2.8,1.3-5.9,0.4-8.8c-0.9-2.9-2.7-5.4-5.2-7c-2.5-1.7-5.5-2.4-8.5-2.1c-3,0.3-5.8,1.6-7.9,3.7
							C40.5,508.1,39.2,511.4,39.2,514.8L39.2,514.8z"/>
						<path class="st0" d="M32,514.8c0-4.7,1.6-9.2,4.6-12.8c3-3.6,7.1-6.1,11.7-7c4.6-0.9,9.3-0.2,13.5,2c4.1,2.2,7.4,5.8,9.2,10.1
							s2,9.1,0.7,13.6c-1.4,4.5-4.2,8.3-8.1,10.9c-3.9,2.6-8.6,3.8-13.2,3.3c-4.7-0.5-9-2.5-12.3-5.8c-1.9-1.9-3.4-4.1-4.4-6.5
							C32.5,520.1,32,517.5,32,514.8z M33,514.8c0,4.4,1.5,8.7,4.3,12.2c2.8,3.4,6.7,5.8,11.1,6.7c4.4,0.9,8.9,0.2,12.8-1.9
							c3.9-2.1,7-5.5,8.7-9.6c1.7-4.1,1.9-8.7,0.6-12.9c-1.3-4.2-4-7.9-7.7-10.4c-3.7-2.5-8.1-3.6-12.5-3.1
							c-4.4,0.4-8.5,2.4-11.7,5.5C35,504.9,33,509.7,33,514.8z M38.7,514.8c0-3.1,1.1-6.2,3.1-8.6c2-2.4,4.7-4.1,7.8-4.7
							c3.1-0.6,6.2-0.1,9,1.3c2.8,1.5,4.9,3.9,6.1,6.7c1.2,2.9,1.4,6.1,0.4,9.1c-0.9,3-2.8,5.6-5.4,7.3c-2.6,1.7-5.7,2.5-8.8,2.2
							c-3.1-0.3-6-1.7-8.2-3.9C40.1,521.8,38.7,518.4,38.7,514.8z M39.7,514.8c0,2.9,1,5.7,2.8,7.9c1.8,2.2,4.4,3.8,7.2,4.3
							c2.8,0.6,5.8,0.1,8.3-1.2c2.5-1.4,4.5-3.6,5.7-6.2c1.1-2.7,1.3-5.6,0.4-8.4c-0.8-2.8-2.6-5.2-5-6.8c-2.4-1.6-5.3-2.3-8.2-2
							c-2.9,0.3-5.6,1.6-7.6,3.6c-1.2,1.2-2.1,2.5-2.7,4.1C40,511.5,39.7,513.2,39.7,514.8z"/>
						<path class="st0" d="M234.9,511.4c0-9.1,3.1-17.9,8.9-25c5.8-7,13.8-11.9,22.7-13.7c8.9-1.8,18.2-0.4,26.2,3.9
							c8,4.3,14.3,11.2,17.8,19.6c3.5,8.4,4,17.8,1.3,26.5c-2.6,8.7-8.2,16.2-15.8,21.3c-7.6,5.1-16.7,7.3-25.7,6.4
							c-9.1-0.9-17.5-4.9-24-11.3c-3.7-3.6-6.6-8-8.5-12.8C235.9,521.7,234.9,516.6,234.9,511.4z M254.8,511.4
							c0,4.5,1.5,8.8,4.4,12.3c2.8,3.5,6.8,5.8,11.2,6.7c4.4,0.9,8.9,0.2,12.9-1.9c3.9-2.1,7-5.5,8.8-9.7c1.7-4.1,1.9-8.7,0.6-13
							s-4-8-7.8-10.5c-3.7-2.5-8.2-3.6-12.6-3.2c-4.5,0.4-8.6,2.4-11.8,5.6C256.9,501.4,254.9,506.3,254.8,511.4L254.8,511.4z"/>
						<path class="st8" d="M254.5,511.4c0-4.6,1.6-9,4.5-12.5c2.9-3.5,6.9-5.9,11.4-6.8c4.5-0.9,9.1-0.2,13.1,1.9
							c4,2.1,7.2,5.6,8.9,9.8c1.7,4.2,2,8.9,0.7,13.2c-1.3,4.4-4.1,8.1-7.9,10.6c-3.8,2.5-8.3,3.7-12.9,3.2c-4.5-0.4-8.8-2.4-12-5.7
							C256.6,521.6,254.5,516.6,254.5,511.4z M261.2,511.4c0,3,1,5.9,2.9,8.3c1.9,2.3,4.6,3.9,7.5,4.5c3,0.6,6,0.1,8.7-1.3
							c2.7-1.4,4.8-3.7,5.9-6.5c1.2-2.8,1.3-5.9,0.4-8.8c-0.9-2.9-2.7-5.4-5.2-7.1c-2.5-1.7-5.5-2.4-8.5-2.1c-3,0.3-5.8,1.6-7.9,3.8
							C262.6,504.7,261.2,508,261.2,511.4L261.2,511.4z"/>
						<path class="st0" d="M254.1,511.4c0-4.7,1.6-9.2,4.6-12.8c3-3.6,7.1-6.1,11.7-7c4.6-0.9,9.3-0.2,13.5,2
							c4.1,2.2,7.4,5.8,9.2,10.1c1.8,4.3,2,9.1,0.7,13.6c-1.4,4.5-4.2,8.3-8.1,10.9c-3.9,2.6-8.6,3.8-13.2,3.3
							c-4.7-0.5-9-2.5-12.3-5.8c-1.9-1.9-3.4-4.1-4.4-6.5C254.6,516.7,254.1,514.1,254.1,511.4z M255.1,511.4
							c0,4.4,1.5,8.7,4.3,12.2c2.8,3.4,6.7,5.8,11.1,6.6c4.3,0.9,8.9,0.2,12.8-1.9c3.9-2.1,7-5.5,8.7-9.6c1.7-4.1,1.9-8.7,0.6-12.9
							c-1.3-4.2-4-7.9-7.7-10.4c-3.7-2.5-8.1-3.6-12.5-3.1c-4.4,0.4-8.5,2.4-11.7,5.5C257.1,501.5,255.1,506.3,255.1,511.4z
							 M260.7,511.4c0-3.1,1.1-6.1,3.1-8.6c2-2.4,4.7-4.1,7.8-4.7c3.1-0.6,6.2-0.1,9,1.3c2.8,1.5,4.9,3.9,6.1,6.7
							c1.2,2.9,1.3,6.1,0.4,9.1c-0.9,3-2.8,5.6-5.4,7.3c-2.6,1.7-5.7,2.5-8.8,2.2c-3.1-0.3-6-1.7-8.2-3.9c-1.3-1.3-2.3-2.7-2.9-4.4
							C261.1,514.9,260.7,513.2,260.7,511.4z M261.7,511.4c0,2.9,1,5.7,2.9,7.9c1.8,2.2,4.4,3.7,7.2,4.3c2.8,0.6,5.8,0.1,8.3-1.3
							c2.5-1.4,4.5-3.6,5.6-6.2c1.1-2.7,1.2-5.6,0.4-8.4c-0.8-2.8-2.6-5.1-5-6.8c-2.4-1.6-5.3-2.3-8.2-2c-2.9,0.3-5.6,1.6-7.6,3.6
							c-1.2,1.2-2.1,2.5-2.7,4.1C262,508.1,261.7,509.8,261.7,511.4z"/>
						<path class="st7" d="M80,420.9c15.2-26,21.8-54.7,21.8-54.7h13.5c0,0-11.7,39.5-11.7,84.5s30.5,51.1,30.5,51.1h63.1
							c21.6-16.9,17.6-41.3,2.1-54.9c-15.5-13.7-21.4-20.9-21.4-27.4c0-6.5,1.2-11.2,5.3-11.2h52.9c55.8,0,74.2,35.2,79.6,50.2
							c-1.5-1.2-3.2-2.4-4.9-3.6c-36.9-25.2-100.7-12.8-93,50.7h17.2c-4.8,6.7-11,13.1-17.2,13.1h-87c-25.6,0-27.4-11.1-27.4-11.1
							H90.4l-35.7-32.3v-25.2C54.7,449.9,64.8,446.8,80,420.9z"/>
						<path class="st0" d="M107.3,513.4c-1.9-1.4-3.4-3.3-4.2-5.5H90.2l-36-32.5v-25.8l0.3-0.1c3.4-1.1,13.1-8.5,25-28.9
							c15-25.6,21.7-54.3,21.8-54.6l0.1-0.4H116l-0.2,0.6c-0.1,0.4-11.7,39.9-11.7,84.3c0,23,8.2,35.6,15.1,42c4.2,4.1,9.4,7,15,8.6
							H197c9.3-7.3,14.3-16.5,14.6-26.5c0.3-10.1-4.3-20.2-12.6-27.5c-16.1-14.3-21.6-21.2-21.6-27.8c0-5,0.6-11.7,5.8-11.7h52.9
							c56.1,0,74.7,35.4,80.1,50.6l0.6,1.6l-1.3-1c-1.8-1.4-3.3-2.5-4.9-3.5c-10.5-7-22.7-11.2-35.4-12c-12.8-0.8-25.2,2-34.9,7.8
							c-17.1,10.4-24.9,29.5-22,53.9H236l-0.6,0.8c-6.3,8.8-12.2,13.3-17.6,13.3h-87C120.1,519,112.2,517.1,107.3,513.4z M217.4,506
							v-0.4c-3-25,4.9-44.6,22.5-55.3c9.8-6,22.4-8.8,35.5-8c12.8,0.8,25.2,5,35.9,12.2c1.2,0.8,2.3,1.6,3.6,2.6
							c-6-15.7-25-48.3-78.6-48.3h-52.9c-3.3,0-4.8,3.4-4.8,10.7c0,6.2,5.3,13,21.3,27c8.6,7.5,13.3,17.9,13,28.3
							c-0.3,10.4-5.5,19.9-15.1,27.4l-0.1,0.1h-63.4c-0.3-0.1-7.9-1.6-15.5-8.8c-12.8-11.9-15.4-29.8-15.4-42.8
							c0-41.5,10.1-78.7,11.6-84h-12.4c-0.9,3.5-7.6,30.3-21.8,54.4c-13.8,23.5-23.3,28.4-25.2,29.2V475L90.7,507h13.4l0.1,0.4
							c0,0,0.5,2.7,4,5.3c3.3,2.5,9.9,5.4,22.9,5.4h86.9c4.8,0,10.4-4.2,16.2-12.1L217.4,506z"/>
						<path class="st0" d="M308.8,449.1c1.8,1.2,3.3,2.4,4.9,3.6c0.8,2.2,1.5,4.4,1.9,6.7v24.4h-73.3c-2.6,5.6-5.7,10.9-9.3,16
							h-17.3C208.2,436.4,271.9,424,308.8,449.1z"/>
						<path class="st7" d="M310.8,451.4c1.7,1.2,3.3,2.4,4.9,3.6c31.7,24,28.6,47.1,28.6,47.1H217.8
							C210.1,438.6,273.9,426.2,310.8,451.4z"/>
						<path class="st0" d="M217.3,502.1c-3-25,4.9-44.6,22.5-55.3c9.8-6,22.4-8.8,35.5-8c12.8,0.8,25.2,5,35.9,12.2
							c1.6,1.1,3.1,2.2,4.9,3.6c9.1,6.8,21.1,18.1,26.4,32.8c3.2,8.8,2.5,14.6,2.5,14.8v0.4H217.5L217.3,502.1z M341.4,487.6
							c-5.3-14.4-17-25.5-26-32.3c-1.8-1.4-3.3-2.5-4.9-3.5c-10.5-7-22.7-11.2-35.4-11.9c-12.8-0.8-25.2,2-34.9,7.8
							c-17.1,10.4-24.9,29.5-22,53.9h125.6C344,496.8,343.2,492,341.4,487.6L341.4,487.6z"/>
						<path class="st7" d="M104.9,520.8c0,0,1.5-39.2-36.9-53.6S3.7,485.8,3.7,485.8s7.5,13.7,25.7,12c18.2-1.7,32.6-5.3,47.1,11.2
							C91.8,526.7,96.6,521.8,104.9,520.8z"/>
						<path class="st0" d="M76,509.4c-12.9-14.7-25.4-13.3-41.3-11.6c-1.8,0.2-3.6,0.4-5.4,0.6C11,500.1,3.2,486.2,3.1,486.1
							L3,485.8l0.2-0.3c5.1-6,11.1-11,17.9-14.9c10.4-6,27-11.5,47-4c20,7.5,29.1,21.9,33.1,32.5c2.7,6.9,4,14.2,4.1,21.6v0.4h-0.4
							c-1.3,0.2-2.4,0.4-3.6,0.7c-1.8,0.4-3.6,0.7-5.4,0.8C91.1,522.7,85.5,520.3,76,509.4z M100.4,499.6
							c-4-10.5-12.9-24.5-32.6-31.9c-19.6-7.4-35.9-2-46.1,3.9c-6.6,3.8-12.5,8.7-17.4,14.4c1.2,1.9,8.9,13,25,11.4l5.4-0.6
							c15.5-1.7,28.9-3.1,42.1,11.9c12.9,14.7,18.2,13.6,24.3,12.2c1-0.2,2.1-0.4,3.2-0.6C104.2,513.2,102.8,506.2,100.4,499.6
							L100.4,499.6z"/>
						
							<linearGradient id="SVGID_1_" gradientUnits="userSpaceOnUse" x1="54.7231" y1="14323.6631" x2="86.3402" y2="14323.6631" gradientTransform="matrix(1 0 0 -1 0 14681.042)">
							<stop  offset="0" style="stop-color:#FFCF00;stop-opacity:0"/>
							<stop  offset="1" style="stop-color:#FFCF00;stop-opacity:0.8"/>
						</linearGradient>
						<path class="st9" d="M86.3,342.1v30.6L54.7,381v-47.3L86.3,342.1z"/>
						<path class="st0" d="M96.4,341.1v32.6c-3.2,0.3-6.6,0.5-10,0.5v-33.6C89.8,340.6,93.1,340.8,96.4,341.1z"/>
						<path class="st7" d="M130.3,357.4c0,7.9-14.5,14.6-33.9,16.3v-32.6C115.8,342.8,130.3,349.4,130.3,357.4z"/>
						<path class="st0" d="M95.9,340.5l0.5,0.1c20.2,1.8,34.4,8.7,34.4,16.8c0,8.1-14.1,15-34.4,16.8h-0.5V340.5z M96.9,373.1
							c19.1-1.8,32.9-8.4,32.9-15.8c0-7.4-13.8-14-32.9-15.8V373.1z"/>
						<path class="st0" d="M261.1,411.6c17.2,0-7.4-19.5-15.1-22.8c-7.7-3.3-14.5,2.6-25.5,2.6h-15.1c-5.3,0-5-2.4-11.2-2.4
							s-12.7,11.4-11.1,15.6c1.6,4.2,3,6.8,3,6.8L261.1,411.6z"/>
						<path class="st0" d="M122.1,360c1.1,0,2.2-0.3,3.1-0.9c0.9-0.6,1.6-1.5,2-2.5c0.4-1,0.5-2.1,0.3-3.2c-0.2-1.1-0.7-2.1-1.5-2.8
							c-0.8-0.8-1.8-1.3-2.8-1.5c-1.1-0.2-2.2-0.1-3.2,0.3c-1,0.4-1.9,1.1-2.5,2c-0.6,0.9-0.9,2-0.9,3.1c0,1.5,0.6,2.9,1.6,3.9
							C119.2,359.5,120.6,360,122.1,360z"/>
						<path class="st0" d="M54.7,463.9c5.7,1,11.3,2.7,16.5,5.2c2.6,1.2,5,2.6,7.4,4.2c4.7,3.2,8.9,7,12.5,11.4
							c0.9,1.1,1.7,2.3,2.6,3.4l1.2,1.8c0.4,0.6,0.8,1.2,1.1,1.8c2.9,5,5.5,10.2,7.5,15.7c-0.8-5.9-2.6-11.6-5.2-16.9
							c-2.7-5.4-6.3-10.3-10.7-14.4c-4.5-4.1-9.7-7.3-15.3-9.4C66.6,464.5,60.7,463.6,54.7,463.9z"/>
						<path class="st0" d="M170.4,556.4c94.1,0,170.4-1.1,170.4-2.4c0-1.3-76.3-2.4-170.4-2.4C76.3,551.6,0,552.7,0,554
							S76.3,556.4,170.4,556.4z"/>
						<path class="st0" d="M638.5,554c94.1,0,170.4-1.1,170.4-2.4c0-1.3-76.3-2.4-170.4-2.4c-94.1,0-170.4,1.1-170.4,2.4
							C468.1,552.9,544.4,554,638.5,554z"/>
						<g>
							<g>
								<g>
									<path class="st0" d="M382.2,560.4c86.8,0,157.2-3.6,157.2-8.1c0-4.5-70.4-8.1-157.2-8.1c-86.8,0-157.2,3.6-157.2,8.1
										C225,556.8,295.4,560.4,382.2,560.4z"/>
									<path class="st8" d="M548.1,417.9c-4.3,28.9-35.8,103.6-48.2,132.3c-0.2,0-0.4,0-0.6,0c-28.8,3.9-70.6,6.3-117.1,6.3
										c-42.8,0-81.5-2.1-109.9-5.4h-0.5c-5.8-20.3-18.3-63-20.3-67.7c-2.5-6.3-5.5-5.5-13.3-14.4l-34.2-51.8h220.2V270
										c0,0,26.3,41.8,36.1,49c0,0-3.1-19.3-3.4-26.2c-0.3-7-1.4-16.5-1.4-16.5c-14.5-15.5-22.8-35.7-23.1-56.9
										c-0.3-35.1,8.9-63.3,30.7-59.6c21.8,3.7,24.6,51.7,30,63.6c5.4,11.8,19.3,21.8,26.4,47.5c7.2,25.7,26.4,73.9,28.6,81
										C550.3,359,553.5,381.9,548.1,417.9z"/>
									<path class="st0" d="M551.4,374.1c-0.5-13.6-2.3-20.5-2.8-22.3c-0.7-2.3-3-8.5-6.3-17.1c-6.9-18.5-17.4-46.3-22.3-63.9
										c-4.7-16.8-12.3-27.1-18.5-35.2c-3.1-3.8-5.8-7.9-8-12.3c-1.8-5.1-3.2-10.3-4.1-15.6c-2-9.2-4.5-20.7-8.5-30
										c-4.7-11.1-10.5-17-17.7-18.3c-2.8-0.6-5.8-0.5-8.6,0.3c-2.8,0.7-5.4,2.1-7.6,4c-5.2,4.4-9.1,11.8-11.7,22
										c-2.5,11.1-3.7,22.4-3.4,33.8c0.3,14.7,4.4,29.1,11.9,41.8c3.2,5.5,7,10.7,11.4,15.3c0.1,1.3,1.1,9.9,1.4,16.3
										c0.2,5.9,2.5,20.7,3.2,25.1c-10.3-8.8-34.8-47.7-35.1-48l-0.8-1.4v148.2H203.3l34.7,52.6c2.4,2.7,5,5.3,7.8,7.5
										c2.4,1.6,4.3,4,5.4,6.7c2,4.7,14.3,47.2,20.1,67.5h1c-5.8-20.3-18.3-63.1-20.3-68c-1.1-2.9-3.1-5.3-5.7-7.1
										c-2.7-2.2-5.3-4.6-7.6-7.2l-33.7-51.2h219.8V271.6c4.7,7.4,26.5,41.2,35.4,47.8l0.9,0.7l-0.2-1.1c0-0.2-3.1-19.3-3.3-26.2
										c-0.3-6.9-1.4-16.5-1.4-16.5v-0.2l-0.1-0.1c-4.4-4.6-8.2-9.7-11.4-15.2c-7.4-12.5-11.5-26.8-11.8-41.4
										c-0.3-26.8,5.1-46.9,14.8-55.1c2.1-1.8,4.6-3.1,7.2-3.8c2.7-0.7,5.5-0.8,8.2-0.2c6.9,1.2,12.5,7,17.1,17.7
										c3.9,9.2,6.4,20.7,8.4,29.8c0.9,5.4,2.3,10.6,4.2,15.8c2.3,4.4,5,8.6,8.1,12.5c6.1,8.1,13.7,18.3,18.3,34.9
										c4.9,17.6,15.4,45.5,22.3,64c3.1,8.3,5.5,14.8,6.3,17.1c0.3,0.9,6.4,22.3,0,65.8c-4.2,28.7-36,103.9-48.3,132.4h0.5h0.6
										c12.5-28.9,43.9-103.5,48.2-132.1C551,403.6,551.9,388.8,551.4,374.1z"/>
									<g>
										<g>
											<g>
												<rect x="208" y="11.2" class="st8" width="213" height="460.3"/>
												<g>
													<path class="st10" d="M412.1,385.2c3.1,0,6.1-0.3,9-0.8v-5.8c-2.9,0.6-5.9,0.9-9,0.9h-26.3v-3.9h25.5
														c3.4,0,6.6-0.4,9.7-1.2v-7.9c-3.1,1-6.3,1.5-9.7,1.5h-12.2v-24.7c0-13.5,9.4-24.9,21.9-28v-1.9
														c-13.6,3.1-23.8,15.3-23.8,29.9V368h-11.4v-24.5c0-7.2-3.6-13.8-9.7-17.6l-9.6-6.1l6.5-12.4H421v-1.9H374l21.3-40.6
														l8.3,4.9c4.7,2.7,10.1,4.2,15.5,4.2h2v-7.6h-2c-4.1,0-8.1-1.1-11.7-3.2l-8.6-5l19.1-36.4l3.1,1.8v-28.2l-7.8,14.8
														l-27.9-16.3l12.5-25.7l23.2,14.7v-6.7l-20.7-13.1l6.7-13.9l14,9.1v-2.3l-13.2-8.6l13.2-27.2V98.8l-28.8,59.3
														l-24.4-15.4L398,81.9l23,11.6v-6.4l-20.5-10.3L421,35.4v-9.2l-3.1-1.5l-16.8,33.9l-99.9-47.2h-13.3l83.4,39.4l-30,5
														c-12.4,2-23,9.5-29.2,20.5l-12.9,23.2l-47.3-29.9l8.8-1.3c5.1-0.8,9.3-4.2,11.2-8.9l5.6-14.5c1.7-4.3,1.1-9.2-1.5-13
														l-5.7-8.5l4.8-11.8h-10.2L243.4,64l-29.2-18.5c7.5-14.1,4.1-26-0.9-34.2H208v2.1c4.4,6.8,7.6,16.9,1.4,29.1l-1.4-0.9
														v6.7l26.1,16.5L220.8,98L208,90.5v8.8l10,5.8L208,130v5.1l11.6-29l5.4,3.2l-15.6,38.4l-1.4-0.8v29.4l6.8-16.6
														l53.5,31.2l-5.8,13.2c-4.6,10.5-0.9,22.5,8.8,28.6l33.3,21l-10.2,20.6l-60-38l-1.2-33.9c-0.1-4.2-2.3-8.1-5.7-10.5
														L208,178.4v2.3l18.4,12.7c2.9,2,4.8,5.4,4.9,9l1.1,32.6L208,219.5v6.7l30.7,19.4l0.8,10.6c0.3,4,1.9,7.7,4.5,10.6
														L232.5,294c-0.8,1.8-0.4,3.9,1,5.3c0.9,0.9,2.1,1.4,3.3,1.4c0.7,0,1.3-0.1,2-0.4l28.4-12.4c0.6,0.6,1.2,1.1,1.9,1.4
														L257.9,316H208v9.5h11.5l-0.8,15.2H208v1.9h10.6l-0.7,14.1c-0.1,1.2,0.3,2.3,1.1,3.1c0.8,0.8,1.9,1.3,3,1.3h29.2
														l-14.9,30.1l-23,19.5c-1.7,1.5-3.5,2.7-5.4,3.8v8.5c3.7-1.6,7.2-3.7,10.4-6.4l9.6-8.1L208,448.4v23.1h189.1l-11.3-23.2
														v-63.1H412.1z M269.4,25.2l5,7.4c2.2,3.3,2.7,7.6,1.3,11.3l-5.6,14.5c-1.6,4.1-5.3,7.1-9.7,7.8l-8.1,1.2L269.4,25.2z
														 M373,330.6c4.4,2.8,7.1,7.6,7.1,12.8v93.1l-36-74.2l19.7-37.6L373,330.6z M310.9,320.7c8-3.7,15-9.4,20.2-16.6
														l24.8,15.7L339,351.8l-3.5-7.1C330.3,334,321.4,325.6,310.9,320.7z M333.5,362.2l-2.6,4.9l-7.6-15.6
														c-6.3-13-19.7-21.4-34.2-21.4h-14l2.3-4.7h12.2c15.8,0,30.5,9.2,37.4,23.4L333.5,362.2z M346.8,227.8l-16.3-9.5
														l18.3-36.9l15.7,9.2L346.8,227.8z M366.1,191.6l7.7,4.5l-18,37l-7.4-4.3L366.1,191.6z M352.5,240L327,292.5
														c-0.3,0.6-0.6,1.1-0.9,1.7l-6.7-4.2l25.8-54.3L352.5,240z M364.4,303.3l-4.9-2.7c-4.1-2.3-5.7-7.4-3.7-11.6l5.1-10.4
														c1.1-2.3,3.1-3.9,5.5-4.6c2.4-0.7,5-0.3,7.1,1.1l4.2,2.7L364.4,303.3z M378.7,276l-4-2.6c-2.6-1.6-5.7-2.1-8.7-1.3
														c-2.9,0.8-5.4,2.9-6.7,5.6l-5.1,10.4c-2.5,5.1-0.6,11.3,4.4,14.1l4.9,2.7l-5.1,9.7l-24.3-15.4c0.5-0.9,1-1.7,1.4-2.6
														l25.2-51.9l26.4,15.4L378.7,276z M409.7,217.1l-19.1,36.4L364,237.9l18-37L409.7,217.1z M389.7,163.3l-12.6,26
														l-7.8-4.5l12.5-26.4L389.7,163.3z M380.3,157.3l-12.6,26.5l-15.6-9.1l13.3-26.8L380.3,157.3z M317.1,78.9
														c5.3-9.5,14.4-15.9,25.1-17.7l38.1-6.3l18.3,8.6l-9.4,19.1l-13.3-6.7c-8.8-4.4-19.3-1.2-24,7.4l-1.8,3.4
														c-2.2,4-5.8,6.8-10.2,7.9c-4.4,1.1-8.9,0.4-12.7-2.1l-13-8.4L317.1,78.9z M313.2,85.8l12.9,8.3
														c2.9,1.9,6.3,2.9,9.8,2.9c1.5,0,3-0.2,4.4-0.6c4.9-1.3,8.9-4.4,11.4-8.8l1.8-3.4c4.2-7.7,13.6-10.6,21.5-6.7l13.3,6.7
														l-26.9,54.3L304,102.3L313.2,85.8z M352.3,139.6l-4.4,5.4c-1.4,1.7-3.9,2.2-5.8,1.1l-6.3-3.6c-2-1.1-2.8-3.6-2-5.7
														l2.9-7.1L352.3,139.6z M335.1,128.7l-3,7.4c-1.2,3,0,6.5,2.8,8.1l6.3,3.6c1,0.6,2.1,0.9,3.2,0.9c1.9,0,3.7-0.8,5-2.4
														l4.5-5.6l5,3.2l-13.4,27l-70.6-41.3l15.7-29L335.1,128.7z M249.4,74.5l38,24l-15.7,29.2l-35.4-20.7L249.4,74.5z
														 M222.5,98.9l13.3-33.1l5.5,3.5l-13.3,32.8L222.5,98.9z M217.7,152.4l15.6-38.4l2.6,1.5l-4.3,45L217.7,152.4z
														 M233.4,161.6l4.3-45l104.5,61l-18.3,36.9L233.4,161.6z M273.3,229.3c-8.1-5.1-11.1-15.1-7.3-23.8l5.6-12.8l49,28.6
														l-14.3,28.8L273.3,229.3z M327.1,225.1l16.5,9.6L317.8,289l-17-10.8L327.1,225.1z M298.3,283.3L323,299
														c-7.8,10.5-20.2,17-33.5,17h-7.5L298.3,283.3z M238,298.6c-1.3,0.6-2.5,0.1-3.2-0.6c-0.7-0.7-1.2-1.9-0.6-3.2
														l11.3-26.5c0.6,0.5,1.2,1,1.9,1.5l18.2,12.2c-0.1,0.4-0.1,0.9-0.1,1.3c0,1.1,0.3,2.1,0.7,2.9L238,298.6z M267.3,283.4
														c0-2.6,2.1-4.7,4.7-4.7c2.6,0,4.7,2.1,4.7,4.7s-2.1,4.7-4.7,4.7C269.4,288.1,267.3,286,267.3,283.4z M271,289.9
														c0.3,0.1,0.7,0.1,1.1,0.1c3.7,0,6.6-3,6.6-6.6s-3-6.6-6.6-6.6c-2.5,0-4.7,1.4-5.8,3.5l-17.8-12
														c-4.1-2.8-6.7-7.2-7-12.1l-0.7-9.2l51.1,32.3L273.6,316H260L271,289.9z M222.1,359.1c-0.6,0-1.2-0.3-1.7-0.7
														c-0.4-0.5-0.7-1.1-0.6-1.7l1.6-31.3h47.5l-2.3,4.7h-0.3v0.5l-14.1,28.5H222.1z M224.5,432.2l7.1,3.4
														c1.3,0.6,2.3,1.7,2.8,3.1c0.5,1.4,0.4,2.9-0.3,4.2l-5.8,11.3c-1.3,2.5-4.2,3.6-6.7,2.5l-7.7-3L224.5,432.2z
														 M277.5,468.9H235c-9.1,0-17.9-1.8-26.1-5.1l4.1-8.3l7.9,3.1c0.9,0.3,1.8,0.5,2.7,0.5c2.6,0,5.2-1.5,6.4-3.9l5.8-11.3
														c0.9-1.8,1.1-3.8,0.4-5.6c-0.6-1.9-2-3.4-3.7-4.2l-7.1-3.4l9.2-18.5l22.5,37c4.6,7.5,12.9,12.2,21.7,12.2h2.8
														L277.5,468.9z M278.8,459.3c-8.2,0-15.9-4.3-20.1-11.3l-23.1-38l38.6-78h15c13.7,0,26.5,8,32.5,20.3l8.2,16.9l-4.2,8.1
														l-14.2-8.7c-3.8-2.3-8.4-3-12.6-1.8c-4.3,1.2-7.9,4.1-9.9,8.1l-25.6,50c-2.5,5-2.3,10.8,0.6,15.6
														c2.9,4.8,8,7.6,13.6,7.6h11l-5.9,11.2H278.8z M322.9,382.4l-31.5,60.1h-13.9c-3.6,0-6.9-1.8-8.7-4.9
														c-1.9-3.1-2-6.8-0.4-10l25.6-50c1.3-2.6,3.6-4.4,6.4-5.2c2.8-0.8,5.7-0.4,8.1,1.1L322.9,382.4z M288.2,468.9l50.5-96.1
														l31.3,64.4c-2.3,13.4-10.8,25.2-22.9,31.7H288.2z M350.7,468.9c10.4-6.5,17.8-17,20.5-28.9l14,28.9H350.7z"/>
													<path class="st10" d="M214.8,269.2l-6.8-4.1v2.2l5.8,3.5c2.7,1.6,3.8,4.9,2.6,7.7l-8.4,20.7v5l10.2-25
														C219.7,275.5,218.3,271.3,214.8,269.2z"/>
												</g>
												<path class="st11" d="M412.2,58H216.9c-4.9,0-8.8-4-8.8-8.8V11.2h213v37.9C421,54,417.1,58,412.2,58z"/>
											</g>
											<path class="st208" d="M399.4,0.4H229.7c-17.9,0-32.5,14.5-32.5,32.5v417c0,17.9,14.5,32.5,32.5,32.5h169.7
												c17.9,0,32.5-14.5,32.5-32.5v-417C431.9,15,417.3,0.4,399.4,0.4z M421,449.9c0,11.9-9.7,21.6-21.6,21.6H229.7
												c-11.9,0-21.6-9.7-21.6-21.6v-417c0-11.9,9.7-21.6,21.6-21.6h25.4v2.3c0,6,4.9,10.9,10.9,10.9h97.1
												c6,0,10.9-4.9,10.9-10.9v-2.3h25.4c11.9,0,21.6,9.7,21.6,21.6V449.9z"/>
											<g>
												<g>
													<g>
														<g>
															<path class="st10" d="M347.4,350.2c6.5,4.1,8.3,12.7,4.2,19.2c-4.1,6.5-12.7,8.3-19.2,4.2
																c-6.5-4.1-8.3-12.7-4.2-19.2C332.3,347.9,340.9,346,347.4,350.2z"/>
														</g>
													</g>
												</g>
											</g>
											<g>
												<path class="st11" d="M394.8,411.6H234.2c-6.3,0-11.4,5.1-11.4,11.4v20.5c0,6.3,5.1,11.3,11.4,11.3h160.6
													c6.3,0,11.4-5.1,11.4-11.3v-20.5C406.2,416.7,401.1,411.6,394.8,411.6z"/>
												<text transform="matrix(1 0 0 1 234.3079 431.056)" class="st8 st209 st210">Your order is on the way</text>
												<path class="st7" d="M234.2,442.6v-8.4h3.4c2.4,0,3.1,1.1,3.1,2.4c0.1,0.5-0.1,1-0.3,1.4c-0.3,0.4-0.7,0.7-1.1,0.8v0.1
													c0.9,0.3,1.3,0.9,1.5,2l0.4,1.7h-1.4l-0.3-1.6c0-0.2-0.1-0.4-0.2-0.6c-0.1-0.2-0.2-0.4-0.4-0.5
													c-0.2-0.1-0.4-0.2-0.6-0.3c-0.2-0.1-0.4-0.1-0.7,0h-2v3.1H234.2z M235.6,438.3h1.9c1.3,0,1.8-0.6,1.8-1.4
													c0-0.8-0.5-1.4-1.8-1.4h-1.9V438.3z"/>
												<path class="st7" d="M241.5,439.6c0-0.4,0-0.9,0.2-1.3c0.1-0.4,0.4-0.8,0.7-1.1c0.3-0.3,0.7-0.5,1.1-0.7
													c0.4-0.1,0.8-0.2,1.3-0.2c0.4,0,0.8,0,1.2,0.2c0.4,0.1,0.7,0.4,1,0.7c0.3,0.3,0.5,0.6,0.6,1c0.1,0.4,0.2,0.8,0.1,1.2
													c0,0.2,0,0.3,0,0.5h-4.8c0,0.2,0,0.5,0.1,0.7c0.1,0.2,0.2,0.4,0.4,0.6c0.2,0.2,0.4,0.3,0.6,0.4c0.2,0.1,0.5,0.1,0.7,0.1
													c0.3,0,0.6,0,0.8-0.2c0.3-0.1,0.5-0.3,0.6-0.6h1.3c-0.2,0.6-0.6,1-1.1,1.4c-0.5,0.3-1.1,0.5-1.7,0.4
													c-0.4,0-0.9,0-1.3-0.2c-0.4-0.2-0.8-0.4-1.1-0.7c-0.3-0.3-0.5-0.7-0.7-1.1C241.6,440.5,241.5,440,241.5,439.6z
													 M246.4,439c0-0.2-0.1-0.4-0.1-0.6c-0.1-0.2-0.2-0.4-0.4-0.5c-0.2-0.2-0.3-0.3-0.5-0.3c-0.2-0.1-0.4-0.1-0.6-0.1
													c-0.4,0-0.9,0.2-1.2,0.5c-0.3,0.3-0.5,0.7-0.6,1.1H246.4z"/>
												<path class="st7" d="M248.4,439.6c0-0.4,0-0.8,0.1-1.2c0.1-0.4,0.3-0.7,0.6-1c0.3-0.3,0.6-0.5,1-0.7
													c0.4-0.2,0.8-0.2,1.2-0.2c0.4,0,0.8,0,1.2,0.2c0.4,0.2,0.7,0.5,0.9,0.8h0.1l0.1-0.8h1.2v6.1h-1.2l-0.1-0.9h-0.1
													c-0.2,0.4-0.6,0.6-0.9,0.8c-0.4,0.2-0.8,0.3-1.2,0.2c-0.4,0-0.8-0.1-1.2-0.3c-0.4-0.2-0.7-0.4-1-0.7
													c-0.3-0.3-0.5-0.7-0.6-1C248.4,440.4,248.4,440,248.4,439.6z M253.5,439.6c-0.1-0.4-0.2-0.7-0.5-0.9
													c-0.2-0.3-0.5-0.5-0.9-0.6c-0.3-0.1-0.7-0.1-1,0c-0.3,0.1-0.6,0.3-0.9,0.6c-0.2,0.3-0.4,0.6-0.4,0.9
													c-0.1,0.4,0,0.7,0.1,1c0.1,0.3,0.4,0.6,0.7,0.8c0.3,0.2,0.6,0.3,1,0.3c0.3,0,0.6,0,0.8-0.1c0.3-0.1,0.5-0.3,0.7-0.5
													c0.2-0.2,0.3-0.5,0.4-0.7C253.5,440.1,253.5,439.9,253.5,439.6z"/>
												<path class="st7" d="M255.7,439.6c0-0.4,0-0.9,0.2-1.3c0.1-0.4,0.4-0.8,0.7-1.1c0.3-0.3,0.7-0.5,1.1-0.7
													c0.4-0.1,0.8-0.2,1.3-0.2c0.7-0.1,1.3,0.1,1.8,0.5c0.5,0.4,0.9,1,1,1.6h-1.3c-0.1-0.4-0.3-0.7-0.6-0.9
													c-0.3-0.2-0.6-0.3-1-0.3c-1,0-1.8,0.7-1.8,2.2c0,1.4,0.7,2.2,1.8,2.2c0.4,0,0.7-0.1,1-0.3c0.3-0.2,0.5-0.5,0.6-0.9h1.3
													c-0.1,0.7-0.5,1.2-1,1.6c-0.5,0.4-1.2,0.6-1.8,0.5c-0.4,0-0.8,0-1.2-0.2c-0.4-0.1-0.8-0.4-1.1-0.7
													c-0.3-0.3-0.5-0.7-0.7-1C255.8,440.4,255.7,440,255.7,439.6z"/>
												<path class="st7" d="M262.6,442.6v-8.4h1.3v3.2h0.2c0.3-0.4,0.8-0.8,1.3-0.9c0.5-0.2,1.1-0.1,1.6,0c0.5,0.2,1,0.5,1.3,1
													c0.3,0.5,0.4,1,0.4,1.6v3.5h-1.3v-3.5c0-1.1-0.6-1.7-1.5-1.7c-0.3,0-0.5,0-0.7,0.1c-0.2,0.1-0.4,0.2-0.6,0.4
													c-0.2,0.2-0.3,0.4-0.4,0.6c-0.1,0.2-0.1,0.5-0.1,0.7v3.2L262.6,442.6z"/>
												<path class="st7" d="M269.7,434.9c0-0.2,0-0.3,0.1-0.5c0.1-0.1,0.2-0.2,0.4-0.3c0.2-0.1,0.3-0.1,0.5-0.1
													c0.2,0,0.3,0.1,0.4,0.2c0.1,0.1,0.2,0.3,0.2,0.4c0,0.2,0,0.3-0.1,0.5c-0.1,0.2-0.2,0.3-0.3,0.4
													c-0.1,0.1-0.3,0.1-0.5,0.1c-0.1,0-0.2,0-0.3-0.1c-0.1,0-0.2-0.1-0.3-0.2c-0.1-0.1-0.1-0.2-0.2-0.3
													C269.7,435.1,269.7,435,269.7,434.9z M269.8,442.6v-6.1h1.3v6.1H269.8z"/>
												<path class="st7" d="M272.3,442.6v-3.3c0-0.4,0-0.8,0.1-1.2c0.1-0.4,0.4-0.7,0.6-1c0.3-0.3,0.6-0.5,1-0.6
													c0.4-0.1,0.8-0.2,1.2-0.1c1.9,0,3,0.8,3,2.8v3.4H277v-3.4c0-0.2,0-0.5-0.1-0.7c-0.1-0.2-0.2-0.4-0.4-0.6
													c-0.2-0.2-0.4-0.3-0.6-0.4c-0.2-0.1-0.5-0.1-0.7-0.1c-0.2,0-0.5,0-0.7,0.1c-0.2,0.1-0.4,0.2-0.6,0.4
													c-0.2,0.2-0.3,0.4-0.4,0.6c-0.1,0.2-0.1,0.5-0.1,0.7v3.3H272.3z"/>
												<path class="st7" d="M279.6,443h1.3c0,0.7,0.5,1,1.5,1c0.3,0,0.5,0,0.7-0.1c0.2-0.1,0.5-0.2,0.6-0.4
													c0.2-0.2,0.3-0.4,0.4-0.6c0.1-0.2,0.1-0.5,0.1-0.7v-0.8h-0.1c-0.2,0.4-0.6,0.6-0.9,0.8c-0.4,0.2-0.8,0.3-1.2,0.2
													c-0.7-0.1-1.4-0.4-1.9-1c-0.5-0.5-0.8-1.3-0.8-2c0-0.7,0.3-1.5,0.8-2c0.5-0.5,1.2-0.9,1.9-1c0.4,0,0.8,0,1.2,0.2
													c0.4,0.2,0.7,0.5,0.9,0.8h0.1l0.1-0.9h1.2v5.3c0,0.4,0,0.9-0.2,1.2c-0.1,0.4-0.4,0.8-0.7,1.1c-0.3,0.3-0.7,0.5-1.1,0.7
													c-0.4,0.1-0.8,0.2-1.3,0.1C280.5,445,279.6,444.3,279.6,443z M284.4,439.4c0-0.2,0-0.5-0.1-0.7
													c-0.1-0.2-0.2-0.4-0.4-0.6c-0.2-0.2-0.4-0.3-0.6-0.4c-0.2-0.1-0.5-0.1-0.7-0.1c-0.3,0-0.5,0-0.8,0.1
													c-0.2,0.1-0.5,0.2-0.7,0.4c-0.2,0.2-0.4,0.4-0.5,0.6c-0.1,0.2-0.2,0.5-0.2,0.8c0,0.3,0.1,0.5,0.2,0.8
													c0.1,0.2,0.3,0.5,0.5,0.6c0.2,0.2,0.4,0.3,0.7,0.4c0.3,0.1,0.5,0.1,0.8,0.1c0.2,0,0.5,0,0.7-0.1
													c0.2-0.1,0.4-0.2,0.6-0.4c0.2-0.2,0.3-0.4,0.4-0.6C284.3,439.9,284.4,439.6,284.4,439.4z"/>
												<path class="st7" d="M289.9,434.9c0-0.2,0-0.3,0.1-0.5c0.1-0.1,0.2-0.2,0.4-0.3c0.2-0.1,0.3-0.1,0.5-0.1
													c0.2,0,0.3,0.1,0.4,0.2s0.2,0.3,0.2,0.4c0,0.2,0,0.3-0.1,0.5c-0.1,0.2-0.2,0.3-0.3,0.4c-0.1,0.1-0.3,0.1-0.5,0.1
													c-0.1,0-0.2,0-0.3-0.1c-0.1,0-0.2-0.1-0.3-0.2c-0.1-0.1-0.1-0.2-0.2-0.3C289.9,435.1,289.9,435,289.9,434.9z M290,442.6
													v-6.1h1.3v6.1H290z"/>
												<path class="st7" d="M292.5,442.6v-3.3c0-0.4,0-0.8,0.1-1.2c0.1-0.4,0.4-0.7,0.6-1c0.3-0.3,0.6-0.5,1-0.6
													c0.4-0.1,0.8-0.2,1.2-0.1c1.9,0,3,0.8,3,2.8v3.4h-1.3v-3.4c0-0.2,0-0.5-0.1-0.7c-0.1-0.2-0.2-0.4-0.4-0.6
													c-0.2-0.2-0.4-0.3-0.6-0.4c-0.2-0.1-0.5-0.1-0.7-0.1c-0.2,0-0.5,0-0.7,0.1c-0.2,0.1-0.4,0.2-0.6,0.4
													c-0.2,0.2-0.3,0.4-0.4,0.6c-0.1,0.2-0.1,0.5-0.1,0.7v3.3H292.5z"/>
												<path class="st7" d="M302.6,440.4c0,0,0-0.2,0-0.2h1.4v0.1c0,0.8,0.5,1.3,1.5,1.3c0.2,0,0.4,0,0.6-0.1
													c0.2-0.1,0.4-0.2,0.5-0.4c0.1-0.2,0.3-0.3,0.3-0.6c0.1-0.2,0.1-0.4,0.1-0.6c0-0.2,0-0.4-0.1-0.6
													c-0.1-0.2-0.2-0.4-0.3-0.5c-0.1-0.2-0.3-0.3-0.5-0.4c-0.2-0.1-0.4-0.1-0.6-0.1c-0.3,0-0.6,0-0.8,0.2
													c-0.3,0.1-0.5,0.3-0.7,0.5l-1.2-0.2l0.2-4.6h4.8v1.2h-3.7l-0.1,2.4h0.1c0.5-0.4,1.1-0.5,1.7-0.5c0.4,0,0.7,0,1,0.2
													c0.3,0.1,0.6,0.3,0.9,0.6c0.2,0.3,0.4,0.6,0.6,0.9c0.1,0.3,0.2,0.7,0.1,1c0,0.4-0.1,0.8-0.2,1.1
													c-0.1,0.4-0.4,0.7-0.6,0.9c-0.3,0.3-0.6,0.5-1,0.6c-0.4,0.1-0.7,0.2-1.1,0.2C303.4,442.8,302.6,441.7,302.6,440.4z"/>
												<path class="st7" d="M312.5,442.6v-8.4h2l2.5,6.5h0.1l2.5-6.5h2v8.4h-1.3v-6.3h-0.1l-2.4,6.3h-1.4l-2.4-6.3h-0.1v6.3
													H312.5z"/>
												<path class="st7" d="M322.7,434.9c0-0.2,0-0.3,0.1-0.5c0.1-0.1,0.2-0.2,0.4-0.3c0.2-0.1,0.3-0.1,0.5-0.1
													c0.2,0,0.3,0.1,0.4,0.2c0.1,0.1,0.2,0.3,0.2,0.4c0,0.2,0,0.3,0,0.5c-0.1,0.2-0.2,0.3-0.3,0.4c-0.1,0.1-0.3,0.1-0.5,0.1
													c-0.1,0-0.2,0-0.3,0c-0.1,0-0.2-0.1-0.3-0.2c-0.1-0.1-0.1-0.2-0.2-0.3C322.7,435.1,322.7,435,322.7,434.9z M322.8,442.6
													v-6.1h1.3v6.1H322.8z"/>
												<path class="st7" d="M325.3,442.6v-3.3c0-0.4,0-0.8,0.2-1.2c0.1-0.4,0.4-0.7,0.7-1c0.3-0.3,0.6-0.5,1-0.6
													c0.4-0.1,0.8-0.2,1.2-0.1c1.9,0,3,0.9,3,2.8v3.4H330v-3.4c0-0.2,0-0.5-0.1-0.7c-0.1-0.2-0.2-0.4-0.4-0.6
													c-0.2-0.2-0.4-0.3-0.6-0.4c-0.2-0.1-0.5-0.1-0.7-0.1c-0.2,0-0.5,0-0.7,0.1c-0.2,0.1-0.4,0.2-0.6,0.4
													c-0.2,0.2-0.3,0.4-0.4,0.6c-0.1,0.2-0.1,0.5-0.1,0.7v3.3H325.3z"/>
												<path class="st8" d="M381.1,424H371c-2,0-3.7,1.6-3.7,3.7v10.2c0,2,1.6,3.7,3.7,3.7h10.2c2,0,3.7-1.6,3.7-3.7v-10.2
													C384.8,425.7,383.1,424,381.1,424z"/>
												<path class="st0" d="M374.5,434.4c-0.1,0-0.1-0.1-0.2-0.1s-0.2,0-0.2,0.1l-1.9,1.9V435c0-0.1,0-0.2-0.1-0.2
													c-0.1-0.1-0.1-0.1-0.2-0.1c-0.1,0-0.2,0-0.2,0.1c-0.1,0.1-0.1,0.1-0.1,0.2v2.2c0,0,0,0.1,0,0.1c0,0.1,0.1,0.1,0.2,0.2
													h2.2c0.1,0,0.2,0,0.2-0.1c0.1-0.1,0.1-0.1,0.1-0.2c0-0.1,0-0.2-0.1-0.2c-0.1-0.1-0.1-0.1-0.2-0.1h-1.3l2-2
													c0-0.1,0.1-0.1,0.1-0.2C374.5,434.5,374.5,434.4,374.5,434.4z"/>
												<path class="st0" d="M374.5,431.2c0.1-0.1,0.1-0.1,0.1-0.2s0-0.2-0.1-0.2l-1.9-1.9h1.3c0.1,0,0.2,0,0.2-0.1
													c0.1-0.1,0.1-0.1,0.1-0.2c0-0.1,0-0.2-0.1-0.2c-0.1-0.1-0.1-0.1-0.2-0.1h-2.2c0,0-0.1,0-0.2,0.2v2.2
													c0,0.1,0,0.2,0.1,0.2c0.1,0.1,0.1,0.1,0.2,0.1c0.1,0,0.2,0,0.2-0.1c0.1-0.1,0.1-0.1,0.1-0.2v-1.3l1.9,1.9
													c0.1,0.1,0.1,0.1,0.2,0.1C374.3,431.3,374.4,431.3,374.5,431.2z"/>
												<path class="st0" d="M377.5,431.2C377.6,431.3,377.6,431.3,377.5,431.2c0.1,0.1,0.2,0.1,0.2,0.1c0,0,0.1,0,0.1,0
													c0,0,0.1,0,0.1-0.1l1.9-1.9v1.3c0,0.1,0,0.2,0.1,0.2c0.1,0.1,0.1,0.1,0.2,0.1c0.1,0,0.2,0,0.2-0.1
													c0.1-0.1,0.1-0.1,0.1-0.2v-2.2c0,0,0-0.1-0.1-0.1c0,0-0.1-0.1-0.1-0.1h-2.2c-0.1,0-0.2,0-0.2,0.1
													c-0.1,0.1-0.1,0.1-0.1,0.2c0,0.1,0,0.2,0.1,0.2c0.1,0.1,0.1,0.1,0.2,0.1h1.3l-1.9,1.9c-0.1,0-0.1,0.1-0.1,0.2
													C377.5,431.1,377.5,431.2,377.5,431.2z"/>
												<path class="st0" d="M377.6,434.4c0,0-0.1,0.1-0.1,0.1c0,0,0,0.1,0,0.1c0,0,0,0.1,0,0.1c0,0,0,0.1,0.1,0.1l1.9,1.9h-1.3
													c-0.1,0-0.2,0-0.2,0.1c-0.1,0.1-0.1,0.1-0.1,0.2c0,0.1,0,0.2,0.1,0.2c0.1,0.1,0.1,0.1,0.2,0.1h2.2c0,0,0.2,0,0.2-0.2
													c0,0,0-0.1,0-0.1v-2.2c0-0.1,0-0.2-0.1-0.2c-0.1-0.1-0.1-0.1-0.2-0.1c-0.1,0-0.2,0-0.2,0.1c-0.1,0.1-0.1,0.1-0.1,0.2
													v1.3l-1.9-1.9c-0.1,0-0.1,0-0.2,0C377.7,434.3,377.6,434.3,377.6,434.4z"/>
												<path class="st8" d="M393.5,435.9c-0.4,0-0.7,0.1-1,0.4c-0.3,0.2-0.4,0.6-0.4,0.9c0,0.4,0.1,0.7,0.4,1
													c0.3,0.3,0.6,0.4,1,0.4c0.4,0,0.7-0.1,1-0.4c0.3-0.2,0.4-0.6,0.4-1c0-0.4-0.1-0.7-0.4-0.9
													C394.2,436,393.8,435.9,393.5,435.9z"/>
												<path class="st8" d="M393.5,431.5c-0.3,0-0.5,0.1-0.7,0.2c-0.2,0.1-0.4,0.4-0.5,0.6c-0.1,0.2-0.1,0.5-0.1,0.8
													c0.1,0.3,0.2,0.5,0.4,0.7c0.2,0.2,0.4,0.3,0.7,0.4c0.3,0.1,0.5,0,0.8-0.1c0.2-0.1,0.5-0.3,0.6-0.5
													c0.1-0.2,0.2-0.5,0.2-0.7c0-0.4-0.1-0.7-0.4-0.9C394.2,431.6,393.8,431.5,393.5,431.5z"/>
												<path class="st8" d="M393.5,427c-0.3,0-0.5,0.1-0.7,0.2c-0.2,0.1-0.4,0.4-0.5,0.6c-0.1,0.2-0.1,0.5-0.1,0.8
													c0.1,0.3,0.2,0.5,0.4,0.7c0.2,0.2,0.4,0.3,0.7,0.4c0.3,0.1,0.5,0,0.8-0.1s0.5-0.3,0.6-0.5c0.1-0.2,0.2-0.5,0.2-0.7
													c0-0.4-0.1-0.7-0.4-0.9C394.2,427.2,393.8,427,393.5,427z"/>
											</g>
										</g>
										<g>
											<path class="st8" d="M225.8,19v-0.8h0.7c0.2,0,0.4-0.1,0.6-0.3c0.1-0.1,0.2-0.3,0.2-0.4c0-0.1,0-0.2,0-0.2h0.9v5.6h-1.1
												v-3.9L225.8,19z"/>
											<path class="st8" d="M229.9,19v-0.8h0.7c0.2,0,0.4-0.1,0.5-0.3c0.1-0.1,0.2-0.3,0.2-0.4v-0.2h0.9v5.6h-1.2v-3.9L229.9,19
												z"/>
											<path class="st8" d="M234.7,18.8h1.2v1.2h-1.2V18.8z M234.7,21.7h1.2v1.2h-1.2V21.7z"/>
											<path class="st8" d="M236.9,19v-0.8h0.7c0.2,0,0.4-0.1,0.6-0.3c0.1-0.1,0.2-0.3,0.2-0.4c0-0.1,0-0.2,0-0.2h0.9v5.6h-1.1
												v-3.9L236.9,19z"/>
											<path class="st8" d="M241,19v-0.8h0.7c0.2,0,0.4-0.1,0.5-0.3c0.1-0.1,0.2-0.3,0.2-0.4c0-0.1,0-0.2,0-0.2h0.9v5.6h-1.2
												v-3.9L241,19z"/>
											<path class="st8" d="M375.2,21.3h-1.1c-0.1,0-0.2,0-0.2,0.1c-0.1,0.1-0.1,0.1-0.1,0.2v1.5c0,0.1,0,0.2,0.1,0.2
												c0.1,0.1,0.1,0.1,0.2,0.1h1.1c0,0,0.1,0,0.1,0c0,0,0.1,0,0.1-0.1c0,0,0.1-0.1,0.1-0.1c0,0,0-0.1,0-0.1v-1.5
												c0,0,0-0.1,0-0.1c0,0,0-0.1-0.1-0.1c0,0-0.1-0.1-0.1-0.1S375.2,21.3,375.2,21.3z"/>
											<path class="st8" d="M377.9,20h-1.1c-0.1,0-0.2,0-0.2,0.1c-0.1,0.1-0.1,0.1-0.1,0.2v2.8c0,0.1,0,0.2,0.1,0.2
												c0.1,0.1,0.1,0.1,0.2,0.1h1.1c0.1,0,0.2,0,0.2-0.1c0.1-0.1,0.1-0.1,0.1-0.2v-2.8c0-0.1,0-0.2-0.1-0.2
												C378,20,377.9,20,377.9,20z"/>
											<path class="st8" d="M380.5,18.8h-1.1c-0.1,0-0.2,0-0.2,0.1c-0.1,0.1-0.1,0.1-0.1,0.2v4c0,0.1,0,0.2,0.1,0.2
												c0.1,0.1,0.1,0.1,0.2,0.1h1.1c0.1,0,0.2,0,0.2-0.1c0.1-0.1,0.1-0.1,0.1-0.2v-4c0-0.1,0-0.2-0.1-0.2
												C380.7,18.8,380.6,18.8,380.5,18.8z"/>
											<path class="st8" d="M383.2,17.5h-1.1c0,0-0.1,0-0.1,0c0,0-0.1,0-0.1,0.1c0,0-0.1,0.1-0.1,0.1c0,0,0,0.1,0,0.1v5.3
												c0,0.1,0,0.2,0.1,0.2c0.1,0.1,0.1,0.1,0.2,0.1h1.1c0.1,0,0.2,0,0.2-0.1c0.1-0.1,0.1-0.1,0.1-0.2v-5.3
												c0-0.1,0-0.2-0.1-0.2C383.4,17.6,383.3,17.5,383.2,17.5z"/>
											<path class="st8" d="M391.9,22.3c0,0.2-0.1,0.4-0.2,0.6c-0.1,0.2-0.3,0.3-0.5,0.4c-0.2,0.1-0.4,0.1-0.6,0.1
												c-0.2,0-0.4-0.1-0.5-0.3c-0.1-0.1-0.2-0.3-0.3-0.5c-0.1-0.2-0.1-0.4,0-0.6c0.1-0.2,0.2-0.3,0.4-0.4
												c0.2-0.1,0.4-0.2,0.6-0.2c0.3,0,0.5,0.1,0.7,0.3c0.1,0.1,0.2,0.2,0.3,0.3C391.9,22.1,391.9,22.2,391.9,22.3z"/>
											<path class="st8" d="M392.8,21.1c-0.2,0-0.3-0.1-0.4-0.2c-0.2-0.2-0.4-0.3-0.7-0.4c-0.2-0.1-0.5-0.1-0.8-0.1
												c-0.3,0-0.5,0.1-0.8,0.1c-0.2,0.1-0.5,0.3-0.7,0.4c-0.1,0.1-0.1,0.1-0.2,0.1c-0.1,0-0.1,0-0.2,0c-0.1,0-0.2,0-0.2,0
												c-0.1,0-0.1-0.1-0.2-0.1c-0.1-0.1-0.1-0.1-0.1-0.2c0-0.1,0-0.2,0-0.2c0-0.1,0-0.2,0-0.2c0-0.1,0.1-0.1,0.1-0.2
												c0.3-0.3,0.7-0.5,1-0.7c0.4-0.2,0.8-0.3,1.2-0.3c0.4,0,0.8,0.1,1.2,0.3c0.4,0.2,0.8,0.4,1.1,0.7c0.1,0.1,0.1,0.1,0.1,0.2
												c0,0.1,0,0.1,0,0.2c0,0.1,0,0.2,0,0.2c0,0.1-0.1,0.1-0.1,0.2c-0.1,0.1-0.1,0.1-0.2,0.1C392.9,21.1,392.8,21.1,392.8,21.1
												z"/>
											<path class="st8" d="M394.3,19.5c-0.2,0-0.3-0.1-0.4-0.2c-0.4-0.4-0.9-0.7-1.4-0.9c-1-0.4-2.2-0.4-3.2,0
												c-0.5,0.2-1,0.5-1.4,0.9c-0.1,0.1-0.3,0.2-0.4,0.2c-0.2,0-0.3-0.1-0.4-0.2c-0.1-0.1-0.1-0.1-0.1-0.2c0-0.1,0-0.2,0-0.2
												c0-0.1,0-0.2,0-0.2c0-0.1,0.1-0.1,0.1-0.2c0.5-0.5,1.1-0.9,1.8-1.2c0.7-0.3,1.4-0.4,2.1-0.4c1.4,0,2.7,0.6,3.7,1.6
												c0.1,0.1,0.1,0.1,0.2,0.2c0,0.2,0,0.3,0,0.5c0,0.1-0.1,0.1-0.2,0.2C394.5,19.4,394.4,19.5,394.3,19.5z"/>
											<path class="st8" d="M407.9,18.2h-7c-0.5,0-0.9,0.2-1.3,0.6c-0.3,0.3-0.5,0.8-0.5,1.3v0.6c0,0.2,0,0.5,0.1,0.7
												c0.1,0.2,0.2,0.4,0.4,0.6c0.2,0.2,0.4,0.3,0.6,0.4c0.2,0.1,0.4,0.1,0.7,0.1h7c0.2,0,0.5,0,0.7-0.1
												c0.2-0.1,0.4-0.2,0.6-0.4c0.2-0.2,0.3-0.4,0.4-0.6c0.1-0.2,0.1-0.4,0.1-0.7v-0.6c0-0.5-0.2-0.9-0.5-1.3
												C408.9,18.4,408.4,18.2,407.9,18.2z"/>
											<path class="st8" d="M410,19.2v2.1c0.1,0,0.2,0,0.3-0.1c0.1,0,0.2-0.1,0.2-0.2c0.1-0.1,0.1-0.2,0.2-0.2
												c0-0.1,0.1-0.2,0.1-0.3V20c0-0.1,0-0.2,0-0.3c0-0.1-0.1-0.2-0.1-0.2c-0.1-0.1-0.2-0.1-0.2-0.2L410,19.2z"/>
										</g>
										<g>
											<path class="st8" d="M285.2,51.1V40.8h-3.9v-1.8h9.8v1.8h-3.9v10.2H285.2z"/>
											<path class="st8" d="M290.8,51.1v-8.7h1.7l0.2,1.4h0.2c0.6-0.9,1.6-1.4,3.2-1.4v1.8c-0.2,0-0.4,0-0.7,0
												c-1.8,0-2.7,1-2.7,2.9v4H290.8z"/>
											<path class="st8" d="M296.2,46.7c0-3,1.8-4.6,4-4.6c1.3,0,2.3,0.4,3,1.4h0.2l0.2-1.2h1.7v8.7h-1.7l-0.2-1.2h-0.2
												c-0.7,1-1.7,1.5-3,1.5C298,51.3,296.2,49.7,296.2,46.7z M303.5,46.7c0-1.9-1.1-3-2.7-3c-1.5,0-2.6,1-2.6,3
												c0,1.9,1.1,3,2.6,3C302.4,49.7,303.5,48.6,303.5,46.7z"/>
											<path class="st8" d="M306.7,46.7c0-3.1,2-4.6,4.5-4.6c2,0,3.8,1.1,4,3.2h-1.8c-0.2-1.1-1.2-1.7-2.2-1.7
												c-1.5,0-2.6,1-2.6,3c0,2,1.1,3,2.6,3c1,0,2-0.6,2.2-1.7h1.8c-0.3,2.1-2,3.2-4,3.2C308.6,51.3,306.7,49.8,306.7,46.7z"/>
											<path class="st8" d="M316.5,51.1v-12h1.9v6.8h0.2l3.6-3.5h2.4l-4.2,4l4.2,4.7h-2.5l-3.6-4h-0.2v4H316.5z"/>
											<path class="st8" d="M324.9,40c0-0.7,0.5-1.2,1.2-1.2c0.7,0,1.2,0.5,1.2,1.2c0,0.7-0.5,1.2-1.2,1.2
												C325.4,41.2,324.9,40.7,324.9,40z M325.1,51.1v-8.7h1.9v8.7H325.1z"/>
											<path class="st8" d="M328.7,51.1v-4.8c0-2.9,1.6-4.1,4.3-4.1c2.7,0,4.3,1.2,4.3,4v4.9h-1.9v-4.9c0-1.7-0.9-2.4-2.4-2.4
												c-1.5,0-2.4,0.8-2.4,2.5v4.8H328.7z"/>
											<path class="st8" d="M339.1,51.6v-0.1h1.9c0,0.9,0.7,1.4,2.2,1.4c1.6,0,2.7-0.9,2.7-2.7v-1.1h-0.2c-0.7,1-1.7,1.5-3,1.5
												c-2.2,0-4-1.4-4-4.2c0-2.8,1.8-4.2,4-4.2c1.3,0,2.3,0.4,3,1.4h0.2l0.2-1.2h1.7V50c0,3.4-2.4,4.5-4.5,4.5
												C340.4,54.5,339.2,53.4,339.1,51.6z M345.9,46.4c0-1.6-1.1-2.7-2.7-2.7c-1.6,0-2.7,0.9-2.7,2.7c0,1.7,1.1,2.7,2.7,2.7
												C344.7,49,345.9,48,345.9,46.4z"/>
										</g>
										<g>
											<path class="st11" d="M342.4,359.6c-0.2,0-0.4,0-0.6-0.1c-0.6-0.3-0.9-1.1-0.6-1.7l18.7-37l-64.6-41.2
												c-0.5-0.3-0.7-1-0.5-1.6l50.4-102.2l-20.9-10.6c-0.6-0.3-0.9-1.1-0.6-1.7c0.3-0.6,1.1-0.9,1.7-0.6l22,11.2
												c0.6,0.3,0.9,1.1,0.6,1.7L297.7,278l64.6,41.2c0.5,0.3,0.7,1.1,0.4,1.6l-19.2,38.1C343.3,359.3,342.9,359.6,342.4,359.6z
												"/>
										</g>
										<path class="st11" d="M349.8,351.2c0-2.2-0.8-4.4-2.2-6.1c-1.5-1.7-3.5-2.9-5.8-3.3c-1.5-0.3-3-0.3-4.5,0.1
											c-1.5,0.4-2.8,1.1-4,2.1c-1.1,1-2,2.2-2.6,3.6c-0.6,1.4-0.8,2.9-0.7,4.3c0.1,1.5,0.6,2.9,1.3,4.2c0.4,0.6,0.8,1.2,1.3,1.7
											l5.7,7.4c0.2,0.2,0.4,0.4,0.6,0.5c0.2,0.1,0.5,0.2,0.8,0.2c0.3,0,0.6-0.1,0.8-0.2c0.2-0.1,0.5-0.3,0.6-0.5l5.7-7.3
											c0.5-0.6,1-1.2,1.4-1.8C349.2,354.6,349.7,352.9,349.8,351.2z M339.9,355.3c-0.9,0-1.7-0.2-2.4-0.7
											c-0.7-0.4-1.3-1.1-1.6-1.8c-0.2-0.6-0.4-1.2-0.3-1.8c0-0.6,0.2-1.2,0.5-1.8c0.3-0.5,0.7-1,1.2-1.4
											c0.5-0.4,1.1-0.6,1.7-0.8c0.8-0.2,1.7-0.1,2.5,0.2c0.8,0.3,1.4,0.9,1.9,1.6c0.5,0.7,0.7,1.5,0.7,2.4
											c0,0.6-0.1,1.1-0.3,1.6c-0.2,0.5-0.5,1-1,1.4c-0.4,0.4-0.9,0.7-1.4,0.9c-0.5,0.2-1.1,0.3-1.7,0.3L339.9,355.3z"/>
									</g>
									<path class="st8" d="M196.2,224.3c0,0-13.7-9.7-20.1-33.4c-6.4-23.7,10.1-34.2,20.1-27V224.3z"/>
									<path class="st0" d="M196.8,225.2l-0.7-0.5c-0.1,0-13.9-10-20.3-33.6c-1.7-5.6-1.9-11.6-0.6-17.3c1-4.1,3.4-7.7,6.8-10.1
										c2.1-1.6,4.7-2.4,7.3-2.4c2.6,0,5.2,0.8,7.3,2.4l0.2,0.1L196.8,225.2z M189.4,162.2c-2.5,0.1-4.9,0.9-6.9,2.3
										c-8.1,5.5-8.3,17.3-5.8,26.4c5.5,20.1,16.3,30.1,19.2,32.6v-59.1C193.9,163,191.7,162.2,189.4,162.2z"/>
									<path class="st8" d="M196.2,375.6c0,0-10.5,0.5-20.3,1.6c-9.8,1.1-17.2,16.9-16.6,28.8c0.6,11.9,0,31.4,19.1,42.5
										c19.1,11.1,47.8,19.4,59.8,5.4c12-14,1.1-34.5-13.1-42.5c-14.2-8-28.8-16.8-28.8-19.7V375.6z"/>
									<path class="st0" d="M218.9,461.6c-2.7,0-5.4-0.2-8.1-0.6c-11.5-2.1-22.6-6.2-32.7-12.2c-18-10.5-18.7-28.4-19.2-40.3
										c0-0.8,0-1.7-0.1-2.5c-0.6-12.2,7.3-28.1,17.2-29.2c9.6-1.1,20.1-1.6,20.3-1.7h0.5v16.6c0,1,2.8,4.8,28.5,19.3
										c4.6,2.6,8.5,6.1,11.7,10.4c3.1,4.2,5.3,9.1,6.4,14.2c0.6,3.2,0.5,6.6-0.3,9.8c-0.8,3.2-2.4,6.2-4.6,8.7
										C233.6,459.9,226,461.6,218.9,461.6z M195.8,376.1c-2.2,0.1-11.3,0.6-19.7,1.6c-4.3,0.5-8.6,4.2-11.9,10.1
										c-3.1,5.6-4.6,11.8-4.5,18.2c0,0.8,0,1.6,0.1,2.5c0,6.9,1,13.8,3,20.5c2.7,8.1,8.3,14.9,15.8,19.1c10,5.9,21,10,32.5,12
										c8.6,1.3,20.1,1.3,26.8-6.5c2.1-2.4,3.6-5.3,4.4-8.4c0.8-3.1,0.9-6.3,0.2-9.4c-1.1-5-3.2-9.7-6.2-13.9s-6.9-7.6-11.4-10.1
										c-29.1-16.2-29.1-19-29.1-20V376.1z"/>
									<path class="st8" d="M168.4,365.1c-19.9-20.9-15.1-34.5-8.3-45c6.8-10.5,15.9-24.5,26.2-19.4c10.3,5.1,8.9,11.1,17.8,21.1
										c9,10,34.9,33.6,20,52.1C209.4,392.4,195.7,393.8,168.4,365.1z"/>
									<path class="st0" d="M203,387.7c-9.5,0-20.3-7-35-22.4c-9.1-9.6-13.8-18.3-14.3-26.7c-0.5-7.9,2.9-14.2,5.9-18.9
										c6.8-10.5,16.1-24.9,26.8-19.5c6.3,3.1,8.3,6.6,10.8,11.1c2,3.6,4.4,7.1,7.1,10.2c0.9,1,2.1,2.2,3.3,3.5
										c10.7,11.3,30.4,32.2,16.8,49.2c-7.3,9.1-13.7,13.3-20.7,13.6L203,387.7z M168.7,364.7c14.9,15.7,25.7,22.5,35.1,22.2
										c6.8-0.3,12.9-4.4,20-13.2c12.9-16.3-6.3-36.9-16.8-48c-1.2-1.3-2.3-2.5-3.3-3.5c-2.8-3.1-5.2-6.6-7.2-10.3
										c-2.5-4.4-4.4-7.6-10.5-10.7c-9.9-5-19,9-25.6,19.2c-2.9,4.5-6.3,10.7-5.8,18.3C155.2,346.8,159.8,355.3,168.7,364.7
										L168.7,364.7z"/>
									<path class="st8" d="M206.7,301.9c-13.8,14.8-28.9,13.1-40.5-5.4c-11.6-18.5-17.4-32.5-3.7-49.9
										c13.7-17.4,20.3-16.8,34-16.8v13.1C196.4,242.9,226.4,280.5,206.7,301.9z"/>
									<path class="st0" d="M187.8,312.3c-0.5,0-1.1,0-1.6,0c-7.4-0.7-14.5-6-20.5-15.5c-6-9.5-10.2-17.5-11.4-25.5
										c-1.3-8.6,1.2-16.5,7.7-24.8c13.4-17,20.3-17,33.1-17h1.7v13.4c5,6.6,9.3,13.8,12.5,21.4c2.7,6.1,4.3,12.7,4.5,19.4
										c0.2,6.8-2.3,13.4-6.9,18.5C200.8,308.8,194.2,312.3,187.8,312.3z M193.9,230.3c-12,0-18.5,0.5-31.2,16.6
										c-6.4,8.1-8.8,15.8-7.6,24.1c1.3,8.3,6.2,17,11.3,25.2c5.8,9.2,12.7,14.4,19.8,15.1c6.7,0.6,13.6-2.8,20-9.7
										c4.4-4.9,6.8-11.3,6.6-17.9c-0.2-6.6-1.7-13.1-4.4-19.1c-3.3-7.6-7.5-14.8-12.5-21.4l-0.1-0.1v-12.8L193.9,230.3
										L193.9,230.3z"/>
									<path class="st0" d="M440.3,376c-0.1,0-0.2-0.1-0.3-0.2c0-0.1,0-0.2,0-0.4c4.1-22.1,20.5-36.1,22.6-37.8
										c-5.1-32.8-7.2-61.1-7.2-61.4c0-0.1,0-0.2,0-0.3c0.1-0.1,0.1-0.2,0.2-0.2c0.1,0,0.2,0,0.3,0c0.1,0,0.2,0.1,0.2,0.2
										c6.2,7.5,14.1,13.4,23.1,17.3c0.1,0.1,0.2,0.1,0.3,0.3c0,0.1,0,0.2,0,0.4c0,0.1,0,0.1-0.1,0.1l-0.2,0.1H479h-0.2
										c-8.6-3.8-16.3-9.4-22.5-16.4c0.5,6.3,2.8,31.5,7.1,60.1c0,0.1,0,0.2,0,0.2c0,0.1-0.1,0.1-0.1,0.2
										c-0.2,0.1-18.2,14.3-22.5,37.4c0,0.1-0.1,0.2-0.1,0.3c-0.1,0-0.1,0.1-0.2,0.1C440.4,376.1,440.3,376.1,440.3,376z"/>
									<path class="st8" d="M197,285.6c6.5-10.4,7.6-21.6,2.4-24.8c-5.2-3.3-14.8,2.6-21.3,12.9c-6.5,10.4-7.6,21.6-2.4,24.8
										C180.9,301.8,190.4,296,197,285.6z"/>
									<path class="st0" d="M179.1,299.9c-1.3,0-2.6-0.3-3.7-1c-2.7-1.7-3.9-5.3-3.5-10.1c0.8-5.5,2.8-10.7,5.9-15.3
										c6.6-10.6,16.4-16.6,21.9-13.2c2.7,1.7,3.9,5.3,3.5,10.1c-0.7,5.5-2.7,10.7-5.7,15.3c-2.8,4.7-6.7,8.8-11.3,11.8
										C184.1,299,181.6,299.8,179.1,299.9z M195.9,260.3c-5.2,0-12.3,5.4-17.5,13.7c-2.9,4.5-4.8,9.6-5.5,14.9
										c-0.4,4.5,0.6,7.8,3,9.2c2.4,1.4,5.8,1,9.7-1.4c4.4-3,8.1-6.9,11-11.5c2.8-4.5,4.7-9.6,5.5-14.9c0.4-4.5-0.6-7.8-3-9.2
										C198.1,260.5,197,260.2,195.9,260.3z"/>
									<path class="st8" d="M211.3,365.8c-7.4,9.8-17.5,14.8-22.4,11.1c-4.9-3.7-2.8-14.8,4.6-24.5c7.4-9.7,17.5-14.8,22.4-11.1
										C220.8,345,218.8,356.1,211.3,365.8z"/>
									<path class="st0" d="M193,378.6c-1.5,0-3.1-0.4-4.3-1.3c-2.5-1.8-3.4-5.5-2.5-10.4c1.2-5.4,3.6-10.5,7.1-14.8
										c7.6-10,17.9-15,23-11.1c5.1,3.9,3.1,15.2-4.5,25.2c-3.3,4.4-7.5,8.1-12.3,10.7C197.5,378,195.3,378.6,193,378.6z
										 M211.9,340.7c-5.1,0-12.2,4.6-17.9,12.1c-3.3,4.2-5.7,9.1-6.8,14.3c-0.8,4.5,0,7.8,2.1,9.5c2.1,1.7,5.7,1.5,9.7-0.5
										c4.7-2.5,8.9-6.1,12-10.5c7.3-9.6,9.4-20.3,4.7-23.8c-1.1-0.8-2.4-1.2-3.7-1.2L211.9,340.7z"/>
									<path class="st8" d="M483.6,183.8c5.3,14.4,6,27.3,1.7,28.9c-4.3,1.6-12-8.8-17.3-23.1c-5.3-14.4-6-27.3-1.7-28.9
										C470.6,159.1,478.4,169.5,483.6,183.8z"/>
									<path class="st0" d="M484.4,213.3c-2.2,0-4.9-2.1-7.8-5.9c-3.8-5.5-6.9-11.4-9.1-17.7c-4.7-12.9-6.6-27.6-1.5-29.4
										c2.3-0.8,5.4,1.3,8.8,5.8c3.8,5.5,6.9,11.4,9.1,17.7c4.7,12.9,6.6,27.6,1.4,29.4C485.2,213.2,484.8,213.3,484.4,213.3z
										 M467.2,161c-0.3,0-0.5,0-0.7,0.1c-3.5,1.3-3.6,12.9,2,28.2c2.2,6.2,5.2,12.1,9,17.4c3.1,4.1,5.9,6.1,7.8,5.4
										c3.5-1.3,3.6-12.9-2-28.2c-2.1-6.2-5.1-12.1-8.9-17.4C471.5,163,469.1,161,467.2,161L467.2,161z"/>
									<path class="st8" d="M227.3,447.3c6.2-8.2,7.3-17.8,2.3-21.5c-4.9-3.7-13.9-0.1-20.1,8.1c-6.2,8.2-7.3,17.8-2.3,21.5
										C212.1,459.1,221.1,455.5,227.3,447.3z"/>
									<path class="st0" d="M211.8,457.3c-1.8,0-3.5-0.5-4.9-1.6c-5.1-3.9-4.1-13.8,2.3-22.2c2.8-3.8,6.5-6.7,10.8-8.6
										c4-1.6,7.5-1.4,10,0.5c2.5,1.9,3.7,5.3,3.2,9.5c-0.7,4.6-2.6,8.9-5.4,12.6C223,453.7,216.8,457.3,211.8,457.3z M225,424.7
										c-1.6,0-3.2,0.4-4.7,1c-4.1,1.8-7.7,4.7-10.3,8.3c-6,8-7.1,17.3-2.4,20.9c4.7,3.6,13.4,0,19.5-8c2.8-3.5,4.6-7.7,5.2-12.2
										c0.4-3.9-0.6-7-2.8-8.7C228.1,425.2,226.5,424.7,225,424.7z"/>
									<path class="st0" d="M196.2,224.3v-29.9c0,0-1.3,26.1-8.1,20.9C190.3,218.8,193.1,221.8,196.2,224.3z"/>
									<path class="st0" d="M431.8,282.5v151.2c0,19.3-0.7,29.1-9.9,38.2c-9.3,9.1-19.3,10.7-28.1,10.7l-142.6-0.4
										c0,0,3.3,10.5,5.2,14.9c0,0,1-10.3,12.9-10.3c11.9,0,50.8,0.9,57.3,0.9c6.5,0,39.1-1.4,48.4-1.3c9.3,0.1,37.2,4.1,47.7-5.3
										c10.5-9.5,16-16,14.4-39.6c-1.6-23.6-1.8-120.8-1.8-128.3c0-7.5-0.1-22.4,5.1-19.2L431.8,282.5z"/>
									<path class="st0" d="M172.2,304.3c0,0,7.9,11.8,23.8,5.7l3.4,5.8c-2.7,1.6-5.9,2.4-9,2.4c-3.2,0-6.3-0.8-9-2.4
										C171.2,310.4,172.2,304.3,172.2,304.3z"/>
									<path class="st0" d="M216.4,461.1c-6.4-0.7-12.7-2-18.8-3.9l2.3,5.9l19.2,0.2L216.4,461.1z"/>
									<path class="st0" d="M180.6,376.7c0,0,8.6,8.1,15.4,9.3l0.3,5.5c1,1.6,2.3,3.1,3.9,4.3c-2.6-1.2-5.1-2.7-7.4-4.5
										c-4.7-3.4-13.9-15.5-21.6-12.5c2-1,4.1-1.7,6.3-2L180.6,376.7z"/>
								</g>
							</g>
						</g>
					</g>
				</g>
			</g>
		</g>
		<path class="st11" d="M290.8,147.3c0.6,0.5,1.6,0.7,2.4,0.8c1.5,0.2,11.9,1.9,12.2,0.9c0.2-0.8-2.8-3.5-3.4-4.2
			c-1.3-1.4-2.6-2.7-4-3.9c-0.6-0.5-1.2-1.1-2.1-1.2c-0.5,0-1.1,0-1.6,0.3c-1.7,0.7-3,2-3.8,3.6
			C289.9,144.8,289.7,146.3,290.8,147.3z M294.6,145.4c0.2-0.5,0.3-1.2,1-1.3c0.4,0,0.8,0.1,1.1,0.3c2.2,1.1,4.7,2.3,6.5,3.9
			c-2.4-0.1-5.1-0.9-7.5-1.4c-0.5-0.1-1.1-0.3-1.2-0.7C294.4,145.9,294.5,145.6,294.6,145.4z"/>
		<path class="st11" d="M319.7,143.6c-0.8-1.6-2.1-2.9-3.8-3.6c-0.5-0.2-1-0.3-1.6-0.3c-0.8,0.1-1.5,0.6-2.1,1.2
			c-1.4,1.3-2.7,2.6-4,3.9c-0.6,0.7-3.6,3.3-3.4,4.2c0.3,1,10.7-0.7,12.2-0.9c0.9-0.1,1.8-0.3,2.4-0.8
			C320.6,146.3,320.3,144.8,319.7,143.6z M315.8,146.2c-0.1,0.4-0.7,0.6-1.2,0.7c-2.4,0.5-5,1.3-7.5,1.4c1.8-1.6,4.3-2.8,6.5-3.9
			c0.3-0.2,0.7-0.3,1.1-0.3c0.6,0.1,0.8,0.8,1,1.3C315.8,145.6,315.9,145.9,315.8,146.2L315.8,146.2z"/>
		<path class="st0" d="M306.3,147.4c0-0.1,0-0.2,0-0.3c0-0.1-0.1-0.2-0.1-0.2c-0.1-0.1-0.2-0.1-0.2-0.1c-0.1,0-0.2,0-0.3,0
			c-0.1,0.1-0.3,0.2-0.3,0.3c0-0.1-0.1-0.2-0.2-0.2c-0.1-0.1-0.1-0.1-0.2-0.2c-0.1,0-0.2-0.1-0.3,0c-0.1,0-0.2,0-0.3,0.1
			c-0.1,0.1-0.1,0.1-0.2,0.2c0,0.1-0.1,0.2-0.1,0.3c0,0.3,0,0.7,0.1,1c0.1,0.3,0.3,0.6,0.5,0.8c0.3,0.4,0.9,0.5,1.2,0.1
			C306.1,148.6,306.3,148,306.3,147.4z"/>
		<path class="st0" d="M307.1,148.3c2.4-0.1,5.1-0.9,7.5-1.4c0.5-0.1,1.1-0.3,1.2-0.7c0-0.3,0-0.5-0.1-0.8c-0.2-0.5-0.4-1.2-1-1.3
			c0.6,0.1,1.1,0.5,1.5,1c0.4,0.5,0.6,1.1,0.6,1.7c0,0.2,0,0.4-0.1,0.5c-0.2,0.2-0.5,0.4-0.9,0.4C312.9,148.3,310,148.5,307.1,148.3
			z"/>
		<path class="st0" d="M294.5,147.7c-0.3,0-0.6-0.2-0.9-0.4c-0.1-0.2-0.2-0.3-0.1-0.5c0-0.6,0.2-1.2,0.6-1.7c0.4-0.5,0.9-0.8,1.5-1
			c-0.6,0.1-0.8,0.8-1,1.3c-0.1,0.2-0.2,0.5-0.1,0.8c0.1,0.4,0.7,0.6,1.2,0.7c2.4,0.5,5,1.3,7.5,1.4
			C300.2,148.5,297.3,148.3,294.5,147.7z"/>
		<path class="st206" d="M280.6,185.5h47.5v-30.7h-47.5V185.5z"/>
		<path class="st206" d="M310.1,185.5h18v-30.7h-18V185.5z"/>
		<path class="st206" d="M278.3,157h52v-8.2h-52V157z"/>
		<path class="st206" d="M310,157h20.3v-8.2H310V157z"/>
		<path class="st11" d="M291.2,185.5h8v-36.7h-8V185.5z"/>
		<path class="st11" d="M316.6,185.5h6.3v-36.7h-6.3V185.5z"/>
	</g>
</g>
<g id="E-Commerce">
</g>
<g id="Individuals_Page">
</g>
<g id="More">
</g>
<g id="Become_A_Courier">
</g>
<g id="About_us">
</g>
<g id="Contact_US">
</g>
<g id="Layer_13">
</g>
</svg>
