<?xml version="1.0" encoding="utf-8"?>
<!-- Generator: Adobe Illustrator 26.0.1, SVG Export Plug-In . SVG Version: 6.00 Build 0)  -->
<svg version="1.1" xmlns="http://www.w3.org/2000/svg" xmlns:xlink="http://www.w3.org/1999/xlink" x="0px" y="0px"
	 viewBox="0 0 954.9 367.8" style="enable-background:new 0 0 954.9 367.8;" xml:space="preserve">
<style type="text/css">
	.st0{fill:#131314;}
	.st1{fill:#F7F5DD;stroke:#131314;stroke-width:0.8581;stroke-miterlimit:10;}
	.st2{fill:#131314;stroke:#F7F5DD;stroke-width:0.3547;stroke-miterlimit:10;}
	.st3{fill:#FFC72B;stroke:#131314;stroke-width:0.8581;stroke-linecap:round;stroke-linejoin:round;stroke-miterlimit:10;}
	.st4{fill:none;stroke:#131314;stroke-width:0.8581;stroke-miterlimit:10;}
	.st5{fill:#131314;stroke:#F7F5DD;stroke-width:0.389;stroke-miterlimit:10;}
	.st6{fill:#FF0058;stroke:#131314;stroke-width:1.7191;stroke-miterlimit:10;}
	.st7{fill:#FFC72B;}
	.st8{fill:#F7F5DD;}
	.st9{fill:url(#SVGID_1_);}
	.st10{fill:#FFE092;}
	.st11{fill:#FF0058;}
	.st12{fill:#FFFFFF;filter:url(#Adobe_OpacityMaskFilter);}
	.st13{mask:url(#mask4_744_2018_00000183221484926765621670000012565967078459250105_);}
	.st14{fill:#FFC72B;stroke:#131314;stroke-width:0.8581;stroke-miterlimit:10;}
	.st15{fill:url(#SVGID_00000065053199155230428960000008942961434338009250_);}
	.st16{clip-path:url(#SVGID_00000010283591067205449300000017453995096530433983_);}
	.st17{fill:#FFC72C;stroke:#131314;stroke-width:0.1032;stroke-miterlimit:10;}
	.st18{clip-path:url(#SVGID_00000116924515976508291370000009118359741689449649_);}
	.st19{fill:#DD9F14;}
	.st20{fill:none;stroke:#131314;stroke-width:2;stroke-miterlimit:10;}
	.st21{clip-path:url(#SVGID_00000181804577263602604160000000928494370664157355_);}
	.st22{fill:#F7F5DD;stroke:#131314;stroke-miterlimit:10;}
	.st23{fill:#131314;stroke:#131314;stroke-miterlimit:10;}
	.st24{fill:#FF0058;stroke:#131314;stroke-miterlimit:10;}
	.st25{opacity:0.1;fill:url(#SVGID_00000093157203218196880060000008882149045021675435_);enable-background:new    ;}
	.st26{opacity:0.4;}
	.st27{fill:none;stroke:#131314;stroke-miterlimit:10;}
	.st28{fill:#FFC72C;}
	.st29{fill:none;stroke:#131314;stroke-width:0.931;stroke-miterlimit:10;}
	.st30{fill:url(#SVGID_00000075136871283026944360000002615652381268763530_);}
	.st31{clip-path:url(#SVGID_00000166660931903195899030000002261043973597071240_);}
	.st32{fill:none;stroke:#131314;stroke-width:0.7836;}
	.st33{fill:#FF0058;stroke:#131314;stroke-width:0.931;stroke-miterlimit:10;}
	.st34{opacity:0.78;fill:#FFFFFF;}
	.st35{fill:#F7F5DD;stroke:#131314;stroke-width:1.3965;stroke-miterlimit:10;}
	.st36{fill:#FFC72B;stroke:#131314;stroke-width:0.931;stroke-miterlimit:10;}
	.st37{fill:#E7B67B;}
	.st38{fill:#FFC72C;stroke:#231F20;stroke-width:0.3724;stroke-linecap:round;stroke-linejoin:round;}
	.st39{fill:none;stroke:#F7F5DD;stroke-width:1.862;stroke-linecap:round;stroke-linejoin:round;stroke-miterlimit:10;}
	.st40{fill:none;stroke:#F7F5DD;stroke-width:0.931;stroke-linecap:round;stroke-linejoin:round;stroke-miterlimit:10;}
	.st41{fill:none;stroke:#FF0058;stroke-width:0.931;stroke-miterlimit:10;}
	.st42{fill:none;stroke:#FF0058;stroke-width:0.931;stroke-linecap:round;stroke-linejoin:round;stroke-miterlimit:10;}
	.st43{fill:none;stroke:#131314;stroke-width:0.931;stroke-linecap:round;stroke-linejoin:round;stroke-miterlimit:10;}
	.st44{fill:none;stroke:#000000;stroke-width:0.931;stroke-miterlimit:10;}
	.st45{fill:none;}
	.st46{fill:#FFC72C;stroke:#000000;stroke-width:0.8449;stroke-miterlimit:10;}
	.st47{clip-path:url(#SVGID_00000018203007913378209730000006583056083466479285_);fill:#F4B821;}
	.st48{clip-path:url(#SVGID_00000018203007913378209730000006583056083466479285_);fill:#FF0058;}
	.st49{clip-path:url(#SVGID_00000092415765345420776670000006693732708366693294_);fill:#F4B821;}
	.st50{clip-path:url(#SVGID_00000092415765345420776670000006693732708366693294_);fill:#FF0058;}
	.st51{fill:#FE0058;}
	.st52{fill:#FFF8FB;}
	.st53{fill:#F7F5DD;stroke:#000000;stroke-width:1.2859;stroke-miterlimit:10;}
	.st54{fill:url(#SVGID_00000158722623596806072570000017204974949781456551_);}
	.st55{clip-path:url(#SVGID_00000171677378325768397250000014121907708245324455_);}
	.st56{fill:none;stroke:#131314;stroke-width:1.4798;}
	.st57{fill:#FFC72B;stroke:#131314;stroke-width:1.0065;stroke-miterlimit:10;}
	.st58{fill:#DD225C;}
	.st59{fill:#67300F;}
	.st60{fill:#FFC72C;stroke:#231F20;stroke-width:0.4026;stroke-linecap:round;stroke-linejoin:round;}
	.st61{fill:#FFB703;}
	.st62{clip-path:url(#SVGID_00000076595553654427903460000010111750996394297525_);}
	.st63{fill:url(#SVGID_00000026849564715548114960000017350647376394210708_);}
	.st64{clip-path:url(#SVGID_00000080913486119662665720000012439730806427622790_);}
	.st65{fill:none;stroke:#131314;stroke-width:1.5895;}
	.st66{fill:#FFFFFF;filter:url(#Adobe_OpacityMaskFilter_00000121984132333171568370000011227948826927271094_);}
	.st67{mask:url(#mask4_744_2018_00000150814286955539578320000013805391622432084355_);}
	.st68{fill:#FFC72B;stroke:#131314;stroke-width:0.97;stroke-miterlimit:10;}
	.st69{fill:url(#SVGID_00000036968756341336715520000000573701171211909277_);}
	.st70{clip-path:url(#SVGID_00000090261005808150464920000012352920787599931315_);}
	.st71{fill:#FFC72C;stroke:#131314;stroke-width:0.1166;stroke-miterlimit:10;}
	.st72{opacity:0.14;clip-path:url(#XMLID_00000081616064220507959630000010832498289988867763_);fill:#F7F5DD;}
	.st73{opacity:0.14;clip-path:url(#XMLID_00000110468636880612303080000014635251546954821309_);fill:#F7F5DD;}
	.st74{opacity:0.14;clip-path:url(#XMLID_00000093895571556746495160000007112778953426055345_);fill:#F7F5DD;}
	.st75{fill:none;stroke:#131314;stroke-width:0.7289;stroke-miterlimit:10;}
	.st76{fill-rule:evenodd;clip-rule:evenodd;fill:#F7F5DD;stroke:#231F20;stroke-width:0.5758;stroke-miterlimit:10;}
	.st77{fill:#FFC72C;stroke:#231F20;stroke-width:0.2915;stroke-linecap:round;stroke-linejoin:round;}
	.st78{fill:#EBD8D1;}
	.st79{fill:#FFC72B;stroke:#131314;stroke-width:0.7289;stroke-miterlimit:10;}
	.st80{fill:#FFC72B;stroke:#131314;stroke-width:1.0933;stroke-miterlimit:10;}
	.st81{fill:#FDBAA7;}
	.st82{fill:#F7F5DD;stroke:#131314;stroke-width:0.7289;stroke-miterlimit:10;}
	.st83{opacity:0.5;fill:#FCC0B1;}
	.st84{fill:#F7F5DD;stroke:#131314;stroke-width:1.0933;stroke-miterlimit:10;}
	.st85{fill:#843636;}
	.st86{opacity:0.7;}
	.st87{fill:#853536;}
	.st88{fill:#E0A9A0;}
	.st89{fill:none;stroke:#F7F5DD;stroke-width:1.4577;stroke-linecap:round;stroke-linejoin:round;stroke-miterlimit:10;}
	.st90{fill:none;stroke:#F7F5DD;stroke-width:0.7289;stroke-linecap:round;stroke-linejoin:round;stroke-miterlimit:10;}
	.st91{fill:none;stroke:#FF0058;stroke-width:0.7289;stroke-miterlimit:10;}
	.st92{fill:none;stroke:#FF0058;stroke-width:0.7289;stroke-linecap:round;stroke-linejoin:round;stroke-miterlimit:10;}
	.st93{fill:none;stroke:#131314;stroke-width:0.7289;stroke-linecap:round;stroke-linejoin:round;stroke-miterlimit:10;}
	.st94{fill:none;stroke:#000000;stroke-width:0.7289;stroke-miterlimit:10;}
	.st95{opacity:0.6;fill:#F7F5DD;enable-background:new    ;}
	.st96{opacity:0.4;fill:#F7F5DD;enable-background:new    ;}
	.st97{opacity:0.2;fill:#F7F5DD;enable-background:new    ;}
	.st98{fill:#F7F5DD;stroke:#131314;stroke-width:1.0398;stroke-miterlimit:10;}
	.st99{fill:url(#SVGID_00000057147257617496066180000005636266582398927535_);}
	.st100{clip-path:url(#SVGID_00000047053107733621457660000010259221625834427273_);}
	.st101{fill:none;stroke:#131314;stroke-width:1.396;}
	.st102{fill:#FFFFFF;stroke:#070405;stroke-width:1.0001;stroke-miterlimit:10;}
	.st103{fill:#FE0058;stroke:#000000;stroke-width:1.0001;stroke-miterlimit:10;}
	.st104{fill:#131314;stroke:#070405;stroke-width:1.0001;stroke-miterlimit:10;}
	.st105{fill:#F7F5DD;stroke:#070506;stroke-width:1.0001;stroke-miterlimit:10;}
	.st106{fill:#F7F5DD;stroke:#000000;stroke-width:1.0001;stroke-miterlimit:10;}
	.st107{fill:#131313;}
	.st108{fill:#101431;stroke:#0C0609;stroke-width:1.0001;stroke-miterlimit:10;}
	.st109{fill:#171F42;stroke:#0C0609;stroke-width:1.0001;stroke-miterlimit:10;}
	.st110{fill:none;stroke:#131314;stroke-width:1.63;stroke-linecap:round;stroke-linejoin:round;stroke-dasharray:10.2907,8.5737;}
	.st111{fill:#FFC72C;stroke:#131314;stroke-width:0.815;stroke-linecap:round;stroke-linejoin:round;stroke-miterlimit:10;}
	.st112{fill:#FFC72C;stroke:#131314;stroke-width:0.815;stroke-linecap:round;stroke-linejoin:round;}
	.st113{fill:none;stroke:#131314;stroke-width:0.9454;stroke-linecap:round;stroke-miterlimit:10;}
	.st114{fill:url(#SVGID_00000129174927383315704820000007835875193228057236_);}
	.st115{fill:#F7F5DD;stroke:#131314;stroke-width:1.0867;stroke-linecap:round;stroke-linejoin:round;stroke-miterlimit:10;}
	.st116{fill:none;stroke:#131314;stroke-width:1.0867;stroke-linecap:round;stroke-linejoin:round;stroke-miterlimit:10;}
	.st117{fill:#F7F5DD;stroke:#131314;stroke-width:2.0758;stroke-linecap:round;stroke-linejoin:round;stroke-miterlimit:10;}
	.st118{fill:none;stroke:#131314;stroke-width:2.0758;stroke-linecap:round;stroke-linejoin:round;stroke-miterlimit:10;}
	.st119{fill:#FFC72C;stroke:#131314;stroke-width:0.5341;stroke-linecap:round;stroke-linejoin:round;stroke-miterlimit:10;}
	.st120{fill:#FFC72C;stroke:#131314;stroke-width:0.5341;stroke-linecap:round;stroke-linejoin:round;}
	.st121{fill:none;stroke:#131314;stroke-width:0.6195;stroke-linecap:round;stroke-miterlimit:10;}
	.st122{fill:#FFFFFF;filter:url(#Adobe_OpacityMaskFilter_00000047753315755046231440000007919550927184878746_);}
	.st123{mask:url(#mask0_472_749_00000067936524425341381020000013690141856301607846_);}
	.st124{fill:#FFC72B;stroke:#000000;stroke-width:0.7607;stroke-miterlimit:10;}
	.st125{fill:none;stroke:#FF0058;stroke-width:3.26;stroke-linecap:round;stroke-linejoin:round;}
	.st126{fill:url(#SVGID_00000068643004605813702080000001365794343273646770_);}
	.st127{fill:#FFC72C;stroke:#131314;stroke-width:9.798834e-02;stroke-miterlimit:10;}
	.st128{fill:#F7F5DD;stroke:#131314;stroke-width:0.8499;stroke-miterlimit:10;}
	.st129{fill:url(#SVGID_00000145035843042325178350000003496197214883970695_);}
	.st130{clip-path:url(#SVGID_00000134210397861094811940000000377585680436640642_);}
	.st131{fill:none;stroke:#131314;stroke-width:0.1586;}
	.st132{fill:#F7F5DD;stroke:#000000;stroke-width:0.1379;stroke-miterlimit:10;}
	.st133{fill:#FFC72B;stroke:#131314;stroke-width:0.1079;stroke-miterlimit:10;}
	
		.st134{fill-rule:evenodd;clip-rule:evenodd;fill:#F7F5DD;stroke:#131314;stroke-width:0.6316;stroke-linecap:round;stroke-linejoin:round;stroke-miterlimit:10;}
	.st135{fill:#FE0058;stroke:#131314;stroke-width:0.6316;stroke-linecap:round;stroke-linejoin:round;stroke-miterlimit:10;}
	.st136{fill:#F7F5DD;stroke:#131314;stroke-width:0.6316;stroke-linecap:round;stroke-linejoin:round;stroke-miterlimit:10;}
	.st137{fill:#FFC72B;stroke:#131314;stroke-width:0.8499;stroke-miterlimit:10;}
	.st138{opacity:0.5;}
	.st139{clip-path:url(#SVGID_00000005245514387107466240000002457106709906644415_);}
	.st140{fill:#CCCCCC;}
	.st141{fill:#FFC608;stroke:#131314;stroke-width:0.6316;stroke-linecap:round;stroke-linejoin:round;stroke-miterlimit:10;}
	.st142{fill:#79C9E2;}
	.st143{fill:#62B8CC;}
	.st144{fill:#D9E1EE;}
	.st145{fill:none;stroke:#FFFFFF;stroke-width:0.4753;stroke-miterlimit:10;}
	.st146{fill:#E48D34;}
	.st147{fill:#EAA05C;}
	.st148{fill:#D17A2B;}
	.st149{fill:#F5B376;}
	.st150{fill:#F5BE2D;}
	.st151{fill:#F4E081;}
	.st152{fill:#F2A101;}
	.st153{fill:#F7CF4C;}
	.st154{fill:#DE8E06;}
	.st155{fill:#05C954;}
	.st156{fill:#E21E36;}
	.st157{fill:#D4101E;}
	.st158{fill:#00AF47;}
	.st159{fill:#FFE164;}
	.st160{fill:#FFFAA6;}
	.st161{fill:#43B572;}
	.st162{fill:#FFC72C;stroke:#231F20;stroke-width:0.1377;stroke-linecap:round;stroke-linejoin:round;}
	.st163{fill:#FED0B8;}
	.st164{fill:#F7F5DD;stroke:#131314;stroke-width:0.6605;stroke-linecap:round;stroke-linejoin:round;stroke-miterlimit:10;}
	.st165{fill:#FFC608;stroke:#131314;stroke-width:0.6234;stroke-miterlimit:10;}
	.st166{fill:#FFC608;stroke:#131314;stroke-width:0.5155;stroke-miterlimit:10;}
	.st167{fill:none;stroke:#131314;stroke-width:1.1332;stroke-linecap:round;stroke-linejoin:round;stroke-dasharray:22.665,22.665;}
	.st168{fill:#FFC72C;stroke:#231F20;stroke-width:4.938446e-02;stroke-linecap:round;stroke-linejoin:round;}
	.st169{fill:url(#SVGID_00000030456899349020753820000015384172132447728813_);}
	.st170{clip-path:url(#SVGID_00000039818869947697764520000015662996799508258200_);}
	.st171{fill:#FFC72C;stroke:#131314;stroke-width:7.223932e-02;stroke-miterlimit:10;}
	.st172{fill:url(#SVGID_00000179606679996207824500000001645131233624993189_);}
	.st173{fill:#131314;stroke:#F7F5DD;stroke-width:0.1911;stroke-miterlimit:10;}
	.st174{fill:#F7F5DD;stroke:#131314;stroke-width:0.9245;stroke-miterlimit:10;}
	.st175{fill:none;stroke:#131314;stroke-width:0.9245;stroke-miterlimit:10;}
	.st176{fill:#131314;stroke:#F7F5DD;stroke-width:0.2096;stroke-miterlimit:10;}
	.st177{fill:#FF0058;stroke:#131314;stroke-width:0.9245;stroke-miterlimit:10;}
	.st178{fill:#232020;}
	.st179{font-family:'BCNovaticaCYR-SemiBold';}
	.st180{font-size:34.7435px;}
	.st181{fill:#F7F5DD;stroke:#231F20;stroke-width:0.9245;stroke-miterlimit:10;}
	.st182{fill:#FCF4EC;}
	.st183{fill:#CD950C;}
	.st184{fill:none;stroke:#FFFFFF;stroke-width:0.5769;stroke-miterlimit:10;}
	.st185{fill:#FFC72C;stroke:#131314;stroke-width:0.8286;stroke-miterlimit:10;}
	.st186{fill:#FFC72C;stroke:#131314;stroke-width:0.8286;stroke-linecap:round;stroke-linejoin:round;}
	.st187{clip-path:url(#SVGID_00000129200471781810240220000012292658197239979932_);}
	.st188{fill:url(#SVGID_00000047767055302312112800000010067986222787745703_);}
	.st189{clip-path:url(#SVGID_00000033365930209170372260000005585177987536036486_);}
	.st190{fill:none;stroke:#131314;stroke-width:1.5284;}
	.st191{fill:#FFFFFF;filter:url(#Adobe_OpacityMaskFilter_00000062871867405674600760000007177962595363677089_);}
	.st192{mask:url(#mask4_744_2018_00000067229330011245605510000014511519346254753932_);}
	.st193{fill:#FFC72B;stroke:#131314;stroke-width:0.9327;stroke-miterlimit:10;}
	.st194{fill-rule:evenodd;clip-rule:evenodd;fill:#F7F5DD;stroke:#131314;stroke-width:0.2707;stroke-miterlimit:10;}
	.st195{fill-rule:evenodd;clip-rule:evenodd;fill:#F9CC3D;}
	.st196{fill-rule:evenodd;clip-rule:evenodd;fill:#FE0058;}
	.st197{fill:#EDBA29;}
	.st198{fill-rule:evenodd;clip-rule:evenodd;fill:#98DFFF;}
	.st199{fill:#29ABE2;}
	.st200{fill-rule:evenodd;clip-rule:evenodd;fill:#FFC72C;stroke:#131314;stroke-width:0.2707;stroke-miterlimit:10;}
	.st201{fill-rule:evenodd;clip-rule:evenodd;fill:#F7F5DD;stroke:#131314;stroke-width:0.1083;stroke-miterlimit:10;}
	.st202{fill-rule:evenodd;clip-rule:evenodd;fill:#FE0058;stroke:#131314;stroke-width:0.1083;stroke-miterlimit:10;}
	.st203{fill:#B3B3B3;}
	.st204{fill:#FFC72C;stroke:#231F20;stroke-width:0.4332;stroke-linecap:round;stroke-linejoin:round;}
	.st205{fill:#FFC84A;}
	.st206{fill:#FF0058;stroke:#131314;stroke-width:1.2117;stroke-miterlimit:10;}
	.st207{fill:#F7F5DD;stroke:#131314;stroke-width:0.9088;stroke-miterlimit:10;}
	.st208{fill:#FFC72B;stroke:#131314;stroke-width:0.9088;stroke-miterlimit:10;}
	.st209{fill:url(#SVGID_00000099630008197801823840000005361671793046696337_);}
	.st210{fill:#FFC72B;stroke:#000000;stroke-width:0.8482;stroke-miterlimit:10;}
	.st211{fill:none;stroke:#F7F5DD;stroke-width:1.4089;stroke-linecap:round;stroke-linejoin:round;stroke-miterlimit:10;}
	.st212{fill:none;stroke:#131314;stroke-width:0.7045;stroke-miterlimit:10;}
	.st213{fill:none;stroke:#F7F5DD;stroke-width:0.7045;stroke-linecap:round;stroke-linejoin:round;stroke-miterlimit:10;}
	.st214{fill:none;stroke:#FF0058;stroke-width:0.7045;stroke-miterlimit:10;}
	.st215{fill:none;stroke:#FF0058;stroke-width:0.7045;stroke-linecap:round;stroke-linejoin:round;stroke-miterlimit:10;}
	.st216{fill:none;stroke:#131314;stroke-width:0.7045;stroke-linecap:round;stroke-linejoin:round;stroke-miterlimit:10;}
	.st217{fill:none;stroke:#000000;stroke-width:0.7045;stroke-miterlimit:10;}
	.st218{fill:none;stroke:#131314;stroke-width:0.8062;stroke-miterlimit:10;}
	.st219{clip-path:url(#SVGID_00000144324931462601841900000002706872908193291925_);}
	.st220{fill:url(#SVGID_00000005948653406791732990000013980593124850380676_);}
	.st221{clip-path:url(#SVGID_00000130637723411251619260000004502643314274370202_);}
	.st222{fill:none;stroke:#131314;stroke-width:1.7355;}
	.st223{fill:#F7F5DD;stroke:#131314;stroke-width:1.2641;stroke-miterlimit:10;}
	.st224{fill:#FFC608;stroke:#0C0609;stroke-width:0.9481;stroke-miterlimit:10;}
	.st225{fill:#FFC72B;stroke:#131314;stroke-width:1.2641;stroke-miterlimit:10;}
	.st226{fill:#FFC72B;stroke:#131314;stroke-width:0.9481;stroke-miterlimit:10;}
	.st227{clip-path:url(#SVGID_00000145738081672129076670000016897607143576744099_);}
	.st228{fill:#F4B821;}
	.st229{fill:#C69560;}
	.st230{fill:#F7F5DD;stroke:#131314;stroke-width:1.2993;stroke-miterlimit:10;}
	.st231{fill:#131314;stroke:#F7F5DD;stroke-width:0.2685;stroke-miterlimit:10;}
	.st232{fill:#FFC72B;stroke:#131314;stroke-width:1.2993;stroke-miterlimit:10;}
	.st233{fill:none;stroke:#131314;stroke-width:1.2993;stroke-miterlimit:10;}
	.st234{fill:#131314;stroke:#F7F5DD;stroke-width:0.2945;stroke-miterlimit:10;}
	.st235{fill:#FF0058;stroke:#131314;stroke-width:1.2993;stroke-miterlimit:10;}
	.st236{fill:#FFFFFF;filter:url(#Adobe_OpacityMaskFilter_00000070834080061524081590000018086394350984081322_);}
	.st237{mask:url(#mask0_479_11673_00000099644528304487065730000005320813079396614829_);}
	.st238{fill:#FFC72B;stroke:#000000;stroke-width:0.6063;stroke-miterlimit:10;}
	.st239{fill:url(#SVGID_00000027577803274439625720000012188628856800721585_);}
	.st240{fill:#FFFFFF;filter:url(#Adobe_OpacityMaskFilter_00000075128880715050229530000011331560553520110494_);}
	.st241{mask:url(#mask0_472_749_00000032621048777137593190000003031189513109940632_);}
	.st242{fill:url(#SVGID_00000155112021655787730090000013312460853439602840_);}
	.st243{fill:url(#SVGID_00000162312069127726239100000008804277928499209650_);}
	.st244{clip-path:url(#SVGID_00000169539051249758596260000002802767074400645278_);}
	.st245{fill:none;stroke:#131314;stroke-width:1.793;}
	.st246{fill:#F7F5DD;stroke:#000000;stroke-width:1.4856;stroke-miterlimit:10;}
	.st247{fill:#FFC72B;stroke:#131314;stroke-width:1.1628;stroke-miterlimit:10;}
	.st248{fill:#F7F5DD;stroke:#131314;stroke-width:1.306;stroke-miterlimit:10;}
	.st249{fill:none;stroke:#131314;stroke-width:1.2653;stroke-miterlimit:10;}
	.st250{fill:#FFC72C;stroke:#131314;stroke-width:0.9795;stroke-miterlimit:10;}
	.st251{fill:#FFC72C;stroke:#131314;stroke-width:0.9795;stroke-linecap:round;stroke-linejoin:round;stroke-miterlimit:10;}
	.st252{fill:#FFFFFF;}
	.st253{fill:#F7F5DD;stroke:#000000;stroke-width:0.4697;stroke-miterlimit:10;}
	.st254{fill:#FFC046;}
	.st255{fill:none;stroke:#131314;stroke-width:0.8612;stroke-linecap:round;stroke-linejoin:round;stroke-miterlimit:10;}
	.st256{fill:none;stroke:#FFFFFF;stroke-width:0.8612;stroke-linecap:round;stroke-linejoin:round;stroke-miterlimit:10;}
	.st257{fill:none;stroke:#F7F5DD;stroke-width:0.4697;stroke-miterlimit:10;}
	.st258{fill:#F7F5DD;stroke:#070506;stroke-width:0.5202;stroke-miterlimit:10;}
	.st259{fill:#F7F5DD;stroke:#000000;stroke-width:0.5202;stroke-miterlimit:10;}
	.st260{fill:#FE0058;stroke:#000000;stroke-width:0.5202;stroke-miterlimit:10;}
	.st261{fill:none;stroke:#F7F5DD;stroke-width:0.8612;stroke-linecap:round;stroke-linejoin:round;stroke-miterlimit:10;}
	.st262{fill:none;stroke:#1A2E35;stroke-width:0.8612;stroke-linecap:round;stroke-linejoin:round;stroke-miterlimit:10;}
</style>
<g id="Layer_1">
</g>
<g id="Home">
</g>
<g id="Restaurants">
</g>
<g id="Grocery">
	<g>
		<path class="st0" d="M861.8,54.5c0,29.9-24.2,54.2-54.1,54.2c0,0,0,0,0,0c-20.3,0-38-11.2-47.3-27.7c-0.3-0.5-0.5-0.9-0.8-1.4
			c-3.9-7.5-6.1-16-6.1-25c0-29.9,24.2-54.2,54.2-54.2c1.1,0,2.2,0,3.3,0.1c1.3,0.1,2.5,0.2,3.8,0.3c2.8,0.4,5.6,1,8.2,1.7
			c9.7,2.8,18.2,8.3,24.8,15.6c1,1.1,1.9,2.2,2.8,3.3c2.8,3.6,5.2,7.7,7,12C860.3,39.9,861.8,47,861.8,54.5z"/>
		<g>
			<g>
				<g>
					<path class="st0" d="M102.2,204.2v-0.8H85.3c0,0.3-0.1,0.5-0.1,0.8v1.1h16.9V204.2z"/>
					<path class="st0" d="M10.8,329.4c0-7.6,2.6-15,7.5-21c4.8-5.9,11.6-10,19.1-11.5c7.5-1.5,15.3-0.3,22,3.3
						c6.7,3.6,12,9.4,15,16.5c2.9,7.1,3.3,14.9,1.1,22.2c-2.2,7.3-6.9,13.6-13.3,17.9c-6.4,4.2-14,6.2-21.6,5.4
						c-7.6-0.7-14.7-4.1-20.1-9.5C14.3,346.6,10.8,338.2,10.8,329.4z M27.6,329.4c0,3.7,1.3,7.4,3.7,10.3s5.7,4.9,9.4,5.6
						c3.7,0.7,7.5,0.2,10.8-1.6c3.3-1.8,5.9-4.6,7.3-8.1c1.4-3.5,1.6-7.3,0.5-10.9c-1.1-3.6-3.4-6.7-6.5-8.8
						c-3.1-2.1-6.9-3-10.6-2.7c-3.7,0.4-7.2,2-9.9,4.7c-1.5,1.5-2.7,3.3-3.5,5.3C28,325.2,27.6,327.3,27.6,329.4L27.6,329.4z"/>
					<path class="st8" d="M27.3,329.4c0-3.8,1.3-7.5,3.7-10.5c2.4-3,5.8-5,9.5-5.7c3.8-0.7,7.6-0.2,11,1.6c3.4,1.8,6,4.7,7.5,8.2
						c1.5,3.5,1.7,7.5,0.6,11.1c-1.1,3.7-3.5,6.8-6.6,8.9c-3.2,2.1-7,3.1-10.8,2.7c-3.8-0.4-7.4-2.1-10.1-4.8
						C29,338,27.3,333.8,27.3,329.4z M32.9,329.4c0,2.5,0.9,5,2.5,6.9c1.6,2,3.8,3.3,6.3,3.8c2.5,0.5,5,0.1,7.3-1.1
						c2.2-1.2,4-3.1,4.9-5.4c1-2.3,1.1-4.9,0.4-7.3c-0.7-2.4-2.3-4.5-4.4-5.9c-2.1-1.4-4.6-2-7.1-1.8c-2.5,0.2-4.9,1.4-6.6,3.1
						C34,323.8,32.9,326.5,32.9,329.4L32.9,329.4z"/>
					<path class="st0" d="M26.9,329.4c0-3.9,1.4-7.7,3.8-10.7c2.5-3,5.9-5.1,9.8-5.9c3.8-0.8,7.8-0.2,11.3,1.7
						c3.5,1.8,6.2,4.8,7.7,8.5c1.5,3.6,1.7,7.6,0.6,11.4c-1.1,3.8-3.5,7-6.8,9.2c-3.3,2.2-7.2,3.2-11.1,2.8
						c-3.9-0.4-7.5-2.1-10.3-4.9c-1.6-1.6-2.8-3.4-3.7-5.5C27.3,333.9,26.9,331.7,26.9,329.4z M27.7,329.4c0,3.7,1.3,7.3,3.7,10.2
						c2.4,2.9,5.6,4.9,9.3,5.6c3.7,0.7,7.4,0.2,10.7-1.6s5.9-4.6,7.3-8c1.4-3.4,1.6-7.3,0.5-10.8c-1.1-3.6-3.4-6.6-6.5-8.7
						c-3.1-2.1-6.8-3-10.5-2.6c-3.7,0.4-7.2,2-9.8,4.6c-1.5,1.5-2.7,3.3-3.5,5.2C28.1,325.2,27.7,327.3,27.7,329.4z M32.5,329.4
						c0-2.6,0.9-5.2,2.6-7.2c1.7-2,4-3.4,6.5-3.9c2.6-0.5,5.2-0.1,7.6,1.1c2.3,1.2,4.1,3.2,5.1,5.7c1,2.4,1.1,5.1,0.4,7.6
						c-0.8,2.5-2.4,4.7-4.5,6.1c-2.2,1.5-4.8,2.1-7.4,1.9c-2.6-0.3-5-1.4-6.9-3.3C33.7,335.3,32.5,332.4,32.5,329.4z M33.3,329.4
						c0,1.6,0.3,3.1,1,4.5c0.7,1.4,1.6,2.6,2.8,3.6c1.2,1,2.6,1.7,4.1,2.1c1.5,0.4,3.1,0.4,4.6,0.1c1.9-0.4,3.7-1.3,5.2-2.7
						c1.4-1.4,2.4-3.1,2.9-5s0.4-3.9-0.2-5.8c-0.6-1.9-1.8-3.5-3.3-4.8c-1.5-1.3-3.4-2.1-5.4-2.3c-2-0.2-4,0.1-5.8,0.9
						c-1.8,0.8-3.3,2.2-4.4,3.9C33.9,325.5,33.3,327.5,33.3,329.4z"/>
					<path class="st0" d="M197.1,329.4c0-7.6,2.6-15,7.5-21c4.8-5.9,11.6-10,19.1-11.5c7.5-1.5,15.3-0.3,22,3.3
						c6.7,3.6,12,9.4,15,16.5c2.9,7.1,3.3,14.9,1.1,22.2c-2.2,7.3-6.9,13.6-13.3,17.9c-6.4,4.2-14,6.2-21.6,5.4
						c-7.6-0.7-14.7-4.1-20.1-9.5C200.6,346.6,197.1,338.2,197.1,329.4z M213.9,329.4c0,3.8,1.3,7.4,3.7,10.3
						c2.4,2.9,5.7,4.9,9.4,5.6c3.7,0.7,7.5,0.2,10.8-1.6c3.3-1.8,5.9-4.6,7.3-8.1c1.4-3.5,1.6-7.3,0.5-10.9
						c-1.1-3.6-3.4-6.7-6.5-8.8c-3.1-2.1-6.9-3-10.6-2.7c-3.7,0.4-7.2,2-9.9,4.7C215.6,321,213.9,325.1,213.9,329.4z"/>
					<path class="st8" d="M213.6,329.4c0-3.8,1.3-7.5,3.7-10.5c2.4-3,5.8-5,9.5-5.7c3.8-0.7,7.6-0.2,11,1.6c3.4,1.8,6,4.7,7.5,8.2
						c1.5,3.5,1.7,7.5,0.6,11.1c-1.1,3.7-3.5,6.8-6.6,8.9c-3.2,2.1-7,3.1-10.8,2.7c-3.8-0.4-7.4-2.1-10.1-4.8
						C215.3,338,213.6,333.8,213.6,329.4z M219.2,329.4c0,2.5,0.9,5,2.5,6.9c1.6,2,3.8,3.3,6.3,3.8c2.5,0.5,5.1,0.1,7.3-1.1
						c2.2-1.2,4-3.1,5-5.5c1-2.3,1.1-4.9,0.4-7.4c-0.7-2.4-2.3-4.5-4.4-5.9c-2.1-1.4-4.6-2-7.1-1.8c-2.5,0.2-4.9,1.4-6.7,3.1
						C220.3,323.8,219.2,326.5,219.2,329.4z"/>
					<path class="st0" d="M213.2,329.4c0-3.9,1.3-7.7,3.8-10.8c2.5-3,5.9-5.1,9.8-5.9c3.8-0.8,7.8-0.2,11.3,1.7
						c3.5,1.8,6.2,4.8,7.7,8.5c1.5,3.6,1.7,7.7,0.6,11.4c-1.1,3.8-3.5,7-6.8,9.2c-3.3,2.2-7.2,3.2-11.1,2.8
						c-3.9-0.4-7.6-2.1-10.3-4.9C215,338.2,213.2,333.9,213.2,329.4z M214,329.4c0,3.7,1.3,7.3,3.6,10.2c2.4,2.9,5.6,4.8,9.3,5.6
						c3.6,0.7,7.4,0.2,10.7-1.6c3.3-1.8,5.9-4.6,7.3-8c1.4-3.4,1.6-7.3,0.5-10.8c-1.1-3.6-3.4-6.6-6.5-8.7c-3.1-2.1-6.8-3-10.5-2.6
						c-3.7,0.4-7.2,2-9.8,4.6C215.7,321.1,214,325.2,214,329.4z M218.8,329.4c0-2,0.5-3.9,1.5-5.6c1-1.7,2.4-3.1,4-4.1
						c1.7-1,3.6-1.6,5.6-1.6c2,0,3.9,0.4,5.6,1.3c1.7,0.9,3.2,2.3,4.2,3.9c1,1.7,1.6,3.6,1.7,5.5c0.1,2-0.3,3.9-1.2,5.7
						c-0.9,1.8-2.2,3.2-3.8,4.3c-1.9,1.2-4,1.9-6.3,1.9c-1.5,0-3-0.3-4.3-0.9c-1.4-0.6-2.6-1.4-3.7-2.5c-1.1-1.1-1.9-2.3-2.5-3.7
						C219,332.4,218.8,330.9,218.8,329.4L218.8,329.4z M219.6,329.4c0,2.4,0.8,4.8,2.4,6.7c1.5,1.9,3.7,3.2,6.1,3.6
						c2.4,0.5,4.9,0.1,7-1c2.1-1.1,3.8-3,4.7-5.2c0.9-2.2,1-4.7,0.3-7.1c-0.7-2.3-2.2-4.3-4.2-5.7c-2-1.3-4.4-2-6.9-1.7
						c-2.4,0.2-4.7,1.3-6.4,3C220.7,324,219.6,326.7,219.6,329.4z"/>
					<path class="st7" d="M67.1,250.6c12.7-21.8,18.3-45.9,18.3-45.9h11.3c0,0-9.8,33.1-9.8,70.8s25.6,42.8,25.6,42.8h52.9
						c18.1-14.1,14.8-34.6,1.8-46.1c-13-11.5-18-17.5-18-23c0-5.5,1-9.4,4.5-9.4h44.4c46.8,0,62.3,29.5,66.8,42.2
						c-1.3-1-2.7-2-4.1-3c-31-21.1-84.5-10.7-78,42.5h14.5c-4.1,5.7-9.2,11-14.4,11h-73c-21.5,0-23-9.4-23-9.4H75.8l-29.9-27V275
						C45.9,275,54.3,272.4,67.1,250.6z"/>
					<path class="st0" d="M90,328.2c-1.6-1.1-2.8-2.7-3.5-4.6H75.7l-30.2-27.2v-21.7l0.3-0.1c2.9-0.9,11-7.2,21-24.2
						c12.6-21.5,18.2-45.5,18.3-45.8l0.1-0.3h12.2l-0.2,0.5c-0.1,0.3-9.9,33.5-9.9,70.8c0,19.3,6.9,29.8,12.6,35.2
						c3.5,3.4,7.9,5.9,12.6,7.2h52.8c7.8-6.1,12-13.8,12.3-22.2c0.2-8.4-3.6-16.9-10.6-23.1c-13.5-12-18.1-17.8-18.1-23.3
						c0-4.2,0.5-9.9,4.9-9.9h44.4c47.1,0,62.7,29.7,67.2,42.4l0.5,1.3l-1.1-0.8c-1.5-1.1-2.8-2.1-4.1-3c-8.8-5.9-19.1-9.4-29.7-10
						c-10.8-0.7-21.2,1.7-29.2,6.6c-14.3,8.7-20.9,24.8-18.5,45.2h14.9l-0.5,0.6c-5.3,7.4-10.3,11.1-14.8,11.1h-73
						C100.8,333,94.1,331.3,90,328.2z M182.4,322l0-0.4c-2.5-21,4.1-37.4,18.8-46.4c8.2-5,18.8-7.4,29.7-6.7
						c10.8,0.7,21.2,4.2,30.1,10.2c1,0.6,1.9,1.4,3,2.1c-5.1-13.2-21-40.5-65.9-40.5h-44.4c-2.8,0-4,2.9-4,9
						c0,5.2,4.5,10.9,17.9,22.7c7.2,6.3,11.1,15,10.9,23.8c-0.2,8.8-4.7,16.7-12.7,23l-0.1,0.1h-53.2c-0.3,0-6.6-1.4-13-7.4
						c-10.7-10-12.9-25-12.9-35.9c0-34.8,8.5-66,9.7-70.4H85.8c-0.7,3-6.4,25.5-18.3,45.7C56,270.5,48,274.6,46.3,275.3V296
						L76,322.8h11.2l0.1,0.4c0,0,0.4,2.3,3.3,4.5c2.7,2.1,8.3,4.5,19.2,4.5h73c4,0,8.7-3.5,13.6-10.1L182.4,322z"/>
					<path class="st0" d="M259.1,277.2c1.5,1,2.8,2,4.1,3c0.7,1.8,1.2,3.7,1.6,5.7v20.5h-61.5c-2.2,4.7-4.8,9.2-7.8,13.4h-14.5
						C174.7,266.5,228.2,256.1,259.1,277.2z"/>
					<path class="st7" d="M260.8,279.1c1.5,1,2.8,2,4.1,3c26.6,20.1,24,39.5,24,39.5H182.8C176.3,268.4,229.8,257.9,260.8,279.1z"/>
					<path class="st0" d="M182.4,321.6c-2.5-21,4.1-37.4,18.8-46.4c8.2-5,18.8-7.4,29.7-6.7c10.8,0.7,21.2,4.2,30.1,10.2
						c1.3,0.9,2.6,1.9,4.1,3c7.7,5.7,17.6,15.2,22.1,27.5c2.7,7.4,2.1,12.2,2.1,12.4l0,0.4H182.4L182.4,321.6z M286.5,309.4
						c-4.4-12.1-14.3-21.4-21.8-27.1c-1.5-1.1-2.8-2.1-4.1-3c-8.8-5.9-19.1-9.4-29.7-10c-10.8-0.7-21.2,1.7-29.2,6.6
						c-14.3,8.7-20.9,24.8-18.5,45.2h105.4C288.6,319.9,288.7,315.5,286.5,309.4z"/>
					<path class="st7" d="M87.9,334.4c0,0,1.2-32.9-31-45c-32.2-12.1-54,15.7-54,15.7s6.3,11.5,21.5,10c15.3-1.4,27.4-4.5,39.6,9.4
						C77,339.4,81.1,335.3,87.9,334.4z"/>
					<path class="st0" d="M63.8,324.8c-10.8-12.3-21.3-11.2-34.6-9.7c-1.5,0.2-3,0.3-4.5,0.5c-15.4,1.5-21.9-10.1-22-10.3l-0.1-0.2
						l0.2-0.2c4.2-5,9.3-9.2,15-12.5c8.7-5,22.6-9.6,39.4-3.3c16.8,6.3,24.4,18.3,27.8,27.3c2.2,5.8,3.4,11.9,3.4,18.1v0.4l-0.4,0
						c-1,0.1-2,0.3-3,0.5c-1.5,0.4-3,0.6-4.6,0.6C76.4,336,71.8,334,63.8,324.8z M84.2,316.6c-3.4-8.8-10.8-20.6-27.3-26.8
						c-16.5-6.2-30.1-1.6-38.7,3.3c-5.5,3.2-10.5,7.3-14.6,12.1c1,1.6,7.4,10.9,21,9.6c1.6-0.1,3.1-0.3,4.5-0.5
						c13-1.4,24.3-2.6,35.4,10c10.8,12.3,15.3,11.4,20.4,10.3c0.9-0.2,1.8-0.4,2.7-0.5C87.4,328.1,86.2,322.2,84.2,316.6L84.2,316.6
						z"/>
					
						<linearGradient id="SVGID_1_" gradientUnits="userSpaceOnUse" x1="45.912" y1="8560.6777" x2="72.4411" y2="8560.6777" gradientTransform="matrix(1 0 0 -1 0 8758)">
						<stop  offset="0" style="stop-color:#FFCF00;stop-opacity:0"/>
						<stop  offset="1" style="stop-color:#FFCF00;stop-opacity:0.8"/>
					</linearGradient>
					<path class="st9" d="M72.4,184.5v25.7l-26.5,7v-39.7L72.4,184.5z"/>
					<path class="st0" d="M80.9,183.6V211c-2.7,0.2-5.5,0.4-8.4,0.4v-28.2C75.3,183.2,78.1,183.4,80.9,183.6z"/>
					<path class="st7" d="M109.3,197.3c0,6.7-12.2,12.2-28.5,13.7v-27.4C97.2,185.1,109.3,190.6,109.3,197.3z"/>
					<path class="st0" d="M80.4,183.2h0.5c17,1.5,28.8,7.3,28.8,14.1c0,6.8-11.9,12.6-28.8,14.1h-0.5V183.2z M81.3,210.6
						c16-1.5,27.6-7.1,27.6-13.2c0-6.2-11.6-11.8-27.6-13.2V210.6z"/>
					<path class="st0" d="M219.1,245.7c14.4,0-6.2-16.4-12.7-19.1c-6.5-2.8-12.2,2.2-21.4,2.2h-12.7c-4.5,0-4.2-2-9.4-2
						s-10.7,9.6-9.3,13.1c0.7,2,1.6,3.9,2.5,5.7L219.1,245.7z"/>
					<path class="st0" d="M102.4,202.4c0.9,0,1.8-0.3,2.6-0.8c0.8-0.5,1.4-1.3,1.7-2.1c0.4-0.9,0.4-1.8,0.3-2.7
						c-0.2-0.9-0.6-1.8-1.3-2.4c-0.7-0.7-1.5-1.1-2.4-1.3c-0.9-0.2-1.9-0.1-2.7,0.3c-0.9,0.4-1.6,1-2.1,1.7
						c-0.5,0.8-0.8,1.7-0.8,2.6c0,1.2,0.5,2.4,1.4,3.3C100,201.9,101.2,202.4,102.4,202.4z"/>
					<path class="st0" d="M45.9,286.7c4.8,0.8,9.4,2.3,13.8,4.4c2.2,1,4.2,2.2,6.2,3.5c4,2.6,7.5,5.9,10.5,9.6
						c0.8,0.9,1.5,1.9,2.2,2.8l1,1.5c0.3,0.5,0.7,1,1,1.5c2.5,4.2,4.6,8.6,6.3,13.1c-0.7-4.9-2.2-9.7-4.4-14.2
						c-2.2-4.5-5.3-8.6-9-12c-3.7-3.4-8.1-6.1-12.9-7.8C55.9,287.2,50.9,286.4,45.9,286.7z"/>
					<path class="st0" d="M205.5,287.1h22.4c0.2,0,0.3-0.1,0.4-0.2c0.1-0.1,0.2-0.3,0.2-0.5c0-0.2-0.1-0.3-0.2-0.5
						c-0.1-0.1-0.3-0.2-0.4-0.2h-22.4c-0.1,0-0.2,0-0.3,0c-0.1,0-0.2,0.1-0.3,0.1c-0.1,0.1-0.1,0.1-0.2,0.2c0,0.1-0.1,0.2-0.1,0.3
						c0,0.1,0,0.2,0.1,0.3c0,0.1,0.1,0.2,0.2,0.2c0.1,0.1,0.2,0.1,0.3,0.1C205.3,287.1,205.4,287.1,205.5,287.1z"/>
					<path class="st0" d="M205.5,290.7h22.4c0.2,0,0.3-0.1,0.4-0.2c0.1-0.1,0.2-0.3,0.2-0.5c0-0.2-0.1-0.3-0.2-0.5
						c-0.1-0.1-0.3-0.2-0.4-0.2h-22.4c-0.1,0-0.2,0-0.3,0c-0.1,0-0.2,0.1-0.3,0.1c-0.1,0.1-0.1,0.1-0.2,0.2c0,0.1-0.1,0.2-0.1,0.3
						c0,0.1,0,0.2,0.1,0.3c0,0.1,0.1,0.2,0.2,0.2c0.1,0.1,0.2,0.1,0.3,0.1C205.3,290.7,205.4,290.7,205.5,290.7z"/>
					<path class="st0" d="M205.5,294.3h22.4c0.2,0,0.4-0.1,0.5-0.2c0.1-0.1,0.2-0.2,0.2-0.4c0-0.1,0-0.3,0-0.4
						c-0.1-0.1-0.1-0.2-0.3-0.3c-0.1-0.1-0.2-0.1-0.4-0.1h-22.4c-0.1,0-0.2,0-0.3,0.1c-0.1,0-0.2,0.1-0.2,0.2
						c-0.1,0.1-0.2,0.2-0.2,0.4c0,0.1,0,0.3,0,0.4c0.1,0.1,0.1,0.2,0.3,0.3C205.2,294.3,205.3,294.3,205.5,294.3z"/>
					<path class="st0" d="M143,364.3c79,0,143-0.9,143-2c0-1.1-64-2-143-2c-79,0-143,0.9-143,2C0,363.4,64,364.3,143,364.3z"/>
					<path class="st0" d="M934.9,364.5c0-2.6-101.3-5.3-226.4-6.2c-125-0.9-226.4,0.5-226.4,3.1c0,2.6,101.3,5.3,226.4,6.2
						C833.5,368.4,934.9,367,934.9,364.5z"/>
					<path class="st0" d="M636.3,364.3c17.3,0,31.3-16.1,31.3-36c0-19.9-14-36-31.3-36c-17.3,0-31.3,16.1-31.3,36
						C605,348.2,619,364.3,636.3,364.3z"/>
					<path class="st0" d="M892.1,364.3c16.7,0,30.3-15.6,30.3-34.9c0-19.3-13.6-34.9-30.3-34.9c-16.7,0-30.3,15.6-30.3,34.9
						C861.8,348.7,875.4,364.3,892.1,364.3z"/>
					<path class="st0" d="M574,329.3c0,0-18.7-52.8-19.9-53.4c-1.2-0.6-34.5-8.5-34.5-8.5l-18.3,32.7l4.4,22.7l11-0.6l53.3,8.3
						L574,329.3z"/>
					<path class="st0" d="M522.3,328.3c0-19.9,12.9-36,28.7-36c15.9,0,28.7,16.1,28.7,36c0,19.9-12.9,35.9-28.7,35.9h-14.4
						c-1.7-1-3.4-4.4-4.6-9C526.1,348.7,522.3,339.1,522.3,328.3z"/>
					<path class="st173" d="M536.7,349.9c9.5,0,17.2-9.6,17.2-21.5c0-11.9-7.7-21.5-17.2-21.5c-9.5,0-17.2,9.6-17.2,21.5
						C519.5,340.2,527.2,349.9,536.7,349.9z"/>
					<path class="st174" d="M537.4,344.2c6.6,0,11.9-7.1,11.9-15.9c0-8.8-5.3-15.9-11.9-15.9c-6.6,0-11.9,7.1-11.9,15.9
						C525.5,337.1,530.8,344.2,537.4,344.2z"/>
					<path class="st0" d="M852.4,340.5l-75.4-4.3l-199.7-7.2l207.5-75c0,0,65.9,6.8,66.2,8.5C851.2,264,876.9,324.5,852.4,340.5z"/>
					<path class="st174" d="M841.7,297.2c0,0,10.9,17.1,11.1,42.9c0,0,31.9-1.4,46.2-3.3c14.3-1.8,46-0.3,51.2-6.6
						c5.2-6.3,6-28.2,0-40.2c-6-12-22.3-12.7-22.3-12.7S835.7,265.8,841.7,297.2z"/>
					<path class="st174" d="M487.3,273l-0.9,29.5c-0.1,2.6,0.3,5.3,1.3,7.7c1,2.5,2.4,4.7,4.3,6.5c1.9,1.9,4.1,3.3,6.5,4.3
						c2.5,1,5.1,1.4,7.7,1.3c0,0,6.7-26,9.2-30.8C521.7,279.2,488,264.4,487.3,273z"/>
					<path class="st174" d="M487.2,273.9h0.4c5.7,0.3,11.3,2.1,16.1,5.2c4.9,3.1,8.8,7.3,11.6,12.4c5.1-4.4,11.6-6.9,18.3-7.2
						c4.7-0.1,9.4,1,13.6,3.2c11.6,5.9,17.9,18.3,20.9,26.3c2.1,5.6,0.7,10.7,4.6,15.1l203.9,2.6c0,0-2.9-47.6,34.4-48.4
						c0,0,16.3-0.8,30.6,14c40.1-5.5,106.4-3.2,108.6-7.2l0-0.5l-0.7-5.1c-1.7-12.1-7-23.3-15.3-32.3c-8.3-9-19.1-15.2-31-17.8
						c-20.3-4.5-41.7-9.1-47.3-9.8l-0.1,0c-0.6-0.5-6.9-5.6-16.1-13.1c-14.6-11.8-36.2-29.2-53.5-42.6l-0.4-0.3
						c-17.4-13.5-38.1-22-60-24.7c-5.4-0.7-10.9-1.2-16.4-1.3H539.6c-26.8,0-49.3,21.7-50.1,48.5c-1.2,41.3-2.5,83.3-2.3,81.9
						L487.2,273.9z"/>
					<path class="st175" d="M550.9,142.5c0,0,115.6,5.6,117.2,5.7c18.2,1.2,31.1,9,44,22c20.6,20.7,42.9,51.8,51.5,56.8
						c0.3,0.2,0.6,0.3,1,0.5c2.2,0.9,5.5,1.5,9.8,2c17.6,2,83.1,14,85.9,36"/>
					<path class="st0" d="M745.1,167.9l80.4,58c16.2-0.8,30.3-1.4,30.3-1.5c-3.8-2.6-12.8-10.2-19.6-15.9
						c-15.1-11.8-33.7-27.7-51.5-40.9C775.8,166.6,756.9,167.5,745.1,167.9z"/>
					<path class="st0" d="M735.2,168.4l80.3,57.9l2.2-0.1l-80.3-57.9L735.2,168.4z"/>
					<path class="st0" d="M712.1,170.2c20.6,20.7,42.9,51.8,51.5,56.8c0.3,0.2,0.6,0.3,1,0.5c1,0.5,2.1,0.9,3.1,1.2
						c1.5,0.4,3,0.7,4.5,0.7c0.7,0,1.4,0,2.1,0.1c11.7,0.1,28.2-2.9,37.3-3.1l-80.1-57.8C723.5,169.1,712.1,170.2,712.1,170.2z"/>
					<path class="st0" d="M576.6,293.2c1.3,1.1,2.9,1.7,4.6,1.8l57.3,3.6c-1.1-3.8-2.6-10.7-1.1-14c0.1-0.2,0.2-0.4,0.3-0.6
						l-67.3-3.5C567.7,285.1,573.3,290.6,576.6,293.2z"/>
					<path class="st174" d="M513.1,224.1l115.2,4.5c1.1,0,2.2-0.3,3-1.1c0.8-0.7,1.3-1.7,1.4-2.8l3.8-52.1c0-0.6,0-1.3-0.2-1.8
						c-0.2-0.6-0.5-1.1-0.9-1.6c-0.4-0.5-0.9-0.9-1.5-1.1c-0.6-0.3-1.2-0.4-1.8-0.5L514.9,165c-0.6,0-1.1,0.1-1.7,0.3
						c-0.5,0.2-1,0.5-1.4,0.9c-0.4,0.4-0.7,0.8-1,1.4c-0.2,0.5-0.4,1.1-0.4,1.6l-2.2,50c0,1.3,0.5,2.6,1.4,3.5
						C510.6,223.5,511.8,224,513.1,224.1z"/>
					<path class="st0" d="M791.3,330.9c0-18.4,13.3-33.4,29.7-33.4s29.7,14.9,29.7,33.4c0,18.4-13.3,33.4-29.7,33.4
						c-0.9,0-1.8,0-2.6-0.1l-7.1-0.4l-2.2-2.3C798.6,356.3,791.3,344.6,791.3,330.9z"/>
					<path class="st174" d="M811.3,363.8c18,0,32.5-16.3,32.5-36.5c0-20.2-14.6-36.5-32.5-36.5s-32.5,16.3-32.5,36.5
						C778.8,347.4,793.3,363.8,811.3,363.8z"/>
					<path class="st176" d="M811.3,349.1c10.7,0,19.5-9.8,19.5-21.9s-8.7-21.9-19.5-21.9c-10.7,0-19.5,9.8-19.5,21.9
						S800.6,349.1,811.3,349.1z"/>
					<path class="st174" d="M811.7,343.4c7.7,0,13.9-7.2,13.9-16.1s-6.2-16.1-13.9-16.1s-13.9,7.2-13.9,16.1S804,343.4,811.7,343.4z
						"/>
					<path class="st0" d="M595.1,203.1l0.1-3.3l-1.8-0.1c-0.2,0-0.4,0-0.6,0c-0.2,0-0.4,0.1-0.6,0.3c-0.2,0.1-0.3,0.3-0.4,0.5
						c-0.1,0.2-0.2,0.4-0.2,0.6l-0.4,1.8l-2.6-0.1l0.4-1.9c0.3-1.4,0.9-2.1,1.8-2.4v-0.1c-0.5-0.2-1-0.6-1.3-1
						c-0.3-0.5-0.4-1.1-0.4-1.6c0-1.5,0.9-2.8,3.9-2.7l4.6,0.2l-0.2,10L595.1,203.1z M595.2,195.3l-1.7-0.1c-1,0-1.6,0.1-1.6,1
						c0,0.9,0.6,1.2,1.6,1.2l1.7,0.1L595.2,195.3z"/>
					<path class="st0" d="M584.8,202.9c-0.4,0-0.9-0.1-1.3-0.3c-0.4-0.2-0.7-0.5-1-0.9h-0.1l-0.2,0.9l-2.2-0.1l0.2-7.2l2.2,0.1
						l0.1,0.9h0.1c0.3-0.4,0.6-0.6,1-0.8c0.4-0.2,0.9-0.2,1.3-0.2c1.7,0.1,3.3,1.3,3.2,3.9C588.2,201.9,586.6,203,584.8,202.9z
						 M584,201c1,0,1.7-0.5,1.7-1.9c0-1.3-0.6-1.9-1.6-2c-0.2,0-0.5,0-0.7,0.1c-0.2,0.1-0.4,0.2-0.6,0.4c-0.2,0.2-0.3,0.4-0.4,0.6
						c-0.1,0.2-0.1,0.5-0.1,0.7c0,0.2,0,0.5,0.1,0.7c0.1,0.2,0.2,0.5,0.4,0.6c0.2,0.2,0.4,0.3,0.6,0.4
						C583.6,200.9,583.8,201,584,201L584,201z"/>
					<path class="st0" d="M576.4,205l0.1-3.5h-0.1c-0.3,0.4-0.6,0.6-1,0.8c-0.4,0.2-0.9,0.2-1.3,0.2c-1.7-0.1-3.2-1.3-3.1-3.9
						c0.1-2.6,1.7-3.7,3.4-3.6c0.4,0,0.9,0.1,1.3,0.3c0.4,0.2,0.7,0.5,1,0.9h0.1l0.2-0.9l2.2,0.1l-0.3,9.8L576.4,205z M574.9,200.6
						c0.5,0,0.9-0.2,1.2-0.6c0.3-0.3,0.5-0.8,0.5-1.3c0-0.5-0.1-0.9-0.4-1.3c-0.3-0.4-0.7-0.6-1.2-0.7c-1,0-1.7,0.5-1.7,1.8
						C573.2,200,573.9,200.6,574.9,200.6L574.9,200.6z"/>
					<path class="st0" d="M569,194.2c-0.2,0-0.3,0-0.5-0.1c-0.2-0.1-0.3-0.2-0.4-0.3c-0.1-0.1-0.2-0.3-0.3-0.4
						c-0.1-0.2-0.1-0.3-0.1-0.5c0-0.2,0-0.3,0.1-0.5c0.1-0.2,0.2-0.3,0.3-0.4c0.1-0.1,0.3-0.2,0.4-0.3c0.2-0.1,0.3-0.1,0.5-0.1
						c0.3,0,0.7,0.2,0.9,0.4c0.2,0.2,0.3,0.6,0.3,0.9c0,0.3-0.2,0.7-0.4,0.9C569.7,194.1,569.4,194.3,569,194.2z M567.5,202l0.3-7.1
						l2.3,0.1l-0.3,7.1L567.5,202z"/>
					<path class="st0" d="M563.4,202c-0.4,0-0.9-0.1-1.3-0.3c-0.4-0.2-0.7-0.5-0.9-0.9h-0.1l-0.2,0.9l-2.1-0.1l0.5-9.7l2.3,0.1
						l-0.2,3.6h0.1c0.3-0.3,0.6-0.6,1-0.8c0.4-0.2,0.8-0.2,1.3-0.2c1.6,0.1,3.1,1.3,3.1,3.8C566.7,200.9,565.1,202.1,563.4,202z
						 M562.7,200.1c1,0,1.7-0.5,1.7-1.8c0.1-1.3-0.6-1.9-1.6-2c-0.2,0-0.5,0-0.7,0.1c-0.2,0.1-0.4,0.2-0.6,0.4
						c-0.2,0.2-0.3,0.4-0.4,0.6c-0.1,0.2-0.1,0.5-0.1,0.7c0,0.2,0,0.5,0,0.7c0.1,0.2,0.2,0.4,0.3,0.6c0.1,0.2,0.3,0.3,0.6,0.4
						C562.2,200.1,562.5,200.1,562.7,200.1z"/>
					<path class="st0" d="M555.3,201.5l0.2-3.8c0-0.2,0-0.4,0-0.6c0-0.2-0.1-0.4-0.3-0.5c-0.1-0.1-0.3-0.3-0.4-0.4
						c-0.2-0.1-0.4-0.1-0.5-0.1c-0.8,0-1.1,0.3-1.2,1.3l-0.2,3.9l-2.3-0.1l0.2-3.8c0-0.2,0-0.4,0-0.6c0-0.2-0.1-0.4-0.3-0.5
						c-0.1-0.1-0.3-0.3-0.4-0.4c-0.2-0.1-0.4-0.1-0.5-0.1c-0.9,0-1.1,0.5-1.2,1.3l-0.2,3.9l-2.2-0.1l0.3-4.4c0.1-2,1.4-2.8,2.7-2.7
						c0.5,0,0.9,0.1,1.3,0.3c0.4,0.2,0.8,0.5,1.1,0.9h0.1c0.2-0.3,0.6-0.6,0.9-0.8c0.4-0.2,0.8-0.3,1.2-0.2c0.4,0,0.8,0.1,1.2,0.3
						c0.4,0.2,0.6,0.5,0.8,0.9h0.1l0.2-0.9l2.1,0.1l-0.4,7.1L555.3,201.5z"/>
					<path class="st0" d="M541.9,201.1c-0.4,0-0.8-0.1-1.2-0.3c-0.4-0.2-0.7-0.5-0.9-0.9h-0.1l-0.2,0.9l-2.1-0.1l0.5-6.9l2.1,0.1
						l0.1,0.9h0.1c0.3-0.3,0.6-0.6,1-0.8c0.4-0.2,0.8-0.2,1.2-0.2c1.6,0.1,3.1,1.3,2.9,3.8C545.1,200.1,543.5,201.2,541.9,201.1z
						 M541.2,199.3c0.9,0,1.6-0.5,1.7-1.8c0.1-1.3-0.5-1.9-1.5-1.9c-0.2,0-0.5,0-0.7,0.1c-0.2,0.1-0.4,0.2-0.6,0.4
						c-0.2,0.2-0.3,0.4-0.4,0.6c-0.1,0.2-0.1,0.5-0.1,0.7c0,0.2,0,0.5,0,0.7c0.1,0.2,0.2,0.4,0.3,0.6c0.1,0.2,0.3,0.3,0.5,0.4
						C540.8,199.2,541,199.3,541.2,199.3z"/>
					<path class="st0" d="M533.1,200.6l0.4-5.1l-1.7-0.1l0.1-1.9l1.7,0.1l0.1-1.8l2.2,0.1l-0.1,1.8l1.4,0.1l-0.1,1.9l-1.4-0.1
						l-0.3,5.1L533.1,200.6z"/>
					<path class="st0" d="M527.2,200.5c-0.7,0-1.4-0.2-2-0.6c-0.6-0.4-1-1-1.2-1.7l2.1,0.1c0.1,0.2,0.3,0.3,0.5,0.4
						c0.2,0.1,0.4,0.2,0.6,0.2c0.4,0,0.8-0.1,1.1-0.4c0.3-0.3,0.5-0.6,0.6-1.1l-5-0.2c0-0.3,0-0.5,0-0.8c0-0.5,0.1-0.9,0.3-1.3
						c0.2-0.4,0.5-0.8,0.8-1.1c0.3-0.3,0.8-0.5,1.2-0.7c0.4-0.1,0.9-0.2,1.4-0.1c2.3,0.1,3.7,1.3,3.5,3.8
						C531.1,199.5,529.5,200.6,527.2,200.5z M529.1,196.1c-0.1-0.3-0.2-0.6-0.5-0.9c-0.3-0.2-0.6-0.4-0.9-0.4c-0.3,0-0.7,0.1-1,0.3
						c-0.3,0.2-0.5,0.5-0.5,0.8L529.1,196.1z"/>
					<path class="st11" d="M611.1,196.8c-0.1,0.3-0.1,0.7-0.1,1c0,1.3,0.6,2.5,1.5,3.5c0.9,0.9,2.2,1.5,3.5,1.5
						c0.9,0.1,1.8-0.1,2.6-0.6c0.8-0.4,1.4-1.1,1.9-1.8l5,1.9c-0.5,1.1-1.3,2.1-2.2,2.9l-6.6,6c-0.2,0.2-0.5,0.3-0.7,0.2
						c-0.3,0-0.5-0.1-0.7-0.3l-6.5-6.6c-0.9-0.9-1.6-2-2.1-3.2c-0.5-1.2-0.7-2.5-0.7-3.8c0-0.9,0.2-1.8,0.5-2.7L611.1,196.8z"/>
					<path class="st11" d="M621.7,189.3c0.1-0.2,0.1-0.5,0.1-0.8c0-0.3-0.1-0.5-0.2-0.8c-0.1-0.2-0.3-0.5-0.5-0.6
						c-0.2-0.2-0.4-0.3-0.7-0.4c-0.5-0.2-1.1-0.2-1.6,0c-0.5,0.2-0.9,0.6-1.1,1.1L621.7,189.3z"/>
					<path class="st11" d="M613,196c1.8-4.2,4.4-6.7,6-6.6c0.1,0,0.3,0,0.4,0.1c0.8,0.3,1.2,1.4,1.3,3.1c0,2-0.4,4.1-1.1,6L613,196z
						"/>
					<path class="st11" d="M611.7,195.4l-5.5-2.1l-4.4-1.7c0.2-0.5,0.7-1,1.2-1.2c0.6-0.2,1.2-0.2,1.7,0l3.3,1.3
						c1-1.1,2.3-2,3.7-2.6c1.4-0.6,2.9-0.8,4.5-0.7h0.1h0.2h0.2h0.3C615.2,189.5,613.1,192,611.7,195.4z"/>
					<path class="st11" d="M626.2,198.9c0,0.3,0,0.6-0.1,0.9c0,0,0,0,0,0.1c-0.1,0.4-0.1,0.7-0.2,1.1L621,199
						c0.8-2.1,1.2-4.3,1.2-6.5c0-0.8-0.2-1.5-0.4-2.3c1.5,1,2.8,2.5,3.5,4.1c0,0.1,0.1,0.1,0.1,0.2c0.1,0.2,0.2,0.4,0.3,0.6
						c0.1,0.2,0.1,0.3,0.1,0.5c0,0.2,0.1,0.2,0.1,0.4c0,0.1,0.1,0.5,0.2,0.7c0,0.1,0,0.1,0,0.2c0,0.2,0.1,0.5,0.1,0.8
						c0,0.1,0,0.1,0,0.2c0,0.3,0,0.6,0,0.8C626.2,198.8,626.2,198.9,626.2,198.9z"/>
					<path class="st0" d="M939.8,259.5l1.7,1.8c0,0,5.7,17.5,4,21.7c0,0-1.4,1.2-21.6,2.7c0,0-31.1,2.8-36.7-0.2l-31-25.7
						C856.1,259.7,937.8,260.8,939.8,259.5z"/>
					<path class="st8" d="M896,284.5h-0.9c-5.6-0.1-7-1.1-7.1-1.1c-16.1-14-21.8-18.9-23.8-20.7c2.8,0,9.5,0.1,19.1,0.1
						c9.8,0,20-0.1,30.4-0.2l8.2-0.1c9.9-0.1,14.9-0.1,17.3-0.3c0.6,0,1.3-0.1,1.9-0.3c3.7,11,3.5,18.3,3.5,18.4
						c0,0.4-0.2,0.9-1.3,1.1c-4.9,0.9-13.8,1.4-19.1,1.7l-1.8,0.1l-3.7,0.2C911.8,283.9,901.4,284.5,896,284.5L896,284.5z"/>
					<path class="st0" d="M940.8,262.7c3.5,10.6,3.3,17.6,3.3,17.7v0.1c0,0.1-0.2,0.3-0.9,0.5c-4.9,0.9-13.7,1.4-19,1.7l-1.8,0.1
						l-3.7,0.2c-6.9,0.4-17.3,1-22.7,1h-0.9c-4.9-0.1-6.5-0.9-6.7-1c-13.7-11.9-19.8-17.3-22.6-19.6c3.4,0,9.4,0.1,17.6,0.1
						c9.8,0,20.1-0.1,30.4-0.2l8.2-0.1c9.9-0.1,14.9-0.1,17.3-0.3C939.8,262.9,940.3,262.8,940.8,262.7 M941.6,261.3
						c0,0-0.2,0.3-2.3,0.5c-3,0.2-9.9,0.2-25.4,0.4c-11.9,0.1-22.2,0.2-30.4,0.2c-13,0-20.6-0.1-20.6-0.1c0,0,0.7,0.9,24.9,21.8
						c0,0,1.4,1.1,7.4,1.2h0.9c6.5,0,20.1-0.9,26.5-1.2c5.2-0.3,15.4-0.8,21-1.8c1.4-0.3,1.9-1.1,1.8-1.7
						C945.3,280.5,945.5,272.8,941.6,261.3C941.6,261.3,941.6,261.3,941.6,261.3L941.6,261.3z"/>
					<path class="st0" d="M939.8,259.5c0,0,1.6,1.5,1.4,1.7c-0.1,0.2-0.6,0.2-1.6,0.3c-1,0.1-20.4,0.4-21.7,0.4c-1.3,0,1-1.7,1-1.7
						S938.8,260.1,939.8,259.5z"/>
					<path class="st0" d="M936.7,282.5c2.4-0.1,5-0.3,5.3-1c0.3-0.7,1-1.2-0.3-8.4c-1.4-7.2-2.4-11.4-2.4-11.4
						c0.7,0,1.4-0.1,2.1-0.3c1.4,4.2,2.5,7.1,3.1,11.3c0.6,4.3,2.4,8.9-0.9,9.4c-7.9,1.1-38.5,3.6-50.5,2.8
						C893,284.9,913.8,284.5,936.7,282.5z"/>
					<path class="st0" d="M928.2,262c0,0,5.8,12,4.3,21.2l6-0.3c0-3.4-0.3-6.8-1-10.2c-0.6-3.8-2-7.4-3.9-10.7L928.2,262z"/>
					<path class="st0" d="M923.1,262c1.9,3,3.5,6.3,4.5,9.8c1.1,3.8,1.7,7.6,1.9,11.6l-6,0.2c0,0-2.9-20.6-5.6-21.5L923.1,262z"/>
					<path class="st0" d="M910.5,262.2c0,0,4,6.7,9.5,21.9l-6.1,0.3c0,0-5.2-19.4-8.4-22.2C909,262.2,910.5,262.2,910.5,262.2z"/>
					<path class="st0" d="M895.7,262.3c2.8,3.1,5.2,6.4,7.4,9.9c2.2,4,4,8.2,5.6,12.6l-6.2,0.2c0,0-7.8-20.1-12.4-22.6
						C893.8,262.2,895.7,262.3,895.7,262.3z"/>
					<path class="st0" d="M877.1,262.4c4.6,4.2,8.7,8.9,12.1,14l4.8,8.4l-5.7-0.6c0,0-12.8-21-15.9-22
						C875.4,262.3,877.1,262.4,877.1,262.4z"/>
					<path class="st0" d="M933.7,261.9c1.6,3.6,2.7,7.5,3.1,11.4c0.3,3,0.3,6.1,0.1,9.1h-0.7c0,0,0.7-9.7-0.8-14.1
						c-1.6-4.7-2.3-6.5-2.3-6.5L933.7,261.9z"/>
					<path class="st0" d="M922.7,262c0,0,2.7,4.7,3.8,7.3c1.1,2.6,2.4,13.7,2.4,13.7l0.5,0c0,0-0.6-6-1.7-10.7
						c-1.1-4.7-4.6-10.3-4.6-10.3H922.7z"/>
					<path class="st0" d="M910.5,262.2c2.2,3.8,4.2,7.8,5.9,11.9c2.3,5.8,3.6,9.6,3.6,9.6l-0.5,0.1c0,0-4.2-12-5.2-13.8
						c-1-1.8-4.2-7.7-4.2-7.7L910.5,262.2z"/>
					<path class="st0" d="M895.6,262.2c0.2,0,8,9.3,10.6,15.7l2.6,6.4l-0.4,0.1c0,0-3.1-8.4-4.4-10.4c-1.3-2-7.8-11.5-8.6-11.8
						L895.6,262.2z"/>
					<path class="st0" d="M876.9,262.2c0,0,6.9,6.1,11.3,12.9c2.1,3.1,4,6.4,5.8,9.7l-0.3,0.1c0,0-6.4-10.8-7.4-12.1
						c-1-1.3-9.7-10.6-9.7-10.6L876.9,262.2z"/>
					<path class="st0" d="M941.8,266.8c0.8,1.2,1.5,2.5,2.1,3.8c0,0-2.1-3.2-2.3-3.4C941.4,267,941.9,267,941.8,266.8z"/>
					<path class="st0" d="M943.1,274.4c0.9,1.7,1.7,3.6,2.3,5.4l-2.2-4.5L943.1,274.4z"/>
					<path class="st0" d="M941.6,266.5c0,0,0.3,0.5,0.1,0.7c-0.3,0.2-14.6,1-18.3,1c0,0-10.3,0.2-10.6,0.3s-40.7,0.3-42.4,0.2
						l-0.9-0.7C869.6,268,940,266.5,941.6,266.5z"/>
					<path class="st0" d="M943.1,274.4l0.1,0.9c0,0-1.3,0.7-15.4,1.4c0,0-14.2,0.6-18.4,0.7c-4.2,0.1-26.5,0.6-28.7,0.4l-1.1-1
						c0,0,33-1.1,34.1-1.1C914.6,275.6,942,274.1,943.1,274.4z"/>
					<path class="st0" d="M941.6,266.5c0,0-15.3,1-28.8,1.2c-13.5,0.2-43.1,0.3-43.1,0.3l0.9,0.7c0,0,49.2-0.2,60.7-0.8
						C931.1,268,943.1,267.8,941.6,266.5z"/>
					<path class="st0" d="M943.1,274.4c0,0-13.6,1.4-29.2,1.8c0,0-30.5,0.7-34.4,0.6l1.1,1c0,0,28.7-0.3,45.9-1.1
						c0,0,15.6-1,16.7-1.4L943.1,274.4z"/>
					<path class="st177" d="M877.8,293.7c4.7-2.9,3.6-13-2.4-22.7c-6-9.6-14.6-15.1-19.3-12.2c-4.7,2.9-3.6,13,2.4,22.7
						C864.5,291.1,873.2,296.6,877.8,293.7z"/>
					<path class="st178" d="M945.2,306.1c1.6,1.6,1.8,2.8,1.9,6.7c0.1,3.8,0.8,9.3-1.1,11c-4.3,2-49.4,9.3-57.4,5.9
						c-0.8-0.3-0.8-1.4,0.3-4.2c0.6-1.4,1.6-5.4,2.9-9.1c1.3-3.7,2.8-7.3,5.6-7.1C902.1,309.2,942.6,306.6,945.2,306.1z"/>
					<path class="st0" d="M911.9,308.7c-3,0.1-15.8,1.1-15.8,1.1c-2.4,0.3-7.3,17.5-7.3,17.5c-0.2,2.3,0.2,2.3,0.2,2.3
						c19.8,1,47.3-3,52.7-4.2c5.4-1.2,5.5-2.5,5.6-7.1c0.1-4.6-0.5-10.2-0.9-11c-0.2-0.5-0.6-0.9-1.2-1.2
						C945.2,306,920.1,308.5,911.9,308.7z"/>
					<path class="st0" d="M935.6,319.6c-0.2,0.1-17.1,2.9-45.4,3.7c0,0-1.7,3.7-1.7,5s1.4,1,2.7,1c1.3,0.1,21.3,0.9,52.4-4.8
						L935.6,319.6z"/>
					<path class="st8" d="M941.1,308.3c0,0,3.5,0,3.8,0.3c0.2,0.2,0.3,0.4,0.3,0.7c0,0-12.8,3.1-33.1,3.6l-18.5,0.5l0.8-1.6
						C894.4,311.8,926.5,311,941.1,308.3z"/>
					<path class="st8" d="M941.9,313.1c0,0,3.4,0.4,3.4,0.7c0,0.3,0,0.7,0,0.7s-12,2.9-34.2,4.1c0,0-15.8,0.9-20.3,0.6l0.6-1.7
						C891.4,317.6,931.9,316.5,941.9,313.1z"/>
					<path class="st8" d="M941.6,318.1c0,0,3.9,0.2,3.7,1.3c0,0-8.6,3.6-28.2,4.7c0,0-23.1,1.8-28.2,1.4l0.5-1.7
						C889.4,323.8,930.3,322.8,941.6,318.1z"/>
					<path class="st8" d="M944.9,308.6c0,0-5.4,1.5-23.1,2.8c0,0-22.3,1.5-28.2,1.4l-0.6,0.9c0,0,1.9,0.4,29.1-1.2
						c0,0,14.8-1.2,23.1-3.2C945.2,309.3,945.4,308.7,944.9,308.6z"/>
					<path class="st8" d="M945.3,313.9c0,0-12,2.4-20.5,3.1c0,0-25.9,2.4-33.8,1.6l-0.2,0.7c0,0,33.4,0.3,54.5-4.7
						C945.3,314.6,945.6,314,945.3,313.9z"/>
					<path class="st8" d="M945.2,319c-5.6,1.5-11.2,2.5-17,3.1c-10.6,1.2-18.4,1.7-38.8,2.5l-0.3,0.7c0,0,43-0.1,56-5.6
						C945.2,319.7,945.6,319.2,945.2,319z"/>
					<path class="st0" d="M945.3,306.2c0,0,0.8,0,1.1,1.1c0.5,2.5,0.7,5,0.8,7.5c0,0-0.5-7.6-1.6-8c0,0,0-0.4-14.4,1
						c0,0-25.3,1.4-35.5,2.4c-1.8,0.7-2.1,2.6-2.8,4.4c-0.4,0.9-3.7,9.7-4.3,11.4c-0.5,1.7-0.7,2.8-0.3,3.1c0,0,11.4,2.4,36.4-1.7
						c0,0-2.7,0.9-29,2.5c0,0-4.6-0.1-5.7-0.2s-2-0.3-2.2-1.1c-0.2-0.8,3-9.6,4.6-13.8c0,0,1.1-4.5,3.6-5.2
						c2.5-0.6,15.5-1.1,15.5-1.1s31.7-2.3,33.6-2.5L945.3,306.2z"/>
					<path class="st0" d="M941.2,298.8l-2.8-0.4l-26.1,1.5l-0.9,14.2l2,0.5l27.2-2.4L941.2,298.8z"/>
					<path class="st0" d="M941.2,298.8l-26.9,1.5l-2.1-0.4l26.1-1.5L941.2,298.8z"/>
					<path class="st0" d="M913.4,314.6l-2-0.5l0.9-14.2l2.1,0.4L913.4,314.6z"/>
					<path class="st174" d="M914.4,313.2l0.8-12.1l25-1.3l-0.7,11.4L914.4,313.2z"/>
					<path class="st0" d="M940.8,299.8l-0.6,0l-0.7,11.4l-25,2.1l0,0.3l25.7-2.2L940.8,299.8z"/>
					<path class="st0" d="M744.1,321.9c-3.7-0.1-89.4-3.1-96.6-6c-7.1-2.9-7-14.4-6.9-15.9c-0.5-1.6-3.1-10.7-1.6-14.1
						c0.9-2.4,1.6-4.9,2-7.4c0.3-54.7,2.5-91.2,3.8-108c0.1-1.8,0.6-3.5,1.5-5c0.8-1.6,2-2.9,3.4-4c1.3-1,2.8-1.7,4.5-2.1
						c1.6-0.4,3.3-0.4,4.9-0.1l21.5,4.2c12.1,2.4,23.1,8.7,31.3,18l43,48.2c2.1,2.3,3.2,5.4,3.1,8.5c-0.1,13.9-0.5,60.1-1,68.9
						C756.2,321.6,744.2,321.9,744.1,321.9z M656.8,160.5c-2.3,0-4.4,0.7-6.2,2.1c-1.2,0.9-2.3,2.1-3,3.5c-0.7,1.4-1.2,2.9-1.3,4.4
						c-1.3,16.9-3.6,53.3-3.8,108v0.1c-0.4,2.7-1.1,5.3-2.1,7.8c-1.1,2.5,0.9,10.4,1.7,13.2v0.1v0.1c0,0.1-0.5,11.9,6,14.5
						c5.5,2.2,65.2,4.8,96,5.9c0.4,0,10.6-0.3,11.4-13.4c0.6-8.8,0.9-54.9,1-68.8c0-2.8-1-5.4-2.8-7.5l-43-48.2
						c-8-9-18.7-15.1-30.5-17.5l-21.5-4.2C658.1,160.6,657.5,160.5,656.8,160.5z"/>
					<path class="st0" d="M642.1,287.3c-0.5,1.3,0.3,6.8,1.8,11.8l96.3,5.2c1.9,0.1,3.7-0.5,5.2-1.7c1.4-1.2,2.4-2.9,2.7-4.7
						c0.2-1.4,0-2.9-0.5-4.2c-0.5-1.3-1.4-2.4-2.6-3.2c-1.1-0.8-2.5-1.2-3.9-1.3l-98.1-4.5C642.8,285.6,642.5,286.5,642.1,287.3z"/>
					<path class="st0" d="M649.3,251.4l16.6-0.1c0.3,0,0.6-0.1,0.8-0.4c0.2-0.2,0.3-0.5,0.3-0.8c0-1.1-0.2-2.2-0.6-3.2
						c-0.4-1-1-2-1.8-2.8c-0.8-0.8-1.7-1.4-2.7-1.9c-1-0.4-2.1-0.7-3.2-0.7h-5.2c-1.5,0-2.9,0.7-4,1.7c-1,1.1-1.6,2.5-1.6,4v2.8
						c0,0.2,0,0.3,0.1,0.5c0.1,0.1,0.1,0.3,0.3,0.4c0.1,0.1,0.2,0.2,0.4,0.3C649,251.3,649.2,251.4,649.3,251.4z"/>
					<path class="st0" d="M665.6,251.6v4.6c0,1.2-0.4,2.3-1.2,3.2c-0.8,0.8-1.9,1.3-3.1,1.4l-7.3,0c-1.2,0-2.3-0.5-3.1-1.4
						c-0.8-0.8-1.2-2-1.2-3.1v-4.7L665.6,251.6 M667.2,250l-19,0.1v6.2c0,0.8,0.1,1.5,0.4,2.3c0.3,0.7,0.7,1.4,1.2,1.9
						c0.5,0.6,1.2,1,1.9,1.3c0.7,0.3,1.5,0.5,2.3,0.5l7.3,0c1.6,0,3.1-0.7,4.2-1.8c1.1-1.1,1.7-2.7,1.7-4.2L667.2,250L667.2,250z"/>
					<path class="st0" d="M674.9,173.8l34.6,61.2l21.1,1.2c6.1,0.3,9.9-6,6.5-10.7l-17.3-23.6C709.1,187.2,692.9,177.3,674.9,173.8z
						"/>
					<path class="st0" d="M662.4,172.4l35,62l2.7,0.1l-35-62C664.3,172.4,663.3,172.4,662.4,172.4z"/>
					<path class="st0" d="M651.1,225.3c0,1.8,0.6,3.5,1.9,4.8c1.2,1.3,2.9,2,4.7,2.1l35.3,1.9l-34.8-61.5c-1.1,0.3-2.1,0.8-3,1.6
						c-0.7,0.6-1.2,1.3-1.6,2c-0.4,0.8-0.6,1.6-0.7,2.5L651.1,225.3z"/>
					<path class="st0" d="M677.8,10.3H191.9c-21,0-38,17-38,38v276c0,21,17,38,38,38h485.9c21,0,38-17,38-38v-276
						C715.8,27.3,698.8,10.3,677.8,10.3z"/>
					<path class="st8" d="M659.6,28.2H210.1c-21,0-38,17-38,38v240.3c0,21,17,38,38,38h449.5c21,0,38-17,38-38V66.1
						C697.6,45.2,680.6,28.2,659.6,28.2z"/>
					<path class="st7" d="M656.9,47.3h-444c-11.7,0-21.1,9.5-21.1,21.1v12.3c0,11.7,9.5,21.1,21.1,21.1h444
						c11.7,0,21.1-9.5,21.1-21.1V68.5C678,56.8,668.5,47.3,656.9,47.3z"/>
					<text transform="matrix(1 0 0 1 204.7018 86.4209)" class="st8 st179 st180">Search</text>
					<path class="st181" d="M307.1,120.9h-93c-7.5,0-13.6,6.1-13.6,13.6v121.7c0,7.5,6.1,13.6,13.6,13.6h93
						c7.5,0,13.6-6.1,13.6-13.6V134.5C320.7,127,314.6,120.9,307.1,120.9z"/>
					<path class="st181" d="M481.4,120.9h-93c-7.5,0-13.6,6.1-13.6,13.6v121.7c0,7.5,6.1,13.6,13.6,13.6h93
						c7.5,0,13.6-6.1,13.6-13.6V134.5C495,127,488.9,120.9,481.4,120.9z"/>
					<path class="st181" d="M655.7,120.9h-93c-7.5,0-13.6,6.1-13.6,13.6v121.7c0,7.5,6.1,13.6,13.6,13.6h93
						c7.5,0,13.6-6.1,13.6-13.6V134.5C669.4,127,663.3,120.9,655.7,120.9z"/>
					<path class="st11" d="M263.9,279.3h-60c-1.9,0-3.5,1.6-3.5,3.5v3c0,1.9,1.6,3.5,3.5,3.5h60c1.9,0,3.5-1.6,3.5-3.5v-3
						C267.3,280.9,265.8,279.3,263.9,279.3z"/>
					<path class="st11" d="M317.2,292.9H203.8c-1.9,0-3.5,1.6-3.5,3.5l0,0c0,1.9,1.6,3.5,3.5,3.5h113.4c1.9,0,3.5-1.6,3.5-3.5l0,0
						C320.7,294.5,319.2,292.9,317.2,292.9z"/>
					<path class="st11" d="M317.2,303.2H203.8c-1.9,0-3.5,1.6-3.5,3.5v0c0,1.9,1.6,3.5,3.5,3.5h113.4c1.9,0,3.5-1.6,3.5-3.5v0
						C320.7,304.7,319.2,303.2,317.2,303.2z"/>
					<path class="st11" d="M437.9,279.3h-60c-1.9,0-3.5,1.6-3.5,3.5v3c0,1.9,1.6,3.5,3.5,3.5h60c1.9,0,3.5-1.6,3.5-3.5v-3
						C441.4,280.9,439.9,279.3,437.9,279.3z"/>
					<path class="st11" d="M491.3,292.9H377.9c-1.9,0-3.5,1.6-3.5,3.5l0,0c0,1.9,1.6,3.5,3.5,3.5h113.4c1.9,0,3.5-1.6,3.5-3.5l0,0
						C494.8,294.5,493.2,292.9,491.3,292.9z"/>
					<path class="st11" d="M491.3,303.2H377.9c-1.9,0-3.5,1.6-3.5,3.5v0c0,1.9,1.6,3.5,3.5,3.5h113.4c1.9,0,3.5-1.6,3.5-3.5v0
						C494.8,304.7,493.2,303.2,491.3,303.2z"/>
					<path class="st0" d="M335.4,195.6c0-0.8,0.3-1.5,0.9-2.1c0.6-0.6,1.3-0.9,2.1-0.9h19.7c0.8,0,1.6,0.3,2.1,0.9
						c0.6,0.6,0.9,1.3,0.9,2.1c0,0.8-0.3,1.5-0.9,2.1c-0.6,0.6-1.3,0.9-2.1,0.9h-19.7c-0.8,0-1.5-0.3-2.1-0.9
						C335.7,197.1,335.4,196.4,335.4,195.6z"/>
					<path class="st0" d="M509.5,190.2c0-0.8,0.3-1.5,0.9-2.1c0.6-0.6,1.3-0.9,2.1-0.9h19.7c0.8,0,1.6,0.3,2.1,0.9
						c0.6,0.6,0.9,1.3,0.9,2.1c0,0.8-0.3,1.5-0.9,2.1c-0.6,0.6-1.3,0.9-2.1,0.9h-19.7c-0.8,0-1.6-0.3-2.1-0.9
						C509.8,191.8,509.5,191,509.5,190.2z"/>
					<path class="st0" d="M509.5,199.3c0-0.8,0.3-1.5,0.9-2.1c0.6-0.6,1.3-0.9,2.1-0.9h19.7c0.8,0,1.6,0.3,2.1,0.9
						c0.6,0.6,0.9,1.3,0.9,2.1c0,0.8-0.3,1.5-0.9,2.1c-0.6,0.6-1.3,0.9-2.1,0.9h-19.7c-0.8,0-1.6-0.3-2.1-0.9
						C509.8,200.8,509.5,200.1,509.5,199.3z"/>
					<path class="st0" d="M348.2,182.8c0.8,0,1.5,0.3,2.1,0.9c0.6,0.6,0.9,1.3,0.9,2.1v19.7c0,0.8-0.3,1.6-0.9,2.1
						c-0.6,0.6-1.3,0.9-2.1,0.9c-0.8,0-1.6-0.3-2.1-0.9c-0.6-0.6-0.9-1.3-0.9-2.1v-19.7c0-0.8,0.3-1.6,0.9-2.1
						C346.7,183.1,347.5,182.8,348.2,182.8z"/>
					<path class="st182" d="M623.6,204.7c-4.9,10.8-11.3,20.9-18.9,30c-2.1,2.6-4.4,5.1-6.7,7.6c0,0-0.1,0.1-0.1,0.1
						c0,0.1,0,0.1,0.1,0.1c0,0,0.1,0.1,0.1,0.1c0,0,0.1,0,0.1-0.1c4.2-4.1,8.2-8.5,11.8-13.2c3.6-4.8,6.8-9.9,9.5-15.2
						c1.6-3,3-6.1,4.4-9.3C624,204.7,623.7,204.5,623.6,204.7L623.6,204.7z"/>
					<path class="st182" d="M614.1,215.7c-3,5-6.1,9.9-9.3,14.7c-0.1,0.2,0.2,0.5,0.4,0.3c3.7-4.5,7.2-9.3,10.3-14.2
						C616,215.6,614.6,214.8,614.1,215.7z"/>
					<path class="st182" d="M637.2,132.9c-4.3,3.6-7.9,7.9-10.8,12.7c-0.1,0.2,0.2,0.4,0.3,0.2c3.2-4.6,6.9-8.7,11.1-12.3
						C638.3,133.1,637.7,132.5,637.2,132.9z"/>
					<path class="st7" d="M478.2,183.9c-29.1,2.7-58.3,4.2-87.5,4.3c20.7-11.4,42.6-20.5,65.3-27.3
						C461.6,161.6,477.7,178,478.2,183.9z"/>
					<path class="st7" d="M477,225.8c-27.9,2.8-56,3.5-84.1,2c-1.6-13.4-2.8-24.9-2.3-39.6c28.8-3.3,58.7-3.9,87.5-4.3
						C480.4,197.5,478.6,209.5,477,225.8z"/>
					<g>
						<path class="st155" d="M285.4,184.6c0.1-3.3-0.4-6.7-1.7-9.8c-1.9-3.3-2.3-1-2.4-3.8c0.7-4.2,1.2-8.5,1.3-12.8
							c-0.5-4.5-2.4-7-5.6-7.7c-3.2-0.7-7.3,0.6-7.7,2.1c-0.4,1.5-0.4,2.2,0.9,2.7c1.3,0.6,3.9-0.5,4.7,0.6
							c-0.3,4.2-1.4,8.3-3.3,12.1c-0.9,0.9-5.5,0-7.8,1.8c-1.7,1.2-3.1,2.7-4.2,4.5c5.4,3.8,11.3,7,17.4,9.4
							C279.9,184.4,282.6,184.6,285.4,184.6z"/>
						<path class="st11" d="M283.8,181.1c2.5-1.1,5.3-1.4,7.9-0.8c2.7,0.6,5.1,1.9,6.9,3.9c5.9,6.9,7.6,44-7.2,52.7
							c-19.8,11.6-28.1-2.4-28.1-2.4c-6.8,1.2-13.9,0.5-20.4-1.8c-9-4.8-7.8-8-7.8-8s-16.1-1.8-19.4-14.5
							c-3.3-12.7,16.2-37,30.1-42.8c1.6-0.9,3.4-1.5,5.2-1.6c1.8-0.1,3.7,0.1,5.4,0.8c1.7,0.7,3.3,1.7,4.5,3c1.3,1.3,2.2,3,2.8,4.7
							C263.7,174.2,278.1,170.1,283.8,181.1z"/>
						<path class="st8" d="M267.5,231.9c0.2,0.1,0.4,0.1,0.6,0c7-5.5,11.9-15.6,14.6-30.2c1.2-6.7,1.9-13.5,1.9-20.4v-0.4
							c0-0.1,0-0.3,0-0.4c-0.1,0-0.2,0-0.3,0H284h-0.4h-0.3v0.4c0,0.1,0,0.1,0,0.2c0,0.1,0,0.1,0,0.2c0,0.4,0,36.9-15.9,49.2
							c-0.1,0.2-0.1,0.4,0,0.7v0.3L267.5,231.9z"/>
						<path class="st8" d="M236,221.4c0.1,0,0.2,0.1,0.3,0.1c0.1,0,0.2,0,0.3-0.1c0.2-0.1,0.3-0.3,0.3-0.5
							c1.8-8.7,4.6-17.1,8.4-25.1c3.9-8.7,10.5-15.9,18.7-20.6h0.3c0,0,0,0,0-0.4c0-0.1,0-0.2,0-0.3v-0.3H264h-0.3
							c-8.6,4.6-15.6,11.8-19.9,20.6c-3.8,8.2-6.7,16.7-8.5,25.6c0,0.1,0,0.1,0,0.2s0,0.1,0,0.2c0,0.1,0,0.2,0,0.3h0.3L236,221.4z"
							/>
						<path class="st8" d="M296.7,206.7c0.2,0.1,0.4,0.1,0.6,0c0.2-0.1,0.3-0.3,0.4-0.5c1.1-3.4,1.5-7.1,1-10.7
							c-0.5-3.6-1.8-7-3.8-10c-0.1-0.1-0.2-0.2-0.3-0.2c-0.1-0.1-0.2-0.1-0.3-0.1c-0.1,0-0.3-0.1-0.4-0.1s-0.3,0-0.4,0.1h-0.3
							c0,0.1,0,0.3,0,0.4v0.4c0,0.1,0,0.3,0,0.4c1.8,2.8,2.9,5.9,3.3,9.1c0.4,3.2,0.1,6.5-0.9,9.6c-0.1,0.2-0.1,0.5,0,0.8
							c0.1,0.2,0.3,0.4,0.6,0.5L296.7,206.7z"/>
						<path class="st8" d="M273.1,202.5c0.2,0,0.4,0,0.6,0c0.2-0.1,0.3-0.3,0.4-0.5c2.7-6.6,3.7-13.8,2.7-20.9
							c-0.1-0.3-0.2-0.5-0.4-0.7c-0.2-0.1-0.5-0.1-0.8,0h-0.4v0.3v0.3c0,0.1,0,0.3,0,0.4c0.9,6.7,0.1,13.6-2.6,19.8
							c0,0.1-0.1,0.3-0.1,0.4c0,0.1,0,0.3,0.1,0.4c0.1,0.2,0.3,0.4,0.6,0.6L273.1,202.5z"/>
					</g>
					<path class="st19" d="M402.9,195.9c-5.3-1.5-10.5,13.9-2.5,10.9C403.8,205.5,408,197.4,402.9,195.9z"/>
					<path class="st19" d="M418.4,211.4c-4.1-0.2-10.2,1.6-11.2,5.9c-1.3,6.2,8.6,4.8,12,1.9C421.6,217.3,422.4,211.6,418.4,211.4z"
						/>
					<path class="st19" d="M428.5,195.3c-3.2,1.6-6.8,7.1-2.4,9.1c3.9,1.8,9.5-3.7,7.1-7.8c-0.5-0.8-1.2-1.3-2-1.6
						C430.2,194.8,429.3,194.9,428.5,195.3z"/>
					<path class="st183" d="M442.3,213.6c-4.9-2.4-8,7.2-2.4,8.1C444.2,222.1,446.5,215.9,442.3,213.6z"/>
					<path class="st183" d="M455.2,196.6c-4.1-2.5-9.5,7-5.6,9.6C454.5,209.4,460.3,199.7,455.2,196.6z"/>
					<path class="st183" d="M467.1,210.7c-3.9-1.2-9.2,6.8-4.5,9C467.1,221.8,472.7,212.4,467.1,210.7z"/>
					<path class="st183" d="M472.5,188.3c-3.5-0.8-8.1,4.9-3.5,6.5C472.6,196.1,477,189.9,472.5,188.3z"/>
					<path class="st183" d="M463.4,169.4c-3.2-2.2-9,3.4-4.4,5.3C461.7,175.5,466.3,171.8,463.4,169.4z"/>
					<path class="st183" d="M451,165c-3.9-0.9-8.7,6.7-2.4,6.3C451.2,171.1,455,165.9,451,165z"/>
					<path class="st183" d="M434.1,171.1c-2,0.6-2.7,4.2,0,4.6C437.4,176.2,438.2,169.9,434.1,171.1z"/>
					<path class="st183" d="M449.6,179c-2-1-4.4,2.4-1.9,3.1C449.6,182.6,452.1,180.2,449.6,179z"/>
					<path class="st19" d="M418,180.1c-3.1-0.3-4.1,5.1-0.4,4.3C419.7,184,421,180.4,418,180.1z"/>
					<path class="st182" d="M393,189c6.8-0.8,13.7-1.4,20.5-2.1c6.8-0.7,13.7-1.3,20.6-1.7c3.9-0.2,7.8-0.5,11.8-0.7
						c0,0,0.1,0,0.1-0.1c0,0,0.1-0.1,0.1-0.1c0,0,0-0.1-0.1-0.1c0,0-0.1-0.1-0.1-0.1c-13.7,0.2-27.5,0.9-41.2,2.4
						c-3.9,0.4-7.8,0.8-11.7,1.3C392.2,187.9,392.2,189.1,393,189L393,189z"/>
					<path class="st8" d="M629.3,71H608v-6.8c0-1.6,0.6-3.1,1.7-4.2c1.1-1.1,2.6-1.7,4.2-1.7h9.4c1.6,0,3.1,0.6,4.2,1.7
						c1.1,1.1,1.7,2.6,1.8,4.2V71z M609.7,69.3h17.9v-5.1c0-1.1-0.5-2.2-1.3-3c-0.8-0.8-1.9-1.2-3-1.2h-9.4c-1.1,0-2.2,0.5-3,1.2
						c-0.8,0.8-1.2,1.9-1.3,3V69.3z"/>
					<path class="st8" d="M598,71.6c1.5,3.9,5.7,15,6.8,17.8c0.1,0.2,0.2,0.4,0.4,0.5c0.2,0.1,0.4,0.2,0.6,0.2h25.7
						c0.2,0,0.4-0.1,0.6-0.2c0.2-0.1,0.3-0.3,0.4-0.5l6.7-17.8c0.1-0.2,0.1-0.3,0.1-0.5c0-0.2-0.1-0.3-0.2-0.5
						c-0.1-0.1-0.2-0.3-0.4-0.3c-0.2-0.1-0.3-0.1-0.5-0.1H599c-0.2,0-0.3,0-0.5,0.1c-0.1,0.1-0.3,0.2-0.4,0.3
						c-0.1,0.1-0.2,0.3-0.2,0.5C598,71.3,598,71.4,598,71.6z"/>
				</g>
			</g>
		</g>
		<g>
			<g>
				<g>
					<g>
						<path class="st142" d="M582.3,161.1V161c0-0.1,0-0.3,0-0.4c-0.1-0.5-0.1-1,0-1.4l0.8-5.7l-1.9-4.4c0,0,0-0.1,0-0.1
							c0,0,0-0.1,0-0.1c0,0,0-0.1,0.1-0.1c0,0,0.1-0.1,0.1-0.1l2.6-1.1c0,0,0.1,0,0.1,0h0.1h0.1c0,0,0,0.1,0,0.1l1.9,4.5l4.6,3.4
							c0.6,0.4,1.1,1,1.4,1.7l0.2,0.6l5.1,11.8c0.1,0.4,0.1,0.7-0.1,1.1c-0.1,0.2-0.2,0.3-0.4,0.4c-0.1,0.1-0.3,0.2-0.5,0.3
							l-7.1,3.1c-0.3,0.2-0.7,0.2-1.1,0.1c-0.4-0.1-0.7-0.3-0.9-0.6l-5.3-12.4l-0.1-0.1C582.2,161.3,582.2,161.2,582.3,161.1z"/>
						<path class="st143" d="M582.5,147.9l1.3-0.6h0.1h0.1h0.1l0.1,0.1l1.9,4.5v0.1l4.6,3.3c0.6,0.4,1.1,1,1.4,1.7l0.2,0.6l5.1,11.8
							c0,0.2,0,0.4,0,0.5c0,0.2-0.1,0.4-0.2,0.5c-0.1,0.2-0.2,0.3-0.4,0.4c-0.1,0.1-0.3,0.2-0.5,0.3l-3.6,1.5L582.5,147.9z"/>
						<path class="st144" d="M592.7,157.9l-10,4.3l2.1,4.9l10-4.3L592.7,157.9z"/>
						<path class="st142" d="M580,146.1l3-1.3l0.8,1.8v0.1l-3,1.3L580,146.1L580,146.1z"/>
						<path class="st184" d="M594.1,161.2l-10,4.3"/>
						<path class="st184" d="M593.4,159.6l-10,4.3"/>
						<path class="st146" d="M574,155c0,0-6.6-7.3-7.9-3.9c-1.2,3.4,9.3,19.1,12.5,23.3c3.3,4.2,17.9,22.1,20.4,19.8
							C603.2,190.7,579.9,161.3,574,155z"/>
						<path class="st147" d="M599,194.3c0,0-0.1,0.1-0.2,0.1c0.1-3.4-2.7-8.7-13.8-24.5c-10.4-14.8-16.6-18.3-18.7-19.2
							c1.7-2.4,7.7,4.3,7.7,4.3C579.9,161.3,603.2,190.7,599,194.3z"/>
						<path class="st148" d="M566.1,151.2c0.1-0.2,0.2-0.4,0.4-0.6c0.2-0.2,0.4-0.3,0.6-0.3c0.5,3.3,3,11.3,14,24.7
							c9.2,11.3,15,16.7,18.1,19.1l-0.2,0.2c-2.5,2.2-17-15.7-20.4-19.8C575.2,170.3,564.9,154.4,566.1,151.2z"/>
						<path class="st149" d="M574.8,157.1c-0.8-0.7-1.7-1.1-2.7-1.2c-1-0.1-2.1,0-3,0.4c0.8,0.6,1.8,0.9,2.8,1.1
							C572.8,157.5,573.8,157.4,574.8,157.1z"/>
						<path class="st149" d="M577.9,161.5c-0.8-0.7-1.7-1.1-2.8-1.2c-1-0.2-2,0-3,0.4c0.8,0.6,1.8,1,2.8,1.1
							C576,161.9,577,161.8,577.9,161.5z"/>
						<path class="st149" d="M581.6,166.5c-0.8-0.6-1.7-1.1-2.7-1.2c-1-0.1-2.1,0-3,0.4c0.8,0.6,1.8,0.9,2.8,1.1
							C579.7,166.9,580.7,166.8,581.6,166.5z"/>
						<path class="st149" d="M585,170.9c-0.8-0.7-1.7-1.1-2.8-1.2c-1-0.2-2,0-3,0.4c0.8,0.6,1.8,0.9,2.8,1.1
							C583,171.3,584,171.2,585,170.9z"/>
						<path class="st149" d="M588.3,175.6c-0.8-0.7-1.7-1.1-2.8-1.2c-1-0.1-2,0-3,0.4c0.8,0.6,1.8,0.9,2.8,1.1
							C586.4,176,587.4,175.9,588.3,175.6z"/>
						<path class="st149" d="M596.7,187c-0.8-0.7-1.7-1.1-2.7-1.2c-1-0.1-2,0-3,0.4c0.8,0.6,1.8,1,2.8,1.1
							C594.7,187.4,595.7,187.3,596.7,187z"/>
						<path class="st149" d="M592.5,181.4c-0.8-0.7-1.7-1.1-2.8-1.2c-1-0.1-2.1,0-3,0.4c0.8,0.6,1.8,0.9,2.8,1.1
							C590.6,181.8,591.6,181.7,592.5,181.4z"/>
						<path class="st150" d="M580.1,160.9l-0.3-1l2.2-1.5c0.2,0.1,0.3,0.1,0.5,0c0.2,0,0.4-0.1,0.5-0.3c0.1-0.2,0.2-0.4,0.2-0.5
							c0.8-0.5,1.7-1.2,2.7-1.7c0.1,0.1,0.2,0.2,0.4,0.2c0.1,0,0.3,0,0.4,0c0.2,0,0.5-0.2,0.6-0.4c0.1-0.2,0.2-0.5,0.2-0.7
							c1-0.7,2.1-1.3,3.2-1.7c0.5,0,1,0,1.5,0.2c0.5,0.2,0.9,0.4,1.3,0.8c0.4,0.3,0.7,0.8,0.9,1.2c0.2,0.5,0.3,1,0.3,1.5l1,6.9
							l-7.6,1.7v-0.2c0-0.1-0.1-0.2-0.1-0.3c-0.1-0.1-0.2-0.2-0.3-0.3l-0.3-0.1h-0.3c-0.1,0-0.2,0.1-0.3,0.1
							c-0.1,0.1-0.2,0.1-0.3,0.2c-0.1,0.1-0.1,0.2-0.1,0.3c0,0.1,0,0.2,0,0.3c0,0.1,0,0.1,0,0.2l-5.1,1.1l-0.8-4.2
							c0.2-0.1,0.4-0.2,0.5-0.5c0.1-0.2,0.2-0.5,0.1-0.7c0-0.1-0.1-0.2-0.1-0.3c-0.1-0.1-0.1-0.2-0.2-0.3c-0.2-0.2-0.4-0.2-0.7-0.2
							L580.1,160.9z"/>
						<path class="st151" d="M582.1,158.4c0.1,0,0.2,0.1,0.3,0.1c0.1,0,0.2,0,0.3-0.1c0.1,0,0.2,0,0.3-0.1c0.1,0,0.2-0.1,0.2-0.2
							c0.1-0.2,0.2-0.3,0.2-0.5c0.8-0.6,1.7-1.2,2.7-1.7c0.1,0.1,0.2,0.2,0.4,0.2c0.1,0,0.3,0,0.4,0c0.2,0,0.5-0.2,0.6-0.4
							c0.1-0.2,0.2-0.5,0.2-0.7c1-0.7,2.1-1.3,3.2-1.7c0.5-0.1,1,0,1.5,0.2c0.5,0.2,0.9,0.4,1.3,0.8c0.4,0.4,0.7,0.8,0.9,1.3
							c0.2,0.5,0.3,1,0.3,1.5l-14.7,2.9L582.1,158.4z"/>
						<path class="st152" d="M588,157c0,0.1,0.1,0.2,0.3,0.3c0.1,0,0.3,0,0.4,0c0.3,0,0.6-0.3,0.5-0.6c-0.1-0.3-0.4-0.4-0.7-0.3
							c-0.1,0-0.3,0.1-0.3,0.2c-0.1,0.1-0.1,0.1-0.1,0.2C588,156.8,588,156.9,588,157z"/>
						<path class="st153" d="M588.3,157.1c0,0,0.1,0.1,0.2,0.1c0.1,0,0.2-0.1,0.2-0.2c0,0,0,0,0-0.1c0,0,0,0,0-0.1c0,0,0,0-0.1,0
							c0,0,0,0-0.1,0C588.4,156.9,588.3,157,588.3,157.1z"/>
						<path class="st154" d="M588.5,156.4c0.3,0,0.7,0,0.7,0.3c0,0,0,0.1,0,0.1s0,0.1,0,0.1c0-0.1,0-0.3-0.3-0.4c-0.2,0-0.4,0-0.6,0
							C588.3,156.5,588.4,156.5,588.5,156.4z"/>
						<path class="st152" d="M588.1,155.4c0,0,0,0.1,0.1,0.1c0,0,0.1,0.1,0.1,0.1c0.1,0,0.2,0,0.3,0c0.1,0,0.2-0.1,0.2-0.1
							c0.1-0.1,0.1-0.2,0.1-0.3c0-0.2-0.3-0.3-0.5-0.2c-0.1,0-0.2,0.1-0.2,0.1C588.1,155.2,588.1,155.3,588.1,155.4z"/>
						<path class="st153" d="M588.3,155.4h0.2c0.2,0,0.1,0,0.1-0.1h-0.1C588.3,155.3,588.3,155.4,588.3,155.4z"/>
						<path class="st154" d="M588.3,155c0.2,0,0.5,0,0.5,0.2c0,0,0,0.1,0,0.1c0,0,0,0.1,0,0.1c0-0.1,0-0.2-0.2-0.3
							c-0.1,0-0.3,0-0.4,0C588.2,155.1,588.3,155,588.3,155z"/>
						<path class="st152" d="M592.2,156.2c0,0.1,0,0.1,0.1,0.1c0,0,0.1,0.1,0.1,0.1c0,0,0.1,0,0.2,0s0.1,0,0.2,0
							c0.2,0,0.5-0.2,0.5-0.4c0-0.2-0.3-0.3-0.5-0.3c-0.1,0-0.2,0.1-0.3,0.2c-0.1,0-0.1,0.1-0.1,0.2
							C592.2,156,592.2,156.1,592.2,156.2z"/>
						<path class="st153" d="M592.4,156.2c0,0,0.1,0.1,0.2,0.1c0,0,0.2,0,0.1-0.1c0-0.1,0-0.1-0.2-0.1
							C592.4,156.1,592.4,156.2,592.4,156.2z"/>
						<path class="st154" d="M592.6,155.7c0.2,0,0.5,0,0.5,0.3c0,0.1,0,0.2,0,0.2c0-0.1,0-0.2-0.2-0.3c-0.1-0.1-0.3-0.1-0.4-0.1
							C592.5,155.8,592.5,155.8,592.6,155.7z"/>
						<path class="st152" d="M590.5,155c0.1,0.1,0.1,0.2,0.2,0.2c0.1,0,0.2,0,0.2,0c0.1,0,0.2,0,0.2-0.1c0.1,0,0.1-0.1,0.2-0.2
							s0.1-0.2,0.1-0.2c0-0.2-0.4-0.3-0.6-0.2c-0.1,0-0.1,0-0.2,0.1c0,0-0.1,0.1-0.1,0.1c0,0-0.1,0.1-0.1,0.2
							C590.5,154.9,590.5,155,590.5,155z"/>
						<path class="st153" d="M590.7,155h0.2c0,0,0,0,0.1,0c0,0,0,0,0,0c0,0,0,0,0-0.1c0,0,0,0,0-0.1h-0.1
							C590.9,154.9,590.7,155,590.7,155z"/>
						<path class="st154" d="M590.8,154.5c0.2,0,0.5,0,0.6,0.2c0,0,0,0.1,0,0.1c0,0,0,0.1,0,0.1c0-0.1,0-0.2-0.3-0.3
							c-0.2,0-0.3,0-0.5,0C590.7,154.6,590.7,154.6,590.8,154.5z"/>
						<path class="st152" d="M583.7,158.3C583.7,158.3,583.7,158.4,583.7,158.3c0.1,0.1,0.1,0.1,0.2,0.2h0.2c0,0,0.1,0,0.1,0
							c0,0,0.1-0.1,0.1-0.1c0,0,0-0.1,0.1-0.1c0,0,0-0.1,0-0.1c0-0.1-0.3-0.2-0.4-0.1c-0.1,0-0.1,0.1-0.2,0.1
							C583.7,158.1,583.7,158.2,583.7,158.3z"/>
						<path class="st153" d="M583.8,158.3h0.1c0.1,0,0.1,0,0.1-0.1h-0.1C583.9,158.2,583.8,158.3,583.8,158.3z"/>
						<path class="st154" d="M583.9,158c0.2,0,0.4,0,0.4,0.1c0,0.1,0,0.1,0,0.2c0-0.1,0-0.1-0.1-0.1c0,0-0.1-0.1-0.1-0.1h-0.3
							C583.8,158.1,583.8,158,583.9,158z"/>
						<path class="st152" d="M585.5,157.4c0.1,0.1,0.1,0.2,0.2,0.2c0.1,0,0.2,0,0.3,0c0.1,0,0.2-0.1,0.3-0.2
							c0.1-0.1,0.1-0.2,0.1-0.3c-0.1-0.1-0.1-0.2-0.2-0.2c-0.1,0-0.2,0-0.3,0c-0.1,0-0.2,0.1-0.3,0.2c0,0-0.1,0.1-0.1,0.1
							C585.5,157.3,585.5,157.3,585.5,157.4z"/>
						<path class="st153" d="M585.8,157.4C585.8,157.4,585.8,157.5,585.8,157.4c0.1,0,0.2,0,0.2,0c0,0,0.1,0,0.1-0.1H586
							C586,157.3,585.8,157.4,585.8,157.4z"/>
						<path class="st154" d="M585.9,156.9c0.2,0,0.5,0,0.6,0.2c0,0,0,0.1,0,0.1c0,0,0,0.1,0,0.1c0-0.1,0-0.2-0.3-0.3
							c-0.2,0-0.3,0-0.5,0C585.7,157,585.8,156.9,585.9,156.9z"/>
						<path class="st152" d="M584.6,161.5c0,0.1,0.1,0.1,0.2,0.2c0.1,0.1,0.2,0.1,0.2,0.1c0.2,0.1,0.4,0.1,0.5,0
							c0.3-0.2,0.7-0.6,0.5-1c-0.2-0.3-0.7-0.4-1-0.2c-0.2,0.1-0.3,0.2-0.4,0.4C584.5,161.2,584.5,161.4,584.6,161.5z"/>
						<path class="st153" d="M585,161.5c0,0.1,0.2,0.1,0.3,0c0.1-0.1,0.2-0.2,0.2-0.3c0,0-0.1-0.1-0.1-0.1c0,0-0.1,0-0.1,0
							c0,0-0.1,0-0.1,0C585.1,161.3,585,161.5,585,161.5z"/>
						<path class="st154" d="M585,160.7c0.3-0.2,0.9-0.1,1,0.2c0,0.1,0,0.1,0,0.2c0,0.1,0,0.1,0,0.2c0-0.2-0.1-0.4-0.6-0.4
							c-0.3,0-0.5,0-0.8,0.1C584.7,160.8,584.8,160.7,585,160.7z"/>
						<path class="st152" d="M591.6,160.2c0,0.1,0.1,0.2,0.2,0.3c0.1,0.1,0.3,0.1,0.4,0c0.1,0,0.3-0.1,0.4-0.2
							c0.1-0.1,0.1-0.3,0.1-0.4c0-0.3-0.4-0.4-0.7-0.3c-0.1,0-0.1,0-0.2,0.1c-0.1,0-0.1,0.1-0.1,0.1c-0.1,0.1-0.1,0.1-0.1,0.2
							C591.6,160.1,591.6,160.2,591.6,160.2z"/>
						<path class="st153" d="M592,160.3C592,160.3,592,160.3,592,160.3c0.1,0.1,0.1,0.1,0.1,0.1c0,0,0,0,0.1,0c0,0,0,0,0.1,0
							c0.1-0.1,0.2,0,0.2-0.2l-0.1-0.1c0,0,0,0-0.1,0c0,0,0,0-0.1,0C592,160.1,591.9,160.2,592,160.3z"/>
						<path class="st154" d="M592,159.6c0.3,0,0.7,0.1,0.7,0.3c0,0.1,0,0.1,0,0.2c0,0.1,0,0.1,0,0.2c0-0.1,0-0.3-0.3-0.4
							c-0.2-0.1-0.4-0.1-0.7-0.1C591.8,159.7,591.9,159.7,592,159.6z"/>
						<path class="st152" d="M593,158.5c0,0.1,0,0.1,0,0.2c0,0,0.1,0.1,0.1,0.1c0,0,0.1,0.1,0.1,0.1c0.1,0,0.1,0,0.2,0
							c0.2,0,0.5-0.1,0.5-0.3c0-0.1-0.1-0.2-0.2-0.3c-0.1-0.1-0.2-0.1-0.3-0.1c0,0-0.1,0-0.2,0s-0.1,0-0.2,0c-0.1,0-0.1,0.1-0.1,0.2
							C593,158.4,593,158.4,593,158.5z"/>
						<path class="st153" d="M593.2,158.7c0,0,0,0.1,0.2,0.1c0.2,0,0.2,0,0.2-0.1c0,0,0-0.1,0-0.1c0,0-0.1-0.1-0.1-0.1
							c0,0-0.1,0-0.1,0C593.2,158.6,593.2,158.6,593.2,158.7z"/>
						<path class="st154" d="M593.4,158.1c0.2,0,0.5,0.2,0.5,0.4c0,0.2,0,0.1,0,0.1c0,0,0,0.1,0,0.1c0-0.1,0-0.1,0-0.2
							c0-0.1-0.1-0.1-0.1-0.2c-0.1-0.1-0.3-0.2-0.4-0.2L593.4,158.1z"/>
						<path class="st152" d="M588.8,159.8c0,0,0,0.1,0,0.1c0,0,0,0,0.1,0.1h0.1h0.1c0.2,0,0.4-0.2,0.3-0.4c0-0.1-0.1-0.1-0.1-0.1
							c-0.1,0-0.1-0.1-0.2-0.1c-0.1,0-0.1,0-0.2,0c-0.1,0-0.1,0.1-0.2,0.1C588.7,159.6,588.7,159.7,588.8,159.8z"/>
						<path class="st153" d="M588.9,159.8h0.1c0,0,0.1,0,0.1-0.1h-0.1L588.9,159.8z"/>
						<path class="st154" d="M589.1,159.4c0.2,0,0.4,0,0.4,0.2c0,0,0,0.1,0,0.1c0-0.1,0-0.2-0.2-0.3h-0.4
							C589,159.5,589,159.5,589.1,159.4z"/>
						<path class="st152" d="M593,163c0,0,0,0.1,0,0.1c0,0,0,0,0.1,0.1h0.1h0.3c0.2,0,0.4-0.2,0.3-0.4c0-0.2-0.3-0.3-0.5-0.2
							c-0.1,0-0.2,0.1-0.2,0.1c0,0-0.1,0.1-0.1,0.1C593,162.9,593,162.9,593,163z"/>
						<path class="st153" d="M593.2,163h0.1c0.1,0,0.1,0,0.1-0.1h-0.1C593.3,162.9,593.2,163,593.2,163z"/>
						<path class="st154" d="M593.2,162.6c0.2,0,0.4,0,0.5,0.2c0,0.1,0,0.1,0,0.2c0-0.1,0-0.2-0.2-0.3h-0.4L593.2,162.6z"/>
						<path class="st152" d="M582.5,162.8c0,0,0,0.1,0.1,0.1s0.1,0.1,0.1,0.1c0.1,0,0.2,0,0.2,0c0.2,0,0.4-0.2,0.4-0.4
							c0-0.1-0.1-0.2-0.2-0.2c-0.1,0-0.2-0.1-0.3,0c-0.1,0-0.2,0.1-0.2,0.1c0,0-0.1,0.1-0.1,0.1
							C582.4,162.7,582.4,162.7,582.5,162.8z"/>
						<path class="st153" d="M582.7,162.8h0.2c0,0,0.1,0,0.1-0.1C582.9,162.7,582.7,162.8,582.7,162.8z"/>
						<path class="st154" d="M582.8,162.4c0.2,0,0.4,0,0.5,0.2c0,0.1,0,0.1,0,0.2c0-0.1,0-0.2-0.2-0.3c-0.1,0-0.2,0-0.4,0
							C582.7,162.5,582.7,162.4,582.8,162.4z"/>
						<path class="st152" d="M583.1,165c0.1,0.1,0.2,0.2,0.3,0.2c0.1,0,0.2,0,0.4,0c0.2-0.1,0.5-0.4,0.4-0.6
							c-0.1-0.2-0.4-0.3-0.7-0.2c-0.1,0-0.2,0.1-0.3,0.2c0,0.1-0.1,0.1-0.1,0.2C583,164.9,583,165,583.1,165z"/>
						<path class="st153" d="M583.4,165h0.2c0,0,0,0,0.1,0c0,0,0,0,0,0c0,0,0,0,0-0.1c0,0,0,0,0-0.1c0,0,0-0.1,0-0.1h-0.1
							C583.4,164.9,583.3,164.9,583.4,165z"/>
						<path class="st154" d="M583.4,164.4c0.2-0.1,0.6,0,0.7,0.2c0,0.1,0,0.1,0,0.2c0,0,0,0.1,0,0.1c0-0.1,0-0.3-0.3-0.3
							c-0.2,0-0.4,0-0.5,0C583.2,164.5,583.3,164.5,583.4,164.4z"/>
						<path class="st152" d="M588.1,163.6c0.1,0.2,0.2,0.4,0.4,0.5c0.2,0.1,0.4,0.1,0.6,0c0.4,0,0.9-0.5,0.8-0.9
							c-0.1-0.4-0.7-0.6-1.1-0.5c-0.2,0-0.4,0.1-0.5,0.3c-0.1,0.1-0.1,0.2-0.2,0.3C588.1,163.3,588.1,163.5,588.1,163.6z"/>
						<path class="st153" d="M588.6,163.7c0,0.1,0.2,0.2,0.3,0.1c0.1,0,0.1,0,0.2-0.1c0.1-0.1,0.1-0.1,0.1-0.2
							c0-0.1-0.2-0.2-0.3-0.2C588.7,163.4,588.6,163.6,588.6,163.7z"/>
						<path class="st154" d="M588.8,162.7c0.4,0,1,0.1,1.1,0.5c0,0.1,0,0.2,0,0.2c0,0.1-0.1,0.2-0.1,0.2c0-0.2,0-0.5-0.5-0.6
							c-0.3-0.1-0.6-0.1-0.9-0.1C588.5,162.8,588.7,162.7,588.8,162.7z"/>
						<path class="st155" d="M596.6,158.7c0-1.1,0.3-2.1,0.7-3.1c0.7-1,0.8-0.3,0.8-1.2c-0.1-1.3-0.2-2.7-0.1-4.1
							c0.3-1.4,0.9-2.2,2-2.3c1.1-0.1,2.3,0.3,2.4,0.8c0.1,0.5,0,0.7-0.4,0.8c-0.4,0.1-1.2-0.2-1.5,0.1c0,1.3,0.3,2.7,0.8,3.9
							c0.3,0.3,1.7,0.1,2.4,0.7c0.5,0.4,1,0.9,1.3,1.5c-1.8,1.1-3.7,2-5.7,2.6C598.4,158.7,597.5,158.8,596.6,158.7z"/>
						<path class="st11" d="M597.1,157.6c-0.8-0.4-1.6-0.6-2.5-0.4c-0.9,0.1-1.6,0.5-2.3,1.1c-2,2.1-3.4,13.8,1.2,16.9
							c6.1,4.1,9-0.2,9-0.2c2.1,0.5,4.4,0.5,6.5-0.1c3-1.3,2.6-2.4,2.6-2.4s5.1-0.3,6.5-4.2c1.4-4-4.4-12.1-8.6-14.2
							c-0.5-0.3-1-0.6-1.6-0.7c-0.6-0.1-1.2,0-1.8,0.1c-0.6,0.2-1.1,0.5-1.5,0.9c-0.4,0.4-0.8,0.9-1,1.4
							C603.6,155.8,599.1,154.2,597.1,157.6z"/>
						<path class="st8" d="M601.2,174H601c-2.1-1.9-3.4-5.2-4-9.9c-0.3-2.2-0.3-4.3-0.2-6.5c0,0,0-0.1,0-0.1v-0.1h0.1h0.3
							c0,0,0,0,0,0.1c0,0,0,0,0,0.1v0.1c0,0.1-0.8,11.7,4,15.9c0.1,0.1,0.1,0.1,0.1,0.2C601.3,173.8,601.3,173.9,601.2,174
							C601.2,174,601.2,174,601.2,174z"/>
						<path class="st8" d="M611.4,171.3c-0.1,0-0.2,0-0.2-0.1c-0.1,0-0.1-0.1-0.1-0.2c-0.4-2.8-1.1-5.5-2.1-8.1
							c-1.1-2.8-3-5.3-5.5-6.9c0,0,0-0.1,0-0.1c0-0.1,0-0.1,0-0.2c0,0,0-0.1,0.1-0.1c0,0,0.1,0,0.1-0.1c0,0,0.1,0,0.1,0
							c0,0,0.1,0,0.1,0c2.6,1.7,4.7,4.3,5.8,7.2c1,2.7,1.8,5.5,2.2,8.3c0,0,0,0,0,0.1c0,0,0,0,0,0.1c0,0,0,0,0,0.1c0,0,0,0,0,0.1
							h-0.2L611.4,171.3z"/>
						<path class="st8" d="M592.5,165.4h-0.2c0-0.1-0.1-0.1-0.1-0.2c-0.3-1.1-0.3-2.3-0.1-3.4s0.7-2.2,1.4-3.2l0.1-0.1h0.4v0.1
							c0,0,0,0.1,0,0.1c0,0,0,0,0,0.1c0,0,0,0,0,0.1c0,0,0,0.1,0,0.1c-0.6,0.8-1.1,1.8-1.3,2.8c-0.2,1-0.2,2.1,0,3.1
							c0,0,0,0.1,0,0.1c0,0,0,0.1,0,0.1c0,0,0,0.1-0.1,0.1h-0.1V165.4z"/>
						<path class="st8" d="M600,164.6C600,164.6,600,164.6,600,164.6c-0.1,0-0.2,0-0.2,0c-0.1,0-0.1-0.1-0.1-0.2
							c-0.7-2.2-0.9-4.5-0.4-6.8c0,0,0,0,0-0.1c0,0,0.1,0,0.1,0c0,0,0.1,0,0.1,0c0,0,0.1,0,0.1,0.1c0,0,0.1,0.1,0.1,0.1
							c0,0,0,0.1,0,0.1s0,0.1,0,0.1c-0.5,2.1-0.3,4.3,0.4,6.4v0.3L600,164.6L600,164.6z"/>
						<path class="st158" d="M641.6,156.2c5-8.1,9.9-9.3,9.9-9.3s-5.1,14.1-6.5,16.6c-2.1,2.8-4.4,5.4-7,7.7
							C638,171.2,638.5,161.3,641.6,156.2z"/>
						<path class="st158" d="M635.3,153.3c0,0-5.2,27.1-10.2,28.7c-1.6-1.1-2.7-2.8-3.1-4.6c-1-3.4,1.3-12.2,2.9-15
							c1.6-2.8,4.8-10.4,4.4-11.3c0.4-0.1,0.8-0.2,1.2-0.2h0.3c0.4,0,0.8,0,1.2,0.1h0.3C633.6,151.3,634.6,152.2,635.3,153.3z"/>
						<path class="st159" d="M645.5,144.4c0,0-0.7-1.8-2.1-1.8c-1.4,0-3.7,2-4.6,3.1c-4.3,6.2-8.2,12.7-11.6,19.5
							c-2.3,4.8-4.8,11.8-3.7,13.4c1.1,1.6,7.5,4.5,9,4.1c1.5-0.5,5.8-9.8,6.6-11.6C640.3,168.2,649.1,151,645.5,144.4z"/>
						<path class="st160" d="M639.8,146.7c-0.2,0-0.5,0-0.7,0.1c-0.2,0.1-0.4,0.3-0.4,0.5c-0.4,0.8,0.3,0.9,0.7,0.9
							c0.4,0,0.5-0.3,0.6-0.7C640,147,640,146.8,639.8,146.7z"/>
						<path class="st160" d="M641.3,145c-0.2-0.1-0.4-0.1-0.6,0c-0.2,0-0.4,0.1-0.5,0.3c-0.6,0.5,0,0.9,0.4,0.9
							c0.4,0.1,0.5,0,0.7-0.5C641.5,145.3,641.5,145.1,641.3,145z"/>
						<path class="st160" d="M642.5,143.7c-0.2-0.1-0.3-0.1-0.5,0c-0.2,0-0.3,0.1-0.4,0.2c-0.5,0.4,0,0.7,0.3,0.7
							c0.3,0.1,0.4,0,0.5-0.4C642.6,143.9,642.6,143.8,642.5,143.7z"/>
						<path class="st160" d="M638.2,148.9c-0.3-0.1-0.6,0-0.9,0.2c-0.3,0.2-0.5,0.4-0.6,0.7c-0.6,1,0.5,1.2,1,1.2
							c0.5-0.1,0.7-0.3,0.7-1C638.5,149.2,638.5,149,638.2,148.9z"/>
						<path class="st160" d="M636.7,151.7c-0.3-0.1-0.6,0-0.9,0.1c-0.3,0.1-0.5,0.4-0.6,0.7c-0.6,1,0.5,1.3,1,1.2
							c0.6-0.1,0.7-0.3,0.7-1C637,152,636.9,151.7,636.7,151.7z"/>
						<path class="st160" d="M634.8,154.5c-0.3-0.1-0.6,0-0.9,0.2c-0.3,0.1-0.5,0.4-0.6,0.7c-0.6,1,0.5,1.2,1,1.2
							c0.5-0.1,0.7-0.3,0.7-1C635,154.8,635,154.5,634.8,154.5z"/>
						<path class="st160" d="M632.9,157.3c-0.3-0.1-0.6,0-0.9,0.2c-0.3,0.1-0.5,0.4-0.6,0.7c-0.6,1,0.5,1.2,1,1.2
							c0.5-0.1,0.7-0.3,0.7-1C633.1,157.6,633.1,157.4,632.9,157.3z"/>
						<path class="st160" d="M630.8,160.8c-0.3-0.1-0.6,0-0.9,0.1c-0.3,0.1-0.5,0.4-0.6,0.7c-0.6,1.1,0.5,1.3,1,1.2
							c0.5-0.1,0.7-0.3,0.7-1C631.1,161.1,631.1,160.8,630.8,160.8z"/>
						<path class="st160" d="M629.1,164.3c-0.3-0.1-0.6,0-0.9,0.1c-0.3,0.2-0.5,0.4-0.6,0.7c-0.5,1.1,0.5,1.3,1,1.2
							c0.5-0.1,0.7-0.3,0.7-1C629.4,164.6,629.4,164.3,629.1,164.3z"/>
						<path class="st160" d="M627.6,167.8c-0.3-0.1-0.6,0-0.9,0.1c-0.3,0.2-0.5,0.4-0.6,0.7c-0.6,1.1,0.5,1.3,1,1.2
							c0.5-0.1,0.7-0.3,0.7-1C627.9,168.2,627.8,167.9,627.6,167.8z"/>
						<path class="st160" d="M626,171.3c-0.3-0.1-0.6,0-0.9,0.1c-0.3,0.2-0.5,0.4-0.6,0.7c-0.6,1.1,0.5,1.3,1,1.2
							c0.5-0.1,0.7-0.3,0.7-1C626.2,171.6,626.2,171.4,626,171.3z"/>
						<path class="st160" d="M641.5,148.3c-0.1,0-0.2,0-0.3,0c-0.1,0-0.2,0.1-0.3,0.2c-0.2,0.1-0.3,0.3-0.4,0.5
							c-0.4,0.8,0.4,0.9,0.8,0.8c0.4-0.1,0.5-0.3,0.5-0.8C641.7,148.4,641.6,148.3,641.5,148.3z"/>
						<path class="st160" d="M642.7,146.4c-0.2-0.1-0.4-0.1-0.6,0c-0.2,0.1-0.4,0.2-0.5,0.3c-0.5,0.6,0.1,0.9,0.5,0.9
							c0.4,0,0.5-0.1,0.6-0.5C642.9,146.6,642.8,146.4,642.7,146.4z"/>
						<path class="st160" d="M643.5,144.8c-0.1-0.1-0.3-0.1-0.5,0c-0.2,0-0.3,0.1-0.4,0.3c-0.4,0.5,0.1,0.7,0.4,0.7
							c0.3,0,0.4,0,0.5-0.4C643.6,145,643.6,144.9,643.5,144.8z"/>
						<path class="st160" d="M640,150.9c-0.3,0-0.6,0.1-0.9,0.2c-0.3,0.2-0.5,0.4-0.5,0.7c-0.5,1.1,0.6,1.2,1.1,1.1
							c0.5-0.1,0.6-0.4,0.6-1.1C640.4,151.2,640.3,150.9,640,150.9z"/>
						<path class="st160" d="M638.7,153.8c-0.3,0-0.6,0.1-0.9,0.2c-0.3,0.2-0.5,0.4-0.6,0.7c-0.5,1.1,0.6,1.2,1.1,1.1
							s0.7-0.4,0.6-1.1C639,154.1,638.9,153.8,638.7,153.8z"/>
						<path class="st160" d="M636.9,156.8c-0.3,0-0.6,0.1-0.9,0.2c-0.3,0.2-0.5,0.4-0.6,0.7c-0.5,1.1,0.6,1.2,1.1,1.1
							c0.5-0.1,0.7-0.4,0.6-1.1C637.2,157.1,637.2,156.8,636.9,156.8z"/>
						<path class="st160" d="M635.4,159.8c-0.3,0-0.6,0.1-0.9,0.3c-0.3,0.2-0.4,0.4-0.5,0.7c-0.5,1.1,0.6,1.2,1.1,1.1
							c0.5-0.1,0.7-0.4,0.6-1.1C635.7,160.1,635.5,159.8,635.4,159.8z"/>
						<path class="st160" d="M633.7,163.4c-0.3,0-0.6,0.1-0.9,0.2c-0.3,0.2-0.5,0.4-0.5,0.7c-0.5,1.1,0.6,1.2,1.1,1.1
							s0.7-0.4,0.6-1.1C634,163.7,633.8,163.4,633.7,163.4z"/>
						<path class="st160" d="M632.4,167.1c-0.3,0-0.6,0.1-0.9,0.2c-0.3,0.2-0.5,0.4-0.5,0.7c-0.5,1.1,0.6,1.2,1.1,1.1
							c0.5-0.1,0.7-0.4,0.6-1.1C632.7,167.4,632.6,167.1,632.4,167.1z"/>
						<path class="st160" d="M631.1,170.8c-0.3,0-0.6,0.1-0.9,0.2c-0.3,0.2-0.5,0.4-0.5,0.7c-0.5,1.1,0.6,1.2,1.1,1.1
							c0.5-0.1,0.7-0.4,0.6-1.1C631.4,171.1,631.3,170.8,631.1,170.8z"/>
						<path class="st160" d="M629.9,174.4c-0.3,0-0.6,0-0.9,0.2c-0.3,0.2-0.5,0.4-0.5,0.7c-0.5,1.1,0.6,1.2,1.1,1.1
							c0.5-0.1,0.7-0.4,0.6-1.1C630.2,174.7,630.1,174.4,629.9,174.4z"/>
						<path class="st160" d="M643.5,148.7c0.2,0.2,0.3,0.4,0.3,0.6c0.1,0.2,0.1,0.5,0,0.7c-0.3,0.8-1,0.3-1.2,0
							c-0.2-0.3-0.2-0.6,0.2-0.9C643.2,148.8,643.4,148.6,643.5,148.7z"/>
						<path class="st160" d="M644,146.6c0.2,0.1,0.3,0.2,0.4,0.4c0.1,0.2,0.1,0.4,0,0.6c0,0.8-0.7,0.5-1,0.3c-0.3-0.2-0.3-0.4,0-0.8
							C643.7,146.6,643.8,146.5,644,146.6z"/>
						<path class="st160" d="M644.5,144.9c0.2,0.1,0.3,0.2,0.4,0.3c0.1,0.1,0.1,0.3,0,0.5c0,0.6-0.6,0.4-0.8,0.2
							c-0.2-0.2-0.2-0.3,0-0.6C644.3,145,644.4,144.9,644.5,144.9z"/>
						<path class="st160" d="M642.6,151.6c0.3,0.2,0.4,0.5,0.5,0.8c0.1,0.3,0,0.6-0.2,0.9c-0.4,1.1-1.2,0.4-1.5,0
							c-0.3-0.4-0.2-0.7,0.3-1.2C642.2,151.6,642.4,151.5,642.6,151.6z"/>
						<path class="st160" d="M641.6,154.7c0.3,0.2,0.4,0.5,0.5,0.8c0.1,0.3,0,0.6-0.1,0.9c-0.4,1.1-1.3,0.4-1.5,0
							c-0.3-0.4-0.2-0.7,0.3-1.2C641.2,154.8,641.4,154.5,641.6,154.7z"/>
						<path class="st160" d="M640.7,158c0.2,0.2,0.4,0.5,0.5,0.8c0.1,0.3,0,0.6-0.1,0.9c-0.4,1.1-1.3,0.4-1.5,0
							c-0.3-0.4-0.2-0.7,0.3-1.2C640.2,158.1,640.5,157.9,640.7,158z"/>
						<path class="st160" d="M639.4,161.3c0.3,0.2,0.4,0.5,0.5,0.8c0.1,0.3,0,0.7-0.2,1c-0.4,1.1-1.3,0.4-1.5,0
							c-0.3-0.4-0.2-0.7,0.3-1.2C639.1,161.3,639.3,161.1,639.4,161.3z"/>
						<path class="st160" d="M637.8,164.8c0.3,0.2,0.4,0.5,0.5,0.8c0,0.3,0,0.7-0.2,0.9c-0.4,1.1-1.3,0.5-1.5,0
							c-0.3-0.5-0.2-0.7,0.3-1.2C637.4,164.8,637.6,164.6,637.8,164.8z"/>
						<path class="st160" d="M636.1,168.3c0.3,0.2,0.4,0.5,0.5,0.8c0.1,0.3,0,0.7-0.2,0.9c-0.5,1.1-1.3,0.5-1.5,0
							c-0.3-0.5-0.2-0.7,0.3-1.2C635.7,168.4,635.9,168.1,636.1,168.3z"/>
						<path class="st160" d="M634.4,171.7c0.3,0.2,0.4,0.5,0.5,0.8c0.1,0.3,0,0.7-0.2,0.9c-0.5,1.1-1.3,0.5-1.5,0
							c-0.3-0.5-0.2-0.7,0.3-1.2C634,171.8,634.2,171.6,634.4,171.7z"/>
						<path class="st160" d="M632.7,175.2c0.3,0.2,0.4,0.5,0.5,0.8c0.1,0.3,0,0.7-0.2,1c-0.5,1.1-1.3,0.4-1.6,0
							c-0.3-0.4-0.2-0.8,0.3-1.2C632.3,175.4,632.5,175.1,632.7,175.2z"/>
						<path class="st158" d="M652.9,158.4c-2.4,1.5-4.4,3.6-5.8,6.1c-0.3,0.4-0.5,0.9-0.8,1.3c-0.8,1.5-1.5,3.1-2,4.8
							c-0.6,2-1.5,3.9-2.6,5.7c-1.1,1.8-2.4,3.5-4,4.9c-0.6,0.5-1.2,0.9-2,1.2c-0.4,0.1-0.7,0.3-1.1,0.4c-2.7,0.8-5.9,0.9-7.7-1.3
							c1.5-2.2,3-4.2,4.8-6.2c0.9-1.1,2-2,3.1-2.9c0.3-0.3,0.7-0.5,1.1-0.7c1.2-0.6,2.3-1.5,3.3-2.4l0.7-0.7c1.5-1.6,2.9-3.3,4-5.2
							c0.9-1.6,2.2-2.9,3.7-3.7C649.3,158.8,651.1,158.4,652.9,158.4L652.9,158.4z"/>
						<path class="st158" d="M611.8,161.6c-0.6,0.2-1.2,0.4-1.9,0.6c-0.6,0.1-2.9-0.4-3.2-1.7c-0.3-1.3,0-1.5,0-1.5
							c-0.6-0.8-1-1.7-1.2-2.6c-0.2-0.9-0.2-1.9,0-2.9c0.1-0.4,0.2-0.7,0.4-1c0.2-0.3,0.4-0.5,0.7-0.7c0.3-0.2,0.6-0.3,1-0.4
							c0.3-0.1,0.7-0.1,1,0c0.1-1.9,1-3.6,2.3-4.9c1.4-1.3,3.2-2,5.1-2c7.2-0.4,8.1,2.7,8.1,2.7c0.4-0.3,0.9-0.4,1.4-0.5
							c0.5-0.1,1,0,1.5,0.2c1.5,0.6,1.9,2.9,1.9,2.9c0.9,0.3,1.7,0.9,2.1,1.6c0.5,0.8,0.7,1.7,0.5,2.7c-0.4,3.5-4,3-7.6,3
							C620.5,157.2,611.8,161.6,611.8,161.6z"/>
						<path class="st155" d="M616.2,167.3c0,0,0.5,0.7,1.9,0.4c0.8-0.2,1.7-0.3,2.5-0.2c1-0.1,2-0.3,2.9-0.6c0,0,1.9-7.4,2.2-8.5
							c0.6-1.3,1.1-2.6,1.6-3.9c-0.4,0-0.8,0-1.2,0.1l-0.5,1.7c0-0.6-0.1-1.1-0.2-1.7c-0.2-0.4-0.9-1-1.1-0.6
							c-0.2,0.4-0.1,2.3-0.3,2.7c-0.2,0.4-0.4-2.9-0.6-2.9c-0.2,0-1.3,0.2-1.4,0.7c-0.1,0.5,0.2,3.4,0.2,4.2
							c-0.1,0.9-0.3,1.8-0.6,2.6c0-0.2-0.6-7.1-1.3-7.2c-0.6,0-1.1,0-1.7,0.2l0.2,2.5c0,0-0.6-2.9-1.1-2.8c-0.5,0.1-1.5-0.4-1.5,0.2
							c0.1,0.9,0.3,1.7,0.6,2.6c0,0-0.9-2-1.4-1.9c-0.5,0.1-1.4,0.5-1.2,0.8c0.2,0.4,3.1,5.9,3.2,6.6c0.1,0.7-4.1-2-4.3-3.4
							c0,0-1,0.2-1,0.8s1.5,1.4,1.5,1.7c0.8,0.6,1.7,1.3,2.5,1.8c-1.6-0.8-3.1-1.8-4.5-2.8c-0.4-0.6-0.8,0-0.7,0.2l0.1,1.1
							c0.8,0.4,1.6,0.9,2.4,1.4C614.1,163.6,616.3,165.7,616.2,167.3z"/>
						<path class="st161" d="M617.2,162.4c-0.4,0.2-4-2.2-4.3-3.4c-0.2,0.1-0.4,0.1-0.6,0.2c0.2,0.2,0.3,0.4,0.5,0.6
							c1,1,2.2,2,3.4,2.8C617.1,162.8,617.4,162.5,617.2,162.4z"/>
						<path class="st11" d="M614.9,158.3c-1,0.3-2,0.8-2.8,1.5c-0.8,0.7-1.5,1.5-2,2.4c-1.3,2.9-1.5,10.2,3.2,12.5
							c4.7,2.4,14-0.7,14.6-6.6C628.5,162.3,625.5,154.7,614.9,158.3z"/>
						<path class="st155" d="M616.3,158.7c0.3,0.1,0.5,0.1,0.8,0c0.2-0.1,0.5-0.3,0.6-0.4c0.3-0.5,0.5-1.1,0.6-1.7
							c0,0.1,0,0.1,0,0.2c0,0.1,0.1,0.1,0.1,0.2c0.1,0,0.1,0,0.2,0c0,0,0.1,0,0.1,0c0,0,0.1,0,0.1,0c0.5-0.1,1.1-1.1,1.1-1.1
							s-1.2,2.2-0.8,2.6c1.3,0.3,2.5,0.4,3.8,0.3c0,0-0.6,0.4-0.3,0.7c0.6,0.4,1.2,0.6,1.8,0.8l-3.9-0.3c-0.4,0,0.2,0.7,0.2,0.7
							c-0.5-0.3-1.1-0.4-1.7-0.4c-0.6,0.2-0.6,1.9-0.6,1.9c-0.1-0.1-0.2-0.1-0.2-0.2c-0.1,0-0.2,0-0.3,0c-0.2,0-0.4,0.1-0.5,0.2
							c-0.4,0.5-0.8,1-1.1,1.5c0.3-1,0.4-2.1,0.3-3.2c-0.2-0.3-0.6-0.6-1-0.8c-0.4-0.2-0.8-0.2-1.2-0.1c-0.9,0.2-0.7,0.4-1.3,0.4
							c-0.4,0-0.8-0.1-1.3-0.2c0.8-0.1,1.6-0.3,2.4-0.6c0.4-0.2,0.8-0.3,1.2-0.3c0.3,0-0.8-0.9-0.8-0.9L616.3,158.7z"/>
						<path class="st155" d="M617.8,159.7c-0.1-0.1-0.1-0.1-0.2-0.2c-0.5-1.2-1-2.5-1.3-3.8c0-0.6,0.7-2.2,1.1-1.8
							c0.4,0.3,0.6,0.5,0.3,0.8c-0.3,0.3-0.9,0.6-0.8,1.2c0.1,0.6,1.1,2.8,1.3,3.4c0,0.1,0,0.1,0,0.2c0,0.1,0,0.1,0,0.2L617.8,159.7
							L617.8,159.7z"/>
						<path class="st155" d="M596.6,176.6c0-1.1,0.3-2.1,0.7-3.1c0.7-1,0.8-0.3,0.8-1.2c-0.1-1.4-0.2-2.7-0.1-4.1
							c0.3-1.4,0.9-2.2,2-2.3c1.1-0.1,2.3,0.3,2.4,0.8c0.1,0.5,0,0.7-0.4,0.8c-0.4,0.1-1.2-0.3-1.5,0.1c0,1.3,0.3,2.7,0.8,3.9
							c0.3,0.3,1.7,0.1,2.4,0.7c0.5,0.4,1,1,1.3,1.6c-1.8,1.1-3.7,2-5.7,2.6C598.3,176.7,597.5,176.7,596.6,176.6z"/>
						<path class="st11" d="M597.1,175.5c-0.8-0.4-1.6-0.5-2.5-0.4c-0.9,0.1-1.7,0.5-2.3,1.1c-2,2.1-3.4,13.7,1.2,16.8
							c6.1,4.1,9-0.2,9-0.2c2.1,0.5,4.4,0.5,6.5-0.1c3-1.3,2.6-2.4,2.6-2.4s5.1-0.2,6.5-4.2c1.4-4-4.4-12-8.6-14.2
							c-0.5-0.3-1-0.5-1.6-0.6c-0.6-0.1-1.2,0-1.7,0.1c-0.6,0.2-1.1,0.5-1.5,0.9c-0.4,0.4-0.8,0.9-1,1.4
							C603.6,173.8,599.1,172.2,597.1,175.5z"/>
						<path class="st8" d="M601.2,192H601c-2.1-1.9-3.4-5.2-4-9.9c-0.3-2.2-0.3-4.3-0.2-6.5c0,0,0-0.1,0-0.1v-0.1h0.4c0,0,0,0,0,0.1
							c0,0,0,0,0,0.1c0,0.1-0.8,11.7,4,15.9c0,0.1,0,0.1,0,0.2c0,0.1,0,0.1,0,0.2L601.2,192z"/>
						<path class="st8" d="M611.4,189.3c-0.1,0-0.1,0-0.2,0c-0.1-0.1-0.1-0.1-0.1-0.2c-0.4-2.8-1.1-5.5-2.1-8.1
							c-1.1-2.8-3-5.3-5.5-6.9V174c0-0.1,0-0.1,0-0.2c0-0.1,0.1-0.1,0.2-0.1h0.2c2.6,1.7,4.7,4.3,5.8,7.2c1,2.7,1.8,5.4,2.2,8.3
							c0,0,0,0,0,0.1c0,0,0,0,0,0.1v0.1h-0.2L611.4,189.3z"/>
						<path class="st8" d="M592.5,183.4c-0.1,0-0.1,0-0.2,0c0-0.1-0.1-0.1-0.1-0.2c-0.3-1.1-0.3-2.3-0.1-3.4c0.2-1.1,0.7-2.1,1.4-3
							h0.5c0,0,0,0.1,0,0.1c0,0,0,0,0,0.1c0,0,0,0,0,0.1c0,0,0,0.1,0,0.1c0,0,0,0.1,0,0.1c-0.6,0.8-1.1,1.8-1.3,2.8
							c-0.2,1-0.2,2.1,0,3.1c0,0,0,0,0,0.1s0,0,0,0.1c0,0,0,0.1,0,0.1c0,0.1-0.1,0.1-0.2,0.2L592.5,183.4z"/>
						<path class="st8" d="M600,182.6c-0.1,0-0.1,0-0.2,0l-0.1-0.2c-0.7-2.2-0.9-4.5-0.4-6.8c0-0.1,0.1-0.1,0.2-0.2h0.1h0.1h0.1v0.1
							c0,0,0,0.1,0,0.1c0,0,0,0.1,0,0.1c-0.5,2.1-0.3,4.3,0.4,6.4v0.2c0,0,0,0.1,0,0.1L600,182.6L600,182.6z"/>
						<path class="st161" d="M617.2,180.3c-0.4,0.2-4-2.2-4.3-3.4c-0.2,0-0.4,0.1-0.6,0.2c0.2,0.2,0.3,0.4,0.5,0.6
							c1,1,2.2,2,3.4,2.8C617.1,180.8,617.4,180.5,617.2,180.3z"/>
						<path class="st11" d="M614.9,176.2c-2,0.6-3.8,2-4.8,3.9c-1.3,2.9-1.5,10.2,3.2,12.6c4.7,2.4,14-0.7,14.6-6.6
							C628.5,180.2,625.5,172.6,614.9,176.2z"/>
						<path class="st8" d="M624.9,180.2c-0.2,2.1,0.5,2.8-1.2,4.4c-1.7,1.6-2.3,4.1-5,3.4c-2.7-0.7-3.6,0.8-6.2-0.2
							c-1.4-0.6-2.6-1.8-3.2-3.2c-0.1,1.6,0.2,3.1,0.9,4.5c0.7,1.4,1.8,2.6,3.1,3.4c4.6,2.4,14-0.8,14.5-6.6
							c0.3-3.7-0.7-8.1-4.1-9.9C624.5,177.3,624.9,178.7,624.9,180.2z"/>
						<path class="st155" d="M616.3,176.6c0.3,0.1,0.5,0.1,0.8,0c0.2-0.1,0.5-0.2,0.6-0.4c0.3-0.5,0.5-1.1,0.6-1.7
							c0,0.1,0,0.1,0,0.2c0,0.1,0.1,0.1,0.1,0.2c0,0,0.1,0.1,0.2,0.1c0.1,0,0.1,0,0.2,0c0.5-0.1,1.1-1.1,1.1-1.1s-1.2,2.2-0.8,2.6
							c1.3,0.3,2.5,0.4,3.8,0.3c0,0-0.6,0.4-0.3,0.7c0.6,0.4,1.2,0.6,1.8,0.8l-3.9-0.3c-0.4,0,0.2,0.7,0.2,0.7
							c-0.5-0.3-1.1-0.4-1.7-0.3c-0.6,0.2-0.6,1.9-0.6,1.9c-0.1-0.1-0.2-0.1-0.2-0.2c-0.1,0-0.2,0-0.3,0c-0.2,0-0.4,0.1-0.5,0.2
							c-0.5,0.6-1.1,1.5-1.1,1.5c0.3-1.1,0.4-2.2,0.3-3.2c-0.2-0.3-0.6-0.6-0.9-0.8c-0.4-0.2-0.8-0.2-1.2-0.1
							c-0.9,0.2-0.7,0.4-1.3,0.4c-0.4,0-0.8-0.1-1.3-0.2c0.8-0.1,1.6-0.3,2.4-0.6c0.4-0.2,0.8-0.3,1.2-0.3c0.3,0-0.8-0.9-0.8-0.9
							L616.3,176.6z"/>
						<path class="st155" d="M617.8,177.6c-0.1,0-0.1-0.1-0.2-0.2c-0.5-1.2-1-2.5-1.3-3.8c0-0.6,0.7-2.2,1.1-1.8
							c0.4,0.3,0.6,0.5,0.3,0.8c-0.3,0.3-0.9,0.6-0.8,1.2c0.1,0.6,1.1,2.8,1.3,3.4c0,0.1,0,0.1,0,0.2c0,0.1,0,0.1,0,0.2L617.8,177.6
							L617.8,177.6z"/>
						<path class="st19" d="M623,176.3c-0.1-0.1-0.3-0.1-0.4-0.1c-0.5,0-1.9,0-1.4,0.7C621.7,177.6,624,176.8,623,176.3z"/>
						<path class="st19" d="M584.7,175.9c0.1-0.1,0.3-0.1,0.4-0.1c0.5,0,1.9,0,1.3,0.7C585.9,177.1,583.8,176.4,584.7,175.9z"/>
					</g>
					<path class="st37" d="M561.1,242.4h81.2l2.9-77.1h-81.2L561.1,242.4z"/>
					<path class="st28" d="M561.1,242.4h81.2l2.9-77.1h-81.2L561.1,242.4z"/>
					<path class="st0" d="M642.6,242.6h-81.6l3-77.6h81.7L642.6,242.6z M561.3,242.1h80.8l3-76.6h-80.7L561.3,242.1z"/>
					<g>
						<path class="st0" d="M617.4,168.6h4.4l0.5-14.5l-4.2-4.1L617.4,168.6z"/>
						<path class="st0" d="M622.1,168.8h-4.9l0.7-19.4l4.7,4.5L622.1,168.8z M617.6,168.4h3.9l0.5-14.2l-3.8-3.6L617.6,168.4z"/>
						<path class="st28" d="M623.2,165.5h-4.4l-0.7-18.6l4.5,4.2L623.2,165.5z"/>
						<path class="st0" d="M623.4,165.7h-4.9l-0.7-19.4l5.1,4.6L623.4,165.7z M619,165.2h4l-0.5-14.1l-4-3.7L619,165.2z"/>
					</g>
					<path class="st28" d="M654.7,242.4h-81.2l-2.9-77.1h81.2L654.7,242.4z"/>
					<path class="st0" d="M655,242.6h-81.7v-0.2l-3-77.4h81.7v0.2L655,242.6z M573.8,242.1h80.7l-2.9-76.6h-80.7L573.8,242.1z"/>
					<path class="st37" d="M570.7,165.2l2.9,77.1l-4.7-0.3v-76.8H570.7z"/>
					<path class="st0" d="M570.7,165.2l2.9,77.1l-4.7-0.3v-76.8H570.7z"/>
					<path class="st0" d="M573.8,242.6l-5.2-0.3V165h2.3v0.2L573.8,242.6z M569.1,241.9l4.2,0.2l-3-76.6h-1.3L569.1,241.9z"/>
				</g>
			</g>
		</g>
		<g>
			<path class="st181" d="M649.2,143.5c-0.1-0.1-0.2-0.2-0.3-0.3c-1.8-1.1-14.9-9.2-20.3-11.9c-5.2-2.6-1.9,8.7,5.5,16.4
				c0.9,0.9,0.2,2.4-1,2.4c-14.5,0-33.5,0-39.4,0c-1,0-1.6,0.9-1.3,1.8c1,3.1,4.5,9.4,15.6,12.6c14.3,4.1,29.7,4.6,31.3,4.7
				c0.1,0,0.2,0,0.3,0l24.3-4.5c1.1-0.2,1.5-1.4,0.8-2.3L649.2,143.5z"/>
			<path class="st185" d="M857.5,33.4c-10.7,21.8-32.9,54.6-49.9,75.3c-12.4,15.1-25.3,26.7-34.8,30
				c-24.5,8.6-114.6,31.8-114.6,31.8s-1.4-1.5-3.1-4.3c-2.7-4.5-6.2-12.3-6.2-22.9v0c8-6.6,104.5-50.5,104.5-50.5s2.7-4.7,6.9-11.8
				c9.3-15.9,26.2-44.2,38.4-61.2C801,16.7,806,8.2,811,0.4c1.3,0.1,2.5,0.2,3.8,0.3c2.8,0.4,5.6,1,8.2,1.7
				c9.7,2.8,18.2,8.3,24.8,15.6c1,1.1,1.9,2.2,2.8,3.3C853.4,25.1,855.7,29.1,857.5,33.4z"/>
		</g>
		<path class="st0" d="M605,165.4h-4.9l0.6-14.8l5.1-4.6L605,165.4z M603.3,165h1.1l0.7-17.7l-4,3.7L603.3,165z"/>
		<path class="st28" d="M606.1,165.2h-4.4l-0.5-14.5l4.2-4.1L606.1,165.2z"/>
		<path class="st0" d="M606.3,165.4h-4.9l-0.6-14.8l4.7-4.5L606.3,165.4z M601.9,165h3.9l-0.7-17.8l-3.8,3.6L601.9,165z"/>
		<path class="st186" d="M600.9,151.3l19-2.3l-2.1-2.6l-12.1-0.3L600.9,151.3z"/>
	</g>
</g>
<g id="Pharmacy__x26__Meds">
</g>
<g id="Gifts">
</g>
<g id="E-Commerce">
</g>
<g id="Individuals_Page">
</g>
<g id="More">
</g>
<g id="Become_A_Courier">
</g>
<g id="About_us">
</g>
<g id="Contact_US">
</g>
<g id="Layer_13">
</g>
</svg>
