<?xml version="1.0" encoding="utf-8"?>
<!-- Generator: Adobe Illustrator 26.0.1, SVG Export Plug-In . SVG Version: 6.00 Build 0)  -->
<svg version="1.1" xmlns="http://www.w3.org/2000/svg" xmlns:xlink="http://www.w3.org/1999/xlink" x="0px" y="0px"
	 viewBox="0 0 730.2 520" style="enable-background:new 0 0 730.2 520;" xml:space="preserve">
<style type="text/css">
	.st0{fill:#131314;}
	.st1{fill:#F7F5DD;stroke:#131314;stroke-width:0.8581;stroke-miterlimit:10;}
	.st2{fill:#131314;stroke:#F7F5DD;stroke-width:0.3547;stroke-miterlimit:10;}
	.st3{fill:#FFC72B;stroke:#131314;stroke-width:0.8581;stroke-linecap:round;stroke-linejoin:round;stroke-miterlimit:10;}
	.st4{fill:none;stroke:#131314;stroke-width:0.8581;stroke-miterlimit:10;}
	.st5{fill:#131314;stroke:#F7F5DD;stroke-width:0.389;stroke-miterlimit:10;}
	.st6{fill:#FF0058;stroke:#131314;stroke-width:1.7191;stroke-miterlimit:10;}
	.st7{fill:#FFC72B;}
	.st8{fill:#F7F5DD;}
	.st9{fill:url(#SVGID_1_);}
	.st10{fill:#FFE092;}
	.st11{fill:#FF0058;}
	.st12{fill:#FFFFFF;filter:url(#Adobe_OpacityMaskFilter);}
	.st13{mask:url(#mask4_744_2018_00000183221484926765621670000012565967078459250105_);}
	.st14{fill:#FFC72B;stroke:#131314;stroke-width:0.8581;stroke-miterlimit:10;}
	.st15{fill:url(#SVGID_00000041996975891867248890000014306260627598789793_);}
	.st16{clip-path:url(#SVGID_00000109736274131879879590000017051758750516238464_);}
	.st17{fill:#FFC72C;stroke:#131314;stroke-width:0.1032;stroke-miterlimit:10;}
	.st18{clip-path:url(#SVGID_00000093143865818257587830000000624399032331522997_);}
	.st19{fill:#DD9F14;}
	.st20{fill:none;stroke:#131314;stroke-width:2;stroke-miterlimit:10;}
	.st21{clip-path:url(#SVGID_00000114041137233201215360000008403011392173076896_);}
	.st22{fill:#F7F5DD;stroke:#131314;stroke-miterlimit:10;}
	.st23{fill:#131314;stroke:#131314;stroke-miterlimit:10;}
	.st24{fill:#FF0058;stroke:#131314;stroke-miterlimit:10;}
	.st25{opacity:0.1;fill:url(#SVGID_00000094608954266390534710000001035464111977188265_);enable-background:new    ;}
	.st26{opacity:0.4;}
	.st27{fill:none;stroke:#131314;stroke-miterlimit:10;}
	.st28{fill:#FFC72C;}
	.st29{fill:none;stroke:#131314;stroke-width:0.931;stroke-miterlimit:10;}
	.st30{fill:url(#SVGID_00000095304652705291538080000000122503999394044859_);}
	.st31{clip-path:url(#SVGID_00000160893464116268727200000012280519650417623206_);}
	.st32{fill:none;stroke:#131314;stroke-width:0.7836;}
	.st33{fill:#FF0058;stroke:#131314;stroke-width:0.931;stroke-miterlimit:10;}
	.st34{opacity:0.78;fill:#FFFFFF;}
	.st35{fill:#F7F5DD;stroke:#131314;stroke-width:1.3965;stroke-miterlimit:10;}
	.st36{fill:#FFC72B;stroke:#131314;stroke-width:0.931;stroke-miterlimit:10;}
	.st37{fill:#E7B67B;}
	.st38{fill:#FFC72C;stroke:#231F20;stroke-width:0.3724;stroke-linecap:round;stroke-linejoin:round;}
	.st39{fill:none;stroke:#F7F5DD;stroke-width:1.862;stroke-linecap:round;stroke-linejoin:round;stroke-miterlimit:10;}
	.st40{fill:none;stroke:#F7F5DD;stroke-width:0.931;stroke-linecap:round;stroke-linejoin:round;stroke-miterlimit:10;}
	.st41{fill:none;stroke:#FF0058;stroke-width:0.931;stroke-miterlimit:10;}
	.st42{fill:none;stroke:#FF0058;stroke-width:0.931;stroke-linecap:round;stroke-linejoin:round;stroke-miterlimit:10;}
	.st43{fill:none;stroke:#131314;stroke-width:0.931;stroke-linecap:round;stroke-linejoin:round;stroke-miterlimit:10;}
	.st44{fill:none;stroke:#000000;stroke-width:0.931;stroke-miterlimit:10;}
	.st45{fill:none;}
	.st46{fill:#FFC72C;stroke:#000000;stroke-width:0.8449;stroke-miterlimit:10;}
	.st47{clip-path:url(#SVGID_00000014614233967985489700000004525133144657117340_);fill:#F4B821;}
	.st48{clip-path:url(#SVGID_00000014614233967985489700000004525133144657117340_);fill:#FF0058;}
	.st49{clip-path:url(#SVGID_00000005960721039073464840000003858835859405151907_);fill:#F4B821;}
	.st50{clip-path:url(#SVGID_00000005960721039073464840000003858835859405151907_);fill:#FF0058;}
	.st51{fill:#FE0058;}
	.st52{fill:#FFF8FB;}
	.st53{fill:#F7F5DD;stroke:#000000;stroke-width:1.2859;stroke-miterlimit:10;}
	.st54{fill:url(#SVGID_00000000924722005845365040000002781649587866371237_);}
	.st55{clip-path:url(#SVGID_00000116925355830689492000000006385799052253435035_);}
	.st56{fill:none;stroke:#131314;stroke-width:1.4798;}
	.st57{fill:#FFC72B;stroke:#131314;stroke-width:1.0065;stroke-miterlimit:10;}
	.st58{fill:#DD225C;}
	.st59{fill:#67300F;}
	.st60{fill:#FFC72C;stroke:#231F20;stroke-width:0.4026;stroke-linecap:round;stroke-linejoin:round;}
	.st61{fill:#FFB703;}
	.st62{clip-path:url(#SVGID_00000067230887032334186380000008116193471616423044_);}
	.st63{fill:url(#SVGID_00000087383227036387053740000006773237992105794185_);}
	.st64{clip-path:url(#SVGID_00000130613581609660187040000009458818756564455068_);}
	.st65{fill:none;stroke:#131314;stroke-width:1.5895;}
	.st66{fill:#FFFFFF;filter:url(#Adobe_OpacityMaskFilter_00000070084219623321355240000012322411119770500505_);}
	.st67{mask:url(#mask4_744_2018_00000150814286955539578320000013805391622432084355_);}
	.st68{fill:#FFC72B;stroke:#131314;stroke-width:0.97;stroke-miterlimit:10;}
	.st69{fill:url(#SVGID_00000139286116035262405550000004448089044803852984_);}
	.st70{clip-path:url(#SVGID_00000121261754918960098640000004466594609372074134_);}
	.st71{fill:#FFC72C;stroke:#131314;stroke-width:0.1166;stroke-miterlimit:10;}
	.st72{opacity:0.14;clip-path:url(#XMLID_00000119105226920287167430000008341391411046433964_);fill:#F7F5DD;}
	.st73{opacity:0.14;clip-path:url(#XMLID_00000100346212054251935060000015831997830140126900_);fill:#F7F5DD;}
	.st74{opacity:0.14;clip-path:url(#XMLID_00000040574763413334851800000014667940396360725183_);fill:#F7F5DD;}
	.st75{fill:none;stroke:#131314;stroke-width:0.7289;stroke-miterlimit:10;}
	.st76{fill-rule:evenodd;clip-rule:evenodd;fill:#F7F5DD;stroke:#231F20;stroke-width:0.5758;stroke-miterlimit:10;}
	.st77{fill:#FFC72C;stroke:#231F20;stroke-width:0.2915;stroke-linecap:round;stroke-linejoin:round;}
	.st78{fill:#EBD8D1;}
	.st79{fill:#FFC72B;stroke:#131314;stroke-width:0.7289;stroke-miterlimit:10;}
	.st80{fill:#FFC72B;stroke:#131314;stroke-width:1.0933;stroke-miterlimit:10;}
	.st81{fill:#FDBAA7;}
	.st82{fill:#F7F5DD;stroke:#131314;stroke-width:0.7289;stroke-miterlimit:10;}
	.st83{opacity:0.5;fill:#FCC0B1;}
	.st84{fill:#F7F5DD;stroke:#131314;stroke-width:1.0933;stroke-miterlimit:10;}
	.st85{fill:#843636;}
	.st86{opacity:0.7;}
	.st87{fill:#853536;}
	.st88{fill:#E0A9A0;}
	.st89{fill:none;stroke:#F7F5DD;stroke-width:1.4577;stroke-linecap:round;stroke-linejoin:round;stroke-miterlimit:10;}
	.st90{fill:none;stroke:#F7F5DD;stroke-width:0.7289;stroke-linecap:round;stroke-linejoin:round;stroke-miterlimit:10;}
	.st91{fill:none;stroke:#FF0058;stroke-width:0.7289;stroke-miterlimit:10;}
	.st92{fill:none;stroke:#FF0058;stroke-width:0.7289;stroke-linecap:round;stroke-linejoin:round;stroke-miterlimit:10;}
	.st93{fill:none;stroke:#131314;stroke-width:0.7289;stroke-linecap:round;stroke-linejoin:round;stroke-miterlimit:10;}
	.st94{fill:none;stroke:#000000;stroke-width:0.7289;stroke-miterlimit:10;}
	.st95{opacity:0.6;fill:#F7F5DD;enable-background:new    ;}
	.st96{opacity:0.4;fill:#F7F5DD;enable-background:new    ;}
	.st97{opacity:0.2;fill:#F7F5DD;enable-background:new    ;}
	.st98{fill:#F7F5DD;stroke:#131314;stroke-width:1.0398;stroke-miterlimit:10;}
	.st99{fill:url(#SVGID_00000151510958094365975180000007185856178086051748_);}
	.st100{clip-path:url(#SVGID_00000170257671564022029950000014992248000411860874_);}
	.st101{fill:none;stroke:#131314;stroke-width:1.396;}
	.st102{fill:#FFFFFF;stroke:#070405;stroke-width:1.0001;stroke-miterlimit:10;}
	.st103{fill:#FE0058;stroke:#000000;stroke-width:1.0001;stroke-miterlimit:10;}
	.st104{fill:#131314;stroke:#070405;stroke-width:1.0001;stroke-miterlimit:10;}
	.st105{fill:#F7F5DD;stroke:#070506;stroke-width:1.0001;stroke-miterlimit:10;}
	.st106{fill:#F7F5DD;stroke:#000000;stroke-width:1.0001;stroke-miterlimit:10;}
	.st107{fill:#131313;}
	.st108{fill:#101431;stroke:#0C0609;stroke-width:1.0001;stroke-miterlimit:10;}
	.st109{fill:#171F42;stroke:#0C0609;stroke-width:1.0001;stroke-miterlimit:10;}
	.st110{fill:none;stroke:#131314;stroke-width:1.63;stroke-linecap:round;stroke-linejoin:round;stroke-dasharray:10.2907,8.5737;}
	.st111{fill:#FFC72C;stroke:#131314;stroke-width:0.815;stroke-linecap:round;stroke-linejoin:round;stroke-miterlimit:10;}
	.st112{fill:#FFC72C;stroke:#131314;stroke-width:0.815;stroke-linecap:round;stroke-linejoin:round;}
	.st113{fill:none;stroke:#131314;stroke-width:0.9454;stroke-linecap:round;stroke-miterlimit:10;}
	.st114{fill:url(#SVGID_00000067227377917697392310000013796773660041376928_);}
	.st115{fill:#F7F5DD;stroke:#131314;stroke-width:1.0867;stroke-linecap:round;stroke-linejoin:round;stroke-miterlimit:10;}
	.st116{fill:none;stroke:#131314;stroke-width:1.0867;stroke-linecap:round;stroke-linejoin:round;stroke-miterlimit:10;}
	.st117{fill:#F7F5DD;stroke:#131314;stroke-width:2.0758;stroke-linecap:round;stroke-linejoin:round;stroke-miterlimit:10;}
	.st118{fill:none;stroke:#131314;stroke-width:2.0758;stroke-linecap:round;stroke-linejoin:round;stroke-miterlimit:10;}
	.st119{fill:#FFC72C;stroke:#131314;stroke-width:0.5341;stroke-linecap:round;stroke-linejoin:round;stroke-miterlimit:10;}
	.st120{fill:#FFC72C;stroke:#131314;stroke-width:0.5341;stroke-linecap:round;stroke-linejoin:round;}
	.st121{fill:none;stroke:#131314;stroke-width:0.6195;stroke-linecap:round;stroke-miterlimit:10;}
	.st122{fill:#FFFFFF;filter:url(#Adobe_OpacityMaskFilter_00000162315762503447535050000008808812354690439051_);}
	.st123{mask:url(#mask0_472_749_00000067936524425341381020000013690141856301607846_);}
	.st124{fill:#FFC72B;stroke:#000000;stroke-width:0.7607;stroke-miterlimit:10;}
	.st125{fill:none;stroke:#FF0058;stroke-width:3.26;stroke-linecap:round;stroke-linejoin:round;}
	.st126{fill:url(#SVGID_00000004508009281769185250000001036641998586531487_);}
	.st127{fill:#FFC72C;stroke:#131314;stroke-width:9.798834e-02;stroke-miterlimit:10;}
	.st128{fill:#F7F5DD;stroke:#131314;stroke-width:0.8499;stroke-miterlimit:10;}
	.st129{fill:url(#SVGID_00000065763160269617646580000007949042642755722168_);}
	.st130{clip-path:url(#SVGID_00000044141080449669355880000004326442402259664786_);}
	.st131{fill:none;stroke:#131314;stroke-width:0.1586;}
	.st132{fill:#F7F5DD;stroke:#000000;stroke-width:0.1379;stroke-miterlimit:10;}
	.st133{fill:#FFC72B;stroke:#131314;stroke-width:0.1079;stroke-miterlimit:10;}
	
		.st134{fill-rule:evenodd;clip-rule:evenodd;fill:#F7F5DD;stroke:#131314;stroke-width:0.6316;stroke-linecap:round;stroke-linejoin:round;stroke-miterlimit:10;}
	.st135{fill:#FE0058;stroke:#131314;stroke-width:0.6316;stroke-linecap:round;stroke-linejoin:round;stroke-miterlimit:10;}
	.st136{fill:#F7F5DD;stroke:#131314;stroke-width:0.6316;stroke-linecap:round;stroke-linejoin:round;stroke-miterlimit:10;}
	.st137{fill:#FFC72B;stroke:#131314;stroke-width:0.8499;stroke-miterlimit:10;}
	.st138{opacity:0.5;}
	.st139{clip-path:url(#SVGID_00000142897201191886229120000001602312734154646674_);}
	.st140{fill:#CCCCCC;}
	.st141{fill:#FFC608;stroke:#131314;stroke-width:0.6316;stroke-linecap:round;stroke-linejoin:round;stroke-miterlimit:10;}
	.st142{fill:#79C9E2;}
	.st143{fill:#62B8CC;}
	.st144{fill:#D9E1EE;}
	.st145{fill:none;stroke:#FFFFFF;stroke-width:0.4753;stroke-miterlimit:10;}
	.st146{fill:#E48D34;}
	.st147{fill:#EAA05C;}
	.st148{fill:#D17A2B;}
	.st149{fill:#F5B376;}
	.st150{fill:#F5BE2D;}
	.st151{fill:#F4E081;}
	.st152{fill:#F2A101;}
	.st153{fill:#F7CF4C;}
	.st154{fill:#DE8E06;}
	.st155{fill:#05C954;}
	.st156{fill:#E21E36;}
	.st157{fill:#D4101E;}
	.st158{fill:#00AF47;}
	.st159{fill:#FFE164;}
	.st160{fill:#FFFAA6;}
	.st161{fill:#43B572;}
	.st162{fill:#FFC72C;stroke:#231F20;stroke-width:0.1377;stroke-linecap:round;stroke-linejoin:round;}
	.st163{fill:#FED0B8;}
	.st164{fill:#F7F5DD;stroke:#131314;stroke-width:0.6605;stroke-linecap:round;stroke-linejoin:round;stroke-miterlimit:10;}
	.st165{fill:#FFC608;stroke:#131314;stroke-width:0.6234;stroke-miterlimit:10;}
	.st166{fill:#FFC608;stroke:#131314;stroke-width:0.5155;stroke-miterlimit:10;}
	.st167{fill:none;stroke:#131314;stroke-width:1.1332;stroke-linecap:round;stroke-linejoin:round;stroke-dasharray:22.665,22.665;}
	.st168{fill:#FFC72C;stroke:#231F20;stroke-width:4.938446e-02;stroke-linecap:round;stroke-linejoin:round;}
	.st169{fill:url(#SVGID_00000148619315831302440680000012175975041348275859_);}
	.st170{clip-path:url(#SVGID_00000100343973244087001480000003897994478018185117_);}
	.st171{fill:#FFC72C;stroke:#131314;stroke-width:7.223932e-02;stroke-miterlimit:10;}
	.st172{fill:url(#SVGID_00000078725151549861885380000003949795468694463364_);}
	.st173{fill:#131314;stroke:#F7F5DD;stroke-width:0.1911;stroke-miterlimit:10;}
	.st174{fill:#F7F5DD;stroke:#131314;stroke-width:0.9245;stroke-miterlimit:10;}
	.st175{fill:none;stroke:#131314;stroke-width:0.9245;stroke-miterlimit:10;}
	.st176{fill:#131314;stroke:#F7F5DD;stroke-width:0.2096;stroke-miterlimit:10;}
	.st177{fill:#FF0058;stroke:#131314;stroke-width:0.9245;stroke-miterlimit:10;}
	.st178{fill:#232020;}
	.st179{fill:#F7F5DD;stroke:#231F20;stroke-width:0.9245;stroke-miterlimit:10;}
	.st180{fill:#FCF4EC;}
	.st181{fill:#CD950C;}
	.st182{fill:none;stroke:#FFFFFF;stroke-width:0.5769;stroke-miterlimit:10;}
	.st183{fill:#FFC72C;stroke:#131314;stroke-width:0.8286;stroke-miterlimit:10;}
	.st184{fill:#FFC72C;stroke:#131314;stroke-width:0.8286;stroke-linecap:round;stroke-linejoin:round;}
	.st185{clip-path:url(#SVGID_00000171690087530392651440000017366656033482309251_);}
	.st186{fill:url(#SVGID_00000002355969066780036360000000646518103947254930_);}
	.st187{clip-path:url(#SVGID_00000157306558584542668750000016225402753162452404_);}
	.st188{fill:none;stroke:#131314;stroke-width:1.5284;}
	.st189{fill:#FFFFFF;filter:url(#Adobe_OpacityMaskFilter_00000104699809688851650760000015367549384460965543_);}
	.st190{mask:url(#mask4_744_2018_00000067229330011245605510000014511519346254753932_);}
	.st191{fill:#FFC72B;stroke:#131314;stroke-width:0.9327;stroke-miterlimit:10;}
	.st192{fill-rule:evenodd;clip-rule:evenodd;fill:#F7F5DD;stroke:#131314;stroke-width:0.2707;stroke-miterlimit:10;}
	.st193{fill-rule:evenodd;clip-rule:evenodd;fill:#F9CC3D;}
	.st194{fill-rule:evenodd;clip-rule:evenodd;fill:#FE0058;}
	.st195{fill:#EDBA29;}
	.st196{fill-rule:evenodd;clip-rule:evenodd;fill:#98DFFF;}
	.st197{fill:#29ABE2;}
	.st198{fill-rule:evenodd;clip-rule:evenodd;fill:#FFC72C;stroke:#131314;stroke-width:0.2707;stroke-miterlimit:10;}
	.st199{fill-rule:evenodd;clip-rule:evenodd;fill:#F7F5DD;stroke:#131314;stroke-width:0.1083;stroke-miterlimit:10;}
	.st200{fill-rule:evenodd;clip-rule:evenodd;fill:#FE0058;stroke:#131314;stroke-width:0.1083;stroke-miterlimit:10;}
	.st201{fill:#B3B3B3;}
	.st202{fill:#FFC72C;stroke:#231F20;stroke-width:0.4332;stroke-linecap:round;stroke-linejoin:round;}
	.st203{fill:#FFC84A;}
	.st204{fill:#FF0058;stroke:#131314;stroke-width:1.2117;stroke-miterlimit:10;}
	.st205{fill:#F7F5DD;stroke:#131314;stroke-width:0.9088;stroke-miterlimit:10;}
	.st206{fill:#FFC72B;stroke:#131314;stroke-width:0.9088;stroke-miterlimit:10;}
	.st207{fill:url(#SVGID_00000107578156038509089230000003050223104534167990_);}
	.st208{fill:#FFC72B;stroke:#000000;stroke-width:0.8482;stroke-miterlimit:10;}
	.st209{fill:none;stroke:#F7F5DD;stroke-width:1.4089;stroke-linecap:round;stroke-linejoin:round;stroke-miterlimit:10;}
	.st210{fill:none;stroke:#131314;stroke-width:0.7045;stroke-miterlimit:10;}
	.st211{fill:none;stroke:#F7F5DD;stroke-width:0.7045;stroke-linecap:round;stroke-linejoin:round;stroke-miterlimit:10;}
	.st212{fill:none;stroke:#FF0058;stroke-width:0.7045;stroke-miterlimit:10;}
	.st213{fill:none;stroke:#FF0058;stroke-width:0.7045;stroke-linecap:round;stroke-linejoin:round;stroke-miterlimit:10;}
	.st214{fill:none;stroke:#131314;stroke-width:0.7045;stroke-linecap:round;stroke-linejoin:round;stroke-miterlimit:10;}
	.st215{fill:none;stroke:#000000;stroke-width:0.7045;stroke-miterlimit:10;}
	.st216{fill:none;stroke:#131314;stroke-width:0.8062;stroke-miterlimit:10;}
	.st217{clip-path:url(#SVGID_00000032615590348371072910000000434870551109611169_);}
	.st218{fill:url(#SVGID_00000135678596023507826480000001549265525746577589_);}
	.st219{clip-path:url(#SVGID_00000121242732922337903140000013128522518227963281_);}
	.st220{fill:none;stroke:#131314;stroke-width:1.7355;}
	.st221{fill:#F7F5DD;stroke:#131314;stroke-width:1.2641;stroke-miterlimit:10;}
	.st222{fill:#FFC608;stroke:#0C0609;stroke-width:0.9481;stroke-miterlimit:10;}
	.st223{fill:#FFC72B;stroke:#131314;stroke-width:1.2641;stroke-miterlimit:10;}
	.st224{fill:#FFC72B;stroke:#131314;stroke-width:0.9481;stroke-miterlimit:10;}
	.st225{clip-path:url(#SVGID_00000110441193599319554040000013878174355357959342_);}
	.st226{fill:#F4B821;}
	.st227{fill:#C69560;}
	.st228{fill:#F7F5DD;stroke:#131314;stroke-width:1.2993;stroke-miterlimit:10;}
	.st229{fill:#131314;stroke:#F7F5DD;stroke-width:0.2685;stroke-miterlimit:10;}
	.st230{fill:#FFC72B;stroke:#131314;stroke-width:1.2993;stroke-miterlimit:10;}
	.st231{fill:none;stroke:#131314;stroke-width:1.2993;stroke-miterlimit:10;}
	.st232{fill:#131314;stroke:#F7F5DD;stroke-width:0.2945;stroke-miterlimit:10;}
	.st233{fill:#FF0058;stroke:#131314;stroke-width:1.2993;stroke-miterlimit:10;}
	.st234{fill:#FFFFFF;filter:url(#Adobe_OpacityMaskFilter_00000039129445686448983280000003379442391258668218_);}
	.st235{mask:url(#mask0_479_11673_00000099644528304487065730000005320813079396614829_);}
	.st236{fill:#FFC72B;stroke:#000000;stroke-width:0.6063;stroke-miterlimit:10;}
	.st237{fill:url(#SVGID_00000114787091184127466200000002817725407983406485_);}
	.st238{fill:#FFFFFF;filter:url(#Adobe_OpacityMaskFilter_00000180335412395781395550000007977775217394694319_);}
	.st239{mask:url(#mask0_472_749_00000032621048777137593190000003031189513109940632_);}
	.st240{fill:url(#SVGID_00000078018924916925006020000012101443823986946956_);}
	.st241{fill:url(#SVGID_00000054228680257152732260000005347843795779457927_);}
	.st242{clip-path:url(#SVGID_00000146493755323207857400000001690844007419413417_);}
	.st243{fill:none;stroke:#131314;stroke-width:1.793;}
	.st244{font-family:'BCNovaticaCYR-Medium';}
	.st245{font-size:11.4072px;}
	.st246{fill:#F7F5DD;stroke:#000000;stroke-width:1.4856;stroke-miterlimit:10;}
	.st247{fill:#FFC72B;stroke:#131314;stroke-width:1.1628;stroke-miterlimit:10;}
	.st248{fill:#F7F5DD;stroke:#131314;stroke-width:1.306;stroke-miterlimit:10;}
	.st249{font-size:10.7805px;}
	.st250{font-family:'BCNovaticaCYR-Regular';}
	.st251{font-size:12.646px;}
	.st252{font-size:20.8256px;}
	.st253{font-size:12.3043px;}
	.st254{font-size:10.2648px;}
	.st255{fill:none;stroke:#131314;stroke-width:1.2653;stroke-miterlimit:10;}
	.st256{font-size:12.6346px;}
	.st257{fill:#FFC72C;stroke:#131314;stroke-width:0.9795;stroke-miterlimit:10;}
	.st258{fill:#FFC72C;stroke:#131314;stroke-width:0.9795;stroke-linecap:round;stroke-linejoin:round;stroke-miterlimit:10;}
	.st259{fill:#FFFFFF;}
	.st260{fill:#F7F5DD;stroke:#000000;stroke-width:0.4697;stroke-miterlimit:10;}
	.st261{fill:#FFC046;}
	.st262{fill:none;stroke:#131314;stroke-width:0.8612;stroke-linecap:round;stroke-linejoin:round;stroke-miterlimit:10;}
	.st263{fill:none;stroke:#FFFFFF;stroke-width:0.8612;stroke-linecap:round;stroke-linejoin:round;stroke-miterlimit:10;}
	.st264{fill:none;stroke:#F7F5DD;stroke-width:0.4697;stroke-miterlimit:10;}
	.st265{fill:#F7F5DD;stroke:#070506;stroke-width:0.5202;stroke-miterlimit:10;}
	.st266{fill:#F7F5DD;stroke:#000000;stroke-width:0.5202;stroke-miterlimit:10;}
	.st267{fill:#FE0058;stroke:#000000;stroke-width:0.5202;stroke-miterlimit:10;}
	.st268{fill:none;stroke:#F7F5DD;stroke-width:0.8612;stroke-linecap:round;stroke-linejoin:round;stroke-miterlimit:10;}
	.st269{fill:none;stroke:#1A2E35;stroke-width:0.8612;stroke-linecap:round;stroke-linejoin:round;stroke-miterlimit:10;}
</style>
<g id="Layer_1">
</g>
<g id="Home">
</g>
<g id="Restaurants">
</g>
<g id="Grocery">
</g>
<g id="Pharmacy__x26__Meds">
</g>
<g id="Gifts">
</g>
<g id="E-Commerce">
</g>
<g id="Individuals_Page">
	<g>
		<g>
			<ellipse class="st0" cx="365.1" cy="515.3" rx="365.1" ry="4.7"/>
			<g>
				<g>
					<g>
						<path class="st8" d="M559.9,281.6h-18.8c-1.5,0-1.8-1.1-1.8-2.9c0-1,0.1-2.1,0.1-3.3v-10.9c-0.1-2.8-0.4-5,1.7-5H560
							c2.1,0,3.9,2.1,4.3,5c0,0.4,0,0.8,0,1.2v9.7c0,1.1-0.2,2.3-0.7,3.3c-0.3,0.8-0.8,1.5-1.4,2
							C561.5,281.3,560.7,281.6,559.9,281.6z"/>
						<path class="st0" d="M537.9,265.8v-1.2h26.4c0,0.4,0,0.8,0,1.2v1.7h-26.5L537.9,265.8z"/>
						<path class="st0" d="M665.5,497.8c-8.4,8.4-19.5,13.7-31.4,14.9c-11.9,1.2-23.8-1.8-33.7-8.4c-9.9-6.6-17.2-16.5-20.7-27.9
							c-3.5-11.4-2.9-23.7,1.7-34.7c4.6-11,12.8-20.1,23.3-25.7c10.5-5.6,22.7-7.4,34.4-5.1c11.7,2.3,22.2,8.7,29.8,17.9
							c7.6,9.2,11.7,20.8,11.7,32.7c0,6.8-1.3,13.5-3.9,19.7C674.1,487.4,670.3,493.1,665.5,497.8z M647,443.5
							c-4.5-4.4-10.4-7-16.7-7.3c-6.3-0.3-12.4,1.8-17.3,5.8c-4.8,4-8,9.7-8.9,15.9c-0.9,6.2,0.5,12.6,4.1,17.8
							c3.5,5.2,8.8,8.9,14.9,10.4c6.1,1.5,12.6,0.7,18.1-2.3c5.5-3,9.8-7.9,11.9-13.8c2.1-5.9,1.9-12.4-0.5-18.2
							C651.2,448.6,649.4,445.8,647,443.5L647,443.5z"/>
						<path class="st0" d="M647.4,479.5c-4.2,4.2-9.7,6.9-15.7,7.5c-5.9,0.6-11.9-0.9-16.8-4.2c-5-3.3-8.6-8.2-10.4-13.9
							c-1.7-5.7-1.5-11.8,0.8-17.3c2.3-5.5,6.4-10.1,11.6-12.9c5.2-2.8,11.3-3.7,17.2-2.6c5.8,1.1,11.1,4.3,14.9,8.9
							c3.8,4.6,5.9,10.4,5.9,16.3c0,3.4-0.6,6.7-1.9,9.9C651.6,474.3,649.8,477.2,647.4,479.5z M641.2,449.3
							c-2.8-2.8-6.4-4.5-10.4-4.9c-3.9-0.4-7.9,0.6-11.1,2.8s-5.7,5.5-6.8,9.2c-1.1,3.8-0.9,7.8,0.6,11.5c1.5,3.6,4.2,6.6,7.7,8.5
							c3.5,1.8,7.5,2.4,11.3,1.6c2.5-0.5,4.8-1.5,6.8-3c2-1.5,3.7-3.4,4.8-5.7c1.2-2.2,1.8-4.7,1.9-7.2c0.1-2.5-0.3-5-1.3-7.3
							c-0.9-2.1-2.1-3.9-3.7-5.5H641.2z"/>
						<path class="st8" d="M647.7,480c-4.6,4.6-10.8,7.4-17.4,7.7c-6.5,0.3-13-1.8-18-6c-5.1-4.2-8.4-10-9.3-16.5
							c-1-6.5,0.5-13.1,4.2-18.5c3.6-5.4,9.2-9.3,15.5-10.9c6.3-1.6,13.1-0.8,18.8,2.3c5.8,3.1,10.2,8.2,12.4,14.4
							c2.2,6.2,2,12.9-0.5,19C652.1,474.6,650.2,477.5,647.7,480z M654.2,461.3c0-6-2.2-11.8-6.1-16.4c-3.9-4.6-9.4-7.6-15.3-8.5
							c-6-0.9-12,0.4-17.1,3.6s-8.9,8.2-10.6,13.9c-1.8,5.8-1.4,12,1.1,17.5c2.4,5.5,6.8,10,12.2,12.5c5.4,2.6,11.6,3.1,17.4,1.5
							c5.8-1.6,10.8-5.2,14.2-10.2C652.7,471.1,654.2,466.3,654.2,461.3z M646.7,461.3c0,4.3-1.5,8.4-4.3,11.7
							c-2.8,3.2-6.6,5.4-10.9,6c-4.2,0.6-8.5-0.3-12.2-2.5c-3.6-2.3-6.3-5.8-7.5-9.9c-1.2-4.1-1-8.5,0.7-12.4
							c1.7-3.9,4.8-7.1,8.7-8.9c3.9-1.8,8.3-2.2,12.4-1.1c4.1,1.1,7.7,3.7,10.1,7.3C645.7,454.4,646.7,457.8,646.7,461.3z"/>
						<path class="st7" d="M592.7,338.2c-19.9-34.1-28.6-71.7-28.6-71.7h-17.7c9.9,36.1,15,73.3,15.4,110.7c0,59-40,66.9-40,66.9
							h-82.7c-28.2-22.1-23.1-54-2.8-71.9c20.3-17.8,28.1-27.4,28.1-35.9c0-8.5-1.6-14.7-7-14.7H388c-73.1,0-97.3,46.1-104.3,65.8
							c2-1.5,4.2-3.1,6.5-4.7c48.4-32.9,131.9-16.7,121.8,66.4h-22.6c6.3,8.8,14.3,17.1,22.5,17.1h114c33.6,0,35.9-14.6,35.9-14.6
							H579l46.7-42.2v-33.3C625.7,376.3,612.6,372.2,592.7,338.2z"/>
						<path class="st0" d="M525.9,466.8h-114c-7,0-14.8-5.9-23.1-17.4l-0.7-1h23.3c3.7-32-6.5-57-28.9-70.6
							c-12.6-7.7-28.8-11.3-45.7-10.3c-16.6,1-32.6,6.4-46.4,15.7c-2,1.4-4.1,2.9-6.5,4.6l-1.8,1.3l0.7-2.1
							c7.1-19.9,31.4-66.3,104.9-66.3h69.4c6.8,0,7.6,8.8,7.6,15.4c0,8.5-7.2,17.7-28.3,36.4c-5.2,4.4-9.4,10-12.3,16.2
							c-2.9,6.2-4.3,13-4.3,19.9c0.4,13.2,7,25.2,19.2,34.8h82.5c7.4-2,14.2-5.9,19.7-11.2c9-8.4,19.7-24.9,19.7-55
							c0-58.2-15.2-110-15.4-110.5l-0.3-0.8h19.1l0.1,0.5c0,0.4,8.8,37.9,28.4,71.5c15.6,26.7,28.2,36.4,32.7,37.9l0.4,0.2v33.9
							l-47.2,42.6h-16.8c-1,2.9-2.9,5.4-5.4,7.2C550.4,464.4,540,466.9,525.9,466.8z M390.6,449.8c7.7,10.4,15,15.8,21.2,15.8h114.1
							c17,0,25.7-3.9,29.9-7.1c2.5-1.7,4.3-4.1,5.2-7v-0.6h17.6l46.3-41.9v-32.3c-2.5-1-15-7.5-33-38.2
							c-18.6-31.6-27.4-66.7-28.5-71.3h-16.2c2,6.9,15.2,55.7,15.2,110c0,17-3.6,40.4-20.2,56.1c-5.7,5.5-12.7,9.5-20.3,11.5h-83
							l-0.2-0.1c-12.6-9.8-19.5-22.2-19.8-35.9c-0.4-13.7,5.8-27.1,17-37c20.9-18.4,27.9-27.3,27.9-35.4c0-9.6-2-14.1-6.3-14.1H388
							c-70.2,0-95,42.7-103,63.3c1.6-1.2,3.2-2.3,4.7-3.3c14-9.4,30.2-14.9,47-16c17.1-1.1,33.6,2.7,46.4,10.5
							c23,14,33.4,39.7,29.4,72.5v0.6H390.6z"/>
						<path class="st0" d="M374.5,497.8c-8.4,8.4-19.5,13.7-31.4,14.9c-11.9,1.2-23.8-1.8-33.7-8.4c-9.9-6.6-17.2-16.5-20.7-27.9
							c-3.5-11.4-2.9-23.7,1.7-34.7c4.6-11,12.8-20.1,23.3-25.7c10.5-5.6,22.7-7.4,34.4-5.1c11.7,2.3,22.2,8.7,29.8,17.9
							c7.6,9.2,11.7,20.8,11.7,32.7c0,6.8-1.3,13.5-3.9,19.7C383.1,487.4,379.3,493.1,374.5,497.8z M356,443.5
							c-4.5-4.4-10.4-7-16.7-7.3c-6.3-0.3-12.4,1.8-17.3,5.8c-4.8,4-8,9.7-8.9,15.9c-0.9,6.2,0.5,12.6,4.1,17.8
							c3.5,5.2,8.8,8.9,14.9,10.4c6.1,1.5,12.6,0.7,18.1-2.3c5.5-3,9.8-7.9,11.9-13.8c2.1-5.9,1.9-12.4-0.5-18.2
							C360.2,448.6,358.4,445.8,356,443.5L356,443.5z"/>
						<path class="st0" d="M356.4,479.5c-4.2,4.2-9.7,6.9-15.7,7.5c-5.9,0.6-11.9-0.9-16.8-4.2c-5-3.3-8.6-8.2-10.4-13.9
							c-1.7-5.7-1.5-11.8,0.8-17.3c2.3-5.5,6.4-10.1,11.6-12.9c5.2-2.8,11.3-3.7,17.2-2.6c5.8,1.1,11.1,4.3,14.9,8.9
							c3.8,4.6,5.9,10.4,5.9,16.3c0,3.4-0.6,6.7-1.9,9.9C360.6,474.3,358.8,477.2,356.4,479.5z M350.2,449.3
							c-2.8-2.8-6.4-4.5-10.4-4.9c-3.9-0.4-7.9,0.6-11.1,2.8s-5.7,5.5-6.8,9.2c-1.1,3.8-0.9,7.8,0.6,11.5c1.5,3.6,4.2,6.6,7.7,8.5
							c3.5,1.8,7.5,2.4,11.3,1.6c2.5-0.5,4.8-1.5,6.8-3c2-1.5,3.7-3.4,4.8-5.7c1.2-2.2,1.8-4.7,1.9-7.2c0.1-2.5-0.3-5-1.3-7.3
							c-0.9-2.1-2.1-3.9-3.7-5.5H350.2z"/>
						<path class="st8" d="M356.7,480c-4.6,4.6-10.8,7.4-17.4,7.7c-6.5,0.3-13-1.8-18-6c-5.1-4.2-8.4-10-9.3-16.5
							c-1-6.5,0.5-13.1,4.2-18.5c3.6-5.4,9.2-9.3,15.5-10.9c6.3-1.6,13.1-0.8,18.8,2.3c5.8,3.1,10.2,8.2,12.4,14.4
							c2.2,6.2,2,12.9-0.5,19C361.1,474.6,359.2,477.5,356.7,480z M363.2,461.3c0-6-2.2-11.8-6.1-16.4c-3.9-4.6-9.4-7.6-15.3-8.5
							c-6-0.9-12,0.4-17.1,3.6s-8.9,8.2-10.6,13.9c-1.8,5.8-1.4,12,1.1,17.5c2.4,5.5,6.8,10,12.2,12.5c5.4,2.6,11.6,3.1,17.4,1.5
							c5.8-1.6,10.8-5.2,14.2-10.2C361.7,471.1,363.2,466.3,363.2,461.3z M355.7,461.3c0,4.3-1.5,8.4-4.3,11.7
							c-2.8,3.2-6.6,5.4-10.9,6s-8.5-0.3-12.2-2.5c-3.6-2.3-6.3-5.8-7.5-9.9c-1.2-4.1-1-8.5,0.7-12.4c1.7-3.9,4.8-7.1,8.7-8.9
							c3.9-1.8,8.3-2.2,12.4-1.1c4.1,1.1,7.7,3.7,10.1,7.3C354.7,454.4,355.7,457.8,355.7,461.3z"/>
						<path class="st0" d="M292.7,379.7c-2.3,1.5-4.4,3.1-6.5,4.6c-1.1,2.9-1.9,5.8-2.6,8.8v32h96.1c3.5,7.3,7.5,14.3,12.2,21h22.6
							C424.7,363,341.1,346.7,292.7,379.7z"/>
						<path class="st7" d="M290.2,382.7c-2.3,1.5-4.4,3.1-6.4,4.7c-41.5,31.4-37.5,61.7-37.5,61.7H412
							C422.1,365.9,338.5,349.7,290.2,382.7z"/>
						<path class="st8" d="M316.2,385.4l-16.1,16.7l9.1,0.6l-6.7,13.6l16.7-16.4l-8.6-0.9L316.2,385.4z"/>
						<path class="st0" d="M412.6,449.8h-167l-0.1-0.6c0-0.3-1-7.9,3.2-19.5c7-19.2,22.6-34.1,34.5-42.9c2.4-1.8,4.5-3.3,6.5-4.7
							c14-9.4,30.2-14.9,47-15.9c17.1-1.1,33.6,2.6,46.4,10.5c23,14,33.4,39.7,29.4,72.4L412.6,449.8z M246.9,448.4h164.6
							c3.7-32-6.5-57-28.9-70.6c-12.6-7.7-28.9-11.4-45.7-10.3c-16.6,1-32.6,6.4-46.4,15.6c-2,1.4-4.1,2.9-6.4,4.6
							c-11.7,9-27.2,23.4-34.1,42.3C247.7,435.9,246.6,442.2,246.9,448.4L246.9,448.4z"/>
						<path class="st7" d="M560.1,469.1c0,0-1.9-51.3,48.4-70.3c50.3-19,84.3,24.5,84.3,24.5s-9.8,17.9-33.7,15.7s-42.8-7-61.8,14.7
							C577.1,476.9,570.8,470.5,560.1,469.1z"/>
						<path class="st0" d="M571.8,471.7c-2.4-0.1-4.8-0.4-7.2-1c-1.5-0.4-3.1-0.7-4.7-0.9h-0.5v-0.6c0.1-9.7,1.9-19.3,5.4-28.3
							c3.7-9.8,9.5-18.8,17-26.1c7.5-7.4,16.5-13,26.4-16.5c10-3.9,20.7-5.4,31.4-4.5c10.7,0.9,21,4.2,30.2,9.7
							c8.9,5.1,16.8,11.7,23.5,19.5l0.3,0.3l-0.2,0.4c-0.1,0.2-10.3,18.3-34.3,16l-7.1-0.7c-20.8-2.3-37.3-4-54.1,15.2
							C585.4,468.5,578.1,471.7,571.8,471.7z M566,441.4c-3.4,8.7-5.2,17.9-5.4,27.2c1.5,0.2,2.9,0.5,4.2,0.8
							c8.1,1.8,15,3.2,31.9-16c17.3-19.7,34.9-17.9,55.2-15.7l7.1,0.7c21.2,2.1,31.2-12.4,32.8-15c-6.5-7.5-14.1-13.9-22.7-18.8
							c-9-5.4-19.2-8.6-29.6-9.5c-10.5-0.9-21,0.6-30.8,4.4c-9.7,3.4-18.6,9-26,16.2C575.3,423,569.6,431.7,566,441.4L566,441.4z"/>
						
							<linearGradient id="SVGID_1_" gradientUnits="userSpaceOnUse" x1="602.105" y1="9175.1787" x2="560.681" y2="9175.1787" gradientTransform="matrix(1 0 0 -1 23.6176 9430.2012)">
							<stop  offset="0" style="stop-color:#FFCF00;stop-opacity:0"/>
							<stop  offset="1" style="stop-color:#FFCF00;stop-opacity:0.8"/>
						</linearGradient>
						<path class="st9" d="M584.3,235v40.1l41.4,11v-62L584.3,235z"/>
						<path class="st0" d="M571.2,233.6v42.8c4.2,0.4,8.6,0.6,13.1,0.6v-44C579.8,233,575.4,233.2,571.2,233.6z"/>
						<path class="st7" d="M526.7,255c0,10.5,19,19.1,44.4,21.4v-42.8C545.7,235.9,526.7,244.6,526.7,255z"/>
						<path class="st0" d="M571.8,277.1h-0.7c-26.5-2.4-45-11.4-45-22.1c0-10.6,18.5-19.7,45-22h0.7V277.1z M570.5,234.3
							c-25.1,2.4-43.1,11.1-43.1,20.7s18.1,18.3,43.1,20.7V234.3z"/>
						<path class="st0" d="M355.3,330.5c-22.5,0,9.7-25.6,19.7-29.9c10-4.3,19,3.5,33.4,3.5h19.7c7,0,6.6-3.1,14.7-3.1
							c8.1,0,16.6,15,14.5,20.5c-2.1,5.5-3.9,9-3.9,9L355.3,330.5z"/>
						<path class="st0" d="M537.4,262.9c-1.4,0-2.9-0.4-4.1-1.2c-0.9-0.6-1.7-1.4-2.2-2.3c-0.6-0.9-0.9-2-1-3.1
							c-0.1-1.1,0-2.2,0.4-3.2c0.4-1,1-1.9,1.7-2.7c1-1,2.3-1.7,3.7-2c1.1-0.2,2.2-0.2,3.2,0.1c1.1,0.3,2,0.8,2.9,1.4
							c0.8,0.7,1.5,1.5,2,2.5c0.5,1,0.7,2,0.7,3.1c0,1.9-0.8,3.8-2.1,5.2c-0.7,0.7-1.5,1.2-2.4,1.6
							C539.4,262.7,538.4,262.9,537.4,262.9L537.4,262.9z"/>
						<path class="st0" d="M625.8,394.6c-7.5,1.3-14.7,3.6-21.5,6.8c-3.4,1.6-6.6,3.4-9.7,5.5c-6.2,4.1-11.7,9.2-16.4,15
							c-1.3,1.4-2.3,3-3.4,4.5l-1.5,2.3c-0.6,0.8-1.1,1.6-1.5,2.4c-3.9,6.5-7.1,13.4-9.8,20.5c1-7.7,3.4-15.2,6.8-22.2
							c3.5-7.1,8.3-13.4,14.1-18.8c5.8-5.3,12.7-9.5,20.1-12.3C610.2,395.5,618,394.2,625.8,394.6z"/>
						<path class="st0" d="M376.5,395.2h-34.9c-0.3,0-0.5-0.1-0.7-0.3c-0.2-0.2-0.3-0.5-0.3-0.8c0-0.3,0.1-0.5,0.3-0.8
							c0.2-0.2,0.4-0.3,0.7-0.3h34.9c0.1,0,0.3,0,0.4,0c0.1,0,0.3,0.1,0.4,0.2c0.1,0.1,0.2,0.2,0.3,0.4c0,0.1,0,0.3,0,0.4
							c0,0.1,0,0.3,0,0.4c-0.1,0.1-0.1,0.3-0.3,0.4c-0.1,0.1-0.2,0.2-0.4,0.2C376.8,395.1,376.7,395.2,376.5,395.2z"/>
						<path class="st0" d="M376.5,400.8h-34.9c-0.1,0-0.3,0-0.4-0.1c-0.1-0.1-0.2-0.1-0.3-0.3c-0.2-0.2-0.3-0.5-0.3-0.7
							c0-0.3,0.1-0.5,0.3-0.7c0.2-0.2,0.4-0.3,0.7-0.4h34.9c0.1,0,0.3,0,0.4,0c0.1,0.1,0.3,0.1,0.4,0.2c0.1,0.1,0.2,0.2,0.3,0.4
							c0.1,0.1,0.1,0.3,0.1,0.4c0,0.1,0,0.3,0,0.4c-0.1,0.1-0.1,0.3-0.3,0.4c-0.1,0.1-0.2,0.2-0.4,0.2
							C376.9,400.7,376.8,400.8,376.5,400.8L376.5,400.8z"/>
						<path class="st0" d="M376.5,406.5h-34.9c-0.3,0-0.6-0.1-0.8-0.3c-0.2-0.2-0.3-0.5-0.3-0.8c0-0.1,0-0.3,0.1-0.4
							c0.1-0.1,0.1-0.3,0.2-0.4c0.1-0.1,0.2-0.2,0.4-0.2c0.1,0,0.3,0,0.4,0h34.9c0.1,0,0.3,0,0.4,0c0.1,0.1,0.3,0.1,0.4,0.2
							c0.1,0.1,0.2,0.2,0.2,0.4c0,0.1,0,0.3,0,0.4c0,0.1,0,0.3,0,0.4c-0.1,0.1-0.1,0.3-0.2,0.4C377.1,406.4,376.8,406.5,376.5,406.5
							z"/>
						<g>
							<defs>
								<path id="SVGID_00000129918572906267036400000003476111742019066290_" d="M205.7,165.8h89.6c9.9,0,17.9,8,17.9,17.9v89.6
									c0,9.9-8,17.9-17.9,17.9h-89.6c-9.9,0-17.9-8-17.9-17.9v-89.6C187.8,173.8,195.8,165.8,205.7,165.8z"/>
							</defs>
							<clipPath id="SVGID_00000148647539868936562640000005838734646847651716_">
								<use xlink:href="#SVGID_00000129918572906267036400000003476111742019066290_"  style="overflow:visible;"/>
							</clipPath>
							<g style="clip-path:url(#SVGID_00000148647539868936562640000005838734646847651716_);">
								<path class="st28" d="M312.5,180.9c-0.6-3.9-2.7-7.4-5.7-10c-3.1-2.6-6.9-4-11-4l-89.8-0.5c-4.5,0-8.8,1.7-12,4.8
									c-3.2,3.1-5,7.3-5.1,11.7l-0.4,58.4l-0.2,32.2c0,4.4,1.7,8.6,4.9,11.8c3.2,3.1,7.5,4.9,12,4.9l89.8,0.5
									c4.5,0,8.8-1.7,12-4.8s5-7.3,5.1-11.7l0.6-90.6C312.7,182.6,312.6,181.8,312.5,180.9z"/>
								<path class="st0" d="M188.8,240.9c3.1,0.7,6.3,0.2,9-1.4c2.7-1.5,4.9-3.6,6.6-6.2c1.6-2.6,2.8-5.4,3.6-8.3
									c0.9-2.9,1.8-5.9,2.6-8.9c1.6-5.9,4.1-12.2,8.3-17.1c1-1.3,2.1-2.5,3.3-3.6c1.2-1.1,2.4-2.1,3.8-3.1c2.6-1.9,5.4-3.6,8.3-5
									c2.9-1.4,5.9-2.6,8.9-3.7c3-1,6.1-1.9,9.2-2.7c6.2-1.6,12.5-2.6,18.9-3c12.8-0.9,25.4,0.2,38,1.6c-12.7,0-25.3-0.3-37.8,1
									c-3.1,0.4-6.2,0.8-9.3,1.4c-3.1,0.6-6.1,1.3-9.1,2.1c-3,0.9-6,1.7-8.9,2.7c-2.9,1-5.8,2.2-8.5,3.6c-2.8,1.3-5.4,2.9-7.8,4.7
									c-1.2,0.9-2.4,1.8-3.5,2.9c-1.1,1-2.1,2.1-3.1,3.3c-1,1.1-1.9,2.4-2.7,3.6c-0.8,1.3-1.5,2.6-2.2,3.9
									c-1.3,2.7-2.4,5.6-3.3,8.5c-1,2.9-1.9,5.9-3.1,8.8c-1.1,3-2.5,5.9-4.4,8.5c-2,2.6-4.5,4.6-7.5,6c-1.5,0.7-3.1,1.1-4.7,1.2
									C191.9,241.7,190.3,241.5,188.8,240.9z"/>
								<path class="st8" d="M193.4,190.2c-0.2-2.4-0.1-4.8,0.1-7.2c0.2-2.5,0.9-4.9,2.1-7c1.3-2.3,3.4-4,5.9-5
									c2.4-0.9,5-1.3,7.5-1.3c9.8-0.2,19.4-0.2,29.2-0.2l14.6,0.2c4.9,0.1,9.7,0.2,14.6,0.4c9.7,0.3,19.4,0.7,29.1,1.5
									c-9.7,0.6-19.4,0.9-29.1,1.1c-4.9,0.1-9.7,0.1-14.6,0.2h-14.6l-14.6-0.2l-14.5-0.4c-2.3-0.1-4.6,0.2-6.8,0.8
									c-2.1,0.7-4,2-5.2,3.8c-0.6,0.9-1.2,1.9-1.6,3c-0.4,1.1-0.8,2.2-1,3.3C193.9,185.5,193.5,187.9,193.4,190.2z"/>
								<path class="st8" d="M194.3,273c0.5,2.2,1.6,4.1,3.2,5.6c1.6,1.5,3.5,2.6,5.5,3.3c4.1,1.4,8.6,1.4,13.2,1.4
									c4.5,0,9.1,0,13.6,0l13.6,0.1l13.6,0.2c4.5,0.1,9.1,0.1,13.7,0.3c9.1,0.2,18.2,0.5,27.4,1c-9.1,0.9-18.2,1.3-27.3,1.6
									c-4.5,0.2-9.1,0.2-13.7,0.3c-4.6,0.1-9.1,0-13.7,0c-9.1-0.1-18.2-0.3-27.4-0.8c-4.5-0.2-9.4-0.6-13.7-2.5
									c-2.2-1-4.1-2.4-5.6-4.2C195.2,277.4,194.3,275.2,194.3,273z"/>
								<path class="st11" d="M254.4,225.8c0.1,0.5,0.2,1,0.2,1.5c0,1.1-0.3,2.3-0.8,3.3c-0.6,1-1.4,1.8-2.3,2.5
									c-1,0.6-2.1,1-3.3,1.1s-2.3-0.1-3.4-0.6c-1.4-0.6-2.6-1.7-3.3-3.1l-6.8,2.4c0.7,1.6,1.7,3,3,4.3l9.1,8.9
									c0.1,0.1,0.3,0.2,0.5,0.3c0.2,0.1,0.3,0.1,0.5,0.1c0.2,0,0.4,0,0.5-0.1c0.2-0.1,0.3-0.2,0.4-0.3l9.1-8.9
									c1.8-1.8,3.1-4,3.7-6.4c0.6-2.4,0.6-5-0.1-7.4L254.4,225.8z"/>
								<path class="st11" d="M239.7,214.5c-0.1-0.4-0.2-0.7-0.2-1.1c0-0.4,0.1-0.8,0.3-1.1c0.2-0.3,0.4-0.6,0.7-0.9
									c0.3-0.3,0.6-0.5,1-0.6c0.4-0.1,0.7-0.2,1.1-0.2c0.4,0,0.8,0.1,1.1,0.3c0.3,0.2,0.7,0.4,0.9,0.7c0.3,0.3,0.5,0.6,0.6,1
									L239.7,214.5z"/>
								<path class="st11" d="M251.7,224.5c-2.5-6.2-6.1-9.9-8.3-9.9c-0.2,0-0.4,0-0.6,0.1c-1,0.4-1.7,2-1.8,4.4
									c0,2.9,0.5,5.9,1.5,8.7L251.7,224.5z"/>
								<path class="st11" d="M253.7,223.9l7.8-2.8l6.2-2.2c-0.1-0.4-0.4-0.8-0.7-1.1c-0.3-0.3-0.6-0.6-1-0.7
									c-0.4-0.2-0.8-0.3-1.2-0.3c-0.4,0-0.9,0-1.3,0.2l-4.8,1.7c-1.4-1.7-3.1-3-5.1-3.9s-4.2-1.4-6.4-1.3H246
									C248.8,215.1,251.6,218.8,253.7,223.9z"/>
								<path class="st11" d="M233.4,228c0,1,0.2,1.9,0.5,2.9l6.7-2.4c-1.3-4-2.2-8.5-1-12.6C235.4,218.6,233.2,223.3,233.4,228z"/>
							</g>
						</g>
						<path class="st243" d="M205.7,166.7h89.6c9.4,0,17,7.6,17,17v89.6c0,9.4-7.6,17-17,17h-89.6c-9.4,0-17-7.6-17-17v-89.6
							C188.7,174.3,196.3,166.7,205.7,166.7z"/>
						<path class="st0" d="M183,299.6h134c0.5,0,1.1-0.1,1.6-0.3c0.5-0.2,1-0.5,1.3-0.9c0.4-0.4,0.7-0.8,0.9-1.3
							c0.2-0.5,0.3-1,0.3-1.6c0-0.5-0.1-1.1-0.3-1.6c-0.2-0.5-0.5-1-0.9-1.3c-0.8-0.8-1.8-1.2-2.9-1.2H183c-1.1,0-2.2,0.4-2.9,1.2
							c-0.8,0.8-1.2,1.8-1.2,2.9c0,0.5,0.1,1.1,0.3,1.6c0.2,0.5,0.5,1,0.9,1.3c0.4,0.4,0.8,0.7,1.3,0.9
							C181.9,299.5,182.5,299.6,183,299.6z"/>
						<path class="st0" d="M234,299.6v20.4c0,0.7,0.2,1.3,0.7,1.9c0.4,0.5,1,0.9,1.7,1l29.9,4.9v-28.1h8V329l68.3,11.2
							c1.2-1.7,2.9-2.9,4.8-3.4c2-0.6,4-0.5,5.9,0.3c1.9,0.8,3.5,2.2,4.4,3.9c0.7,1.3,1.1,2.8,1.1,4.4c0,1.5-0.4,3-1.1,4.4
							c-0.7,1.3-1.8,2.5-3.1,3.3c-1.3,0.8-2.8,1.3-4.3,1.3c-2,0.1-4-0.5-5.7-1.7c-1.7-1.2-2.9-2.9-3.4-4.9L230.8,329
							c-1.3-0.2-2.5-0.9-3.4-2c-0.9-1-1.4-2.3-1.3-3.7v-23.8H234z"/>
						<path class="st7" d="M349.9,349.2c0.8,0,1.5-0.2,2.2-0.7c0.6-0.4,1.2-1.1,1.5-1.8c0.3-0.7,0.4-1.5,0.2-2.3
							c-0.2-0.8-0.5-1.5-1.1-2c-0.6-0.6-1.3-0.9-2-1.1c-0.8-0.2-1.6-0.1-2.3,0.2c-0.7,0.3-1.3,0.8-1.8,1.5c-0.4,0.7-0.7,1.4-0.7,2.2
							c0,0.5,0.1,1,0.3,1.5c0.2,0.5,0.5,0.9,0.9,1.3c0.4,0.4,0.8,0.7,1.3,0.9C348.9,349.1,349.4,349.2,349.9,349.2z"/>
					</g>
				</g>
				<g>
					<g>
						<g>
							<g>
								<g>
									<g>
										<path class="st7" d="M235,0.5H56.8c-20.6,0-37.4,16.8-37.4,37.4v438.9c0,20.6,16.8,37.4,37.4,37.4H235
											c20.6,0,37.4-16.8,37.4-37.4V37.9C272.5,17.3,255.6,0.5,235,0.5z"/>
										<path class="st0" d="M235,514.7H56.8c-20.9,0-37.9-17-37.9-37.9V37.9C18.9,17,35.9,0,56.8,0H235C255.9,0,273,17,273,37.9
											v438.9C273,497.7,255.9,514.7,235,514.7z M56.8,1C36.5,1,19.9,17.6,19.9,37.9v438.9c0,20.3,16.6,36.9,36.9,36.9H235
											c20.3,0,36.9-16.6,36.9-36.9V37.9C271.9,17.6,255.4,1,235,1H56.8z"/>
									</g>
									<path class="st8" d="M55,10c-14.6,0-26.4,12-26.4,26.8v431.7c0,14.8,11.8,26.8,26.4,26.8h181.9c14.6,0,26.4-12,26.4-26.8
										V36.9c0-14.8-11.8-26.8-26.4-26.8H55z"/>
									<path class="st45" d="M236.9,9.5h-23h-1.7H79.6h-4H55c-14.8,0-26.9,12.3-26.9,27.3v431.7c0,15,12.1,27.3,26.9,27.3h181.9
										c14.8,0,26.9-12.3,26.9-27.3V36.9C263.8,21.8,251.7,9.5,236.9,9.5z"/>
									<path class="st0" d="M236.9,496.4H55c-15.1,0-27.4-12.5-27.4-27.8V36.9C27.6,21.5,39.9,9,55,9h181.9
										c15.1,0,27.4,12.5,27.4,27.8v431.7C264.3,483.9,252,496.4,236.9,496.4z M55,10c-14.6,0-26.4,12-26.4,26.8v431.7
										c0,14.8,11.8,26.8,26.4,26.8h181.9c14.6,0,26.4-12,26.4-26.8V36.9c0-14.8-11.8-26.8-26.4-26.8H55z"/>
									<path class="st45" d="M236.9,9.5h-23h-1.7H79.6h-4H55c-14.8,0-26.9,12.3-26.9,27.3v431.7c0,15,12.1,27.3,26.9,27.3h181.9
										c14.8,0,26.9-12.3,26.9-27.3V36.9C263.8,21.8,251.7,9.5,236.9,9.5z"/>
									<g>
										<g>
											<g>
												<path class="st0" d="M47.2,30.1v-0.8c0.4,0,0.6,0,0.8-0.1c0.2-0.1,0.4-0.2,0.6-0.3c0.1-0.1,0.2-0.3,0.2-0.4
													c0-0.1,0-0.2,0-0.2l1,0v6.1h-1.2v-4.2L47.2,30.1z"/>
											</g>
											<g>
												<path class="st0" d="M51.5,30.1v-0.8c0.4,0,0.6,0,0.8-0.1c0.2-0.1,0.4-0.2,0.6-0.3c0.1-0.1,0.2-0.3,0.2-0.4
													c0-0.1,0-0.2,0-0.2l1,0v6.1h-1.2v-4.2H51.5z"/>
											</g>
											<g>
												<path class="st0" d="M56.6,29.9h1.3v1.3h-1.3V29.9z M56.6,33h1.3v1.3h-1.3V33z"/>
											</g>
											<g>
												<path class="st0" d="M59.1,30.1v-0.8c0.4,0,0.6,0,0.8-0.1c0.2-0.1,0.4-0.2,0.6-0.3c0.1-0.1,0.2-0.3,0.2-0.4
													c0-0.1,0-0.2,0-0.2l1,0v6.1h-1.2v-4.2H59.1z"/>
											</g>
											<g>
												<path class="st0" d="M63.4,30.1v-0.8c0.4,0,0.6,0,0.8-0.1c0.2-0.1,0.4-0.2,0.6-0.3c0.1-0.1,0.2-0.3,0.2-0.4
													c0-0.1,0-0.2,0-0.2l1,0v6.1h-1.2v-4.2L63.4,30.1z"/>
											</g>
										</g>
										<g>
											<g>
												<path class="st0" d="M206.7,34.9h-1.1c-0.2,0-0.3-0.2-0.3-0.3v-1.6c0-0.2,0.2-0.3,0.3-0.3h1.1c0.2,0,0.3,0.2,0.3,0.3
													v1.6C207,34.7,206.9,34.9,206.7,34.9z"/>
											</g>
											<g>
												<path class="st0" d="M209.5,34.9h-1.1c-0.2,0-0.3-0.2-0.3-0.3v-3c0-0.2,0.2-0.3,0.3-0.3h1.1c0.2,0,0.3,0.2,0.3,0.3v3
													C209.9,34.7,209.7,34.9,209.5,34.9z"/>
											</g>
											<g>
												<path class="st0" d="M212.4,34.9h-1.1c-0.2,0-0.3-0.2-0.3-0.3v-4.3c0-0.2,0.2-0.3,0.3-0.3h1.1c0.2,0,0.3,0.2,0.3,0.3
													v4.3C212.7,34.7,212.6,34.9,212.4,34.9z"/>
											</g>
											<g>
												<path class="st0" d="M215.2,34.9h-1.1c-0.2,0-0.3-0.2-0.3-0.3v-5.6c0-0.2,0.2-0.3,0.3-0.3h1.1c0.2,0,0.3,0.2,0.3,0.3
													v5.6C215.6,34.7,215.4,34.9,215.2,34.9z"/>
											</g>
										</g>
										<g>
											<path class="st0" d="M224.5,33.7c0,0.6-0.5,1.1-1.1,1.1c-0.6,0-1.1-0.5-1.1-1.1c0-0.6,0.5-1.1,1.1-1.1
												C224.1,32.7,224.5,33.1,224.5,33.7z"/>
										</g>
										<g>
											<g>
												<path class="st0" d="M225.5,32.4c-0.2,0-0.3-0.1-0.5-0.2c-0.8-0.8-2.2-0.8-3.1,0c-0.3,0.2-0.7,0.2-0.9,0
													c-0.2-0.3-0.2-0.7,0-0.9c0.7-0.7,1.5-1,2.4-1c0.9,0,1.8,0.4,2.4,1c0.3,0.3,0.3,0.7,0,0.9
													C225.8,32.3,225.6,32.4,225.5,32.4z"/>
											</g>
										</g>
										<g>
											<g>
												<path class="st0" d="M227.1,30.7c-0.2,0-0.3-0.1-0.5-0.2c-1.8-1.8-4.6-1.8-6.4,0c-0.3,0.2-0.7,0.2-0.9,0
													c-0.3-0.3-0.3-0.7,0-0.9c2.3-2.3,5.9-2.3,8.2,0c0.3,0.3,0.3,0.7,0,0.9C227.5,30.6,227.3,30.7,227.1,30.7z"/>
											</g>
										</g>
										<g>
											<g>
												<path class="st0" d="M241.6,33.7h-7.4c-1,0-1.9-0.9-1.9-1.9v-0.6c0-1,0.9-1.9,1.9-1.9h7.4c1,0,1.9,0.9,1.9,1.9v0.6
													C243.5,32.9,242.7,33.7,241.6,33.7z"/>
											</g>
											<g>
												<path class="st0" d="M243.9,30.4L243.9,30.4l-0.1,2.3h0.1c0.4,0,0.8-0.4,0.8-0.8v-0.7C244.7,30.7,244.3,30.4,243.9,30.4
													z"/>
											</g>
										</g>
									</g>
								</g>
							</g>
						</g>
					</g>
					<g>
						<g>
							<g>
								<g>
									<path class="st8" d="M238.6,87.9H53.3C47,87.9,42,82.8,42,76.5V53.7c0-6.3,5.1-11.4,11.4-11.4h185.2
										c6.3,0,11.4,5.1,11.4,11.4v22.8C249.9,82.8,244.8,87.9,238.6,87.9z"/>
								</g>
								<g>
									<path class="st0" d="M238.6,88.3H53.3c-6.5,0-11.8-5.3-11.8-11.8V53.7c0-6.5,5.3-11.8,11.8-11.8h185.2
										c6.5,0,11.8,5.3,11.8,11.8v22.8C250.3,83,245,88.3,238.6,88.3z M53.3,42.7c-6,0-11,4.9-11,11v22.8c0,6,4.9,11,11,11h185.2
										c6,0,11-4.9,11-11V53.7c0-6-4.9-11-11-11H53.3z"/>
								</g>
							</g>
							<g>
								<g>
									<g>
										<path class="st8" d="M78.2,60.8v8.8c0,1.6-1.3,3-2.9,3H64c-1.6,0-2.9-1.3-2.9-3v-8.8c0-1.6,1.3-3,2.9-3h11.3
											C76.9,57.8,78.2,59.1,78.2,60.8z"/>
									</g>
									<g>
										<path class="st0" d="M75.3,72.7H64c-1.7,0-3.1-1.4-3.1-3.1v-8.8c0-1.7,1.4-3.1,3.1-3.1h11.3c1.7,0,3.1,1.4,3.1,3.1v8.8
											C78.4,71.3,77,72.7,75.3,72.7z M64,58c-1.5,0-2.7,1.3-2.7,2.8v8.8c0,1.5,1.2,2.8,2.7,2.8h11.3c1.5,0,2.7-1.3,2.7-2.8v-8.8
											c0-1.5-1.2-2.8-2.7-2.8H64z"/>
									</g>
								</g>
								<g>
									<g>
										<path class="st28" d="M78.2,60.8v1.8H61.1v-1.8c0-1.6,1.3-3,2.9-3h11.3C76.9,57.8,78.2,59.1,78.2,60.8z"/>
									</g>
									<g>
										<path class="st0" d="M78.4,62.8H60.9v-2c0-1.7,1.4-3.1,3.1-3.1h11.3c1.7,0,3.1,1.4,3.1,3.1V62.8z M61.2,62.4H78v-1.6
											c0-1.5-1.2-2.8-2.7-2.8H64c-1.5,0-2.7,1.3-2.7,2.8V62.4z"/>
									</g>
								</g>
								<g>
									<g>
										<path class="st28" d="M65.5,59.5L65.5,59.5c-0.6,0-1.1-0.5-1.1-1.1v-2.1c0-0.6,0.5-1.1,1.1-1.1h0c0.6,0,1.1,0.5,1.1,1.1
											v2.1C66.7,59,66.1,59.5,65.5,59.5z"/>
									</g>
									<g>
										<path class="st0" d="M65.5,59.7L65.5,59.7c-0.7,0-1.3-0.6-1.3-1.3v-2.1c0-0.7,0.6-1.3,1.3-1.3c0.7,0,1.3,0.6,1.3,1.3v2.1
											C66.8,59.1,66.2,59.7,65.5,59.7z M65.5,55.4c-0.5,0-1,0.4-1,1v2.1c0,0.5,0.4,1,1,1h0c0.5,0,1-0.4,1-1v-2.1
											C66.5,55.8,66.1,55.4,65.5,55.4z"/>
									</g>
								</g>
								<g>
									<g>
										<path class="st28" d="M73.9,59.5L73.9,59.5c-0.6,0-1.1-0.5-1.1-1.1v-2.1c0-0.6,0.5-1.1,1.1-1.1h0c0.6,0,1.1,0.5,1.1,1.1
											v2.1C75,59,74.5,59.5,73.9,59.5z"/>
									</g>
									<g>
										<path class="st0" d="M73.9,59.7L73.9,59.7c-0.7,0-1.3-0.6-1.3-1.3v-2.1c0-0.7,0.6-1.3,1.3-1.3c0.7,0,1.3,0.6,1.3,1.3v2.1
											C75.2,59.1,74.6,59.7,73.9,59.7z M73.9,55.4c-0.5,0-1,0.4-1,1v2.1c0,0.5,0.4,1,1,1h0c0.5,0,1-0.4,1-1v-2.1
											C74.8,55.8,74.4,55.4,73.9,55.4z"/>
									</g>
								</g>
								<g>
									<g>
										<g>
											<ellipse class="st28" cx="65.3" cy="65.6" rx="0.9" ry="0.9"/>
										</g>
										<g>
											<path class="st0" d="M65.3,66.7c-0.6,0-1.1-0.5-1.1-1.1c0-0.6,0.5-1.1,1.1-1.1c0.6,0,1.1,0.5,1.1,1.1
												C66.4,66.2,65.9,66.7,65.3,66.7z M65.3,64.8c-0.4,0-0.7,0.3-0.7,0.8c0,0.4,0.3,0.8,0.7,0.8c0.4,0,0.7-0.3,0.7-0.8
												C66,65.1,65.7,64.8,65.3,64.8z"/>
										</g>
									</g>
									<g>
										<g>
											<ellipse class="st28" cx="65.3" cy="69.1" rx="0.9" ry="0.9"/>
										</g>
										<g>
											<path class="st0" d="M65.3,70.2c-0.6,0-1.1-0.5-1.1-1.1c0-0.6,0.5-1.1,1.1-1.1c0.6,0,1.1,0.5,1.1,1.1
												C66.4,69.7,65.9,70.2,65.3,70.2z M65.3,68.3c-0.4,0-0.7,0.3-0.7,0.8s0.3,0.8,0.7,0.8c0.4,0,0.7-0.3,0.7-0.8
												S65.7,68.3,65.3,68.3z"/>
										</g>
									</g>
									<g>
										<g>
											<ellipse class="st28" cx="69.6" cy="65.6" rx="0.9" ry="0.9"/>
										</g>
										<g>
											<path class="st0" d="M69.6,66.7c-0.6,0-1.1-0.5-1.1-1.1c0-0.6,0.5-1.1,1.1-1.1c0.6,0,1.1,0.5,1.1,1.1
												C70.7,66.2,70.2,66.7,69.6,66.7z M69.6,64.8c-0.4,0-0.7,0.3-0.7,0.8c0,0.4,0.3,0.8,0.7,0.8c0.4,0,0.7-0.3,0.7-0.8
												C70.4,65.1,70,64.8,69.6,64.8z"/>
										</g>
									</g>
									<g>
										<g>
											<ellipse class="st28" cx="69.6" cy="69.1" rx="0.9" ry="0.9"/>
										</g>
										<g>
											<path class="st0" d="M69.6,70.2c-0.6,0-1.1-0.5-1.1-1.1c0-0.6,0.5-1.1,1.1-1.1c0.6,0,1.1,0.5,1.1,1.1
												C70.7,69.7,70.2,70.2,69.6,70.2z M69.6,68.3c-0.4,0-0.7,0.3-0.7,0.8s0.3,0.8,0.7,0.8c0.4,0,0.7-0.3,0.7-0.8
												S70,68.3,69.6,68.3z"/>
										</g>
									</g>
									<g>
										<g>
											<ellipse class="st28" cx="73.9" cy="65.6" rx="0.9" ry="0.9"/>
										</g>
										<g>
											<path class="st0" d="M73.9,66.7c-0.6,0-1.1-0.5-1.1-1.1c0-0.6,0.5-1.1,1.1-1.1c0.6,0,1.1,0.5,1.1,1.1
												C75,66.2,74.5,66.7,73.9,66.7z M73.9,64.8c-0.4,0-0.7,0.3-0.7,0.8c0,0.4,0.3,0.8,0.7,0.8c0.4,0,0.7-0.3,0.7-0.8
												C74.6,65.1,74.3,64.8,73.9,64.8z"/>
										</g>
									</g>
									<g>
										<g>
											<ellipse class="st28" cx="73.9" cy="69.1" rx="0.9" ry="0.9"/>
										</g>
										<g>
											<path class="st0" d="M73.9,70.2c-0.6,0-1.1-0.5-1.1-1.1c0-0.6,0.5-1.1,1.1-1.1c0.6,0,1.1,0.5,1.1,1.1
												C75,69.7,74.5,70.2,73.9,70.2z M73.9,68.3c-0.4,0-0.7,0.3-0.7,0.8s0.3,0.8,0.7,0.8c0.4,0,0.7-0.3,0.7-0.8
												S74.3,68.3,73.9,68.3z"/>
										</g>
									</g>
								</g>
							</g>
							<text transform="matrix(1 0 0 1 82.0488 69.9542)" class="st0 st244 st245">Create New Schedule</text>
						</g>
					</g>
				</g>
			</g>
			<g>
				<g>
					<path class="st246" d="M375.3,510.8c0-2.3,3-5.5,6.5-7.2l25.4-11.3c0.7-0.3,1.4-0.5,2.2-0.4c4.1,0,5.4-0.1,9-0.1
						c1.5,0,2.9,0.6,3.8,1.7c3.5,4,5.2,9,4.8,13.7c-0.2,2.7-2.5,4.7-5.2,4.7l-46.6-0.1C375.3,511.5,375.3,511.1,375.3,510.8z"/>
				</g>
				<path class="st0" d="M448.1,290.6l-44.1,0c-3.8,16.5-22.3,86.1-24,108.3c-1.6,20.6,10,34.3,19.9,95.6h23.5
					c0-29.8-0.6-64.4-13.1-92.7c15-27.4,32.6-61.6,37.6-87.4L448.1,290.6z"/>
				<g>
					<path class="st246" d="M445.3,514.7c-2.7,0-4.9-2.3-4.6-5c1.1-13.5,6.8-23.8,13.7-23.8c6.8,0,12.5,10.3,13.7,23.8
						c0.2,2.7-1.9,5-4.6,5H445.3z"/>
				</g>
				<path class="st0" d="M477,285.7c0.8,6,6.3,27.5,6.3,66.2c0,49.4-8.7,97.1-16.2,142.6h-26.6c7.6-99.7-5.3-124.2,0-176.4
					l-0.3-27.5L477,285.7z"/>
				<path class="st247" d="M497.3,223.9c3.1-1.2,6.2-2.4,9.3-3.6c-3.2-8.2-6.4-16.4-9.6-24.7c-1.5-3.9-3.6-6.9-6-9.1
					c-7.2-8-27.2-13.7-50.8-13.7c-25.2,0-46.4,6.6-52.1,15.4c-1.7,1.9-3.2,4.4-4.3,7.4c-3.2,8.2-6.4,16.4-9.6,24.7
					c4.3,1.7,8.6,3.4,13,5c4.2,1.6,8.3,3.2,12.5,4.9c0.8,18.3,0.3,36.7-1.6,55c-0.7,6.4-1.5,12.8-2.5,19.2c29.7,7.7,59.5,7.7,89.2,0
					c-0.8-5.2-1.5-10.5-2.1-15.7c-2.2-19.5-2.9-38.9-2-58.4C486.3,228.2,491.8,226,497.3,223.9z"/>
				<path class="st11" d="M465.7,214.2c0.1,0.3,0.1,0.6,0.1,0.9c0,0.9-0.3,1.8-0.9,2.5c-0.6,0.7-1.4,1.2-2.3,1.5
					c-0.9,0.2-1.8,0.1-2.7-0.3c-0.8-0.4-1.5-1-1.9-1.8l-4,1.5c0.4,1,1,1.8,1.8,2.6l5.4,5.3c0.1,0.1,0.2,0.1,0.3,0.2
					c0.1,0,0.2,0.1,0.3,0.1c0.1,0,0.2,0,0.3-0.1c0.1,0,0.2-0.1,0.3-0.2l5.4-5.3c1.1-1.1,1.8-2.4,2.2-3.9c0.4-1.5,0.3-3-0.1-4.4
					L465.7,214.2z"/>
				<path class="st11" d="M457,207.4c-0.1-0.2-0.1-0.4-0.1-0.7c0-0.2,0.1-0.4,0.2-0.7c0.1-0.2,0.2-0.4,0.4-0.5
					c0.2-0.2,0.4-0.3,0.6-0.3c0.2-0.1,0.4-0.1,0.7-0.1c0.2,0,0.4,0.1,0.7,0.2c0.2,0.1,0.4,0.2,0.5,0.4c0.2,0.2,0.3,0.4,0.3,0.6
					L457,207.4z"/>
				<path class="st11" d="M464.1,213.4c-1.5-3.7-3.6-5.9-4.9-5.9c-0.1,0-0.2,0-0.3,0c-0.6,0.2-1,1.2-1.1,2.7c0,1.8,0.3,3.5,0.9,5.2
					L464.1,213.4z"/>
				<path class="st11" d="M465.3,213l4.6-1.7l3.7-1.3c-0.1-0.2-0.2-0.5-0.4-0.6c-0.2-0.2-0.4-0.3-0.6-0.4c-0.2-0.1-0.5-0.2-0.7-0.2
					c-0.3,0-0.5,0-0.7,0.1l-2.8,1c-0.8-1-1.8-1.8-3-2.4c-1.2-0.5-2.5-0.8-3.7-0.8h-0.3H461h-0.2C462.4,207.7,464.1,210,465.3,213z"
					/>
				<path class="st11" d="M453.3,215.5c0,0.6,0.1,1.2,0.3,1.7l4-1.4c-0.8-2.4-1.3-5.1-0.6-7.6C454.5,209.8,453.2,212.7,453.3,215.5z
					"/>
				<path class="st0" d="M456.8,173.1c5.7,7.9,21.6,74.5,25,110.2c5.1-32.8-4-99.5-9.7-107.4L456.8,173.1z"/>
				<path class="st0" d="M424.1,173.1c-5.7,7.9-21.6,74.5-25,110.2c-5.1-32.8,4-99.5,9.7-107.4L424.1,173.1z"/>
				<path class="st246" d="M421.2,277.2c-0.7,0-1.4-0.5-1.7-1.2c-1.2-3.6,2.2-8.9,6.2-11.3c1.5-0.9,3.3-1.6,5.1-2.3
					c1.6-0.6,3.3-1.3,4.4-2c0.8-0.5,1.9-0.2,2.5,0.6c0.5,0.8,0.2,1.9-0.6,2.5c-1.4,0.9-3.2,1.6-5,2.2c-1.7,0.6-3.4,1.3-4.6,2
					c-3.1,1.9-5.1,5.8-4.7,7.1c0.3,0.9-0.2,2-1.1,2.3C421.5,277.1,421.3,277.2,421.2,277.2z"/>
				<path class="st58" d="M456.5,284.3c0.2,1-0.5,1.9-1.5,1.9h-21.6c-1,0-2-0.8-2.2-1.9l-7.2-42.5c-0.2-1,0.5-1.9,1.6-1.9H447
					c1,0,2,0.8,2.2,1.9L456.5,284.3z"/>
				<path class="st246" d="M504.2,221.2l-21.7,8c0,0,3.7,14.4,8.4,30.4c-8.4,5.6-25,11.8-41.6,11.9l1.3,11.2
					c19.1,3.7,62.8,1.2,62.6-13.1C513.1,248.8,512.8,239.5,504.2,221.2z"/>
				<path class="st0" d="M455,287.4c0.2,1-0.5,1.9-1.5,1.9h-21.6c-1,0-2-0.8-2.2-1.9l-7.2-42.5c-0.2-1,0.5-1.9,1.6-1.9h21.6
					c1,0,2,0.8,2.2,1.9L455,287.4z"/>
				<path class="st246" d="M444.2,271.3c-2.2-2.1-18.2-1.1-23.2-1.4c-0.1,0.3-0.2,0.6-0.3,0.8c-12.9-1.8-24.9-6.7-31.6-11.1
					c5.2-17.1,8.5-30.3,8.5-30.3l-22-8.6c-8.6,18.3-8.7,28-8.9,48.8c-0.1,13,35.8,16.3,56.8,14c1.5,1.1,12,0.3,13.6-1.2
					C437.2,282.4,445,271.9,444.2,271.3z"/>
				<path class="st246" d="M440.3,184.6c-5.9,0-10.7-4.8-10.7-10.7v-25.2c0-5.9,4.8-10.7,10.7-10.7c5.9,0,10.7,4.8,10.7,10.7v25.2
					C451,179.8,446.2,184.6,440.3,184.6z"/>
				<path class="st0" d="M444.6,159.9c5.8,5.6,8.1,12.6,5.1,15.7c-3,3.1-10.1,1.2-15.9-4.4c-5.8-5.6-8.1-12.6-5.1-15.7
					C431.7,152.4,438.8,154.3,444.6,159.9z"/>
				<path class="st246" d="M465.9,138.8c0,17.5-11.5,31.7-25.6,31.7s-25.6-14.2-25.6-31.7c0-17.5,11.5-31.7,25.6-31.7
					S465.9,121.3,465.9,138.8z"/>
				<path class="st0" d="M427.3,107.1c-16.4-10-16.5,21-14.6,28.3c1.7,6.7,5.4,11.5,5.7,1.5c0.3-10,6.9-17,15.2-19.7H447
					c8.3,2.7,14.9,9.7,15.2,19.7c0.3,10,4,5.3,5.7-1.5c1.9-7.2,1.8-27.6-10-28.3H427.3z"/>
				<path class="st59" d="M460.8,121.4c-4.4,6.8-15.5,7.4-24.8,1.3c-9.3-6-13.2-16.4-8.8-23.2c4.4-6.8,15.5-7.4,24.8-1.3
					C461.3,104.2,465.2,114.6,460.8,121.4z"/>
				<path class="st247" d="M410.8,124.4c0-19.7,13.4-34.2,29.7-33.1c16.2-0.8,29.4,13.4,29.1,33.1
					C451.2,114.8,429.4,115.2,410.8,124.4z"/>
				<path class="st247" d="M415.6,122.3c15.5-7.9,33.9-7.9,49.4,0c0,3.2,0,5.1,0,8.4c0,2-1.5,2.8-3.4,2c-13.6-5.8-29-5.8-42.5,0
					c-1.9,0.8-3.4,0-3.4-2C415.6,127.5,415.6,125.6,415.6,122.3z"/>
			</g>
		</g>
		<g>
			<path class="st248" d="M55,101.8c-14.6,0-26.4,12-26.4,26.8v340.1c0,14.8,11.8,26.8,26.4,26.8h181.9c14.6,0,26.4-12,26.4-26.8
				V128.6c0-14.8-11.8-26.8-26.4-26.8H55z"/>
			<g>
				<text transform="matrix(1 0 0 1 38.1782 131.9259)" class="st0 st244 st249">Schedule this pickup.</text>
				<text transform="matrix(1 0 0 1 216.4836 131.9259)" class="st11 st244 st249">Today</text>
			</g>
			<g>
				<path class="st0" d="M43.7,173.6l8.6,4.9c0.7,0.4,1.5-0.1,1.5-0.9v-9.9c0-0.8-0.9-1.3-1.5-0.9l-8.6,4.9
					C43,172.2,43,173.2,43.7,173.6z"/>
				<path class="st0" d="M248.1,171.8l-8.6-4.9c-0.7-0.4-1.5,0.1-1.5,0.9v9.9c0,0.8,0.9,1.3,1.5,0.9l8.6-4.9
					C248.8,173.2,248.8,172.2,248.1,171.8z"/>
				<g>
					<text transform="matrix(1 0 0 1 134.2767 187.9815)" class="st0 st250 st251">Avril</text>
					<text transform="matrix(1 0 0 1 123.0283 173.1046)" class="st244 st252">2024</text>
				</g>
			</g>
			<g>
				<text transform="matrix(1 0 0 1 45.7261 222.1915)" class="st244 st253">1</text>
				<text transform="matrix(1 0 0 1 77.2714 222.1915)" class="st244 st253">2</text>
				<text transform="matrix(1 0 0 1 109.7035 222.1915)" class="st244 st253">3</text>
				<text transform="matrix(1 0 0 1 142.0552 222.1915)" class="st244 st253">4</text>
				<text transform="matrix(1 0 0 1 174.5663 222.1915)" class="st244 st253">5</text>
				<text transform="matrix(1 0 0 1 206.7831 222.1915)" class="st244 st253">6</text>
				<text transform="matrix(1 0 0 1 239.7438 222.1915)" class="st244 st253">7</text>
				<text transform="matrix(1 0 0 1 44.5142 253.6065)" class="st244 st253">8</text>
				<text transform="matrix(1 0 0 1 76.933 253.6065)" class="st244 st253">9</text>
				<text transform="matrix(1 0 0 1 107.0581 253.6065)" class="st244 st253">10</text>
				<text transform="matrix(1 0 0 1 140.7633 253.6065)" class="st244 st253">11</text>
				<text transform="matrix(1 0 0 1 172.3085 253.6065)" class="st244 st253">12</text>
				<text transform="matrix(1 0 0 1 204.7406 253.6065)" class="st244 st253">13</text>
				<text transform="matrix(1 0 0 1 237.0923 253.6065)" class="st244 st253">14</text>
				<text transform="matrix(1 0 0 1 42.3671 285.0216)" class="st244 st253">15</text>
				<text transform="matrix(1 0 0 1 74.5829 285.0216)" class="st244 st253">16</text>
				<text transform="matrix(1 0 0 1 107.5442 285.0216)" class="st244 st253">17</text>
				<circle class="st28" cx="146.1" cy="281.2" r="9.6"/>
				<text transform="matrix(1 0 0 1 139.5513 285.0216)" class="st244 st253">18</text>
				<text transform="matrix(1 0 0 1 171.9701 285.0216)" class="st244 st253">19</text>
				<text transform="matrix(1 0 0 1 203.5286 285.0216)" class="st244 st253">20</text>
				<text transform="matrix(1 0 0 1 237.2338 285.0216)" class="st244 st253">21</text>
				<text transform="matrix(1 0 0 1 41.5427 316.4376)" class="st244 st253">22</text>
				<text transform="matrix(1 0 0 1 73.9739 316.4376)" class="st244 st253">23</text>
				<text transform="matrix(1 0 0 1 106.3261 316.4376)" class="st244 st253">24</text>
				<text transform="matrix(1 0 0 1 138.8376 316.4376)" class="st244 st253">25</text>
				<text transform="matrix(1 0 0 1 171.0533 316.4376)" class="st244 st253">26</text>
				<text transform="matrix(1 0 0 1 204.0146 316.4376)" class="st244 st253">27</text>
				<text transform="matrix(1 0 0 1 236.0217 316.4376)" class="st244 st253">28</text>
				<text transform="matrix(1 0 0 1 41.2042 347.8526)" class="st244 st253">29</text>
				<text transform="matrix(1 0 0 1 73.6477 347.8526)" class="st244 st253">30</text>
				<text transform="matrix(1 0 0 1 107.3534 347.8526)" class="st244 st253">31</text>
			</g>
			<g>
				<g>
					<text transform="matrix(1 0 0 1 41.2051 380.3048)" class="st0 st244 st254">Choose a time that suits you!</text>
					<path class="st255" d="M237.4,418.7H48.9c-4.3,0-7.7-3.5-7.7-7.7v-16.4c0-4.3,3.5-7.7,7.7-7.7h188.5c4.3,0,7.7,3.5,7.7,7.7
						v16.4C245.1,415.2,241.7,418.7,237.4,418.7z"/>
					<text transform="matrix(1 0 0 1 47.0322 407.8849)" class="st0 st244 st256">HH:MM</text>
					<circle class="st257" cx="228" cy="403.1" r="8"/>
					<polyline class="st258" points="228,398.2 228,403.1 232.3,403.1 					"/>
				</g>
			</g>
			<g>
				<g>
					<path class="st28" d="M237.4,471.6H48.9c-4.3,0-7.7-3.5-7.7-7.7v-16.4c0-4.3,3.5-7.7,7.7-7.7h188.5c4.3,0,7.7,3.5,7.7,7.7v16.4
						C245.1,468.1,241.7,471.6,237.4,471.6z"/>
					<text transform="matrix(1 0 0 1 127.23 460.8009)" class="st0 st244 st256">Save</text>
				</g>
			</g>
		</g>
	</g>
</g>
<g id="More">
</g>
<g id="Become_A_Courier">
</g>
<g id="About_us">
</g>
<g id="Contact_US">
</g>
<g id="Layer_13">
</g>
</svg>
