<?xml version="1.0" encoding="utf-8"?>
<!-- Generator: Adobe Illustrator 26.0.1, SVG Export Plug-In . SVG Version: 6.00 Build 0)  -->
<svg version="1.1" xmlns="http://www.w3.org/2000/svg" xmlns:xlink="http://www.w3.org/1999/xlink" x="0px" y="0px"
	 viewBox="0 0 801.2 520.5" style="enable-background:new 0 0 801.2 520.5;" xml:space="preserve">
<style type="text/css">
	.st0{fill:#131314;}
	.st1{fill:#F7F5DD;stroke:#131314;stroke-width:0.8581;stroke-miterlimit:10;}
	.st2{fill:#131314;stroke:#F7F5DD;stroke-width:0.3547;stroke-miterlimit:10;}
	.st3{fill:#FFC72B;stroke:#131314;stroke-width:0.8581;stroke-linecap:round;stroke-linejoin:round;stroke-miterlimit:10;}
	.st4{fill:none;stroke:#131314;stroke-width:0.8581;stroke-miterlimit:10;}
	.st5{fill:#131314;stroke:#F7F5DD;stroke-width:0.389;stroke-miterlimit:10;}
	.st6{fill:#FF0058;stroke:#131314;stroke-width:1.7191;stroke-miterlimit:10;}
	.st7{fill:#FFC72B;}
	.st8{fill:#F7F5DD;}
	.st9{fill:url(#SVGID_1_);}
	.st10{fill:#FFE092;}
	.st11{fill:#FF0058;}
	.st12{fill:#FFFFFF;filter:url(#Adobe_OpacityMaskFilter);}
	.st13{mask:url(#mask4_744_2018_00000183221484926765621670000012565967078459250105_);}
	.st14{fill:#FFC72B;stroke:#131314;stroke-width:0.8581;stroke-miterlimit:10;}
	.st15{fill:url(#SVGID_00000065072412301794173180000004103465244305612684_);}
	.st16{clip-path:url(#SVGID_00000132065939402821074230000011761150837867894674_);}
	.st17{fill:#FFC72C;stroke:#131314;stroke-width:0.1032;stroke-miterlimit:10;}
	.st18{clip-path:url(#SVGID_00000057848701948329638190000000509762170793775514_);}
	.st19{fill:#DD9F14;}
	.st20{fill:none;stroke:#131314;stroke-width:2;stroke-miterlimit:10;}
	.st21{clip-path:url(#SVGID_00000124861777569661479780000007584614912173449872_);}
	.st22{fill:#F7F5DD;stroke:#131314;stroke-miterlimit:10;}
	.st23{fill:#131314;stroke:#131314;stroke-miterlimit:10;}
	.st24{fill:#FF0058;stroke:#131314;stroke-miterlimit:10;}
	.st25{opacity:0.1;fill:url(#SVGID_00000073695940696293064670000014123116342450895033_);enable-background:new    ;}
	.st26{opacity:0.4;}
	.st27{fill:none;stroke:#131314;stroke-miterlimit:10;}
	.st28{fill:#FFC72C;}
	.st29{fill:none;stroke:#131314;stroke-width:0.931;stroke-miterlimit:10;}
	.st30{fill:url(#SVGID_00000092417502837900501790000017338641290371891871_);}
	.st31{clip-path:url(#SVGID_00000129184861698522729790000008179502520314842013_);}
	.st32{fill:none;stroke:#131314;stroke-width:0.7836;}
	.st33{fill:#FF0058;stroke:#131314;stroke-width:0.931;stroke-miterlimit:10;}
	.st34{opacity:0.78;fill:#FFFFFF;}
	.st35{fill:#F7F5DD;stroke:#131314;stroke-width:1.3965;stroke-miterlimit:10;}
	.st36{fill:#FFC72B;stroke:#131314;stroke-width:0.931;stroke-miterlimit:10;}
	.st37{fill:#E7B67B;}
	.st38{fill:#FFC72C;stroke:#231F20;stroke-width:0.3724;stroke-linecap:round;stroke-linejoin:round;}
	.st39{fill:none;stroke:#F7F5DD;stroke-width:1.862;stroke-linecap:round;stroke-linejoin:round;stroke-miterlimit:10;}
	.st40{fill:none;stroke:#F7F5DD;stroke-width:0.931;stroke-linecap:round;stroke-linejoin:round;stroke-miterlimit:10;}
	.st41{fill:none;stroke:#FF0058;stroke-width:0.931;stroke-miterlimit:10;}
	.st42{fill:none;stroke:#FF0058;stroke-width:0.931;stroke-linecap:round;stroke-linejoin:round;stroke-miterlimit:10;}
	.st43{fill:none;stroke:#131314;stroke-width:0.931;stroke-linecap:round;stroke-linejoin:round;stroke-miterlimit:10;}
	.st44{fill:none;stroke:#000000;stroke-width:0.931;stroke-miterlimit:10;}
	.st45{fill:none;}
	.st46{fill:#FFC72C;stroke:#000000;stroke-width:0.8449;stroke-miterlimit:10;}
	.st47{clip-path:url(#SVGID_00000076576771991535188220000006192213361013169320_);fill:#F4B821;}
	.st48{clip-path:url(#SVGID_00000076576771991535188220000006192213361013169320_);fill:#FF0058;}
	.st49{clip-path:url(#SVGID_00000085215588689679771640000016802262447551827632_);fill:#F4B821;}
	.st50{clip-path:url(#SVGID_00000085215588689679771640000016802262447551827632_);fill:#FF0058;}
	.st51{fill:#FE0058;}
	.st52{fill:#FFF8FB;}
	.st53{fill:#F7F5DD;stroke:#000000;stroke-width:1.2859;stroke-miterlimit:10;}
	.st54{fill:url(#SVGID_00000147906492187782048330000004830996616572018105_);}
	.st55{clip-path:url(#SVGID_00000142135745807043261160000015829369270860497084_);}
	.st56{fill:none;stroke:#131314;stroke-width:1.4798;}
	.st57{fill:#FFC72B;stroke:#131314;stroke-width:1.0065;stroke-miterlimit:10;}
	.st58{fill:#DD225C;}
	.st59{fill:#67300F;}
	.st60{fill:#FFC72C;stroke:#231F20;stroke-width:0.4026;stroke-linecap:round;stroke-linejoin:round;}
	.st61{fill:#FFB703;}
	.st62{clip-path:url(#SVGID_00000093883399613551310060000000765752731934218674_);}
	.st63{fill:url(#SVGID_00000063614634057817936070000018062040308950088577_);}
	.st64{clip-path:url(#SVGID_00000103249149170827204220000003330267785676415135_);}
	.st65{fill:none;stroke:#131314;stroke-width:1.5895;}
	.st66{font-family:'BCNovaticaCYR-Medium';}
	.st67{font-size:10.2618px;}
	.st68{fill:#FFFFFF;filter:url(#Adobe_OpacityMaskFilter_00000132789042082440218030000006184046880278803634_);}
	.st69{mask:url(#mask4_744_2018_00000150814286955539578320000013805391622432084355_);}
	.st70{fill:#FFC72B;stroke:#131314;stroke-width:0.97;stroke-miterlimit:10;}
	.st71{fill:url(#SVGID_00000107577206767130183010000012256796210397350791_);}
	.st72{clip-path:url(#SVGID_00000000184417736905962310000006023001973553979270_);}
	.st73{fill:#FFC72C;stroke:#131314;stroke-width:0.1166;stroke-miterlimit:10;}
	.st74{opacity:0.14;clip-path:url(#XMLID_00000117643790183028703100000012261460458149371022_);fill:#F7F5DD;}
	.st75{opacity:0.14;clip-path:url(#XMLID_00000167382164561456893110000015950662979589317050_);fill:#F7F5DD;}
	.st76{opacity:0.14;clip-path:url(#XMLID_00000092421963859458207470000000551885782058788779_);fill:#F7F5DD;}
	.st77{fill:none;stroke:#131314;stroke-width:0.7289;stroke-miterlimit:10;}
	.st78{fill-rule:evenodd;clip-rule:evenodd;fill:#F7F5DD;stroke:#231F20;stroke-width:0.5758;stroke-miterlimit:10;}
	.st79{fill:#FFC72C;stroke:#231F20;stroke-width:0.2915;stroke-linecap:round;stroke-linejoin:round;}
	.st80{fill:#EBD8D1;}
	.st81{fill:#FFC72B;stroke:#131314;stroke-width:0.7289;stroke-miterlimit:10;}
	.st82{fill:#FFC72B;stroke:#131314;stroke-width:1.0933;stroke-miterlimit:10;}
	.st83{fill:#FDBAA7;}
	.st84{fill:#F7F5DD;stroke:#131314;stroke-width:0.7289;stroke-miterlimit:10;}
	.st85{opacity:0.5;fill:#FCC0B1;}
	.st86{fill:#F7F5DD;stroke:#131314;stroke-width:1.0933;stroke-miterlimit:10;}
	.st87{fill:#843636;}
	.st88{opacity:0.7;}
	.st89{fill:#853536;}
	.st90{fill:#E0A9A0;}
	.st91{fill:none;stroke:#F7F5DD;stroke-width:1.4577;stroke-linecap:round;stroke-linejoin:round;stroke-miterlimit:10;}
	.st92{fill:none;stroke:#F7F5DD;stroke-width:0.7289;stroke-linecap:round;stroke-linejoin:round;stroke-miterlimit:10;}
	.st93{fill:none;stroke:#FF0058;stroke-width:0.7289;stroke-miterlimit:10;}
	.st94{fill:none;stroke:#FF0058;stroke-width:0.7289;stroke-linecap:round;stroke-linejoin:round;stroke-miterlimit:10;}
	.st95{fill:none;stroke:#131314;stroke-width:0.7289;stroke-linecap:round;stroke-linejoin:round;stroke-miterlimit:10;}
	.st96{fill:none;stroke:#000000;stroke-width:0.7289;stroke-miterlimit:10;}
	.st97{opacity:0.6;fill:#F7F5DD;enable-background:new    ;}
	.st98{opacity:0.4;fill:#F7F5DD;enable-background:new    ;}
	.st99{opacity:0.2;fill:#F7F5DD;enable-background:new    ;}
	.st100{fill:#F7F5DD;stroke:#131314;stroke-width:1.0398;stroke-miterlimit:10;}
	.st101{fill:url(#SVGID_00000063621698209278224510000002651436978808946598_);}
	.st102{clip-path:url(#SVGID_00000069395067050775622620000000600666389659930005_);}
	.st103{fill:none;stroke:#131314;stroke-width:1.396;}
	.st104{fill:#FFFFFF;stroke:#070405;stroke-width:1.0001;stroke-miterlimit:10;}
	.st105{fill:#FE0058;stroke:#000000;stroke-width:1.0001;stroke-miterlimit:10;}
	.st106{fill:#131314;stroke:#070405;stroke-width:1.0001;stroke-miterlimit:10;}
	.st107{fill:#F7F5DD;stroke:#070506;stroke-width:1.0001;stroke-miterlimit:10;}
	.st108{fill:#F7F5DD;stroke:#000000;stroke-width:1.0001;stroke-miterlimit:10;}
	.st109{fill:#131313;}
	.st110{fill:#101431;stroke:#0C0609;stroke-width:1.0001;stroke-miterlimit:10;}
	.st111{fill:#171F42;stroke:#0C0609;stroke-width:1.0001;stroke-miterlimit:10;}
	.st112{fill:none;stroke:#131314;stroke-width:1.63;stroke-linecap:round;stroke-linejoin:round;stroke-dasharray:10.2907,8.5737;}
	.st113{fill:#FFC72C;stroke:#131314;stroke-width:0.815;stroke-linecap:round;stroke-linejoin:round;stroke-miterlimit:10;}
	.st114{fill:#FFC72C;stroke:#131314;stroke-width:0.815;stroke-linecap:round;stroke-linejoin:round;}
	.st115{fill:none;stroke:#131314;stroke-width:0.9454;stroke-linecap:round;stroke-miterlimit:10;}
	.st116{fill:url(#SVGID_00000085944756134749516410000000721001674055884421_);}
	.st117{fill:#F7F5DD;stroke:#131314;stroke-width:1.0867;stroke-linecap:round;stroke-linejoin:round;stroke-miterlimit:10;}
	.st118{fill:none;stroke:#131314;stroke-width:1.0867;stroke-linecap:round;stroke-linejoin:round;stroke-miterlimit:10;}
	.st119{fill:#F7F5DD;stroke:#131314;stroke-width:2.0758;stroke-linecap:round;stroke-linejoin:round;stroke-miterlimit:10;}
	.st120{fill:none;stroke:#131314;stroke-width:2.0758;stroke-linecap:round;stroke-linejoin:round;stroke-miterlimit:10;}
	.st121{fill:#FFC72C;stroke:#131314;stroke-width:0.5341;stroke-linecap:round;stroke-linejoin:round;stroke-miterlimit:10;}
	.st122{fill:#FFC72C;stroke:#131314;stroke-width:0.5341;stroke-linecap:round;stroke-linejoin:round;}
	.st123{fill:none;stroke:#131314;stroke-width:0.6195;stroke-linecap:round;stroke-miterlimit:10;}
	.st124{fill:#FFFFFF;filter:url(#Adobe_OpacityMaskFilter_00000125562475230044795530000008620152563701216437_);}
	.st125{mask:url(#mask0_472_749_00000067936524425341381020000013690141856301607846_);}
	.st126{fill:#FFC72B;stroke:#000000;stroke-width:0.7607;stroke-miterlimit:10;}
	.st127{fill:none;stroke:#FF0058;stroke-width:3.26;stroke-linecap:round;stroke-linejoin:round;}
	.st128{fill:url(#SVGID_00000090286837592467538910000007335354401093724861_);}
	.st129{fill:#FFC72C;stroke:#131314;stroke-width:9.798834e-02;stroke-miterlimit:10;}
	.st130{fill:#F7F5DD;stroke:#131314;stroke-width:0.8499;stroke-miterlimit:10;}
	.st131{fill:url(#SVGID_00000042720971470880025280000016859496121001170053_);}
	.st132{clip-path:url(#SVGID_00000000907242679909652700000017676698700575068291_);}
	.st133{fill:none;stroke:#131314;stroke-width:0.1586;}
	.st134{fill:#F7F5DD;stroke:#000000;stroke-width:0.1379;stroke-miterlimit:10;}
	.st135{fill:#FFC72B;stroke:#131314;stroke-width:0.1079;stroke-miterlimit:10;}
	
		.st136{fill-rule:evenodd;clip-rule:evenodd;fill:#F7F5DD;stroke:#131314;stroke-width:0.6316;stroke-linecap:round;stroke-linejoin:round;stroke-miterlimit:10;}
	.st137{fill:#FE0058;stroke:#131314;stroke-width:0.6316;stroke-linecap:round;stroke-linejoin:round;stroke-miterlimit:10;}
	.st138{fill:#F7F5DD;stroke:#131314;stroke-width:0.6316;stroke-linecap:round;stroke-linejoin:round;stroke-miterlimit:10;}
	.st139{fill:#FFC72B;stroke:#131314;stroke-width:0.8499;stroke-miterlimit:10;}
	.st140{opacity:0.5;}
	.st141{clip-path:url(#SVGID_00000157294766160778084350000012159340027439646342_);}
	.st142{fill:#CCCCCC;}
	.st143{fill:#FFC608;stroke:#131314;stroke-width:0.6316;stroke-linecap:round;stroke-linejoin:round;stroke-miterlimit:10;}
	.st144{fill:#79C9E2;}
	.st145{fill:#62B8CC;}
	.st146{fill:#D9E1EE;}
	.st147{fill:none;stroke:#FFFFFF;stroke-width:0.4753;stroke-miterlimit:10;}
	.st148{fill:#E48D34;}
	.st149{fill:#EAA05C;}
	.st150{fill:#D17A2B;}
	.st151{fill:#F5B376;}
	.st152{fill:#F5BE2D;}
	.st153{fill:#F4E081;}
	.st154{fill:#F2A101;}
	.st155{fill:#F7CF4C;}
	.st156{fill:#DE8E06;}
	.st157{fill:#05C954;}
	.st158{fill:#E21E36;}
	.st159{fill:#D4101E;}
	.st160{fill:#00AF47;}
	.st161{fill:#FFE164;}
	.st162{fill:#FFFAA6;}
	.st163{fill:#43B572;}
	.st164{fill:#FFC72C;stroke:#231F20;stroke-width:0.1377;stroke-linecap:round;stroke-linejoin:round;}
	.st165{fill:#FED0B8;}
	.st166{fill:#F7F5DD;stroke:#131314;stroke-width:0.6605;stroke-linecap:round;stroke-linejoin:round;stroke-miterlimit:10;}
	.st167{fill:#FFC608;stroke:#131314;stroke-width:0.6234;stroke-miterlimit:10;}
	.st168{fill:#FFC608;stroke:#131314;stroke-width:0.5155;stroke-miterlimit:10;}
	.st169{fill:none;stroke:#131314;stroke-width:1.1332;stroke-linecap:round;stroke-linejoin:round;stroke-dasharray:22.665,22.665;}
	.st170{fill:#FFC72C;stroke:#231F20;stroke-width:4.938446e-02;stroke-linecap:round;stroke-linejoin:round;}
	.st171{fill:url(#SVGID_00000026864252670179679610000014126815023776692375_);}
	.st172{clip-path:url(#SVGID_00000100355124920732419200000007810011191946557328_);}
	.st173{fill:#FFC72C;stroke:#131314;stroke-width:7.223932e-02;stroke-miterlimit:10;}
	.st174{fill:url(#SVGID_00000137115351617016519850000012674243538432910236_);}
	.st175{fill:#131314;stroke:#F7F5DD;stroke-width:0.1911;stroke-miterlimit:10;}
	.st176{fill:#F7F5DD;stroke:#131314;stroke-width:0.9245;stroke-miterlimit:10;}
	.st177{fill:none;stroke:#131314;stroke-width:0.9245;stroke-miterlimit:10;}
	.st178{fill:#131314;stroke:#F7F5DD;stroke-width:0.2096;stroke-miterlimit:10;}
	.st179{fill:#FF0058;stroke:#131314;stroke-width:0.9245;stroke-miterlimit:10;}
	.st180{fill:#232020;}
	.st181{fill:#F7F5DD;stroke:#231F20;stroke-width:0.9245;stroke-miterlimit:10;}
	.st182{fill:#FCF4EC;}
	.st183{fill:#CD950C;}
	.st184{fill:none;stroke:#FFFFFF;stroke-width:0.5769;stroke-miterlimit:10;}
	.st185{fill:#FFC72C;stroke:#131314;stroke-width:0.8286;stroke-miterlimit:10;}
	.st186{fill:#FFC72C;stroke:#131314;stroke-width:0.8286;stroke-linecap:round;stroke-linejoin:round;}
	.st187{clip-path:url(#SVGID_00000001659173889183286670000015408785394890877344_);}
	.st188{fill:url(#SVGID_00000012442040555661196180000001740234250390702733_);}
	.st189{clip-path:url(#SVGID_00000087381101211626829840000011102102202175100064_);}
	.st190{fill:none;stroke:#131314;stroke-width:1.5284;}
	.st191{fill:#FFFFFF;filter:url(#Adobe_OpacityMaskFilter_00000123430063662689439910000016844771918548461749_);}
	.st192{mask:url(#mask4_744_2018_00000067229330011245605510000014511519346254753932_);}
	.st193{fill:#FFC72B;stroke:#131314;stroke-width:0.9327;stroke-miterlimit:10;}
	.st194{fill-rule:evenodd;clip-rule:evenodd;fill:#F7F5DD;stroke:#131314;stroke-width:0.2707;stroke-miterlimit:10;}
	.st195{fill-rule:evenodd;clip-rule:evenodd;fill:#F9CC3D;}
	.st196{fill-rule:evenodd;clip-rule:evenodd;fill:#FE0058;}
	.st197{fill:#EDBA29;}
	.st198{fill-rule:evenodd;clip-rule:evenodd;fill:#98DFFF;}
	.st199{fill:#29ABE2;}
	.st200{fill-rule:evenodd;clip-rule:evenodd;fill:#FFC72C;stroke:#131314;stroke-width:0.2707;stroke-miterlimit:10;}
	.st201{fill-rule:evenodd;clip-rule:evenodd;fill:#F7F5DD;stroke:#131314;stroke-width:0.1083;stroke-miterlimit:10;}
	.st202{fill-rule:evenodd;clip-rule:evenodd;fill:#FE0058;stroke:#131314;stroke-width:0.1083;stroke-miterlimit:10;}
	.st203{fill:#B3B3B3;}
	.st204{fill:#FFC72C;stroke:#231F20;stroke-width:0.4332;stroke-linecap:round;stroke-linejoin:round;}
	.st205{fill:#FFC84A;}
	.st206{fill:#FF0058;stroke:#131314;stroke-width:1.2117;stroke-miterlimit:10;}
	.st207{fill:#F7F5DD;stroke:#131314;stroke-width:0.9088;stroke-miterlimit:10;}
	.st208{fill:#FFC72B;stroke:#131314;stroke-width:0.9088;stroke-miterlimit:10;}
	.st209{fill:url(#SVGID_00000027581699873473229950000009226653569517839030_);}
	.st210{fill:#FFC72B;stroke:#000000;stroke-width:0.8482;stroke-miterlimit:10;}
	.st211{fill:none;stroke:#F7F5DD;stroke-width:1.4089;stroke-linecap:round;stroke-linejoin:round;stroke-miterlimit:10;}
	.st212{fill:none;stroke:#131314;stroke-width:0.7045;stroke-miterlimit:10;}
	.st213{fill:none;stroke:#F7F5DD;stroke-width:0.7045;stroke-linecap:round;stroke-linejoin:round;stroke-miterlimit:10;}
	.st214{fill:none;stroke:#FF0058;stroke-width:0.7045;stroke-miterlimit:10;}
	.st215{fill:none;stroke:#FF0058;stroke-width:0.7045;stroke-linecap:round;stroke-linejoin:round;stroke-miterlimit:10;}
	.st216{fill:none;stroke:#131314;stroke-width:0.7045;stroke-linecap:round;stroke-linejoin:round;stroke-miterlimit:10;}
	.st217{fill:none;stroke:#000000;stroke-width:0.7045;stroke-miterlimit:10;}
	.st218{fill:none;stroke:#131314;stroke-width:0.8062;stroke-miterlimit:10;}
	.st219{clip-path:url(#SVGID_00000078034383344899998910000000872218859025997991_);}
	.st220{fill:url(#SVGID_00000018956910789194988170000014053117620775255741_);}
	.st221{clip-path:url(#SVGID_00000021095469249432704680000002801002870188853655_);}
	.st222{fill:none;stroke:#131314;stroke-width:1.7355;}
	.st223{fill:#F7F5DD;stroke:#131314;stroke-width:1.2641;stroke-miterlimit:10;}
	.st224{fill:#FFC608;stroke:#0C0609;stroke-width:0.9481;stroke-miterlimit:10;}
	.st225{fill:#FFC72B;stroke:#131314;stroke-width:1.2641;stroke-miterlimit:10;}
	.st226{fill:#FFC72B;stroke:#131314;stroke-width:0.9481;stroke-miterlimit:10;}
	.st227{clip-path:url(#SVGID_00000012459525089582299660000005306222841353563570_);}
	.st228{fill:#F4B821;}
	.st229{fill:#C69560;}
	.st230{fill:#F7F5DD;stroke:#131314;stroke-width:1.2993;stroke-miterlimit:10;}
	.st231{fill:#131314;stroke:#F7F5DD;stroke-width:0.2685;stroke-miterlimit:10;}
	.st232{fill:#FFC72B;stroke:#131314;stroke-width:1.2993;stroke-miterlimit:10;}
	.st233{fill:none;stroke:#131314;stroke-width:1.2993;stroke-miterlimit:10;}
	.st234{fill:#131314;stroke:#F7F5DD;stroke-width:0.2945;stroke-miterlimit:10;}
	.st235{fill:#FF0058;stroke:#131314;stroke-width:1.2993;stroke-miterlimit:10;}
	.st236{fill:#FFFFFF;filter:url(#Adobe_OpacityMaskFilter_00000001643289428752046260000016060533960544002184_);}
	.st237{mask:url(#mask0_479_11673_00000099644528304487065730000005320813079396614829_);}
	.st238{fill:#FFC72B;stroke:#000000;stroke-width:0.6063;stroke-miterlimit:10;}
	.st239{fill:url(#SVGID_00000109013406078521906310000013275537229217677751_);}
	.st240{fill:#FFFFFF;filter:url(#Adobe_OpacityMaskFilter_00000091730925453982557710000009197752841015252867_);}
	.st241{mask:url(#mask0_472_749_00000032621048777137593190000003031189513109940632_);}
	.st242{fill:url(#SVGID_00000071540501744307615200000012184280244949747843_);}
	.st243{fill:url(#SVGID_00000155128677431649283990000015321392990838352821_);}
	.st244{clip-path:url(#SVGID_00000109001921030078660730000000882870312759054260_);}
	.st245{fill:none;stroke:#131314;stroke-width:1.793;}
	.st246{fill:#F7F5DD;stroke:#000000;stroke-width:1.4856;stroke-miterlimit:10;}
	.st247{fill:#FFC72B;stroke:#131314;stroke-width:1.1628;stroke-miterlimit:10;}
	.st248{fill:#F7F5DD;stroke:#131314;stroke-width:1.306;stroke-miterlimit:10;}
	.st249{fill:none;stroke:#131314;stroke-width:1.2653;stroke-miterlimit:10;}
	.st250{fill:#FFC72C;stroke:#131314;stroke-width:0.9795;stroke-miterlimit:10;}
	.st251{fill:#FFC72C;stroke:#131314;stroke-width:0.9795;stroke-linecap:round;stroke-linejoin:round;stroke-miterlimit:10;}
	.st252{fill:#FFFFFF;}
	.st253{fill:#F7F5DD;stroke:#000000;stroke-width:0.4697;stroke-miterlimit:10;}
	.st254{fill:#FFC046;}
	.st255{fill:none;stroke:#131314;stroke-width:0.8612;stroke-linecap:round;stroke-linejoin:round;stroke-miterlimit:10;}
	.st256{fill:none;stroke:#FFFFFF;stroke-width:0.8612;stroke-linecap:round;stroke-linejoin:round;stroke-miterlimit:10;}
	.st257{fill:none;stroke:#F7F5DD;stroke-width:0.4697;stroke-miterlimit:10;}
	.st258{fill:#F7F5DD;stroke:#070506;stroke-width:0.5202;stroke-miterlimit:10;}
	.st259{fill:#F7F5DD;stroke:#000000;stroke-width:0.5202;stroke-miterlimit:10;}
	.st260{fill:#FE0058;stroke:#000000;stroke-width:0.5202;stroke-miterlimit:10;}
	.st261{fill:none;stroke:#F7F5DD;stroke-width:0.8612;stroke-linecap:round;stroke-linejoin:round;stroke-miterlimit:10;}
	.st262{fill:none;stroke:#1A2E35;stroke-width:0.8612;stroke-linecap:round;stroke-linejoin:round;stroke-miterlimit:10;}
</style>
<g id="Layer_1">
</g>
<g id="Home">
</g>
<g id="Restaurants">
	<g>
		<g>
			<g>
				<g>
					
						<rect x="757.9" y="299.4" transform="matrix(-0.7071 -0.7071 0.7071 -0.7071 1075.8685 1088.1339)" class="st61" width="10.9" height="43.7"/>
					
						<rect x="763" y="294.7" transform="matrix(-0.7071 -0.7071 0.7071 -0.7071 1121.6735 1069.1609)" class="st11" width="38.6" height="15.1"/>
				</g>
				<rect x="678" y="256" class="st61" width="10.9" height="43.7"/>
				<path class="st0" d="M683.5,199.5c-27.7,0-50.2,22.5-50.2,50.2c0,27.7,22.5,50.2,50.2,50.2c27.7,0,50.2-22.5,50.2-50.2
					C733.7,222,711.2,199.5,683.5,199.5z M683.5,289.4c-21.9,0-39.7-17.8-39.7-39.7c0-21.9,17.8-39.7,39.7-39.7
					c21.9,0,39.7,17.8,39.7,39.7C723.2,271.6,705.4,289.4,683.5,289.4z"/>
				<path class="st0" d="M744.6,311.7C694,277.2,625,290.2,590.5,340.8c-34.5,50.6-21.5,119.6,29.1,154.1
					c50.6,34.5,119.6,21.4,154.1-29.2C808.3,415.1,795.2,346.1,744.6,311.7z M768.3,445.2c-23.2,47.6-80.5,67.3-128.1,44.2
					c-47.6-23.1-67.4-80.5-44.2-128.1c23.2-47.6,80.5-67.4,128.1-44.2C771.7,340.3,791.4,397.7,768.3,445.2z"/>
				<rect x="671.6" y="232.4" class="st11" width="23.8" height="26.2"/>
				<rect x="666.1" y="276.2" class="st0" width="34.8" height="16.7"/>
				
					<rect x="736.4" y="314.7" transform="matrix(-0.7071 -0.7071 0.7071 -0.7071 1074.3983 1088.8904)" class="st0" width="52.5" height="14.4"/>
				<g>
					<path class="st8" d="M770.6,361.2c23.3,48.9,2.5,107.3-46.3,130.6c-48.9,23.3-107.3,2.5-130.6-46.3
						c-23.3-48.9-2.5-107.3,46.3-130.6C688.9,291.6,747.3,312.3,770.6,361.2z"/>
					<path class="st0" d="M740.5,489.5c47.6-32.2,60-97,27.8-144.6c-32.2-47.6-97-60-144.6-27.8c-47.6,32.2-60,97-27.8,144.6
						C628.2,509.3,692.9,521.7,740.5,489.5z M668.5,308.5c52.4-7.6,100.9,28.8,108.4,81.2c7.5,52.4-28.8,100.9-81.1,108.4
						c-52.4,7.5-100.9-28.9-108.4-81.2C579.9,364.5,616.2,316,668.5,308.5z"/>
					<g>
						
							<rect x="680.2" y="476.5" transform="matrix(-1 -1.224647e-16 1.224647e-16 -1 1364.7427 968.9986)" class="st0" width="4.3" height="15.9"/>
						<path class="st61" d="M744.2,347.4l-63.6,57.3l-38.9-75.5c26.8-13.8,60.1-13,87,4.9C734.5,338,739.6,342.4,744.2,347.4z"/>
						
							<rect x="613.8" y="417.2" transform="matrix(0.7578 -0.6525 0.6525 0.7578 -111.7663 534.7271)" class="st11" width="101" height="1.5"/>
						
							<rect x="684.6" y="413.5" transform="matrix(-0.8893 0.4574 -0.4574 -0.8893 1496.0619 476.2103)" class="st0" width="11.5" height="11.5"/>
						<path class="st0" d="M682.2,396.1c3.9,0,7.1,3.2,7.1,7.1c0,3.9-3.2,7.1-7.1,7.1c-3.9,0-7.1-3.2-7.1-7.1
							C675.1,399.3,678.2,396.1,682.2,396.1z"/>
						
							<rect x="680" y="314.1" transform="matrix(-1 -1.224647e-16 1.224647e-16 -1 1364.3037 644.1188)" class="st0" width="4.3" height="15.9"/>
						
							<rect x="657.8" y="338.9" transform="matrix(-0.8893 0.4574 -0.4574 -0.8893 1421.6095 390.1609)" class="st0" width="11.6" height="56.6"/>
						
							<rect x="598.7" y="395.3" transform="matrix(-1.836970e-16 1 -1 -1.836970e-16 1004.118 -197.6008)" class="st0" width="4.3" height="15.9"/>
						
							<rect x="761.3" y="395.3" transform="matrix(-1.836970e-16 1 -1 -1.836970e-16 1166.7057 -360.1885)" class="st0" width="4.3" height="15.9"/>
					</g>
				</g>
			</g>
			<polygon class="st0" points="625.6,486.8 594.9,514.2 683,514.2 			"/>
		</g>
		<g>
			<g>
				<g>
					<defs>
						<rect id="SVGID_00000083070503994121072530000000191683395158276009_" x="0" y="208.1" width="456.2" height="309.6"/>
					</defs>
					<clipPath id="SVGID_00000106836539942970928170000014437936990086667904_">
						<use xlink:href="#SVGID_00000083070503994121072530000000191683395158276009_"  style="overflow:visible;"/>
					</clipPath>
					<g style="clip-path:url(#SVGID_00000106836539942970928170000014437936990086667904_);">
						<path class="st0" d="M258.5,511.3c0,0.5-122.2,0.9-192.4,0.9s-61.7-0.4-61.7-0.9c0-0.5-8.5-0.9,61.7-0.9
							S258.5,510.8,258.5,511.3z"/>
						<path class="st0" d="M366.2,516.8c0,0.5-122.2,0.9-192.4,0.9s-61.7-0.4-61.7-0.9c0-0.5-8.5-0.9,61.7-0.9
							S366.2,516.3,366.2,516.8z"/>
						<path class="st8" d="M118.4,311.7h16.7c1.3,0,1.6-1,1.6-2.5c0-0.9-0.1-1.9-0.1-2.9v-9.6c0.1-2.5,0.4-4.4-1.5-4.4h-16.7
							c-1.9,0-3.4,1.9-3.8,4.4c0,0.4,0,0.7,0,1.1v8.6c0,1,0.2,2,0.6,2.9c0.2,0.7,0.7,1.3,1.3,1.8C117,311.4,117.7,311.6,118.4,311.7
							z"/>
						<path class="st0" d="M138,297.7v-1.1h-23.4c0,0.4,0,0.7,0,1.1v1.5h23.4L138,297.7z"/>
						<path class="st0" d="M14.9,488.6c-2.3-5.5-3.5-11.5-3.5-17.5c0-10.6,3.7-20.8,10.4-29c6.7-8.2,16-13.8,26.4-15.8
							c10.4-2.1,21.1-0.5,30.5,4.5c9.3,5,16.6,13,20.7,22.8c4.1,9.8,4.6,20.6,1.5,30.8c-3.1,10.1-9.5,18.9-18.3,24.7
							c-8.8,5.9-19.3,8.5-29.9,7.5c-10.5-1-20.4-5.7-27.8-13.2C20.6,499.1,17.2,494.1,14.9,488.6z M41.3,455.1
							c-2.1,2.1-3.8,4.6-4.9,7.4c-2.1,5.1-2.3,10.9-0.4,16.2c1.9,5.3,5.6,9.6,10.5,12.3c4.9,2.6,10.6,3.4,16,2
							c5.4-1.3,10.1-4.6,13.2-9.3c3.1-4.6,4.4-10.2,3.6-15.8c-0.8-5.5-3.6-10.5-7.9-14.1c-4.3-3.6-9.8-5.4-15.3-5.1
							C50.5,449,45.2,451.3,41.3,455.1L41.3,455.1z"/>
						<path class="st0" d="M36,479.7c-1.1-2.8-1.7-5.7-1.7-8.7c0-5.3,1.9-10.4,5.2-14.5c3.4-4.1,8-6.9,13.2-7.9
							c5.2-1,10.6-0.2,15.2,2.3c4.7,2.5,8.3,6.5,10.3,11.4c2,4.9,2.3,10.3,0.7,15.4c-1.5,5.1-4.8,9.4-9.2,12.3
							c-4.4,2.9-9.7,4.2-14.9,3.7c-5.3-0.5-10.2-2.9-13.9-6.6C38.8,485,37.1,482.5,36,479.7z M46.5,460.3c-1.4,1.4-2.5,3-3.3,4.9
							c-0.9,2-1.3,4.3-1.2,6.5c0.1,2.2,0.7,4.4,1.7,6.4c1,2,2.5,3.7,4.3,5c1.8,1.3,3.8,2.2,6,2.7c3.4,0.7,7,0.2,10-1.4
							c3.1-1.6,5.5-4.3,6.8-7.5c1.4-3.2,1.6-6.8,0.6-10.2c-1-3.3-3.1-6.2-6-8.2c-2.9-1.9-6.4-2.8-9.9-2.5
							C52.1,456.3,48.9,457.9,46.5,460.3L46.5,460.3z"/>
						<path class="st8" d="M35.5,480c-2.2-5.4-2.4-11.4-0.4-16.8c2-5.5,5.9-10,11-12.7c5.1-2.7,11.1-3.5,16.7-2.1
							c5.6,1.4,10.5,4.9,13.8,9.7c3.2,4.8,4.5,10.7,3.7,16.4c-0.8,5.7-3.8,11-8.3,14.6c-4.5,3.7-10.2,5.6-16,5.3
							c-5.8-0.3-11.3-2.7-15.4-6.8C38.4,485.4,36.7,482.8,35.5,480z M38.6,483.4c3,4.4,7.4,7.7,12.6,9.1c5.1,1.4,10.6,0.9,15.4-1.3
							s8.7-6.2,10.8-11.1c2.2-4.9,2.5-10.4,0.9-15.5c-1.6-5.1-4.9-9.5-9.4-12.3c-4.5-2.9-9.9-4-15.2-3.2c-5.3,0.8-10.1,3.4-13.6,7.5
							s-5.4,9.2-5.4,14.5C34.9,475.4,36.2,479.7,38.6,483.4z M44.1,462.3c2.1-3.2,5.3-5.4,8.9-6.5c3.7-1,7.6-0.7,11,0.9
							c3.4,1.6,6.2,4.4,7.7,7.9c1.5,3.5,1.8,7.4,0.7,11c-1.1,3.6-3.5,6.7-6.7,8.8c-3.2,2-7,2.8-10.8,2.3c-3.8-0.6-7.2-2.5-9.6-5.3
							c-2.5-2.9-3.8-6.5-3.8-10.3C41.5,467.9,42.4,464.9,44.1,462.3z"/>
						<path class="st7" d="M89.4,361.9c17.7-30.2,25.3-63.6,25.3-63.6h15.7c-8.7,32-13.3,65-13.6,98.2c0,52.3,35.5,59.3,35.5,59.3
							h73.3c25-19.6,20.5-47.9,2.5-63.7c-18-15.8-24.9-24.3-24.9-31.8c0-7.5,1.4-13.1,6.2-13.1h61.5c64.8,0,86.2,40.8,92.5,58.4
							c-1.8-1.3-3.7-2.8-5.7-4.1c-42.9-29.2-117-14.8-108,58.8h20c-5.6,7.8-12.7,15.2-19.9,15.2h-101c-29.7,0-31.8-12.9-31.8-12.9
							h-15.3l-41.4-37.4v-29.5C60.1,395.6,71.7,392,89.4,361.9z"/>
						<path class="st0" d="M121,469.3c-2.2-1.6-3.9-3.8-4.8-6.4h-14.9l-41.8-37.7v-30l0.4-0.1c4-1.3,15.2-9.9,29-33.6
							c17.4-29.7,25.2-63,25.2-63.4l0.1-0.4h16.9l-0.2,0.7c-0.1,0.5-13.6,46.4-13.6,98c0,26.8,9.5,41.3,17.5,48.8
							c4.9,4.7,10.9,8.2,17.5,10h73.1c10.8-8.5,16.6-19.1,17-30.8c0-6.1-1.3-12.1-3.8-17.6c-2.5-5.5-6.3-10.4-10.9-14.4
							c-18.7-16.5-25.1-24.7-25.1-32.3c0-5.9,0.7-13.7,6.7-13.7H271c65.2,0,86.8,41.1,93,58.7l0.6,1.8l-1.6-1.1
							c-2.1-1.6-3.9-2.9-5.7-4.1c-12.2-8.2-26.4-13-41.1-13.9c-14.9-0.9-29.3,2.3-40.5,9.1c-19.8,12.1-28.9,34.3-25.6,62.6h20.7
							l-0.7,0.9c-7.3,10.2-14.2,15.4-20.4,15.4H148.6C136.1,475.9,126.8,473.7,121,469.3z M249,460.8v-0.5
							c-3.5-29,5.7-51.9,26.1-64.2c11.4-6.9,26-10.2,41.1-9.3c14.9,0.9,29.3,5.8,41.7,14.1c1.4,0.9,2.7,1.9,4.2,3
							c-7-18.3-29-56.1-91.3-56.1h-61.5c-3.8,0-5.6,4-5.6,12.5c0,7.2,6.2,15.1,24.7,31.4c10,8.8,15.4,20.7,15.1,32.8
							c-0.3,12.1-6.5,23.1-17.6,31.8l-0.2,0.1h-73.6c-6.8-1.8-13-5.3-18-10.2c-14.7-13.9-17.9-34.7-17.9-49.7
							c0-48.2,11.7-91.4,13.5-97.5h-14.4c-1,4.1-8.8,35.2-25.3,63.2c-16,27.3-27,33-29.3,33.9v28.6l41.1,37.1h15.6v0.5
							c0.8,2.5,2.4,4.7,4.6,6.2c3.8,2.9,11.4,6.3,26.5,6.3h101.1c5.6,0,12-4.8,18.8-14H249z"/>
						<path class="st0" d="M272.9,488.6c-2.3-5.5-3.5-11.5-3.5-17.5c0-10.6,3.7-20.8,10.4-29c6.7-8.2,16-13.8,26.4-15.8
							c10.4-2.1,21.1-0.5,30.5,4.5c9.3,5,16.6,13,20.7,22.8c4.1,9.8,4.6,20.6,1.5,30.8c-3.1,10.1-9.5,18.9-18.3,24.7
							c-8.8,5.9-19.3,8.5-29.9,7.5c-10.5-1-20.4-5.7-27.8-13.2C278.6,499.1,275.2,494.1,272.9,488.6z M299.2,455.1
							c-2.1,2.1-3.8,4.6-4.9,7.4c-2.1,5.1-2.3,10.9-0.4,16.2c1.9,5.3,5.6,9.6,10.5,12.3c4.9,2.6,10.6,3.4,16,2
							c5.4-1.3,10.1-4.6,13.2-9.3c3.1-4.6,4.4-10.2,3.6-15.8c-0.8-5.5-3.6-10.5-7.9-14.1c-4.3-3.6-9.8-5.4-15.3-5.1
							C308.4,449,303.2,451.3,299.2,455.1L299.2,455.1z"/>
						<path class="st0" d="M293.9,479.7c-1.1-2.8-1.7-5.7-1.7-8.7c0-5.3,1.9-10.4,5.2-14.5c3.4-4.1,8-6.9,13.2-7.9
							c5.2-1,10.6-0.2,15.2,2.3c4.7,2.5,8.3,6.5,10.3,11.4c2,4.9,2.3,10.3,0.7,15.4c-1.5,5.1-4.8,9.4-9.2,12.3
							c-4.4,2.9-9.7,4.2-14.9,3.7c-5.3-0.5-10.2-2.9-13.9-6.6C296.8,485,295.1,482.5,293.9,479.7z M304.4,460.3
							c-1.4,1.4-2.5,3-3.3,4.9c-0.9,2-1.3,4.3-1.2,6.5c0.1,2.2,0.7,4.4,1.7,6.4c1,2,2.5,3.7,4.3,5c1.8,1.3,3.8,2.2,6,2.7
							c3.4,0.7,7,0.2,10-1.4c3.1-1.6,5.5-4.3,6.8-7.5c1.4-3.2,1.6-6.8,0.6-10.2c-1-3.3-3.1-6.2-6-8.2c-2.9-1.9-6.4-2.8-9.9-2.5
							C310.1,456.3,306.8,457.9,304.4,460.3L304.4,460.3z"/>
						<path class="st8" d="M293.5,480c-2.2-5.4-2.4-11.4-0.4-16.8c2-5.5,5.9-10,11-12.7c5.1-2.7,11.1-3.5,16.7-2.1
							c5.6,1.4,10.5,4.9,13.8,9.7c3.2,4.8,4.5,10.7,3.7,16.4c-0.8,5.7-3.8,11-8.3,14.6c-4.5,3.7-10.2,5.6-16,5.3
							c-5.8-0.3-11.3-2.7-15.4-6.8C296.4,485.4,294.6,482.8,293.5,480z M296.6,483.4c3,4.4,7.4,7.7,12.6,9.1
							c5.1,1.4,10.6,0.9,15.4-1.3s8.7-6.2,10.8-11.1c2.2-4.9,2.5-10.4,0.9-15.5c-1.6-5.1-4.9-9.5-9.4-12.3c-4.5-2.9-9.9-4-15.2-3.2
							c-5.3,0.8-10.1,3.4-13.6,7.5s-5.4,9.2-5.4,14.5C292.8,475.4,294.1,479.7,296.6,483.4z M302.1,462.3c2.1-3.2,5.3-5.4,8.9-6.5
							c3.7-1,7.6-0.7,11,0.9c3.4,1.6,6.2,4.4,7.7,7.9c1.5,3.5,1.8,7.4,0.7,11c-1.1,3.6-3.5,6.7-6.7,8.8c-3.2,2-7,2.8-10.8,2.3
							c-3.8-0.6-7.2-2.5-9.6-5.3c-2.5-2.9-3.8-6.5-3.8-10.3C299.5,467.9,300.4,464.9,302.1,462.3z"/>
						<path class="st0" d="M355.3,398.7c2,1.3,3.9,2.8,5.7,4.1c0.9,2.6,1.7,5.2,2.3,7.8V439h-85.2c-3.1,6.5-6.7,12.7-10.8,18.6h-20
							C238.3,383.9,312.4,369.4,355.3,398.7z"/>
						<path class="st7" d="M357.6,401.3c2,1.3,3.9,2.8,5.7,4.1c36.8,27.9,33.3,54.7,33.3,54.7h-147
							C240.6,386.5,314.7,372,357.6,401.3z"/>
						<path class="st8" d="M334.4,403.7l14.3,14.8l-8.1,0.5l5.9,12l-14.8-14.5l7.6-0.8L334.4,403.7z"/>
						<path class="st0" d="M249,460.2c-3.5-29,5.7-51.9,26.1-64.2c11.4-6.9,26-10.2,41.1-9.3c14.9,0.9,29.3,5.8,41.7,14.1
							c1.8,1.3,3.6,2.6,5.7,4.1c10.6,7.9,24.4,21.1,30.6,38.1c3.7,10.3,2.9,17,2.9,17.2l-0.1,0.5H249L249,460.2z M396,459.6
							c0.2-5.6-0.8-11.1-2.9-16.2c-6.1-16.7-19.8-29.5-30.2-37.5c-2.1-1.6-3.9-2.9-5.7-4.1c-12.2-8.2-26.4-13-41.1-13.9
							c-14.9-1-29.3,2.3-40.5,9.1c-19.8,12.1-28.9,34.3-25.6,62.6H396L396,459.6z"/>
						<path class="st7" d="M118.3,477.9c0,0,1.7-45.5-42.9-62.3c-44.6-16.9-74.7,21.7-74.7,21.7s8.7,15.9,29.8,13.9
							c21.1-2,37.9-6.2,54.7,13C103.2,484.8,108.8,479.1,118.3,477.9z"/>
						<path class="st0" d="M84.8,464.7c-14.9-17.1-29.5-15.5-48-13.5l-6.3,0.7c-21.3,2-30.3-14-30.4-14.2L0,437.3l0.2-0.3
							c5.9-6.9,12.9-12.7,20.8-17.2c8.1-4.9,17.3-7.8,26.8-8.6c9.5-0.8,19,0.6,27.8,4c8.8,3.1,16.8,8.1,23.4,14.7
							c6.6,6.5,11.8,14.4,15.1,23.2c3.1,8,4.7,16.5,4.8,25.1v0.5h-0.5c-1.4,0.2-2.8,0.4-4.1,0.8c-2.1,0.5-4.2,0.8-6.4,0.9
							C102.3,480.2,95.9,477.3,84.8,464.7z M113,453.3c-3.2-8.6-8.3-16.3-14.8-22.8c-6.5-6.4-14.4-11.3-23-14.4
							c-8.7-3.4-18-4.7-27.3-3.9c-9.3,0.8-18.3,3.7-26.3,8.4c-7.6,4.4-14.4,10-20.1,16.7c1.4,2.3,10.3,15.1,29.1,13.3l6.3-0.7
							c18-2,33.6-3.6,49,13.9c15,17.1,21.1,15.8,28.2,14.2c1.2-0.3,2.4-0.5,3.7-0.7C117.6,469.2,116,461,113,453.3L113,453.3z"/>
						
							<linearGradient id="SVGID_1_" gradientUnits="userSpaceOnUse" x1="5220.1382" y1="10626.3623" x2="5183.4155" y2="10626.3623" gradientTransform="matrix(-1 0 0 -1 5280.229 10914.4854)">
							<stop  offset="0" style="stop-color:#FFCF00;stop-opacity:0"/>
							<stop  offset="1" style="stop-color:#FFCF00;stop-opacity:0.8"/>
						</linearGradient>
						<path class="st9" d="M96.8,270.4v35.5l-36.7,9.7v-55L96.8,270.4z"/>
						<path class="st0" d="M108.5,269.1v37.9c-3.8,0.3-7.6,0.5-11.7,0.5v-39C100.8,268.6,104.7,268.8,108.5,269.1z"/>
						<path class="st7" d="M147.9,288.1c0,9.3-16.8,16.9-39.4,19v-37.9C131,271.2,147.9,278.9,147.9,288.1z"/>
						<path class="st0" d="M107.9,268.6h0.6c23.5,2.1,39.9,10.1,39.9,19.5c0,9.4-16.4,17.4-39.9,19.6h-0.6V268.6z M109,306.4
							c22.2-2.1,38.2-9.8,38.2-18.3c0-8.5-16-16.2-38.2-18.3V306.4z"/>
						<path class="st0" d="M299.9,355c19.9,0-8.6-22.7-17.5-26.5s-16.8,3.1-29.6,3.1h-17.5c-6.2,0-5.9-2.8-13.1-2.8
							c-7.2,0-14.8,13.3-12.9,18.2c1.9,4.9,3.5,7.9,3.5,7.9L299.9,355z"/>
						<path class="st0" d="M138.4,295.1c1.3,0,2.5-0.4,3.6-1.1c0.8-0.5,1.5-1.2,2-2.1c0.5-0.8,0.8-1.7,0.9-2.7c0.1-1,0-1.9-0.3-2.8
							c-0.3-0.9-0.8-1.7-1.5-2.4c-0.9-0.9-2.1-1.5-3.3-1.8c-0.9-0.2-1.9-0.2-2.8,0.1c-0.9,0.2-1.8,0.7-2.5,1.3
							c-0.7,0.6-1.3,1.4-1.8,2.2c-0.4,0.9-0.6,1.8-0.6,2.8c0,1.7,0.7,3.4,1.9,4.6c0.6,0.6,1.3,1.1,2.1,1.4
							C136.6,294.9,137.5,295.1,138.4,295.1L138.4,295.1z"/>
						<path class="st0" d="M60.1,411.8c6.6,1.1,13,3.2,19.1,6.1c3,1.4,5.9,3,8.6,4.9c5.5,3.7,10.4,8.1,14.5,13.3c1.1,1.3,2,2.7,3,4
							l1.3,2.1c0.5,0.7,0.9,1.4,1.3,2.1c3.4,5.8,6.3,11.9,8.7,18.2c-0.9-6.8-3-13.5-6.1-19.7c-3.1-6.3-7.3-11.9-12.5-16.7
							c-5.2-4.7-11.2-8.4-17.8-10.9C73.8,412.7,67,411.5,60.1,411.8z"/>
						<path class="st0" d="M281,412.4h31c0.2,0,0.5-0.1,0.6-0.3c0.2-0.2,0.3-0.4,0.3-0.7c0-0.2-0.1-0.5-0.3-0.7
							c-0.2-0.2-0.4-0.3-0.6-0.3h-31c-0.1,0-0.3,0-0.4,0c-0.1,0-0.2,0.1-0.3,0.2c-0.1,0.1-0.2,0.2-0.2,0.3c0,0.1,0,0.3,0,0.4
							c0,0.1,0,0.3,0,0.4c0,0.1,0.1,0.2,0.2,0.3c0.1,0.1,0.2,0.2,0.3,0.2C280.7,412.3,280.9,412.4,281,412.4z"/>
						<path class="st0" d="M281,417.4h31c0.1,0,0.2,0,0.3-0.1c0.1-0.1,0.2-0.1,0.3-0.2c0.2-0.2,0.3-0.4,0.3-0.7
							c0-0.2-0.1-0.5-0.3-0.7c-0.2-0.2-0.4-0.3-0.6-0.3h-31c-0.1,0-0.3,0-0.4,0c-0.1,0-0.2,0.1-0.3,0.2c-0.1,0.1-0.2,0.2-0.2,0.3
							c-0.1,0.1-0.1,0.3-0.1,0.4c0,0.1,0,0.3,0,0.4c0,0.1,0.1,0.2,0.2,0.3c0.1,0.1,0.2,0.2,0.3,0.2
							C280.7,417.3,280.8,417.3,281,417.4L281,417.4z"/>
						<path class="st0" d="M281,422.4h31c0.3,0,0.5-0.1,0.7-0.3c0.2-0.2,0.3-0.4,0.3-0.7c0-0.1,0-0.3-0.1-0.4c0-0.1-0.1-0.2-0.2-0.3
							s-0.2-0.2-0.3-0.2c-0.1,0-0.2,0-0.4,0h-31c-0.1,0-0.2,0-0.4,0c-0.1,0.1-0.2,0.1-0.3,0.2c-0.1,0.1-0.2,0.2-0.2,0.3
							c0,0.1,0,0.3,0,0.4c0,0.1,0,0.2,0,0.4c0,0.1,0.1,0.2,0.2,0.3C280.5,422.3,280.7,422.4,281,422.4z"/>
						<g>
							<defs>
								<path id="SVGID_00000096768227036429684830000006275654338588812416_" d="M353,209h79.5c8.8,0,15.9,7.1,15.9,15.9v79.5
									c0,8.8-7.1,15.9-15.9,15.9H353c-8.8,0-15.9-7.1-15.9-15.9v-79.5C337.1,216.1,344.2,209,353,209z"/>
							</defs>
							<clipPath id="SVGID_00000165209060641060996560000014142656750149239216_">
								<use xlink:href="#SVGID_00000096768227036429684830000006275654338588812416_"  style="overflow:visible;"/>
							</clipPath>
							<g style="clip-path:url(#SVGID_00000165209060641060996560000014142656750149239216_);">
								<path class="st28" d="M447.6,222.4c-0.6-3.4-2.4-6.6-5.1-8.8s-6.1-3.5-9.7-3.5l-79.6-0.5c-4,0-7.8,1.5-10.7,4.2
									c-2.8,2.7-4.5,6.5-4.5,10.4l-0.3,51.8l-0.2,28.5c0,3.9,1.5,7.7,4.4,10.4c2.8,2.8,6.6,4.4,10.6,4.4l79.6,0.5
									c4,0,7.8-1.5,10.7-4.3c2.8-2.7,4.5-6.5,4.5-10.4l0.5-80.3C447.8,224,447.7,223.2,447.6,222.4z"/>
								<path class="st0" d="M338,275.6c2.7,0.6,5.6,0.2,7.9-1.2c2.4-1.3,4.4-3.2,5.8-5.5c1.4-2.3,2.5-4.7,3.2-7.3
									c0.8-2.6,1.6-5.2,2.3-7.9c1.4-5.3,3.6-10.8,7.3-15.2c0.9-1.1,1.9-2.2,2.9-3.2c1.1-1,2.2-1.9,3.3-2.8
									c2.3-1.7,4.8-3.2,7.4-4.5c2.6-1.2,5.2-2.3,7.9-3.2c2.7-0.9,5.4-1.7,8.1-2.4c5.5-1.4,11.1-2.3,16.8-2.7
									c11.3-0.8,22.6,0.2,33.7,1.4c-11.2,0-22.4-0.3-33.5,0.9c-2.8,0.3-5.5,0.7-8.2,1.2c-2.7,0.5-5.4,1.1-8,1.9
									c-2.7,0.8-5.3,1.5-7.9,2.4c-2.6,0.9-5.1,1.9-7.6,3.1c-2.4,1.2-4.8,2.5-6.9,4.1c-1.1,0.8-2.1,1.6-3.1,2.5
									c-1,0.9-1.9,1.9-2.7,2.9c-0.9,1-1.7,2.1-2.4,3.2c-0.7,1.1-1.4,2.3-2,3.5c-1.2,2.4-2.1,4.9-2.9,7.5c-0.9,2.6-1.7,5.2-2.7,7.8
									c-0.9,2.7-2.2,5.2-3.9,7.5c-1.7,2.3-4,4.1-6.6,5.3c-1.3,0.6-2.7,1-4.1,1.1C340.7,276.3,339.3,276.1,338,275.6z"/>
								<path class="st8" d="M342,230.7c-0.1-2.1-0.1-4.2,0.1-6.4c0.2-2.2,0.8-4.3,1.9-6.2c1.2-2,3-3.6,5.2-4.4
									c2.1-0.8,4.4-1.2,6.7-1.2c8.7-0.2,17.2-0.2,25.9-0.2l12.9,0.2c4.3,0.1,8.6,0.2,12.9,0.3c8.6,0.3,17.2,0.6,25.8,1.3
									c-8.6,0.6-17.2,0.8-25.8,1c-4.3,0.1-8.6,0.1-12.9,0.2h-12.9l-12.9-0.1l-12.9-0.3c-2-0.1-4.1,0.2-6,0.7
									c-1.9,0.6-3.5,1.8-4.6,3.4c-0.6,0.8-1,1.7-1.4,2.6c-0.4,1-0.7,2-0.9,3C342.5,226.5,342.2,228.6,342,230.7z"/>
								<path class="st8" d="M342.8,304c0.4,1.9,1.4,3.7,2.9,5c1.4,1.3,3.1,2.3,4.9,3c3.7,1.3,7.7,1.3,11.7,1.2s8,0,12.1,0l12.1,0.1
									l12.1,0.2c4,0.1,8,0.1,12.1,0.2c8,0.2,16.2,0.4,24.3,0.9c-8,0.8-16.2,1.2-24.2,1.4c-4,0.2-8,0.2-12.1,0.3
									c-4.1,0.1-8,0-12.1,0c-8-0.1-16.2-0.3-24.3-0.7c-4-0.2-8.3-0.5-12.2-2.2c-1.9-0.9-3.6-2.1-5-3.7
									C343.6,308,342.9,306,342.8,304z"/>
								<path class="st11" d="M396.1,262.3c0.1,0.4,0.2,0.9,0.2,1.3c0,1-0.3,2-0.8,2.9c-0.5,0.9-1.2,1.6-2.1,2.2
									c-0.9,0.5-1.9,0.9-2.9,0.9c-1,0.1-2.1-0.1-3-0.5c-1.3-0.6-2.3-1.5-2.9-2.7l-6,2.2c0.6,1.4,1.5,2.7,2.6,3.8l8,7.9
									c0.1,0.1,0.3,0.2,0.4,0.3c0.1,0.1,0.3,0.1,0.5,0.1c0.2,0,0.3,0,0.5-0.1c0.1-0.1,0.3-0.1,0.4-0.3l8-7.9
									c1.6-1.6,2.8-3.5,3.3-5.7c0.6-2.1,0.5-4.4-0.1-6.5L396.1,262.3z"/>
								<path class="st11" d="M383.1,252.2c-0.1-0.3-0.2-0.6-0.2-1c0-0.3,0.1-0.7,0.2-1c0.1-0.3,0.3-0.6,0.6-0.8
									c0.3-0.2,0.5-0.4,0.9-0.5c0.3-0.1,0.7-0.2,1-0.1c0.3,0,0.7,0.1,1,0.2c0.3,0.1,0.6,0.3,0.8,0.6c0.2,0.2,0.4,0.5,0.5,0.8
									L383.1,252.2z"/>
								<path class="st11" d="M393.8,261.1c-2.2-5.5-5.4-8.7-7.4-8.7c-0.2,0-0.3,0-0.5,0.1c-0.9,0.3-1.5,1.8-1.6,3.9
									c0,2.6,0.4,5.2,1.3,7.7L393.8,261.1z"/>
								<path class="st11" d="M395.5,260.5l6.9-2.4l5.5-2c-0.1-0.4-0.3-0.7-0.6-1c-0.3-0.3-0.6-0.5-0.9-0.7
									c-0.3-0.2-0.7-0.3-1.1-0.3c-0.4,0-0.8,0-1.1,0.2l-4.3,1.5c-1.2-1.5-2.8-2.7-4.5-3.5c-1.8-0.8-3.7-1.2-5.6-1.2h-1.1
									C391.2,252.7,393.7,256,395.5,260.5z"/>
								<path class="st11" d="M377.5,264.2c0,0.9,0.2,1.7,0.4,2.6l5.9-2.1c-1.2-3.6-2-7.5-0.9-11.2
									C379.3,255.8,377.3,260,377.5,264.2z"/>
							</g>
						</g>
						<path class="st65" d="M353,209.8h79.5c8.3,0,15.1,6.8,15.1,15.1v79.5c0,8.3-6.8,15.1-15.1,15.1H353c-8.3,0-15.1-6.8-15.1-15.1
							v-79.5C337.9,216.6,344.6,209.8,353,209.8z"/>
						<path class="st0" d="M452.6,327.6H333.8c-0.5,0-1-0.1-1.4-0.3c-0.4-0.2-0.9-0.5-1.2-0.8c-0.3-0.3-0.6-0.7-0.8-1.2
							c-0.2-0.4-0.3-0.9-0.3-1.4c0-0.5,0.1-1,0.3-1.4c0.2-0.4,0.5-0.8,0.8-1.2c0.7-0.7,1.6-1.1,2.6-1.1h118.8c1,0,1.9,0.4,2.6,1.1
							c0.7,0.7,1.1,1.6,1.1,2.6c0,0.5-0.1,1-0.3,1.4c-0.2,0.4-0.5,0.9-0.8,1.2c-0.3,0.3-0.7,0.6-1.2,0.8
							C453.5,327.5,453,327.6,452.6,327.6z"/>
						<path class="st0" d="M407.4,327.6v18c0,0.6-0.2,1.2-0.6,1.7c-0.4,0.5-0.9,0.8-1.5,0.9l-26.5,4.4v-24.9h-7.1v26.1l-60.5,9.9
							c-1-1.5-2.6-2.6-4.3-3.1c-1.7-0.5-3.6-0.4-5.2,0.3c-1.7,0.7-3.1,1.9-3.9,3.5c-0.7,1.2-1,2.5-1,3.9c0,1.4,0.3,2.7,1,3.9
							c0.7,1.2,1.6,2.2,2.8,2.9c1.1,0.7,2.5,1.1,3.8,1.2c1.8,0.1,3.6-0.4,5.1-1.5c1.5-1.1,2.5-2.6,3-4.3l98-16.7
							c1.2-0.2,2.3-0.8,3-1.7c0.8-0.9,1.2-2.1,1.2-3.3v-21.1H407.4z"/>
						<path class="st7" d="M304.6,371.6c-0.7,0-1.4-0.2-1.9-0.6c-0.6-0.4-1-0.9-1.3-1.6c-0.3-0.6-0.3-1.3-0.2-2
							c0.1-0.7,0.5-1.3,1-1.8c0.5-0.5,1.1-0.8,1.8-1c0.7-0.1,1.4-0.1,2,0.2c0.6,0.3,1.2,0.7,1.6,1.3c0.4,0.6,0.6,1.3,0.6,1.9
							c0,0.5-0.1,0.9-0.3,1.3c-0.2,0.4-0.4,0.8-0.8,1.1c-0.3,0.3-0.7,0.6-1.1,0.8C305.5,371.5,305.1,371.6,304.6,371.6z"/>
					</g>
				</g>
				<g>
					<path class="st0" d="M474.5,520.5c80.7,0,146.2-2.7,146.2-6c0-3.3-65.5-6-146.2-6c-80.7,0-146.3,2.7-146.3,6
						C328.3,517.8,393.8,520.5,474.5,520.5z"/>
					<g>
						<path class="st8" d="M628.8,388.5c-4,26.8-33.3,96.3-44.8,123h-0.5c-26.8,3.6-65.6,5.9-108.9,5.9c-34.1,0.2-68.2-1.5-102.2-5
							h-0.5c-5.4-18.9-17-58.6-18.9-63c-2.3-5.8-5.1-5.2-12.3-13.4l-31.8-48.2h204.8V251.1c0,0,24.5,38.8,33.6,45.5
							c0,0-2.9-17.9-3.1-24.4s-1.3-15.3-1.3-15.3c-13.5-14.4-21.1-33.2-21.5-52.9c-0.3-32.6,8.3-58.8,28.6-55.4
							c20.3,3.4,22.9,48.1,27.9,59.1c5,11,17.9,20.2,24.6,44.2c6.7,23.9,24.6,68.7,26.6,75.3C630.9,333.7,633.7,355,628.8,388.5z"/>
						<path class="st0" d="M631.9,347.7c0-7-0.9-14-2.6-20.7c-0.6-2.1-2.8-7.9-5.9-16c-6.4-17.2-16.2-43.1-20.7-59.4
							c-4.3-15.6-11.4-25.1-17.2-32.7c-2.9-3.5-5.4-7.4-7.5-11.4c-1.7-4.7-3-9.6-3.8-14.5c-1.8-9.5-4.4-18.9-7.9-27.9
							c-4.4-10.3-9.8-15.8-16.5-17c-2.7-0.5-5.4-0.4-8,0.3c-2.6,0.7-5,2-7.1,3.8c-4.8,4-8.4,11-10.8,20.5
							c-2.4,10.3-3.4,20.8-3.2,31.4c0.3,13.7,4.1,27,11,38.8c3,5.1,6.5,9.9,10.6,14.2c0.1,1.2,1.1,9.2,1.3,15.1
							c0.2,5.5,2.4,19.3,3,23.3c-9.5-8.2-32.4-44.3-32.6-44.6l-0.8-1.3v137.8H308.1l32.4,48.9c2.2,2.5,4.6,4.9,7.2,7
							c2.3,1.5,4,3.7,5,6.2c1.8,4.3,13.3,43.9,18.7,62.7h1c-5.4-18.9-17-58.6-18.9-63.2c-1.1-2.7-2.9-5-5.3-6.6
							c-2.6-2-4.9-4.3-7.1-6.7l-31.4-47.6h204.4V252.5c4.4,6.9,24.7,38.3,32.9,44.5l0.8,0.6l-0.2-1.1c0-0.2-2.8-18-3.1-24.3
							c-0.3-6.3-1.3-15.3-1.3-15.3v-0.1l-0.1-0.1c-4.1-4.3-7.6-9-10.6-14.2c-6.9-11.6-10.7-24.9-10.9-38.4
							c-0.2-24.9,4.7-43.5,13.8-51.2c1.9-1.7,4.2-2.9,6.7-3.6c2.5-0.7,5.1-0.7,7.6-0.2c6.5,1.1,11.6,6.5,15.9,16.5
							c3.4,9,6,18.3,7.8,27.7c0.9,5,2.2,9.9,3.9,14.6c2.1,4.1,4.6,8,7.5,11.6c5.6,7.6,12.7,17,17,32.5c4.5,16.4,14.3,42.3,20.8,59.5
							c2.9,7.7,5.2,13.7,5.9,15.9c0.3,0.8,6.1,20.7,0,61.2c-3.9,26.7-33.5,96.6-44.9,123.1h1c11.6-26.9,40.8-96.1,44.8-122.8
							C631.5,375.3,632.3,361.5,631.9,347.7z"/>
						<g>
							<path class="st10" d="M322.1,254.4c-0.6-1.7-1.8-3.2-3.3-4.1l-6.2-3.7v2l5.4,3.2c1.2,0.7,2.1,1.8,2.5,3.1s0.4,2.7-0.1,4
								l-7.8,19.1v4.6l9.4-23C322.6,258,322.7,256.1,322.1,254.4z"/>
							<path class="st8" d="M510.6,10.5H312.5v427.8h198.1V10.5z"/>
							<path class="st10" d="M502.2,358.1c2.8,0,5.6-0.3,8.4-0.8V352c-2.8,0.5-5.6,0.8-8.4,0.8h-24.4v-3.6h23.7c3.1,0,6.1-0.4,9-1.2
								v-7.3c-2.9,0.9-5.9,1.4-9,1.4h-11.4v-23c0-7.1,2.8-13.9,7.8-18.9c3.5-3.5,7.9-5.9,12.6-7v-1.8c-5.2,1.2-10,3.8-13.8,7.6
								c-5.3,5.3-8.4,12.6-8.4,20.1v23h-10.6v-22.9c0-3.3-0.8-6.5-2.4-9.4c-1.6-2.9-3.9-5.3-6.6-7l-8.9-5.6l6.1-11.5h44.7v-1.8
								h-43.9l19.8-37.7l7.7,4.5c4.4,2.6,9.4,3.9,14.4,3.9h1.9v-7.1h-1.8c-3.8,0-7.6-1-10.9-2.9l-8.1-4.7l17.8-33.8l3,1.8v-26.4
								l-7.3,13.9l-26-15.2l11.6-23.9l21.7,13.7v-6.3l-19.3-12.2l6.2-12.9l13,8.5v-2.1l-12.3-8l12.3-25.1V91.8l-26.8,55.1
								l-22.7-14.3l28-56.6l21.4,10.8v-5.7l-19.1-9.6L510.6,33v-8.5l-2.9-1.4l-15.6,31.4l-92.9-43.9h-12.6l77.8,36.6l-27.9,4.6
								c-5.7,0.9-11.1,3.1-15.8,6.4c-4.7,3.3-8.6,7.6-11.4,12.6l-12,21.5l-44-27.8l8.1-1.2c2.3-0.4,4.5-1.3,6.3-2.8
								c1.8-1.5,3.2-3.4,4.1-5.6l5.2-13.5c0.8-2,1-4.1,0.8-6.2c-0.2-2.1-1-4.1-2.2-5.9l-5.3-7.8l4.5-11h-9.5l-19.9,49l-27.2-17.2
								c7-13.1,3.8-24.2-0.8-31.8h-4.9v2c4.1,6.3,7.1,15.7,1.3,27l-1.3-0.8V45l24.2,15.3l-12.3,30.8l-11.9-6.9v8.2l9.2,5.4
								l-9.2,22.9v5l10.8-27l5,2.9l-14.5,35.7l-1.3-0.7v26.9l6.2-15.2l49.8,29l-5.4,12.3c-2.1,4.7-2.4,9.9-0.9,14.8
								c1.5,4.9,4.7,9.1,9,11.8l31,19.5l-9.5,19.2l-55.8-35.3l-1.1-31.5c-0.1-1.9-0.6-3.8-1.5-5.5c-0.9-1.7-2.2-3.1-3.8-4.2
								l-18-12.4v2l17.1,11.8c1.4,0.9,2.5,2.2,3.3,3.6c0.8,1.4,1.2,3.1,1.3,4.7l1.1,30.3l-22.7-14.2v6.2l28.5,18l0.8,9.9
								c0.3,3.7,1.8,7.1,4.2,9.9l-10.8,25.2c-0.3,0.7-0.4,1.4-0.3,2.1c0.1,0.7,0.3,1.4,0.7,2c0.4,0.6,0.9,1.1,1.6,1.5
								c0.6,0.4,1.4,0.5,2.1,0.6c0.6,0,1.2-0.1,1.8-0.4l26.4-11.6c0.5,0.5,1.1,1,1.8,1.3l-10.5,24.7h-46.4v8.8h10.7l-0.8,14.2h-9.9
								v1.7h9.8l-0.7,13.1c0,0.5,0.1,1,0.3,1.5c0.2,0.5,0.5,0.9,0.8,1.3c0.4,0.4,0.8,0.7,1.3,0.9c0.5,0.2,1,0.3,1.5,0.3h27.2
								l-13.9,28l-21.3,18.2c-1.6,1.3-3.2,2.5-5,3.4v8c3.5-1.5,6.7-3.5,9.7-6l8.9-7.5l-18.5,37.2v21.6h175.8l-10.5-21.6v-58.6H502.2
								z M369.6,23.5l4.6,6.9c1,1.5,1.7,3.3,1.9,5.1s0,3.7-0.7,5.4l-5.2,13.5c-0.7,1.9-1.9,3.6-3.5,4.8c-1.6,1.3-3.5,2.1-5.5,2.4
								l-7.6,1.1L369.6,23.5z M466,307.3c2,1.3,3.7,3,4.8,5.1c1.1,2.1,1.8,4.4,1.8,6.8v86.5l-33.5-68.9l18.3-34.9L466,307.3z
								 M408.2,298.1c7.5-3.4,13.9-8.8,18.7-15.4l23,14.6l-15.7,29.8l-3.2-6.7C426.2,310.5,418.1,302.7,408.2,298.1z M429.2,336.7
								l-2.4,4.6l-7.1-14.5c-2.9-5.9-7.4-11-13.1-14.5c-5.6-3.5-12.1-5.4-18.7-5.4h-13.1l2.2-4.4h11.3c7.2,0,14.3,2.1,20.5,5.9
								c6.1,3.8,11.1,9.3,14.3,15.8L429.2,336.7z M441.6,211.9l-15.2-8.8l17-34.4l14.6,8.6L441.6,211.9z M459.5,178.1l7.2,4.2
								L450,216.6l-6.9-4L459.5,178.1z M447,223.1L423.1,272c-0.2,0.5-0.5,1-0.8,1.6l0.1,0.1l-6.2-4l24-50.5L447,223.1z
								 M457.9,281.9l-4.5-2.5c-1.8-1-3.2-2.7-3.8-4.7s-0.5-4.1,0.4-6l4.7-9.7c0.5-1,1.2-2,2.1-2.7c0.9-0.7,1.9-1.3,3-1.6
								c1.1-0.3,2.3-0.4,3.4-0.2c1.1,0.2,2.2,0.6,3.2,1.2l3.9,2.5L457.9,281.9z M471.3,256.6l-3.8-2.4c-1.2-0.8-2.5-1.3-3.9-1.5
								c-1.4-0.2-2.8-0.1-4.2,0.3c-1.4,0.4-2.6,1-3.7,1.9c-1.1,0.9-2,2-2.6,3.3l-4.7,9.7c-1.1,2.3-1.3,4.9-0.6,7.4
								c0.8,2.4,2.4,4.5,4.6,5.7l4.6,2.5l-4.7,9l-22.6-14.3c0.4-0.8,0.9-1.6,1.3-2.4l23.4-48.3l24.5,14.3L471.3,256.6z M500.1,201.6
								l-17.8,33.8L457.6,221l16.7-34.4L500.1,201.6z M481.5,151.8L469.8,176l-7.2-4.3l11.6-24.5L481.5,151.8z M472.7,146.2
								L461,170.8l-14.5-8.5l12.3-24.9L472.7,146.2z M413.9,73.4c2.4-4.3,5.8-8,9.8-10.9c4.1-2.8,8.7-4.7,13.6-5.5l35.4-5.8l17,8.1
								L481,76.9l-12.3-6.3c-3.9-2-8.4-2.4-12.5-1.1c-4.2,1.3-7.6,4.2-9.7,8l-1.7,3.1c-1,1.8-2.3,3.4-4,4.7
								c-1.6,1.3-3.5,2.2-5.5,2.7s-4.1,0.6-6.1,0.3c-2-0.3-4-1.1-5.7-2.2l-12.1-7.8L413.9,73.4z M410.4,79.8l12,7.8
								c1.9,1.2,4.1,2.1,6.4,2.5c2.3,0.4,4.6,0.3,6.8-0.3c2.2-0.6,4.3-1.6,6.2-3c1.8-1.4,3.3-3.2,4.4-5.2l1.7-3.1
								c1.9-3.4,5-6,8.7-7.2c3.7-1.2,7.8-0.8,11.2,1l12.3,6.3l-25,50.5l-53.4-33.8L410.4,79.8z M446.8,129.9l-4,5
								c-0.6,0.8-1.5,1.3-2.5,1.5c-1,0.2-2,0-2.9-0.5l-5.9-3.4c-0.9-0.5-1.7-1.3-2-2.3c-0.4-1-0.4-2.1,0-3.1l2.7-6.6L446.8,129.9z
								 M430.7,119.8l-2.8,6.9c-0.5,1.4-0.6,2.9-0.1,4.2c0.5,1.4,1.4,2.5,2.7,3.3l5.9,3.3c0.9,0.5,1.9,0.8,3,0.8
								c0.9,0,1.8-0.2,2.6-0.6c0.8-0.4,1.5-1,2.1-1.6l4.2-5.2l4.6,2.9l-12.5,25.1l-65.7-38.4l14.6-27L430.7,119.8z M351,69.2
								l35.3,22.2l-14.6,27.2l-33-19.2L351,69.2z M326,92.1l12.4-30.8l5,3.3L331,95L326,92.1z M321.4,141.8l14.5-35.7l2.4,1.4
								l-4,41.8L321.4,141.8z M336,150.5l4-41.8l97.1,56.6l-17,34.4L336,150.5z M373.2,213.3c-3.6-2.3-6.3-5.8-7.6-9.8
								c-1.3-4.1-1-8.5,0.8-12.4l5.2-11.9l45.5,26.6l-13.3,26.8L373.2,213.3z M423.4,209.3l15.3,8.9l-24,50.5l-15.9-10L423.4,209.3z
								 M396.4,263.3l23,14.6c-3.6,4.9-8.3,8.8-13.7,11.6c-5.4,2.7-11.4,4.2-17.4,4.2h-7L396.4,263.3z M340.4,277.6
								c-0.5,0.2-1,0.3-1.6,0.2c-0.5-0.1-1-0.4-1.4-0.7c-0.4-0.4-0.6-0.9-0.8-1.4s0-1.1,0.2-1.6l10.5-24.6c0.5,0.5,1.1,0.9,1.7,1.4
								l16.9,11.4c-0.1,0.4-0.1,0.8-0.1,1.3c0,1,0.3,1.9,0.7,2.7L340.4,277.6z M369,266.6c-0.8-0.8-1.3-1.9-1.3-3.1
								c0-0.9,0.3-1.7,0.7-2.4c0.5-0.7,1.2-1.3,2-1.6c0.8-0.3,1.7-0.4,2.6-0.2c0.9,0.2,1.6,0.6,2.3,1.2c0.6,0.6,1,1.4,1.2,2.3
								c0.2,0.9,0.1,1.7-0.3,2.5c-0.3,0.8-0.9,1.5-1.6,2c-0.7,0.5-1.6,0.7-2.5,0.7C370.9,267.8,369.8,267.4,369,266.6z M371.1,269.4
								c0.3,0.1,0.6,0.1,1,0.1c1.1,0,2.2-0.3,3.1-0.8s1.7-1.3,2.3-2.3c0.5-0.9,0.8-2,0.8-3.1c0-1.1-0.3-2.2-0.9-3.1
								c-0.6-0.9-1.4-1.7-2.3-2.2c-1-0.5-2-0.8-3.1-0.8c-1.1,0-2.2,0.3-3.1,0.9c-0.9,0.6-1.7,1.4-2.2,2.3l-16.5-11.2
								c-1.9-1.3-3.4-2.9-4.6-4.9c-1.1-1.9-1.8-4.1-2-6.4l-0.6-8.5l47.5,30l-16.9,34.1l-12.7,0L371.1,269.4z M325.6,333.8
								c-0.3,0-0.6-0.1-0.8-0.2c-0.3-0.1-0.5-0.3-0.7-0.5c-0.2-0.2-0.4-0.5-0.5-0.7c-0.1-0.3-0.1-0.6-0.1-0.9l1.5-29h44.2l-2.2,4.4
								h-0.3v0.5l-13.1,26.4H325.6z M327.8,401.8l6.6,3.2c0.6,0.3,1.1,0.7,1.6,1.2c0.4,0.5,0.8,1.1,1,1.7c0.2,0.6,0.3,1.3,0.3,2
								c0,0.7-0.2,1.3-0.5,1.9l-5.4,10.5c-0.6,1.1-1.5,1.9-2.7,2.4c-1.2,0.4-2.4,0.4-3.6,0l-7.2-2.8L327.8,401.8z M377.1,435.8
								l-39.5,0.1c-8.3,0-16.6-1.6-24.3-4.8l3.8-7.7l7.3,2.9c1.6,0.6,3.3,0.6,4.9,0c1.6-0.6,2.9-1.7,3.6-3.2l5.4-10.5
								c0.4-0.8,0.7-1.7,0.7-2.6c0.1-0.9,0-1.8-0.3-2.6c-0.3-0.9-0.7-1.7-1.3-2.4c-0.6-0.7-1.3-1.3-2.1-1.7l-6.6-3.2l8.5-17.2
								l20.9,34.4c2.1,3.5,5.1,6.3,8.6,8.3c3.5,2,7.5,3,11.6,3h2.6L377.1,435.8z M381.6,427h-3.5c-3.8,0-7.4-1-10.7-2.8
								c-3.3-1.8-6-4.5-8-7.7l-21.3-35.3l35.9-72.5h13.9c6.3,0,12.5,1.8,17.8,5.1c5.3,3.3,9.6,8.1,12.4,13.8l7.6,15.7l-4,7.5
								l-13.2-8.1c-1.7-1.1-3.7-1.8-5.7-2.1c-2-0.3-4.1-0.1-6.1,0.4c-2,0.6-3.8,1.5-5.4,2.8c-1.6,1.3-2.9,2.9-3.8,4.7L363.8,395
								c-1.2,2.3-1.7,4.8-1.6,7.3c0.1,2.5,0.8,5,2.2,7.2c1.3,2.2,3.2,4,5.4,5.2c2.2,1.2,4.7,1.9,7.2,1.9h10.1L381.6,427z
								 M419.3,355.4L390,411.3h-13c-1.6,0-3.2-0.4-4.7-1.2c-1.4-0.8-2.6-1.9-3.5-3.3c-0.9-1.4-1.3-3-1.4-4.6
								c-0.1-1.6,0.3-3.3,1-4.7l23.8-46.5c0.6-1.2,1.4-2.2,2.5-3c1-0.8,2.2-1.4,3.5-1.8c1.3-0.4,2.6-0.4,3.9-0.3s2.6,0.6,3.7,1.3
								L419.3,355.4z M387.1,435.9l46.9-89.3l29.1,59.9c-1.1,6.2-3.6,12.1-7.3,17.2c-3.7,5.1-8.5,9.3-14.1,12.2H387.1z M445.2,435.9
								c9.7-6.1,16.5-15.7,19.1-26.8l13,26.8H445.2z"/>
							<g>
								<path class="st11" d="M486.3,382.6H336.9c-5.8,0-10.6,4.7-10.6,10.6v19.1c0,5.8,4.7,10.6,10.6,10.6h149.4
									c5.8,0,10.6-4.7,10.6-10.6v-19.1C496.9,387.3,492.1,382.6,486.3,382.6z"/>
								<text transform="matrix(1 0 0 1 336.9684 400.6917)" class="st8 st66 st67">Your order is on the way</text>
								<path class="st7" d="M336.9,411.5v-7.8h3.2c2.2,0,2.9,1,2.9,2.2c0,0.4-0.1,0.9-0.3,1.3c-0.3,0.4-0.6,0.6-1.1,0.8v0.1
									c0.9,0.3,1.2,0.8,1.4,1.9l0.3,1.6H342l-0.3-1.5c0-0.2-0.1-0.4-0.2-0.6c-0.1-0.2-0.2-0.3-0.4-0.5c-0.2-0.1-0.3-0.2-0.5-0.3
									c-0.2-0.1-0.4-0.1-0.6,0h-1.8v2.9H336.9z M338.2,407.4h1.8c1.2,0,1.6-0.5,1.6-1.3s-0.5-1.3-1.6-1.3h-1.8V407.4z"/>
								<path class="st7" d="M343.7,408.6c0-0.4,0-0.8,0.1-1.2c0.1-0.4,0.4-0.7,0.6-1c0.3-0.3,0.6-0.5,1-0.6
									c0.4-0.1,0.8-0.2,1.2-0.2c0.4,0,0.8,0,1.1,0.2c0.4,0.1,0.7,0.3,0.9,0.6c0.3,0.3,0.5,0.6,0.6,1c0.1,0.4,0.2,0.7,0.1,1.1
									c0,0.1,0,0.3,0,0.4H345c0,0.2,0,0.4,0.1,0.7c0.1,0.2,0.2,0.4,0.4,0.5c0.2,0.2,0.3,0.3,0.6,0.4c0.2,0.1,0.4,0.1,0.7,0.1
									c0.3,0,0.5,0,0.8-0.2c0.2-0.1,0.4-0.3,0.6-0.5h1.2c-0.2,0.5-0.5,1-1,1.3c-0.5,0.3-1,0.4-1.6,0.4c-0.4,0-0.8,0-1.2-0.2
									c-0.4-0.1-0.7-0.4-1-0.6c-0.3-0.3-0.5-0.6-0.6-1C343.7,409.4,343.7,409,343.7,408.6z M348.2,408.1c0-0.2,0-0.4-0.1-0.6
									c-0.1-0.2-0.2-0.4-0.3-0.5c-0.1-0.1-0.3-0.2-0.5-0.3c-0.2-0.1-0.4-0.1-0.6-0.1c-0.4,0-0.8,0.2-1.1,0.4s-0.5,0.7-0.5,1.1
									H348.2z"/>
								<path class="st7" d="M350.1,408.6c0-0.4,0-0.8,0.1-1.1c0.1-0.4,0.3-0.7,0.5-1c0.2-0.3,0.6-0.5,0.9-0.7
									c0.3-0.2,0.7-0.2,1.1-0.2c0.4,0,0.8,0,1.1,0.2c0.4,0.2,0.7,0.4,0.9,0.8h0.1l0.1-0.8h1.1v5.6H355l-0.1-0.8h-0.1
									c-0.2,0.3-0.5,0.6-0.9,0.8c-0.4,0.2-0.8,0.2-1.1,0.2c-0.4,0-0.7-0.1-1.1-0.2c-0.3-0.2-0.6-0.4-0.9-0.7
									c-0.2-0.3-0.4-0.6-0.5-1C350.1,409.4,350.1,409,350.1,408.6z M354.8,408.6c-0.1-0.3-0.2-0.6-0.4-0.9
									c-0.2-0.2-0.5-0.4-0.8-0.5c-0.3-0.1-0.7-0.1-1,0c-0.3,0.1-0.6,0.3-0.8,0.5c-0.2,0.2-0.4,0.6-0.4,0.9c0,0.3,0,0.7,0.1,1
									c0.1,0.3,0.4,0.6,0.6,0.7c0.3,0.2,0.6,0.3,0.9,0.3c0.3,0,0.5,0,0.7-0.1c0.2-0.1,0.4-0.3,0.6-0.5c0.2-0.2,0.3-0.4,0.4-0.7
									C354.9,409.1,354.9,408.9,354.8,408.6z"/>
								<path class="st7" d="M356.9,408.6c0-0.4,0-0.8,0.2-1.2c0.1-0.4,0.4-0.7,0.6-1c0.3-0.3,0.6-0.5,1-0.6
									c0.4-0.1,0.8-0.2,1.2-0.2c0.6-0.1,1.2,0.1,1.7,0.5c0.5,0.4,0.8,0.9,0.9,1.5h-1.2c-0.1-0.3-0.3-0.6-0.5-0.8
									c-0.3-0.2-0.6-0.3-0.9-0.3c-1,0-1.7,0.7-1.7,2s0.7,2,1.7,2c0.3,0,0.7-0.1,0.9-0.3c0.3-0.2,0.5-0.5,0.5-0.8h1.2
									c-0.1,0.6-0.4,1.2-0.9,1.5c-0.5,0.4-1.1,0.6-1.7,0.5c-0.4,0-0.8,0-1.2-0.2c-0.4-0.1-0.7-0.3-1-0.6c-0.3-0.3-0.5-0.6-0.6-1
									C356.9,409.4,356.9,409,356.9,408.6z"/>
								<path class="st7" d="M363.3,411.5v-7.8h1.2v3h0.1c0.3-0.4,0.7-0.7,1.2-0.9c0.5-0.1,1-0.1,1.5,0c0.5,0.2,0.9,0.5,1.2,0.9
									c0.3,0.4,0.4,0.9,0.4,1.4v3.3h-1.3v-3.3c0-1-0.5-1.6-1.4-1.6c-0.2,0-0.5,0-0.7,0.1c-0.2,0.1-0.4,0.2-0.6,0.4
									c-0.2,0.2-0.3,0.4-0.4,0.6c-0.1,0.2-0.1,0.5-0.1,0.7v2.9L363.3,411.5z"/>
								<path class="st7" d="M369.9,404.3c0-0.2,0-0.3,0.1-0.4c0.1-0.1,0.2-0.2,0.3-0.3c0.1-0.1,0.3-0.1,0.4,0
									c0.2,0,0.3,0.1,0.4,0.2c0.1,0.1,0.2,0.2,0.2,0.4c0,0.2,0,0.3,0,0.4c-0.1,0.1-0.2,0.3-0.3,0.3c-0.1,0.1-0.3,0.1-0.4,0.1
									c-0.1,0-0.2,0-0.3,0c-0.1,0-0.2-0.1-0.2-0.2c-0.1-0.1-0.1-0.2-0.2-0.2C369.9,404.5,369.9,404.4,369.9,404.3z M370,411.5
									v-5.6h1.2v5.6H370z"/>
								<path class="st7" d="M372.3,411.5v-3.1c0-0.4,0-0.7,0.1-1.1c0.1-0.4,0.3-0.7,0.6-0.9c0.3-0.3,0.6-0.5,1-0.6
									c0.4-0.1,0.7-0.1,1.1-0.1c1.7,0,2.8,0.8,2.8,2.6v3.2h-1.2v-3.2c0-0.2,0-0.4-0.1-0.6c-0.1-0.2-0.2-0.4-0.3-0.5
									c-0.2-0.2-0.3-0.3-0.5-0.3c-0.2-0.1-0.4-0.1-0.6-0.1c-0.2,0-0.4,0-0.6,0.1c-0.2,0.1-0.4,0.2-0.5,0.4
									c-0.2,0.2-0.3,0.3-0.3,0.6c-0.1,0.2-0.1,0.4-0.1,0.6v3.1H372.3z"/>
								<path class="st7" d="M379.1,411.8h1.2c0,0.6,0.5,0.9,1.4,0.9c0.2,0,0.5,0,0.7-0.1c0.2-0.1,0.4-0.2,0.6-0.4
									c0.2-0.2,0.3-0.4,0.4-0.6c0.1-0.2,0.1-0.5,0.1-0.7v-0.7h-0.1c-0.2,0.3-0.5,0.6-0.9,0.8c-0.4,0.2-0.8,0.2-1.1,0.2
									c-0.7-0.1-1.3-0.4-1.8-0.9c-0.5-0.5-0.7-1.2-0.7-1.9c0-0.7,0.3-1.4,0.7-1.9c0.5-0.5,1.1-0.8,1.8-0.9c0.4,0,0.8,0,1.1,0.2
									c0.4,0.2,0.7,0.4,0.9,0.8h0.1l0.1-0.8h1.1v5c0,0.4,0,0.8-0.2,1.2c-0.1,0.4-0.4,0.7-0.6,1c-0.3,0.3-0.6,0.5-1,0.6
									c-0.4,0.1-0.8,0.2-1.2,0.1C380,413.7,379.1,413,379.1,411.8z M383.5,408.4c0-0.2,0-0.5-0.1-0.7c-0.1-0.2-0.2-0.4-0.4-0.6
									c-0.2-0.2-0.4-0.3-0.6-0.4c-0.2-0.1-0.4-0.1-0.7-0.1c-0.2,0-0.5,0-0.7,0.1c-0.2,0.1-0.4,0.2-0.6,0.4
									c-0.2,0.2-0.3,0.4-0.4,0.6c-0.1,0.2-0.2,0.5-0.2,0.7s0.1,0.5,0.2,0.7c0.1,0.2,0.2,0.4,0.4,0.6c0.2,0.2,0.4,0.3,0.6,0.4
									c0.2,0.1,0.5,0.1,0.7,0.1c0.2,0,0.5,0,0.7-0.1c0.2-0.1,0.4-0.2,0.6-0.4c0.2-0.2,0.3-0.4,0.4-0.6
									C383.5,408.9,383.5,408.7,383.5,408.4z"/>
								<path class="st7" d="M388.7,404.3c0-0.2,0-0.3,0.1-0.4c0.1-0.1,0.2-0.2,0.3-0.3c0.1-0.1,0.3-0.1,0.4,0
									c0.2,0,0.3,0.1,0.4,0.2c0.1,0.1,0.2,0.2,0.2,0.4c0,0.2,0,0.3,0,0.4c-0.1,0.1-0.2,0.3-0.3,0.3c-0.1,0.1-0.3,0.1-0.4,0.1
									c-0.1,0-0.2,0-0.3,0c-0.1,0-0.2-0.1-0.2-0.2c-0.1-0.1-0.1-0.2-0.2-0.2C388.7,404.5,388.7,404.4,388.7,404.3z M388.8,411.5
									v-5.6h1.3v5.6H388.8z"/>
								<path class="st7" d="M391.1,411.5v-3.1c0-0.4,0-0.7,0.1-1.1c0.1-0.4,0.3-0.7,0.6-0.9s0.6-0.5,1-0.6c0.4-0.1,0.7-0.1,1.1-0.1
									c1.7,0,2.8,0.8,2.8,2.6v3.2h-1.2v-3.2c0-0.2,0-0.4-0.1-0.6c-0.1-0.2-0.2-0.4-0.3-0.5c-0.2-0.2-0.3-0.3-0.5-0.3
									c-0.2-0.1-0.4-0.1-0.6-0.1c-0.2,0-0.4,0-0.6,0.1c-0.2,0.1-0.4,0.2-0.5,0.4c-0.2,0.2-0.3,0.3-0.3,0.6
									c-0.1,0.2-0.1,0.4-0.1,0.6v3.1H391.1z"/>
								<path class="st7" d="M400.5,409.4c0,0,0-0.1,0-0.2h1.3v0.1c0,0.7,0.5,1.3,1.4,1.3c0.2,0,0.4,0,0.6-0.1
									c0.2-0.1,0.4-0.2,0.5-0.3c0.1-0.1,0.2-0.3,0.3-0.5c0.1-0.2,0.1-0.4,0.1-0.6c0-0.2,0-0.4-0.1-0.6c-0.1-0.2-0.2-0.4-0.3-0.5
									c-0.1-0.1-0.3-0.3-0.5-0.3c-0.2-0.1-0.4-0.1-0.6-0.1c-0.3,0-0.5,0-0.8,0.1c-0.2,0.1-0.5,0.3-0.6,0.5l-1.2-0.2l0.2-4.3h4.5
									v1.1h-3.5l-0.1,2.2h0.1c0.5-0.3,1-0.5,1.6-0.5c0.3,0,0.7,0,1,0.2c0.3,0.1,0.6,0.3,0.8,0.5c0.2,0.2,0.4,0.5,0.5,0.8
									c0.1,0.3,0.2,0.6,0.1,1c0,0.4-0.1,0.7-0.2,1c-0.1,0.3-0.3,0.6-0.6,0.9c-0.3,0.2-0.6,0.4-0.9,0.5c-0.3,0.1-0.7,0.2-1,0.1
									C401.2,411.6,400.5,410.6,400.5,409.4z"/>
								<path class="st7" d="M409.7,411.5v-7.8h1.9l2.3,6.1h0.1l2.3-6.1h1.8v7.8H417v-5.8h-0.1l-2.3,5.8h-1.3l-2.3-5.8h-0.1v5.8
									H409.7z"/>
								<path class="st7" d="M419.1,404.3c0-0.2,0-0.3,0.1-0.4c0.1-0.1,0.2-0.2,0.3-0.3c0.1-0.1,0.3-0.1,0.4-0.1
									c0.2,0,0.3,0.1,0.4,0.2c0.1,0.1,0.2,0.2,0.2,0.4c0,0.2,0,0.3,0,0.4c-0.1,0.1-0.2,0.3-0.3,0.3c-0.1,0.1-0.3,0.1-0.4,0.1
									c-0.1,0-0.2,0-0.3,0c-0.1,0-0.2-0.1-0.3-0.2c-0.1-0.1-0.1-0.2-0.2-0.2C419.2,404.5,419.1,404.4,419.1,404.3z M419.3,411.5
									v-5.6h1.2v5.6H419.3z"/>
								<path class="st7" d="M421.6,411.5v-3.1c0-0.4,0-0.7,0.1-1.1c0.1-0.4,0.3-0.7,0.6-0.9c0.3-0.3,0.6-0.5,1-0.6
									c0.4-0.1,0.7-0.1,1.1-0.1c1.7,0,2.8,0.8,2.8,2.6v3.2H426v-3.2c0-0.2,0-0.4,0-0.6c-0.1-0.2-0.2-0.4-0.3-0.5
									c-0.2-0.2-0.3-0.3-0.5-0.3c-0.2-0.1-0.4-0.1-0.6-0.1c-0.2,0-0.4,0-0.6,0.1c-0.2,0.1-0.4,0.2-0.5,0.4
									c-0.2,0.2-0.3,0.3-0.3,0.6c-0.1,0.2-0.1,0.4-0.1,0.6v3.1H421.6z"/>
								<path class="st8" d="M473.5,394.2h-9.4c-1.9,0-3.4,1.5-3.4,3.4v9.4c0,1.9,1.5,3.4,3.4,3.4h9.4c1.9,0,3.4-1.5,3.4-3.4v-9.4
									C476.9,395.7,475.4,394.2,473.5,394.2z"/>
								<path class="st0" d="M467.3,403.8c-0.1,0-0.1-0.1-0.2-0.1c-0.1,0-0.2,0-0.2,0.1l-1.8,1.8v-1.2c0-0.1,0-0.2-0.1-0.2
									s-0.1-0.1-0.2-0.1c-0.1,0-0.1,0-0.2,0.1c-0.1,0.1-0.1,0.1-0.1,0.2v2c0,0,0,0.1,0,0.1c0,0.1,0.1,0.1,0.2,0.2h2
									c0.1,0,0.2,0,0.2-0.1c0.1-0.1,0.1-0.1,0.1-0.2c0-0.1,0-0.2-0.1-0.2s-0.1-0.1-0.2-0.1h-1.2l1.8-1.9c0-0.1,0.1-0.1,0.1-0.2
									C467.4,403.9,467.4,403.8,467.3,403.8z"/>
								<path class="st0" d="M467.3,400.9c0-0.1,0.1-0.1,0.1-0.2c0-0.1,0-0.1-0.1-0.2l-1.8-1.8h1.2c0.1,0,0.2,0,0.2-0.1
									c0.1-0.1,0.1-0.1,0.1-0.2c0-0.1,0-0.1-0.1-0.2c-0.1-0.1-0.1-0.1-0.2-0.1h-2c0,0-0.1,0-0.2,0.2v2c0,0.1,0,0.2,0.1,0.2
									c0.1,0.1,0.1,0.1,0.2,0.1c0.1,0,0.2,0,0.2-0.1c0.1-0.1,0.1-0.1,0.1-0.2V399l1.8,1.8c0,0.1,0.1,0.1,0.2,0.1
									C467.2,400.9,467.3,400.9,467.3,400.9z"/>
								<path class="st0" d="M470.2,400.9C470.2,400.9,470.3,400.9,470.2,400.9c0.1,0.1,0.2,0.1,0.2,0.1c0,0,0.1,0,0.1,0
									c0,0,0.1,0,0.1-0.1l1.8-1.8v1.2c0,0.1,0,0.2,0.1,0.2c0.1,0.1,0.1,0.1,0.2,0.1c0.1,0,0.1,0,0.2-0.1c0.1-0.1,0.1-0.1,0.1-0.2
									v-2c0,0,0-0.1-0.1-0.1c0,0-0.1,0-0.1-0.1h-2c-0.1,0-0.2,0-0.2,0.1c-0.1,0.1-0.1,0.1-0.1,0.2c0,0.1,0,0.2,0.1,0.2
									c0.1,0.1,0.1,0.1,0.2,0.1h1.2l-1.8,1.8c-0.1,0-0.1,0.1-0.1,0.2C470.1,400.7,470.2,400.8,470.2,400.9z"/>
								<path class="st0" d="M470.2,403.8C470.2,403.8,470.2,403.8,470.2,403.8c-0.1,0.1-0.1,0.2-0.1,0.2c0,0,0,0.1,0,0.1
									c0,0,0,0.1,0.1,0.1l1.8,1.8h-1.2c-0.1,0-0.2,0-0.2,0.1c-0.1,0.1-0.1,0.1-0.1,0.2c0,0.1,0,0.2,0.1,0.2
									c0.1,0.1,0.1,0.1,0.2,0.1h2c0,0,0.1,0,0.2-0.2c0,0,0-0.1,0-0.1v-2c0-0.1,0-0.1-0.1-0.2c-0.1-0.1-0.1-0.1-0.2-0.1
									c-0.1,0-0.2,0-0.2,0.1c-0.1,0.1-0.1,0.1-0.1,0.2v1.2l-1.8-1.8c-0.1,0-0.1,0-0.2,0C470.3,403.7,470.3,403.7,470.2,403.8z"/>
								<path class="st8" d="M485,405.2c-0.3,0-0.7,0.1-0.9,0.4c-0.2,0.2-0.4,0.6-0.4,0.9c0,0.3,0.1,0.7,0.4,0.9
									c0.2,0.2,0.6,0.4,0.9,0.4s0.7-0.1,0.9-0.4c0.2-0.2,0.4-0.6,0.4-0.9c0-0.3-0.1-0.7-0.4-0.9
									C485.7,405.3,485.4,405.2,485,405.2z"/>
								<path class="st8" d="M485,401.1c-0.2,0-0.5,0.1-0.7,0.2c-0.2,0.1-0.4,0.3-0.5,0.6c-0.1,0.2-0.1,0.5-0.1,0.7
									c0,0.2,0.2,0.5,0.3,0.6c0.2,0.2,0.4,0.3,0.6,0.3c0.2,0,0.5,0,0.7-0.1c0.2-0.1,0.4-0.3,0.6-0.5c0.1-0.2,0.2-0.4,0.2-0.7
									c0-0.3-0.1-0.7-0.4-0.9C485.7,401.2,485.4,401.1,485,401.1z"/>
								<path class="st8" d="M485,397c-0.2,0-0.5,0.1-0.7,0.2c-0.2,0.1-0.4,0.3-0.5,0.6c-0.1,0.2-0.1,0.5-0.1,0.7
									c0,0.2,0.2,0.5,0.3,0.6c0.2,0.2,0.4,0.3,0.6,0.3c0.2,0,0.5,0,0.7-0.1c0.2-0.1,0.4-0.3,0.6-0.5c0.1-0.2,0.2-0.4,0.2-0.7
									c0-0.3-0.1-0.7-0.4-0.9C485.7,397.1,485.4,397,485,397z"/>
							</g>
						</g>
						<defs>
							<filter id="Adobe_OpacityMaskFilter" filterUnits="userSpaceOnUse" x="312.5" y="10.5" width="198.1" height="43.4">
								<feColorMatrix  type="matrix" values="1 0 0 0 0  0 1 0 0 0  0 0 1 0 0  0 0 0 1 0"/>
							</filter>
						</defs>
						
							<mask maskUnits="userSpaceOnUse" x="312.5" y="10.5" width="198.1" height="43.4" id="mask4_744_2018_00000150814286955539578320000013805391622432084355_">
							<path class="st12" d="M510.6,10.5H312.5v427.8h198.1V10.5z"/>
						</mask>
						<g class="st69">
							<path class="st11" d="M312.5,10.5h198.1v35.2c0,2.2-0.9,4.3-2.4,5.8c-1.5,1.5-3.6,2.4-5.8,2.4H320.8c-2.2,0-4.3-0.9-5.8-2.4
								c-1.5-1.5-2.4-3.6-2.4-5.8L312.5,10.5L312.5,10.5z"/>
						</g>
						<g>
							<path class="st8" d="M384.3,46.8v-9.5h-3.7v-1.7h9.1v1.7h-3.6v9.5H384.3z"/>
							<path class="st8" d="M389.5,46.8v-8.1h1.6l0.2,1.3h0.2c0.3-0.5,0.8-0.8,1.3-1c0.5-0.2,1.1-0.3,1.7-0.2v1.6
								c-0.2,0-0.4,0-0.6,0c-1.7,0-2.5,0.9-2.5,2.7v3.7H389.5z"/>
							<path class="st8" d="M394.6,42.8c-0.1-0.5,0-1.1,0.1-1.6c0.2-0.5,0.4-1,0.8-1.4c0.4-0.4,0.8-0.7,1.3-0.9
								c0.5-0.2,1-0.3,1.6-0.3c0.5,0,1.1,0.1,1.6,0.3c0.5,0.2,0.9,0.6,1.2,1h0.2l0.2-1.1h1.6v8.1h-1.6l-0.2-1.2h-0.1
								c-0.3,0.5-0.7,0.8-1.2,1.1c-0.5,0.2-1,0.3-1.6,0.3c-0.5,0-1.1-0.1-1.6-0.3c-0.5-0.2-0.9-0.5-1.3-1c-0.4-0.4-0.6-0.9-0.8-1.4
								C394.5,43.9,394.5,43.3,394.6,42.8z M401.3,42.8c0-0.4,0-0.7-0.1-1c-0.1-0.3-0.3-0.7-0.5-0.9c-0.2-0.3-0.5-0.5-0.8-0.6
								c-0.3-0.1-0.7-0.2-1-0.2c-0.4,0-0.7,0.1-1,0.2c-0.3,0.1-0.6,0.4-0.8,0.6c-0.2,0.3-0.4,0.6-0.5,0.9c-0.1,0.3-0.1,0.7-0.1,1
								c0,1.8,1,2.8,2.4,2.8c0.4,0,0.7-0.1,1-0.2c0.3-0.1,0.6-0.4,0.9-0.6c0.2-0.3,0.4-0.6,0.5-0.9
								C401.3,43.5,401.3,43.1,401.3,42.8z"/>
							<path class="st8" d="M404.3,42.8c-0.1-0.6,0-1.1,0.2-1.7c0.2-0.5,0.5-1,0.9-1.4c0.4-0.4,0.9-0.7,1.4-0.9
								c0.5-0.2,1.1-0.3,1.7-0.2c0.9-0.1,1.8,0.2,2.5,0.8c0.7,0.6,1.2,1.4,1.3,2.3h-1.7c-0.1-0.5-0.4-0.9-0.7-1.2
								c-0.4-0.3-0.8-0.4-1.3-0.4c-1.4,0-2.4,1-2.4,2.8c0,1.9,1.1,2.8,2.3,2.8c0.5,0,0.9-0.1,1.3-0.4c0.4-0.3,0.6-0.7,0.7-1.1h1.7
								c-0.1,0.9-0.6,1.7-1.3,2.2c-0.7,0.6-1.6,0.8-2.5,0.7c-0.6,0-1.1,0-1.7-0.2c-0.5-0.2-1-0.5-1.4-0.9c-0.4-0.4-0.7-0.9-0.9-1.4
								C404.3,43.9,404.2,43.3,404.3,42.8z"/>
							<path class="st8" d="M413.4,46.8V35.7h1.9V42l3.4-3.3h2.2l-3.9,3.7l3.9,4.3h-2.3l-3.4-3.7v3.7H413.4z"/>
							<path class="st8" d="M421.3,36.5c0-0.1,0-0.3,0.1-0.4c0.1-0.1,0.1-0.3,0.2-0.4c0.1-0.1,0.2-0.2,0.4-0.2
								c0.1,0,0.3-0.1,0.4-0.1c0.1,0,0.3,0,0.4,0.1c0.1,0.1,0.3,0.1,0.4,0.2c0.1,0.1,0.2,0.2,0.2,0.4c0.1,0.1,0.1,0.3,0.1,0.4
								c0,0.1,0,0.3-0.1,0.4c-0.1,0.1-0.1,0.3-0.2,0.4c-0.1,0.1-0.2,0.2-0.4,0.2c-0.1,0.1-0.3,0.1-0.4,0.1c-0.1,0-0.3,0-0.4-0.1
								c-0.1-0.1-0.3-0.1-0.4-0.2c-0.1-0.1-0.2-0.2-0.2-0.4C421.4,36.8,421.3,36.7,421.3,36.5z M421.5,46.8v-8.1h1.8v8.1H421.5z"/>
							<path class="st8" d="M424.8,46.8v-4.4c-0.1-0.5,0-1.1,0.2-1.6c0.2-0.5,0.5-1,0.9-1.3c0.4-0.4,0.9-0.6,1.4-0.8
								c0.5-0.2,1.1-0.2,1.6-0.1c2.5,0,4,1.1,4,3.8v4.5h-1.8v-4.5c0-0.3,0-0.6-0.1-0.9c-0.1-0.3-0.3-0.6-0.5-0.8
								c-0.2-0.2-0.5-0.4-0.8-0.5c-0.3-0.1-0.6-0.1-0.9-0.1c-0.3,0-0.6,0-0.9,0.1c-0.3,0.1-0.6,0.3-0.8,0.5
								c-0.2,0.2-0.4,0.5-0.5,0.8c-0.1,0.3-0.1,0.6-0.1,0.9v4.4H424.8z"/>
							<path class="st8" d="M434.5,47.3L434.5,47.3l1.8-0.1c0,0.9,0.7,1.3,2,1.3c0.3,0,0.7,0,1-0.1c0.3-0.1,0.6-0.3,0.8-0.6
								c0.2-0.2,0.4-0.5,0.5-0.9c0.1-0.3,0.1-0.7,0.1-1v-1h-0.2c-0.3,0.5-0.7,0.8-1.2,1.1c-0.5,0.2-1,0.3-1.6,0.3
								c-1-0.1-1.9-0.5-2.6-1.2c-0.7-0.7-1.1-1.7-1.1-2.7c0-1,0.4-2,1.1-2.7c0.7-0.7,1.6-1.2,2.6-1.2c0.5,0,1.1,0.1,1.6,0.3
								c0.5,0.2,0.9,0.6,1.2,1h0.2l0.2-1.1h1.6v7.1c0,0.6-0.1,1.1-0.3,1.6c-0.2,0.5-0.5,1-0.9,1.4c-0.4,0.4-0.9,0.7-1.4,0.9
								c-0.5,0.2-1.1,0.2-1.6,0.2C435.7,50,434.5,49,434.5,47.3z M440.8,42.5c0-0.3,0-0.7-0.2-1c-0.1-0.3-0.3-0.6-0.5-0.8
								c-0.2-0.2-0.5-0.4-0.8-0.5c-0.3-0.1-0.6-0.2-1-0.2c-0.7,0-1.3,0.3-1.7,0.7c-0.5,0.5-0.7,1.1-0.7,1.7s0.3,1.3,0.7,1.7
								c0.5,0.5,1.1,0.7,1.7,0.7c0.3,0,0.7,0,1-0.2c0.3-0.1,0.6-0.3,0.8-0.5c0.2-0.2,0.4-0.5,0.5-0.8
								C440.7,43.1,440.8,42.8,440.8,42.5z"/>
						</g>
						<path class="st70" d="M490.5,0.5H332.7c-8,0-15.7,3.2-21.3,8.8c-5.7,5.7-8.8,13.3-8.8,21.3v387.5c0,8,3.2,15.7,8.8,21.3
							c5.7,5.7,13.3,8.8,21.3,8.8h157.8c8,0,15.7-3.2,21.3-8.8c5.7-5.7,8.8-13.3,8.8-21.3V30.6c0-4-0.8-7.9-2.3-11.5
							c-1.5-3.7-3.7-7-6.5-9.8c-2.8-2.8-6.1-5-9.8-6.5C498.4,1.3,494.5,0.5,490.5,0.5z M510.6,418.2c0,5.3-2.2,10.4-5.9,14.2
							c-3.8,3.8-8.9,5.9-14.2,5.9H332.7c-5.3,0-10.5-2.1-14.3-5.9c-3.8-3.8-5.9-8.9-6-14.2V30.6c0-5.4,2.1-10.5,5.9-14.3
							c3.8-3.8,8.9-5.9,14.3-5.9h23.6v2c0,2.7,1.1,5.3,3,7.1c1.9,1.9,4.5,3,7.2,3h90.3c2.7,0,5.3-1.1,7.2-3c1.9-1.9,3-4.5,3-7.1v-2
							h23.6c5.3,0,10.5,2.2,14.2,6c3.8,3.8,5.9,8.9,5.9,14.3V418.2z"/>
						<path class="st10" d="M442.1,325.5c2.1,1.4,3.8,3.4,4.9,5.7c1,2.3,1.3,4.9,0.9,7.4c-0.5,2.5-1.6,4.8-3.4,6.7
							c-1.8,1.8-4,3.1-6.5,3.7c-2.5,0.5-5.1,0.3-7.5-0.6c-2.4-0.9-4.4-2.5-5.9-4.6c-1.5-2.1-2.3-4.6-2.3-7.1c0-2.6,0.7-5.1,2-7.2
							c1.8-2.9,4.8-4.9,8.1-5.6C435.7,323.1,439.2,323.7,442.1,325.5z"/>
						<path class="st7" d="M338.2,407.4h1.8c1.2,0,1.6-0.5,1.6-1.3s-0.5-1.3-1.6-1.3h-1.8V407.4z"/>
						<path class="st8" d="M329.1,17.7V17h0.7c0.2,0,0.4-0.1,0.5-0.3c0.1-0.1,0.2-0.2,0.2-0.4c0-0.1,0-0.1,0-0.2h0.9v5.2h-1v-3.6
							L329.1,17.7z"/>
						<path class="st8" d="M332.9,17.7V17h0.7c0.2,0,0.4-0.1,0.5-0.3c0.1-0.1,0.2-0.2,0.2-0.4v-0.2h0.9v5.2H334v-3.6L332.9,17.7z"/>
						<path class="st8" d="M337.3,17.5h1.1v1.1h-1.1L337.3,17.5z M337.3,20.3h1.1v1.1h-1.1L337.3,20.3z"/>
						<path class="st8" d="M339.4,17.7V17h0.7c0.2,0,0.4-0.1,0.5-0.3c0.1-0.1,0.2-0.2,0.2-0.4c0-0.1,0-0.1,0-0.2h0.8v5.2h-1.1v-3.6
							L339.4,17.7z"/>
						<path class="st8" d="M343.2,17.7V17h0.7c0.2,0,0.3-0.1,0.4-0.2c0.1-0.1,0.2-0.3,0.3-0.4c0-0.1,0-0.1,0-0.2h0.8v5.2h-1v-3.6
							L343.2,17.7z"/>
						<path class="st8" d="M468,19.9h-1c-0.1,0-0.1,0-0.2,0c0,0.1,0,0.1,0,0.2v1.4c0,0.1,0,0.1,0,0.2c0.1,0,0.1,0,0.2,0h1.1h0.1
							v-0.1c0,0,0,0,0-0.1v-1.4L468,19.9z"/>
						<path class="st8" d="M470.5,18.7h-1c-0.1,0-0.1,0-0.2,0.1c0,0.1,0,0.1,0,0.2v2.6c0,0.1,0,0.1,0,0.2c0.1,0,0.1,0,0.2,0h1
							c0.1,0,0.1,0,0.2,0c0.1-0.1,0.1-0.1,0.1-0.2v-2.6c0-0.1,0-0.1-0.1-0.2C470.6,18.7,470.5,18.7,470.5,18.7z"/>
						<path class="st8" d="M472.9,17.5h-1c-0.1,0-0.1,0-0.2,0.1c-0.1,0.1-0.1,0.1-0.1,0.2v3.7c0,0.1,0,0.1,0.1,0.2
							c0.1,0.1,0.1,0.1,0.2,0.1h1c0,0,0.1,0,0.1,0c0,0,0.1,0,0.1-0.1c0,0,0.1-0.1,0.1-0.1c0,0,0-0.1,0-0.1v-3.7c0,0,0-0.1,0-0.1
							c0,0,0-0.1-0.1-0.1C473.1,17.6,473,17.6,472.9,17.5C472.9,17.5,472.9,17.5,472.9,17.5L472.9,17.5z"/>
						<path class="st8" d="M475.4,16.4h-1.1h-0.1c0,0,0,0.1,0,0.1v4.9c0,0,0,0.1,0,0.1c0,0,0,0.1,0.1,0.1c0,0,0.1,0.1,0.1,0.1
							c0,0,0.1,0,0.1,0h1c0.1,0,0.1,0,0.2-0.1c0.1-0.1,0.1-0.1,0.1-0.2v-4.9c0,0,0-0.1,0-0.1c0,0,0-0.1-0.1-0.1c0,0-0.1,0-0.1-0.1
							c0,0-0.1,0-0.1,0L475.4,16.4z"/>
						<path class="st8" d="M483.5,20.8c0,0.2-0.1,0.4-0.2,0.5c-0.1,0.2-0.3,0.3-0.4,0.3c-0.2,0.1-0.4,0.1-0.5,0
							c-0.2,0-0.3-0.1-0.5-0.2c-0.1-0.1-0.2-0.3-0.3-0.5c-0.1-0.2-0.1-0.4,0-0.6c0.1-0.2,0.2-0.3,0.3-0.4c0.1-0.1,0.3-0.2,0.5-0.2
							c0.1,0,0.2,0,0.4,0.1c0.1,0,0.2,0.1,0.3,0.2c0.1,0.1,0.2,0.2,0.2,0.3C483.5,20.6,483.6,20.7,483.5,20.8z"/>
						<path class="st8" d="M484.3,19.7c-0.1,0-0.1,0-0.2,0c-0.1,0-0.1-0.1-0.2-0.1c-0.2-0.2-0.4-0.3-0.6-0.4
							c-0.2-0.1-0.5-0.1-0.7-0.1c-0.2,0-0.5,0.1-0.7,0.1c-0.2,0.1-0.4,0.2-0.6,0.4l-0.2,0.1h-0.4l-0.2-0.1c-0.1,0-0.1-0.1-0.1-0.2
							c0-0.1,0-0.1,0-0.2c0-0.1,0-0.1,0-0.2c0-0.1,0.1-0.1,0.1-0.2c0.6-0.6,1.3-0.9,2.1-0.9c0.4,0,0.8,0.1,1.1,0.2
							c0.4,0.1,0.7,0.4,1,0.6l0.1,0.2c0,0.1,0,0.1,0,0.2c0,0.1,0,0.1,0,0.2l-0.1,0.2l-0.2,0.1L484.3,19.7z"/>
						<path class="st8" d="M485.8,18.2c-0.1,0-0.3-0.1-0.4-0.2c-0.4-0.4-0.8-0.7-1.3-0.8c-0.5-0.2-1-0.3-1.5-0.3
							c-0.5,0-1,0.1-1.5,0.3c-0.5,0.2-0.9,0.5-1.3,0.8c0,0.1-0.1,0.1-0.2,0.1c-0.1,0-0.1,0-0.2,0c-0.1,0-0.1,0-0.2,0
							c-0.1,0-0.1-0.1-0.2-0.1l-0.1-0.2c0-0.1,0-0.1,0-0.2c0-0.1,0-0.1,0-0.2l0.1-0.2c0.5-0.5,1-0.8,1.6-1.1c0.6-0.3,1.3-0.4,2-0.4
							c1.3,0,2.5,0.5,3.5,1.5l0.1,0.2c0,0.1,0,0.3,0,0.4l-0.2,0.2C486,18.1,485.9,18.2,485.8,18.2z"/>
						<path class="st8" d="M498.4,17H492c-0.4,0-0.9,0.2-1.2,0.5c-0.3,0.3-0.5,0.7-0.5,1.2v0.5c0,0.2,0,0.4,0.1,0.6
							c0.2,0.4,0.5,0.7,0.9,0.9c0.2,0.1,0.4,0.1,0.6,0.1h6.5c0.2,0,0.4,0,0.6-0.1c0.4-0.2,0.7-0.5,0.9-0.9c0.1-0.2,0.1-0.4,0.1-0.6
							v-0.5c0-0.4-0.2-0.9-0.5-1.2C499.3,17.2,498.9,17,498.4,17z"/>
						<path class="st8" d="M500.4,18.1v2c0.1,0,0.2,0,0.3,0c0.1,0,0.2-0.1,0.2-0.1c0.1-0.1,0.1-0.1,0.1-0.2c0-0.1,0-0.2,0-0.3v-0.6
							c0-0.1,0-0.2,0-0.3c0-0.1-0.1-0.2-0.1-0.2c-0.1-0.1-0.2-0.1-0.2-0.2L500.4,18.1z"/>
						<path class="st11" d="M437.5,334.3c-0.2,0-0.4,0-0.5-0.1c-0.3-0.1-0.5-0.4-0.6-0.7c-0.1-0.3-0.1-0.6,0.1-0.9l17.3-34.4
							l-60-38.3c-0.2-0.2-0.4-0.4-0.5-0.7c-0.1-0.3,0-0.6,0.1-0.8l46.8-95l-19.5-9.8c-0.2,0-0.3-0.1-0.5-0.2
							c-0.1-0.1-0.2-0.3-0.3-0.4c-0.1-0.2-0.1-0.3-0.1-0.5c0-0.2,0-0.4,0.1-0.5c0.1-0.2,0.2-0.3,0.3-0.4s0.3-0.2,0.5-0.2
							c0.2,0,0.4,0,0.5,0c0.2,0,0.3,0.1,0.5,0.2l20.5,10.4c0.3,0.1,0.5,0.4,0.6,0.7c0.1,0.3,0.1,0.6-0.1,0.9l-46.9,95l60,38.3
							c0.2,0.2,0.4,0.4,0.5,0.7c0.1,0.3,0.1,0.6-0.1,0.8l-17.8,35.4c-0.1,0.2-0.3,0.3-0.4,0.5C437.9,334.2,437.7,334.3,437.5,334.3z
							"/>
						<path class="st11" d="M444.3,326.5c0-2.1-0.7-4.1-2-5.7c-1.4-1.6-3.3-2.7-5.3-3.1c-1.4-0.3-2.8-0.2-4.2,0.1
							c-1.4,0.3-2.6,1-3.7,1.9c-1.1,0.9-1.9,2.1-2.4,3.4c-0.5,1.3-0.8,2.7-0.6,4c0.1,1.4,0.5,2.7,1.2,3.9c0.4,0.5,0.8,1.1,1.2,1.6
							l5.3,6.9c0.2,0.2,0.4,0.4,0.6,0.5c0.2,0.1,0.5,0.2,0.7,0.2c0.3,0,0.5-0.1,0.7-0.2c0.2-0.1,0.4-0.3,0.6-0.5l5.3-6.8
							c0.5-0.5,0.9-1.1,1.3-1.7C443.9,329.7,444.3,328.1,444.3,326.5z M435.1,330.4c-0.8,0-1.6-0.2-2.2-0.6c-0.7-0.4-1.2-1-1.5-1.7
							c-0.2-0.5-0.3-1.1-0.3-1.7c0-0.6,0.2-1.2,0.5-1.7c0.3-0.5,0.7-0.9,1.2-1.3c0.5-0.3,1-0.6,1.6-0.7c0.8-0.2,1.6-0.1,2.3,0.2
							c0.7,0.3,1.3,0.8,1.8,1.5c0.4,0.7,0.7,1.4,0.7,2.2c0,0.5-0.1,1-0.3,1.5c-0.2,0.5-0.5,0.9-0.9,1.3c-0.4,0.4-0.8,0.7-1.3,0.8
							c-0.5,0.2-1,0.3-1.6,0.3L435.1,330.4z"/>
						<path class="st8" d="M301.6,208.6c0,0-12.7-9-18.7-31.1c-6-22.1,9.4-31.8,18.7-25V208.6z"/>
						<path class="st0" d="M302,209.4l-0.7-0.5c-0.1,0-12.9-9.3-18.9-31.3c-1.6-5.2-1.8-10.8-0.5-16.1c0.9-3.8,3.1-7.1,6.3-9.4
							c2-1.5,4.4-2.2,6.8-2.2c2.5,0,4.8,0.8,6.8,2.2l0.2,0.1L302,209.4z M295.1,150.8c-2.3,0-4.6,0.8-6.4,2.1
							c-7.5,5.2-7.7,16.1-5.4,24.5c5.2,18.7,15.2,28,17.9,30.3v-55C299.4,151.5,297.3,150.9,295.1,150.8L295.1,150.8z"/>
						<path class="st8" d="M301.6,349.1c0,0-9.8,0.5-18.9,1.5c-9.1,1.1-16,15.7-15.5,26.7c0.5,11.1,0,29.2,17.7,39.5
							c17.7,10.3,44.5,18,55.6,5c11.1-13,1.1-32-12.1-39.5c-13.2-7.5-26.8-15.6-26.8-18.2L301.6,349.1z"/>
						<path class="st0" d="M322.7,429.1c-2.5,0-5-0.2-7.5-0.6c-10.7-2-21-5.8-30.3-11.3c-16.7-9.8-17.4-26.4-17.8-37.5
							c0.1-0.8,0.1-1.6,0-2.4c-0.5-11.3,6.7-26.1,16-27.2c8.9-1,18.7-1.5,18.9-1.5h0.5v15.4c0,0.9,2.6,4.5,26.6,17.9
							c4.2,2.4,7.9,5.7,10.8,9.6c2.9,3.9,4.9,8.4,6,13.2c0.6,3,0.5,6.1-0.3,9.1c-0.8,3-2.2,5.7-4.2,8.1
							C336.4,427.5,329.3,429.1,322.7,429.1z M301.1,349.6c-2,0-10.5,0.6-18.2,1.5c-4,0.5-8.1,3.9-11.1,9.4
							c-2.9,5.2-4.3,11-4.2,16.9c0,0.8,0,1.6,0.1,2.3c0,6.4,0.9,12.8,2.8,19c2.5,7.5,7.7,13.9,14.7,17.8c9.3,5.5,19.5,9.2,30.2,11.1
							c7.9,1.2,18.7,1.2,24.9-6.1c1.9-2.2,3.3-4.9,4-7.8c0.8-2.9,0.8-5.9,0.2-8.8c-1-4.6-3-9-5.8-12.9c-2.8-3.8-6.4-7-10.6-9.4
							c-27-15-27-17.7-27-18.6L301.1,349.6z"/>
						<path class="st8" d="M275.7,339.5c-18.5-19.4-14-32-7.7-41.8c6.4-9.8,14.8-22.7,24.4-18c9.5,4.7,8.2,10.3,16.6,19.6
							c8.3,9.3,32.4,31.2,18.6,48.5C313.9,365,301.1,366.1,275.7,339.5z"/>
						<path class="st0" d="M307.8,360.5c-8.8,0-18.9-6.5-32.5-20.8c-8.5-8.9-12.8-17-13.3-24.8c-0.1-6.3,1.8-12.5,5.5-17.5
							c6.3-9.8,15-23.1,24.9-18.2c5.9,2.9,7.7,6.1,10.1,10.3c1.8,3.4,4,6.6,6.6,9.4c0.9,1,1.9,2,3,3.3c10,10.5,28.3,30,15.7,45.7
							c-6.8,8.5-12.7,12.3-19.3,12.6L307.8,360.5z M276,339c13.9,14.6,24,20.9,32.6,20.7c6.3-0.3,12-4,18.6-12.3
							c12-15.1-5.9-34.4-15.6-44.6c-1.1-1.2-2.2-2.3-3-3.3c-2.6-2.9-4.9-6.1-6.7-9.6c-2-4.3-5.4-7.8-9.7-9.9
							c-9.2-4.6-17.7,8.3-23.8,17.8c-3.6,4.9-5.5,10.9-5.4,17c0.4,7.6,4.7,15.4,13.1,24.3L276,339z"/>
						<path class="st8" d="M311.3,280.6c-12.8,13.7-26.9,12.1-37.7-5c-10.8-17.2-16.2-30.2-3.4-46.4c12.7-16.2,18.9-15.6,31.6-15.6
							v12.1C301.8,225.8,329.6,260.8,311.3,280.6z"/>
						<path class="st0" d="M293.7,290.3c-0.5,0-1,0-1.5,0c-6.9-0.6-13.5-5.6-19.1-14.4c-5.5-8.8-9.5-16.2-10.6-23.7
							c-1.2-8.1,1.1-15.3,7.2-23.1c12.4-15.8,18.9-15.8,30.8-15.8h1.6v12.5c4.7,6.1,8.6,12.8,11.7,19.9c2.5,5.7,4,11.8,4.2,18.1
							c0.2,6.3-2.1,12.5-6.4,17.2C305.9,287.1,299.7,290.3,293.7,290.3z M299.4,214.1c-11.2,0-17.2,0.4-29,15.4
							c-5.9,7.6-8.2,14.7-7.1,22.4c1.2,7.7,5.7,15.8,10.5,23.4c5.4,8.6,11.8,13.4,18.4,14c6.2,0.6,12.6-2.6,18.6-9.1
							c4.1-4.5,6.3-10.5,6.1-16.6c-0.2-6.1-1.6-12.1-4-17.7c-3.1-7.1-7-13.7-11.6-19.9l-0.1-0.1v-11.9L299.4,214.1L299.4,214.1z"/>
						<path class="st0" d="M528.5,349.6c-0.1,0-0.1,0-0.2-0.1c0,0-0.1-0.1-0.1-0.1c0-0.1,0-0.2,0-0.3c3.8-20.5,19-33.5,21-35.1
							c-4.7-30.5-6.7-56.8-6.7-57.1c0-0.1,0-0.2,0-0.3c0.1-0.1,0.1-0.1,0.2-0.2c0,0,0.1,0,0.1,0s0.1,0,0.1,0c0.1,0,0.2,0.1,0.2,0.1
							c5.8,7,13.1,12.5,21.5,16.2c0.1,0.1,0.2,0.1,0.2,0.2c0,0.1,0,0.2,0,0.3c0,0.1-0.1,0.1-0.1,0.1h-0.1h-0.3
							c-8-3.5-15.1-8.7-20.9-15.3c0.5,5.8,2.6,29.3,6.7,55.8c0,0.1,0,0.1,0,0.2c0,0.1-0.1,0.1-0.1,0.2c-0.2,0.1-16.9,13.3-20.9,34.7
							c0,0.1,0,0.2-0.1,0.3c-0.1,0-0.1,0-0.2,0L528.5,349.6z"/>
						<path class="st8" d="M302.3,265.5c6.1-9.7,7.1-20,2.2-23.1s-13.7,2.4-19.8,12c-6,9.6-7.1,20-2.2,23.1
							C287.3,280.6,296.2,275.2,302.3,265.5z"/>
						<path class="st0" d="M285.6,278.8c-1.2,0.1-2.4-0.3-3.4-0.9c-2.5-1.5-3.6-4.9-3.2-9.4c0.7-5.1,2.6-9.9,5.4-14.2
							c6.2-9.9,15.3-15.4,20.4-12.2c2.5,1.6,3.7,4.9,3.2,9.4c-0.8,5.1-2.6,9.9-5.3,14.2c-2.7,4.3-6.3,8.1-10.5,11
							C290.2,278.1,288,278.8,285.6,278.8z M301.3,242c-4.8,0-11.4,5-16.2,12.7c-2.7,4.2-4.5,8.9-5.1,13.8c-0.4,4.2,0.6,7.3,2.8,8.6
							c2.2,1.3,5.4,0.9,9-1.3c4.1-2.8,7.6-6.4,10.2-10.7c2.6-4.2,4.4-8.9,5.1-13.8c0.4-4.2-0.6-7.3-2.8-8.6
							C303.4,242.2,302.3,241.9,301.3,242L301.3,242z"/>
						<path class="st8" d="M315.6,340.1c-6.9,9.1-16.2,13.7-20.8,10.3c-4.6-3.4-2.6-13.7,4.3-22.8c6.9-9.1,16.2-13.7,20.8-10.3
							C324.5,320.8,322.5,331,315.6,340.1z"/>
						<path class="st0" d="M298.6,352c-1.5,0-2.9-0.4-4-1.3c-2.3-1.7-3.2-5.2-2.3-9.7c1.1-5,3.4-9.7,6.6-13.7
							c7.1-9.3,16.7-13.9,21.4-10.3c4.8,3.6,2.9,14.2-4.2,23.4c-3,4.1-6.9,7.5-11.4,9.9C302.7,351.4,300.7,351.9,298.6,352z
							 M316.1,316.7c-4.7,0-11.4,4.3-16.7,11.2c-3.1,3.9-5.3,8.5-6.4,13.3c-0.8,4,0,7.3,2,8.9c2,1.6,5.3,1.4,9.1-0.5
							c4.4-2.4,8.2-5.7,11.2-9.7c6.8-8.9,8.7-18.9,4.4-22.2c-1-0.7-2.2-1.1-3.4-1.1L316.1,316.7z"/>
						<path class="st8" d="M568.8,170.9c4.9,13.4,5.6,25.4,1.6,26.8c-4,1.5-11.2-8.1-16.2-21.5c-5-13.4-5.5-25.4-1.5-26.8
							C556.9,148,563.9,157.5,568.8,170.9z"/>
						<path class="st0" d="M569.6,198.4c-2,0-4.5-2-7.2-5.5c-3.6-5.1-6.4-10.6-8.5-16.5c-4.4-12-6.1-25.6-1.4-27.4
							c2.1-0.8,5.1,1.2,8.2,5.4c3.6,5.1,6.4,10.6,8.5,16.5c4.4,12.1,6.1,25.6,1.3,27.4C570.3,198.3,569.9,198.3,569.6,198.4z
							 M553.5,149.7c-0.2,0-0.5,0-0.7,0.1c-3.3,1.2-3.3,12,1.9,26.3c2,5.7,4.8,11.2,8.3,16.2c2.9,3.8,5.5,5.7,7.2,5
							c3.3-1.2,3.3-12-1.9-26.3c-2-5.8-4.8-11.2-8.3-16.2C557.5,151.5,555.3,149.7,553.5,149.7L553.5,149.7z"/>
						<path class="st8" d="M330.4,415.8c5.8-7.6,6.8-16.6,2.2-20c-4.6-3.5-12.9-0.1-18.7,7.5c-5.8,7.6-6.8,16.6-2.2,20
							C316.3,426.8,324.7,423.4,330.4,415.8z"/>
						<path class="st0" d="M316.1,425.1c-1.6,0-3.2-0.5-4.6-1.4c-4.7-3.6-3.8-12.9,2-20.6c2.6-3.5,6-6.2,10-8c1.5-0.7,3.1-1.1,4.7-1
							c1.6,0.1,3.2,0.6,4.6,1.5c1.2,1.1,2.2,2.5,2.7,4c0.5,1.6,0.6,3.2,0.3,4.8c-0.6,4.3-2.4,8.3-5.1,11.7
							C326.5,421.7,320.7,425.1,316.1,425.1z M328.3,394.7c-1.5,0-3,0.4-4.4,0.9c-3.8,1.7-7.2,4.4-9.6,7.7
							c-5.6,7.4-6.7,16.2-2.3,19.4c4.4,3.3,12.5,0,18.1-7.4c2.6-3.3,4.3-7.2,4.9-11.3c0.3-1.5,0.2-3-0.2-4.4
							c-0.5-1.4-1.3-2.7-2.4-3.7C331.2,395.2,329.7,394.8,328.3,394.7L328.3,394.7z"/>
						<path class="st0" d="M301.6,208.6v-27.8c0,0-1.2,24.3-7.5,19.5C296.1,203.4,298.6,206.2,301.6,208.6z"/>
						<path class="st0" d="M520.7,262.7v140.6c0,17.9-0.6,27-9.2,35.5c-8.6,8.4-18,9.9-26.2,9.9l-132.6-0.3c0,0,3.1,9.7,4.8,13.8
							c0,0,1-9.6,12-9.6c11.1,0,47.2,0.8,53.3,0.8c6,0,36.4-1.3,45-1.2c8.6,0.1,34.6,3.8,44.4-5c9.8-8.8,14.9-14.9,13.4-36.8
							c-1.5-21.9-1.7-112.3-1.7-119.3c0-7-0.1-20.8,4.7-17.8L520.7,262.7z"/>
						<path class="st0" d="M279.2,282.9c0,0,7.3,10.9,22.2,5.3l3.2,5.4c-2.6,1.5-5.4,2.2-8.4,2.2s-5.8-0.8-8.4-2.2
							C278.3,288.6,279.2,282.9,279.2,282.9z"/>
						<path class="st0" d="M320.3,428.6c-5.9-0.7-11.8-1.9-17.5-3.6l2.2,5.5l19.8-1.4L320.3,428.6z"/>
						<path class="st0" d="M287,350.2c0,0,8.1,7.6,14.3,8.7l0.3,5.2c1,1.6,2.2,2.9,3.6,4c-2.4-1.1-4.8-2.5-6.9-4.2
							c-4.3-3.2-12.9-14.4-20.1-11.6c1.9-0.9,3.9-1.6,5.9-1.9L287,350.2z"/>
						<path class="st8" d="M400.7,105.7c-0.3,1.3-0.8,2.2-1.2,2.1c-0.4-0.1-0.5-1.2-0.2-2.4c0.3-1.3,0.8-2.2,1.2-2.1
							C400.9,103.3,401,104.4,400.7,105.7z"/>
						<path class="st0" d="M399.5,107.8c-0.2-0.1-0.2-0.4-0.3-0.8c0-0.6,0-1.1,0.1-1.7c0.2-1.1,0.8-2.2,1.2-2.2
							c0.2,0,0.3,0.3,0.4,0.8c0,0.6,0,1.1-0.1,1.7C400.5,106.8,400,107.9,399.5,107.8C399.5,107.8,399.5,107.8,399.5,107.8z
							 M400.6,103.3C400.6,103.3,400.6,103.3,400.6,103.3c-0.4-0.1-0.9,0.7-1.2,2.1c-0.1,0.5-0.2,1.1-0.1,1.6c0,0.4,0.1,0.7,0.3,0.7
							c0.3,0.1,0.8-0.8,1.1-2.1c0.1-0.5,0.2-1.1,0.1-1.6C400.8,103.6,400.7,103.4,400.6,103.3L400.6,103.3z"/>
						<path class="st8" d="M422.8,129.8l-1.5-0.9c-0.2-0.1,0.1-0.4,0.2-0.6l0.5-0.8c0.1-0.2,0.3-0.5,0.4-0.4l1.5,0.9
							c0.2,0.1,0.2,0.4,0.1,0.6C423.7,129,423.4,130.1,422.8,129.8z"/>
						<path class="st0" d="M421.9,127.5c0.1-0.2,0.3-0.6,0.6-0.4l1.5,0.9c0.6,0.4-0.3,1.5-0.7,1.9c-0.1,0.1-0.2,0.1-0.3,0.1
							c-0.1,0-0.2,0-0.3-0.1l-1.5-0.9C420.8,128.7,421.8,127.8,421.9,127.5z M422.4,127.2c-0.1-0.1-0.1,0.1-0.2,0.2
							c-0.2,0.3-0.7,1-0.8,1.3c0,0,1.5,0.9,1.5,1c0.2,0.1,0.4-0.1,0.5-0.2c0.1-0.3,0.8-1,0.5-1.3L422.4,127.2z"/>
						<path class="st0" d="M422.8,129.8l-1.6-1c-0.1-0.1-0.1-0.2,0-0.3l2,1.3c-0.1,0-0.1,0.1-0.2,0.1
							C422.9,129.8,422.9,129.8,422.8,129.8z"/>
						<path class="st0" d="M421.8,127.4L421.8,127.4l2.2,1.2c0,0.1-0.1,0.2-0.1,0.2l-2.1-1.3L421.8,127.4z"/>
						<path class="st0" d="M420.3,106.7c-0.1-0.2-0.2-0.5-0.3-0.6c-0.1-0.2-0.3-0.4-0.5-0.5c-0.2-0.1-0.4-0.2-0.7-0.2
							c-0.2,0-0.5,0-0.7,0c-2.9,0.4-0.9,9.2-0.6,11c0.4,1.6,3.8,0.2,3.6-0.9c-0.3-0.8,1-4.4,0.7-8.6
							C421.7,106.7,420.4,106.9,420.3,106.7z"/>
						<path class="st0" d="M421.1,115.6c0.6,1.9,2.2,7.6,2.5,8.3c0.2,0.8-0.4,1.2-0.9,0.5c0.5,0.2-8.4-8.8-3.8-10.2
							C420.5,113.8,421.1,115.6,421.1,115.6z"/>
						<path class="st0" d="M423.6,124.1c0.3,1.2,0.9,1.7,0.2,2.1c-0.7,0.4-1.3,0.2-1.2,0c0.1-0.2,0.5-1.6,0.5-1.6L423.6,124.1z"/>
						<path class="st0" d="M415.8,144.1c4-4.1,10.6,1,7.6,5.9C419.4,155.7,411.3,149.4,415.8,144.1z M421.3,148.7
							c1.7-2.9-2.9-5.3-4.2-2.1C416.1,149.2,419.9,151.1,421.3,148.7L421.3,148.7z"/>
						<path class="st8" d="M417.6,145.8c1.9-2.1,5.3,0.5,3.8,2.9C419.4,151.6,415.3,148.4,417.6,145.8z M417.8,146.9
							c-0.7,1.7,1.9,3,2.8,1.4C421.9,146.3,418.7,144.8,417.8,146.9L417.8,146.9z"/>
						<path class="st0" d="M417.5,145.7c2-2.1,5.5,0.5,3.9,3C419.4,151.7,415.2,148.4,417.5,145.7z M417.1,146.6
							c-1,2.6,2.7,4.5,4.2,2.1C423,145.8,418.4,143.5,417.1,146.6z M418.1,146.3c1.3-1.4,3.7,0.4,2.6,2
							C419.4,150.3,416.5,148.1,418.1,146.3z M417.9,146.9c-0.7,1.7,1.8,2.9,2.7,1.4C421.8,146.4,418.7,144.9,417.9,146.9z"/>
						<path class="st0" d="M392.8,129.7c4-4.1,10.6,1,7.6,5.9C396.4,141.3,388.2,134.9,392.8,129.7z M394.1,132.1
							c-1,2.6,2.7,4.5,4.2,2.1C400,131.3,395.4,129,394.1,132.1z"/>
						<path class="st8" d="M394.6,131.3c1.9-2.1,5.3,0.5,3.8,2.9C396.4,137.1,392.3,133.9,394.6,131.3z M394.8,132.4
							c-0.7,1.7,1.9,3,2.8,1.4C398.8,131.9,395.7,130.3,394.8,132.4L394.8,132.4z"/>
						<path class="st0" d="M394.5,131.3c2-2.1,5.5,0.5,3.9,3C396.4,137.2,392.1,133.9,394.5,131.3z M398.3,134.2
							c1.7-2.9-2.9-5.2-4.2-2.1C393.1,134.7,396.8,136.6,398.3,134.2L398.3,134.2z M397.7,133.8c-1.3,2-4.2-0.3-2.6-2
							C396.4,130.4,398.8,132.2,397.7,133.8z M397.6,133.8c1.1-1.9-1.9-3.4-2.7-1.4C394.2,134.1,396.7,135.3,397.6,133.8
							L397.6,133.8z"/>
						<path class="st7" d="M422.6,135.9c0.1-3.7,1.3-7.1,1.3-7.1l-1.4-0.9c-1,3.3-2.5,6.5-4.3,9.5c-2.9,4.7-6.5,3.3-6.5,3.3
							l-6.5-4.1c-1.8-7,5.6-5.1,7.4-7.3c0.4-0.7,0.6-1.2,0.2-1.5c-6.3-4.4-12.1-7.6-17-3.4c5.7-0.7,12.2,4.9,7.1,11.3l-1.8-1.1
							c0.1,1,0.3,2.1,0.9,2.5c1.6,0.7,11.3,8.3,12.6,6.3l1.4,0.9l5.8-1l1.7-2.6C423.3,140.6,422.5,139.6,422.6,135.9z"/>
						<path class="st0" d="M401.9,137.1c-0.6-0.3-0.9-1.4-1-2.6l1.8,1.2c4.9-5.7-1-12-7.3-11.1c4.9-4.3,10.8-1.2,17.2,3.3
							c0.5,0.3,0.2,1.1-0.2,1.6c-0.4,0.7-1.4,1-4,1.5c-2.8,0.4-4.4,3-3.3,5.7l6.5,4.1c0.7,0.2,1.4,0.2,2.1,0.1
							c4.5-0.2,8.6-12.5,8.6-12.9l1.5,0.9c-0.8,2.3-1.2,4.7-1.3,7.1c-0.1,2.9,0.4,4.3,0.7,4.7l-1.7,2.7l-5.8,1l-1.3-0.8
							c-0.2,0.2-0.5,0.3-0.8,0.3C411.7,144,403.7,137.9,401.9,137.1z M401,134.7c0.1,1.2,0.4,2,0.9,2.3l9,5.7c1.7,1,2.6,1.3,3.5,0.6
							l1.4,0.9l5.7-1l1.6-2.6c-1.6-1.7-0.1-10.7,0.6-11.7l-1.3-0.8c-0.4,1.2-4.7,15.1-10.8,12.8l-6.6-4.1c-1.1-2.8,0.5-5.5,3.4-5.9
							c2.6-0.4,3.6-0.8,4-1.4c0.5-0.8,0.5-1.2,0.2-1.4c-6.1-4.2-11.9-7.6-16.8-3.6c6.3-0.7,11.8,5.9,6.9,11.4L401,134.7z"/>
						<path class="st0" d="M396.8,124.2c-0.3,0-0.5,0-0.7,0c-0.6,0.3-1.9,2.6-2.2,3.1l7.6,4.8c-0.1,0.7-0.1,1.5-0.1,2.3l1.8,1.1
							C408,129.5,402.3,124.1,396.8,124.2z"/>
						<path class="st7" d="M396.4,124.4c-4.3-0.1-7.1,3-6.8,3.1l13.1,8.3C407.7,129.6,401.9,124.2,396.4,124.4z"/>
						<path class="st0" d="M402.8,135.8l-13.2-8.3c0.6-1.7,4.5-3.2,6.1-3.1C402,123.5,407.8,130.1,402.8,135.8L402.8,135.8z
							 M389.7,127.4l13,8.2c6.3-8-5.3-14.4-11.9-9.5C390.4,126.5,390,126.9,389.7,127.4z"/>
						<path class="st7" d="M413.5,144.6c3.4-5.7,12.2-3.5,12.8,3c-3.1,1.7-5.2-3.8-9.1-2.4C414.4,146.1,414.3,145.3,413.5,144.6z"/>
						<path class="st0" d="M413.4,144.6c3.5-5.7,12.2-3.7,12.9,3c-3.3,1.8-5.2-3.8-9.1-2.3C414.8,146,414.6,145.7,413.4,144.6z
							 M415.3,142.7c-0.7,0.5-1.3,1.2-1.8,1.9c0.9,0.8,1,1.3,3.6,0.6c3.9-1.5,5.9,4,9,2.4C425.7,142.4,419.4,139.5,415.3,142.7
							L415.3,142.7z"/>
						
							<linearGradient id="SVGID_00000120520371387147760370000012360350415704671138_" gradientUnits="userSpaceOnUse" x1="429.3352" y1="10783.5107" x2="426.0545" y2="10785.5742" gradientTransform="matrix(1 0 0 -1 0 10914.4854)">
							<stop  offset="0" style="stop-color:#FFCF00;stop-opacity:0"/>
							<stop  offset="1" style="stop-color:#FFCF00;stop-opacity:0.8"/>
						</linearGradient>
						<path style="fill:url(#SVGID_00000120520371387147760370000012360350415704671138_);" d="M427.1,127.3l-2,3.2l2.7,2.9l3.1-4.9
							L427.1,127.3z"/>
						<path class="st0" d="M426.1,126.6l-2.1,3.4c0.3,0.2,0.7,0.5,1,0.7l2.2-3.5C426.8,126.9,426.4,126.7,426.1,126.6z"/>
						<path class="st7" d="M421.5,126c-0.5,0.8,0.6,2.5,2.4,3.9l2.1-3.4C424,125.5,422,125.2,421.5,126z"/>
						<path class="st0" d="M424,130c-4.5-3.4-2.8-6.1,2.2-3.5L424,130z M426,126.6c-4.7-2.4-6.3,0-2.1,3.3L426,126.6z"/>
						<path class="st0" d="M413.1,116.6c-3-2.4-7.7,0.4-6.9,4.2c0.8,4.5,10.6,7,12.5,7.8c2,0.6,3.3-1.4,2.6-2.9
							C420.5,124.1,416.2,119,413.1,116.6z"/>
						<path class="st0" d="M420.9,128.2c0.8-0.9-0.6-0.9-1.5-1.7c-3.8-2.9-9.3,8.3-9.3,8.1c-0.4,0.6,0.3,0.7,0.8,1.1
							c0.5,0.4,0.6,1,1.1,0.6l7.4-6.6C419.4,129.7,420.8,128.3,420.9,128.2z"/>
						<path class="st8" d="M409.4,137.7c1.2,0.6,1.6-0.6,2.2-1.2c0.5-0.7-1-2.1-1.1-1.8c-0.2,0.2-1.4,1.9-1.7,2.1
							C409.1,137,408.9,137.3,409.4,137.7z"/>
						<path class="st0" d="M409,137.2c0-0.1-0.1-0.3-0.3-0.3c0.3-0.3,1.5-1.9,1.8-2.2c0.3,0,1,0.6,1.2,1.2c0.3,0.9-0.7,1.4-1.1,2
							c-0.1,0.1-0.3,0.1-0.5,0.2c-0.2,0-0.3,0-0.5-0.1c-0.2-0.1-0.3-0.2-0.4-0.3C409.1,137.5,409,137.3,409,137.2z M409.4,137.7
							c1.1,0.5,1.5-0.6,2.1-1.2c0.5-0.6-0.8-1.7-1-1.7c-0.1,0.2-1.3,1.7-1.6,2.1C409.1,137.1,409.1,137.5,409.4,137.7L409.4,137.7z"
							/>
						<path class="st8" d="M412.2,139.4c-0.5-0.8-1.1-2-1.5-2.2c-1,0.6-1.2-0.1-1.8-0.8c-0.4,0.6-1.7,1.3-1,2
							c0.8,0.5,4.3,2.6,4.8,2.9C413.2,140.7,412.7,139.9,412.2,139.4z"/>
						<path class="st0" d="M408.9,136.3c0.1,0.1,0.3,0.2,0.3,0.4c0.1,0.1,0.1,0.3,0.2,0.4c0.1,0.1,0.2,0.2,0.4,0.2
							c0.1,0,0.3,0,0.4,0c0.1,0,0.3-0.1,0.4-0.2l0.3,0.3c0,0.1,0.9,1.4,1.2,2c0.7,0.8,0.9,1.5,0.4,2c-0.4-0.1-2.9-1.8-3.8-2.3
							C406.8,138.1,407.9,137.6,408.9,136.3z M409,136.5c-1,1.1-2,1.6-0.1,2.4c1,0.5,3.2,2,3.8,2.3c0.4-0.4,0.2-1.1-0.5-1.8
							c-0.3-0.5-1.2-1.8-1.2-2l-0.2-0.2c-0.4,0.4-1.3,0.2-1.6-0.5C409.1,136.7,409,136.6,409,136.5z"/>
						<path class="st0" d="M404.2,123.5c-1.8-1.1,2-1.5,3.1-1.4c1,0.2,1.3,1.2,2.5,1.9l1.6,1c0.6,0.3,0.7,0.1,1.3,0.5
							c0.6,0.4,0.6,2,0.1,2.3s-0.8,0.5-0.8,0.5L404.2,123.5z"/>
						<path class="st8" d="M420.8,125.6c-0.8-1.6-5.1-6.7-8.2-9.1c-0.5-0.4-1-0.6-1.6-0.7c-0.6-0.1-1.2-0.2-1.8-0.1
							c-2.3,0.3-4,2.7-3.6,5c0.7,3.7,6.2,5.2,9,6.6c-2.8,2.4-5.3,6.9-5.3,6.9c-0.4,0.6,0.3,0.7,0.7,1.1c0.5,0.4,0.6,1,1,0.6l7.5-6.4
							C419.8,128.6,421.7,127.3,420.8,125.6z"/>
						<path class="st0" d="M409.7,135.1c-0.3-0.2-0.6-0.4-0.3-0.9c0,0,2.5-4.5,5.2-6.9c-2.6-1.3-8.2-2.8-9-6.6
							c-0.4-2.3,1.3-4.8,3.6-5.1c0.6-0.1,1.2-0.1,1.8,0.1c0.6,0.1,1.1,0.4,1.6,0.7c3,2.3,7.4,7.5,8.2,9.1c0.9,1.7-1,3.1-2.1,4
							l-7.5,6.4c0,0.1-0.1,0.1-0.2,0.1c-0.1,0-0.1,0-0.2,0.1C410.4,136.1,410.2,135.4,409.7,135.1z M414.8,127.3
							c-2.7,2.3-5.3,7-5.3,7c-0.4,0.5,0.4,0.7,0.7,1c0.3,0.2,0.6,1.1,0.9,0.6c1.2-1,8.2-6.9,9.1-7.9c0.3-0.3,0.5-0.7,0.6-1.2
							c0.1-0.4,0-0.9-0.2-1.3c-0.8-1.5-5-6.7-8.2-9.1c-1.9-1.4-4.7-0.9-6,1c-3.6,5.4,4.9,8.3,8.2,9.7L414.8,127.3z"/>
						<path class="st0" d="M415.9,119.7L415.9,119.7c-1.6-1.6-3.1-3.7-5.4-4c-2.3-0.3-4.5,1.5-4.8,3.8
							C407.8,121,414,122.2,415.9,119.7z"/>
						<path class="st0" d="M411.6,111.5c0,0,2.9,2.2,5.9,1.3l0.3,0.5c-1.1,0.4-2.4,0.5-3.6,0.3c-1.2-0.2-2.3-0.6-3.3-1.3
							L411.6,111.5z"/>
						<path class="st8" d="M408.6,137.4c1.2,0.6,1.6-0.6,2.2-1.1c0.6-0.7-0.9-2.1-1.1-1.9c-0.2,0.2-1.5,1.8-1.7,2.1
							C408.3,136.6,408.2,137,408.6,137.4z"/>
						<path class="st0" d="M408.2,136.8c0-0.1-0.1-0.3-0.2-0.4c0.3-0.3,1.5-1.9,1.8-2.2c0.3,0,0.9,0.6,1.2,1.2
							c0.3,0.9-0.7,1.4-1.2,2c-0.1,0.1-0.3,0.1-0.5,0.2c-0.2,0-0.3,0-0.5-0.1c-0.2-0.1-0.3-0.2-0.4-0.3
							C408.3,137.1,408.2,137,408.2,136.8z M409.8,134.4c-0.1,0.2-1.3,1.7-1.7,2c0.8,1.9,1.8,0.8,2.7-0.3
							C411.3,135.6,410,134.4,409.8,134.4L409.8,134.4z"/>
						<path class="st8" d="M411.4,139.1c-0.5-0.8-1.1-2-1.5-2.2c-1,0.6-1.2-0.1-1.8-0.8c-0.4,0.6-1.7,1.3-1.1,1.9
							c0.8,0.6,4.2,2.7,4.7,3C412.3,140.4,411.9,139.6,411.4,139.1z"/>
						<path class="st0" d="M408,138.7c-2-0.9-0.9-1.5,0.1-2.7c0.1,0.1,0.2,0.2,0.3,0.4c0.3,0.8,1.2,0.7,1.5,0.4l0.3,0.3l0,0
							c0,0,0.9,1.4,1.2,2c0.7,0.9,0.9,1.5,0.4,2l0,0C410.8,140.6,409.1,139.3,408,138.7z M411.8,140.9c0.4-0.4,0.2-1-0.5-1.8
							c-0.3-0.5-1.2-1.8-1.2-2l-0.2-0.2c-0.7,0.5-1.4,0-1.7-0.8c-1,1.1-2,1.5-0.1,2.4C409,139.1,411.2,140.6,411.8,140.9
							L411.8,140.9z"/>
						<path class="st7" d="M421.5,110.6c1.4-2,1.2-3.8,1.6-5.8c0.2-0.9-0.5-2.7-1.6-1.7c-0.3,0.3-0.7,0.5-1.1,0.6
							c0-0.2,0-0.4,0.1-0.5L417,105c-3.9,2.3-9.8,9.7-11.4,12.2c-0.8,1.9,7.8,5.6,10.2,2.4C418.3,116.4,420.1,112.5,421.5,110.6z"/>
						<path class="st0" d="M405.6,117.1c1.4-2.3,7.3-9.6,11.1-12.1l-0.2,0.2l4.1-2.3c-0.1,0.2-0.1,0.4-0.1,0.6
							c0.8-0.2,1.3-1.1,1.9-0.8c0.5,0.3,0.9,1.3,0.7,2c-0.4,1.9,0,2.3-0.9,4.5c-0.7,1.5-1.5,2.5-2.5,4.2c-3.2,5.7-4.7,9.8-12.4,5.8
							C406.2,118.7,405.3,117.7,405.6,117.1z M417.4,104.8c-4.1,2.2-10.1,9.9-11.7,12.3c-0.2,0.5,0.4,1.3,1.6,2
							c2,1.4,7.3,2.3,8.5,0.3c2.4-3.4,4.3-7,6.3-10.3c0.7-1.5,0.5-2.1,0.6-2.9c0.1-1,0.6-2.9-0.4-3.5c-0.7-0.3-1.1,0.7-2,0.9
							c0-0.2,0-0.3,0-0.5l-3.3,1.7L417.4,104.8z"/>
						<path class="st8" d="M421.5,110.6c1.4-2,1.2-3.8,1.6-5.8c0.2-0.9-0.5-2.7-1.6-1.7c-0.3,0.3-0.7,0.5-1.1,0.6
							c0-0.2,0-0.4,0.1-0.5L417,105c-3.9,2.3-9.8,9.7-11.4,12.2c-0.8,1.9,7.8,5.6,10.2,2.4C418.3,116.4,420.1,112.5,421.5,110.6z"/>
						<path class="st0" d="M405.6,117.1c0.8-1.8,5.8-7.3,8.7-10.3c1.8-1.8,4.4-2.7,6.3-3.8c-0.1,0.2-0.1,0.4-0.1,0.6
							c0.8-0.2,1.3-1.1,1.9-0.8c0.5,0.3,0.9,1.3,0.7,2c-0.4,1.9,0,2.3-0.9,4.5c-0.7,1.5-1.5,2.5-2.5,4.2c-3.2,5.7-4.7,9.8-12.4,5.8
							C406.2,118.7,405.3,117.7,405.6,117.1z M405.7,117.2c-0.2,0.5,0.4,1.3,1.6,2c2,1.4,7.3,2.4,8.5,0.3c2.4-3.4,4.3-7,6.3-10.3
							c0.7-1.5,0.5-2.1,0.6-2.9c0.1-1,0.6-2.9-0.4-3.5c-0.7-0.3-1.1,0.7-2,0.9c0-0.2,0-0.3,0-0.5l-3.2,1.8
							C413.7,107.2,406.9,115,405.7,117.2z"/>
						<path class="st7" d="M419.9,111c0.3-0.4,0.8-0.6,1-0.9c0.2-0.1,1.1-2,1.1-2.1c0.6-0.9,0-1,0.2-1.8c0.2-0.8-1.2-3-2.2-2.1
							c-0.2,0.2,0.9-1.2,0.4-1c-1.5,0.6-4.9,3-6.8,4.6c-2.4,2.5-7.2,7.8-8,9.5c-0.8,1.7,6.9,5,9.1,2.1
							C417,116.3,418.7,112.8,419.9,111z"/>
						<path class="st8" d="M422.8,106.7c0.2-0.7,0.8-2.5,1.2-3.1c0.1-0.1,0.1-0.2,0.2-0.4c0-0.1,0-0.3,0-0.4
							c-0.1-0.9-1.7-1.3-2.3-0.7c-0.4,0.5-1,0.7-1.6,1.3s-0.6,1.6,0.4,2.3C421.7,106.4,422.6,107.4,422.8,106.7z"/>
						<path class="st0" d="M421.3,106.3c-1.1-0.6-2.2-1.7-1.1-2.9c0.3-0.4,1.4-1.1,1.6-1.3c0.2-0.3,0.7-0.2,1-0.2
							c1-0.2,1.7,1,1.2,1.8c-0.4,0.6-1,2.3-1.2,3.1c0,0.1,0,0.1-0.1,0.2c0,0-0.1,0.1-0.1,0.1C422.2,107,421.7,106.5,421.3,106.3z
							 M421.9,102.1c-1.8,1.4-3.3,2.3-0.5,4c0.6,0.4,1.1,1,1.3,0.5c0.2-0.7,0.8-2.5,1.2-3.1c0.1-0.2,0.2-0.5,0.2-0.8
							c-0.1-0.3-0.2-0.5-0.4-0.7C423.2,101.8,422.2,101.7,421.9,102.1L421.9,102.1z"/>
						<path class="st8" d="M424,105.6c0,0-3.2-2.4-2.1-4.1c1.1-1.6,1.4-3.1,3.5-1.6c2.1,1.5,2.1,2.4,1.8,3.1
							C427.1,103.7,424.9,106.2,424,105.6z"/>
						<path class="st0" d="M421.7,102.8c-0.3-0.8,0.2-1.4,0.6-2c0.8-1.3,1.3-2.2,3.1-0.9c2.1,1.5,2.1,2.4,1.9,3.2
							c-0.2,0.6-2.1,3.1-3.4,2.6C423.3,105.2,421.9,103.8,421.7,102.8z M425.4,100c-2-1.5-2.5,0.2-3.4,1.6c-1.1,1.3,1.9,3.9,2.1,4
							c1.1,0.4,2.9-2,3.2-2.5C427.7,102.2,426.5,100.7,425.4,100z"/>
						<path class="st0" d="M423.2,104.9l0.2-1.7l0.1,0c0,0,1-0.4,1.4-1.1l0.2,0.1c-0.4,0.7-1.3,1.1-1.5,1.2l-0.2,1.7L423.2,104.9z"
							/>
						<path class="st0" d="M423.3,103.3c-0.2-0.2-0.4-0.5-0.5-0.8c-0.1-0.3-0.1-0.6,0-0.9l0.2,0.1c-0.2,0.6,0.1,1.2,0.5,1.4
							l-0.1,0.2C423.4,103.4,423.3,103.3,423.3,103.3z"/>
						<path class="st7" d="M427.6,103c0,0-1.7-0.8-2.7-0.5l-0.4-0.2c0,0-0.3-1.7-1.7-0.3l-0.8,0.1c-0.8-0.2-1.3-3,1.7-3.8
							C426.6,97.7,429.1,100.9,427.6,103z"/>
						<path class="st0" d="M421.4,101.6c0,0-0.3-1.2,0.4-2.2c2.3-3.3,8.2,0.4,5.9,3.7l-0.1,0c0,0-1.8-0.8-2.6-0.5l-0.5-0.2l0,0
							c-0.1-0.7-0.7-1.1-1.5-0.3l-0.9,0.1l0,0C421.8,102,421.6,101.8,421.4,101.6z M422.1,102l0.8-0.1c0.8-0.9,1.6-0.5,1.8,0.4
							l0.4,0.2c0.8-0.3,2.3,0.3,2.6,0.5c2-3.1-3.5-6.5-5.6-3.4C421.3,100.8,421.4,101.6,422.1,102L422.1,102z"/>
						<path class="st0" d="M421,111.1c0,0-1.7,0.8-4.8,0.4c0,0,0.2-4.8,2.8-5c2.6-0.3,2.1,2,2.1,2.5
							C421.1,109.3,421,111.1,421,111.1z"/>
						<path class="st0" d="M423.3,105l-1.1-1.2c0,0,1,1.3,0.7,2.2L423.3,105z"/>
						<path class="st0" d="M417.7,107L417.7,107c0,0.1,2.3-1.1,2.9-0.5c0.6,0.6,0,0.8,0,0.8l0.7,0.8
							C421.8,105.7,418.4,104.7,417.7,107z"/>
						<path class="st8" d="M423.5,125.9c-0.7-0.7-2.2-6.9-3-9.4c-0.1-1,0.2-3.6,0.6-8.1c0.4-2.4-3.2-2.9-3.6-0.6
							c-1.2,8.2,0.7,13.2,4.9,18.2c-0.1,0.4-0.4,1.2-0.5,1.4C422.3,128,424.8,127.6,423.5,125.9z"/>
						<path class="st0" d="M421.9,127.4c0-0.3,0.4-0.9,0.5-1.4c-4.6-5.6-6-10.3-4.9-18.2c0.4-2.3,4.2-1.8,3.8,0.6
							c-1.5,10.8,0,7.8,1.9,16.7c0,0.4,0.5,0.8,0.6,1c0.2,0.6,0.3,1-0.2,1.3C422.9,127.7,422.1,127.7,421.9,127.4z M422.6,125.9
							c-0.2,0.4-0.5,1.2-0.5,1.4c0,0,0,0,0,0.1c0.1,0.1,0.9,0.2,1.4,0c0.4-0.2,0.3-0.5,0.2-1.2c-0.1-0.2-0.5-0.5-0.6-0.8l0,0
							c-0.2-2.5-2.1-7.2-2.6-9.2c-0.2-1,0.5-4.7,0.7-8.5c-0.2-1.9-3.3-1.8-3.5,0.1C416.5,115.7,418,120.3,422.6,125.9L422.6,125.9z"
							/>
						<path class="st7" d="M421,111.1c0,0-1.1,0.8-4.3,0.3c0,0-0.2-4.9,2.3-5.2C422.5,105.9,421,109.9,421,111.1z"/>
						<path class="st0" d="M416.7,111.5c-0.2-2.7,1.1-6.8,4.2-4.9c1.1,1.2,0.3,3.5,0.2,4.6C421,111.2,419.9,111.9,416.7,111.5
							L416.7,111.5z M416.8,111.4c2.1,0.2,3,0.2,4.2-0.3c0-1.1,0.8-3.3-0.2-4.4C417.3,104.6,416.6,110.1,416.8,111.4L416.8,111.4z"
							/>
						<path class="st0" d="M422,127.2c-0.8-0.5,0-1.6,0.7-1.2C423.4,126.5,422.7,127.7,422,127.2z"/>
						<path class="st0" d="M422.4,142c-2.6-1.2-5.7-0.5-7.9,1.3C416.3,141,419.9,140.2,422.4,142z"/>
						<path class="st0" d="M402.6,129.6c0-0.1-2.8-1.7-2.8-1.8c-0.1-0.5,2.9,1.7,2.9,1.6c0,0,0,0,0,0.1c0,0,0,0.1,0,0.1
							C402.8,129.6,402.7,129.7,402.6,129.6C402.7,129.7,402.7,129.7,402.6,129.6z"/>
						<path class="st0" d="M402.4,130.1c0-0.1-2.8-1.7-2.8-1.8c-0.1-0.5,2.9,1.7,2.9,1.6c0,0,0,0,0,0.1c0,0,0,0.1,0,0.1
							C402.5,130.1,402.5,130.1,402.4,130.1C402.4,130.1,402.4,130.1,402.4,130.1z"/>
						<path class="st0" d="M402.1,130.5l-2.8-1.7c0,0,0,0,0-0.1c0,0,0,0,0-0.1c0,0,0,0,0.1,0c0,0,0,0,0.1,0l2.8,1.7c0,0,0,0,0,0.1
							c0,0,0,0,0,0.1C402.2,130.5,402.2,130.5,402.1,130.5C402.1,130.6,402.1,130.5,402.1,130.5z"/>
						<path class="st0" d="M414.2,127.1l2.1,0.8c0,0-2.1-0.1-2.5,0.4l0.9-0.9L414.2,127.1z"/>
						<g>
							<defs>
								
									<rect id="SVGID_00000079455523736311925020000013787394169944276135_" x="393.7" y="101.1" transform="matrix(0.5327 -0.8463 0.8463 0.5327 95.7193 390.5432)" width="15.5" height="14.9"/>
							</defs>
							<clipPath id="SVGID_00000013194229625728271150000006674555612527275710_">
								<use xlink:href="#SVGID_00000079455523736311925020000013787394169944276135_"  style="overflow:visible;"/>
							</clipPath>
							<g style="clip-path:url(#SVGID_00000013194229625728271150000006674555612527275710_);">
								<path class="st73" d="M410.9,107.5c0.2-0.4,0.2-0.9,0.1-1.4c-0.1-0.5-0.4-0.9-0.8-1.1l-9-5.7c-0.5-0.3-1-0.4-1.5-0.3
									c-0.5,0.1-1,0.4-1.3,0.9l-3.9,6.1l-2.1,3.4c-0.3,0.5-0.4,1-0.3,1.5c0.1,0.5,0.4,1,0.9,1.3l9,5.7c0.5,0.3,1,0.4,1.5,0.3
									c0.5-0.1,1-0.5,1.3-0.9l6-9.5C410.8,107.7,410.8,107.6,410.9,107.5z"/>
								<path class="st0" d="M394.5,106c0.3,0.3,0.6,0.4,1,0.4c0.4,0,0.7-0.1,1.1-0.2c0.3-0.2,0.6-0.4,0.9-0.6
									c0.3-0.2,0.6-0.5,0.9-0.8c0.6-0.5,1.2-1,2-1.3c0.2-0.1,0.4-0.1,0.6-0.2c0.2,0,0.4-0.1,0.6-0.1c0.4,0,0.8,0,1.2,0
									c0.4,0,0.8,0.1,1.1,0.2c0.4,0.1,0.7,0.2,1.1,0.3c0.7,0.2,1.4,0.5,2.1,0.9c1.3,0.7,2.5,1.6,3.7,2.6c-1.3-0.8-2.5-1.6-3.9-2.3
									c-0.3-0.2-0.7-0.3-1-0.4c-0.3-0.1-0.7-0.3-1.1-0.4c-0.4-0.1-0.7-0.2-1.1-0.3c-0.4-0.1-0.7-0.1-1.1-0.2c-0.4,0-0.7,0-1.1,0
									c-0.2,0-0.4,0-0.5,0.1c-0.2,0-0.4,0.1-0.5,0.1c-0.2,0.1-0.3,0.1-0.5,0.2c-0.2,0.1-0.3,0.2-0.5,0.3c-0.3,0.2-0.6,0.4-0.9,0.7
									c-0.3,0.2-0.6,0.5-0.9,0.7c-0.3,0.2-0.6,0.5-1,0.6c-0.4,0.1-0.8,0.2-1.2,0.2c-0.2,0-0.4-0.1-0.6-0.2
									C394.7,106.3,394.6,106.1,394.5,106z"/>
								<path class="st8" d="M398.3,101c0.1-0.3,0.3-0.5,0.5-0.7c0.2-0.2,0.4-0.5,0.7-0.6c0.3-0.2,0.6-0.2,0.9-0.2
									c0.3,0.1,0.6,0.2,0.8,0.3c1,0.6,2,1.2,2.9,1.8l1.5,0.9c0.5,0.3,1,0.6,1.4,1c1,0.6,1.9,1.3,2.8,2c-1-0.5-2-1.1-3-1.7
									c-0.5-0.3-1-0.6-1.5-0.9l-1.5-0.9l-1.5-0.9l-1.4-1c-0.2-0.2-0.5-0.3-0.7-0.3c-0.3-0.1-0.5,0-0.8,0.1
									c-0.1,0.1-0.2,0.1-0.4,0.2c-0.1,0.1-0.2,0.2-0.3,0.3C398.7,100.5,398.5,100.7,398.3,101z"/>
								<path class="st8" d="M392.9,109.7c-0.1,0.3-0.1,0.5,0,0.8c0.1,0.3,0.2,0.5,0.3,0.7c0.3,0.4,0.8,0.7,1.2,1
									c0.5,0.3,0.9,0.6,1.4,0.9l1.4,0.9l1.4,0.9c0.5,0.3,0.9,0.6,1.4,0.9c0.9,0.6,1.8,1.2,2.7,1.8c-1-0.5-1.9-1-2.9-1.6
									c-0.5-0.3-0.9-0.6-1.4-0.8c-0.5-0.3-0.9-0.6-1.4-0.9c-0.9-0.6-1.8-1.2-2.7-1.8c-0.4-0.3-0.9-0.7-1.2-1.1
									c-0.2-0.2-0.3-0.5-0.3-0.8C392.7,110.2,392.8,109.9,392.9,109.7z"/>
								<path class="st11" d="M402.1,108.6c0,0.1,0,0.1-0.1,0.2c-0.1,0.1-0.2,0.2-0.3,0.3c-0.1,0.1-0.3,0.1-0.4,0.1
									c-0.1,0-0.3,0-0.4-0.1c-0.1-0.1-0.2-0.2-0.3-0.3c-0.1-0.2-0.1-0.3-0.1-0.5l-0.8-0.2c0,0.2,0,0.4,0,0.6l0.3,1.5
									c0,0,0,0,0,0.1c0,0,0,0,0,0c0,0,0,0,0.1,0c0,0,0,0,0.1,0l1.5-0.4c0.3-0.1,0.6-0.2,0.8-0.4c0.2-0.2,0.4-0.5,0.5-0.8
									L402.1,108.6z"/>
								<path class="st11" d="M401.3,106.4c0,0,0-0.1,0.1-0.1c0,0,0.1-0.1,0.1-0.1c0,0,0.1,0,0.1-0.1c0,0,0.1,0,0.1,0
									c0,0,0.1,0,0.1,0.1c0,0,0.1,0.1,0.1,0.1c0,0,0,0.1,0,0.1c0,0,0,0.1,0,0.1L401.3,106.4z"/>
								<path class="st11" d="M401.9,108.3c0.2-0.8,0-1.4-0.2-1.6c0,0,0,0-0.1,0c-0.1,0-0.3,0.1-0.5,0.3c-0.2,0.3-0.3,0.6-0.4,1
									L401.9,108.3z"/>
								<path class="st11" d="M402.1,108.3l1,0.2l0.8,0.2c0-0.1,0-0.1,0-0.2c0,0,0-0.1-0.1-0.1c0,0-0.1-0.1-0.1-0.1
									c0,0-0.1,0-0.1-0.1l-0.6-0.1c0-0.3-0.1-0.5-0.3-0.7c-0.1-0.2-0.3-0.4-0.6-0.5l-0.1-0.1C402.2,107.1,402.3,107.6,402.1,108.3
									z"/>
								<path class="st11" d="M399.8,107.5c-0.1,0.1-0.1,0.2-0.1,0.3l0.8,0.2c0.1-0.5,0.3-1,0.7-1.4
									C400.6,106.6,400.1,107,399.8,107.5z"/>
							</g>
						</g>
						<path class="st0" d="M392.1,112.5c0.5,0,10.8,7.4,11.1,6.6c0.1-0.1,0.1-0.2,0.1-0.3c0-0.1-0.1-0.2-0.2-0.2l-10.6-6.7
							c-0.1-0.1-0.2-0.1-0.3,0c-0.1,0-0.2,0.1-0.2,0.2c-0.1,0.1-0.1,0.2,0,0.3C391.9,112.3,392,112.4,392.1,112.5z"/>
						<path class="st0" d="M396.1,115c-1.6,2.5-1.4,1.4,1.2,3.8l1.4-2.2l0.6,0.4l-1.5,2.3l4.8,4.3c0.7-0.3,1.5,0.6,1,1.2
							c-0.5,0.8-1.8,0.2-1.5-0.7l-7.8-7c-0.1-0.1-0.2-0.2-0.2-0.3c0-0.1,0-0.3,0.1-0.4l1.2-1.9L396.1,115z"/>
						<path class="st7" d="M402.7,124.2c-0.3,0.4,0.4,0.8,0.6,0.4C403.6,124.2,403,123.8,402.7,124.2z"/>
					</g>
				</g>
			</g>
		</g>
	</g>
</g>
<g id="Grocery">
</g>
<g id="Pharmacy__x26__Meds">
</g>
<g id="Gifts">
</g>
<g id="E-Commerce">
</g>
<g id="Individuals_Page">
</g>
<g id="More">
</g>
<g id="Become_A_Courier">
</g>
<g id="About_us">
</g>
<g id="Contact_US">
</g>
<g id="Layer_13">
</g>
</svg>
