<?xml version="1.0" encoding="utf-8"?>
<!-- Generator: Adobe Illustrator 26.0.1, SVG Export Plug-In . SVG Version: 6.00 Build 0)  -->
<svg version="1.1" xmlns="http://www.w3.org/2000/svg" xmlns:xlink="http://www.w3.org/1999/xlink" x="0px" y="0px"
	 viewBox="0 0 637.6 520.6" style="enable-background:new 0 0 637.6 520.6;" xml:space="preserve">
<style type="text/css">
	.st0{fill:#131314;}
	.st1{fill:#F7F5DD;stroke:#131314;stroke-width:0.8581;stroke-miterlimit:10;}
	.st2{fill:#131314;stroke:#F7F5DD;stroke-width:0.3547;stroke-miterlimit:10;}
	.st3{fill:#FFC72B;stroke:#131314;stroke-width:0.8581;stroke-linecap:round;stroke-linejoin:round;stroke-miterlimit:10;}
	.st4{fill:none;stroke:#131314;stroke-width:0.8581;stroke-miterlimit:10;}
	.st5{fill:#131314;stroke:#F7F5DD;stroke-width:0.389;stroke-miterlimit:10;}
	.st6{fill:#FF0058;stroke:#131314;stroke-width:1.7191;stroke-miterlimit:10;}
	.st7{fill:#FFC72B;}
	.st8{fill:#F7F5DD;}
	.st9{fill:url(#SVGID_1_);}
	.st10{fill:#FFE092;}
	.st11{fill:#FF0058;}
	.st12{fill:#FFFFFF;filter:url(#Adobe_OpacityMaskFilter);}
	.st13{mask:url(#mask4_744_2018_00000183221484926765621670000012565967078459250105_);}
	.st14{fill:#FFC72B;stroke:#131314;stroke-width:0.8581;stroke-miterlimit:10;}
	.st15{fill:url(#SVGID_00000096746705077127457070000014712456070376357767_);}
	.st16{clip-path:url(#SVGID_00000018234905824669446800000010258933859672593811_);}
	.st17{fill:#FFC72C;stroke:#131314;stroke-width:0.1032;stroke-miterlimit:10;}
	.st18{clip-path:url(#SVGID_00000163780472907797897140000015094770517109928089_);}
	.st19{fill:#DD9F14;}
	.st20{fill:none;stroke:#131314;stroke-width:2;stroke-miterlimit:10;}
	.st21{clip-path:url(#SVGID_00000156548914705490442710000004859112708988030392_);}
	.st22{fill:#F7F5DD;stroke:#131314;stroke-miterlimit:10;}
	.st23{fill:#131314;stroke:#131314;stroke-miterlimit:10;}
	.st24{fill:#FF0058;stroke:#131314;stroke-miterlimit:10;}
	.st25{opacity:0.1;fill:url(#SVGID_00000168804360198487957570000007864082259713704873_);enable-background:new    ;}
	.st26{opacity:0.4;}
	.st27{fill:none;stroke:#131314;stroke-miterlimit:10;}
	.st28{fill:#FFC72C;}
	.st29{fill:none;stroke:#131314;stroke-width:0.931;stroke-miterlimit:10;}
	.st30{fill:url(#SVGID_00000080201081555106593740000011551741077090764223_);}
	.st31{clip-path:url(#SVGID_00000098180859967357797630000001653847113427548846_);}
	.st32{fill:none;stroke:#131314;stroke-width:0.7836;}
	.st33{fill:#FF0058;stroke:#131314;stroke-width:0.931;stroke-miterlimit:10;}
	.st34{opacity:0.78;fill:#FFFFFF;}
	.st35{fill:#F7F5DD;stroke:#131314;stroke-width:1.3965;stroke-miterlimit:10;}
	.st36{fill:#FFC72B;stroke:#131314;stroke-width:0.931;stroke-miterlimit:10;}
	.st37{fill:#E7B67B;}
	.st38{fill:#FFC72C;stroke:#231F20;stroke-width:0.3724;stroke-linecap:round;stroke-linejoin:round;}
	.st39{fill:none;stroke:#F7F5DD;stroke-width:1.862;stroke-linecap:round;stroke-linejoin:round;stroke-miterlimit:10;}
	.st40{fill:none;stroke:#F7F5DD;stroke-width:0.931;stroke-linecap:round;stroke-linejoin:round;stroke-miterlimit:10;}
	.st41{fill:none;stroke:#FF0058;stroke-width:0.931;stroke-miterlimit:10;}
	.st42{fill:none;stroke:#FF0058;stroke-width:0.931;stroke-linecap:round;stroke-linejoin:round;stroke-miterlimit:10;}
	.st43{fill:none;stroke:#131314;stroke-width:0.931;stroke-linecap:round;stroke-linejoin:round;stroke-miterlimit:10;}
	.st44{fill:none;stroke:#000000;stroke-width:0.931;stroke-miterlimit:10;}
	.st45{fill:none;}
	.st46{fill:#FFC72C;stroke:#000000;stroke-width:0.8449;stroke-miterlimit:10;}
	.st47{clip-path:url(#SVGID_00000067201838183849393110000001592020841002971287_);fill:#F4B821;}
	.st48{clip-path:url(#SVGID_00000067201838183849393110000001592020841002971287_);fill:#FF0058;}
	.st49{clip-path:url(#SVGID_00000099661288155349445980000008858177494008262045_);fill:#F4B821;}
	.st50{clip-path:url(#SVGID_00000099661288155349445980000008858177494008262045_);fill:#FF0058;}
	.st51{fill:#FE0058;}
	.st52{fill:#FFF8FB;}
	.st53{font-family:'BCNovaticaCYR-SemiBold';}
	.st54{font-size:12.0783px;}
	.st55{fill:#F7F5DD;stroke:#000000;stroke-width:1.2859;stroke-miterlimit:10;}
	.st56{fill:url(#SVGID_00000177471639987705813890000000417501388551495313_);}
	.st57{clip-path:url(#SVGID_00000125575238475545568170000001178076570695689900_);}
	.st58{fill:none;stroke:#131314;stroke-width:1.4798;}
	.st59{fill:#FFC72B;stroke:#131314;stroke-width:1.0065;stroke-miterlimit:10;}
	.st60{fill:#DD225C;}
	.st61{fill:#67300F;}
	.st62{fill:#FFC72C;stroke:#231F20;stroke-width:0.4026;stroke-linecap:round;stroke-linejoin:round;}
	.st63{fill:#FFB703;}
	.st64{clip-path:url(#SVGID_00000163780706487894488730000013410445100503404178_);}
	.st65{fill:url(#SVGID_00000105403397777414391650000000105567548584587418_);}
	.st66{clip-path:url(#SVGID_00000029034602137801219200000003288837253788373695_);}
	.st67{fill:none;stroke:#131314;stroke-width:1.5895;}
	.st68{fill:#FFFFFF;filter:url(#Adobe_OpacityMaskFilter_00000054249352176366047310000014099006411037840575_);}
	.st69{mask:url(#mask4_744_2018_00000150814286955539578320000013805391622432084355_);}
	.st70{fill:#FFC72B;stroke:#131314;stroke-width:0.97;stroke-miterlimit:10;}
	.st71{fill:url(#SVGID_00000029759964975872461970000012402578614978944165_);}
	.st72{clip-path:url(#SVGID_00000173137091163427583390000008859169573063577509_);}
	.st73{fill:#FFC72C;stroke:#131314;stroke-width:0.1166;stroke-miterlimit:10;}
	.st74{opacity:0.14;clip-path:url(#XMLID_00000029764396142263255560000011773876556460518069_);fill:#F7F5DD;}
	.st75{opacity:0.14;clip-path:url(#XMLID_00000071559251175806631300000017834616933181152166_);fill:#F7F5DD;}
	.st76{opacity:0.14;clip-path:url(#XMLID_00000032612360976472221300000001740435016673879446_);fill:#F7F5DD;}
	.st77{fill:none;stroke:#131314;stroke-width:0.7289;stroke-miterlimit:10;}
	.st78{fill-rule:evenodd;clip-rule:evenodd;fill:#F7F5DD;stroke:#231F20;stroke-width:0.5758;stroke-miterlimit:10;}
	.st79{fill:#FFC72C;stroke:#231F20;stroke-width:0.2915;stroke-linecap:round;stroke-linejoin:round;}
	.st80{fill:#EBD8D1;}
	.st81{fill:#FFC72B;stroke:#131314;stroke-width:0.7289;stroke-miterlimit:10;}
	.st82{fill:#FFC72B;stroke:#131314;stroke-width:1.0933;stroke-miterlimit:10;}
	.st83{fill:#FDBAA7;}
	.st84{fill:#F7F5DD;stroke:#131314;stroke-width:0.7289;stroke-miterlimit:10;}
	.st85{opacity:0.5;fill:#FCC0B1;}
	.st86{fill:#F7F5DD;stroke:#131314;stroke-width:1.0933;stroke-miterlimit:10;}
	.st87{fill:#843636;}
	.st88{opacity:0.7;}
	.st89{fill:#853536;}
	.st90{fill:#E0A9A0;}
	.st91{fill:none;stroke:#F7F5DD;stroke-width:1.4577;stroke-linecap:round;stroke-linejoin:round;stroke-miterlimit:10;}
	.st92{fill:none;stroke:#F7F5DD;stroke-width:0.7289;stroke-linecap:round;stroke-linejoin:round;stroke-miterlimit:10;}
	.st93{fill:none;stroke:#FF0058;stroke-width:0.7289;stroke-miterlimit:10;}
	.st94{fill:none;stroke:#FF0058;stroke-width:0.7289;stroke-linecap:round;stroke-linejoin:round;stroke-miterlimit:10;}
	.st95{fill:none;stroke:#131314;stroke-width:0.7289;stroke-linecap:round;stroke-linejoin:round;stroke-miterlimit:10;}
	.st96{fill:none;stroke:#000000;stroke-width:0.7289;stroke-miterlimit:10;}
	.st97{opacity:0.6;fill:#F7F5DD;enable-background:new    ;}
	.st98{opacity:0.4;fill:#F7F5DD;enable-background:new    ;}
	.st99{opacity:0.2;fill:#F7F5DD;enable-background:new    ;}
	.st100{fill:#F7F5DD;stroke:#131314;stroke-width:1.0398;stroke-miterlimit:10;}
	.st101{fill:url(#SVGID_00000032607900816350022910000012574212854209389990_);}
	.st102{clip-path:url(#SVGID_00000082348313476355065990000016658026805469893769_);}
	.st103{fill:none;stroke:#131314;stroke-width:1.396;}
	.st104{fill:#FFFFFF;stroke:#070405;stroke-width:1.0001;stroke-miterlimit:10;}
	.st105{fill:#FE0058;stroke:#000000;stroke-width:1.0001;stroke-miterlimit:10;}
	.st106{fill:#131314;stroke:#070405;stroke-width:1.0001;stroke-miterlimit:10;}
	.st107{fill:#F7F5DD;stroke:#070506;stroke-width:1.0001;stroke-miterlimit:10;}
	.st108{fill:#F7F5DD;stroke:#000000;stroke-width:1.0001;stroke-miterlimit:10;}
	.st109{fill:#131313;}
	.st110{fill:#101431;stroke:#0C0609;stroke-width:1.0001;stroke-miterlimit:10;}
	.st111{fill:#171F42;stroke:#0C0609;stroke-width:1.0001;stroke-miterlimit:10;}
	.st112{fill:none;stroke:#131314;stroke-width:1.63;stroke-linecap:round;stroke-linejoin:round;stroke-dasharray:10.2907,8.5737;}
	.st113{fill:#FFC72C;stroke:#131314;stroke-width:0.815;stroke-linecap:round;stroke-linejoin:round;stroke-miterlimit:10;}
	.st114{fill:#FFC72C;stroke:#131314;stroke-width:0.815;stroke-linecap:round;stroke-linejoin:round;}
	.st115{fill:none;stroke:#131314;stroke-width:0.9454;stroke-linecap:round;stroke-miterlimit:10;}
	.st116{fill:url(#SVGID_00000140703585153363563010000006446450627077105298_);}
	.st117{fill:#F7F5DD;stroke:#131314;stroke-width:1.0867;stroke-linecap:round;stroke-linejoin:round;stroke-miterlimit:10;}
	.st118{fill:none;stroke:#131314;stroke-width:1.0867;stroke-linecap:round;stroke-linejoin:round;stroke-miterlimit:10;}
	.st119{fill:#F7F5DD;stroke:#131314;stroke-width:2.0758;stroke-linecap:round;stroke-linejoin:round;stroke-miterlimit:10;}
	.st120{fill:none;stroke:#131314;stroke-width:2.0758;stroke-linecap:round;stroke-linejoin:round;stroke-miterlimit:10;}
	.st121{fill:#FFC72C;stroke:#131314;stroke-width:0.5341;stroke-linecap:round;stroke-linejoin:round;stroke-miterlimit:10;}
	.st122{fill:#FFC72C;stroke:#131314;stroke-width:0.5341;stroke-linecap:round;stroke-linejoin:round;}
	.st123{fill:none;stroke:#131314;stroke-width:0.6195;stroke-linecap:round;stroke-miterlimit:10;}
	.st124{fill:#FFFFFF;filter:url(#Adobe_OpacityMaskFilter_00000074407329419479470850000000072759273896983430_);}
	.st125{mask:url(#mask0_472_749_00000067936524425341381020000013690141856301607846_);}
	.st126{fill:#FFC72B;stroke:#000000;stroke-width:0.7607;stroke-miterlimit:10;}
	.st127{fill:none;stroke:#FF0058;stroke-width:3.26;stroke-linecap:round;stroke-linejoin:round;}
	.st128{fill:url(#SVGID_00000160185883822603520360000003983041537445264786_);}
	.st129{fill:#FFC72C;stroke:#131314;stroke-width:9.798834e-02;stroke-miterlimit:10;}
	.st130{fill:#F7F5DD;stroke:#131314;stroke-width:0.8499;stroke-miterlimit:10;}
	.st131{fill:url(#SVGID_00000051348631016029289490000006523850396015644599_);}
	.st132{clip-path:url(#SVGID_00000018943820852668752520000013855166480637162391_);}
	.st133{fill:none;stroke:#131314;stroke-width:0.1586;}
	.st134{fill:#F7F5DD;stroke:#000000;stroke-width:0.1379;stroke-miterlimit:10;}
	.st135{fill:#FFC72B;stroke:#131314;stroke-width:0.1079;stroke-miterlimit:10;}
	
		.st136{fill-rule:evenodd;clip-rule:evenodd;fill:#F7F5DD;stroke:#131314;stroke-width:0.6316;stroke-linecap:round;stroke-linejoin:round;stroke-miterlimit:10;}
	.st137{fill:#FE0058;stroke:#131314;stroke-width:0.6316;stroke-linecap:round;stroke-linejoin:round;stroke-miterlimit:10;}
	.st138{fill:#F7F5DD;stroke:#131314;stroke-width:0.6316;stroke-linecap:round;stroke-linejoin:round;stroke-miterlimit:10;}
	.st139{fill:#FFC72B;stroke:#131314;stroke-width:0.8499;stroke-miterlimit:10;}
	.st140{opacity:0.5;}
	.st141{clip-path:url(#SVGID_00000054985755740641407700000003888540773375214237_);}
	.st142{fill:#CCCCCC;}
	.st143{fill:#FFC608;stroke:#131314;stroke-width:0.6316;stroke-linecap:round;stroke-linejoin:round;stroke-miterlimit:10;}
	.st144{fill:#79C9E2;}
	.st145{fill:#62B8CC;}
	.st146{fill:#D9E1EE;}
	.st147{fill:none;stroke:#FFFFFF;stroke-width:0.4753;stroke-miterlimit:10;}
	.st148{fill:#E48D34;}
	.st149{fill:#EAA05C;}
	.st150{fill:#D17A2B;}
	.st151{fill:#F5B376;}
	.st152{fill:#F5BE2D;}
	.st153{fill:#F4E081;}
	.st154{fill:#F2A101;}
	.st155{fill:#F7CF4C;}
	.st156{fill:#DE8E06;}
	.st157{fill:#05C954;}
	.st158{fill:#E21E36;}
	.st159{fill:#D4101E;}
	.st160{fill:#00AF47;}
	.st161{fill:#FFE164;}
	.st162{fill:#FFFAA6;}
	.st163{fill:#43B572;}
	.st164{fill:#FFC72C;stroke:#231F20;stroke-width:0.1377;stroke-linecap:round;stroke-linejoin:round;}
	.st165{fill:#FED0B8;}
	.st166{fill:#F7F5DD;stroke:#131314;stroke-width:0.6605;stroke-linecap:round;stroke-linejoin:round;stroke-miterlimit:10;}
	.st167{fill:#FFC608;stroke:#131314;stroke-width:0.6234;stroke-miterlimit:10;}
	.st168{fill:#FFC608;stroke:#131314;stroke-width:0.5155;stroke-miterlimit:10;}
	.st169{fill:none;stroke:#131314;stroke-width:1.1332;stroke-linecap:round;stroke-linejoin:round;stroke-dasharray:22.665,22.665;}
	.st170{fill:#FFC72C;stroke:#231F20;stroke-width:4.938446e-02;stroke-linecap:round;stroke-linejoin:round;}
	.st171{fill:url(#SVGID_00000153706198500767169110000017765843423906208688_);}
	.st172{clip-path:url(#SVGID_00000132780433447841272800000006916727326016400780_);}
	.st173{fill:#FFC72C;stroke:#131314;stroke-width:7.223932e-02;stroke-miterlimit:10;}
	.st174{fill:url(#SVGID_00000152981682499625712740000006443114392374216610_);}
	.st175{fill:#131314;stroke:#F7F5DD;stroke-width:0.1911;stroke-miterlimit:10;}
	.st176{fill:#F7F5DD;stroke:#131314;stroke-width:0.9245;stroke-miterlimit:10;}
	.st177{fill:none;stroke:#131314;stroke-width:0.9245;stroke-miterlimit:10;}
	.st178{fill:#131314;stroke:#F7F5DD;stroke-width:0.2096;stroke-miterlimit:10;}
	.st179{fill:#FF0058;stroke:#131314;stroke-width:0.9245;stroke-miterlimit:10;}
	.st180{fill:#232020;}
	.st181{fill:#F7F5DD;stroke:#231F20;stroke-width:0.9245;stroke-miterlimit:10;}
	.st182{fill:#FCF4EC;}
	.st183{fill:#CD950C;}
	.st184{fill:none;stroke:#FFFFFF;stroke-width:0.5769;stroke-miterlimit:10;}
	.st185{fill:#FFC72C;stroke:#131314;stroke-width:0.8286;stroke-miterlimit:10;}
	.st186{fill:#FFC72C;stroke:#131314;stroke-width:0.8286;stroke-linecap:round;stroke-linejoin:round;}
	.st187{clip-path:url(#SVGID_00000162351252065684542290000005282067760615866032_);}
	.st188{fill:url(#SVGID_00000029736995017659229810000002078601449737671598_);}
	.st189{clip-path:url(#SVGID_00000176748038013154895040000015360243613588902585_);}
	.st190{fill:none;stroke:#131314;stroke-width:1.5284;}
	.st191{fill:#FFFFFF;filter:url(#Adobe_OpacityMaskFilter_00000042711772190580382970000012244762620220169386_);}
	.st192{mask:url(#mask4_744_2018_00000067229330011245605510000014511519346254753932_);}
	.st193{fill:#FFC72B;stroke:#131314;stroke-width:0.9327;stroke-miterlimit:10;}
	.st194{fill-rule:evenodd;clip-rule:evenodd;fill:#F7F5DD;stroke:#131314;stroke-width:0.2707;stroke-miterlimit:10;}
	.st195{fill-rule:evenodd;clip-rule:evenodd;fill:#F9CC3D;}
	.st196{fill-rule:evenodd;clip-rule:evenodd;fill:#FE0058;}
	.st197{fill:#EDBA29;}
	.st198{fill-rule:evenodd;clip-rule:evenodd;fill:#98DFFF;}
	.st199{fill:#29ABE2;}
	.st200{fill-rule:evenodd;clip-rule:evenodd;fill:#FFC72C;stroke:#131314;stroke-width:0.2707;stroke-miterlimit:10;}
	.st201{fill-rule:evenodd;clip-rule:evenodd;fill:#F7F5DD;stroke:#131314;stroke-width:0.1083;stroke-miterlimit:10;}
	.st202{fill-rule:evenodd;clip-rule:evenodd;fill:#FE0058;stroke:#131314;stroke-width:0.1083;stroke-miterlimit:10;}
	.st203{fill:#B3B3B3;}
	.st204{fill:#FFC72C;stroke:#231F20;stroke-width:0.4332;stroke-linecap:round;stroke-linejoin:round;}
	.st205{fill:#FFC84A;}
	.st206{fill:#FF0058;stroke:#131314;stroke-width:1.2117;stroke-miterlimit:10;}
	.st207{fill:#F7F5DD;stroke:#131314;stroke-width:0.9088;stroke-miterlimit:10;}
	.st208{fill:#FFC72B;stroke:#131314;stroke-width:0.9088;stroke-miterlimit:10;}
	.st209{fill:url(#SVGID_00000096039940931445509580000001853283011849957299_);}
	.st210{fill:#FFC72B;stroke:#000000;stroke-width:0.8482;stroke-miterlimit:10;}
	.st211{fill:none;stroke:#F7F5DD;stroke-width:1.4089;stroke-linecap:round;stroke-linejoin:round;stroke-miterlimit:10;}
	.st212{fill:none;stroke:#131314;stroke-width:0.7045;stroke-miterlimit:10;}
	.st213{fill:none;stroke:#F7F5DD;stroke-width:0.7045;stroke-linecap:round;stroke-linejoin:round;stroke-miterlimit:10;}
	.st214{fill:none;stroke:#FF0058;stroke-width:0.7045;stroke-miterlimit:10;}
	.st215{fill:none;stroke:#FF0058;stroke-width:0.7045;stroke-linecap:round;stroke-linejoin:round;stroke-miterlimit:10;}
	.st216{fill:none;stroke:#131314;stroke-width:0.7045;stroke-linecap:round;stroke-linejoin:round;stroke-miterlimit:10;}
	.st217{fill:none;stroke:#000000;stroke-width:0.7045;stroke-miterlimit:10;}
	.st218{fill:none;stroke:#131314;stroke-width:0.8062;stroke-miterlimit:10;}
	.st219{clip-path:url(#SVGID_00000106825747569621050610000016987361384772880283_);}
	.st220{fill:url(#SVGID_00000012452031972979746910000005959670073713244579_);}
	.st221{clip-path:url(#SVGID_00000078760082133609574630000008733806941791004090_);}
	.st222{fill:none;stroke:#131314;stroke-width:1.7355;}
	.st223{fill:#F7F5DD;stroke:#131314;stroke-width:1.2641;stroke-miterlimit:10;}
	.st224{fill:#FFC608;stroke:#0C0609;stroke-width:0.9481;stroke-miterlimit:10;}
	.st225{fill:#FFC72B;stroke:#131314;stroke-width:1.2641;stroke-miterlimit:10;}
	.st226{fill:#FFC72B;stroke:#131314;stroke-width:0.9481;stroke-miterlimit:10;}
	.st227{clip-path:url(#SVGID_00000119824626825404282930000013621061199307081356_);}
	.st228{fill:#F4B821;}
	.st229{fill:#C69560;}
	.st230{fill:#F7F5DD;stroke:#131314;stroke-width:1.2993;stroke-miterlimit:10;}
	.st231{fill:#131314;stroke:#F7F5DD;stroke-width:0.2685;stroke-miterlimit:10;}
	.st232{fill:#FFC72B;stroke:#131314;stroke-width:1.2993;stroke-miterlimit:10;}
	.st233{fill:none;stroke:#131314;stroke-width:1.2993;stroke-miterlimit:10;}
	.st234{fill:#131314;stroke:#F7F5DD;stroke-width:0.2945;stroke-miterlimit:10;}
	.st235{fill:#FF0058;stroke:#131314;stroke-width:1.2993;stroke-miterlimit:10;}
	.st236{fill:#FFFFFF;filter:url(#Adobe_OpacityMaskFilter_00000000204092721423657080000008736136343262026136_);}
	.st237{mask:url(#mask0_479_11673_00000099644528304487065730000005320813079396614829_);}
	.st238{fill:#FFC72B;stroke:#000000;stroke-width:0.6063;stroke-miterlimit:10;}
	.st239{fill:url(#SVGID_00000109013970915914206280000004632515142808642465_);}
	.st240{fill:#FFFFFF;filter:url(#Adobe_OpacityMaskFilter_00000114033829451264190160000008072606872203797690_);}
	.st241{mask:url(#mask0_472_749_00000032621048777137593190000003031189513109940632_);}
	.st242{fill:url(#SVGID_00000087385379842740082360000010188790963475714746_);}
	.st243{fill:url(#SVGID_00000070815212473432921730000016326456088413686414_);}
	.st244{clip-path:url(#SVGID_00000011715265002287881870000002529583535149456808_);}
	.st245{fill:none;stroke:#131314;stroke-width:1.793;}
	.st246{fill:#F7F5DD;stroke:#000000;stroke-width:1.4856;stroke-miterlimit:10;}
	.st247{fill:#FFC72B;stroke:#131314;stroke-width:1.1628;stroke-miterlimit:10;}
	.st248{fill:#F7F5DD;stroke:#131314;stroke-width:1.306;stroke-miterlimit:10;}
	.st249{fill:none;stroke:#131314;stroke-width:1.2653;stroke-miterlimit:10;}
	.st250{fill:#FFC72C;stroke:#131314;stroke-width:0.9795;stroke-miterlimit:10;}
	.st251{fill:#FFC72C;stroke:#131314;stroke-width:0.9795;stroke-linecap:round;stroke-linejoin:round;stroke-miterlimit:10;}
	.st252{fill:#FFFFFF;}
	.st253{fill:#F7F5DD;stroke:#000000;stroke-width:0.4697;stroke-miterlimit:10;}
	.st254{fill:#FFC046;}
	.st255{fill:none;stroke:#131314;stroke-width:0.8612;stroke-linecap:round;stroke-linejoin:round;stroke-miterlimit:10;}
	.st256{fill:none;stroke:#FFFFFF;stroke-width:0.8612;stroke-linecap:round;stroke-linejoin:round;stroke-miterlimit:10;}
	.st257{fill:none;stroke:#F7F5DD;stroke-width:0.4697;stroke-miterlimit:10;}
	.st258{fill:#F7F5DD;stroke:#070506;stroke-width:0.5202;stroke-miterlimit:10;}
	.st259{fill:#F7F5DD;stroke:#000000;stroke-width:0.5202;stroke-miterlimit:10;}
	.st260{fill:#FE0058;stroke:#000000;stroke-width:0.5202;stroke-miterlimit:10;}
	.st261{fill:none;stroke:#F7F5DD;stroke-width:0.8612;stroke-linecap:round;stroke-linejoin:round;stroke-miterlimit:10;}
	.st262{fill:none;stroke:#1A2E35;stroke-width:0.8612;stroke-linecap:round;stroke-linejoin:round;stroke-miterlimit:10;}
</style>
<g id="Layer_1">
</g>
<g id="Home">
</g>
<g id="Restaurants">
	<g>
		<g>
			<g>
				<path class="st7" d="M590.5,0.5H413.6c-20.4,0-37.1,16.7-37.1,37.1v435.5c0,20.4,16.7,37.1,37.1,37.1h176.8
					c20.4,0,37.1-16.7,37.1-37.1V37.6C627.6,17.2,610.9,0.5,590.5,0.5z"/>
				<path class="st0" d="M590.5,510.8H413.6c-20.7,0-37.6-16.9-37.6-37.6V37.6C376,16.9,392.9,0,413.6,0h176.8
					c20.7,0,37.6,16.9,37.6,37.6v435.5C628.1,493.9,611.2,510.8,590.5,510.8z M413.6,1C393.4,1,377,17.4,377,37.6v435.5
					c0,20.2,16.4,36.6,36.6,36.6h176.8c20.2,0,36.6-16.4,36.6-36.6V37.6c0-20.2-16.4-36.6-36.6-36.6H413.6z"/>
			</g>
			<path class="st8" d="M411.8,10c-14.4,0-26.2,11.9-26.2,26.6v428.3c0,14.7,11.7,26.6,26.2,26.6h180.6c14.4,0,26.2-11.9,26.2-26.6
				V36.6c0-14.7-11.7-26.6-26.2-26.6H411.8z"/>
			<path class="st45" d="M592.3,9.5h-22.8h-1.6H436.3h-3.9h-20.6c-14.7,0-26.7,12.2-26.7,27.1v428.3c0,14.9,12,27.1,26.7,27.1h180.6
				c14.7,0,26.7-12.2,26.7-27.1V36.6C619,21.7,607,9.5,592.3,9.5z"/>
			<path class="st0" d="M592.3,492.5H411.8c-15,0-27.2-12.4-27.2-27.6V36.6c0-15.2,12.2-27.6,27.2-27.6h180.6
				c15,0,27.2,12.4,27.2,27.6v428.3C619.5,480.2,607.3,492.5,592.3,492.5z M411.8,10c-14.4,0-26.2,11.9-26.2,26.6v428.3
				c0,14.7,11.7,26.6,26.2,26.6h180.6c14.4,0,26.2-11.9,26.2-26.6V36.6c0-14.7-11.7-26.6-26.2-26.6H411.8z"/>
			<path class="st45" d="M592.3,9.5h-22.8h-1.6H436.3h-3.9h-20.6c-14.7,0-26.7,12.2-26.7,27.1v428.3c0,14.9,12,27.1,26.7,27.1h180.6
				c14.7,0,26.7-12.2,26.7-27.1V36.6C619,21.7,607,9.5,592.3,9.5z"/>
			<rect x="434.4" y="10.1" class="st0" width="140.3" height="46"/>
			<path class="st8" d="M591.4,10.6l-34.5-0.2c-1.1,0-2.3,0.3-3.3,0.7c-1,0.4-2,1.1-2.7,1.9c-0.8,0.8-1.4,1.7-1.8,2.8
				c-0.4,1-0.6,2.1-0.6,3.2v6.1c0,1.1-0.2,2.2-0.6,3.2c-0.4,1-1,2-1.8,2.8c-0.8,0.8-1.7,1.4-2.7,1.9c-1,0.4-2.2,0.7-3.3,0.7
				l-67.3-0.3c-2.3-0.1-4.4-1-6-2.6c-1.6-1.6-2.4-3.8-2.4-6v-6.1c0-2.2-0.8-4.4-2.4-6c-1.6-1.6-3.7-2.6-6-2.6h-12.1L413.6,10
				c-3.5,0-7.1,0.7-10.3,2c-3.3,1.3-6.3,3.3-8.8,5.7c-5.1,5-8,11.7-8,18.8L384.6,464c0,7.1,2.8,13.9,7.9,18.9c5.1,5,12,7.9,19.2,7.9
				l177.7,0.8c7.2,0,14.1-2.8,19.3-7.7c5.1-5,8-11.7,8.1-18.8l1.8-427.6c0-3.5-0.7-7-2-10.2c-1.3-3.2-3.3-6.2-5.9-8.7
				c-2.5-2.5-5.5-4.5-8.8-5.8C598.6,11.3,595,10.6,591.4,10.6z"/>
			<g>
				<g>
					<g>
						<path class="st0" d="M404.1,29.9v-0.8c0.4,0,0.6,0,0.8-0.1c0.2-0.1,0.4-0.2,0.6-0.3c0.1-0.1,0.2-0.3,0.2-0.4
							c0-0.1,0-0.2,0-0.2l1,0v6h-1.2v-4.2L404.1,29.9z"/>
					</g>
					<g>
						<path class="st0" d="M408.3,29.9v-0.8c0.4,0,0.6,0,0.8-0.1c0.2-0.1,0.4-0.2,0.6-0.3c0.1-0.1,0.2-0.3,0.2-0.4
							c0-0.1,0-0.2,0-0.2l1,0v6h-1.2v-4.2H408.3z"/>
					</g>
					<g>
						<path class="st0" d="M413.4,29.7h1.3v1.2h-1.3V29.7z M413.4,32.8h1.3V34h-1.3V32.8z"/>
					</g>
					<g>
						<path class="st0" d="M415.9,29.9v-0.8c0.4,0,0.6,0,0.8-0.1c0.2-0.1,0.4-0.2,0.6-0.3c0.1-0.1,0.2-0.3,0.2-0.4
							c0-0.1,0-0.2,0-0.2l1,0v6h-1.2v-4.2H415.9z"/>
					</g>
					<g>
						<path class="st0" d="M420.2,29.9v-0.8c0.4,0,0.6,0,0.8-0.1c0.2-0.1,0.4-0.2,0.6-0.3c0.1-0.1,0.2-0.3,0.2-0.4
							c0-0.1,0-0.2,0-0.2l1,0v6h-1.2v-4.2L420.2,29.9z"/>
					</g>
				</g>
				<g>
					<g>
						<path class="st0" d="M562.3,34.6h-1.1c-0.2,0-0.3-0.2-0.3-0.3v-1.6c0-0.2,0.2-0.3,0.3-0.3h1.1c0.2,0,0.3,0.2,0.3,0.3v1.6
							C562.7,34.5,562.5,34.6,562.3,34.6z"/>
					</g>
					<g>
						<path class="st0" d="M565.2,34.6H564c-0.2,0-0.3-0.2-0.3-0.3v-2.9c0-0.2,0.2-0.3,0.3-0.3h1.1c0.2,0,0.3,0.2,0.3,0.3v2.9
							C565.5,34.5,565.3,34.6,565.2,34.6z"/>
					</g>
					<g>
						<path class="st0" d="M568,34.6h-1.1c-0.2,0-0.3-0.2-0.3-0.3V30c0-0.2,0.2-0.3,0.3-0.3h1.1c0.2,0,0.3,0.2,0.3,0.3v4.3
							C568.3,34.5,568.2,34.6,568,34.6z"/>
					</g>
					<g>
						<path class="st0" d="M570.8,34.6h-1.1c-0.2,0-0.3-0.2-0.3-0.3v-5.6c0-0.2,0.2-0.3,0.3-0.3h1.1c0.2,0,0.3,0.2,0.3,0.3v5.6
							C571.1,34.5,571,34.6,570.8,34.6z"/>
					</g>
				</g>
				<g>
					<path class="st0" d="M580.1,33.5c0,0.6-0.5,1.1-1.1,1.1s-1.1-0.5-1.1-1.1c0-0.6,0.5-1.1,1.1-1.1S580.1,32.9,580.1,33.5z"/>
				</g>
				<g>
					<g>
						<path class="st0" d="M581,32.1c-0.2,0-0.3-0.1-0.4-0.2c-0.8-0.8-2.2-0.8-3,0c-0.2,0.2-0.7,0.2-0.9,0c-0.2-0.2-0.2-0.7,0-0.9
							c0.6-0.6,1.5-1,2.4-1s1.8,0.4,2.4,1c0.2,0.2,0.2,0.7,0,0.9C581.3,32.1,581.1,32.1,581,32.1z"/>
					</g>
				</g>
				<g>
					<g>
						<path class="st0" d="M582.6,30.5c-0.2,0-0.3-0.1-0.4-0.2c-1.7-1.8-4.6-1.8-6.3,0c-0.2,0.2-0.7,0.2-0.9,0
							c-0.2-0.2-0.2-0.7,0-0.9c2.2-2.2,5.9-2.2,8.1,0c0.2,0.2,0.2,0.7,0,0.9C582.9,30.4,582.8,30.5,582.6,30.5z"/>
					</g>
				</g>
				<g>
					<g>
						<path class="st0" d="M597,33.5h-7.4c-1,0-1.9-0.8-1.9-1.9V31c0-1,0.8-1.9,1.9-1.9h7.4c1,0,1.9,0.8,1.9,1.9v0.6
							C598.9,32.6,598.1,33.5,597,33.5z"/>
					</g>
					<g>
						<path class="st0" d="M599.3,30.1L599.3,30.1l-0.1,2.3h0.1c0.4,0,0.8-0.4,0.8-0.8v-0.7C600,30.5,599.7,30.1,599.3,30.1z"/>
					</g>
				</g>
			</g>
			<ellipse class="st0" cx="504.2" cy="510.8" rx="133.4" ry="1.1"/>
			<g>
				<g>
					<path class="st46" d="M471.1,295.2h-66.4c-5,0-9-4-9-9v-31.9c0-5,4-9,9-9h66.4c5,0,9,4,9,9v31.9
						C480.1,291.2,476.1,295.2,471.1,295.2z"/>
					<path class="st46" d="M599.8,256.3H489.8c-2,0-3.7-1.6-3.7-3.7l0,0c0-2,1.6-3.7,3.7-3.7h110.1c2,0,3.7,1.6,3.7,3.7l0,0
						C603.5,254.7,601.9,256.3,599.8,256.3z"/>
					<path class="st46" d="M599.8,270.3H489.8c-2,0-3.7-1.6-3.7-3.7l0,0c0-2,1.6-3.7,3.7-3.7h110.1c2,0,3.7,1.6,3.7,3.7l0,0
						C603.5,268.6,601.9,270.3,599.8,270.3z"/>
					<path class="st46" d="M534.5,283.1h-46c-1.3,0-2.4-1.1-2.4-2.4v-2.5c0-1.3,1.1-2.4,2.4-2.4h46c1.3,0,2.4,1.1,2.4,2.4v2.5
						C537,282,535.9,283.1,534.5,283.1z"/>
					<g>
						<defs>
							<path id="SVGID_00000082347218174184995190000016512640596971753399_" d="M470.4,294.7h-65c-4.9,0-8.8-3.9-8.8-8.8v-31.2
								c0-4.9,3.9-8.8,8.8-8.8h65c4.9,0,8.8,3.9,8.8,8.8v31.2C479.2,290.7,475.2,294.7,470.4,294.7z"/>
						</defs>
						<clipPath id="SVGID_00000017501941252540507850000004340399642333462195_">
							<use xlink:href="#SVGID_00000082347218174184995190000016512640596971753399_"  style="overflow:visible;"/>
						</clipPath>
						<path style="clip-path:url(#SVGID_00000017501941252540507850000004340399642333462195_);fill:#F4B821;" d="M397.2,250.8
							l-1.5,0v0.3l1.5-0.1l1.3,21.4c-1,0-1.9-0.1-2.8-0.1v0.5c0.8,0,1.8,0.1,2.8,0.1l0.3,4.6l-3.1,0.7v0.3l3.1-0.7l0.6,10.5
							l-3.7,0.1v1.3l3.8-0.1l0.3,4.6l0.5,0l-0.3-4.6l7.7-0.2l0.2,4.8h0.2l-0.2-4.8l6.4-0.2l2.3,0.6l0.4,4.6h0.2l-0.4-4.5l5.6,1.4
							l1.4-0.2c-0.1,0.6-0.4,1.9-0.7,3.2h0.8c0.5-1.9,0.6-2.8,0.7-3.3l11.7-1.2l0.4,4.6h0.5l-0.4-4.6l7.1-0.7l-0.4,5.4h0.8l0.4-5.5
							l2.9-0.3l4.1,1.2l-1.4,4.6h1.3l1.8-6.2l3,0.1l-1.5,6.1h0.8l0.7-3l2.7,0.5c-0.2,0.9-0.4,1.7-0.6,2.5h0.2
							c0.1-0.8,0.3-1.6,0.6-2.5l2.7,0.5l-0.1,2h0.5l0.2-2.4l-3.1-0.6c0.5-1.4,2.2-4.6,6.9-4.5l2.8,7.5h0.3l0.2-0.1l-2.7-7.4H479
							v-0.3h-12l-1.2-3.1l8.8-4.7c-0.2-0.2-0.2-0.5-0.3-0.7l-8.8,4.7l-2.7-7.2l-0.6,0.2l-0.2-5.6l12.3-0.2v-0.3l-12.3,0.2l-0.4-9.9
							c1.9,0,3.7,0,4.7-0.1h0.1l12.7-0.6v-0.3l-12.6,0.6l1.4-10.2l11.3,2.4v-0.8l-11.2-2.4l0.4-3.2l-0.2,0h-0.1l-0.4,3.2l-12-2.6
							l0-0.7h-1.3l-0.4,5H448l-1.1-5.1h-0.8l1.2,5.9h6.8l-1.3,18.9h-7.2v-6l-3.4-0.8v-4.9l-2.2-13h-0.8l2.2,13.1v14.9l-6.1,0.5
							l-1.4-15.5l-0.5,0.1l1.4,15.5l-11.7,1l1.9-15.7l-0.7-0.1l-1.9,15.9l-6.9,0.6l-1.6-16.6l-0.6-8.6H424l4.4,8.2l0.7-0.4l-4.3-8
							l0.6-5h-0.8l-0.6,4.9h-6.7l-0.5-5H416l0.5,5h-3.4l-9.5,0.3l-1.9-5.3h-0.8l2,5.3l-5.2,0.2l-0.3-5.5h-0.2h-0.3L397.2,250.8z
							 M399,273.1c0.4,0,0.9,0,1.4,0.1v4.2l-1.1,0.2L399,273.1z M399.3,277.8l1.2-0.3l5.5-0.6l4-0.4l0.8,11.5l-10.9,0.4L399.3,277.8
							z M415.7,280.4l0.6,6l-2.2-0.2l-0.5-5.4L415.7,280.4z M415.7,280.2l-4.8,1l-0.3-4.6l4.8-0.4L415.7,280.2z M411.3,288l-0.5-6.6
							l2.2-0.5l0.6,5.8l2.7,0.2l0.1,1.5l-2-0.5L411.3,288z M428.7,280.2l-4.9,1.2l-0.6-6l4.9-0.4L428.7,280.2z M423.8,281.7l4.9-1.2
							l1,8.8l-5.2,0.5L423.8,281.7z M444.8,287.7l0.9-13.3l6.8,1.3l-0.1,0.9v11.2l-0.3,0.9l-4.4-1.3L444.8,287.7z M466.5,286.9
							c-1.3,0-5.6,0.3-7,4.7l-2.8-0.5l0.7-2.7l8.1-4.3L466.5,286.9z M465.1,283.3l-8.2,4.4l-3.2-0.1v-8.7l9-2.3L465.1,283.3z
							 M462.1,276.1l-8.4,2.2v-1.5l0.4-6.2l7.8-0.1L462.1,276.1z M461.9,270.1l-7.7,0.1l0.7-10.1c1.3,0,4.1,0,6.7,0L461.9,270.1z
							 M467.6,249.6l-1.4,10.2c-4,0.1-9.6,0.1-11.4,0l0.9-12.9L467.6,249.6z M452.5,275.5l-10.2-1.9v-3h10.5L452.5,275.5z
							 M444.9,264.9v5.4h-2.6v-6L444.9,264.9z M441.9,273.8l3,0.6l-0.9,13.5l-7.3,0.8l-1.3-14.2L441.9,273.8z M436.2,288.6l-5.7,0.6
							l-1.6-14.3l6.1-0.5L436.2,288.6z M422.5,275.5l1.4,14.4l-1.3,0.1l-5.8-1.5l-1.2-12.4L422.5,275.5z M406,276.6l-5.4,0.6v-4.1
							c1.8,0.1,3.6,0.1,4.9,0.2c2.4,0.1,2.4,0.1,2.5-0.1l-0.2-0.1v-0.3c-0.2,0-3.5-0.1-7-0.3l5.4-12l7.7-0.4l1.5,15.7L406,276.6z
							 M413.7,259.1l-9.9-0.1l-0.4-8.1l9.7-0.3L413.7,259.1z M403,250.9h0.2l0.4,8.4l10.2,0.1l0.1,0.5l-7.9,0.4l-5.5,12.3
							c-0.5,0-1,0-1.5-0.1l-1.3-21.4L403,250.9z"/>
						<path style="clip-path:url(#SVGID_00000017501941252540507850000004340399642333462195_);fill:#FF0058;" d="M443.7,262.2
							c0-1.9-0.6-3.7-1.9-5.1c-1.2-1.4-2.9-2.4-4.8-2.8c-1.2-0.2-2.5-0.2-3.7,0.1c-1.2,0.3-2.4,0.9-3.3,1.7c-0.9,0.8-1.7,1.8-2.2,3
							c-0.5,1.1-0.7,2.4-0.6,3.6c0.1,1.2,0.5,2.4,1.1,3.5c0.3,0.5,0.7,1,1.1,1.4l4.7,6.1c0.1,0.2,0.3,0.3,0.5,0.4
							c0.2,0.1,0.4,0.2,0.7,0.2c0.2,0,0.5-0.1,0.7-0.2c0.2-0.1,0.4-0.2,0.5-0.4l4.7-6c0.4-0.5,0.8-1,1.2-1.5
							C443.3,265,443.7,263.6,443.7,262.2z M435.5,265.7c-0.7,0-1.4-0.2-2-0.6c-0.6-0.4-1.1-0.9-1.3-1.5c-0.2-0.5-0.3-1-0.3-1.5
							c0-0.5,0.2-1,0.4-1.5c0.3-0.5,0.6-0.9,1-1.2c0.4-0.3,0.9-0.5,1.4-0.6c0.7-0.1,1.4-0.1,2.1,0.2c0.6,0.3,1.2,0.7,1.6,1.3
							c0.4,0.6,0.6,1.3,0.6,2c0,0.5-0.1,0.9-0.3,1.4c-0.2,0.4-0.5,0.8-0.8,1.2c-0.3,0.3-0.7,0.6-1.2,0.8
							C436.4,265.7,435.9,265.8,435.5,265.7L435.5,265.7z"/>
					</g>
				</g>
			</g>
			<g>
				<g>
					<path class="st46" d="M471.1,358.2h-66.4c-5,0-9-4-9-9v-31.9c0-5,4-9,9-9h66.4c5,0,9,4,9,9v31.9
						C480.1,354.2,476.1,358.2,471.1,358.2z"/>
					<path class="st46" d="M599.8,319.4H489.8c-2,0-3.7-1.6-3.7-3.7l0,0c0-2,1.6-3.7,3.7-3.7h110.1c2,0,3.7,1.6,3.7,3.7l0,0
						C603.5,317.7,601.9,319.4,599.8,319.4z"/>
					<path class="st46" d="M599.8,333.3H489.8c-2,0-3.7-1.6-3.7-3.7l0,0c0-2,1.6-3.7,3.7-3.7h110.1c2,0,3.7,1.6,3.7,3.7l0,0
						C603.5,331.6,601.9,333.3,599.8,333.3z"/>
					<path class="st46" d="M534.5,346.1h-46c-1.3,0-2.4-1.1-2.4-2.4v-2.5c0-1.3,1.1-2.4,2.4-2.4h46c1.3,0,2.4,1.1,2.4,2.4v2.5
						C537,345.1,535.9,346.1,534.5,346.1z"/>
					<g>
						<defs>
							<path id="SVGID_00000060724055378346369930000015445764742258724237_" d="M470.4,357.7h-65c-4.9,0-8.8-3.9-8.8-8.8v-31.2
								c0-4.9,3.9-8.8,8.8-8.8h65c4.9,0,8.8,3.9,8.8,8.8v31.2C479.2,353.7,475.2,357.7,470.4,357.7z"/>
						</defs>
						<clipPath id="SVGID_00000070807815877647402520000010122655597335489171_">
							<use xlink:href="#SVGID_00000060724055378346369930000015445764742258724237_"  style="overflow:visible;"/>
						</clipPath>
						<path style="clip-path:url(#SVGID_00000070807815877647402520000010122655597335489171_);fill:#F4B821;" d="M397.2,313.8
							l-1.5,0v0.3l1.5-0.1l1.3,21.4c-1,0-1.9-0.1-2.8-0.1v0.5c0.8,0,1.8,0.1,2.8,0.1l0.3,4.6l-3.1,0.7v0.3l3.1-0.7l0.6,10.5
							l-3.7,0.1v1.3l3.8-0.1l0.3,4.6l0.5,0l-0.3-4.6l7.7-0.2l0.2,4.8h0.2l-0.2-4.8l6.4-0.2l2.3,0.6l0.4,4.6h0.2l-0.4-4.5l5.6,1.4
							l1.4-0.2c-0.1,0.6-0.4,1.9-0.7,3.2h0.8c0.5-1.9,0.6-2.8,0.7-3.3l11.7-1.2l0.4,4.6h0.5l-0.4-4.6l7.1-0.7l-0.4,5.4h0.8l0.4-5.5
							l2.9-0.3l4.1,1.2l-1.4,4.6h1.3l1.8-6.2l3,0.1l-1.5,6.1h0.8l0.7-3l2.7,0.5c-0.2,0.9-0.4,1.7-0.6,2.5h0.2
							c0.1-0.8,0.3-1.6,0.6-2.5l2.7,0.5l-0.1,2h0.5l0.2-2.4l-3.1-0.6c0.5-1.4,2.2-4.6,6.9-4.5l2.8,7.5h0.3l0.2-0.1l-2.7-7.4H479
							v-0.3h-12l-1.2-3.1l8.8-4.7c-0.2-0.2-0.2-0.5-0.3-0.7l-8.8,4.7l-2.7-7.2l-0.6,0.2l-0.2-5.6l12.3-0.2v-0.3l-12.3,0.2l-0.4-9.9
							c1.9,0,3.7,0,4.7-0.1h0.1l12.7-0.6v-0.3l-12.6,0.6l1.4-10.2l11.3,2.4v-0.8l-11.2-2.4l0.4-3.2l-0.2,0h-0.1l-0.4,3.2l-12-2.6
							l0-0.7h-1.3l-0.4,5H448l-1.1-5.1h-0.8l1.2,5.9h6.8l-1.3,18.9h-7.2v-6l-3.4-0.8v-4.9l-2.2-13h-0.8l2.2,13.1v14.9l-6.1,0.5
							l-1.4-15.5l-0.5,0.1l1.4,15.5l-11.7,1l1.9-15.7l-0.7-0.1l-1.9,15.9l-6.9,0.6l-1.6-16.6l-0.6-8.6H424l4.4,8.2l0.7-0.4l-4.3-8
							l0.6-5h-0.8l-0.6,4.9h-6.7l-0.5-5H416l0.5,5h-3.4l-9.5,0.3l-1.9-5.3h-0.8l2,5.3l-5.2,0.2l-0.3-5.5h-0.2h-0.3L397.2,313.8z
							 M399,336.1c0.4,0,0.9,0,1.4,0.1v4.2l-1.1,0.2L399,336.1z M399.3,340.8l1.2-0.3l5.5-0.6l4-0.4l0.8,11.5l-10.9,0.4L399.3,340.8
							z M415.7,343.4l0.6,6l-2.2-0.2l-0.5-5.4L415.7,343.4z M415.7,343.2l-4.8,1l-0.3-4.6l4.8-0.4L415.7,343.2z M411.3,351.1
							l-0.5-6.6l2.2-0.5l0.6,5.8l2.7,0.2l0.1,1.5l-2-0.5L411.3,351.1z M428.7,343.2l-4.9,1.2l-0.6-6l4.9-0.4L428.7,343.2z
							 M423.8,344.7l4.9-1.2l1,8.8l-5.2,0.5L423.8,344.7z M444.8,350.7l0.9-13.3l6.8,1.3l-0.1,0.9v11.2l-0.3,0.9l-4.4-1.3
							L444.8,350.7z M466.5,349.9c-1.3,0-5.6,0.3-7,4.7l-2.8-0.5l0.7-2.7l8.1-4.3L466.5,349.9z M465.1,346.3l-8.2,4.4l-3.2-0.1v-8.7
							l9-2.3L465.1,346.3z M462.1,339.1l-8.4,2.2v-1.5l0.4-6.2l7.8-0.1L462.1,339.1z M461.9,333.1l-7.7,0.1l0.7-10.1
							c1.3,0,4.1,0,6.7,0L461.9,333.1z M467.6,312.6l-1.4,10.2c-4,0.1-9.6,0.1-11.4,0l0.9-12.9L467.6,312.6z M452.5,338.5l-10.2-1.9
							v-3h10.5L452.5,338.5z M444.9,327.9v5.4h-2.6v-6L444.9,327.9z M441.9,336.8l3,0.6l-0.9,13.5l-7.3,0.8l-1.3-14.2L441.9,336.8z
							 M436.2,351.6l-5.7,0.6l-1.6-14.3l6.1-0.5L436.2,351.6z M422.5,338.5l1.4,14.4l-1.3,0.1l-5.8-1.5l-1.2-12.4L422.5,338.5z
							 M406,339.7l-5.4,0.6v-4.1c1.8,0.1,3.6,0.1,4.9,0.2c2.4,0.1,2.4,0.1,2.5-0.1l-0.2-0.1v-0.3c-0.2,0-3.5-0.1-7-0.3l5.4-12
							l7.7-0.4l1.5,15.7L406,339.7z M413.7,322.1l-9.9-0.1l-0.4-8.1l9.7-0.3L413.7,322.1z M403,313.9h0.2l0.4,8.4l10.2,0.1l0.1,0.5
							l-7.9,0.4l-5.5,12.3c-0.5,0-1,0-1.5-0.1l-1.3-21.4L403,313.9z"/>
						<path style="clip-path:url(#SVGID_00000070807815877647402520000010122655597335489171_);fill:#FF0058;" d="M443.7,325.2
							c0-1.9-0.6-3.7-1.9-5.1c-1.2-1.4-2.9-2.4-4.8-2.8c-1.2-0.2-2.5-0.2-3.7,0.1c-1.2,0.3-2.4,0.9-3.3,1.7c-0.9,0.8-1.7,1.8-2.2,3
							c-0.5,1.1-0.7,2.4-0.6,3.6c0.1,1.2,0.5,2.4,1.1,3.5c0.3,0.5,0.7,1,1.1,1.4l4.7,6.1c0.1,0.2,0.3,0.3,0.5,0.4
							c0.2,0.1,0.4,0.2,0.7,0.2c0.2,0,0.5-0.1,0.7-0.2c0.2-0.1,0.4-0.2,0.5-0.4l4.7-6c0.4-0.5,0.8-1,1.2-1.5
							C443.3,328,443.7,326.6,443.7,325.2z M435.5,328.7c-0.7,0-1.4-0.2-2-0.6c-0.6-0.4-1.1-0.9-1.3-1.5c-0.2-0.5-0.3-1-0.3-1.5
							c0-0.5,0.2-1,0.4-1.5c0.3-0.5,0.6-0.9,1-1.2c0.4-0.3,0.9-0.5,1.4-0.6c0.7-0.1,1.4-0.1,2.1,0.2c0.6,0.3,1.2,0.7,1.6,1.3
							c0.4,0.6,0.6,1.3,0.6,2c0,0.5-0.1,0.9-0.3,1.4c-0.2,0.4-0.5,0.8-0.8,1.2c-0.3,0.3-0.7,0.6-1.2,0.8
							C436.4,328.7,435.9,328.8,435.5,328.7L435.5,328.7z"/>
					</g>
				</g>
			</g>
			<path class="st46" d="M584,423.5H415.2c-10.7,0-19.5-8.8-19.5-19.5v0c0-10.7,8.8-19.5,19.5-19.5H584c10.7,0,19.5,8.8,19.5,19.5v0
				C603.5,414.7,594.7,423.5,584,423.5z"/>
			<circle class="st51" cx="414.5" cy="404" r="19.4"/>
			<g>
				<path class="st52" d="M410.2,408.2c-0.6-1.4-1-2.4-1-3.1c0-0.3,0.2-0.6,0.5-0.8c0.3-0.2,0.7-0.3,1-0.3c0.1,0,0.2,0,0.3,0.1
					s0.2,0.3,0.3,0.6c0.1,0.3,0.2,0.5,0.2,0.6c0.1,0.3,0.2,0.4,0.3,0.4c0.1,0,0.2-0.1,0.3-0.3c1.8-2.6,2.9-4.3,3.4-5
					c0.5-0.7,0.9-1.2,1.2-1.5c0.1,0,0.2-0.2,0.3-0.3c0.1-0.2,0.3-0.3,0.5-0.4c0.2-0.1,0.4-0.2,0.7-0.3c0.3-0.1,0.8-0.2,1.3-0.2
					l0.2,0.2c-0.7,0.9-1.4,1.7-2,2.4c-0.6,0.7-1.2,1.5-1.8,2.3c-0.6,0.8-1.2,1.6-1.7,2.5c-0.6,0.9-1.2,1.9-1.8,2.9
					c-0.1,0.2-0.3,0.3-0.4,0.4c-0.1,0.1-0.4,0.1-0.6,0.1c-0.1,0-0.3,0-0.4,0C410.6,408.6,410.3,408.5,410.2,408.2z"/>
			</g>
			<text transform="matrix(1 0 0 1 478.5511 408.6429)" class="st53 st54">Accept</text>
			<g>
				<polyline class="st46" points="569.2,408.6 574.1,405.4 569.2,401.7 				"/>
				<polyline class="st46" points="574.1,408.6 579.1,405.4 574.1,401.7 				"/>
			</g>
			<path class="st55" d="M584,472.3H415.2c-10.7,0-19.5-8.8-19.5-19.5v0c0-10.7,8.8-19.5,19.5-19.5H584c10.7,0,19.5,8.8,19.5,19.5v0
				C603.5,463.5,594.7,472.3,584,472.3z"/>
			<circle class="st46" cx="414.5" cy="452.7" r="19.4"/>
			<g>
				<path d="M409.3,457l4.3-4.3l-4.3-4.3l0.9-0.9l4.3,4.3l4.3-4.3l0.9,0.9l-4.3,4.3l4.3,4.3l-0.9,0.9l-4.3-4.3l-4.3,4.3L409.3,457z"
					/>
			</g>
			<text transform="matrix(1 0 0 1 480.7372 457.4344)" class="st53 st54">Reject</text>
			<g>
				<polyline class="st46" points="569.2,457.4 574.1,454.2 569.2,450.5 				"/>
				<polyline class="st46" points="574.1,457.4 579.1,454.2 574.1,450.5 				"/>
			</g>
		</g>
		<path class="st8" d="M293.7,334.6h-14.5c-1.3,0-1.4-0.9-1.4-2.2c0-0.8,0.1-1.6,0.1-2.5v-8.4c-0.1-2.2-0.3-3.8,1.3-3.8h14.5
			c1.6,0,3,1.6,3.3,3.8c0,0.3,0.1,0.6,0.1,1v7.4c0,0.9-0.2,1.7-0.5,2.5c-0.2,0.6-0.6,1.1-1.1,1.5C295,334.3,294.4,334.5,293.7,334.6
			z"/>
		<path class="st0" d="M278.4,335.3c-0.3-0.1-0.5-0.2-0.7-0.4c-0.5-0.7-0.8-1.6-0.7-2.5v-1c0-0.5,0-1,0-1.5v-8.9
			c0-1.5-0.2-2.7,0.6-3.5c0.2-0.2,0.4-0.4,0.7-0.5c0.3-0.1,0.5-0.1,0.8-0.1h14.5c2,0,3.8,1.9,4.1,4.5c0,0.4,0.1,0.7,0.1,1.1v7.4
			c0,1-0.2,2-0.6,2.9c-0.3,0.8-0.8,1.4-1.4,1.9c-0.6,0.5-1.4,0.8-2.2,0.8h-14.5C279,335.4,278.7,335.4,278.4,335.3z M279.2,318.4
			c-0.1,0-0.2,0-0.3,0.1c-0.2,0.8-0.2,1.5-0.2,2.3v9c0,0.5,0,1.1,0,1.5v1c0,0.9,0.1,1.3,0.2,1.3c0.1,0.1,0.2,0.1,0.3,0.1h14.5
			c0.5-0.1,0.9-0.3,1.3-0.6c0.4-0.3,0.6-0.7,0.8-1.2c0.3-0.7,0.5-1.4,0.5-2.2v-7.4c0-0.3,0-0.6-0.1-0.8c-0.2-1.7-1.3-3.1-2.5-3.1
			L279.2,318.4z"/>
		<path class="st0" d="M293.7,334.6H278c-1.3,0-1.4-0.9-1.4-2.2h19.9c-0.2,0.6-0.6,1.1-1.1,1.5C295,334.3,294.4,334.5,293.7,334.6z"
			/>
		<path class="st0" d="M276.7,322.4v-1h20.4c0,0.3,0.1,0.6,0.1,1v1.3h-20.4V322.4z"/>
		<path class="st0" d="M375.1,501.2c-6.5,6.5-15,10.5-24.2,11.4c-9.1,0.9-18.3-1.4-25.9-6.5c-7.6-5.1-13.2-12.7-15.9-21.5
			c-2.7-8.8-2.2-18.2,1.3-26.7c3.5-8.5,9.9-15.5,18-19.8c8.1-4.3,17.4-5.7,26.4-3.9c9,1.8,17.1,6.7,22.9,13.7c5.8,7.1,9,16,9,25.2
			C386.7,483.6,382.6,493.7,375.1,501.2z M366.6,473.1c0-4.7-1.7-9.2-4.7-12.8c-3.1-3.6-7.3-5.9-11.9-6.6c-4.6-0.7-9.4,0.3-13.3,2.8
			c-4,2.5-6.9,6.3-8.3,10.8c-1.4,4.5-1.1,9.3,0.8,13.6c1.9,4.3,5.3,7.8,9.5,9.8c4.2,2,9.1,2.4,13.6,1.2c4.5-1.2,8.4-4.1,11.1-8
			C365.4,480.7,366.6,476.9,366.6,473.1z"/>
		<path class="st8" d="M361.1,487.1c-3.2,3.2-7.5,5.3-12.1,5.7c-4.6,0.4-9.2-0.7-13-3.3c-3.8-2.6-6.6-6.4-8-10.7
			c-1.3-4.4-1.1-9.1,0.7-13.4c1.8-4.2,4.9-7.7,9-9.9c4.1-2.2,8.7-2.9,13.2-2c4.5,0.9,8.6,3.3,11.5,6.9c2.9,3.5,4.5,8,4.5,12.6
			c0,2.6-0.5,5.2-1.5,7.6C364.4,483.1,362.9,485.3,361.1,487.1z M356.3,463.8c-2.1-2.1-5-3.5-8-3.8c-3-0.3-6.1,0.5-8.6,2.1
			c-2.5,1.7-4.4,4.2-5.3,7.1c-0.9,2.9-0.7,6,0.4,8.8c1.2,2.8,3.3,5.1,5.9,6.6c2.7,1.4,5.8,1.9,8.7,1.3c3-0.6,5.7-2.2,7.6-4.5
			c1.9-2.3,3-5.3,3-8.3C360.2,469.6,358.8,466.3,356.3,463.8z"/>
		<path class="st0" d="M361.4,487.5c-3.3,3.3-7.7,5.4-12.4,5.9c-4.7,0.5-9.4-0.7-13.3-3.3c-3.9-2.6-6.8-6.5-8.2-11
			c-1.4-4.5-1.1-9.3,0.7-13.7c1.8-4.3,5.1-7.9,9.2-10.1c4.2-2.2,8.9-2.9,13.6-2c4.6,0.9,8.8,3.4,11.8,7.1c3,3.6,4.6,8.2,4.6,12.9
			c0,2.7-0.5,5.3-1.6,7.8C364.8,483.3,363.3,485.6,361.4,487.5z M360.7,459.4c-3.2-3.2-7.3-5.1-11.8-5.6s-8.9,0.7-12.7,3.2
			c-3.7,2.5-6.5,6.2-7.8,10.5c-1.3,4.3-1.1,8.9,0.6,13c1.7,4.1,4.8,7.6,8.8,9.7c4,2.1,8.5,2.8,12.9,1.9c4.4-0.9,8.4-3.2,11.2-6.7
			c2.8-3.5,4.4-7.8,4.4-12.3C366.4,468,364.3,463,360.7,459.4z M356.7,482.8c-2.2,2.2-5.2,3.6-8.3,3.9c-3.1,0.3-6.3-0.5-8.9-2.2
			c-2.6-1.8-4.6-4.4-5.5-7.4c-0.9-3-0.8-6.3,0.5-9.2c1.2-2.9,3.4-5.3,6.2-6.8c2.8-1.5,6-2,9.1-1.3c3.1,0.6,5.9,2.3,7.9,4.7
			c2,2.4,3.1,5.5,3.1,8.7C360.7,476.7,359.2,480.2,356.7,482.8z M355.9,464.2c-2.1-2-4.8-3.3-7.7-3.6c-2.9-0.3-5.8,0.5-8.2,2.1
			c-2.4,1.6-4.2,4.1-5,6.8c-0.8,2.8-0.7,5.8,0.5,8.5c1.1,2.7,3.2,4.9,5.7,6.3c2.6,1.4,5.5,1.8,8.4,1.2c2.9-0.6,5.4-2.1,7.3-4.4
			c1.8-2.3,2.8-5.1,2.8-8c0-1.7-0.3-3.3-1-4.8C358.1,466.7,357.1,465.3,355.9,464.2z"/>
		<path class="st0" d="M150.8,501.2c-6.5,6.5-15,10.5-24.2,11.4c-9.1,0.9-18.3-1.4-25.9-6.5c-7.6-5.1-13.2-12.7-15.9-21.5
			c-2.7-8.8-2.2-18.2,1.3-26.7c3.5-8.5,9.9-15.5,18-19.8c8.1-4.3,17.4-5.7,26.4-3.9c9,1.8,17.1,6.7,22.9,13.7c5.8,7.1,9,16,9,25.2
			C162.5,483.6,158.3,493.7,150.8,501.2z M136.6,459.3c-3.2-3.2-7.4-5.2-11.9-5.6c-4.5-0.4-9,0.7-12.7,3.2
			c-3.7,2.5-6.5,6.2-7.8,10.6c-1.3,4.3-1.1,9,0.7,13.1c1.7,4.2,4.9,7.6,8.8,9.7c4,2.1,8.6,2.8,13,1.9c4.4-0.9,8.4-3.3,11.3-6.8
			c2.9-3.5,4.4-7.9,4.4-12.4C142.3,467.9,140.2,462.9,136.6,459.3z"/>
		<path class="st8" d="M136.8,487.1c-3.2,3.2-7.5,5.3-12.1,5.7c-4.6,0.4-9.1-0.7-12.9-3.3c-3.8-2.5-6.6-6.3-7.9-10.7
			c-1.3-4.4-1.1-9.1,0.7-13.3c1.8-4.2,4.9-7.7,9-9.9c4-2.2,8.7-2.9,13.2-2c4.5,0.9,8.5,3.3,11.5,6.9c2.9,3.5,4.5,8,4.5,12.6
			C142.6,478.4,140.5,483.4,136.8,487.1z M132,463.8c-1.5-1.5-3.4-2.7-5.5-3.3c-2.1-0.6-4.3-0.7-6.4-0.3c-2.1,0.4-4.1,1.4-5.8,2.7
			c-1.7,1.4-3,3.1-3.8,5.1c-1,2.4-1.3,5-0.8,7.6c0.5,2.6,1.7,4.9,3.6,6.7c1.8,1.8,4.2,3.1,6.7,3.6c2.5,0.5,5.2,0.2,7.6-0.7
			c2-0.8,3.8-2.1,5.1-3.8c1.4-1.7,2.3-3.6,2.7-5.8c0.4-2.1,0.3-4.3-0.3-6.4C134.7,467.3,133.6,465.4,132,463.8L132,463.8z"/>
		<path class="st0" d="M137.1,487.5c-3.3,3.3-7.7,5.4-12.4,5.9c-4.7,0.5-9.4-0.7-13.3-3.3c-3.9-2.6-6.8-6.5-8.2-11
			c-1.4-4.5-1.1-9.3,0.6-13.7c1.8-4.4,5-8,9.2-10.2c4.1-2.2,8.9-2.9,13.6-2c4.6,0.9,8.8,3.4,11.8,7c3,3.6,4.6,8.2,4.6,12.9
			C143.1,478.5,140.9,483.6,137.1,487.5z M142.1,473.1c0-4.7-1.7-9.2-4.7-12.7c-3-3.5-7.2-5.8-11.8-6.5c-4.6-0.7-9.3,0.3-13.2,2.8
			c-3.9,2.5-6.8,6.3-8.2,10.7c-1.4,4.4-1.1,9.2,0.8,13.5c1.9,4.3,5.2,7.7,9.4,9.7c4.2,2,9,2.4,13.5,1.2c4.5-1.2,8.4-4,11-7.9
			C141,480.7,142.1,476.9,142.1,473.1z M136.4,473.1c0,3.3-1.1,6.5-3.3,9c-2.1,2.5-5.1,4.1-8.3,4.6c-3.2,0.5-6.6-0.2-9.3-1.9
			c-2.8-1.7-4.8-4.4-5.8-7.6c-1-3.1-0.8-6.5,0.6-9.5c1.3-3,3.7-5.4,6.7-6.8c3-1.4,6.3-1.7,9.5-0.8c3.2,0.9,5.9,2.9,7.7,5.6
			C135.6,467.8,136.4,470.4,136.4,473.1z M135.4,473.1c0-3-1.1-6-3.1-8.3c-2-2.3-4.7-3.8-7.7-4.3c-3-0.5-6.1,0.2-8.6,1.8
			c-2.6,1.6-4.5,4.1-5.4,7c-0.9,2.9-0.7,6,0.5,8.8s3.4,5,6.2,6.3c2.7,1.3,5.9,1.6,8.8,0.8c2.9-0.8,5.5-2.6,7.2-5.2
			C134.7,478,135.4,475.6,135.4,473.1z"/>
		<path class="st7" d="M319,378.2c-15.4-26.3-22-55.2-22-55.2h-13.6c0,0,11.9,39.9,11.9,85.3s-30.9,51.6-30.9,51.6h-63.7
			c-21.8-17-17.8-41.7-2.2-55.5c15.6-13.8,21.6-21.1,21.6-27.6c0-6.6-1.3-11.4-5.4-11.4h-53.4c-56.3,0-75,35.5-80.4,50.7
			c1.5-1.3,3.2-2.4,5-3.6c37.3-25.4,101.7-12.9,93.9,51.2h-17.5c4.9,6.8,11.1,13.2,17.4,13.2h87.8c25.9,0,27.6-11.3,27.6-11.3h13.3
			l36-32.6v-25.5C344.5,407.5,334.3,404.4,319,378.2z"/>
		<path class="st0" d="M267.5,477.3h-87.9c-5.4,0-11.4-4.5-17.8-13.4l-0.6-0.8h18c2.8-24.6-5-43.9-22.3-54.4
			c-9.7-5.9-22.2-8.8-35.2-7.9c-12.8,0.8-25.1,5-35.7,12.1c-1.6,1.1-3.2,2.2-5,3.6l-1.3,1l0.6-1.6c5.4-15.4,24.2-51.1,80.9-51.1
			h53.4c5.3,0,5.9,6.8,5.9,11.9c0,6.6-5.5,13.7-21.8,28c-8.4,7.4-13.1,17.6-12.8,27.8c0.3,10.1,5.4,19.4,14.8,26.8h63.6
			c5.7-1.6,10.9-4.5,15.2-8.6c6.9-6.5,15.2-19.2,15.2-42.4c0-44.9-11.8-84.8-11.9-85.1l-0.2-0.6h14.7l0.1,0.4
			c0.1,0.3,6.8,29.3,22,55.1c12,20.6,21.8,28.1,25.2,29.2l0.4,0.1v26.1l-36.3,32.8h-13c-0.8,2.2-2.3,4.2-4.2,5.5
			C286.4,475.4,278.4,477.3,267.5,477.3z M163.2,464.2c5.9,8,11.5,12.2,16.4,12.2h87.9c13.1,0,19.8-3,23.1-5.5c3.5-2.7,4-5.4,4-5.4
			v-0.4h13.5l35.7-32.2v-25c-2-0.8-11.5-5.8-25.5-29.5c-14.3-24.4-21.1-51.4-22-55h-12.5c1.5,5.3,11.7,42.9,11.7,84.8
			c0,13.1-2.7,31.2-15.6,43.2c-4.4,4.3-9.8,7.3-15.7,8.9h-64l-0.1-0.1c-9.7-7.5-15-17.1-15.3-27.6c-0.3-10.5,4.5-21,13.1-28.6
			c16.1-14.2,21.5-21,21.5-27.3c0-7.4-1.5-10.9-4.9-10.9h-53.4c-54.1,0-73.3,32.9-79.4,48.8c1.3-0.9,2.5-1.8,3.6-2.6
			c10.8-7.3,23.3-11.5,36.3-12.3c13.2-0.8,25.9,2,35.8,8.1c17.7,10.8,25.7,30.6,22.7,55.8v0.5L163.2,464.2z"/>
		<path class="st0" d="M87.8,410.2c-1.8,1.3-3.4,2.4-5,3.6c-0.8,2.2-1.5,4.5-2,6.8v24.7h74c2.7,5.6,5.8,11,9.4,16.1h17.4
			C189.5,397.3,125.1,384.8,87.8,410.2z"/>
		<path class="st7" d="M85.8,412.5c-1.8,1.3-3.4,2.4-5,3.6c-32,24.2-28.9,47.6-28.9,47.6h127.9C187.5,399.6,123.1,387,85.8,412.5z"
			/>
		<path class="st0" d="M180.2,464.2H51.5v-0.5c0-0.2-0.7-6.1,2.5-15c5.4-14.8,17.4-26.2,26.6-33.1c1.8-1.4,3.4-2.5,5-3.6
			c10.8-7.2,23.3-11.5,36.2-12.3c13.2-0.8,25.9,2,35.8,8.1c17.7,10.8,25.7,30.6,22.7,55.8L180.2,464.2z M52.4,463.1h126.8
			c2.9-24.6-5-43.9-22.3-54.4c-9.7-5.9-22.2-8.8-35.2-7.9c-12.8,0.8-25.1,5-35.7,12.1c-1.6,1.1-3.2,2.2-5,3.6
			c-9.1,6.8-20.9,18.1-26.3,32.6C53,453.5,52.2,458.3,52.4,463.1L52.4,463.1z"/>
		<path class="st7" d="M293.9,479.1c0,0-1.5-39.6,37.3-54.2c38.8-14.6,65,18.9,65,18.9s-7.5,13.8-25.9,12.1
			c-18.4-1.7-33-5.4-47.6,11.3C307,485.1,302.1,480.2,293.9,479.1z"/>
		<path class="st0" d="M302.9,481.1c-1.9-0.1-3.7-0.3-5.5-0.8c-1.1-0.2-2.3-0.5-3.6-0.7h-0.4v-0.4c0-7.5,1.5-14.8,4.1-21.8
			c4.1-10.8,13.3-25.3,33.5-32.9c7.7-3,16-4.2,24.2-3.5c8.2,0.7,16.2,3.2,23.3,7.5c6.9,3.9,13,9,18.1,15l0.2,0.3l-0.2,0.3
			c-0.1,0.1-7.9,14.1-26.4,12.3c-1.9-0.2-3.7-0.4-5.4-0.6c-16.1-1.7-28.7-3.1-41.7,11.7C313.4,478.6,307.7,481,302.9,481.1z
			 M298.4,457.7c-2.6,6.7-4,13.8-4.1,21c1.1,0.2,2.2,0.4,3.3,0.6c6.3,1.3,11.6,2.5,24.6-12.4c13.3-15.2,26.9-13.8,42.6-12.1
			c1.8,0.2,3.6,0.4,5.4,0.6c16.4,1.6,24.1-9.6,25.3-11.5c-5-5.8-11-10.7-17.6-14.5c-7-4.1-14.8-6.6-22.8-7.3
			c-8.1-0.7-16.2,0.5-23.7,3.4C311.5,432.9,302.5,447.1,298.4,457.7L298.4,457.7z"/>
		
			<linearGradient id="SVGID_1_" gradientUnits="userSpaceOnUse" x1="344.4549" y1="10600.5811" x2="312.5252" y2="10600.5811" gradientTransform="matrix(1 0 0 -1 0 10914.6426)">
			<stop  offset="0" style="stop-color:#FFCF00;stop-opacity:0"/>
			<stop  offset="1" style="stop-color:#FFCF00;stop-opacity:0.8"/>
		</linearGradient>
		<path class="st9" d="M312.5,298.6v30.9l31.9,8.4v-47.8L312.5,298.6z"/>
		<path class="st0" d="M302.4,297.6v33c3.3,0.3,6.6,0.5,10.1,0.5v-33.9C309,297.1,305.7,297.3,302.4,297.6z"/>
		<path class="st7" d="M268.1,314.1c0,8,14.6,14.7,34.3,16.5v-33C282.8,299.3,268.1,306,268.1,314.1z"/>
		<path class="st0" d="M302.9,331.1h-0.6c-20.4-1.8-34.7-8.8-34.7-17c0-8.2,14.3-15.2,34.7-17h0.6V331.1z M301.9,298.1
			c-19.3,1.8-33.3,8.5-33.3,15.9c0,7.4,14,14.1,33.3,15.9V298.1z"/>
		<path class="st0" d="M135.9,372.2c-17.3,0,7.5-19.7,15.2-23c7.7-3.3,14.6,2.7,25.7,2.7h15.2c5.4,0,5.1-2.4,11.4-2.4
			c6.3,0,12.8,11.5,11.2,15.8c-0.9,2.3-1.9,4.7-3,6.9L135.9,372.2z"/>
		<path class="st0" d="M276.4,320.2c-1.1,0-2.2-0.3-3.1-0.9c-0.9-0.6-1.7-1.5-2.1-2.5c-0.4-1-0.5-2.2-0.3-3.3
			c0.2-1.1,0.8-2.1,1.5-2.9c0.8-0.8,1.8-1.3,2.9-1.5c1.1-0.2,2.2-0.1,3.3,0.3c1,0.4,1.9,1.1,2.5,2.1c0.6,0.9,1,2,1,3.1
			c0,1.5-0.6,2.9-1.6,4C279.3,319.6,277.9,320.2,276.4,320.2z"/>
		<path class="st0" d="M344.5,421.6c-5.8,1-11.4,2.8-16.7,5.3c-2.6,1.2-5.1,2.7-7.5,4.2c-4.8,3.2-9,7.1-12.6,11.5
			c-1,1.1-1.8,2.3-2.6,3.4l-1.2,1.8c-0.4,0.6-0.8,1.3-1.2,1.8c-3,5.1-5.5,10.3-7.5,15.8c0.8-6,2.6-11.7,5.3-17.1
			c2.7-5.5,6.3-10.4,10.8-14.5c4.5-4.1,9.8-7.3,15.5-9.5C332.4,422.3,338.4,421.3,344.5,421.6z"/>
		<path class="st0" d="M152.4,422.1h-26.9c-0.1,0-0.2,0-0.3-0.1c-0.1,0-0.2-0.1-0.2-0.2c-0.1-0.1-0.2-0.3-0.2-0.4s0-0.3,0-0.5
			c0.1-0.1,0.2-0.3,0.3-0.4c0.1-0.1,0.3-0.2,0.4-0.2h26.9c0.1,0,0.2,0,0.4,0c0.1,0,0.2,0.1,0.3,0.2c0.1,0.1,0.2,0.2,0.2,0.3
			c0,0.1,0.1,0.2,0.1,0.3s0,0.2-0.1,0.3c0,0.1-0.1,0.2-0.2,0.3c-0.1,0.1-0.2,0.1-0.3,0.2C152.6,422.1,152.5,422.1,152.4,422.1z"/>
		<path class="st0" d="M152.4,426.4h-26.9c-0.2,0-0.4-0.1-0.5-0.3c-0.1-0.2-0.2-0.4-0.2-0.6c0-0.2,0.1-0.4,0.2-0.6
			c0.1-0.2,0.3-0.2,0.5-0.3h26.9c0.1,0,0.2,0,0.4,0c0.1,0,0.2,0.1,0.3,0.2c0.1,0.1,0.2,0.2,0.2,0.3c0,0.1,0.1,0.2,0.1,0.3
			c0,0.1,0,0.2-0.1,0.3c0,0.1-0.1,0.2-0.2,0.3c-0.1,0.1-0.2,0.1-0.3,0.2C152.6,426.4,152.5,426.4,152.4,426.4z"/>
		<path class="st0" d="M152.4,430.8h-26.9c-0.2,0-0.4-0.1-0.6-0.2c-0.1-0.1-0.1-0.2-0.2-0.3c0-0.1-0.1-0.2-0.1-0.3
			c0-0.2,0.1-0.4,0.2-0.6c0.2-0.2,0.4-0.3,0.6-0.3h26.9c0.1,0,0.2,0,0.3,0.1c0.1,0,0.2,0.1,0.3,0.2c0.2,0.2,0.2,0.4,0.2,0.6
			c0,0.2-0.1,0.4-0.3,0.6C152.8,430.7,152.6,430.8,152.4,430.8z"/>
		<path class="st0" d="M227.6,515.1c-95.1,0-172.2-1-172.2-2.4c0-1.4,77.1-2.4,172.2-2.4s172.2,1,172.2,2.4
			C399.8,514,322.7,515.1,227.6,515.1z"/>
		<path class="st0" d="M3.2,348.4h103.3c0.4,0,0.8-0.1,1.2-0.2c0.4-0.2,0.7-0.4,1-0.7c0.3-0.3,0.5-0.7,0.7-1
			c0.2-0.4,0.2-0.8,0.2-1.2c0-0.8-0.3-1.7-0.9-2.3c-0.6-0.6-1.4-0.9-2.3-0.9H3.2c-0.8,0-1.7,0.3-2.3,0.9c-0.6,0.6-0.9,1.4-0.9,2.3
			c0,0.8,0.3,1.7,0.9,2.3C1.5,348.1,2.3,348.4,3.2,348.4z"/>
		<g>
			<defs>
				<path id="SVGID_00000075882715599078612640000012346554823505163419_" d="M17.9,238.8h74c8.2,0,14.8,6.6,14.8,14.8v74
					c0,8.2-6.6,14.8-14.8,14.8h-74c-8.2,0-14.8-6.6-14.8-14.8v-74C3.1,245.5,9.7,238.8,17.9,238.8z"/>
			</defs>
			<clipPath id="SVGID_00000145042022874784797330000008242303103950258081_">
				<use xlink:href="#SVGID_00000075882715599078612640000012346554823505163419_"  style="overflow:visible;"/>
			</clipPath>
			<g style="clip-path:url(#SVGID_00000145042022874784797330000008242303103950258081_);">
				<path class="st28" d="M106,251.3c-0.5-3.2-2.2-6.1-4.7-8.2c-2.5-2.1-5.7-3.3-9-3.3l-74.1-0.4c-3.7,0-7.3,1.4-9.9,4
					c-2.6,2.5-4.1,6-4.2,9.6l-0.3,48.2l-0.2,26.6c0,3.6,1.4,7.1,4.1,9.7c2.6,2.6,6.2,4.1,9.9,4.1l74.1,0.4c3.7,0,7.3-1.4,9.9-4
					c2.6-2.6,4.1-6,4.2-9.7l0.5-74.8C106.2,252.8,106.1,252,106,251.3z"/>
				<path class="st0" d="M3.9,300.8c2.5,0.6,5.2,0.2,7.4-1.2c2.2-1.2,4.1-3,5.4-5.1c1.3-2.1,2.3-4.4,3-6.8c0.8-2.4,1.5-4.9,2.2-7.3
					c1.3-4.9,3.3-10.1,6.8-14.1c0.8-1,1.8-2,2.7-3c1-0.9,2-1.8,3.1-2.6c2.1-1.6,4.4-3,6.8-4.2c2.4-1.2,4.9-2.2,7.4-3
					c2.5-0.9,5-1.6,7.6-2.2c5.1-1.3,10.4-2.1,15.6-2.5c10.5-0.7,21,0.1,31.4,1.3c-10.4,0-20.9-0.3-31.2,0.8
					c-2.6,0.3-5.1,0.7-7.6,1.1c-2.5,0.5-5,1-7.5,1.8c-2.5,0.7-5,1.4-7.4,2.3c-2.4,0.8-4.8,1.8-7,2.9c-2.3,1.1-4.4,2.4-6.5,3.8
					c-1,0.7-2,1.5-2.9,2.4c-0.9,0.9-1.7,1.7-2.5,2.7c-0.8,0.9-1.6,1.9-2.2,3c-0.7,1-1.3,2.1-1.8,3.2c-1.1,2.3-2,4.6-2.7,7
					c-0.8,2.4-1.6,4.9-2.5,7.3c-0.9,2.5-2.1,4.8-3.6,7c-1.6,2.1-3.7,3.8-6.2,5c-1.2,0.6-2.5,0.9-3.9,1
					C6.5,301.5,5.2,301.3,3.9,300.8z"/>
				<path class="st8" d="M7.7,259c-0.1-2-0.1-3.9,0.1-5.9c0.2-2,0.8-4,1.8-5.8c1.1-1.9,2.8-3.3,4.8-4.1c2-0.7,4.1-1.1,6.2-1.1
					c8.1-0.2,16-0.2,24.1-0.2l12,0.1c4,0.1,8,0.1,12,0.3c8,0.2,16,0.6,24,1.2c-8,0.5-16,0.8-24,0.9c-4,0.1-8,0.1-12,0.2h-12l-12-0.1
					l-12-0.3c-1.9-0.1-3.8,0.1-5.6,0.7c-1.8,0.6-3.3,1.7-4.3,3.2c-0.5,0.8-1,1.6-1.3,2.5c-0.3,0.9-0.6,1.8-0.8,2.7
					C8.1,255.1,7.8,257.1,7.7,259z"/>
				<path class="st8" d="M8.4,327.3c0.4,1.8,1.3,3.4,2.7,4.7c1.3,1.2,2.9,2.2,4.6,2.7c3.4,1.2,7.1,1.2,10.9,1.2c3.7,0,7.5,0,11.2,0
					l11.2,0.1l11.2,0.1c3.7,0.1,7.5,0.1,11.3,0.2c7.5,0.2,15,0.4,22.6,0.8c-7.5,0.7-15,1.1-22.6,1.3c-3.7,0.2-7.5,0.2-11.3,0.2
					c-3.8,0.1-7.5,0-11.3,0c-7.5-0.1-15.1-0.3-22.6-0.7c-3.7-0.2-7.7-0.5-11.3-2.1c-1.8-0.8-3.4-2-4.6-3.5
					C9.2,331,8.5,329.2,8.4,327.3z"/>
				<path class="st11" d="M58,288.4c0.1,0.4,0.1,0.8,0.1,1.2c0,0.9-0.2,1.9-0.7,2.7c-0.5,0.8-1.1,1.5-1.9,2
					c-0.8,0.5-1.7,0.8-2.7,0.9c-1,0.1-1.9-0.1-2.8-0.5c-1.2-0.5-2.1-1.4-2.7-2.5l-5.6,2c0.6,1.3,1.4,2.5,2.5,3.5l7.5,7.3
					c0.1,0.1,0.2,0.2,0.4,0.2c0.1,0.1,0.3,0.1,0.4,0.1c0.2,0,0.3,0,0.4-0.1c0.1-0.1,0.3-0.1,0.4-0.2l7.5-7.3
					c1.5-1.5,2.6-3.3,3.1-5.3c0.5-2,0.5-4.1-0.1-6.1L58,288.4z"/>
				<path class="st11" d="M45.9,279c-0.1-0.3-0.2-0.6-0.1-0.9c0-0.3,0.1-0.6,0.2-0.9c0.1-0.3,0.3-0.5,0.6-0.7
					c0.2-0.2,0.5-0.4,0.8-0.5c0.3-0.1,0.6-0.2,0.9-0.1c0.3,0,0.6,0.1,0.9,0.2c0.3,0.1,0.5,0.3,0.8,0.5c0.2,0.2,0.4,0.5,0.5,0.8
					L45.9,279z"/>
				<path class="st11" d="M55.8,287.3c-2.1-5.1-5-8.1-6.9-8.1c-0.2,0-0.3,0-0.5,0.1c-0.9,0.3-1.4,1.7-1.5,3.7c0,2.4,0.4,4.9,1.2,7.2
					L55.8,287.3z"/>
				<path class="st11" d="M57.4,286.8l6.4-2.3l5.2-1.8c-0.1-0.3-0.3-0.6-0.5-0.9c-0.2-0.3-0.5-0.5-0.9-0.6c-0.3-0.2-0.7-0.2-1-0.2
					c-0.4,0-0.7,0-1,0.2l-4,1.4c-1.1-1.4-2.6-2.5-4.2-3.3c-1.6-0.8-3.4-1.1-5.2-1.1h-1C53.4,279.5,55.8,282.6,57.4,286.8z"/>
				<path class="st11" d="M40.7,290.2c0,0.8,0.2,1.6,0.4,2.4l5.5-1.9c-1.1-3.3-1.9-7-0.9-10.4C42.4,282.4,40.6,286.3,40.7,290.2z"/>
			</g>
		</g>
		<path class="st58" d="M17.9,239.6h74c7.8,0,14.1,6.3,14.1,14.1v74c0,7.8-6.3,14.1-14.1,14.1h-74c-7.8,0-14.1-6.3-14.1-14.1v-74
			C3.8,245.9,10.1,239.6,17.9,239.6z"/>
		<path class="st0" d="M42.5,348.4v15.7c0,0.5,0.2,1,0.5,1.4c0.3,0.4,0.8,0.7,1.3,0.8l23.1,3.8v-21.6h6.2v22.7l52.6,8.7
			c0.9-1.3,2.2-2.2,3.7-2.6c1.5-0.4,3.1-0.3,4.6,0.3c1.4,0.6,2.6,1.7,3.4,3.1c0.8,1.4,1,3,0.8,4.5c-0.3,1.5-1.1,3-2.2,4
			c-1.2,1-2.7,1.7-4.2,1.7c-1.6,0.1-3.1-0.4-4.4-1.3c-1.3-0.9-2.2-2.2-2.6-3.7L40,371.1c-1-0.2-2-0.7-2.6-1.5c-0.7-0.8-1-1.8-1-2.9
			v-18.3H42.5z"/>
		<path class="st7" d="M131.9,386.7c1.7,0,3-1.4,3-3c0-1.7-1.4-3-3-3c-1.7,0-3,1.4-3,3C128.8,385.3,130.2,386.7,131.9,386.7z"/>
		<g>
			<g>
				<path class="st11" d="M142.8,325.1c0,3.9,3.2,7,7,7h76.6c3.9,0,7-3.2,7-7v-96c0-3.9-3.2-7-7-7h-76.6c-3.9,0-7,3.2-7,7V325.1z"/>
			</g>
			<g>
				<path class="st55" d="M131.8,516.6c0-2,2.6-4.7,5.6-6.2l22-9.8c0.6-0.3,1.2-0.4,1.9-0.4c3.5,0,4.7-0.1,7.8-0.1
					c1.3,0,2.5,0.5,3.3,1.5c3,3.5,4.5,7.8,4.2,11.8c-0.2,2.3-2.2,4.1-4.5,4.1l-40.3-0.1C131.8,517.2,131.8,516.9,131.8,516.6z"/>
			</g>
			<path class="st0" d="M194.8,326l-38.2,0c-3.3,14.3-19.3,74.6-20.8,93.7c-1.4,17.8,8.6,29.7,17.3,82.7h20.3
				c0-25.8-0.5-55.7-11.3-80.3c13-23.7,28.2-53.3,32.6-75.6L194.8,326z"/>
			<g>
				<path class="st55" d="M192.4,520c-2.3,0-4.2-2-4-4.3c1-11.7,5.9-20.6,11.8-20.6c5.9,0,10.8,8.9,11.8,20.6c0.2,2.3-1.7,4.3-4,4.3
					H192.4z"/>
			</g>
			<path class="st0" d="M219.8,321.8c0.7,5.2,5.4,23.8,5.4,57.3c0,42.7-7.5,84-14,123.4h-23c6.6-86.3-4.6-107.5,0-152.7L188,326
				L219.8,321.8z"/>
			<path class="st59" d="M237.4,268.3c2.7-1,5.4-2.1,8-3.1c-2.8-7.1-5.5-14.2-8.3-21.3c-1.3-3.4-3.1-6-5.2-7.8
				c-6.2-6.9-23.5-11.8-43.9-11.8c-21.8,0-40.1,5.7-45.1,13.3c-1.5,1.7-2.7,3.8-3.7,6.4c-2.8,7.1-5.5,14.2-8.3,21.3
				c3.7,1.5,7.5,2.9,11.2,4.4c3.6,1.4,7.2,2.8,10.8,4.2c0.7,15.9,0.3,31.7-1.4,47.6c-0.6,5.6-1.3,11.1-2.1,16.7
				c25.7,6.6,51.5,6.6,77.2,0c-0.7-4.5-1.3-9.1-1.8-13.6c-1.9-16.8-2.5-33.7-1.7-50.5C227.9,272,232.7,270.1,237.4,268.3z"/>
			<path class="st11" d="M210,259.9c0.1,0.3,0.1,0.5,0.1,0.8c0,0.8-0.3,1.6-0.8,2.2c-0.5,0.6-1.2,1.1-2,1.3
				c-0.8,0.2-1.6,0.1-2.3-0.2c-0.7-0.3-1.3-0.9-1.7-1.6l-3.5,1.3c0.4,0.8,0.9,1.6,1.5,2.2l4.6,4.6c0.1,0.1,0.1,0.1,0.2,0.2
				c0.1,0,0.2,0.1,0.3,0.1c0.1,0,0.2,0,0.3-0.1c0.1,0,0.2-0.1,0.2-0.2l4.6-4.6c0.9-0.9,1.6-2.1,1.9-3.3c0.3-1.3,0.3-2.6-0.1-3.8
				L210,259.9z"/>
			<path class="st11" d="M202.6,254c-0.1-0.2-0.1-0.4-0.1-0.6c0-0.2,0.1-0.4,0.1-0.6c0.1-0.2,0.2-0.3,0.3-0.5
				c0.1-0.1,0.3-0.2,0.5-0.3c0.2-0.1,0.4-0.1,0.6-0.1s0.4,0.1,0.6,0.1c0.2,0.1,0.3,0.2,0.5,0.3c0.1,0.1,0.2,0.3,0.3,0.5L202.6,254z"
				/>
			<path class="st11" d="M208.7,259.2c-1.3-3.2-3.1-5.1-4.2-5.1c-0.1,0-0.2,0-0.3,0c-0.5,0.2-0.9,1.1-0.9,2.3c0,1.5,0.2,3.1,0.7,4.5
				L208.7,259.2z"/>
			<path class="st11" d="M209.7,258.8l4-1.4l3.2-1.2c-0.1-0.2-0.2-0.4-0.3-0.6c-0.1-0.2-0.3-0.3-0.5-0.4c-0.2-0.1-0.4-0.1-0.6-0.2
				c-0.2,0-0.4,0-0.6,0.1l-2.5,0.9c-0.7-0.9-1.6-1.6-2.6-2.1c-1-0.5-2.1-0.7-3.2-0.7h-0.3H206h-0.2
				C207.2,254.3,208.7,256.2,209.7,258.8z"/>
			<path class="st11" d="M199.3,261c0,0.5,0.1,1,0.2,1.5l3.4-1.2c-0.7-2.1-1.1-4.4-0.5-6.6C200.4,256.1,199.3,258.6,199.3,261z"/>
			<path class="st0" d="M202.3,224.3c5,6.9,18.7,64.4,21.6,95.4c4.4-28.4-3.4-86.1-8.4-92.9L202.3,224.3z"/>
			<path class="st0" d="M174.1,224.3c-5,6.9-18.7,64.4-21.6,95.4c-4.4-28.4,3.4-86.1,8.4-92.9L174.1,224.3z"/>
			<path class="st55" d="M171.5,314.4c-0.6,0-1.2-0.4-1.5-1c-1.1-3.1,1.9-7.7,5.3-9.8c1.3-0.8,2.9-1.4,4.4-2
				c1.4-0.5,2.8-1.1,3.8-1.7c0.7-0.4,1.7-0.2,2.1,0.5c0.4,0.7,0.2,1.7-0.5,2.1c-1.2,0.7-2.8,1.3-4.3,1.9c-1.4,0.6-2.9,1.1-3.9,1.8
				c-2.7,1.7-4.4,5-4,6.2c0.3,0.8-0.1,1.7-1,2C171.8,314.4,171.7,314.4,171.5,314.4z"/>
			<path class="st60" d="M202.1,320.6c0.2,0.9-0.5,1.6-1.3,1.6h-18.7c-0.9,0-1.7-0.7-1.9-1.6l-6.3-36.8c-0.2-0.9,0.5-1.6,1.3-1.6
				h18.7c0.9,0,1.7,0.7,1.9,1.6L202.1,320.6z"/>
			<path class="st55" d="M243.4,266l-18.8,6.9c0,0,3.2,12.4,7.3,26.3c-7.2,4.8-21.7,10.2-36,10.3l1.1,9.7
				c16.5,3.2,54.3,1.1,54.2-11.4C251.1,289.8,250.8,281.8,243.4,266z"/>
			<path class="st0" d="M200.8,323.2c0.2,0.9-0.5,1.6-1.3,1.6h-18.7c-0.9,0-1.7-0.7-1.9-1.6l-6.3-36.8c-0.2-0.9,0.5-1.6,1.3-1.6
				h18.7c0.9,0,1.7,0.7,1.9,1.6L200.8,323.2z"/>
			<path class="st55" d="M191.4,309.4c-1.9-1.8-15.7-0.9-20.1-1.2c-0.1,0.2-0.2,0.5-0.3,0.7c-11.2-1.6-21.5-5.8-27.3-9.6
				c4.5-14.8,7.4-26.3,7.4-26.3l-19.1-7.4c-7.4,15.9-7.5,24.2-7.7,42.3c-0.1,11.3,31,14.1,49.1,12.1c1.3,0.9,10.4,0.3,11.7-1
				C185.4,319,192.1,309.9,191.4,309.4z"/>
			<path class="st55" d="M188.1,234.2c-5.1,0-9.3-4.2-9.3-9.3v-21.8c0-5.1,4.2-9.3,9.3-9.3c5.1,0,9.3,4.2,9.3,9.3V225
				C197.3,230.1,193.2,234.2,188.1,234.2z"/>
			<path class="st0" d="M191.8,212.9c5,4.8,7,10.9,4.4,13.6c-2.6,2.7-8.8,1-13.8-3.8c-5-4.8-7-10.9-4.4-13.6
				C180.6,206.4,186.8,208.1,191.8,212.9z"/>
			<path class="st55" d="M210.2,194.6c0,15.2-9.9,27.4-22.2,27.4c-12.3,0-22.2-12.3-22.2-27.4c0-15.1,9.9-27.4,22.2-27.4
				C200.3,167.2,210.2,179.4,210.2,194.6z"/>
			<path class="st0" d="M176.9,167.2c-14.2-8.7-14.3,18.2-12.7,24.5c1.5,5.8,4.7,9.9,4.9,1.3c0.3-8.7,5.9-14.7,13.1-17.1h11.6
				c7.2,2.4,12.9,8.4,13.1,17.1c0.3,8.7,3.4,4.6,4.9-1.3c1.6-6.3,1.6-23.9-8.6-24.5H176.9z"/>
			<path class="st61" d="M205.8,179.6c-3.8,5.9-13.4,6.4-21.5,1.1c-8-5.2-11.4-14.2-7.6-20.1c3.8-5.9,13.4-6.4,21.5-1.1
				C206.2,164.7,209.6,173.7,205.8,179.6z"/>
			<path class="st59" d="M162.6,182.2c0-17,11.6-29.6,25.7-28.7c14.1-0.7,25.5,11.6,25.2,28.7C197.5,173.9,178.6,174.2,162.6,182.2z
				"/>
			<path class="st59" d="M166.7,180.4c13.4-6.8,29.3-6.8,42.7,0c0,2.8,0,4.4,0,7.2c0,1.7-1.3,2.4-3,1.7c-11.8-5-25.1-5-36.8,0
				c-1.6,0.7-3,0-3-1.7C166.7,184.8,166.7,183.2,166.7,180.4z"/>
		</g>
		<g>
			<g>
				<path class="st0" d="M507.9,107h5.5l0.7-18.3l-5.4-5.1L507.9,107z"/>
				<path class="st0" d="M513.8,107.3h-6.2l0.9-24.4l5.9,5.7L513.8,107.3z M508.2,106.7h4.9l0.7-17.9l-4.8-4.6L508.2,106.7z"/>
				<path class="st28" d="M515.2,103.1h-5.5l-0.9-23.4l5.7,5.2L515.2,103.1z"/>
				<path class="st0" d="M515.5,103.3h-6.2l-0.9-24.5l6.4,5.8L515.5,103.3z M509.9,102.7h5L514.2,85l-5.1-4.7L509.9,102.7z"/>
				<path class="st0" d="M486.3,102.7h5.6l0.9-23.4l-5.7,5.2L486.3,102.7z"/>
				<path class="st0" d="M492.2,103H486l0.7-18.6l6.4-5.8L492.2,103z M486.6,102.4h4.9l0.8-22.4l-5.1,4.7L486.6,102.4z"/>
				<path class="st37" d="M436.9,200.1h102.5l3.7-97.4H440.5L436.9,200.1z"/>
				<path class="st28" d="M436.9,200.1h102.5l3.7-97.4H440.5L436.9,200.1z"/>
				<path class="st0" d="M539.6,200.4h-103l3.7-97.9h103.1L539.6,200.4z M437.1,199.7h102l3.7-96.7H441L437.1,199.7z"/>
				<path class="st28" d="M555,200.1H452.5l-3.7-97.4h102.5L555,200.1z"/>
				<path class="st0" d="M555.3,200.4H452.2v-0.3l-3.7-97.7h103.1v0.3L555.3,200.4z M452.8,199.7h101.8L551,103H449.2L452.8,199.7z"
					/>
				<path class="st37" d="M448.9,102.7l3.7,97.4l-5.9-0.4v-97H448.9z"/>
				<path class="st0" d="M448.9,102.7l3.7,97.4l-5.9-0.4v-97H448.9z"/>
				<path class="st0" d="M452.9,200.4l-6.5-0.4v-97.6h2.9v0.3L452.9,200.4z M446.9,199.4l5.3,0.3l-3.7-96.7h-1.6L446.9,199.4z"/>
				<path class="st28" d="M493.6,102.7H488l-0.7-18.3l5.3-5.1L493.6,102.7z"/>
				<path class="st0" d="M493.9,103h-6.2L487,84.3l5.9-5.7L493.9,103z M488.3,102.4h4.9l-0.9-22.4l-4.8,4.6L488.3,102.4z"/>
				<path class="st8" d="M516.7,124.7c-0.3,0-0.5,0.1-0.7,0.2c-0.2,0.1-0.4,0.3-0.6,0.4c-5.2,4.4-12.8,31.1-3.3,31.1h0.5l-1.3,18.4
					c-0.3,4.6,0,8.7,3.3,8.7c3.9,0,3.9-4.1,3.9-8.7l0.2-47.8c0-0.6-0.1-1.1-0.5-1.5C517.8,125.1,517.3,124.8,516.7,124.7z"/>
				<path class="st0" d="M518.1,181.9c-0.3,0.7-0.8,1.3-1.5,1.7c-0.6,0.4-1.4,0.6-2.2,0.5c-0.5,0-0.9-0.1-1.3-0.2
					c-0.4-0.2-0.8-0.4-1.1-0.8c-1.5-1.6-1.5-5.1-1.3-8.2l1.2-17.9c-1,0-1.9-0.3-2.7-0.9c-0.8-0.6-1.3-1.4-1.6-2.4
					c-2.7-7.4,3-25,7.3-28.7c0.2-0.2,0.5-0.4,0.8-0.6c0.3-0.1,0.6-0.2,0.9-0.2c0.7,0.1,1.4,0.4,1.8,1s0.7,1.3,0.6,2l-0.2,47.8
					c0.1,2.1-0.1,4.2-0.5,6.2C518.3,181.4,518.2,181.7,518.1,181.9z M512.3,130.9c-3.1,6.7-5.6,17.4-3.7,22.4
					c0.2,0.7,0.6,1.4,1.2,1.9c0.6,0.5,1.4,0.7,2.1,0.7h1.1l-1.3,19c-0.2,2.8-0.2,6.1,1,7.5c0.2,0.2,0.5,0.4,0.8,0.5
					c0.3,0.1,0.6,0.2,0.9,0.1c0.7,0.1,1.3-0.1,1.9-0.6c0.5-0.4,0.9-1,1-1.7c0.4-1.9,0.6-3.9,0.5-5.9l0.2-47.8c0-1.1-0.6-1.8-1.4-1.8
					c-0.2,0-0.4,0.1-0.5,0.1s-0.3,0.2-0.4,0.3C514.3,127.3,513.1,129,512.3,130.9z"/>
				<path class="st8" d="M495.8,130.9c-0.5-3.3-1.2-4.3-2.3-4.3c-0.2,0-0.5,0.1-0.7,0.2c-0.2,0.1-0.4,0.3-0.5,0.5
					c-0.1,0.2-0.2,0.5-0.2,0.8v12.2c0,0.4-0.1,0.7-0.4,1c-0.3,0.3-0.6,0.4-1,0.4c-0.4,0-0.7-0.1-1-0.4c-0.3-0.3-0.4-0.6-0.4-1V126
					c0-0.3-0.1-0.6-0.3-0.9c-0.2-0.3-0.5-0.4-0.8-0.5c-0.3-0.1-0.6-0.1-0.9,0.1c-0.3,0.1-0.5,0.3-0.7,0.6c-0.1,0.2-0.2,0.4-0.2,0.7
					v14.2c0,0.2,0,0.4-0.1,0.6c-0.1,0.2-0.2,0.4-0.3,0.5c-0.1,0.1-0.3,0.3-0.5,0.3c-0.2,0.1-0.4,0.1-0.6,0.1c-0.2,0-0.4,0-0.6-0.1
					c-0.2-0.1-0.3-0.2-0.5-0.3c-0.1-0.1-0.2-0.3-0.3-0.5c-0.1-0.2-0.1-0.4-0.1-0.6V128c0-0.3-0.1-0.5-0.2-0.8
					c-0.1-0.2-0.3-0.3-0.5-0.5c-0.2-0.1-0.4-0.2-0.7-0.2c-1.1,0-1.9,1-2.3,4.3c-0.5,2.3-0.8,4.7-0.8,7c0,2.2,0.6,4.5,1.7,6.4
					c0.7,1.2,1.7,2.3,2.8,3.2c0.6,0.4,1.2,0.7,1.9,0.9l-0.7,32.2c0.1,0.8,0.4,1.5,1,2c0.6,0.5,1.3,0.8,2.1,0.8
					c0.8,0,1.5-0.3,2.1-0.8c0.6-0.5,0.9-1.2,1-2l-0.4-32.2c0.7-0.2,1.3-0.5,1.9-0.9c1.2-0.8,2.1-1.9,2.9-3.1c1.1-2,1.7-4.2,1.7-6.4
					C496.6,135.6,496.3,133.2,495.8,130.9z"/>
				<path class="st0" d="M490.8,182c-0.2,0.4-0.4,0.7-0.7,1c-0.7,0.7-1.6,1.1-2.6,1.1c-1,0-1.9-0.4-2.6-1.1c-0.6-0.6-1-1.5-1-2.4
					l0.7-31.8c-0.6-0.2-1.1-0.5-1.6-0.8c-1.2-0.9-2.2-2-3-3.3c-1.2-2-1.8-4.3-1.7-6.7c0.1-2.4,0.3-4.8,0.8-7.1
					c0.5-2.9,1.1-4.7,2.9-4.7c0.3,0,0.6,0.1,0.9,0.2c0.3,0.2,0.5,0.4,0.7,0.7c0.2,0.3,0.3,0.7,0.3,1v12.2c0,0.1,0,0.2,0.1,0.3
					c0,0.1,0.1,0.2,0.2,0.3c0.1,0.1,0.2,0.1,0.3,0.2c0.1,0,0.2,0.1,0.3,0.1c0.1,0,0.2,0,0.3-0.1c0.1,0,0.2-0.1,0.3-0.2
					c0.1-0.1,0.1-0.2,0.2-0.3c0-0.1,0.1-0.2,0.1-0.3V126c0-0.3,0.1-0.7,0.3-0.9c0.2-0.3,0.4-0.5,0.7-0.7c0.3-0.2,0.6-0.3,1-0.3
					c0.4,0,0.7,0.1,1,0.3c0.3,0.2,0.5,0.4,0.7,0.7c0.2,0.3,0.2,0.6,0.2,0.9v14.2c0,0.2,0.1,0.5,0.3,0.6c0.2,0.2,0.4,0.3,0.7,0.3
					c0.2,0,0.5-0.1,0.7-0.3c0.2-0.2,0.3-0.4,0.3-0.6V128c0-0.4,0.1-0.7,0.3-1c0.2-0.3,0.4-0.5,0.7-0.6c0.3-0.2,0.6-0.2,0.9-0.2
					c1.7,0,2.3,1.7,2.8,4.7c0.5,2.4,0.7,4.7,0.8,7.1c0,2.3-0.7,4.6-1.9,6.7c-0.7,1.3-1.8,2.4-3,3.3c-0.5,0.3-1,0.6-1.6,0.8l0.4,31.8
					C491.1,181.1,491,181.5,490.8,182z M481,127.9c-0.4,1-0.6,2-0.8,3c-0.5,2.3-0.8,4.6-0.8,7c0,2.2,0.5,4.3,1.6,6.2
					c0.7,1.2,1.6,2.2,2.7,3c0.5,0.4,1.1,0.7,1.7,0.9l0.4,0.1l-0.7,32.5c0,0.3,0,0.6,0.2,0.9c0.1,0.3,0.3,0.5,0.5,0.7
					c0.2,0.2,0.5,0.4,0.9,0.6c0.3,0.1,0.7,0.2,1,0.2c0.7,0,1.4-0.3,1.9-0.8c0.2-0.2,0.4-0.5,0.5-0.7c0.1-0.3,0.2-0.6,0.2-0.9
					l-0.4-32.6l0.4-0.1c0.6-0.2,1.2-0.5,1.7-0.8c1.1-0.8,2-1.8,2.7-3c1.1-1.9,1.7-4,1.6-6.1c0-2.3-0.3-4.6-0.7-6.9
					c-0.6-3.5-1.2-3.8-1.9-3.8c-0.1,0-0.3,0-0.4,0.1c-0.1,0.1-0.2,0.2-0.3,0.3c-0.1,0.1-0.1,0.3-0.1,0.5v12.2c0,0.5-0.2,1-0.6,1.4
					c-0.4,0.4-0.9,0.6-1.4,0.6s-1-0.2-1.4-0.6c-0.4-0.4-0.6-0.9-0.6-1.4v-14.2c0-0.1,0-0.3-0.1-0.4c-0.1-0.1-0.2-0.3-0.3-0.3
					c-0.1-0.1-0.3-0.1-0.5-0.1c-0.2,0-0.3,0-0.5,0.1c-0.1,0.1-0.3,0.2-0.3,0.3c-0.1,0.1-0.1,0.3-0.1,0.4v14.2c0,0.5-0.2,1-0.6,1.4
					c-0.4,0.4-0.9,0.6-1.4,0.6c-0.3,0-0.5,0-0.8-0.1c-0.2-0.1-0.5-0.2-0.6-0.4c-0.4-0.4-0.6-0.9-0.6-1.4V128c0-0.2-0.1-0.3-0.1-0.5
					c-0.1-0.1-0.2-0.2-0.3-0.3c-0.1-0.1-0.3-0.1-0.4-0.1C481.7,127,481.3,127.2,481,127.9z"/>
				<path class="st62" d="M487,85.1l24-2.9l-2.6-3.2l-15.3-0.4L487,85.1z"/>
			</g>
		</g>
	</g>
</g>
<g id="Grocery">
</g>
<g id="Pharmacy__x26__Meds">
</g>
<g id="Gifts">
</g>
<g id="E-Commerce">
</g>
<g id="Individuals_Page">
</g>
<g id="More">
</g>
<g id="Become_A_Courier">
</g>
<g id="About_us">
</g>
<g id="Contact_US">
</g>
<g id="Layer_13">
</g>
</svg>
