<?xml version="1.0" encoding="utf-8"?>
<!-- Generator: Adobe Illustrator 26.0.1, SVG Export Plug-In . SVG Version: 6.00 Build 0)  -->
<svg version="1.1" xmlns="http://www.w3.org/2000/svg" xmlns:xlink="http://www.w3.org/1999/xlink" x="0px" y="0px"
	 viewBox="0 0 381.3 380" style="enable-background:new 0 0 381.3 380;" xml:space="preserve">
<style type="text/css">
	.st0{fill:#131314;}
	.st1{fill:#F7F5DD;stroke:#131314;stroke-width:0.8581;stroke-miterlimit:10;}
	.st2{fill:#131314;stroke:#F7F5DD;stroke-width:0.3547;stroke-miterlimit:10;}
	.st3{fill:#FFC72B;stroke:#131314;stroke-width:0.8581;stroke-linecap:round;stroke-linejoin:round;stroke-miterlimit:10;}
	.st4{fill:none;stroke:#131314;stroke-width:0.8581;stroke-miterlimit:10;}
	.st5{fill:#131314;stroke:#F7F5DD;stroke-width:0.389;stroke-miterlimit:10;}
	.st6{fill:#FF0058;stroke:#131314;stroke-width:1.7191;stroke-miterlimit:10;}
	.st7{fill:#FFC72B;}
	.st8{fill:#F7F5DD;}
	.st9{fill:url(#SVGID_1_);}
	.st10{fill:#FFE092;}
	.st11{fill:#FF0058;}
	.st12{fill:#FFFFFF;filter:url(#Adobe_OpacityMaskFilter);}
	.st13{mask:url(#mask4_744_2018_00000183221484926765621670000012565967078459250105_);}
	.st14{fill:#FFC72B;stroke:#131314;stroke-width:0.8581;stroke-miterlimit:10;}
	.st15{fill:url(#SVGID_00000127046273082793116630000011884699169302424971_);}
	.st16{clip-path:url(#SVGID_00000139270224237691205120000004863393133468819099_);}
	.st17{fill:#FFC72C;stroke:#131314;stroke-width:0.1032;stroke-miterlimit:10;}
	.st18{clip-path:url(#SVGID_00000137824707881893261490000015844360789325166249_);}
	.st19{fill:#DD9F14;}
	.st20{fill:none;stroke:#131314;stroke-width:2;stroke-miterlimit:10;}
	.st21{clip-path:url(#SVGID_00000029031784022040125970000000841726307310780850_);}
	.st22{fill:#F7F5DD;stroke:#131314;stroke-miterlimit:10;}
	.st23{fill:#131314;stroke:#131314;stroke-miterlimit:10;}
	.st24{fill:#FF0058;stroke:#131314;stroke-miterlimit:10;}
	.st25{opacity:0.1;fill:url(#SVGID_00000005952123830946117230000005311390376147250869_);enable-background:new    ;}
	.st26{opacity:0.4;}
	.st27{fill:none;stroke:#131314;stroke-miterlimit:10;}
	.st28{fill:#FFC72C;}
	.st29{fill:none;stroke:#131314;stroke-width:0.931;stroke-miterlimit:10;}
	.st30{fill:url(#SVGID_00000054252037815797655540000004223117201590134196_);}
	.st31{clip-path:url(#SVGID_00000109739975639580116390000001994568976450150843_);}
	.st32{fill:none;stroke:#131314;stroke-width:0.7836;}
	.st33{fill:#FF0058;stroke:#131314;stroke-width:0.931;stroke-miterlimit:10;}
	.st34{opacity:0.78;fill:#FFFFFF;}
	.st35{fill:#F7F5DD;stroke:#131314;stroke-width:1.3965;stroke-miterlimit:10;}
	.st36{fill:#FFC72B;stroke:#131314;stroke-width:0.931;stroke-miterlimit:10;}
	.st37{fill:#E7B67B;}
	.st38{fill:#FFC72C;stroke:#231F20;stroke-width:0.3724;stroke-linecap:round;stroke-linejoin:round;}
	.st39{fill:none;stroke:#F7F5DD;stroke-width:1.862;stroke-linecap:round;stroke-linejoin:round;stroke-miterlimit:10;}
	.st40{fill:none;stroke:#F7F5DD;stroke-width:0.931;stroke-linecap:round;stroke-linejoin:round;stroke-miterlimit:10;}
	.st41{fill:none;stroke:#FF0058;stroke-width:0.931;stroke-miterlimit:10;}
	.st42{fill:none;stroke:#FF0058;stroke-width:0.931;stroke-linecap:round;stroke-linejoin:round;stroke-miterlimit:10;}
	.st43{fill:none;stroke:#131314;stroke-width:0.931;stroke-linecap:round;stroke-linejoin:round;stroke-miterlimit:10;}
	.st44{fill:none;stroke:#000000;stroke-width:0.931;stroke-miterlimit:10;}
	.st45{fill:none;}
	.st46{fill:#FFC72C;stroke:#000000;stroke-width:0.8449;stroke-miterlimit:10;}
	.st47{clip-path:url(#SVGID_00000120548581016607719320000001277482261517251761_);fill:#F4B821;}
	.st48{clip-path:url(#SVGID_00000120548581016607719320000001277482261517251761_);fill:#FF0058;}
	.st49{clip-path:url(#SVGID_00000181770351900156345400000002507443085121633690_);fill:#F4B821;}
	.st50{clip-path:url(#SVGID_00000181770351900156345400000002507443085121633690_);fill:#FF0058;}
	.st51{fill:#FE0058;}
	.st52{fill:#FFF8FB;}
	.st53{fill:#F7F5DD;stroke:#000000;stroke-width:1.2859;stroke-miterlimit:10;}
	.st54{fill:url(#SVGID_00000180361438961690587810000018241279664685552013_);}
	.st55{clip-path:url(#SVGID_00000035509520960933958490000007013326621011399102_);}
	.st56{fill:none;stroke:#131314;stroke-width:1.4798;}
	.st57{fill:#FFC72B;stroke:#131314;stroke-width:1.0065;stroke-miterlimit:10;}
	.st58{fill:#DD225C;}
	.st59{fill:#67300F;}
	.st60{fill:#FFC72C;stroke:#231F20;stroke-width:0.4026;stroke-linecap:round;stroke-linejoin:round;}
	.st61{fill:#FFB703;}
	.st62{clip-path:url(#SVGID_00000133486865594794173980000003656886009539828151_);}
	.st63{fill:url(#SVGID_00000174599741207972321640000006071013285649195940_);}
	.st64{clip-path:url(#SVGID_00000005954665970774701420000011124156823685567419_);}
	.st65{fill:none;stroke:#131314;stroke-width:1.5895;}
	.st66{fill:#FFFFFF;filter:url(#Adobe_OpacityMaskFilter_00000086651109341380729930000005614698211074456984_);}
	.st67{mask:url(#mask4_744_2018_00000150814286955539578320000013805391622432084355_);}
	.st68{fill:#FFC72B;stroke:#131314;stroke-width:0.97;stroke-miterlimit:10;}
	.st69{fill:url(#SVGID_00000073714250955457989170000015874193612265436802_);}
	.st70{clip-path:url(#SVGID_00000029028670565623163330000007015059932213061007_);}
	.st71{fill:#FFC72C;stroke:#131314;stroke-width:0.1166;stroke-miterlimit:10;}
	.st72{opacity:0.14;clip-path:url(#XMLID_00000074439178041180507380000018361743457987313821_);fill:#F7F5DD;}
	.st73{opacity:0.14;clip-path:url(#XMLID_00000065789805883007832310000011154956559351319487_);fill:#F7F5DD;}
	.st74{opacity:0.14;clip-path:url(#XMLID_00000012456385661393528340000016085952504737407421_);fill:#F7F5DD;}
	.st75{fill:none;stroke:#131314;stroke-width:0.7289;stroke-miterlimit:10;}
	.st76{fill-rule:evenodd;clip-rule:evenodd;fill:#F7F5DD;stroke:#231F20;stroke-width:0.5758;stroke-miterlimit:10;}
	.st77{fill:#FFC72C;stroke:#231F20;stroke-width:0.2915;stroke-linecap:round;stroke-linejoin:round;}
	.st78{fill:#EBD8D1;}
	.st79{fill:#FFC72B;stroke:#131314;stroke-width:0.7289;stroke-miterlimit:10;}
	.st80{fill:#FFC72B;stroke:#131314;stroke-width:1.0933;stroke-miterlimit:10;}
	.st81{fill:#FDBAA7;}
	.st82{fill:#F7F5DD;stroke:#131314;stroke-width:0.7289;stroke-miterlimit:10;}
	.st83{opacity:0.5;fill:#FCC0B1;}
	.st84{fill:#F7F5DD;stroke:#131314;stroke-width:1.0933;stroke-miterlimit:10;}
	.st85{fill:#843636;}
	.st86{opacity:0.7;}
	.st87{fill:#853536;}
	.st88{fill:#E0A9A0;}
	.st89{fill:none;stroke:#F7F5DD;stroke-width:1.4577;stroke-linecap:round;stroke-linejoin:round;stroke-miterlimit:10;}
	.st90{fill:none;stroke:#F7F5DD;stroke-width:0.7289;stroke-linecap:round;stroke-linejoin:round;stroke-miterlimit:10;}
	.st91{fill:none;stroke:#FF0058;stroke-width:0.7289;stroke-miterlimit:10;}
	.st92{fill:none;stroke:#FF0058;stroke-width:0.7289;stroke-linecap:round;stroke-linejoin:round;stroke-miterlimit:10;}
	.st93{fill:none;stroke:#131314;stroke-width:0.7289;stroke-linecap:round;stroke-linejoin:round;stroke-miterlimit:10;}
	.st94{fill:none;stroke:#000000;stroke-width:0.7289;stroke-miterlimit:10;}
	.st95{opacity:0.6;fill:#F7F5DD;enable-background:new    ;}
	.st96{opacity:0.4;fill:#F7F5DD;enable-background:new    ;}
	.st97{opacity:0.2;fill:#F7F5DD;enable-background:new    ;}
	.st98{fill:#F7F5DD;stroke:#131314;stroke-width:1.0398;stroke-miterlimit:10;}
	.st99{fill:url(#SVGID_00000016791381240054928260000006322860426261796227_);}
	.st100{clip-path:url(#SVGID_00000157279727282559494770000017199814957003604913_);}
	.st101{fill:none;stroke:#131314;stroke-width:1.396;}
	.st102{fill:#FFFFFF;stroke:#070405;stroke-width:1.0001;stroke-miterlimit:10;}
	.st103{fill:#FE0058;stroke:#000000;stroke-width:1.0001;stroke-miterlimit:10;}
	.st104{fill:#131314;stroke:#070405;stroke-width:1.0001;stroke-miterlimit:10;}
	.st105{fill:#F7F5DD;stroke:#070506;stroke-width:1.0001;stroke-miterlimit:10;}
	.st106{fill:#F7F5DD;stroke:#000000;stroke-width:1.0001;stroke-miterlimit:10;}
	.st107{fill:#131313;}
	.st108{fill:#101431;stroke:#0C0609;stroke-width:1.0001;stroke-miterlimit:10;}
	.st109{fill:#171F42;stroke:#0C0609;stroke-width:1.0001;stroke-miterlimit:10;}
	.st110{fill:none;stroke:#131314;stroke-width:1.63;stroke-linecap:round;stroke-linejoin:round;stroke-dasharray:10.2907,8.5737;}
	.st111{fill:#FFC72C;stroke:#131314;stroke-width:0.815;stroke-linecap:round;stroke-linejoin:round;stroke-miterlimit:10;}
	.st112{fill:#FFC72C;stroke:#131314;stroke-width:0.815;stroke-linecap:round;stroke-linejoin:round;}
	.st113{fill:none;stroke:#131314;stroke-width:0.9454;stroke-linecap:round;stroke-miterlimit:10;}
	.st114{fill:url(#SVGID_00000008840480731890593970000005925483905801237909_);}
	.st115{fill:#F7F5DD;stroke:#131314;stroke-width:1.0867;stroke-linecap:round;stroke-linejoin:round;stroke-miterlimit:10;}
	.st116{fill:none;stroke:#131314;stroke-width:1.0867;stroke-linecap:round;stroke-linejoin:round;stroke-miterlimit:10;}
	.st117{fill:#F7F5DD;stroke:#131314;stroke-width:2.0758;stroke-linecap:round;stroke-linejoin:round;stroke-miterlimit:10;}
	.st118{fill:none;stroke:#131314;stroke-width:2.0758;stroke-linecap:round;stroke-linejoin:round;stroke-miterlimit:10;}
	.st119{fill:#FFC72C;stroke:#131314;stroke-width:0.5341;stroke-linecap:round;stroke-linejoin:round;stroke-miterlimit:10;}
	.st120{fill:#FFC72C;stroke:#131314;stroke-width:0.5341;stroke-linecap:round;stroke-linejoin:round;}
	.st121{fill:none;stroke:#131314;stroke-width:0.6195;stroke-linecap:round;stroke-miterlimit:10;}
	.st122{fill:#FFFFFF;filter:url(#Adobe_OpacityMaskFilter_00000098919030947013988190000003334926138799623866_);}
	.st123{mask:url(#mask0_472_749_00000067936524425341381020000013690141856301607846_);}
	.st124{fill:#FFC72B;stroke:#000000;stroke-width:0.7607;stroke-miterlimit:10;}
	.st125{fill:none;stroke:#FF0058;stroke-width:3.26;stroke-linecap:round;stroke-linejoin:round;}
	.st126{fill:url(#SVGID_00000013884794732528282930000016590074886480417936_);}
	.st127{fill:#FFC72C;stroke:#131314;stroke-width:9.798834e-02;stroke-miterlimit:10;}
	.st128{fill:#F7F5DD;stroke:#131314;stroke-width:0.8499;stroke-miterlimit:10;}
	.st129{fill:url(#SVGID_00000000208109295227554170000006849111384702651579_);}
	.st130{clip-path:url(#SVGID_00000049921335134273677150000000867423739344116126_);}
	.st131{fill:none;stroke:#131314;stroke-width:0.1586;}
	.st132{fill:#F7F5DD;stroke:#000000;stroke-width:0.1379;stroke-miterlimit:10;}
	.st133{fill:#FFC72B;stroke:#131314;stroke-width:0.1079;stroke-miterlimit:10;}
	
		.st134{fill-rule:evenodd;clip-rule:evenodd;fill:#F7F5DD;stroke:#131314;stroke-width:0.6316;stroke-linecap:round;stroke-linejoin:round;stroke-miterlimit:10;}
	.st135{fill:#FE0058;stroke:#131314;stroke-width:0.6316;stroke-linecap:round;stroke-linejoin:round;stroke-miterlimit:10;}
	.st136{fill:#F7F5DD;stroke:#131314;stroke-width:0.6316;stroke-linecap:round;stroke-linejoin:round;stroke-miterlimit:10;}
	.st137{fill:#FFC72B;stroke:#131314;stroke-width:0.8499;stroke-miterlimit:10;}
	.st138{opacity:0.5;}
	.st139{clip-path:url(#SVGID_00000062173017631330665420000011087494114383074945_);}
	.st140{fill:#CCCCCC;}
	.st141{fill:#FFC608;stroke:#131314;stroke-width:0.6316;stroke-linecap:round;stroke-linejoin:round;stroke-miterlimit:10;}
	.st142{fill:#79C9E2;}
	.st143{fill:#62B8CC;}
	.st144{fill:#D9E1EE;}
	.st145{fill:none;stroke:#FFFFFF;stroke-width:0.4753;stroke-miterlimit:10;}
	.st146{fill:#E48D34;}
	.st147{fill:#EAA05C;}
	.st148{fill:#D17A2B;}
	.st149{fill:#F5B376;}
	.st150{fill:#F5BE2D;}
	.st151{fill:#F4E081;}
	.st152{fill:#F2A101;}
	.st153{fill:#F7CF4C;}
	.st154{fill:#DE8E06;}
	.st155{fill:#05C954;}
	.st156{fill:#E21E36;}
	.st157{fill:#D4101E;}
	.st158{fill:#00AF47;}
	.st159{fill:#FFE164;}
	.st160{fill:#FFFAA6;}
	.st161{fill:#43B572;}
	.st162{fill:#FFC72C;stroke:#231F20;stroke-width:0.1377;stroke-linecap:round;stroke-linejoin:round;}
	.st163{fill:#FED0B8;}
	.st164{fill:#F7F5DD;stroke:#131314;stroke-width:0.6605;stroke-linecap:round;stroke-linejoin:round;stroke-miterlimit:10;}
	.st165{fill:#FFC608;stroke:#131314;stroke-width:0.6234;stroke-miterlimit:10;}
	.st166{fill:#FFC608;stroke:#131314;stroke-width:0.5155;stroke-miterlimit:10;}
	.st167{fill:none;stroke:#131314;stroke-width:1.1332;stroke-linecap:round;stroke-linejoin:round;stroke-dasharray:22.665,22.665;}
	.st168{fill:#FFC72C;stroke:#231F20;stroke-width:4.938446e-02;stroke-linecap:round;stroke-linejoin:round;}
	.st169{fill:url(#SVGID_00000180336125167903780640000008058779483461252788_);}
	.st170{clip-path:url(#SVGID_00000114761750322565290220000007725982349069246116_);}
	.st171{fill:#FFC72C;stroke:#131314;stroke-width:7.223932e-02;stroke-miterlimit:10;}
	.st172{fill:url(#SVGID_00000117675171006247273250000001032821153733995905_);}
	.st173{fill:#131314;stroke:#F7F5DD;stroke-width:0.1911;stroke-miterlimit:10;}
	.st174{fill:#F7F5DD;stroke:#131314;stroke-width:0.9245;stroke-miterlimit:10;}
	.st175{fill:none;stroke:#131314;stroke-width:0.9245;stroke-miterlimit:10;}
	.st176{fill:#131314;stroke:#F7F5DD;stroke-width:0.2096;stroke-miterlimit:10;}
	.st177{fill:#FF0058;stroke:#131314;stroke-width:0.9245;stroke-miterlimit:10;}
	.st178{fill:#232020;}
	.st179{fill:#F7F5DD;stroke:#231F20;stroke-width:0.9245;stroke-miterlimit:10;}
	.st180{fill:#FCF4EC;}
	.st181{fill:#CD950C;}
	.st182{fill:none;stroke:#FFFFFF;stroke-width:0.5769;stroke-miterlimit:10;}
	.st183{fill:#FFC72C;stroke:#131314;stroke-width:0.8286;stroke-miterlimit:10;}
	.st184{fill:#FFC72C;stroke:#131314;stroke-width:0.8286;stroke-linecap:round;stroke-linejoin:round;}
	.st185{clip-path:url(#SVGID_00000038398191768290921570000010845560819803052675_);}
	.st186{fill:url(#SVGID_00000175312410308083802370000014233828381964040624_);}
	.st187{clip-path:url(#SVGID_00000134945874392331877090000001421295319699367352_);}
	.st188{fill:none;stroke:#131314;stroke-width:1.5284;}
	.st189{fill:#FFFFFF;filter:url(#Adobe_OpacityMaskFilter_00000018925774272591988910000003649502836147470509_);}
	.st190{mask:url(#mask4_744_2018_00000067229330011245605510000014511519346254753932_);}
	.st191{fill:#FFC72B;stroke:#131314;stroke-width:0.9327;stroke-miterlimit:10;}
	.st192{fill-rule:evenodd;clip-rule:evenodd;fill:#F7F5DD;stroke:#131314;stroke-width:0.2707;stroke-miterlimit:10;}
	.st193{fill-rule:evenodd;clip-rule:evenodd;fill:#F9CC3D;}
	.st194{fill-rule:evenodd;clip-rule:evenodd;fill:#FE0058;}
	.st195{fill:#EDBA29;}
	.st196{fill-rule:evenodd;clip-rule:evenodd;fill:#98DFFF;}
	.st197{fill:#29ABE2;}
	.st198{fill-rule:evenodd;clip-rule:evenodd;fill:#FFC72C;stroke:#131314;stroke-width:0.2707;stroke-miterlimit:10;}
	.st199{fill-rule:evenodd;clip-rule:evenodd;fill:#F7F5DD;stroke:#131314;stroke-width:0.1083;stroke-miterlimit:10;}
	.st200{fill-rule:evenodd;clip-rule:evenodd;fill:#FE0058;stroke:#131314;stroke-width:0.1083;stroke-miterlimit:10;}
	.st201{fill:#B3B3B3;}
	.st202{fill:#FFC72C;stroke:#231F20;stroke-width:0.4332;stroke-linecap:round;stroke-linejoin:round;}
	.st203{fill:#FFC84A;}
	.st204{fill:#FF0058;stroke:#131314;stroke-width:1.2117;stroke-miterlimit:10;}
	.st205{fill:#F7F5DD;stroke:#131314;stroke-width:0.9088;stroke-miterlimit:10;}
	.st206{fill:#FFC72B;stroke:#131314;stroke-width:0.9088;stroke-miterlimit:10;}
	.st207{fill:url(#SVGID_00000074422177180689045970000011180796799302984105_);}
	.st208{fill:#FFC72B;stroke:#000000;stroke-width:0.8482;stroke-miterlimit:10;}
	.st209{fill:none;stroke:#F7F5DD;stroke-width:1.4089;stroke-linecap:round;stroke-linejoin:round;stroke-miterlimit:10;}
	.st210{fill:none;stroke:#131314;stroke-width:0.7045;stroke-miterlimit:10;}
	.st211{fill:none;stroke:#F7F5DD;stroke-width:0.7045;stroke-linecap:round;stroke-linejoin:round;stroke-miterlimit:10;}
	.st212{fill:none;stroke:#FF0058;stroke-width:0.7045;stroke-miterlimit:10;}
	.st213{fill:none;stroke:#FF0058;stroke-width:0.7045;stroke-linecap:round;stroke-linejoin:round;stroke-miterlimit:10;}
	.st214{fill:none;stroke:#131314;stroke-width:0.7045;stroke-linecap:round;stroke-linejoin:round;stroke-miterlimit:10;}
	.st215{fill:none;stroke:#000000;stroke-width:0.7045;stroke-miterlimit:10;}
	.st216{fill:none;stroke:#131314;stroke-width:0.8062;stroke-miterlimit:10;}
	.st217{clip-path:url(#SVGID_00000042723609577846149650000013852896475048066190_);}
	.st218{fill:url(#SVGID_00000003088632812057705020000011094483514229921950_);}
	.st219{clip-path:url(#SVGID_00000179611508856133824950000015418889720807428248_);}
	.st220{fill:none;stroke:#131314;stroke-width:1.7355;}
	.st221{fill:#F7F5DD;stroke:#131314;stroke-width:1.2641;stroke-miterlimit:10;}
	.st222{fill:#FFC608;stroke:#0C0609;stroke-width:0.9481;stroke-miterlimit:10;}
	.st223{fill:#FFC72B;stroke:#131314;stroke-width:1.2641;stroke-miterlimit:10;}
	.st224{fill:#FFC72B;stroke:#131314;stroke-width:0.9481;stroke-miterlimit:10;}
	.st225{clip-path:url(#SVGID_00000147197926838076152420000009249273164910187424_);}
	.st226{fill:#F4B821;}
	.st227{fill:#C69560;}
	.st228{fill:#F7F5DD;stroke:#131314;stroke-width:1.2993;stroke-miterlimit:10;}
	.st229{fill:#131314;stroke:#F7F5DD;stroke-width:0.2685;stroke-miterlimit:10;}
	.st230{fill:#FFC72B;stroke:#131314;stroke-width:1.2993;stroke-miterlimit:10;}
	.st231{fill:none;stroke:#131314;stroke-width:1.2993;stroke-miterlimit:10;}
	.st232{fill:#131314;stroke:#F7F5DD;stroke-width:0.2945;stroke-miterlimit:10;}
	.st233{fill:#FF0058;stroke:#131314;stroke-width:1.2993;stroke-miterlimit:10;}
	.st234{fill:#FFFFFF;filter:url(#Adobe_OpacityMaskFilter_00000071545731501750791400000010658917460202406785_);}
	.st235{mask:url(#mask0_479_11673_00000099644528304487065730000005320813079396614829_);}
	.st236{fill:#FFC72B;stroke:#000000;stroke-width:0.6063;stroke-miterlimit:10;}
	.st237{fill:url(#SVGID_00000052817835688494709720000014504864837970855351_);}
	.st238{fill:#FFFFFF;filter:url(#Adobe_OpacityMaskFilter_00000004540496237160868870000001224530046871937180_);}
	.st239{mask:url(#mask0_472_749_00000032621048777137593190000003031189513109940632_);}
	.st240{fill:url(#SVGID_00000168083262229681396760000004164595900651554694_);}
	.st241{fill:url(#SVGID_00000177454896148952602830000005956094840722346901_);}
	.st242{clip-path:url(#SVGID_00000103262049200692215650000000951465640645536935_);}
	.st243{fill:none;stroke:#131314;stroke-width:1.793;}
	.st244{fill:#F7F5DD;stroke:#000000;stroke-width:1.4856;stroke-miterlimit:10;}
	.st245{fill:#FFC72B;stroke:#131314;stroke-width:1.1628;stroke-miterlimit:10;}
	.st246{fill:#F7F5DD;stroke:#131314;stroke-width:1.306;stroke-miterlimit:10;}
	.st247{fill:none;stroke:#131314;stroke-width:1.2653;stroke-miterlimit:10;}
	.st248{fill:#FFC72C;stroke:#131314;stroke-width:0.9795;stroke-miterlimit:10;}
	.st249{fill:#FFC72C;stroke:#131314;stroke-width:0.9795;stroke-linecap:round;stroke-linejoin:round;stroke-miterlimit:10;}
	.st250{fill:#FFFFFF;}
	.st251{fill:#F7F5DD;stroke:#000000;stroke-width:0.4697;stroke-miterlimit:10;}
	.st252{fill:#FFC046;}
	.st253{fill:none;stroke:#131314;stroke-width:0.8612;stroke-linecap:round;stroke-linejoin:round;stroke-miterlimit:10;}
	.st254{fill:none;stroke:#FFFFFF;stroke-width:0.8612;stroke-linecap:round;stroke-linejoin:round;stroke-miterlimit:10;}
	.st255{fill:none;stroke:#F7F5DD;stroke-width:0.4697;stroke-miterlimit:10;}
	.st256{font-family:'BCNovaticaCYR-SemiBold';}
	.st257{font-size:14.6201px;}
	.st258{fill:#F7F5DD;stroke:#070506;stroke-width:0.5202;stroke-miterlimit:10;}
	.st259{fill:#F7F5DD;stroke:#000000;stroke-width:0.5202;stroke-miterlimit:10;}
	.st260{fill:#FE0058;stroke:#000000;stroke-width:0.5202;stroke-miterlimit:10;}
	.st261{fill:none;stroke:#F7F5DD;stroke-width:0.8612;stroke-linecap:round;stroke-linejoin:round;stroke-miterlimit:10;}
	.st262{fill:none;stroke:#1A2E35;stroke-width:0.8612;stroke-linecap:round;stroke-linejoin:round;stroke-miterlimit:10;}
</style>
<g id="Layer_1">
</g>
<g id="Home">
</g>
<g id="Restaurants">
</g>
<g id="Grocery">
</g>
<g id="Pharmacy__x26__Meds">
</g>
<g id="Gifts">
</g>
<g id="E-Commerce">
</g>
<g id="Individuals_Page">
</g>
<g id="More">
</g>
<g id="Become_A_Courier">
</g>
<g id="About_us">
	<g>
		<g>
			<g>
				<ellipse class="st0" cx="182" cy="345.9" rx="100.4" ry="1.4"/>
				<g>
					<path class="st0" d="M268.6,22.9v304.8c0,10.7-8.7,19.4-19.4,19.4H111.8c-10.7,0-19.4-8.7-19.4-19.4V22.9
						c0-10.7,8.7-19.4,19.4-19.4h137.4C259.9,3.5,268.6,12.2,268.6,22.9z"/>
					<path class="st250" d="M249.2,344.5H111.8c-9.3,0-16.9-7.6-16.9-16.9V22.9c0-9.3,7.6-16.9,16.9-16.9h137.4
						c9.3,0,16.9,7.6,16.9,16.9v304.8C266.1,337,258.5,344.5,249.2,344.5z"/>
					<path class="st7" d="M249.2,344.5H111.8c-9.3,0-16.9-7.6-16.9-16.9V22.9c0-9.3,7.6-16.9,16.9-16.9h137.4
						c9.3,0,16.9,7.6,16.9,16.9v304.8C266.1,337,258.5,344.5,249.2,344.5z"/>
					<path class="st251" d="M104.3,318.2v-286c0-9.3,7.6-16.9,16.9-16.9h118.6c9.3,0,16.9,7.6,16.9,16.9v286
						c0,9.3-7.6,16.9-16.9,16.9H121.2C111.8,335.1,104.3,327.6,104.3,318.2z"/>
					<path class="st0" d="M201.4,25.5h-41.7c-5.6,0-10.1-4.5-10.1-10.1h62C211.5,20.9,206.9,25.5,201.4,25.5z"/>
					<path class="st250" d="M199.3,20h-37.6c-0.5,0-0.9-0.4-0.9-0.9c0-0.5,0.4-0.9,0.9-0.9h37.6c0.5,0,0.9,0.4,0.9,0.9
						C200.2,19.6,199.8,20,199.3,20z"/>
					<rect x="228.3" y="18" class="st0" width="8.8" height="2.5"/>
					<g>
						<rect x="216.8" y="18" class="st0" width="1.1" height="2.5"/>
						<rect x="218.4" y="18" class="st0" width="1.1" height="2.5"/>
						<rect x="219.9" y="18" class="st0" width="1.1" height="2.5"/>
					</g>
					<g>
						<path class="st0" d="M129.7,19.7c0,0.9-0.7,1.6-1.6,1.6c-0.9,0-1.6-0.7-1.6-1.6c0-0.9,0.7-1.6,1.6-1.6
							C129,18.1,129.7,18.8,129.7,19.7z"/>
						<path class="st0" d="M134.3,19.7c0,0.9-0.7,1.6-1.6,1.6c-0.9,0-1.6-0.7-1.6-1.6c0-0.9,0.7-1.6,1.6-1.6
							C133.6,18.1,134.3,18.8,134.3,19.7z"/>
						<path class="st0" d="M138.9,19.7c0,0.9-0.7,1.6-1.6,1.6c-0.9,0-1.6-0.7-1.6-1.6c0-0.9,0.7-1.6,1.6-1.6
							C138.2,18.1,138.9,18.8,138.9,19.7z"/>
					</g>
					<g>
						<g id="Layer-14_00000005973457345612578410000009847814366231383450_">
							<path class="st11" d="M114.4,250.4c0-5.5,4.6-10,10.3-10h111.7c5.7,0,10.3,4.5,10.3,10v61.1c0,5.5-4.6,10-10.3,10H124.7
								c-5.7,0-10.3-4.5-10.3-10V250.4z"/>
							<path class="st11" d="M116.3,64.1c0-4.6,3.7-8.2,8.2-8.2h111.8c4.6,0,8.2,3.7,8.2,8.2v24.3c0,4.6-3.7,8.2-8.2,8.2H124.6
								c-4.6,0-8.2-3.7-8.2-8.2V64.1z"/>
							<path class="st252" d="M174.4,191.6c0-2.3,1.8-4.1,4.1-4.1h62.1c2.3,0,4.1,1.8,4.1,4.1v2.4c0,2.3-1.8,4.1-4.1,4.1h-62.1
								c-2.3,0-4.1-1.8-4.1-4.1V191.6z"/>
							<path class="st252" d="M174.4,209.1c0-1.7,1.4-3.1,3.1-3.1h47c1.7,0,3.1,1.4,3.1,3.1v1.9c0,1.7-1.4,3.1-3.1,3.1h-47
								c-1.7,0-3.1-1.4-3.1-3.1V209.1z"/>
							<path class="st253" d="M117.1,229.2h127.6"/>
							<g>
								<path class="st254" d="M219.4,71.9h9.7"/>
								<path class="st254" d="M219.4,76.3h9.7"/>
								<path class="st254" d="M219.4,80.6h9.7"/>
							</g>
						</g>
						<path class="st7" d="M129.4,268.7c0-1,1-1.7,2.2-1.7h8.6c1.2,0,2.2,0.8,2.2,1.7v6.8c0,1-1,1.7-2.2,1.7h-8.6
							c-1.2,0-2.2-0.8-2.2-1.7V268.7z"/>
						<path class="st7" d="M129.4,252.7c0-1.8,1.6-3.3,3.6-3.3h37.8c2,0,3.6,1.5,3.6,3.3v3.7c0,1.8-1.6,3.3-3.6,3.3H133
							c-2,0-3.6-1.5-3.6-3.3V252.7z"/>
						<path class="st7" d="M129.4,306.8c0-1,0.9-1.7,1.9-1.7h42.6c1,0,1.9,0.8,1.9,1.7v1.9c0,1-0.9,1.7-1.9,1.7h-42.6
							c-1,0-1.9-0.8-1.9-1.7V306.8z"/>
						<path class="st7" d="M209.5,303.1c0-1.4,1.2-2.6,2.6-2.6h17.1c1.4,0,2.6,1.2,2.6,2.6v4.8c0,1.4-1.2,2.6-2.6,2.6h-17.1
							c-1.4,0-2.6-1.2-2.6-2.6V303.1z"/>
						<path class="st255" d="M172.6,295.7h24.5"/>
						<g>
							<path class="st253" d="M221.2,268.3c0,0,1.4,1.9,1.4,3.7c0,1.9-1.4,3.8-1.4,3.8"/>
							<path class="st253" d="M218.4,270.1c0,0,0.8,1,0.8,2c0,1-0.8,2-0.8,2"/>
							<path class="st253" d="M224.3,266.8c0,0,2,2.6,2,5.2c0,2.6-2,5.3-2,5.3"/>
							<path class="st253" d="M227.7,265.7c0,0,2.4,3.1,2.4,6.3c0,3.2-2.4,6.4-2.4,6.4"/>
						</g>
						<path class="st253" d="M117.1,107.6h127.6"/>
						<g>
							<path class="st8" d="M169.7,134.4h2c0.6,0,1-0.1,1.3-0.4c0.3-0.3,0.5-0.7,0.5-1.2c0-0.5-0.2-1-0.5-1.3
								c-0.3-0.3-0.7-0.5-1.3-0.5h-2V134.4z"/>
							<path class="st8" d="M189.9,134.1l2.2-4.8h2.4l-3.5,6.9v3.9h-2.3v-3.9l-3.5-6.9h2.4L189.9,134.1z"/>
						</g>
						<path class="st11" d="M143.2,143.8c0-4.4,3.6-8,8-8h58.5c4.4,0,8,3.6,8,8v12.7c0,4.4-3.6,8-8,8h-58.5c-4.4,0-8-3.6-8-8V143.8z
							"/>
						<g>
							<path class="st0" d="M131.7,291.5h-1.5v-5.6l-1.7,0.5v-1.2l3-1.1h0.2V291.5z"/>
							<path class="st0" d="M139.5,291.5h-5v-1l2.4-2.5c0.3-0.4,0.6-0.7,0.7-0.9c0.2-0.3,0.2-0.5,0.2-0.8c0-0.3-0.1-0.6-0.2-0.8
								c-0.2-0.2-0.4-0.3-0.7-0.3c-0.3,0-0.6,0.1-0.8,0.3c-0.2,0.2-0.3,0.5-0.3,0.9h-1.5c0-0.4,0.1-0.9,0.3-1.2
								c0.2-0.4,0.5-0.7,0.9-0.9c0.4-0.2,0.8-0.3,1.3-0.3c0.8,0,1.3,0.2,1.8,0.5c0.4,0.4,0.6,0.9,0.6,1.5c0,0.4-0.1,0.7-0.3,1.1
								c-0.2,0.4-0.5,0.8-1,1.3l-1.7,1.8h3.1V291.5z"/>
							<path class="st0" d="M142.2,287.2h0.8c0.4,0,0.6-0.1,0.8-0.3c0.2-0.2,0.3-0.4,0.3-0.7c0-0.3-0.1-0.5-0.3-0.7
								c-0.2-0.2-0.4-0.2-0.7-0.2c-0.3,0-0.5,0.1-0.7,0.2c-0.2,0.2-0.3,0.4-0.3,0.6h-1.5c0-0.4,0.1-0.7,0.3-1
								c0.2-0.3,0.5-0.5,0.9-0.7c0.4-0.2,0.8-0.3,1.2-0.3c0.8,0,1.4,0.2,1.8,0.6c0.4,0.4,0.7,0.9,0.7,1.5c0,0.3-0.1,0.6-0.3,0.9
								c-0.2,0.3-0.5,0.5-0.8,0.6c0.4,0.1,0.7,0.4,0.9,0.7c0.2,0.3,0.3,0.6,0.3,1c0,0.6-0.2,1.2-0.7,1.6c-0.5,0.4-1.1,0.6-1.9,0.6
								c-0.7,0-1.3-0.2-1.8-0.6c-0.5-0.4-0.7-0.9-0.7-1.5h1.5c0,0.3,0.1,0.5,0.3,0.7c0.2,0.2,0.5,0.3,0.8,0.3c0.3,0,0.6-0.1,0.8-0.3
								c0.2-0.2,0.3-0.4,0.3-0.7c0-0.7-0.4-1.1-1.2-1.1h-0.8V287.2z"/>
							<path class="st0" d="M151.4,288.7h0.8v1.2h-0.8v1.6h-1.5v-1.6h-3l-0.1-0.9l3-4.8h1.5V288.7z M148.3,288.7h1.6v-2.6l-0.1,0.2
								L148.3,288.7z"/>
							<path class="st0" d="M158.5,287.7l0.9-1.6h1.6l-1.5,2.7l1.6,2.8h-1.6l-1-1.7l-1,1.7H156l1.6-2.8l-1.5-2.7h1.6L158.5,287.7z"
								/>
							<path class="st0" d="M164.1,287.7l0.9-1.6h1.6l-1.5,2.7l1.6,2.8h-1.6l-1-1.7l-1,1.7h-1.6l1.6-2.8l-1.5-2.7h1.6L164.1,287.7z"
								/>
							<path class="st0" d="M169.8,287.7l0.9-1.6h1.6l-1.5,2.7l1.6,2.8h-1.6l-1-1.7l-1,1.7h-1.6l1.6-2.8l-1.5-2.7h1.6L169.8,287.7z"
								/>
							<path class="st0" d="M175.4,287.7l0.9-1.6h1.6l-1.5,2.7l1.6,2.8h-1.6l-1-1.7l-1,1.7h-1.6l1.6-2.8l-1.5-2.7h1.6L175.4,287.7z"
								/>
							<path class="st0" d="M184,287.7l0.9-1.6h1.6l-1.5,2.7l1.6,2.8H185l-1-1.7l-1,1.7h-1.6l1.6-2.8l-1.5-2.7h1.6L184,287.7z"/>
							<path class="st0" d="M189.7,287.7l0.9-1.6h1.6l-1.5,2.7l1.6,2.8h-1.6l-1-1.7l-1,1.7h-1.6l1.6-2.8l-1.5-2.7h1.6L189.7,287.7z"
								/>
							<path class="st0" d="M195.3,287.7l0.9-1.6h1.6l-1.5,2.7l1.6,2.8h-1.6l-1-1.7l-1,1.7h-1.6l1.6-2.8l-1.5-2.7h1.6L195.3,287.7z"
								/>
							<path class="st0" d="M201,287.7l0.9-1.6h1.6l-1.5,2.7l1.6,2.8h-1.6l-1-1.7l-1,1.7h-1.6l1.6-2.8l-1.5-2.7h1.6L201,287.7z"/>
							<path class="st0" d="M207.7,287.9l0.4-3.7h4.1v1.2h-2.9l-0.2,1.6c0.3-0.2,0.7-0.3,1.1-0.3c0.7,0,1.2,0.2,1.6,0.6
								c0.4,0.4,0.6,1,0.6,1.8c0,0.5-0.1,0.9-0.3,1.3c-0.2,0.4-0.5,0.7-0.9,0.9c-0.4,0.2-0.8,0.3-1.3,0.3c-0.4,0-0.9-0.1-1.2-0.3
								c-0.4-0.2-0.7-0.4-0.9-0.8c-0.2-0.3-0.3-0.7-0.3-1.1h1.4c0,0.3,0.1,0.5,0.3,0.7c0.2,0.2,0.4,0.3,0.7,0.3
								c0.3,0,0.6-0.1,0.8-0.4c0.2-0.2,0.3-0.6,0.3-1c0-0.4-0.1-0.7-0.3-1c-0.2-0.2-0.5-0.3-0.9-0.3c-0.3,0-0.6,0.1-0.8,0.3
								l-0.1,0.1L207.7,287.9z"/>
							<path class="st0" d="M217.7,284.1v1.2h-0.1c-0.7,0-1.2,0.2-1.6,0.5c-0.4,0.3-0.6,0.8-0.7,1.4c0.4-0.4,0.9-0.6,1.5-0.6
								c0.6,0,1.1,0.2,1.5,0.7s0.6,1.1,0.6,1.8c0,0.5-0.1,0.9-0.3,1.3c-0.2,0.4-0.5,0.7-0.9,0.9c-0.4,0.2-0.8,0.3-1.3,0.3
								c-0.8,0-1.4-0.3-1.9-0.8c-0.5-0.5-0.7-1.2-0.7-2.1v-0.5c0-0.8,0.1-1.5,0.4-2.1c0.3-0.6,0.7-1.1,1.3-1.4
								c0.6-0.3,1.2-0.5,2-0.5H217.7z M216.3,287.8c-0.2,0-0.4,0.1-0.6,0.2c-0.2,0.1-0.3,0.3-0.4,0.5v0.4c0,0.5,0.1,0.9,0.3,1.1
								c0.2,0.3,0.5,0.4,0.8,0.4c0.3,0,0.6-0.1,0.8-0.4c0.2-0.2,0.3-0.6,0.3-1c0-0.4-0.1-0.7-0.3-1
								C216.9,287.9,216.6,287.8,216.3,287.8z"/>
							<path class="st0" d="M225,285l-2.8,6.5h-1.5l2.8-6.1h-3.6v-1.2h5.2V285z"/>
							<path class="st0" d="M231.1,286.1c0,0.4-0.1,0.7-0.3,0.9c-0.2,0.3-0.4,0.5-0.7,0.7c0.4,0.2,0.6,0.4,0.8,0.7
								c0.2,0.3,0.3,0.7,0.3,1.1c0,0.6-0.2,1.2-0.7,1.5c-0.4,0.4-1,0.6-1.8,0.6c-0.8,0-1.4-0.2-1.8-0.6c-0.4-0.4-0.7-0.9-0.7-1.5
								c0-0.4,0.1-0.8,0.3-1.1c0.2-0.3,0.5-0.5,0.8-0.7c-0.3-0.2-0.6-0.4-0.7-0.7c-0.2-0.3-0.3-0.6-0.3-0.9c0-0.6,0.2-1.1,0.6-1.5
								c0.4-0.4,1-0.6,1.7-0.6c0.7,0,1.3,0.2,1.7,0.6C230.9,285,231.1,285.5,231.1,286.1z M229.8,289.4c0-0.3-0.1-0.6-0.3-0.8
								c-0.2-0.2-0.4-0.3-0.7-0.3c-0.3,0-0.6,0.1-0.7,0.3s-0.3,0.4-0.3,0.8c0,0.3,0.1,0.6,0.3,0.8c0.2,0.2,0.4,0.3,0.8,0.3
								c0.3,0,0.6-0.1,0.7-0.3C229.8,290,229.8,289.7,229.8,289.4z M229.7,286.2c0-0.3-0.1-0.5-0.2-0.7c-0.2-0.2-0.4-0.3-0.6-0.3
								c-0.3,0-0.5,0.1-0.6,0.3c-0.2,0.2-0.2,0.4-0.2,0.7c0,0.3,0.1,0.5,0.2,0.7c0.2,0.2,0.4,0.3,0.6,0.3c0.3,0,0.5-0.1,0.6-0.3
								C229.6,286.7,229.7,286.5,229.7,286.2z"/>
						</g>
						<text transform="matrix(1 0 0 1 128.6747 81.827)" class="st8 st256 st257">Wallet</text>
						<text transform="matrix(1 0 0 1 166.8661 155.5477)" class="st8 st256 st257">PAY</text>
					</g>
				</g>
				<g>
					<path class="st258" d="M259.3,223.5c0,0-1.9,14.1-1.8,17.8c0.1,3.8,2.7,16.2,3.6,20c0.9,3.8,2.3,7,0.8,10.1
						c-1.5,3.1-1.2,6.2-1.4,7.9c-0.2,1.7-0.4,2.3,0,2.4c0.4,0.2,2-1.2,2.1-2.3c0.1-1,0.2-1.9,0.4-2.8c0.2-0.4,1.5,1.1,1.3,2.3
						c-0.1,0.6-0.2,1.2-0.4,1.8l0.4,1.8c0,0,3.5-2.3,3.9-4.8c0.5-2.4,0.3-4.9-0.5-7.3c-0.9-2.9,0-23.8-1.5-28.8
						c-1.5-5,1.8-20.1,1.8-20.1L259.3,223.5z"/>
					<path class="st259" d="M267.3,271.8c0,0-2-0.7-2.8,0.5c-0.8,1.2,0.9,3.3,1.1,4.2c0.2,0.8,0.2,1.6,0,2.4c0,0.2,0,0.4,0.1,0.6
						c0,0-0.9,0.7-1.4,0.9c-0.4,0.2-1.7,0.3-2.1,1.2c1,0.8,2.8-0.1,3.9-0.5c0.5-0.1,1-0.4,1.4-0.8c0.4-0.4,0.7-0.9,0.9-1.4
						c0.2-1.1,0.3-4.9-0.2-5.9C267.8,272,267.6,271.9,267.3,271.8z"/>
					<path class="st259" d="M268.1,279.3c0,0-0.2,2.5-2.1,3.4c-1.9,0.9-5,1-5.8,0.6c-0.2-0.8,2.3-1.2,3.1-1.6
						c1.3-0.7,2.6-1.5,3.8-2.4C267,279.1,268.1,279.3,268.1,279.3z"/>
					<path class="st259" d="M266.9,281.6c-0.1,0.4-0.3,0.8-0.5,1.1c-0.3,0.3-0.6,0.6-1,0.8c-1.2,0.7-2.6,1.3-3.9,1.8
						c-0.4,0-0.2-1.6,1.1-2.2C263.8,282.5,266.9,281.6,266.9,281.6z"/>
					<path class="st260" d="M268.4,200.7c1.5,7.5,2.4,15.2,2.7,22.8c-3.7,1.7-13.7,0.8-13.7,0.8c0.3-1.8,0.6-2.2,0.3-3
						c-0.3-0.7,0.4-5.6,3.4-8.7C264,209.5,266.5,201.6,268.4,200.7z"/>
					<path class="st259" d="M250.9,308.2c-0.2,4.1,0.5,16.9-2.9,30.3c-3.4,13.4-4.7,20.3-4.7,22.1c-1.8,0.5-3.8,0.3-5.6-0.5
						c0,0,0.4-16.7,0-26c-0.4-9.4,0-36.9,0.9-43.1c0.4-3.7,0.6-7.4,0.5-11.2l17.8,2C254.6,293.4,251.1,305.2,250.9,308.2z"/>
					<path class="st259" d="M219.8,244.3c3-5.1,33.1-2,33.1-2s7.6,13.6,6.2,27.1c-0.5,4.2-1.2,8.4-2.1,12.5l-17.8-2
						c0-3.6-0.3-7.2-0.9-10.7c-2.1,4.9-3,22.6-2.1,36.3c0.9,13.6-2.2,38.4-0.3,48.9c1.3,7.2,0.3,8.2-4.2,8.2c-4.7-0.4-2.5-4.6-2-8.4
						c0.5-3.8-4.9-15.5-6.8-26.9c-1.9-11.3-1.7-19.7-1.8-26.3c-0.1-6.6-4.2-18.6-4.6-28.5C216,262.7,216.8,249.4,219.8,244.3z"/>
					<path class="st0" d="M256.8,250.2c0,0,6.9,5.5,4.5,22.2c-2.4,16.7-5.3,23.8-5.3,23.8s-18.1,3.7-37.3-2.4
						c-2.4-14-8-37.5,2.3-51.4C237,243.5,256.8,250.2,256.8,250.2z"/>
					<path class="st0" d="M237.4,358.9c0,0,5.2-0.8,6.2,1.1c1,1.9,1.5,6.4,1.2,7.5c-1.5,1.5-7.2,0.7-9.5-0.1
						C233.1,366.7,237.4,358.9,237.4,358.9z"/>
					<path class="st0" d="M235.1,364.1c-0.1,0.8,0.1,1.5,0.6,1.7c2.1,0.7,7.4,1.4,9.2,0.3c0,0.5,0,1-0.1,1.4
						c-1.5,1.5-7.2,0.7-9.5-0.1C234.5,367.1,234.6,365.7,235.1,364.1z"/>
					<path class="st0" d="M236.5,358.5c-0.2-0.1-4.1-2.4-7.8,0c-0.9,2.2-0.6,5.5-1.3,7.7c-0.8,2.2-3.8,8.7-2.1,11.5
						c3.3,1.5,10.8,1.4,10.8,1.4s2.2-4.1,1.6-7.7c-0.6-3.7-0.7-2.7-0.4-6.3C237.6,361.6,237.6,359.1,236.5,358.5z"/>
					<path class="st0" d="M236.3,365.6c0,0-2.6,4.7-2.1,7c0.5,2.3,2.8,3.9,2.1,6.4c-0.8,2.5-9.8-0.5-10.7-1
						c-0.9-0.5-0.3-1.7,1.6-5.2c1.9-3.5,1.6-5,1.5-7.2c-0.1-2.2,1.6-3.4,3.5-3.7C234.1,361.6,237.4,362.7,236.3,365.6z"/>
					<path class="st260" d="M268.4,200.7c0,0-19.2-16.3-44.6-14c-0.6,2.8-2.4,13.1,0,21.9c2.4,8.8,0.2,16.9-1.2,19
						c-1.4,2.1-4.6,15-5.6,19.6c11,8,37.3,6,42.2,4.9c-5.3-13.9-8-20.2-6.4-22.4c1.7-2.2,3-2.3,3-4c0-1.7,1-3.2,1.8-4.3
						c0.8-1.1,0.4-1.9,0.9-3.5c0.5-1.6,4-4.7,5.6-7.2C265.7,208.1,268.4,200.7,268.4,200.7z"/>
					<path class="st258" d="M218.4,191.8c-1.9-0.5-3.7-1.1-5.6-1.9c-1.3-0.7-4.9-10.3-5-13.3c-0.2-2.9,1.5-4.1,1.5-6.6
						s-3.7-11.7-4.9-11.9c-1.1-0.2-0.7,1.9,0,3.5c0.7,1.6,1.2,3.7,1,4.1c-0.2,0.4-0.9,0.1-1.4-0.1c-0.5-0.1-0.9,0.1-0.9,1.3
						c0,0.3-1.2-0.2-1.4,1c-0.1,0.3-1.1,0.1-1.2,1.2c0,0.8,0.2,1.5,0.6,2.2c0.4,0.7,1,1.2,1.6,1.6c0.3,0.9-1.3,8.9,0.1,14.9
						c1.4,5.9,1.5,6,2.6,6.9c3.3,2.5,6.9,4.4,10.8,5.7C221.7,202.3,218.4,191.8,218.4,191.8z"/>
					<path class="st260" d="M223.9,186.7c-0.6,0.2-1.1,0.5-1.6,0.9c-0.4,0.4-0.8,1-0.9,1.6c-0.7,2.1-5.1,0.7-5.3,0.7
						c-2.6,2.8-2.6,4.4-2.7,8.1c0,1.1,0.2,2.3,0.7,3.3c0.5,1,1.2,1.9,2.1,2.7c1.8,0.2,6.5,1.8,7.7,4.6
						C225,204.3,224.4,187,223.9,186.7z"/>
					<path class="st0" d="M228.8,186.5c-1.3,0-3.3,0.2-3.3,0.2s4-0.6,5.4-3c1.4-2.4,2-4.7,1-8.8c-1-4,1.2-10.4,3.2-12.5
						c2.3-2.7,8-3.9,10.4-1.6c0,0,4.8-2.2,8.2,3c3.4,5.2,3,19.8,4.7,22.9c1.6,3,7.3,10.9,5.3,18.1c-0.8,2.8-2.3,5.3-4.4,7.4
						c2.1-5.2,1.4-11.3,1.1-12.8c-0.1,3.4-0.6,6.8-1.5,10.1c-1.6,5.2,0.6,6.4-2.7,13.3c1.4-5.2,0.8-7.4,0.4-9.6
						c-0.2-1-0.4-2.1-0.6-3.3c-0.3,2.5-0.3,4.9,0,7.4c0,0.2-0.1,0.4-0.1,0.7c-0.1,4.3-0.6,9.9-9.5,14.1c2.3-4.3,2.3-11-2.4-14.1
						c-4.7-3.1-5.8-11.5-5.3-13.6c-2.6,3.3-1.5,9.5,0.9,12.3c2.4,2.8,4.6,7.4,3.1,12c-0.9-6.9-3.3-7.2-7-11.4
						c-3.7-4.3-7.1-12.8-4.4-21c-2.5,2.1-4,12.9,0.9,20.6c-5.9-6.8-5.3-21.4-3.2-25.8C231.1,186.5,230.1,186.5,228.8,186.5z"/>
				</g>
				<ellipse class="st0" cx="239.8" cy="368.3" rx="24.2" ry="0.3"/>
			</g>
			<g>
				<path class="st8" d="M367.2,0.8H195c-7.4,0-13.4,6-13.4,13.4v108.3c0,7.4,6,13.4,13.4,13.4h172.2c7.4,0,13.4-6,13.4-13.4V14.2
					C380.5,6.8,374.6,0.8,367.2,0.8z"/>
				<path class="st0" d="M367.2,136.7H195c-3.8,0-7.4-1.5-10-4.2c-2.7-2.7-4.1-6.3-4.2-10V14.2c0-3.8,1.5-7.4,4.2-10
					c2.7-2.7,6.3-4.1,10-4.2h172.2c3.8,0,7.4,1.5,10,4.1c2.7,2.7,4.1,6.3,4.1,10v108.3c0,3.8-1.5,7.4-4.1,10
					C374.5,135.2,370.9,136.7,367.2,136.7z M195,1.6c-3.3,0-6.5,1.3-8.9,3.7s-3.7,5.5-3.7,8.9v108.3c0,3.3,1.3,6.5,3.7,8.9
					c2.4,2.4,5.5,3.7,8.9,3.7h172.2c3.3,0,6.5-1.3,8.9-3.7c2.4-2.4,3.7-5.5,3.7-8.9V14.2c0-3.3-1.3-6.5-3.7-8.9
					c-2.4-2.4-5.5-3.7-8.9-3.7L195,1.6z"/>
				<path class="st11" d="M247.3,84.7h-46.7v8.3h46.7V84.7z"/>
				<path class="st11" d="M304.5,84.7h-46.7v8.3h46.7V84.7z"/>
				<path class="st11" d="M361.6,84.7h-46.7v8.3h46.7V84.7z"/>
				<path class="st11" d="M296,103.6h-95.4v5.9H296V103.6z"/>
				<path class="st7" d="M361.6,109.5h-29.9c-1.1,0-1.9,0.9-1.9,1.9v10.3c0,1.1,0.9,1.9,1.9,1.9h29.9c1.1,0,1.9-0.9,1.9-1.9v-10.3
					C363.5,110.4,362.6,109.5,361.6,109.5z"/>
				<path class="st7" d="M238.9,46.8h-33.6c-1.5,0-2.7,1.2-2.7,2.7v18.2c0,1.5,1.2,2.7,2.7,2.7h33.6c1.5,0,2.7-1.2,2.7-2.7V49.5
					C241.5,48,240.3,46.8,238.9,46.8z"/>
				<path class="st11" d="M361.6,17.1h-72.2v9.4h72.2V17.1z"/>
			</g>
		</g>
		<g id="Layer-22_00000127764030592351749340000000978249829146638994_">
			<g>
				<path class="st253" d="M24.7,99.7c1,8.1,2.5,19.6,4.5,37.7c0.1,1.3-2.1-0.7-3.5-0.5c-1.3,0.2-0.8,1.7-2.3,1.5
					c-1.5-0.2-2-2.2-3.6-1.7c-1.6,0.5-1.3,2.3-3.4,2c-2.1-0.2-2-1.7-3.8-1.7c-1.8,0-3.4,2.6-4.4,1.5c-1-1.1-3.1-28.4-3.8-38.2
					c-0.1-0.8,1.7-1,3.6-0.9c1.9,0.1,2.1,1.5,3.5,1.2c1.4-0.3,2-2.1,3.8-2.1c1.8,0,2.1,2.6,3.6,2.3c1.5-0.3,1.8-1.8,2.9-2.1
					C23,98.4,24.5,98.1,24.7,99.7z"/>
				<path class="st253" d="M7.3,133.3c-1.3,0.7-2.4,2-3.1,1.1c-1-1.1-3.1-28.4-3.8-38.2c-0.1-0.8,1.7-1,3.6-0.9
					c1.9,0.1,2.1,1.5,3.5,1.2c1.4-0.3,2-2.1,3.8-2.1c1.8,0,2.1,2.6,3.6,2.3c1.5-0.3,1.8-1.8,2.9-2.1c1.1-0.4,2.6-0.6,2.8,1
					c0.1,1.2,0.3,2.4,0.5,3.8"/>
				<path class="st253" d="M24.7,127.2L9.3,128"/>
				<path class="st253" d="M25.1,129.8l-15,0.9"/>
				<path class="st253" d="M25.5,132.5l-14.9,0.8"/>
				<path class="st253" d="M17,105.3L7.4,106"/>
				<path class="st253" d="M17.1,108.8l-5.9,0.4l-3.6,0.2"/>
				<path class="st253" d="M17.8,112.4L8.3,113"/>
				<path class="st253" d="M18.2,115.9l-9.6,0.6"/>
				<path class="st253" d="M18.2,119.4l-9.6,0.6"/>
				<path class="st253" d="M18.9,122.9l-9.6,0.6"/>
				<path class="st253" d="M22.2,104.9l-2.9,0.2"/>
				<path class="st253" d="M22.2,104.9l-2.9,0.2"/>
				<path class="st253" d="M22.6,108.6l-2.9,0.2"/>
				<path class="st253" d="M23,112.1l-2.9,0.2"/>
				<path class="st253" d="M23.5,115.7l-2.9,0.2"/>
				<path class="st253" d="M24.1,119.2l-2.9,0.2"/>
				<path class="st253" d="M24.4,122.7l-2.9,0.2"/>
			</g>
		</g>
		<g id="Layer-21_00000000929176817109776280000017126465830672997020_">
			<g>
				<path class="st11" d="M44.2,173.9c-0.2,0.3-1.4,1.8-1.9,2.4c-2.9,3.2-7.9,7.2-9.2,7.9c-3.1,2-6.3,3.5-9.4,4.5
					c-1.1,0.4-3.6,1-3.8,1.1c-0.9,0.1-0.8,0.7-0.8,0.7c0,0.1-0.3,4.5-0.4,6.1c-0.2,5.2-0.4,10.5-0.3,15.4
					c0.1,11.8,1.1,19.5,3.5,21.5c1.5,1.3,4,2.9,7.4,4.8c1,0.6,11,6.1,15.1,7.8c0.2,0.1,0.3,0.2,0.7,0c4.2-2,14.2-7.4,15.2-7.9
					c3.3-1.9,5.9-3.5,7.4-4.8c2.4-2,3.4-9.7,3.5-21.5c0-4.9-0.1-10.2-0.3-15.4c-0.1-1.6-0.3-5.9-0.3-6c0,0,0-0.4-0.6-0.5
					c-0.4-0.1-3-0.7-4.1-1.1c-3.1-1.1-6.3-2.6-9.4-4.5c-1.2-0.8-6.1-4.4-9-7.8c-0.5-0.7-1.9-2.3-2.2-2.7
					C44.9,173.6,44.5,173.6,44.2,173.9z"/>
				<path class="st261" d="M44.3,180.9c-0.2,0.2-1.1,1.5-1.6,2c-2.4,2.6-6.5,5.8-7.5,6.5c-2.5,1.6-5.2,2.8-7.7,3.7
					c-0.9,0.3-2.9,0.8-3.1,0.9c-0.7,0.1-0.7,0.6-0.7,0.6c0,0.1-0.2,3.7-0.3,5c-0.2,4.3-0.3,8.6-0.3,12.6c0.1,9.6,0.9,15.9,2.8,17.6
					c1.2,1.1,3.3,2.4,6,3.9c0.8,0.5,9,5,12.3,6.4c0.2,0.1,0.2,0.2,0.6,0c3.5-1.6,11.6-6,12.5-6.5c2.7-1.5,4.8-2.9,6-3.9
					c1.9-1.7,2.7-7.9,2.8-17.6c0-4-0.1-8.3-0.3-12.6c-0.1-1.3-0.3-4.8-0.3-4.9c0,0,0-0.3-0.5-0.4c-0.4-0.1-2.4-0.6-3.3-0.9
					c-2.6-0.9-5.2-2.1-7.7-3.7c-1-0.6-5-3.6-7.3-6.4c-0.4-0.5-1.6-1.9-1.8-2.2C44.8,180.6,44.5,180.6,44.3,180.9z"/>
				<path class="st261" d="M38.4,211.8l5.1,6.2l7.4-11.5"/>
				<path class="st261" d="M32.6,212.3c0-6.7,5.4-12.1,12.1-12.1c6.7,0,12.1,5.4,12.1,12.1c0,6.7-5.4,12.1-12.1,12.1
					C38,224.3,32.6,218.9,32.6,212.3z"/>
			</g>
		</g>
		<g>
			<path class="st262" d="M296.1,197.4c-4.9-1.3-9.1-4.9-11-9.9c-3.2-8.4,1-17.8,9.4-21c8.4-3.2,17.8,1,21,9.4
				c3.2,8.4-1,17.8-9.4,21c-1.2,0.4-2.3,0.7-3.5,0.9"/>
			<path class="st262" d="M296,197.4c0,0,0.1,3.9-1.7,6.2c-2.7,3.7-4.3,4.3-4.3,4.3s5.7-1.4,8.6-3.9c2.9-2.5,3.8-6.3,3.8-6.3"/>
			<path class="st11" d="M309.3,176.6l-11.5,14.9l-6.5-8l2.2-3.1l4.2,7.7l9-15.5L309.3,176.6z"/>
		</g>
		<g>
			<path class="st0" d="M143.5,218.8c-0.8,0-1.5-0.3-2.1-0.8c-10.9-9.5-13.2-22.4-13.7-27.5c-0.1-0.8,0.2-1.6,0.7-2.2
				c0.5-0.6,1.2-1,2-1.2c4.2-0.6,9.5-3.3,11.6-4.4c0.5-0.3,1-0.4,1.5-0.4c0.5,0,1,0.1,1.5,0.4c2.1,1.2,7.4,3.9,11.6,4.4
				c0.8,0.1,1.5,0.5,2,1.2c0.5,0.6,0.7,1.4,0.7,2.2c-0.5,5.1-2.8,18-13.7,27.5C145,218.5,144.2,218.8,143.5,218.8z M143.5,182.9
				c-0.4,0-0.8,0.1-1.2,0.3c-2.1,1.2-7.5,3.9-11.8,4.5c-0.6,0.1-1.2,0.4-1.6,0.9c-0.4,0.5-0.6,1.2-0.5,1.8c0.5,5,2.7,17.7,13.5,27.1
				c0.5,0.4,1.1,0.6,1.7,0.6s1.2-0.2,1.7-0.6c10.8-9.4,13-22.1,13.5-27.1c0.1-0.7-0.1-1.3-0.5-1.8c-0.4-0.5-1-0.8-1.7-0.9
				c-4.3-0.6-9.7-3.4-11.8-4.5C144.3,183,143.9,182.9,143.5,182.9z"/>
			<path class="st7" d="M142.7,184c-2,1.1-7.6,4-12.1,4.6c-0.4,0.1-0.8,0.3-1.1,0.6c-0.3,0.3-0.4,0.8-0.3,1.2
				c0.4,4.5,2.6,17.2,13.2,26.5c0.3,0.3,0.7,0.4,1.1,0.4c0.4,0,0.8-0.1,1.1-0.4c10.6-9.3,12.8-22,13.2-26.5c0-0.4-0.1-0.8-0.3-1.2
				c-0.3-0.3-0.6-0.5-1.1-0.6c-4.5-0.6-10.1-3.5-12.1-4.6c-0.2-0.1-0.5-0.2-0.8-0.2C143.2,183.8,142.9,183.8,142.7,184z"/>
			<path class="st0" d="M141.8,207.3c-0.2,0-0.4-0.1-0.6-0.2l-5.7-5c-0.2-0.2-0.3-0.4-0.3-0.6s0.1-0.5,0.2-0.7
				c0.2-0.2,0.4-0.3,0.6-0.3c0.2,0,0.5,0.1,0.7,0.2l4.9,4.3l8.4-14c0.1-0.1,0.1-0.2,0.2-0.3c0.1-0.1,0.2-0.1,0.3-0.2
				c0.1,0,0.2,0,0.4,0c0.1,0,0.2,0.1,0.3,0.1c0.1,0.1,0.2,0.1,0.3,0.2c0.1,0.1,0.1,0.2,0.2,0.3c0,0.1,0,0.2,0,0.4
				c0,0.1-0.1,0.2-0.1,0.3l-9,15c-0.1,0.1-0.2,0.2-0.3,0.3c-0.1,0.1-0.2,0.1-0.4,0.1C141.9,207.3,141.9,207.3,141.8,207.3z"/>
		</g>
	</g>
</g>
<g id="Contact_US">
</g>
<g id="Layer_13">
</g>
</svg>
